STARTFONT 2.1
COMMENT Copyright (C) 1990-1991 EWT Consulting
COMMENT Portions Copyright (C) 1994-1995 Cronyx Ltd.
COMMENT Changes Copyright (C) 1996-1997 by Andrey A. Chernov, Moscow, Russia.
COMMENT Modified by Serge Vakulenko, <vak@cronyx.ru>
COMMENT Changes 1999 by Serge Winitzki.
COMMENT This software may be used, modified, copied, distributed, and sold,
COMMENT in both source and binary form provided that the copyright
COMMENT and these terms are retained. Under no circumstances is the author
COMMENT responsible for the proper functioning of this software, nor does
COMMENT the author assume any responsibility for damages incurred with its use.
COMMENT $XFree86$
FONT -Cronyx-Helvetica-Medium-O-Normal--17-120-100-100-P-67-KOI8-R
SIZE 12 96 96
FONTBOUNDINGBOX 19 18 -2 -4
STARTPROPERTIES 21
DEFAULT_CHAR 32
FONT_ASCENT 16
FONT_DESCENT 4
SPACING "P"
FONTNAME_REGISTRY ""
FOUNDRY "Cronyx"
FAMILY_NAME "Helvetica"
WEIGHT_NAME "Medium"
SLANT "O"
SETWIDTH_NAME "Normal"
ADD_STYLE_NAME ""
AVERAGE_WIDTH 67
CHARSET_REGISTRY "KOI8"
CHARSET_ENCODING "R"
PIXEL_SIZE 17
POINT_SIZE 120
RESOLUTION_X 100
RESOLUTION_Y 100
COPYRIGHT "Copyright (C) 1990, 1991 EWT Consulting, Portions Copyright (C) 1994 Cronyx Ltd., Portions Copyright (C) 1996-1997 by Andrey A. Chernov, Moscow, Russia."
_XMBDFED_INFO "Edited with xmbdfed 4.3."
_XFREE86_GLYPH_RANGES "32_126 149 154 156_158 163 179 191_255"
ENDPROPERTIES
CHARS 167
STARTCHAR space
ENCODING 32
SWIDTH 250 0
DWIDTH 4 0
BBX 0 0 -1 0
BITMAP
ENDCHAR
STARTCHAR exclam
ENCODING 33
SWIDTH 250 0
DWIDTH 4 0
BBX 4 12 1 0
BITMAP
10
20
20
20
20
40
40
40
40
00
00
80
ENDCHAR
STARTCHAR quotedbl
ENCODING 34
SWIDTH 375 0
DWIDTH 6 0
BBX 5 4 2 8
BITMAP
48
90
90
90
ENDCHAR
STARTCHAR numbersign
ENCODING 35
SWIDTH 562 0
DWIDTH 9 0
BBX 11 12 -1 0
BITMAP
0240
0480
0480
1FC0
0900
1200
1200
1200
7F00
4800
4800
4800
ENDCHAR
STARTCHAR dollar
ENCODING 36
SWIDTH 562 0
DWIDTH 9 0
BBX 10 14 0 -1
BITMAP
0200
0700
0A80
1480
2400
1400
0E00
0A00
0900
0900
4A00
5400
3800
1000
ENDCHAR
STARTCHAR percent
ENCODING 37
SWIDTH 875 0
DWIDTH 14 0
BBX 15 12 0 0
BITMAP
0E02
120C
2210
2220
1C40
0180
0200
0470
0888
3110
4110
80E0
ENDCHAR
STARTCHAR ampersand
ENCODING 38
SWIDTH 687 0
DWIDTH 11 0
BBX 13 12 0 0
BITMAP
0600
0A00
1200
1200
0C00
1800
2400
4240
4180
8100
4280
3C40
ENDCHAR
STARTCHAR quotesingle
ENCODING 39
SWIDTH 187 0
DWIDTH 3 0
BBX 2 4 2 8
BITMAP
40
80
80
80
ENDCHAR
STARTCHAR parenleft
ENCODING 40
SWIDTH 312 0
DWIDTH 5 0
BBX 7 16 0 -3
BITMAP
02
04
08
08
10
20
20
20
20
40
40
40
20
40
40
20
ENDCHAR
STARTCHAR parenright
ENCODING 41
SWIDTH 312 0
DWIDTH 5 0
BBX 7 16 0 -3
BITMAP
08
08
08
08
04
08
08
08
08
10
10
10
20
40
40
80
ENDCHAR
STARTCHAR asterisk
ENCODING 42
SWIDTH 375 0
DWIDTH 6 0
BBX 6 5 2 8
BITMAP
10
54
78
50
88
ENDCHAR
STARTCHAR plus
ENCODING 43
SWIDTH 562 0
DWIDTH 9 0
BBX 8 7 1 2
BITMAP
08
08
08
7F
10
10
10
ENDCHAR
STARTCHAR comma
ENCODING 44
SWIDTH 250 0
DWIDTH 4 0
BBX 2 2 0 -1
BITMAP
40
80
ENDCHAR
STARTCHAR hyphen
ENCODING 45
SWIDTH 312 0
DWIDTH 5 0
BBX 5 1 0 5
BITMAP
F8
ENDCHAR
STARTCHAR period
ENCODING 46
SWIDTH 250 0
DWIDTH 4 0
BBX 1 1 1 0
BITMAP
80
ENDCHAR
STARTCHAR slash
ENCODING 47
SWIDTH 250 0
DWIDTH 4 0
BBX 7 13 -1 -1
BITMAP
02
02
04
04
08
08
10
10
20
20
40
40
80
ENDCHAR
STARTCHAR zero
ENCODING 48
SWIDTH 562 0
DWIDTH 9 0
BBX 10 12 0 0
BITMAP
0700
0900
1100
2080
2080
4100
4100
4100
4200
4400
4400
3800
ENDCHAR
STARTCHAR one
ENCODING 49
SWIDTH 562 0
DWIDTH 9 0
BBX 6 12 1 0
BITMAP
04
38
08
08
08
10
10
10
10
20
20
20
ENDCHAR
STARTCHAR two
ENCODING 50
SWIDTH 562 0
DWIDTH 9 0
BBX 10 12 0 0
BITMAP
0700
1900
2080
2080
0100
0200
0400
0800
1000
6000
8000
FE00
ENDCHAR
STARTCHAR three
ENCODING 51
SWIDTH 562 0
DWIDTH 9 0
BBX 10 12 0 0
BITMAP
0700
1900
2080
2080
0100
1E00
0200
0100
4100
8200
4400
3800
ENDCHAR
STARTCHAR four
ENCODING 52
SWIDTH 562 0
DWIDTH 9 0
BBX 10 12 0 0
BITMAP
0080
0300
0300
0500
0900
1200
2200
4200
7F00
0400
0400
0400
ENDCHAR
STARTCHAR five
ENCODING 53
SWIDTH 562 0
DWIDTH 9 0
BBX 10 12 0 0
BITMAP
1FC0
2000
2000
2000
2E00
7200
4100
0100
4100
8200
4400
3800
ENDCHAR
STARTCHAR six
ENCODING 54
SWIDTH 562 0
DWIDTH 9 0
BBX 10 12 0 0
BITMAP
0700
1900
2080
2000
2E00
7200
4100
4100
4100
8200
4400
3800
ENDCHAR
STARTCHAR seven
ENCODING 55
SWIDTH 562 0
DWIDTH 9 0
BBX 10 12 0 0
BITMAP
1FC0
0080
0080
0100
0200
0400
0400
0400
0800
1000
1000
1000
ENDCHAR
STARTCHAR eight
ENCODING 56
SWIDTH 562 0
DWIDTH 9 0
BBX 10 12 0 0
BITMAP
0700
1900
2080
2080
1100
1E00
2200
4100
4100
8200
4400
3800
ENDCHAR
STARTCHAR nine
ENCODING 57
SWIDTH 562 0
DWIDTH 9 0
BBX 10 12 0 0
BITMAP
0700
1900
2080
2080
2080
4100
2300
1D00
0100
8200
4400
3800
ENDCHAR
STARTCHAR colon
ENCODING 58
SWIDTH 250 0
DWIDTH 4 0
BBX 3 9 1 0
BITMAP
20
00
00
00
00
00
00
00
80
ENDCHAR
STARTCHAR semicolon
ENCODING 59
SWIDTH 250 0
DWIDTH 4 0
BBX 4 10 0 -1
BITMAP
10
00
00
00
00
00
00
00
40
80
ENDCHAR
STARTCHAR less
ENCODING 60
SWIDTH 562 0
DWIDTH 9 0
BBX 8 7 1 2
BITMAP
03
0C
30
40
60
18
06
ENDCHAR
STARTCHAR equal
ENCODING 61
SWIDTH 562 0
DWIDTH 9 0
BBX 8 4 1 4
BITMAP
7F
00
00
FE
ENDCHAR
STARTCHAR greater
ENCODING 62
SWIDTH 562 0
DWIDTH 9 0
BBX 8 7 1 2
BITMAP
60
18
06
02
0C
30
C0
ENDCHAR
STARTCHAR question
ENCODING 63
SWIDTH 562 0
DWIDTH 9 0
BBX 10 12 0 0
BITMAP
0700
1900
2080
2080
0100
0200
0400
0800
0800
0000
0000
1000
ENDCHAR
STARTCHAR at
ENCODING 64
SWIDTH 1000 0
DWIDTH 16 0
BBX 17 12 0 0
BITMAP
00FC00
070400
080200
10E100
211100
422200
442200
446400
43B800
400000
303000
0FC000
ENDCHAR
STARTCHAR A
ENCODING 65
SWIDTH 687 0
DWIDTH 11 0
BBX 14 12 -1 0
BITMAP
0080
0100
0280
0280
0440
0880
1040
1040
3FE0
4040
8020
8020
ENDCHAR
STARTCHAR B
ENCODING 66
SWIDTH 687 0
DWIDTH 11 0
BBX 11 12 1 0
BITMAP
1F80
2080
2040
2040
2080
7F00
4100
4080
4080
8100
8200
FC00
ENDCHAR
STARTCHAR C
ENCODING 67
SWIDTH 687 0
DWIDTH 11 0
BBX 13 12 0 0
BITMAP
03C0
1C60
1020
2010
2000
4000
4000
4000
4020
4040
6180
1E00
ENDCHAR
STARTCHAR D
ENCODING 68
SWIDTH 750 0
DWIDTH 12 0
BBX 12 12 1 0
BITMAP
1F80
20C0
2040
2020
2020
4040
4040
4040
4080
8100
8300
FC00
ENDCHAR
STARTCHAR E
ENCODING 69
SWIDTH 687 0
DWIDTH 11 0
BBX 11 12 1 0
BITMAP
1FE0
2000
2000
2000
2000
7F00
4000
4000
4000
8000
8000
FF00
ENDCHAR
STARTCHAR F
ENCODING 70
SWIDTH 625 0
DWIDTH 10 0
BBX 11 12 1 0
BITMAP
1FE0
2000
2000
2000
2000
7F00
4000
4000
4000
8000
8000
8000
ENDCHAR
STARTCHAR G
ENCODING 71
SWIDTH 812 0
DWIDTH 13 0
BBX 13 12 0 0
BITMAP
03C0
1C60
1020
2010
2000
4000
43E0
4020
4020
40C0
61C0
1E40
ENDCHAR
STARTCHAR H
ENCODING 72
SWIDTH 750 0
DWIDTH 12 0
BBX 11 12 1 0
BITMAP
1020
2040
2040
2040
2040
7F80
4080
4080
4080
8100
8100
8100
ENDCHAR
STARTCHAR I
ENCODING 73
SWIDTH 312 0
DWIDTH 5 0
BBX 4 12 1 0
BITMAP
10
20
20
20
20
40
40
40
40
80
80
80
ENDCHAR
STARTCHAR J
ENCODING 74
SWIDTH 500 0
DWIDTH 8 0
BBX 9 12 -1 0
BITMAP
0080
0100
0100
0100
0100
0200
0200
0200
4200
8400
8400
7800
ENDCHAR
STARTCHAR K
ENCODING 75
SWIDTH 625 0
DWIDTH 10 0
BBX 11 12 1 0
BITMAP
1040
2180
2200
2400
2800
7000
5000
4800
4400
8400
8200
8100
ENDCHAR
STARTCHAR L
ENCODING 76
SWIDTH 562 0
DWIDTH 9 0
BBX 10 12 1 0
BITMAP
1000
2000
2000
2000
2000
4000
4000
4000
4000
8000
8000
FE00
ENDCHAR
STARTCHAR M
ENCODING 77
SWIDTH 812 0
DWIDTH 13 0
BBX 12 12 1 0
BITMAP
1010
2020
3060
3060
28A0
5140
4A40
4A40
4440
8880
8080
8080
ENDCHAR
STARTCHAR N
ENCODING 78
SWIDTH 687 0
DWIDTH 11 0
BBX 10 12 1 0
BITMAP
1040
3080
3080
2880
2880
4900
4900
4500
4500
8600
8600
8200
ENDCHAR
STARTCHAR O
ENCODING 79
SWIDTH 750 0
DWIDTH 12 0
BBX 13 12 0 0
BITMAP
03C0
1C60
1020
2010
2010
4020
4020
4020
4040
4080
6180
1E00
ENDCHAR
STARTCHAR P
ENCODING 80
SWIDTH 625 0
DWIDTH 10 0
BBX 11 12 1 0
BITMAP
1F80
2080
2040
2040
2080
4100
7E00
4000
4000
8000
8000
8000
ENDCHAR
STARTCHAR Q
ENCODING 81
SWIDTH 750 0
DWIDTH 12 0
BBX 13 13 0 -1
BITMAP
03C0
0C30
1020
2010
2010
2010
4020
4020
4220
2140
6180
1E80
0040
ENDCHAR
STARTCHAR R
ENCODING 82
SWIDTH 750 0
DWIDTH 12 0
BBX 12 12 1 0
BITMAP
1F80
2080
2040
2040
2080
4100
7E00
4100
4080
8100
8100
8080
ENDCHAR
STARTCHAR S
ENCODING 83
SWIDTH 687 0
DWIDTH 11 0
BBX 12 12 0 0
BITMAP
07C0
1840
2020
2000
1000
1F00
0080
0040
0040
8080
4100
3E00
ENDCHAR
STARTCHAR T
ENCODING 84
SWIDTH 562 0
DWIDTH 9 0
BBX 12 12 -1 0
BITMAP
1FF0
0200
0200
0200
0200
0400
0400
0400
0400
0800
0800
0800
ENDCHAR
STARTCHAR U
ENCODING 85
SWIDTH 750 0
DWIDTH 12 0
BBX 11 12 1 0
BITMAP
1020
2040
2040
2040
2040
4080
4080
4080
4080
8100
4200
3C00
ENDCHAR
STARTCHAR V
ENCODING 86
SWIDTH 687 0
DWIDTH 11 0
BBX 14 12 -1 0
BITMAP
1004
2008
1010
1010
0820
1040
0880
0880
0500
0A00
0400
0400
ENDCHAR
STARTCHAR W
ENCODING 87
SWIDTH 937 0
DWIDTH 15 0
BBX 18 12 -1 0
BITMAP
100040
204080
104100
104100
10A200
114400
114400
0A2800
0C3000
082000
082000
082000
ENDCHAR
STARTCHAR X
ENCODING 88
SWIDTH 687 0
DWIDTH 11 0
BBX 14 12 -1 0
BITMAP
1004
1018
0820
0440
0280
0100
0200
0500
0880
3080
4040
8020
ENDCHAR
STARTCHAR Y
ENCODING 89
SWIDTH 687 0
DWIDTH 11 0
BBX 14 12 -1 0
BITMAP
1004
1018
0820
0440
0280
0100
0200
0200
0200
0400
0400
0400
ENDCHAR
STARTCHAR Z
ENCODING 90
SWIDTH 625 0
DWIDTH 10 0
BBX 13 12 -1 0
BITMAP
0FF8
0010
0020
0040
0080
0300
0400
0800
1000
6000
8000
FF80
ENDCHAR
STARTCHAR bracketleft
ENCODING 91
SWIDTH 250 0
DWIDTH 4 0
BBX 5 15 0 -3
BITMAP
18
10
10
10
20
20
20
20
40
40
40
40
80
80
C0
ENDCHAR
STARTCHAR backslash
ENCODING 92
SWIDTH 250 0
DWIDTH 4 0
BBX 7 13 -1 -1
BITMAP
10
10
20
20
10
10
20
20
10
10
20
20
10
ENDCHAR
STARTCHAR bracketright
ENCODING 93
SWIDTH 250 0
DWIDTH 4 0
BBX 5 15 0 -3
BITMAP
18
08
08
08
10
10
10
10
20
20
20
20
40
40
C0
ENDCHAR
STARTCHAR asciicircum
ENCODING 94
SWIDTH 437 0
DWIDTH 7 0
BBX 5 3 2 10
BITMAP
20
50
88
ENDCHAR
STARTCHAR underscore
ENCODING 95
SWIDTH 562 0
DWIDTH 9 0
BBX 9 1 -1 -2
BITMAP
FF80
ENDCHAR
STARTCHAR grave
ENCODING 96
SWIDTH 312 0
DWIDTH 5 0
BBX 3 3 2 10
BITMAP
80
40
20
ENDCHAR
STARTCHAR a
ENCODING 97
SWIDTH 562 0
DWIDTH 9 0
BBX 10 9 0 0
BITMAP
1F00
2080
0100
0100
3F00
4100
8200
8200
7D00
ENDCHAR
STARTCHAR b
ENCODING 98
SWIDTH 562 0
DWIDTH 9 0
BBX 10 12 0 0
BITMAP
1000
2000
2000
2E00
3100
4100
4100
4100
4100
8200
C400
B800
ENDCHAR
STARTCHAR c
ENCODING 99
SWIDTH 500 0
DWIDTH 8 0
BBX 9 9 0 0
BITMAP
0E00
1100
2100
4000
4000
4000
8200
4400
3800
ENDCHAR
STARTCHAR d
ENCODING 100
SWIDTH 562 0
DWIDTH 9 0
BBX 10 12 0 0
BITMAP
0040
0080
0080
0E80
1180
2100
4100
4100
4100
8200
4600
3A00
ENDCHAR
STARTCHAR e
ENCODING 101
SWIDTH 562 0
DWIDTH 9 0
BBX 9 9 0 0
BITMAP
0E00
1100
2100
4100
7F00
4000
8200
4400
3800
ENDCHAR
STARTCHAR f
ENCODING 102
SWIDTH 312 0
DWIDTH 5 0
BBX 8 12 -1 0
BITMAP
03
04
08
3E
08
10
10
10
10
20
20
20
ENDCHAR
STARTCHAR g
ENCODING 103
SWIDTH 562 0
DWIDTH 9 0
BBX 10 13 -1 -4
BITMAP
0740
08C0
1080
2080
2080
2080
4100
2300
1D00
0100
0200
0400
7800
ENDCHAR
STARTCHAR h
ENCODING 104
SWIDTH 562 0
DWIDTH 9 0
BBX 10 12 0 0
BITMAP
1000
2000
2000
2E00
3100
4100
4100
4100
4100
8200
8200
8200
ENDCHAR
STARTCHAR i
ENCODING 105
SWIDTH 187 0
DWIDTH 3 0
BBX 4 12 0 0
BITMAP
10
00
00
20
20
40
40
40
40
80
80
80
ENDCHAR
STARTCHAR j
ENCODING 106
SWIDTH 187 0
DWIDTH 3 0
BBX 6 16 -2 -4
BITMAP
04
00
00
08
08
10
10
10
10
20
20
20
20
40
40
80
ENDCHAR
STARTCHAR k
ENCODING 107
SWIDTH 500 0
DWIDTH 8 0
BBX 10 12 0 0
BITMAP
1000
2000
2000
2100
2200
4C00
5000
7000
4800
8800
8400
8200
ENDCHAR
STARTCHAR l
ENCODING 108
SWIDTH 187 0
DWIDTH 3 0
BBX 4 12 0 0
BITMAP
10
20
20
20
20
40
40
40
40
80
80
80
ENDCHAR
STARTCHAR m
ENCODING 109
SWIDTH 812 0
DWIDTH 13 0
BBX 13 9 0 0
BITMAP
2C60
3290
4110
4210
4210
4210
8420
8420
8420
ENDCHAR
STARTCHAR n
ENCODING 110
SWIDTH 562 0
DWIDTH 9 0
BBX 9 9 0 0
BITMAP
2E00
3100
4100
4100
4100
4100
8200
8200
8200
ENDCHAR
STARTCHAR o
ENCODING 111
SWIDTH 562 0
DWIDTH 9 0
BBX 9 9 0 0
BITMAP
0E00
1100
2100
4100
4100
4100
8200
4400
3800
ENDCHAR
STARTCHAR p
ENCODING 112
SWIDTH 562 0
DWIDTH 9 0
BBX 10 13 -1 -4
BITMAP
1700
1880
2080
2080
2080
2080
4100
6200
5C00
4000
8000
8000
8000
ENDCHAR
STARTCHAR q
ENCODING 113
SWIDTH 562 0
DWIDTH 9 0
BBX 10 13 -1 -4
BITMAP
0740
08C0
1080
2080
2080
2080
4100
2300
1D00
0100
0200
0200
0200
ENDCHAR
STARTCHAR r
ENCODING 114
SWIDTH 312 0
DWIDTH 5 0
BBX 6 9 0 0
BITMAP
2C
30
40
40
40
40
80
80
80
ENDCHAR
STARTCHAR s
ENCODING 115
SWIDTH 500 0
DWIDTH 8 0
BBX 8 9 0 0
BITMAP
1E
21
40
40
3C
02
04
84
78
ENDCHAR
STARTCHAR t
ENCODING 116
SWIDTH 312 0
DWIDTH 5 0
BBX 8 12 -1 0
BITMAP
04
08
08
3E
08
10
10
10
10
20
20
10
ENDCHAR
STARTCHAR u
ENCODING 117
SWIDTH 562 0
DWIDTH 9 0
BBX 9 9 0 0
BITMAP
2080
2080
4100
4100
4100
4100
8200
4600
3A00
ENDCHAR
STARTCHAR v
ENCODING 118
SWIDTH 437 0
DWIDTH 7 0
BBX 9 9 -1 0
BITMAP
2080
2100
2200
2200
1400
1800
1000
1000
1000
ENDCHAR
STARTCHAR w
ENCODING 119
SWIDTH 687 0
DWIDTH 11 0
BBX 13 9 -1 0
BITMAP
2008
2110
2220
2220
1540
1980
1100
1100
1100
ENDCHAR
STARTCHAR x
ENCODING 120
SWIDTH 437 0
DWIDTH 7 0
BBX 9 9 -1 0
BITMAP
2080
1100
2200
1400
0800
1400
2400
4400
8200
ENDCHAR
STARTCHAR y
ENCODING 121
SWIDTH 437 0
DWIDTH 7 0
BBX 10 13 -2 -4
BITMAP
1040
1080
1100
1100
0A00
0C00
0800
0800
1000
2000
4000
4000
8000
ENDCHAR
STARTCHAR z
ENCODING 122
SWIDTH 500 0
DWIDTH 8 0
BBX 8 9 0 0
BITMAP
3F
02
04
08
10
20
40
80
FC
ENDCHAR
STARTCHAR braceleft
ENCODING 123
SWIDTH 312 0
DWIDTH 5 0
BBX 6 15 0 -3
BITMAP
04
08
08
08
10
10
10
20
20
20
20
20
40
40
20
ENDCHAR
STARTCHAR bar
ENCODING 124
SWIDTH 312 0
DWIDTH 5 0
BBX 4 13 1 -1
BITMAP
10
10
20
20
20
20
40
40
40
40
80
80
80
ENDCHAR
STARTCHAR braceright
ENCODING 125
SWIDTH 312 0
DWIDTH 5 0
BBX 6 15 0 -3
BITMAP
10
08
08
08
10
10
10
10
20
20
20
20
40
40
80
ENDCHAR
STARTCHAR asciitilde
ENCODING 126
SWIDTH 562 0
DWIDTH 9 0
BBX 7 3 2 10
BITMAP
62
92
8C
ENDCHAR
STARTCHAR bullet
ENCODING 149
SWIDTH 375 0
DWIDTH 6 0
BBX 6 5 1 2
BITMAP
38
7C
F8
F8
70
ENDCHAR
STARTCHAR space
ENCODING 154
SWIDTH 250 0
DWIDTH 4 0
BBX 0 0 -1 0
BITMAP
ENDCHAR
STARTCHAR degree
ENCODING 156
SWIDTH 312 0
DWIDTH 5 0
BBX 5 4 2 8
BITMAP
30
50
90
60
ENDCHAR
STARTCHAR twosuperior
ENCODING 157
SWIDTH 312 0
DWIDTH 5 0
BBX 5 6 1 6
BITMAP
30
48
10
20
40
F0
ENDCHAR
STARTCHAR periodcentered
ENCODING 158
SWIDTH 312 0
DWIDTH 5 0
BBX 2 2 2 4
BITMAP
C0
C0
ENDCHAR
STARTCHAR afii10071
ENCODING 163
SWIDTH 562 0
DWIDTH 9 0
BBX 9 11 0 0
BITMAP
1100
0000
0E00
1100
2100
4100
7F00
4000
8200
4400
3800
ENDCHAR
STARTCHAR afii10023
ENCODING 179
SWIDTH 687 0
DWIDTH 11 0
BBX 11 14 1 0
BITMAP
0840
0000
1FE0
2000
2000
2000
2000
7F00
4000
4000
4000
8000
8000
FF00
ENDCHAR
STARTCHAR copyright
ENCODING 191
SWIDTH 687 0
DWIDTH 11 0
BBX 14 12 -1 0
BITMAP
03E0
1C30
1010
2388
2448
4810
4810
4890
4710
4060
60C0
1F00
ENDCHAR
STARTCHAR afii10096
ENCODING 192
SWIDTH 687 0
DWIDTH 11 0
BBX 11 9 0 0
BITMAP
2380
2440
4840
5040
7040
5040
A080
9100
8E00
ENDCHAR
STARTCHAR afii10065
ENCODING 193
SWIDTH 562 0
DWIDTH 9 0
BBX 10 9 0 0
BITMAP
1F00
2080
0100
0100
3F00
4100
8200
8200
7D00
ENDCHAR
STARTCHAR afii10066
ENCODING 194
SWIDTH 562 0
DWIDTH 9 0
BBX 10 12 0 0
BITMAP
0040
0F80
1000
2E00
3100
4100
4100
4100
4100
8200
4400
3800
ENDCHAR
STARTCHAR afii10088
ENCODING 195
SWIDTH 500 0
DWIDTH 8 0
BBX 9 11 0 -2
BITMAP
2100
2100
2100
2100
4200
4200
4200
4200
FE00
0200
0200
ENDCHAR
STARTCHAR afii10069
ENCODING 196
SWIDTH 625 0
DWIDTH 10 0
BBX 10 11 0 -2
BITMAP
0F80
0880
0880
0880
1100
1100
1100
2100
FF00
8100
8100
ENDCHAR
STARTCHAR afii10070
ENCODING 197
SWIDTH 562 0
DWIDTH 9 0
BBX 9 9 0 0
BITMAP
0E00
1100
2100
4100
7F00
4000
8200
4400
3800
ENDCHAR
STARTCHAR afii10086
ENCODING 198
SWIDTH 500 0
DWIDTH 8 0
BBX 11 16 -1 -4
BITMAP
0100
0200
0200
0F80
1240
2480
2480
2480
2480
4900
4900
3E00
0800
1000
1000
1000
ENDCHAR
STARTCHAR afii10068
ENCODING 199
SWIDTH 437 0
DWIDTH 7 0
BBX 8 9 0 0
BITMAP
3F
20
40
40
40
40
80
80
80
ENDCHAR
STARTCHAR afii10087
ENCODING 200
SWIDTH 437 0
DWIDTH 7 0
BBX 9 9 -1 0
BITMAP
2080
1100
2200
1400
0800
1400
2400
4400
8200
ENDCHAR
STARTCHAR afii10074
ENCODING 201
SWIDTH 562 0
DWIDTH 9 0
BBX 9 9 0 0
BITMAP
2080
2080
4300
4500
4900
5100
E200
8200
8200
ENDCHAR
STARTCHAR afii10075
ENCODING 202
SWIDTH 562 0
DWIDTH 9 0
BBX 9 11 0 0
BITMAP
1100
0E00
2080
2080
4300
4500
4900
5100
E200
8200
8200
ENDCHAR
STARTCHAR afii10076
ENCODING 203
SWIDTH 500 0
DWIDTH 8 0
BBX 9 9 0 0
BITMAP
2100
2200
4C00
5000
7000
4800
8800
8400
8200
ENDCHAR
STARTCHAR afii10077
ENCODING 204
SWIDTH 562 0
DWIDTH 9 0
BBX 9 9 0 0
BITMAP
0F80
0880
1100
1100
1100
1100
2200
2200
C200
ENDCHAR
STARTCHAR afii10078
ENCODING 205
SWIDTH 687 0
DWIDTH 11 0
BBX 11 9 0 0
BITMAP
2020
3060
51C0
4A40
4440
4040
8080
8080
8080
ENDCHAR
STARTCHAR afii10079
ENCODING 206
SWIDTH 562 0
DWIDTH 9 0
BBX 9 9 0 0
BITMAP
2080
2080
4100
4100
7F00
4100
8200
8200
8200
ENDCHAR
STARTCHAR afii10080
ENCODING 207
SWIDTH 562 0
DWIDTH 9 0
BBX 9 9 0 0
BITMAP
0E00
1100
2100
4100
4100
4100
8200
4400
3800
ENDCHAR
STARTCHAR afii10081
ENCODING 208
SWIDTH 562 0
DWIDTH 9 0
BBX 9 9 0 0
BITMAP
3F80
2080
4100
4100
4100
4100
8200
8200
8200
ENDCHAR
STARTCHAR afii10097
ENCODING 209
SWIDTH 562 0
DWIDTH 9 0
BBX 9 9 0 0
BITMAP
1F80
2080
4100
4100
3F00
1100
2200
4200
8200
ENDCHAR
STARTCHAR afii10082
ENCODING 210
SWIDTH 562 0
DWIDTH 9 0
BBX 10 13 -1 -4
BITMAP
1700
1880
2080
2080
2080
2080
4100
6200
5C00
4000
8000
8000
8000
ENDCHAR
STARTCHAR afii10083
ENCODING 211
SWIDTH 500 0
DWIDTH 8 0
BBX 9 9 0 0
BITMAP
0E00
1100
2100
4000
4000
4000
8200
4400
3800
ENDCHAR
STARTCHAR afii10084
ENCODING 212
SWIDTH 562 0
DWIDTH 9 0
BBX 9 9 0 0
BITMAP
3F80
0400
0800
0800
0800
0800
1000
1000
1000
ENDCHAR
STARTCHAR afii10085
ENCODING 213
SWIDTH 500 0
DWIDTH 8 0
BBX 10 13 -1 -4
BITMAP
1040
1080
1100
1100
0A00
0C00
0800
0800
1000
2000
4000
4000
8000
ENDCHAR
STARTCHAR afii10072
ENCODING 214
SWIDTH 812 0
DWIDTH 13 0
BBX 15 9 -1 0
BITMAP
1084
0888
0930
0540
07C0
0920
3220
4210
8208
ENDCHAR
STARTCHAR afii10067
ENCODING 215
SWIDTH 562 0
DWIDTH 9 0
BBX 9 9 0 0
BITMAP
3F00
2080
4100
4100
7E00
4100
8200
8200
FC00
ENDCHAR
STARTCHAR afii10094
ENCODING 216
SWIDTH 562 0
DWIDTH 9 0
BBX 9 9 0 0
BITMAP
2000
2000
4000
7E00
4100
4100
8200
8200
FC00
ENDCHAR
STARTCHAR afii10093
ENCODING 217
SWIDTH 687 0
DWIDTH 11 0
BBX 11 9 0 0
BITMAP
2020
2020
4040
7E40
4140
4140
8280
8280
FC80
ENDCHAR
STARTCHAR afii10073
ENCODING 218
SWIDTH 562 0
DWIDTH 9 0
BBX 9 9 0 0
BITMAP
1F00
2080
0100
0100
1E00
0100
8200
8200
7C00
ENDCHAR
STARTCHAR afii10090
ENCODING 219
SWIDTH 687 0
DWIDTH 11 0
BBX 11 9 0 0
BITMAP
2220
2220
4440
4440
4440
4440
8880
8880
FF80
ENDCHAR
STARTCHAR afii10095
ENCODING 220
SWIDTH 562 0
DWIDTH 9 0
BBX 9 9 0 0
BITMAP
1E00
2100
0100
0100
1F00
0100
0200
8400
7800
ENDCHAR
STARTCHAR afii10091
ENCODING 221
SWIDTH 687 0
DWIDTH 11 0
BBX 12 11 0 -2
BITMAP
2220
2220
2220
2220
4440
4440
4440
4440
FFC0
0040
0040
ENDCHAR
STARTCHAR afii10089
ENCODING 222
SWIDTH 562 0
DWIDTH 9 0
BBX 9 9 0 0
BITMAP
2080
2080
4100
4100
3F00
0100
0200
0200
0200
ENDCHAR
STARTCHAR afii10092
ENCODING 223
SWIDTH 625 0
DWIDTH 10 0
BBX 11 9 0 0
BITMAP
3800
0800
1000
1F80
1040
1040
2080
2080
3F00
ENDCHAR
STARTCHAR afii10048
ENCODING 224
SWIDTH 812 0
DWIDTH 13 0
BBX 14 12 0 0
BITMAP
10E0
2730
2410
2808
2808
7010
5010
5010
5020
9040
98C0
8700
ENDCHAR
STARTCHAR afii10017
ENCODING 225
SWIDTH 687 0
DWIDTH 11 0
BBX 14 12 -1 0
BITMAP
0080
0100
0280
0280
0440
0880
1040
1040
3FE0
4040
8020
8020
ENDCHAR
STARTCHAR afii10018
ENCODING 226
SWIDTH 687 0
DWIDTH 11 0
BBX 11 12 1 0
BITMAP
1FC0
2000
2000
2000
2000
7E00
4100
4080
4080
8100
8200
FC00
ENDCHAR
STARTCHAR afii10040
ENCODING 227
SWIDTH 750 0
DWIDTH 12 0
BBX 12 14 1 -2
BITMAP
1020
1020
1020
2040
2040
2040
2040
4080
4080
4080
4080
FF80
0080
0080
ENDCHAR
STARTCHAR afii10021
ENCODING 228
SWIDTH 750 0
DWIDTH 12 0
BBX 13 14 0 -2
BITMAP
03F0
0210
0210
0420
0420
0420
0420
0840
0840
0840
1040
FFC0
8040
8040
ENDCHAR
STARTCHAR afii10022
ENCODING 229
SWIDTH 687 0
DWIDTH 11 0
BBX 11 12 1 0
BITMAP
1FE0
2000
2000
2000
2000
7F00
4000
4000
4000
8000
8000
FF00
ENDCHAR
STARTCHAR afii10038
ENCODING 230
SWIDTH 750 0
DWIDTH 12 0
BBX 14 13 0 0
BITMAP
0080
03E0
1D30
1110
2108
2108
4210
4210
4210
2220
64C0
1F00
0400
ENDCHAR
STARTCHAR afii10020
ENCODING 231
SWIDTH 625 0
DWIDTH 10 0
BBX 11 12 1 0
BITMAP
1FE0
2000
2000
2000
2000
4000
4000
4000
4000
8000
8000
8000
ENDCHAR
STARTCHAR afii10039
ENCODING 232
SWIDTH 687 0
DWIDTH 11 0
BBX 14 12 -1 0
BITMAP
1004
1018
0820
0440
0280
0100
0200
0500
0880
3080
4040
8020
ENDCHAR
STARTCHAR afii10026
ENCODING 233
SWIDTH 687 0
DWIDTH 11 0
BBX 10 12 1 0
BITMAP
1040
2180
2180
2280
2480
4900
4900
5100
6100
C200
C200
8200
ENDCHAR
STARTCHAR afii10027
ENCODING 234
SWIDTH 687 0
DWIDTH 11 0
BBX 10 14 1 0
BITMAP
0880
0700
1040
2180
2180
2280
2480
4900
4900
5100
6100
C200
C200
8200
ENDCHAR
STARTCHAR afii10028
ENCODING 235
SWIDTH 625 0
DWIDTH 10 0
BBX 11 12 1 0
BITMAP
1040
2180
2200
2400
2800
7000
5000
4800
4400
8400
8200
8100
ENDCHAR
STARTCHAR afii10029
ENCODING 236
SWIDTH 625 0
DWIDTH 10 0
BBX 11 12 0 0
BITMAP
07E0
0840
0840
0840
0840
1080
1080
1080
1080
2100
2100
C100
ENDCHAR
STARTCHAR afii10030
ENCODING 237
SWIDTH 812 0
DWIDTH 13 0
BBX 12 12 1 0
BITMAP
1010
2020
3060
3060
28A0
5140
4A40
4A40
4440
8880
8080
8080
ENDCHAR
STARTCHAR afii10031
ENCODING 238
SWIDTH 750 0
DWIDTH 12 0
BBX 11 12 1 0
BITMAP
1020
2040
2040
2040
2040
7F80
4080
4080
4080
8100
8100
8100
ENDCHAR
STARTCHAR afii10032
ENCODING 239
SWIDTH 750 0
DWIDTH 12 0
BBX 13 12 0 0
BITMAP
03C0
1C60
1020
2010
2010
4020
4020
4020
4040
4080
6180
1E00
ENDCHAR
STARTCHAR afii10033
ENCODING 240
SWIDTH 750 0
DWIDTH 12 0
BBX 11 12 1 0
BITMAP
1FE0
2040
2040
2040
2040
4080
4080
4080
4080
8100
8100
8100
ENDCHAR
STARTCHAR afii10049
ENCODING 241
SWIDTH 687 0
DWIDTH 11 0
BBX 11 12 0 0
BITMAP
07E0
1840
2040
2040
2040
2080
1F80
0480
0880
3100
4100
8100
ENDCHAR
STARTCHAR afii10034
ENCODING 242
SWIDTH 625 0
DWIDTH 10 0
BBX 11 12 1 0
BITMAP
1F80
2080
2040
2040
2080
4100
7E00
4000
4000
8000
8000
8000
ENDCHAR
STARTCHAR afii10035
ENCODING 243
SWIDTH 687 0
DWIDTH 11 0
BBX 13 12 0 0
BITMAP
03C0
1C60
1020
2010
2000
4000
4000
4000
4020
4040
6180
1E00
ENDCHAR
STARTCHAR afii10036
ENCODING 244
SWIDTH 562 0
DWIDTH 9 0
BBX 12 12 -1 0
BITMAP
1FF0
0200
0200
0200
0200
0400
0400
0400
0400
0800
0800
0800
ENDCHAR
STARTCHAR afii10037
ENCODING 245
SWIDTH 687 0
DWIDTH 11 0
BBX 12 12 0 0
BITMAP
1010
2020
1040
1040
0880
1100
0A00
0A00
0400
0800
0800
7000
ENDCHAR
STARTCHAR afii10024
ENCODING 246
SWIDTH 937 0
DWIDTH 15 0
BBX 18 12 -1 0
BITMAP
102040
104180
084200
044400
024800
029000
03E000
049000
088800
310800
410400
810200
ENDCHAR
STARTCHAR afii10019
ENCODING 247
SWIDTH 687 0
DWIDTH 11 0
BBX 11 12 1 0
BITMAP
1F80
2080
2040
2040
2080
7F00
4100
4080
4080
8100
8200
FC00
ENDCHAR
STARTCHAR afii10046
ENCODING 248
SWIDTH 687 0
DWIDTH 11 0
BBX 12 12 1 0
BITMAP
1000
2000
2000
2000
2000
7F00
4080
4040
4040
8080
8100
FE00
ENDCHAR
STARTCHAR afii10045
ENCODING 249
SWIDTH 875 0
DWIDTH 14 0
BBX 14 12 1 0
BITMAP
1004
2008
2008
2008
2008
7F10
4090
4050
4050
80A0
8120
FE20
ENDCHAR
STARTCHAR afii10025
ENCODING 250
SWIDTH 687 0
DWIDTH 11 0
BBX 11 12 1 0
BITMAP
0FC0
3040
0040
0040
0080
1F00
0080
0080
0080
0100
8100
7E00
ENDCHAR
STARTCHAR afii10042
ENCODING 251
SWIDTH 937 0
DWIDTH 15 0
BBX 16 12 0 0
BITMAP
1041
2082
2082
2082
2082
4104
4104
4104
4104
8208
8208
FFF8
ENDCHAR
STARTCHAR afii10047
ENCODING 252
SWIDTH 750 0
DWIDTH 12 0
BBX 13 12 0 0
BITMAP
07E0
1820
2010
0010
0010
0FE0
0020
0020
0020
8040
4080
3F00
ENDCHAR
STARTCHAR afii10043
ENCODING 253
SWIDTH 1000 0
DWIDTH 16 0
BBX 17 14 0 -2
BITMAP
104100
104100
104100
208200
208200
208200
208200
410400
410400
410400
410400
FFFC00
000400
000400
ENDCHAR
STARTCHAR afii10041
ENCODING 254
SWIDTH 750 0
DWIDTH 12 0
BBX 11 12 1 0
BITMAP
1020
2040
2040
2040
2040
3F80
0080
0080
0080
0100
0100
0100
ENDCHAR
STARTCHAR afii10044
ENCODING 255
SWIDTH 750 0
DWIDTH 12 0
BBX 14 12 0 0
BITMAP
1C00
0800
0800
0800
0800
1FC0
1020
1010
1010
2020
2040
3F80
ENDCHAR
ENDFONT
