STARTFONT 2.1
COMMENT Copyright (C) 1990-1991 EWT Consulting
COMMENT Portions Copyright (C) 1994-1995 Cronyx Ltd.
COMMENT Changes Copyright (C) 1996-1997 by Andrey A. Chernov, Moscow, Russia.
COMMENT Modified by Serge Vakulenko, <vak@cronyx.ru>
COMMENT Changes 1999 by Serge Winitzki.
COMMENT This software may be used, modified, copied, distributed, and sold,
COMMENT in both source and binary form provided that the copyright
COMMENT and these terms are retained. Under no circumstances is the author
COMMENT responsible for the proper functioning of this software, nor does
COMMENT the author assume any responsibility for damages incurred with its use.
COMMENT $XFree86$
FONT -Cronyx-Times-Medium-I-Normal--17-120-100-100-P-64-KOI8-R
SIZE 12 96 96
FONTBOUNDINGBOX 22 17 -2 -4
STARTPROPERTIES 21
DEFAULT_CHAR 32
FONT_ASCENT 15
FONT_DESCENT 4
SPACING "P"
FONTNAME_REGISTRY ""
FOUNDRY "Cronyx"
FAMILY_NAME "Times"
WEIGHT_NAME "Medium"
SLANT "I"
SETWIDTH_NAME "Normal"
ADD_STYLE_NAME ""
AVERAGE_WIDTH 64
CHARSET_REGISTRY "KOI8"
CHARSET_ENCODING "R"
PIXEL_SIZE 17
POINT_SIZE 120
RESOLUTION_X 100
RESOLUTION_Y 100
COPYRIGHT "Copyright (C) 1990, 1991 EWT Consulting, Portions Copyright (C) 1994 Cronyx Ltd., Portions Copyright (C) 1996-1997 by Andrey A. Chernov, Moscow, Russia."
_XMBDFED_INFO "Edited with xmbdfed 4.3."
_XFREE86_GLYPH_RANGES "32_126 149 154 156_158 163 179 191_255"
ENDPROPERTIES
CHARS 167
STARTCHAR space
ENCODING 32
SWIDTH 250 0
DWIDTH 4 0
BBX 0 0 -1 0
BITMAP
ENDCHAR
STARTCHAR exclam
ENCODING 33
SWIDTH 250 0
DWIDTH 4 0
BBX 3 11 0 0
BITMAP
20
20
20
20
40
40
40
40
00
80
80
ENDCHAR
STARTCHAR quotedbl
ENCODING 34
SWIDTH 375 0
DWIDTH 6 0
BBX 5 4 1 7
BITMAP
48
90
90
90
ENDCHAR
STARTCHAR numbersign
ENCODING 35
SWIDTH 500 0
DWIDTH 8 0
BBX 10 11 -1 0
BITMAP
0480
0480
0480
1FC0
1200
1200
1200
7F00
4800
4800
4800
ENDCHAR
STARTCHAR dollar
ENCODING 36
SWIDTH 500 0
DWIDTH 8 0
BBX 9 15 0 -2
BITMAP
0200
0200
0E80
1380
2500
2400
1400
0C00
0C00
0A00
4A00
6C00
B800
1000
1000
ENDCHAR
STARTCHAR percent
ENCODING 37
SWIDTH 812 0
DWIDTH 13 0
BBX 13 11 0 0
BITMAP
1808
27F0
2420
2840
3180
0200
0460
0890
3120
4120
80C0
ENDCHAR
STARTCHAR ampersand
ENCODING 38
SWIDTH 750 0
DWIDTH 12 0
BBX 12 11 0 0
BITMAP
0C00
1200
1200
1400
1800
18E0
2440
4280
8100
8500
7880
ENDCHAR
STARTCHAR quotesingle
ENCODING 39
SWIDTH 250 0
DWIDTH 4 0
BBX 2 4 1 7
BITMAP
40
80
80
80
ENDCHAR
STARTCHAR parenleft
ENCODING 40
SWIDTH 312 0
DWIDTH 5 0
BBX 6 15 0 -3
BITMAP
04
04
08
10
20
20
20
20
40
40
40
20
40
20
20
ENDCHAR
STARTCHAR parenright
ENCODING 41
SWIDTH 312 0
DWIDTH 5 0
BBX 6 15 0 -3
BITMAP
10
10
08
08
08
08
08
08
10
10
10
20
40
80
80
ENDCHAR
STARTCHAR asterisk
ENCODING 42
SWIDTH 437 0
DWIDTH 7 0
BBX 6 6 1 5
BITMAP
10
54
38
70
A8
20
ENDCHAR
STARTCHAR plus
ENCODING 43
SWIDTH 562 0
DWIDTH 9 0
BBX 8 7 1 2
BITMAP
08
08
08
7F
10
10
10
ENDCHAR
STARTCHAR comma
ENCODING 44
SWIDTH 187 0
DWIDTH 3 0
BBX 2 3 0 -1
BITMAP
40
40
80
ENDCHAR
STARTCHAR hyphen
ENCODING 45
SWIDTH 312 0
DWIDTH 5 0
BBX 5 1 0 5
BITMAP
F8
ENDCHAR
STARTCHAR period
ENCODING 46
SWIDTH 187 0
DWIDTH 3 0
BBX 1 2 0 0
BITMAP
80
80
ENDCHAR
STARTCHAR slash
ENCODING 47
SWIDTH 312 0
DWIDTH 5 0
BBX 8 12 -1 -1
BITMAP
01
02
04
04
08
10
10
20
20
40
80
80
ENDCHAR
STARTCHAR zero
ENCODING 48
SWIDTH 500 0
DWIDTH 8 0
BBX 8 11 0 0
BITMAP
0C
12
21
21
42
42
42
42
84
48
30
ENDCHAR
STARTCHAR one
ENCODING 49
SWIDTH 500 0
DWIDTH 8 0
BBX 7 11 1 0
BITMAP
08
18
28
08
10
10
10
10
20
20
F8
ENDCHAR
STARTCHAR two
ENCODING 50
SWIDTH 500 0
DWIDTH 8 0
BBX 8 11 0 0
BITMAP
1C
22
01
01
02
04
08
10
60
84
FC
ENDCHAR
STARTCHAR three
ENCODING 51
SWIDTH 500 0
DWIDTH 8 0
BBX 8 11 0 0
BITMAP
1C
22
01
02
04
18
04
02
04
88
70
ENDCHAR
STARTCHAR four
ENCODING 52
SWIDTH 500 0
DWIDTH 8 0
BBX 8 11 0 0
BITMAP
01
03
05
09
12
22
22
42
FC
04
04
ENDCHAR
STARTCHAR five
ENCODING 53
SWIDTH 500 0
DWIDTH 8 0
BBX 8 11 0 0
BITMAP
1F
10
20
20
78
04
02
02
04
88
70
ENDCHAR
STARTCHAR six
ENCODING 54
SWIDTH 500 0
DWIDTH 8 0
BBX 8 11 0 0
BITMAP
03
0C
10
20
5C
62
42
42
84
84
78
ENDCHAR
STARTCHAR seven
ENCODING 55
SWIDTH 500 0
DWIDTH 8 0
BBX 8 11 0 0
BITMAP
3F
21
01
02
04
04
08
08
10
20
20
ENDCHAR
STARTCHAR eight
ENCODING 56
SWIDTH 500 0
DWIDTH 8 0
BBX 8 11 0 0
BITMAP
1E
21
21
21
42
3C
42
42
84
84
78
ENDCHAR
STARTCHAR nine
ENCODING 57
SWIDTH 500 0
DWIDTH 8 0
BBX 8 11 0 0
BITMAP
1E
21
21
21
42
46
3A
04
08
30
C0
ENDCHAR
STARTCHAR colon
ENCODING 58
SWIDTH 250 0
DWIDTH 4 0
BBX 2 7 0 0
BITMAP
40
40
00
00
00
80
80
ENDCHAR
STARTCHAR semicolon
ENCODING 59
SWIDTH 250 0
DWIDTH 4 0
BBX 4 8 -1 -1
BITMAP
10
20
00
00
00
40
40
80
ENDCHAR
STARTCHAR less
ENCODING 60
SWIDTH 562 0
DWIDTH 9 0
BBX 8 7 1 1
BITMAP
01
06
18
60
30
0C
02
ENDCHAR
STARTCHAR equal
ENCODING 61
SWIDTH 562 0
DWIDTH 9 0
BBX 7 3 1 3
BITMAP
FE
00
FE
ENDCHAR
STARTCHAR greater
ENCODING 62
SWIDTH 562 0
DWIDTH 9 0
BBX 8 7 1 1
BITMAP
40
30
0C
07
18
60
80
ENDCHAR
STARTCHAR question
ENCODING 63
SWIDTH 437 0
DWIDTH 7 0
BBX 7 11 0 0
BITMAP
1C
22
02
04
08
10
10
10
00
20
20
ENDCHAR
STARTCHAR at
ENCODING 64
SWIDTH 937 0
DWIDTH 15 0
BBX 16 14 0 -3
BITMAP
01F0
060C
0802
1004
21D2
2222
2442
4884
4884
4888
4770
4000
6060
1F80
ENDCHAR
STARTCHAR A
ENCODING 65
SWIDTH 687 0
DWIDTH 11 0
BBX 13 11 -1 0
BITMAP
0100
0100
0280
0480
0880
0880
1040
3FC0
4040
4040
E0E0
ENDCHAR
STARTCHAR B
ENCODING 66
SWIDTH 687 0
DWIDTH 11 0
BBX 11 11 0 0
BITMAP
3F00
1080
1040
1080
2100
3F00
2080
2040
4080
4100
FE00
ENDCHAR
STARTCHAR C
ENCODING 67
SWIDTH 687 0
DWIDTH 11 0
BBX 11 11 0 0
BITMAP
07A0
1860
1020
2000
4000
4000
4000
4000
4080
6100
1E00
ENDCHAR
STARTCHAR D
ENCODING 68
SWIDTH 750 0
DWIDTH 12 0
BBX 12 11 0 0
BITMAP
3F80
1060
1020
1010
2020
2020
2020
2040
4080
4180
FE00
ENDCHAR
STARTCHAR E
ENCODING 69
SWIDTH 625 0
DWIDTH 10 0
BBX 10 11 0 0
BITMAP
3FC0
1040
1000
1000
2200
3E00
2200
2000
4000
4100
FF00
ENDCHAR
STARTCHAR F
ENCODING 70
SWIDTH 625 0
DWIDTH 10 0
BBX 10 11 0 0
BITMAP
3FC0
1040
1000
1000
2200
3E00
2200
2000
4000
4000
E000
ENDCHAR
STARTCHAR G
ENCODING 71
SWIDTH 750 0
DWIDTH 12 0
BBX 13 11 0 0
BITMAP
07A0
1860
1020
2000
4000
40F0
4020
4040
4080
6180
1E00
ENDCHAR
STARTCHAR H
ENCODING 72
SWIDTH 750 0
DWIDTH 12 0
BBX 12 11 0 0
BITMAP
3870
1020
1020
1020
2040
3FC0
2040
2040
4080
4080
E1C0
ENDCHAR
STARTCHAR I
ENCODING 73
SWIDTH 312 0
DWIDTH 5 0
BBX 5 11 0 0
BITMAP
38
10
10
10
20
20
20
20
40
40
E0
ENDCHAR
STARTCHAR J
ENCODING 74
SWIDTH 437 0
DWIDTH 7 0
BBX 7 11 0 0
BITMAP
0E
04
04
04
08
08
08
08
10
90
60
ENDCHAR
STARTCHAR K
ENCODING 75
SWIDTH 687 0
DWIDTH 11 0
BBX 12 11 0 0
BITMAP
38E0
1040
1080
1100
2200
2C00
3200
2100
4100
4080
E1C0
ENDCHAR
STARTCHAR L
ENCODING 76
SWIDTH 625 0
DWIDTH 10 0
BBX 10 11 0 0
BITMAP
3800
1000
1000
1000
2000
2000
2000
2000
4000
4100
FF00
ENDCHAR
STARTCHAR M
ENCODING 77
SWIDTH 937 0
DWIDTH 15 0
BBX 15 11 0 0
BITMAP
3006
180C
180C
1414
2828
2448
2448
2288
4510
4210
E238
ENDCHAR
STARTCHAR N
ENCODING 78
SWIDTH 750 0
DWIDTH 12 0
BBX 12 11 0 0
BITMAP
3070
1820
1820
1420
2440
2440
2240
2140
4280
4180
E080
ENDCHAR
STARTCHAR O
ENCODING 79
SWIDTH 750 0
DWIDTH 12 0
BBX 12 11 0 0
BITMAP
0780
1860
1020
2010
4020
4020
4020
4040
4080
6180
1E00
ENDCHAR
STARTCHAR P
ENCODING 80
SWIDTH 562 0
DWIDTH 9 0
BBX 9 11 0 0
BITMAP
3E00
1100
1080
1100
2200
3C00
2000
2000
4000
4000
E000
ENDCHAR
STARTCHAR Q
ENCODING 81
SWIDTH 750 0
DWIDTH 12 0
BBX 13 13 0 -2
BITMAP
03C0
0C30
1020
2010
2010
2010
4020
4020
2040
30C0
1F00
0600
0300
ENDCHAR
STARTCHAR R
ENCODING 82
SWIDTH 625 0
DWIDTH 10 0
BBX 11 11 0 0
BITMAP
3E00
1100
1080
1100
2200
3C00
2400
2200
4200
4100
E080
ENDCHAR
STARTCHAR S
ENCODING 83
SWIDTH 562 0
DWIDTH 9 0
BBX 9 11 0 0
BITMAP
0E80
1180
2080
2000
2000
1C00
0200
0100
8200
C400
B800
ENDCHAR
STARTCHAR T
ENCODING 84
SWIDTH 562 0
DWIDTH 9 0
BBX 11 11 -1 0
BITMAP
3FE0
2220
0200
0200
0400
0400
0400
0400
0800
0800
1C00
ENDCHAR
STARTCHAR U
ENCODING 85
SWIDTH 750 0
DWIDTH 12 0
BBX 12 11 0 0
BITMAP
3870
1020
1020
1020
2040
2040
2040
2040
4080
2100
1E00
ENDCHAR
STARTCHAR V
ENCODING 86
SWIDTH 687 0
DWIDTH 11 0
BBX 13 11 -1 0
BITMAP
3838
1010
1010
0820
1040
0880
0880
0500
0A00
0400
0400
ENDCHAR
STARTCHAR W
ENCODING 87
SWIDTH 937 0
DWIDTH 15 0
BBX 17 11 -1 0
BITMAP
3BBB80
111100
111200
08A200
114400
088800
088800
055000
0AA000
044000
044000
ENDCHAR
STARTCHAR X
ENCODING 88
SWIDTH 687 0
DWIDTH 11 0
BBX 13 11 -1 0
BITMAP
3838
1010
0820
0440
0580
0200
0500
0880
3080
4040
E0E0
ENDCHAR
STARTCHAR Y
ENCODING 89
SWIDTH 687 0
DWIDTH 11 0
BBX 13 11 -1 0
BITMAP
3838
1010
0820
0440
0580
0200
0200
0200
0400
0400
0E00
ENDCHAR
STARTCHAR Z
ENCODING 90
SWIDTH 625 0
DWIDTH 10 0
BBX 11 11 -1 0
BITMAP
1FE0
1040
0080
0100
0200
0400
0800
1000
2000
4080
FF80
ENDCHAR
STARTCHAR bracketleft
ENCODING 91
SWIDTH 312 0
DWIDTH 5 0
BBX 6 15 0 -3
BITMAP
1C
10
10
10
20
20
20
20
40
40
40
40
80
80
E0
ENDCHAR
STARTCHAR backslash
ENCODING 92
SWIDTH 312 0
DWIDTH 5 0
BBX 8 12 -1 -1
BITMAP
10
20
10
10
10
10
10
08
08
10
08
08
ENDCHAR
STARTCHAR bracketright
ENCODING 93
SWIDTH 312 0
DWIDTH 5 0
BBX 6 15 0 -3
BITMAP
1C
04
04
04
08
08
08
08
10
10
10
10
20
20
E0
ENDCHAR
STARTCHAR asciicircum
ENCODING 94
SWIDTH 437 0
DWIDTH 7 0
BBX 5 3 2 9
BITMAP
20
50
88
ENDCHAR
STARTCHAR underscore
ENCODING 95
SWIDTH 500 0
DWIDTH 8 0
BBX 8 1 -2 -4
BITMAP
FF
ENDCHAR
STARTCHAR grave
ENCODING 96
SWIDTH 312 0
DWIDTH 5 0
BBX 3 3 1 9
BITMAP
80
40
20
ENDCHAR
STARTCHAR a
ENCODING 97
SWIDTH 437 0
DWIDTH 7 0
BBX 8 8 0 0
BITMAP
1C
64
04
3C
44
88
88
74
ENDCHAR
STARTCHAR b
ENCODING 98
SWIDTH 437 0
DWIDTH 7 0
BBX 9 12 0 0
BITMAP
1800
1000
1000
1000
1600
3A00
2200
2200
2200
4400
4400
3800
ENDCHAR
STARTCHAR c
ENCODING 99
SWIDTH 375 0
DWIDTH 6 0
BBX 7 8 0 0
BITMAP
1C
24
40
40
40
80
88
70
ENDCHAR
STARTCHAR d
ENCODING 100
SWIDTH 437 0
DWIDTH 7 0
BBX 9 12 0 0
BITMAP
0300
0200
0200
0200
1E00
2400
4400
4400
4400
8800
8800
7C00
ENDCHAR
STARTCHAR e
ENCODING 101
SWIDTH 375 0
DWIDTH 6 0
BBX 7 8 0 0
BITMAP
1C
24
44
7C
40
80
88
70
ENDCHAR
STARTCHAR f
ENCODING 102
SWIDTH 375 0
DWIDTH 6 0
BBX 8 12 0 0
BITMAP
06
0A
10
10
38
20
20
20
20
40
40
E0
ENDCHAR
STARTCHAR g
ENCODING 103
SWIDTH 500 0
DWIDTH 8 0
BBX 11 12 -2 -4
BITMAP
0740
0880
1100
1100
1200
1C00
2000
3E00
4100
8100
8100
7E00
ENDCHAR
STARTCHAR h
ENCODING 104
SWIDTH 500 0
DWIDTH 8 0
BBX 10 12 0 0
BITMAP
1800
1000
1000
1000
1600
3A00
2200
2200
2200
4400
4400
EE00
ENDCHAR
STARTCHAR i
ENCODING 105
SWIDTH 250 0
DWIDTH 4 0
BBX 5 11 0 0
BITMAP
10
00
00
30
20
20
20
20
40
40
E0
ENDCHAR
STARTCHAR j
ENCODING 106
SWIDTH 187 0
DWIDTH 3 0
BBX 5 15 -1 -4
BITMAP
08
00
00
18
10
10
10
10
20
20
20
20
40
40
80
ENDCHAR
STARTCHAR k
ENCODING 107
SWIDTH 562 0
DWIDTH 9 0
BBX 11 12 0 0
BITMAP
1800
1000
1000
1000
1380
2200
2400
2800
3400
4400
4200
E700
ENDCHAR
STARTCHAR l
ENCODING 108
SWIDTH 250 0
DWIDTH 4 0
BBX 6 12 0 0
BITMAP
18
10
10
10
10
20
20
20
20
40
40
E0
ENDCHAR
STARTCHAR m
ENCODING 109
SWIDTH 750 0
DWIDTH 12 0
BBX 13 8 0 0
BITMAP
3660
3BA0
2220
2220
2220
4440
4440
EEE0
ENDCHAR
STARTCHAR n
ENCODING 110
SWIDTH 500 0
DWIDTH 8 0
BBX 9 8 0 0
BITMAP
3600
3A00
2200
2200
2200
4400
4400
EE00
ENDCHAR
STARTCHAR o
ENCODING 111
SWIDTH 375 0
DWIDTH 6 0
BBX 7 8 0 0
BITMAP
1C
24
44
44
44
88
88
70
ENDCHAR
STARTCHAR p
ENCODING 112
SWIDTH 500 0
DWIDTH 8 0
BBX 9 12 -1 -4
BITMAP
1B00
1D00
1100
1100
1100
2200
2200
3C00
2000
4000
4000
E000
ENDCHAR
STARTCHAR q
ENCODING 113
SWIDTH 437 0
DWIDTH 7 0
BBX 9 12 -1 -4
BITMAP
0D00
1600
2200
2200
2200
4400
4400
3C00
0400
0800
0800
1C00
ENDCHAR
STARTCHAR r
ENCODING 114
SWIDTH 437 0
DWIDTH 7 0
BBX 8 8 0 0
BITMAP
36
3A
20
20
20
40
40
E0
ENDCHAR
STARTCHAR s
ENCODING 115
SWIDTH 312 0
DWIDTH 5 0
BBX 6 8 0 0
BITMAP
1C
28
40
30
08
10
90
E0
ENDCHAR
STARTCHAR t
ENCODING 116
SWIDTH 312 0
DWIDTH 5 0
BBX 6 10 0 0
BITMAP
10
10
38
20
20
20
20
40
50
20
ENDCHAR
STARTCHAR u
ENCODING 117
SWIDTH 500 0
DWIDTH 8 0
BBX 9 8 0 0
BITMAP
3300
2200
2200
2200
2200
4400
4C00
3600
ENDCHAR
STARTCHAR v
ENCODING 118
SWIDTH 500 0
DWIDTH 8 0
BBX 9 8 0 0
BITMAP
3B80
2200
2200
1400
1400
2800
1000
1000
ENDCHAR
STARTCHAR w
ENCODING 119
SWIDTH 750 0
DWIDTH 12 0
BBX 13 8 0 0
BITMAP
3BB8
2220
2220
1540
1540
2A80
1100
1100
ENDCHAR
STARTCHAR x
ENCODING 120
SWIDTH 500 0
DWIDTH 8 0
BBX 9 8 0 0
BITMAP
3180
2200
1400
0800
1000
2800
4400
C600
ENDCHAR
STARTCHAR y
ENCODING 121
SWIDTH 500 0
DWIDTH 8 0
BBX 10 12 -1 -4
BITMAP
1DC0
1100
1100
0A00
0A00
1400
0800
0800
1000
2000
A000
C000
ENDCHAR
STARTCHAR z
ENCODING 122
SWIDTH 437 0
DWIDTH 7 0
BBX 8 8 0 0
BITMAP
3F
44
08
08
10
20
44
FC
ENDCHAR
STARTCHAR braceleft
ENCODING 123
SWIDTH 437 0
DWIDTH 7 0
BBX 8 15 0 -3
BITMAP
03
04
04
04
08
08
08
30
10
10
10
10
20
20
18
ENDCHAR
STARTCHAR bar
ENCODING 124
SWIDTH 187 0
DWIDTH 3 0
BBX 4 12 0 -1
BITMAP
10
20
20
20
20
40
40
40
40
80
80
80
ENDCHAR
STARTCHAR braceright
ENCODING 125
SWIDTH 437 0
DWIDTH 7 0
BBX 8 15 0 -3
BITMAP
18
04
04
04
08
08
08
0E
10
10
10
10
20
20
C0
ENDCHAR
STARTCHAR asciitilde
ENCODING 126
SWIDTH 562 0
DWIDTH 9 0
BBX 7 3 2 9
BITMAP
60
92
0C
ENDCHAR
STARTCHAR bullet
ENCODING 149
SWIDTH 375 0
DWIDTH 6 0
BBX 5 4 1 2
BITMAP
30
F0
F0
60
ENDCHAR
STARTCHAR space
ENCODING 154
SWIDTH 250 0
DWIDTH 4 0
BBX 0 0 -1 0
BITMAP
ENDCHAR
STARTCHAR degree
ENCODING 156
SWIDTH 312 0
DWIDTH 5 0
BBX 4 3 2 8
BITMAP
60
90
60
ENDCHAR
STARTCHAR twosuperior
ENCODING 157
SWIDTH 250 0
DWIDTH 4 0
BBX 5 6 0 5
BITMAP
30
48
10
60
80
F0
ENDCHAR
STARTCHAR periodcentered
ENCODING 158
SWIDTH 375 0
DWIDTH 6 0
BBX 2 2 3 4
BITMAP
C0
C0
ENDCHAR
STARTCHAR afii10071
ENCODING 163
SWIDTH 312 0
DWIDTH 5 0
BBX 7 11 0 0
BITMAP
14
14
00
1C
24
44
7C
40
80
88
70
ENDCHAR
STARTCHAR afii10023
ENCODING 179
SWIDTH 500 0
DWIDTH 8 0
BBX 11 13 0 0
BITMAP
0CC0
0000
3FC0
1040
1000
1000
2200
3E00
2200
2000
4000
4100
FF00
ENDCHAR
STARTCHAR copyright
ENCODING 191
SWIDTH 812 0
DWIDTH 13 0
BBX 13 11 0 0
BITMAP
07C0
1830
1390
2448
4810
4810
4810
48A0
4F40
60C0
1F00
ENDCHAR
STARTCHAR afii10096
ENCODING 192
SWIDTH 750 0
DWIDTH 12 0
BBX 12 8 0 0
BITMAP
39E0
2220
2420
3C20
2420
4840
4840
E780
ENDCHAR
STARTCHAR afii10065
ENCODING 193
SWIDTH 437 0
DWIDTH 7 0
BBX 8 8 0 0
BITMAP
1C
64
04
3C
44
88
88
74
ENDCHAR
STARTCHAR afii10066
ENCODING 194
SWIDTH 375 0
DWIDTH 6 0
BBX 7 11 0 0
BITMAP
02
1C
20
2C
74
44
44
44
88
88
70
ENDCHAR
STARTCHAR afii10088
ENCODING 195
SWIDTH 500 0
DWIDTH 8 0
BBX 9 10 0 -2
BITMAP
3B80
1100
1100
2200
2200
2200
2200
FE00
0200
0200
ENDCHAR
STARTCHAR afii10069
ENCODING 196
SWIDTH 500 0
DWIDTH 8 0
BBX 9 10 0 -2
BITMAP
1F80
0900
0900
1200
1200
1200
2200
FE00
8200
8200
ENDCHAR
STARTCHAR afii10070
ENCODING 197
SWIDTH 375 0
DWIDTH 6 0
BBX 7 8 0 0
BITMAP
1C
24
44
7C
40
80
88
70
ENDCHAR
STARTCHAR afii10086
ENCODING 198
SWIDTH 562 0
DWIDTH 9 0
BBX 10 14 -1 -4
BITMAP
0700
0200
0F80
1480
2480
2480
2480
4900
4900
3E00
0800
1000
1000
3800
ENDCHAR
STARTCHAR afii10068
ENCODING 199
SWIDTH 437 0
DWIDTH 7 0
BBX 8 8 0 0
BITMAP
3F
22
20
20
20
40
40
E0
ENDCHAR
STARTCHAR afii10087
ENCODING 200
SWIDTH 500 0
DWIDTH 8 0
BBX 9 8 0 0
BITMAP
3180
2200
1400
0800
1000
2800
4400
C600
ENDCHAR
STARTCHAR afii10074
ENCODING 201
SWIDTH 562 0
DWIDTH 9 0
BBX 10 8 0 0
BITMAP
39C0
2300
2500
2500
2900
5200
6200
E700
ENDCHAR
STARTCHAR afii10075
ENCODING 202
SWIDTH 562 0
DWIDTH 9 0
BBX 10 11 0 0
BITMAP
0900
0600
0000
39C0
2300
2500
2500
2900
5200
6200
E700
ENDCHAR
STARTCHAR afii10076
ENCODING 203
SWIDTH 500 0
DWIDTH 8 0
BBX 9 8 0 0
BITMAP
3B80
2200
2400
3800
2400
4400
4400
EE00
ENDCHAR
STARTCHAR afii10077
ENCODING 204
SWIDTH 500 0
DWIDTH 8 0
BBX 9 8 0 0
BITMAP
1F80
1200
1200
1200
1200
2400
2400
CE00
ENDCHAR
STARTCHAR afii10078
ENCODING 205
SWIDTH 625 0
DWIDTH 10 0
BBX 11 8 0 0
BITMAP
3060
3180
3180
2A80
2C80
4900
4900
E380
ENDCHAR
STARTCHAR afii10079
ENCODING 206
SWIDTH 500 0
DWIDTH 8 0
BBX 9 8 0 0
BITMAP
3B80
2200
2200
3E00
2200
4400
4400
EE00
ENDCHAR
STARTCHAR afii10080
ENCODING 207
SWIDTH 437 0
DWIDTH 7 0
BBX 8 8 0 0
BITMAP
1E
22
42
42
42
84
84
78
ENDCHAR
STARTCHAR afii10081
ENCODING 208
SWIDTH 500 0
DWIDTH 8 0
BBX 9 8 0 0
BITMAP
3F80
2200
2200
2200
2200
4400
4400
EE00
ENDCHAR
STARTCHAR afii10097
ENCODING 209
SWIDTH 500 0
DWIDTH 8 0
BBX 9 8 0 0
BITMAP
0F80
1200
2200
2200
1E00
2400
4400
CE00
ENDCHAR
STARTCHAR afii10082
ENCODING 210
SWIDTH 500 0
DWIDTH 8 0
BBX 9 12 -1 -4
BITMAP
1F00
1100
1100
1100
1100
2200
2200
3C00
2000
4000
4000
E000
ENDCHAR
STARTCHAR afii10083
ENCODING 211
SWIDTH 375 0
DWIDTH 6 0
BBX 7 8 0 0
BITMAP
1C
24
40
40
40
80
88
70
ENDCHAR
STARTCHAR afii10084
ENCODING 212
SWIDTH 500 0
DWIDTH 8 0
BBX 9 8 0 0
BITMAP
3F80
4900
0800
0800
0800
1000
1000
3800
ENDCHAR
STARTCHAR afii10085
ENCODING 213
SWIDTH 500 0
DWIDTH 8 0
BBX 10 12 -1 -4
BITMAP
1DC0
1100
1100
0A00
0A00
1400
0800
0800
1000
2000
A000
C000
ENDCHAR
STARTCHAR afii10072
ENCODING 214
SWIDTH 875 0
DWIDTH 14 0
BBX 13 8 1 0
BITMAP
3BB8
2220
1240
0F80
1240
2440
4440
EEE0
ENDCHAR
STARTCHAR afii10067
ENCODING 215
SWIDTH 437 0
DWIDTH 7 0
BBX 8 8 0 0
BITMAP
3C
24
24
3C
22
44
44
F8
ENDCHAR
STARTCHAR afii10094
ENCODING 216
SWIDTH 437 0
DWIDTH 7 0
BBX 8 8 0 0
BITMAP
38
20
20
3C
22
44
44
F8
ENDCHAR
STARTCHAR afii10093
ENCODING 217
SWIDTH 687 0
DWIDTH 11 0
BBX 12 8 0 0
BITMAP
3870
2040
2040
3C40
2240
4480
4480
F9C0
ENDCHAR
STARTCHAR afii10073
ENCODING 218
SWIDTH 437 0
DWIDTH 7 0
BBX 8 8 0 0
BITMAP
1E
62
02
0C
02
04
84
78
ENDCHAR
STARTCHAR afii10090
ENCODING 219
SWIDTH 750 0
DWIDTH 12 0
BBX 13 8 0 0
BITMAP
3BB8
2220
2220
2220
2220
4440
4440
FFE0
ENDCHAR
STARTCHAR afii10095
ENCODING 220
SWIDTH 437 0
DWIDTH 7 0
BBX 8 8 0 0
BITMAP
1E
62
02
1E
02
04
84
78
ENDCHAR
STARTCHAR afii10091
ENCODING 221
SWIDTH 750 0
DWIDTH 12 0
BBX 13 10 0 -2
BITMAP
3BB8
1110
1110
2220
2220
2220
2220
FFE0
0020
0020
ENDCHAR
STARTCHAR afii10089
ENCODING 222
SWIDTH 500 0
DWIDTH 8 0
BBX 9 8 0 0
BITMAP
3B80
2200
2200
2200
1E00
0400
0400
0E00
ENDCHAR
STARTCHAR afii10092
ENCODING 223
SWIDTH 500 0
DWIDTH 8 0
BBX 9 8 0 0
BITMAP
3C00
5000
1000
1E00
1100
2200
2200
7C00
ENDCHAR
STARTCHAR afii10048
ENCODING 224
SWIDTH 1062 0
DWIDTH 17 0
BBX 17 11 0 0
BITMAP
383C00
10C300
108100
110080
220100
3E0100
220100
220200
420400
430C00
E0F000
ENDCHAR
STARTCHAR afii10017
ENCODING 225
SWIDTH 687 0
DWIDTH 11 0
BBX 13 11 -1 0
BITMAP
0100
0100
0280
0480
0880
0880
1040
3FC0
4040
4040
E0E0
ENDCHAR
STARTCHAR afii10018
ENCODING 226
SWIDTH 687 0
DWIDTH 11 0
BBX 11 11 0 0
BITMAP
3FC0
1040
1000
1000
3F00
2080
2040
2040
4080
4100
FE00
ENDCHAR
STARTCHAR afii10040
ENCODING 227
SWIDTH 750 0
DWIDTH 12 0
BBX 13 13 0 -2
BITMAP
1C38
0810
1020
1020
1020
1020
2040
2040
2040
2040
FFC0
0040
0040
ENDCHAR
STARTCHAR afii10021
ENCODING 228
SWIDTH 687 0
DWIDTH 11 0
BBX 12 13 0 -2
BITMAP
0FF0
0420
0840
0840
0840
0840
1080
1080
1080
2080
FF80
8080
8080
ENDCHAR
STARTCHAR afii10022
ENCODING 229
SWIDTH 625 0
DWIDTH 10 0
BBX 10 11 0 0
BITMAP
3FC0
1040
1000
1000
2200
3E00
2200
2000
4000
4100
FF00
ENDCHAR
STARTCHAR afii10038
ENCODING 230
SWIDTH 812 0
DWIDTH 13 0
BBX 15 16 0 -3
BITMAP
00E0
0080
07F0
0888
1084
2108
2108
2108
2108
4210
4210
2220
1FC0
0400
0400
0E00
ENDCHAR
STARTCHAR afii10020
ENCODING 231
SWIDTH 562 0
DWIDTH 9 0
BBX 10 11 0 0
BITMAP
3FC0
1040
1000
1000
2000
2000
2000
2000
4000
4000
E000
ENDCHAR
STARTCHAR afii10039
ENCODING 232
SWIDTH 812 0
DWIDTH 13 0
BBX 13 11 0 0
BITMAP
3838
1010
0820
0440
0580
0200
0500
0880
3080
4040
E0E0
ENDCHAR
STARTCHAR afii10026
ENCODING 233
SWIDTH 750 0
DWIDTH 12 0
BBX 12 11 0 0
BITMAP
3870
1020
1020
1060
21C0
2240
2440
2840
7080
4080
E1C0
ENDCHAR
STARTCHAR afii10027
ENCODING 234
SWIDTH 750 0
DWIDTH 12 0
BBX 13 13 0 0
BITMAP
0240
0180
3870
1020
1020
1060
21C0
2240
2440
2840
7080
4080
E1C0
ENDCHAR
STARTCHAR afii10028
ENCODING 235
SWIDTH 687 0
DWIDTH 11 0
BBX 12 11 0 0
BITMAP
38E0
1040
1080
1100
2200
2C00
3200
2100
4100
4080
E1C0
ENDCHAR
STARTCHAR afii10029
ENCODING 236
SWIDTH 750 0
DWIDTH 12 0
BBX 12 11 0 0
BITMAP
0FF0
0420
0420
0420
0840
0840
0840
0840
1080
1080
E1C0
ENDCHAR
STARTCHAR afii10030
ENCODING 237
SWIDTH 937 0
DWIDTH 15 0
BBX 15 11 0 0
BITMAP
3006
180C
180C
1414
2828
2448
2448
2288
4510
4210
E238
ENDCHAR
STARTCHAR afii10031
ENCODING 238
SWIDTH 750 0
DWIDTH 12 0
BBX 12 11 0 0
BITMAP
3870
1020
1020
1020
2040
3FC0
2040
2040
4080
4080
E1C0
ENDCHAR
STARTCHAR afii10032
ENCODING 239
SWIDTH 750 0
DWIDTH 12 0
BBX 12 11 0 0
BITMAP
0780
1860
1020
2010
4020
4020
4020
4040
4080
6180
1E00
ENDCHAR
STARTCHAR afii10033
ENCODING 240
SWIDTH 750 0
DWIDTH 12 0
BBX 12 11 0 0
BITMAP
3FF0
1020
1020
1020
2040
2040
2040
2040
4080
4080
E1C0
ENDCHAR
STARTCHAR afii10049
ENCODING 241
SWIDTH 812 0
DWIDTH 13 0
BBX 13 11 0 0
BITMAP
07F8
0810
0810
0810
1020
0FE0
0420
0820
1040
2040
E0E0
ENDCHAR
STARTCHAR afii10034
ENCODING 242
SWIDTH 687 0
DWIDTH 11 0
BBX 11 11 0 0
BITMAP
3F80
1040
1020
1020
2040
2080
3F00
2000
4000
4000
E000
ENDCHAR
STARTCHAR afii10035
ENCODING 243
SWIDTH 687 0
DWIDTH 11 0
BBX 12 11 0 0
BITMAP
07A0
1860
1020
2000
4000
4000
4000
4020
4040
6180
1E00
ENDCHAR
STARTCHAR afii10036
ENCODING 244
SWIDTH 687 0
DWIDTH 11 0
BBX 11 11 0 0
BITMAP
3FE0
2220
0200
0200
0400
0400
0400
0400
0800
0800
1C00
ENDCHAR
STARTCHAR afii10037
ENCODING 245
SWIDTH 750 0
DWIDTH 12 0
BBX 13 11 0 0
BITMAP
3838
1010
0820
0440
0880
0480
0500
0300
0400
0400
3800
ENDCHAR
STARTCHAR afii10024
ENCODING 246
SWIDTH 1125 0
DWIDTH 18 0
BBX 19 11 0 0
BITMAP
1C71C0
082080
042100
022200
024400
035800
04E400
084200
308200
408100
E1C380
ENDCHAR
STARTCHAR afii10019
ENCODING 247
SWIDTH 687 0
DWIDTH 11 0
BBX 11 11 0 0
BITMAP
3F00
1080
1040
1080
2100
3F00
2080
2040
4080
4100
FE00
ENDCHAR
STARTCHAR afii10046
ENCODING 248
SWIDTH 687 0
DWIDTH 11 0
BBX 11 11 0 0
BITMAP
3800
1000
1000
1000
3F00
2080
2040
2040
4080
4100
FE00
ENDCHAR
STARTCHAR afii10045
ENCODING 249
SWIDTH 937 0
DWIDTH 15 0
BBX 15 11 0 0
BITMAP
380E
1004
1004
1004
3F08
2088
2048
2048
4090
4110
FE38
ENDCHAR
STARTCHAR afii10025
ENCODING 250
SWIDTH 625 0
DWIDTH 10 0
BBX 10 11 0 0
BITMAP
1F00
2080
0040
0080
0100
0E00
0100
0080
0100
8200
7C00
ENDCHAR
STARTCHAR afii10042
ENCODING 251
SWIDTH 1062 0
DWIDTH 17 0
BBX 17 11 0 0
BITMAP
38E380
104100
104100
104100
208200
208200
208200
208200
410400
410400
FFFE00
ENDCHAR
STARTCHAR afii10047
ENCODING 252
SWIDTH 625 0
DWIDTH 10 0
BBX 10 11 0 0
BITMAP
0F00
1080
2040
0040
0080
1F80
0080
0080
8100
4200
3C00
ENDCHAR
STARTCHAR afii10043
ENCODING 253
SWIDTH 1062 0
DWIDTH 17 0
BBX 18 13 0 -2
BITMAP
1C71C0
082080
104100
104100
104100
104100
208200
208200
208200
208200
FFFE00
000200
000200
ENDCHAR
STARTCHAR afii10041
ENCODING 254
SWIDTH 750 0
DWIDTH 12 0
BBX 12 11 0 0
BITMAP
3870
1020
1020
1020
2040
1FC0
0040
0040
0080
0080
01C0
ENDCHAR
STARTCHAR afii10044
ENCODING 255
SWIDTH 812 0
DWIDTH 13 0
BBX 13 11 0 0
BITMAP
3E00
2400
0400
0400
0FC0
0820
0810
0810
1020
1040
3F80
ENDCHAR
ENDFONT
