STARTFONT 2.1
COMMENT Copyright (C) 1990-1991 EWT Consulting
COMMENT Portions Copyright (C) 1994-1995 Cronyx Ltd.
COMMENT Changes Copyright (C) 1996-1997 by Andrey A. Chernov, Moscow, Russia.
COMMENT Modified by Serge Vakulenko, <vak@cronyx.ru>
COMMENT Changes 1999 by Serge Winitzki.
COMMENT This software may be used, modified, copied, distributed, and sold,
COMMENT in both source and binary form provided that the copyright
COMMENT and these terms are retained. Under no circumstances is the author
COMMENT responsible for the proper functioning of this software, nor does
COMMENT the author assume any responsibility for damages incurred with its use.
COMMENT $XFree86$
FONT -Cronyx-Courier-Medium-O-Normal--20-140-100-100-M-120-KOI8-R
SIZE 14 96 96
FONTBOUNDINGBOX 16 18 -2 -4
STARTPROPERTIES 21
DEFAULT_CHAR 32
FONT_ASCENT 16
FONT_DESCENT 4
SPACING "M"
FONTNAME_REGISTRY ""
FOUNDRY "Cronyx"
FAMILY_NAME "Courier"
WEIGHT_NAME "Medium"
SLANT "O"
SETWIDTH_NAME "Normal"
ADD_STYLE_NAME ""
AVERAGE_WIDTH 120
CHARSET_REGISTRY "KOI8"
CHARSET_ENCODING "R"
PIXEL_SIZE 20
POINT_SIZE 140
RESOLUTION_X 100
RESOLUTION_Y 100
COPYRIGHT "Copyright (C) 1990, 1991 EWT Consulting, Portions Copyright (C) 1994 Cronyx Ltd., Portions Copyright (C) 1996-1997 by Andrey A. Chernov, Moscow, Russia."
_XMBDFED_INFO "Edited with xmbdfed 4.3."
_XFREE86_GLYPH_RANGES "32_126 149 154 156_158 163 179 191_255"
ENDPROPERTIES
CHARS 167
STARTCHAR space
ENCODING 32
SWIDTH 642 0
DWIDTH 12 0
BBX 0 0 -1 0
BITMAP
ENDCHAR
STARTCHAR exclam
ENCODING 33
SWIDTH 642 0
DWIDTH 12 0
BBX 4 12 5 0
BITMAP
10
20
20
20
20
40
40
40
00
00
80
80
ENDCHAR
STARTCHAR quotedbl
ENCODING 34
SWIDTH 642 0
DWIDTH 12 0
BBX 6 5 4 7
BITMAP
44
44
88
88
88
ENDCHAR
STARTCHAR numbersign
ENCODING 35
SWIDTH 642 0
DWIDTH 12 0
BBX 12 12 1 0
BITMAP
0220
0440
0440
1FE0
0880
1100
1100
1100
7F80
4400
4400
4400
ENDCHAR
STARTCHAR dollar
ENCODING 36
SWIDTH 642 0
DWIDTH 12 0
BBX 10 15 2 -2
BITMAP
0200
0200
0F40
10C0
2080
2000
1000
0E00
0200
0100
4100
6200
BC00
1000
1000
ENDCHAR
STARTCHAR percent
ENCODING 37
SWIDTH 642 0
DWIDTH 12 0
BBX 14 12 0 0
BITMAP
0E00
1210
2220
2240
1C80
0100
0200
04E0
0910
3220
4220
01C0
ENDCHAR
STARTCHAR ampersand
ENCODING 38
SWIDTH 642 0
DWIDTH 12 0
BBX 13 12 1 0
BITMAP
0780
0880
1000
1000
1000
2800
2400
4240
4180
8100
8280
7C40
ENDCHAR
STARTCHAR quotesingle
ENCODING 39
SWIDTH 642 0
DWIDTH 12 0
BBX 2 5 6 7
BITMAP
40
40
80
80
80
ENDCHAR
STARTCHAR parenleft
ENCODING 40
SWIDTH 642 0
DWIDTH 12 0
BBX 6 15 4 -3
BITMAP
04
08
08
10
20
20
20
20
40
40
40
40
40
40
20
ENDCHAR
STARTCHAR parenright
ENCODING 41
SWIDTH 642 0
DWIDTH 12 0
BBX 6 15 4 -3
BITMAP
10
08
08
04
08
08
08
08
10
10
10
20
40
40
80
ENDCHAR
STARTCHAR asterisk
ENCODING 42
SWIDTH 642 0
DWIDTH 12 0
BBX 8 6 3 6
BITMAP
08
49
3E
38
28
44
ENDCHAR
STARTCHAR plus
ENCODING 43
SWIDTH 642 0
DWIDTH 12 0
BBX 11 9 2 1
BITMAP
0200
0200
0400
0400
7FC0
0400
0800
0800
0800
ENDCHAR
STARTCHAR comma
ENCODING 44
SWIDTH 642 0
DWIDTH 12 0
BBX 2 3 4 -1
BITMAP
40
40
80
ENDCHAR
STARTCHAR hyphen
ENCODING 45
SWIDTH 642 0
DWIDTH 12 0
BBX 9 1 2 4
BITMAP
FF80
ENDCHAR
STARTCHAR period
ENCODING 46
SWIDTH 642 0
DWIDTH 12 0
BBX 1 2 5 0
BITMAP
80
80
ENDCHAR
STARTCHAR slash
ENCODING 47
SWIDTH 642 0
DWIDTH 12 0
BBX 13 11 0 0
BITMAP
0008
0010
0020
0040
0180
0200
0400
0800
3000
4000
8000
ENDCHAR
STARTCHAR zero
ENCODING 48
SWIDTH 642 0
DWIDTH 12 0
BBX 10 12 2 0
BITMAP
0700
1900
2080
2080
2080
4100
4100
4100
4100
8200
4400
3800
ENDCHAR
STARTCHAR one
ENCODING 49
SWIDTH 642 0
DWIDTH 12 0
BBX 10 12 2 0
BITMAP
0600
3C00
0400
0400
0400
0800
0800
0800
0800
1000
1000
FE00
ENDCHAR
STARTCHAR two
ENCODING 50
SWIDTH 642 0
DWIDTH 12 0
BBX 10 12 2 0
BITMAP
0700
1900
2080
0080
0100
0200
0400
0800
1000
6200
8200
FE00
ENDCHAR
STARTCHAR three
ENCODING 51
SWIDTH 642 0
DWIDTH 12 0
BBX 10 12 2 0
BITMAP
0F00
3100
0080
0080
0100
0E00
0200
0100
0100
0200
8400
7800
ENDCHAR
STARTCHAR four
ENCODING 52
SWIDTH 642 0
DWIDTH 12 0
BBX 10 12 2 0
BITMAP
0080
0300
0300
0500
0900
1200
2200
4200
7F00
0400
0400
1E00
ENDCHAR
STARTCHAR five
ENCODING 53
SWIDTH 642 0
DWIDTH 12 0
BBX 10 12 2 0
BITMAP
1F80
2000
2000
2000
3E00
4200
0100
0100
0100
0200
8400
7800
ENDCHAR
STARTCHAR six
ENCODING 54
SWIDTH 642 0
DWIDTH 12 0
BBX 10 12 2 0
BITMAP
01C0
0E00
1000
1000
2000
5C00
6200
4100
4100
8200
4400
3800
ENDCHAR
STARTCHAR seven
ENCODING 55
SWIDTH 642 0
DWIDTH 12 0
BBX 10 12 2 0
BITMAP
1FC0
2080
2080
0100
0200
0400
0400
0800
1000
2000
2000
2000
ENDCHAR
STARTCHAR eight
ENCODING 56
SWIDTH 642 0
DWIDTH 12 0
BBX 10 12 2 0
BITMAP
0700
1900
2080
2080
1100
1E00
2200
4100
4100
8200
4400
3800
ENDCHAR
STARTCHAR nine
ENCODING 57
SWIDTH 642 0
DWIDTH 12 0
BBX 10 12 2 0
BITMAP
0700
1900
2080
2080
2080
2300
1D00
0100
0200
0400
1800
E000
ENDCHAR
STARTCHAR colon
ENCODING 58
SWIDTH 642 0
DWIDTH 12 0
BBX 3 9 5 0
BITMAP
20
20
00
00
00
00
00
80
80
ENDCHAR
STARTCHAR semicolon
ENCODING 59
SWIDTH 642 0
DWIDTH 12 0
BBX 4 10 4 -1
BITMAP
10
10
00
00
00
00
00
40
40
80
ENDCHAR
STARTCHAR less
ENCODING 60
SWIDTH 642 0
DWIDTH 12 0
BBX 7 9 4 1
BITMAP
02
04
18
20
40
20
20
10
08
ENDCHAR
STARTCHAR equal
ENCODING 61
SWIDTH 642 0
DWIDTH 12 0
BBX 10 5 2 3
BITMAP
7FC0
0000
0000
0000
FF80
ENDCHAR
STARTCHAR greater
ENCODING 62
SWIDTH 642 0
DWIDTH 12 0
BBX 7 9 4 1
BITMAP
20
10
10
08
04
08
30
40
80
ENDCHAR
STARTCHAR question
ENCODING 63
SWIDTH 642 0
DWIDTH 12 0
BBX 10 12 2 0
BITMAP
0F80
1080
2080
0080
0100
0600
0800
0800
0000
0000
1000
1000
ENDCHAR
STARTCHAR at
ENCODING 64
SWIDTH 642 0
DWIDTH 12 0
BBX 12 14 1 -2
BITMAP
07C0
0820
1010
2020
23E0
2420
2420
4840
4840
4840
47C0
8000
4000
3E00
ENDCHAR
STARTCHAR A
ENCODING 65
SWIDTH 642 0
DWIDTH 12 0
BBX 14 12 0 0
BITMAP
0380
0100
0100
0280
0480
0880
0880
1040
3FC0
4040
4040
E0E0
ENDCHAR
STARTCHAR B
ENCODING 66
SWIDTH 642 0
DWIDTH 12 0
BBX 14 12 0 0
BITMAP
1FE0
0820
0810
0810
0820
1FC0
1020
1010
1010
2020
2040
FF80
ENDCHAR
STARTCHAR C
ENCODING 67
SWIDTH 642 0
DWIDTH 12 0
BBX 13 12 1 0
BITMAP
03E8
1C30
1010
2000
2000
4000
4000
4000
4000
4040
60C0
1F00
ENDCHAR
STARTCHAR D
ENCODING 68
SWIDTH 642 0
DWIDTH 12 0
BBX 14 12 0 0
BITMAP
1FE0
0830
0810
0808
0808
1010
1010
1010
1020
2040
20C0
FF00
ENDCHAR
STARTCHAR E
ENCODING 69
SWIDTH 642 0
DWIDTH 12 0
BBX 13 12 0 0
BITMAP
1FF8
0810
0810
0800
0840
1F80
1080
1000
1000
2040
2040
FFC0
ENDCHAR
STARTCHAR F
ENCODING 70
SWIDTH 642 0
DWIDTH 12 0
BBX 13 12 1 0
BITMAP
1FF8
0810
0810
0800
0840
1F80
1080
1000
1000
2000
2000
FC00
ENDCHAR
STARTCHAR G
ENCODING 71
SWIDTH 642 0
DWIDTH 12 0
BBX 14 12 0 0
BITMAP
03E8
1C30
1010
2000
2000
4000
41F0
4020
4020
4040
60C0
1F00
ENDCHAR
STARTCHAR H
ENCODING 72
SWIDTH 642 0
DWIDTH 12 0
BBX 14 12 0 0
BITMAP
1C1C
1010
1010
1010
1010
3FE0
2020
2020
2020
4040
4040
E0E0
ENDCHAR
STARTCHAR I
ENCODING 73
SWIDTH 642 0
DWIDTH 12 0
BBX 10 12 2 0
BITMAP
1FC0
0400
0400
0400
0400
0800
0800
0800
0800
1000
1000
FE00
ENDCHAR
STARTCHAR J
ENCODING 74
SWIDTH 642 0
DWIDTH 12 0
BBX 12 12 1 0
BITMAP
03F0
0080
0080
0080
0080
0100
0100
0100
0100
8200
8200
7C00
ENDCHAR
STARTCHAR K
ENCODING 75
SWIDTH 642 0
DWIDTH 12 0
BBX 14 12 0 0
BITMAP
1C78
1040
1080
1100
1200
2400
3400
2200
2100
4100
4080
E060
ENDCHAR
STARTCHAR L
ENCODING 76
SWIDTH 642 0
DWIDTH 12 0
BBX 13 12 0 0
BITMAP
1F80
0800
0800
0800
0800
1000
1000
1000
1000
2040
2040
FFC0
ENDCHAR
STARTCHAR M
ENCODING 77
SWIDTH 642 0
DWIDTH 12 0
BBX 14 12 0 0
BITMAP
180C
1830
1830
1450
1490
2520
2520
2220
2220
4040
4040
E0E0
ENDCHAR
STARTCHAR N
ENCODING 78
SWIDTH 642 0
DWIDTH 12 0
BBX 14 12 0 0
BITMAP
183C
1810
1810
1410
1210
2220
2220
2120
20A0
40C0
40C0
F040
ENDCHAR
STARTCHAR O
ENCODING 79
SWIDTH 642 0
DWIDTH 12 0
BBX 14 12 0 0
BITMAP
03E0
1C30
1010
2008
2008
4010
4010
4010
4020
4040
60C0
1F00
ENDCHAR
STARTCHAR P
ENCODING 80
SWIDTH 642 0
DWIDTH 12 0
BBX 13 12 0 0
BITMAP
1FE0
0820
0810
0810
0820
1040
1F80
1000
1000
2000
2000
FC00
ENDCHAR
STARTCHAR Q
ENCODING 81
SWIDTH 642 0
DWIDTH 12 0
BBX 14 15 0 -3
BITMAP
03E0
0C18
0808
1004
2008
2008
2008
2008
4010
2020
3060
0F80
1000
3880
4700
ENDCHAR
STARTCHAR R
ENCODING 82
SWIDTH 642 0
DWIDTH 12 0
BBX 14 12 0 0
BITMAP
1FE0
0820
0810
0810
0820
1040
1F80
1100
1080
2080
2040
F820
ENDCHAR
STARTCHAR S
ENCODING 83
SWIDTH 642 0
DWIDTH 12 0
BBX 12 12 1 0
BITMAP
07D0
1860
2020
2000
1000
1C00
0300
0080
0040
8080
C100
BE00
ENDCHAR
STARTCHAR T
ENCODING 84
SWIDTH 642 0
DWIDTH 12 0
BBX 14 12 0 0
BITMAP
1FFC
2108
2108
0100
0100
0200
0200
0200
0200
0400
0400
1F00
ENDCHAR
STARTCHAR U
ENCODING 85
SWIDTH 642 0
DWIDTH 12 0
BBX 14 12 0 0
BITMAP
1C1C
1010
1010
1010
1010
2020
2020
2020
2020
4040
2080
1F00
ENDCHAR
STARTCHAR V
ENCODING 86
SWIDTH 642 0
DWIDTH 12 0
BBX 14 12 0 0
BITMAP
1C1C
1010
1010
0820
0840
0880
0880
0880
0500
0A00
0400
0400
ENDCHAR
STARTCHAR W
ENCODING 87
SWIDTH 642 0
DWIDTH 12 0
BBX 14 12 0 0
BITMAP
180C
2008
2008
2108
2210
2520
2520
28A0
30C0
2080
2080
2080
ENDCHAR
STARTCHAR X
ENCODING 88
SWIDTH 642 0
DWIDTH 12 0
BBX 14 12 0 0
BITMAP
1E3C
1010
0820
0440
0280
0100
0200
0500
0880
3080
4040
F1E0
ENDCHAR
STARTCHAR Y
ENCODING 89
SWIDTH 642 0
DWIDTH 12 0
BBX 14 12 0 0
BITMAP
1C1C
1010
1010
0820
0440
0580
0200
0200
0200
0400
0400
1F00
ENDCHAR
STARTCHAR Z
ENCODING 90
SWIDTH 642 0
DWIDTH 12 0
BBX 12 12 1 0
BITMAP
1FF0
2020
2040
0080
0100
0200
0400
0800
1000
6080
8080
FF80
ENDCHAR
STARTCHAR bracketleft
ENCODING 91
SWIDTH 642 0
DWIDTH 12 0
BBX 7 15 4 -3
BITMAP
1E
10
10
10
20
20
20
20
40
40
40
40
80
80
F0
ENDCHAR
STARTCHAR backslash
ENCODING 92
SWIDTH 642 0
DWIDTH 12 0
BBX 13 11 0 0
BITMAP
2000
1000
0800
0400
0400
0200
0100
0080
0080
0040
0020
ENDCHAR
STARTCHAR bracketright
ENCODING 93
SWIDTH 642 0
DWIDTH 12 0
BBX 7 15 3 -3
BITMAP
1E
02
02
02
04
04
04
04
08
08
08
08
10
10
F0
ENDCHAR
STARTCHAR asciicircum
ENCODING 94
SWIDTH 642 0
DWIDTH 12 0
BBX 5 3 5 10
BITMAP
20
50
88
ENDCHAR
STARTCHAR underscore
ENCODING 95
SWIDTH 642 0
DWIDTH 12 0
BBX 12 1 -1 -2
BITMAP
FFF0
ENDCHAR
STARTCHAR grave
ENCODING 96
SWIDTH 642 0
DWIDTH 12 0
BBX 3 3 6 10
BITMAP
80
40
20
ENDCHAR
STARTCHAR a
ENCODING 97
SWIDTH 642 0
DWIDTH 12 0
BBX 11 9 1 0
BITMAP
0F80
1040
0080
0F80
3080
4080
8100
8100
7E80
ENDCHAR
STARTCHAR b
ENCODING 98
SWIDTH 642 0
DWIDTH 12 0
BBX 12 13 1 0
BITMAP
1800
0800
1000
1000
1780
1840
2040
2040
2040
2040
4080
6100
DE00
ENDCHAR
STARTCHAR c
ENCODING 99
SWIDTH 642 0
DWIDTH 12 0
BBX 10 9 2 0
BITMAP
0F40
10C0
2080
4000
4000
4000
8000
4100
3E00
ENDCHAR
STARTCHAR d
ENCODING 100
SWIDTH 642 0
DWIDTH 12 0
BBX 12 13 1 0
BITMAP
0060
0020
0040
0040
0F40
10C0
2080
4080
4080
4080
8100
4300
3D80
ENDCHAR
STARTCHAR e
ENCODING 101
SWIDTH 642 0
DWIDTH 12 0
BBX 11 9 1 0
BITMAP
0F80
1040
2040
4040
7FC0
4000
8080
4100
3E00
ENDCHAR
STARTCHAR f
ENCODING 102
SWIDTH 642 0
DWIDTH 12 0
BBX 9 13 3 0
BITMAP
0380
0400
0800
0800
3F00
0800
1000
1000
1000
1000
2000
2000
FC00
ENDCHAR
STARTCHAR g
ENCODING 103
SWIDTH 642 0
DWIDTH 12 0
BBX 12 13 0 -4
BITMAP
07B0
0860
1040
2040
2040
2040
4080
2180
1E80
0080
0100
0200
7C00
ENDCHAR
STARTCHAR h
ENCODING 104
SWIDTH 642 0
DWIDTH 12 0
BBX 12 13 1 0
BITMAP
1800
0800
1000
1000
1780
1840
2080
2080
2080
2080
4100
4100
E380
ENDCHAR
STARTCHAR i
ENCODING 105
SWIDTH 642 0
DWIDTH 12 0
BBX 10 13 2 0
BITMAP
0200
0200
0000
0000
1C00
0400
0800
0800
0800
0800
1000
1000
FE00
ENDCHAR
STARTCHAR j
ENCODING 106
SWIDTH 642 0
DWIDTH 12 0
BBX 9 17 1 -4
BITMAP
0080
0080
0000
0000
1F00
0100
0200
0200
0200
0200
0400
0400
0400
0400
0800
1000
E000
ENDCHAR
STARTCHAR k
ENCODING 107
SWIDTH 642 0
DWIDTH 12 0
BBX 13 13 1 0
BITMAP
1800
0800
1000
1000
11E0
1100
2200
2400
2C00
3200
4200
4100
C0C0
ENDCHAR
STARTCHAR l
ENCODING 108
SWIDTH 642 0
DWIDTH 12 0
BBX 10 13 2 0
BITMAP
0E00
0200
0400
0400
0400
0400
0800
0800
0800
0800
1000
1000
FE00
ENDCHAR
STARTCHAR m
ENCODING 109
SWIDTH 642 0
DWIDTH 12 0
BBX 13 9 0 0
BITMAP
3660
1990
2220
2220
2220
2220
4440
4440
E660
ENDCHAR
STARTCHAR n
ENCODING 110
SWIDTH 642 0
DWIDTH 12 0
BBX 11 9 1 0
BITMAP
3780
1840
2080
2080
2080
2080
4100
4100
E380
ENDCHAR
STARTCHAR o
ENCODING 111
SWIDTH 642 0
DWIDTH 12 0
BBX 11 9 1 0
BITMAP
0F80
1040
2040
4040
4040
4040
8080
4100
3E00
ENDCHAR
STARTCHAR p
ENCODING 112
SWIDTH 642 0
DWIDTH 12 0
BBX 12 13 0 -4
BITMAP
1BC0
0C20
1020
1020
1020
1020
2040
3080
2F00
2000
4000
4000
F000
ENDCHAR
STARTCHAR q
ENCODING 113
SWIDTH 642 0
DWIDTH 12 0
BBX 12 13 0 -4
BITMAP
07B0
0860
1040
2040
2040
2040
4080
2180
1E80
0080
0100
0100
0780
ENDCHAR
STARTCHAR r
ENCODING 114
SWIDTH 642 0
DWIDTH 12 0
BBX 11 9 1 0
BITMAP
3BC0
0C20
1000
1000
1000
1000
2000
2000
FC00
ENDCHAR
STARTCHAR s
ENCODING 115
SWIDTH 642 0
DWIDTH 12 0
BBX 11 9 1 0
BITMAP
0FA0
1060
2040
2000
1F00
0080
8080
C100
BE00
ENDCHAR
STARTCHAR t
ENCODING 116
SWIDTH 642 0
DWIDTH 12 0
BBX 10 12 2 0
BITMAP
0400
0800
0800
3F80
0800
1000
1000
1000
1000
2200
2200
1C00
ENDCHAR
STARTCHAR u
ENCODING 117
SWIDTH 642 0
DWIDTH 12 0
BBX 11 9 1 0
BITMAP
30C0
1040
2080
2080
2080
2080
4100
4300
3D80
ENDCHAR
STARTCHAR v
ENCODING 118
SWIDTH 642 0
DWIDTH 12 0
BBX 13 9 0 0
BITMAP
3838
1020
1040
1040
0880
0900
0A00
0A00
0400
ENDCHAR
STARTCHAR w
ENCODING 119
SWIDTH 642 0
DWIDTH 12 0
BBX 13 9 0 0
BITMAP
3838
1010
2220
2220
1540
1980
1100
1100
1100
ENDCHAR
STARTCHAR x
ENCODING 120
SWIDTH 642 0
DWIDTH 12 0
BBX 13 9 0 0
BITMAP
3C78
0840
0880
0500
0200
0500
1900
2080
F1E0
ENDCHAR
STARTCHAR y
ENCODING 121
SWIDTH 642 0
DWIDTH 12 0
BBX 14 13 -1 -4
BITMAP
1C1C
0810
0820
0820
0440
0480
0500
0500
0200
0400
0800
0800
3C00
ENDCHAR
STARTCHAR z
ENCODING 122
SWIDTH 642 0
DWIDTH 12 0
BBX 11 9 1 0
BITMAP
3FE0
2080
4100
0200
0400
0800
3080
4080
FF80
ENDCHAR
STARTCHAR braceleft
ENCODING 123
SWIDTH 642 0
DWIDTH 12 0
BBX 8 15 3 -3
BITMAP
03
04
04
04
08
08
08
30
10
10
10
10
20
20
18
ENDCHAR
STARTCHAR bar
ENCODING 124
SWIDTH 642 0
DWIDTH 12 0
BBX 5 16 4 -4
BITMAP
08
10
10
10
10
20
20
20
20
40
40
40
40
80
80
80
ENDCHAR
STARTCHAR braceright
ENCODING 125
SWIDTH 642 0
DWIDTH 12 0
BBX 8 15 3 -3
BITMAP
18
04
04
04
08
08
08
0E
10
10
10
10
20
20
C0
ENDCHAR
STARTCHAR asciitilde
ENCODING 126
SWIDTH 642 0
DWIDTH 12 0
BBX 9 3 3 10
BITMAP
7080
8880
8700
ENDCHAR
STARTCHAR bullet
ENCODING 149
SWIDTH 642 0
DWIDTH 12 0
BBX 6 5 4 2
BITMAP
38
7C
F8
F8
70
ENDCHAR
STARTCHAR space
ENCODING 154
SWIDTH 642 0
DWIDTH 12 0
BBX 0 0 -1 0
BITMAP
ENDCHAR
STARTCHAR degree
ENCODING 156
SWIDTH 642 0
DWIDTH 12 0
BBX 6 5 5 8
BITMAP
38
44
88
88
70
ENDCHAR
STARTCHAR twosuperior
ENCODING 157
SWIDTH 642 0
DWIDTH 12 0
BBX 6 6 4 7
BITMAP
38
44
08
70
80
F8
ENDCHAR
STARTCHAR periodcentered
ENCODING 158
SWIDTH 642 0
DWIDTH 12 0
BBX 2 2 5 5
BITMAP
C0
C0
ENDCHAR
STARTCHAR afii10071
ENCODING 163
SWIDTH 642 0
DWIDTH 12 0
BBX 11 11 1 0
BITMAP
18C0
0000
0F80
1040
2040
4040
7FC0
4000
8080
4100
3E00
ENDCHAR
STARTCHAR afii10023
ENCODING 179
SWIDTH 642 0
DWIDTH 12 0
BBX 13 14 0 0
BITMAP
0C30
0000
1FF8
0810
0810
0800
0840
1F80
1080
1000
1000
2040
2040
FFC0
ENDCHAR
STARTCHAR copyright
ENCODING 191
SWIDTH 642 0
DWIDTH 12 0
BBX 14 13 0 -1
BITMAP
07F0
0808
1008
23C8
2428
2408
4810
4810
4850
4790
8020
4040
3F80
ENDCHAR
STARTCHAR afii10096
ENCODING 192
SWIDTH 642 0
DWIDTH 12 0
BBX 13 9 0 0
BITMAP
38E0
1110
2210
2410
3C10
2410
4820
4440
E380
ENDCHAR
STARTCHAR afii10065
ENCODING 193
SWIDTH 642 0
DWIDTH 12 0
BBX 11 9 1 0
BITMAP
0F80
1040
0080
0F80
3080
4080
8100
8100
7E80
ENDCHAR
STARTCHAR afii10066
ENCODING 194
SWIDTH 642 0
DWIDTH 12 0
BBX 12 13 1 0
BITMAP
0030
07C0
1800
2000
2F80
3040
4040
4040
4040
4040
8080
4100
3E00
ENDCHAR
STARTCHAR afii10088
ENCODING 195
SWIDTH 642 0
DWIDTH 12 0
BBX 12 11 1 -2
BITMAP
38E0
1040
1040
1040
2080
2080
2080
2080
FFC0
0040
0040
ENDCHAR
STARTCHAR afii10069
ENCODING 196
SWIDTH 642 0
DWIDTH 12 0
BBX 12 11 0 -2
BITMAP
1FF0
0820
0820
0820
1040
1040
1040
2040
FFC0
8040
8040
ENDCHAR
STARTCHAR afii10070
ENCODING 197
SWIDTH 642 0
DWIDTH 12 0
BBX 11 9 1 0
BITMAP
0F80
1040
2040
4040
7FC0
4000
8080
4100
3E00
ENDCHAR
STARTCHAR afii10086
ENCODING 198
SWIDTH 642 0
DWIDTH 12 0
BBX 12 15 0 -4
BITMAP
0380
0100
07C0
0920
1220
2220
2220
2220
4440
2480
1F00
0400
0800
0800
1C00
ENDCHAR
STARTCHAR afii10068
ENCODING 199
SWIDTH 642 0
DWIDTH 12 0
BBX 11 9 1 0
BITMAP
3FE0
0820
1040
1000
1000
1000
2000
2000
F800
ENDCHAR
STARTCHAR afii10087
ENCODING 200
SWIDTH 642 0
DWIDTH 12 0
BBX 11 9 1 0
BITMAP
38E0
1080
1100
0A00
0400
0A00
3200
4100
E380
ENDCHAR
STARTCHAR afii10074
ENCODING 201
SWIDTH 642 0
DWIDTH 12 0
BBX 11 9 1 0
BITMAP
38E0
1040
2180
2280
2480
2880
7100
4100
E380
ENDCHAR
STARTCHAR afii10075
ENCODING 202
SWIDTH 642 0
DWIDTH 12 0
BBX 12 12 1 0
BITMAP
0440
0780
0000
38E0
1040
2180
2280
2480
2880
7100
4100
E380
ENDCHAR
STARTCHAR afii10076
ENCODING 203
SWIDTH 642 0
DWIDTH 12 0
BBX 12 9 1 0
BITMAP
38E0
1100
2200
2400
2C00
3200
4200
4100
E0C0
ENDCHAR
STARTCHAR afii10077
ENCODING 204
SWIDTH 642 0
DWIDTH 12 0
BBX 12 9 0 0
BITMAP
0FF0
0420
0840
0840
0840
0840
1080
9080
61C0
ENDCHAR
STARTCHAR afii10078
ENCODING 205
SWIDTH 642 0
DWIDTH 12 0
BBX 13 9 0 0
BITMAP
3018
1830
28E0
2520
2220
2220
4040
4040
E0E0
ENDCHAR
STARTCHAR afii10079
ENCODING 206
SWIDTH 642 0
DWIDTH 12 0
BBX 11 9 1 0
BITMAP
38E0
1040
2080
2080
3F80
2080
4100
4100
E380
ENDCHAR
STARTCHAR afii10080
ENCODING 207
SWIDTH 642 0
DWIDTH 12 0
BBX 11 9 1 0
BITMAP
0F80
1040
2040
4040
4040
4040
8080
4100
3E00
ENDCHAR
STARTCHAR afii10081
ENCODING 208
SWIDTH 642 0
DWIDTH 12 0
BBX 11 9 1 0
BITMAP
3FE0
1040
2080
2080
2080
2080
4100
4100
E380
ENDCHAR
STARTCHAR afii10097
ENCODING 209
SWIDTH 642 0
DWIDTH 12 0
BBX 12 9 0 0
BITMAP
0FF0
1020
2040
2040
1FC0
0840
1080
2080
E3C0
ENDCHAR
STARTCHAR afii10082
ENCODING 210
SWIDTH 642 0
DWIDTH 12 0
BBX 12 13 0 -4
BITMAP
1BC0
0C20
1020
1020
1020
1020
2040
3080
2F00
2000
4000
4000
F000
ENDCHAR
STARTCHAR afii10083
ENCODING 211
SWIDTH 642 0
DWIDTH 12 0
BBX 10 9 2 0
BITMAP
0F40
10C0
2080
4000
4000
4000
8000
4100
3E00
ENDCHAR
STARTCHAR afii10084
ENCODING 212
SWIDTH 642 0
DWIDTH 12 0
BBX 11 9 1 0
BITMAP
3FE0
2220
0400
0400
0400
0400
0800
0800
3E00
ENDCHAR
STARTCHAR afii10085
ENCODING 213
SWIDTH 642 0
DWIDTH 12 0
BBX 14 13 -1 -4
BITMAP
1C1C
0808
0810
0820
0420
0440
0480
0500
0300
0200
0400
4800
3000
ENDCHAR
STARTCHAR afii10072
ENCODING 214
SWIDTH 642 0
DWIDTH 12 0
BBX 13 9 0 0
BITMAP
1BB0
0920
1240
0A80
0700
0A80
3480
4440
CE60
ENDCHAR
STARTCHAR afii10067
ENCODING 215
SWIDTH 642 0
DWIDTH 12 0
BBX 11 9 1 0
BITMAP
3F80
1040
2080
2080
3F80
2040
4080
4080
FF00
ENDCHAR
STARTCHAR afii10094
ENCODING 216
SWIDTH 642 0
DWIDTH 12 0
BBX 11 9 1 0
BITMAP
3800
1000
2000
3F00
2080
2040
4080
4100
FE00
ENDCHAR
STARTCHAR afii10093
ENCODING 217
SWIDTH 642 0
DWIDTH 12 0
BBX 13 9 0 0
BITMAP
3838
1010
2020
3E20
2120
20A0
4140
4240
FCE0
ENDCHAR
STARTCHAR afii10073
ENCODING 218
SWIDTH 642 0
DWIDTH 12 0
BBX 11 9 1 0
BITMAP
2F80
3040
4040
0080
0F00
0080
0080
C100
3E00
ENDCHAR
STARTCHAR afii10090
ENCODING 219
SWIDTH 642 0
DWIDTH 12 0
BBX 13 9 0 0
BITMAP
3BB8
1110
2220
2220
2220
2220
4440
4440
FFE0
ENDCHAR
STARTCHAR afii10095
ENCODING 220
SWIDTH 642 0
DWIDTH 12 0
BBX 11 9 1 0
BITMAP
0F80
1040
6040
0040
0FC0
0040
8080
4100
3E00
ENDCHAR
STARTCHAR afii10091
ENCODING 221
SWIDTH 642 0
DWIDTH 12 0
BBX 13 11 0 -2
BITMAP
3BB8
1110
1110
1110
2220
2220
2220
2220
FFE0
0020
0020
ENDCHAR
STARTCHAR afii10089
ENCODING 222
SWIDTH 642 0
DWIDTH 12 0
BBX 11 9 1 0
BITMAP
38E0
1040
2080
2080
2180
1E80
0100
0100
0380
ENDCHAR
STARTCHAR afii10092
ENCODING 223
SWIDTH 642 0
DWIDTH 12 0
BBX 13 9 0 0
BITMAP
3E00
2400
4800
0FC0
0820
0810
1020
1040
7F80
ENDCHAR
STARTCHAR afii10048
ENCODING 224
SWIDTH 642 0
DWIDTH 12 0
BBX 14 12 0 0
BITMAP
1C70
1190
1208
1208
1208
3C10
2410
2410
2410
4820
4440
E380
ENDCHAR
STARTCHAR afii10017
ENCODING 225
SWIDTH 642 0
DWIDTH 12 0
BBX 14 12 0 0
BITMAP
0080
0100
0100
0280
0480
0880
0880
1FC0
2040
4040
4040
E0E0
ENDCHAR
STARTCHAR afii10018
ENCODING 226
SWIDTH 642 0
DWIDTH 12 0
BBX 14 12 0 0
BITMAP
1FF8
0810
0800
0800
0800
1FC0
1020
1010
1010
2020
2040
FF80
ENDCHAR
STARTCHAR afii10040
ENCODING 227
SWIDTH 642 0
DWIDTH 12 0
BBX 14 14 0 -2
BITMAP
1E3C
0808
0808
1010
1010
1010
1010
2020
2020
2020
2020
FFE0
0020
0020
ENDCHAR
STARTCHAR afii10021
ENCODING 228
SWIDTH 642 0
DWIDTH 12 0
BBX 14 14 0 -2
BITMAP
0FFC
0408
0408
0810
0810
0810
0810
1020
1020
1020
2020
FFE0
8020
8020
ENDCHAR
STARTCHAR afii10022
ENCODING 229
SWIDTH 642 0
DWIDTH 12 0
BBX 13 12 0 0
BITMAP
1FF8
0810
0810
0800
0840
1F80
1080
1000
1000
2040
2040
FFC0
ENDCHAR
STARTCHAR afii10038
ENCODING 230
SWIDTH 642 0
DWIDTH 12 0
BBX 14 13 0 0
BITMAP
01C0
0080
07C0
1930
1110
2108
4210
4210
2220
3260
1F80
0400
0E00
ENDCHAR
STARTCHAR afii10020
ENCODING 231
SWIDTH 642 0
DWIDTH 12 0
BBX 13 12 0 0
BITMAP
1FF8
0810
0810
0800
0800
1000
1000
1000
1000
2000
2000
FC00
ENDCHAR
STARTCHAR afii10039
ENCODING 232
SWIDTH 642 0
DWIDTH 12 0
BBX 14 12 0 0
BITMAP
1E3C
1010
0820
0440
0280
0100
0200
0500
0880
3080
4040
F1E0
ENDCHAR
STARTCHAR afii10026
ENCODING 233
SWIDTH 642 0
DWIDTH 12 0
BBX 14 12 0 0
BITMAP
1C1C
1010
1010
1030
1050
21A0
2220
2420
2820
7040
4040
E0E0
ENDCHAR
STARTCHAR afii10027
ENCODING 234
SWIDTH 642 0
DWIDTH 12 0
BBX 14 14 0 0
BITMAP
0220
01C0
1C1C
1010
1010
1030
1050
21A0
2220
2420
2820
7040
4040
E0E0
ENDCHAR
STARTCHAR afii10028
ENCODING 235
SWIDTH 642 0
DWIDTH 12 0
BBX 14 12 0 0
BITMAP
1C78
1040
1080
1100
1200
2400
3400
2200
2100
4100
4080
E060
ENDCHAR
STARTCHAR afii10029
ENCODING 236
SWIDTH 642 0
DWIDTH 12 0
BBX 14 12 0 0
BITMAP
07FC
0410
0410
0410
0410
0820
0820
0820
0820
1040
9040
61E0
ENDCHAR
STARTCHAR afii10030
ENCODING 237
SWIDTH 642 0
DWIDTH 12 0
BBX 14 12 0 0
BITMAP
180C
1830
1830
1450
1490
2520
2520
2220
2220
4040
4040
E0E0
ENDCHAR
STARTCHAR afii10031
ENCODING 238
SWIDTH 642 0
DWIDTH 12 0
BBX 14 12 0 0
BITMAP
1C1C
1010
1010
1010
1010
3FE0
2020
2020
2020
4040
4040
E0E0
ENDCHAR
STARTCHAR afii10032
ENCODING 239
SWIDTH 642 0
DWIDTH 12 0
BBX 14 12 0 0
BITMAP
03E0
1C30
1010
2008
2008
4010
4010
4010
4020
4040
60C0
1F00
ENDCHAR
STARTCHAR afii10033
ENCODING 240
SWIDTH 642 0
DWIDTH 12 0
BBX 14 12 0 0
BITMAP
1FFC
1010
1010
1010
1010
2020
2020
2020
2020
4040
4040
E0E0
ENDCHAR
STARTCHAR afii10049
ENCODING 241
SWIDTH 642 0
DWIDTH 12 0
BBX 13 12 0 0
BITMAP
03F8
0C20
1020
1020
1020
1040
0FC0
0440
0840
1080
2080
C3C0
ENDCHAR
STARTCHAR afii10034
ENCODING 242
SWIDTH 642 0
DWIDTH 12 0
BBX 13 12 0 0
BITMAP
1FE0
0820
0810
0810
0820
1040
1F80
1000
1000
2000
2000
FC00
ENDCHAR
STARTCHAR afii10035
ENCODING 243
SWIDTH 642 0
DWIDTH 12 0
BBX 13 12 1 0
BITMAP
03E8
1C30
1010
2000
2000
4000
4000
4000
4000
4040
60C0
1F00
ENDCHAR
STARTCHAR afii10036
ENCODING 244
SWIDTH 642 0
DWIDTH 12 0
BBX 14 12 0 0
BITMAP
1FFC
2108
2108
0100
0100
0200
0200
0200
0200
0400
0400
1F00
ENDCHAR
STARTCHAR afii10037
ENCODING 245
SWIDTH 642 0
DWIDTH 12 0
BBX 14 12 0 0
BITMAP
1C1C
1010
0820
0820
0440
0880
0500
0500
0200
0400
4800
3000
ENDCHAR
STARTCHAR afii10024
ENCODING 246
SWIDTH 642 0
DWIDTH 12 0
BBX 14 12 0 0
BITMAP
19CC
1110
1110
0920
0540
0780
0A80
1240
2240
4440
4440
CE60
ENDCHAR
STARTCHAR afii10019
ENCODING 247
SWIDTH 642 0
DWIDTH 12 0
BBX 14 12 0 0
BITMAP
1FE0
0820
0810
0810
0820
1FC0
1020
1010
1010
2020
2040
FF80
ENDCHAR
STARTCHAR afii10046
ENCODING 248
SWIDTH 642 0
DWIDTH 12 0
BBX 13 12 1 0
BITMAP
1C00
1000
1000
1000
1000
3F80
2040
2020
2020
4040
4080
FF00
ENDCHAR
STARTCHAR afii10045
ENCODING 249
SWIDTH 642 0
DWIDTH 12 0
BBX 14 12 0 0
BITMAP
1C1C
1010
1010
1010
1010
3E20
2120
20A0
20A0
4140
4240
FCE0
ENDCHAR
STARTCHAR afii10025
ENCODING 250
SWIDTH 642 0
DWIDTH 12 0
BBX 12 12 1 0
BITMAP
1780
3880
2040
0040
0080
0F00
0080
0040
0040
8080
C100
BE00
ENDCHAR
STARTCHAR afii10042
ENCODING 251
SWIDTH 642 0
DWIDTH 12 0
BBX 14 12 0 0
BITMAP
1DDC
1110
1110
1110
1110
2220
2220
2220
2220
4440
4440
FFE0
ENDCHAR
STARTCHAR afii10047
ENCODING 252
SWIDTH 642 0
DWIDTH 12 0
BBX 13 12 1 0
BITMAP
07C0
3860
2020
0010
0010
1FE0
0020
0020
0040
8080
C180
3E00
ENDCHAR
STARTCHAR afii10043
ENCODING 253
SWIDTH 642 0
DWIDTH 12 0
BBX 14 14 0 -2
BITMAP
1DDC
0888
0888
1110
1110
1110
1110
2220
2220
2220
2220
FFE0
0020
0020
ENDCHAR
STARTCHAR afii10041
ENCODING 254
SWIDTH 642 0
DWIDTH 12 0
BBX 13 12 0 0
BITMAP
1E78
1020
1020
1020
1020
20C0
2140
1E40
0040
0080
0080
03C0
ENDCHAR
STARTCHAR afii10044
ENCODING 255
SWIDTH 642 0
DWIDTH 12 0
BBX 14 12 0 0
BITMAP
1F00
2400
2400
0400
0400
0FC0
0820
0810
0810
1020
1040
7F80
ENDCHAR
ENDFONT
