STARTFONT 2.1
COMMENT Copyright (C) 1990-1991 EWT Consulting
COMMENT Portions Copyright (C) 1994-1995 Cronyx Ltd.
COMMENT Changes Copyright (C) 1996-1997 by Andrey A. Chernov, Moscow, Russia.
COMMENT Modified by Serge Vakulenko, <vak@cronyx.ru>
COMMENT Changes 1999 by Serge Winitzki.
COMMENT This software may be used, modified, copied, distributed, and sold,
COMMENT in both source and binary form provided that the copyright
COMMENT and these terms are retained. Under no circumstances is the author
COMMENT responsible for the proper functioning of this software, nor does
COMMENT the author assume any responsibility for damages incurred with its use.
COMMENT $XFree86$
FONT -Cronyx-Helvetica-Bold-R-Normal--17-120-100-100-P-67-KOI8-R
SIZE 12 96 96
FONTBOUNDINGBOX 16 18 0 -4
STARTPROPERTIES 21
DEFAULT_CHAR 32
FONT_ASCENT 16
FONT_DESCENT 4
SPACING "P"
FONTNAME_REGISTRY ""
FOUNDRY "Cronyx"
FAMILY_NAME "Helvetica"
WEIGHT_NAME "Bold"
SLANT "R"
SETWIDTH_NAME "Normal"
ADD_STYLE_NAME ""
AVERAGE_WIDTH 67
CHARSET_REGISTRY "KOI8"
CHARSET_ENCODING "R"
PIXEL_SIZE 17
POINT_SIZE 120
RESOLUTION_X 100
RESOLUTION_Y 100
COPYRIGHT "Copyright (C) 1990, 1991 EWT Consulting, Portions Copyright (C) 1994 Cronyx Ltd., Portions Copyright (C) 1996-1997 by Andrey A. Chernov, Moscow, Russia."
_XMBDFED_INFO "Edited with xmbdfed 4.3."
_XFREE86_GLYPH_RANGES "32_126 149 154 156_158 163 179 191_255"
ENDPROPERTIES
CHARS 167
STARTCHAR space
ENCODING 32
SWIDTH 313 0
DWIDTH 5 0
BBX 0 0 0 0
BITMAP
ENDCHAR
STARTCHAR exclam
ENCODING 33
SWIDTH 417 0
DWIDTH 5 0
BBX 2 12 2 0
BITMAP
C0
C0
C0
C0
C0
C0
C0
C0
C0
00
00
C0
ENDCHAR
STARTCHAR quotedbl
ENCODING 34
SWIDTH 1750 0
DWIDTH 7 0
BBX 5 4 1 8
BITMAP
D8
D8
D8
D8
ENDCHAR
STARTCHAR numbersign
ENCODING 35
SWIDTH 833 0
DWIDTH 10 0
BBX 9 12 0 0
BITMAP
1B00
1B00
1B00
7F80
3600
3600
3600
3600
FF00
6C00
6C00
6C00
ENDCHAR
STARTCHAR dollar
ENCODING 36
SWIDTH 714 0
DWIDTH 10 0
BBX 8 14 1 -1
BITMAP
18
3C
7E
DB
D8
78
3C
1E
1B
1B
DB
7E
3C
18
ENDCHAR
STARTCHAR percent
ENCODING 37
SWIDTH 1250 0
DWIDTH 15 0
BBX 13 12 1 0
BITMAP
7818
CC30
CC60
CCC0
7980
0300
0600
0CF0
1998
3198
6198
C0F0
ENDCHAR
STARTCHAR ampersand
ENCODING 38
SWIDTH 1000 0
DWIDTH 12 0
BBX 11 12 1 0
BITMAP
3800
6C00
6C00
6C00
3800
3800
6C00
C6C0
C3C0
C180
63C0
3E60
ENDCHAR
STARTCHAR quotesingle
ENCODING 39
SWIDTH 1000 0
DWIDTH 4 0
BBX 2 4 1 8
BITMAP
C0
C0
C0
C0
ENDCHAR
STARTCHAR parenleft
ENCODING 40
SWIDTH 375 0
DWIDTH 6 0
BBX 4 16 1 -3
BITMAP
30
60
60
60
C0
C0
C0
C0
C0
C0
C0
C0
60
60
60
30
ENDCHAR
STARTCHAR parenright
ENCODING 41
SWIDTH 375 0
DWIDTH 6 0
BBX 4 16 1 -3
BITMAP
C0
60
60
60
30
30
30
30
30
30
30
30
60
60
60
C0
ENDCHAR
STARTCHAR asterisk
ENCODING 42
SWIDTH 1400 0
DWIDTH 7 0
BBX 6 5 1 8
BITMAP
30
FC
78
78
CC
ENDCHAR
STARTCHAR plus
ENCODING 43
SWIDTH 1429 0
DWIDTH 10 0
BBX 8 7 1 2
BITMAP
18
18
18
FF
18
18
18
ENDCHAR
STARTCHAR comma
ENCODING 44
SWIDTH 2500 0
DWIDTH 5 0
BBX 3 2 1 -1
BITMAP
60
C0
ENDCHAR
STARTCHAR hyphen
ENCODING 45
SWIDTH 6000 0
DWIDTH 6 0
BBX 6 1 0 5
BITMAP
FC
ENDCHAR
STARTCHAR period
ENCODING 46
SWIDTH 5000 0
DWIDTH 5 0
BBX 2 1 2 0
BITMAP
C0
ENDCHAR
STARTCHAR slash
ENCODING 47
SWIDTH 385 0
DWIDTH 5 0
BBX 5 13 0 -1
BITMAP
18
18
18
18
30
30
30
30
60
60
60
60
C0
ENDCHAR
STARTCHAR zero
ENCODING 48
SWIDTH 833 0
DWIDTH 10 0
BBX 8 12 1 0
BITMAP
3C
66
66
C3
C3
C3
C3
C3
C3
66
66
3C
ENDCHAR
STARTCHAR one
ENCODING 49
SWIDTH 833 0
DWIDTH 10 0
BBX 4 12 2 0
BITMAP
30
F0
30
30
30
30
30
30
30
30
30
30
ENDCHAR
STARTCHAR two
ENCODING 50
SWIDTH 833 0
DWIDTH 10 0
BBX 8 12 1 0
BITMAP
3C
66
C3
C3
03
06
0C
18
30
60
C0
FF
ENDCHAR
STARTCHAR three
ENCODING 51
SWIDTH 833 0
DWIDTH 10 0
BBX 8 12 1 0
BITMAP
3C
66
C3
C3
06
3C
06
03
C3
C3
66
3C
ENDCHAR
STARTCHAR four
ENCODING 52
SWIDTH 833 0
DWIDTH 10 0
BBX 8 12 1 0
BITMAP
06
0E
0E
1E
36
36
66
C6
FF
06
06
06
ENDCHAR
STARTCHAR five
ENCODING 53
SWIDTH 833 0
DWIDTH 10 0
BBX 8 12 1 0
BITMAP
FF
C0
C0
C0
FC
E6
C3
03
C3
C3
66
3C
ENDCHAR
STARTCHAR six
ENCODING 54
SWIDTH 833 0
DWIDTH 10 0
BBX 8 12 1 0
BITMAP
3C
66
C3
C0
FC
E6
C3
C3
C3
C3
66
3C
ENDCHAR
STARTCHAR seven
ENCODING 55
SWIDTH 833 0
DWIDTH 10 0
BBX 8 12 1 0
BITMAP
FF
03
03
06
06
0C
0C
0C
18
18
18
18
ENDCHAR
STARTCHAR eight
ENCODING 56
SWIDTH 833 0
DWIDTH 10 0
BBX 8 12 1 0
BITMAP
3C
66
C3
C3
66
3C
66
C3
C3
C3
66
3C
ENDCHAR
STARTCHAR nine
ENCODING 57
SWIDTH 833 0
DWIDTH 10 0
BBX 8 12 1 0
BITMAP
3C
66
C3
C3
C3
C3
67
3F
03
C3
66
3C
ENDCHAR
STARTCHAR colon
ENCODING 58
SWIDTH 556 0
DWIDTH 5 0
BBX 2 9 2 0
BITMAP
C0
00
00
00
00
00
00
00
C0
ENDCHAR
STARTCHAR semicolon
ENCODING 59
SWIDTH 500 0
DWIDTH 5 0
BBX 3 10 1 -1
BITMAP
60
00
00
00
00
00
00
00
60
C0
ENDCHAR
STARTCHAR less
ENCODING 60
SWIDTH 1429 0
DWIDTH 10 0
BBX 8 7 1 2
BITMAP
07
1C
70
C0
70
1C
07
ENDCHAR
STARTCHAR equal
ENCODING 61
SWIDTH 2500 0
DWIDTH 10 0
BBX 8 4 1 4
BITMAP
FF
00
00
FF
ENDCHAR
STARTCHAR greater
ENCODING 62
SWIDTH 1429 0
DWIDTH 10 0
BBX 8 7 1 2
BITMAP
E0
38
0E
03
0E
38
E0
ENDCHAR
STARTCHAR question
ENCODING 63
SWIDTH 833 0
DWIDTH 10 0
BBX 8 12 1 0
BITMAP
3C
66
C3
C3
03
06
0C
18
18
00
00
18
ENDCHAR
STARTCHAR at
ENCODING 64
SWIDTH 1417 0
DWIDTH 17 0
BBX 15 12 1 0
BITMAP
07F0
1C18
300C
63C6
6666
CC66
CC66
CCEC
C7F8
6000
3838
0FE0
ENDCHAR
STARTCHAR A
ENCODING 65
SWIDTH 1000 0
DWIDTH 12 0
BBX 12 12 0 0
BITMAP
0600
0600
0F00
0F00
1980
1980
30C0
30C0
7FE0
6060
C030
C030
ENDCHAR
STARTCHAR B
ENCODING 66
SWIDTH 1000 0
DWIDTH 12 0
BBX 9 12 2 0
BITMAP
FE00
C300
C180
C180
C300
FE00
C300
C180
C180
C180
C300
FE00
ENDCHAR
STARTCHAR C
ENCODING 67
SWIDTH 1000 0
DWIDTH 12 0
BBX 11 12 1 0
BITMAP
1F00
71C0
60C0
C060
C000
C000
C000
C000
C060
60C0
71C0
1F00
ENDCHAR
STARTCHAR D
ENCODING 68
SWIDTH 1083 0
DWIDTH 13 0
BBX 10 12 2 0
BITMAP
FE00
C380
C180
C0C0
C0C0
C0C0
C0C0
C0C0
C0C0
C180
C380
FE00
ENDCHAR
STARTCHAR E
ENCODING 69
SWIDTH 1000 0
DWIDTH 12 0
BBX 9 12 2 0
BITMAP
FF80
C000
C000
C000
C000
FF00
C000
C000
C000
C000
C000
FF80
ENDCHAR
STARTCHAR F
ENCODING 70
SWIDTH 917 0
DWIDTH 11 0
BBX 9 12 2 0
BITMAP
FF80
C000
C000
C000
C000
FF00
C000
C000
C000
C000
C000
C000
ENDCHAR
STARTCHAR G
ENCODING 71
SWIDTH 1167 0
DWIDTH 14 0
BBX 11 12 1 0
BITMAP
1F00
71C0
60C0
C060
C000
C000
C7E0
C060
C060
60E0
71E0
1F60
ENDCHAR
STARTCHAR H
ENCODING 72
SWIDTH 1083 0
DWIDTH 13 0
BBX 9 12 2 0
BITMAP
C180
C180
C180
C180
C180
FF80
C180
C180
C180
C180
C180
C180
ENDCHAR
STARTCHAR I
ENCODING 73
SWIDTH 500 0
DWIDTH 6 0
BBX 2 12 2 0
BITMAP
C0
C0
C0
C0
C0
C0
C0
C0
C0
C0
C0
C0
ENDCHAR
STARTCHAR J
ENCODING 74
SWIDTH 750 0
DWIDTH 9 0
BBX 7 12 0 0
BITMAP
06
06
06
06
06
06
06
06
C6
C6
C6
7C
ENDCHAR
STARTCHAR K
ENCODING 75
SWIDTH 917 0
DWIDTH 11 0
BBX 9 12 2 0
BITMAP
C300
C600
CC00
D800
F000
E000
F000
D800
CC00
C600
C300
C180
ENDCHAR
STARTCHAR L
ENCODING 76
SWIDTH 833 0
DWIDTH 10 0
BBX 8 12 2 0
BITMAP
C0
C0
C0
C0
C0
C0
C0
C0
C0
C0
C0
FF
ENDCHAR
STARTCHAR M
ENCODING 77
SWIDTH 1167 0
DWIDTH 14 0
BBX 10 12 2 0
BITMAP
C0C0
C0C0
E1C0
E1C0
F3C0
F3C0
DEC0
DEC0
CCC0
CCC0
C0C0
C0C0
ENDCHAR
STARTCHAR N
ENCODING 78
SWIDTH 1000 0
DWIDTH 12 0
BBX 8 12 2 0
BITMAP
C3
E3
E3
F3
F3
DB
DB
CF
CF
C7
C7
C3
ENDCHAR
STARTCHAR O
ENCODING 79
SWIDTH 1083 0
DWIDTH 13 0
BBX 11 12 1 0
BITMAP
1F00
71C0
60C0
C060
C060
C060
C060
C060
C060
60C0
71C0
1F00
ENDCHAR
STARTCHAR P
ENCODING 80
SWIDTH 917 0
DWIDTH 11 0
BBX 9 12 2 0
BITMAP
FE00
C300
C180
C180
C180
C300
FE00
C000
C000
C000
C000
C000
ENDCHAR
STARTCHAR Q
ENCODING 81
SWIDTH 1000 0
DWIDTH 13 0
BBX 11 13 1 -1
BITMAP
1F00
71C0
60C0
C060
C060
C060
C060
C060
C660
63C0
71C0
1FC0
0060
ENDCHAR
STARTCHAR R
ENCODING 82
SWIDTH 1083 0
DWIDTH 13 0
BBX 10 12 2 0
BITMAP
FE00
C300
C180
C180
C180
C300
FE00
C300
C180
C180
C180
C0C0
ENDCHAR
STARTCHAR S
ENCODING 83
SWIDTH 1000 0
DWIDTH 12 0
BBX 10 12 1 0
BITMAP
3F00
6180
C0C0
C000
6000
3F00
0180
00C0
00C0
C0C0
6180
3F00
ENDCHAR
STARTCHAR T
ENCODING 84
SWIDTH 833 0
DWIDTH 10 0
BBX 10 12 0 0
BITMAP
FFC0
0C00
0C00
0C00
0C00
0C00
0C00
0C00
0C00
0C00
0C00
0C00
ENDCHAR
STARTCHAR U
ENCODING 85
SWIDTH 1083 0
DWIDTH 13 0
BBX 9 12 2 0
BITMAP
C180
C180
C180
C180
C180
C180
C180
C180
C180
C180
6300
3E00
ENDCHAR
STARTCHAR V
ENCODING 86
SWIDTH 1000 0
DWIDTH 12 0
BBX 12 12 0 0
BITMAP
C030
C030
6060
6060
30C0
30C0
1980
1980
0F00
0F00
0600
0600
ENDCHAR
STARTCHAR W
ENCODING 87
SWIDTH 1333 0
DWIDTH 16 0
BBX 16 12 0 0
BITMAP
C003
C183
6186
6186
63C6
33CC
33CC
1E78
1E78
0C30
0C30
0C30
ENDCHAR
STARTCHAR X
ENCODING 88
SWIDTH 1000 0
DWIDTH 12 0
BBX 12 12 0 0
BITMAP
C030
6060
30C0
1980
0F00
0600
0600
0F00
1980
30C0
6060
C030
ENDCHAR
STARTCHAR Y
ENCODING 89
SWIDTH 1000 0
DWIDTH 12 0
BBX 12 12 0 0
BITMAP
C030
6060
30C0
1980
0F00
0600
0600
0600
0600
0600
0600
0600
ENDCHAR
STARTCHAR Z
ENCODING 90
SWIDTH 917 0
DWIDTH 11 0
BBX 11 12 0 0
BITMAP
7FE0
0060
00C0
0180
0300
0600
0C00
1800
3000
6000
C000
FFC0
ENDCHAR
STARTCHAR bracketleft
ENCODING 91
SWIDTH 333 0
DWIDTH 5 0
BBX 3 15 1 -3
BITMAP
E0
C0
C0
C0
C0
C0
C0
C0
C0
C0
C0
C0
C0
C0
E0
ENDCHAR
STARTCHAR backslash
ENCODING 92
SWIDTH 385 0
DWIDTH 5 0
BBX 5 13 0 -1
BITMAP
C0
C0
C0
C0
60
60
60
60
30
30
30
30
18
ENDCHAR
STARTCHAR bracketright
ENCODING 93
SWIDTH 333 0
DWIDTH 5 0
BBX 3 15 1 -3
BITMAP
E0
60
60
60
60
60
60
60
60
60
60
60
60
60
E0
ENDCHAR
STARTCHAR asciicircum
ENCODING 94
SWIDTH 2667 0
DWIDTH 8 0
BBX 6 3 1 10
BITMAP
30
78
CC
ENDCHAR
STARTCHAR underscore
ENCODING 95
SWIDTH 10000 0
DWIDTH 10 0
BBX 10 1 0 -2
BITMAP
FFC0
ENDCHAR
STARTCHAR grave
ENCODING 96
SWIDTH 2000 0
DWIDTH 6 0
BBX 4 3 1 10
BITMAP
C0
60
30
ENDCHAR
STARTCHAR a
ENCODING 97
SWIDTH 1111 0
DWIDTH 10 0
BBX 9 9 1 0
BITMAP
7E00
C300
0300
0300
7F00
C300
C300
C300
7F80
ENDCHAR
STARTCHAR b
ENCODING 98
SWIDTH 833 0
DWIDTH 10 0
BBX 8 12 1 0
BITMAP
C0
C0
C0
FC
E6
C3
C3
C3
C3
C3
E6
FC
ENDCHAR
STARTCHAR c
ENCODING 99
SWIDTH 1000 0
DWIDTH 9 0
BBX 8 9 1 0
BITMAP
3C
66
C3
C0
C0
C0
C3
66
3C
ENDCHAR
STARTCHAR d
ENCODING 100
SWIDTH 833 0
DWIDTH 10 0
BBX 8 12 1 0
BITMAP
03
03
03
3F
67
C3
C3
C3
C3
C3
67
3F
ENDCHAR
STARTCHAR e
ENCODING 101
SWIDTH 1111 0
DWIDTH 10 0
BBX 8 9 1 0
BITMAP
3C
66
C3
C3
FF
C0
C3
66
3C
ENDCHAR
STARTCHAR f
ENCODING 102
SWIDTH 500 0
DWIDTH 6 0
BBX 6 12 0 0
BITMAP
1C
30
30
FC
30
30
30
30
30
30
30
30
ENDCHAR
STARTCHAR g
ENCODING 103
SWIDTH 769 0
DWIDTH 10 0
BBX 8 13 1 -4
BITMAP
3F
67
C3
C3
C3
C3
C3
67
3F
03
03
06
7C
ENDCHAR
STARTCHAR h
ENCODING 104
SWIDTH 833 0
DWIDTH 10 0
BBX 8 12 1 0
BITMAP
C0
C0
C0
FC
E6
C3
C3
C3
C3
C3
C3
C3
ENDCHAR
STARTCHAR i
ENCODING 105
SWIDTH 333 0
DWIDTH 4 0
BBX 2 12 1 0
BITMAP
C0
00
00
C0
C0
C0
C0
C0
C0
C0
C0
C0
ENDCHAR
STARTCHAR j
ENCODING 106
SWIDTH 250 0
DWIDTH 4 0
BBX 3 16 0 -4
BITMAP
60
00
00
60
60
60
60
60
60
60
60
60
60
60
60
C0
ENDCHAR
STARTCHAR k
ENCODING 107
SWIDTH 750 0
DWIDTH 9 0
BBX 8 12 1 0
BITMAP
C0
C0
C0
C6
CC
D8
F0
F0
D8
CC
C6
C3
ENDCHAR
STARTCHAR l
ENCODING 108
SWIDTH 333 0
DWIDTH 4 0
BBX 2 12 1 0
BITMAP
C0
C0
C0
C0
C0
C0
C0
C0
C0
C0
C0
C0
ENDCHAR
STARTCHAR m
ENCODING 109
SWIDTH 1556 0
DWIDTH 14 0
BBX 12 9 1 0
BITMAP
F9C0
EF60
C630
C630
C630
C630
C630
C630
C630
ENDCHAR
STARTCHAR n
ENCODING 110
SWIDTH 1111 0
DWIDTH 10 0
BBX 8 9 1 0
BITMAP
FC
E6
C3
C3
C3
C3
C3
C3
C3
ENDCHAR
STARTCHAR o
ENCODING 111
SWIDTH 1111 0
DWIDTH 10 0
BBX 8 9 1 0
BITMAP
3C
66
C3
C3
C3
C3
C3
66
3C
ENDCHAR
STARTCHAR p
ENCODING 112
SWIDTH 769 0
DWIDTH 10 0
BBX 8 13 1 -4
BITMAP
FC
E6
C3
C3
C3
C3
C3
E6
FC
C0
C0
C0
C0
ENDCHAR
STARTCHAR q
ENCODING 113
SWIDTH 769 0
DWIDTH 10 0
BBX 8 13 1 -4
BITMAP
3F
67
C3
C3
C3
C3
C3
67
3F
03
03
03
03
ENDCHAR
STARTCHAR r
ENCODING 114
SWIDTH 667 0
DWIDTH 6 0
BBX 5 9 1 0
BITMAP
F8
E0
C0
C0
C0
C0
C0
C0
C0
ENDCHAR
STARTCHAR s
ENCODING 115
SWIDTH 1000 0
DWIDTH 9 0
BBX 7 9 1 0
BITMAP
7C
C6
C0
C0
7C
06
06
C6
7C
ENDCHAR
STARTCHAR t
ENCODING 116
SWIDTH 500 0
DWIDTH 6 0
BBX 6 12 0 0
BITMAP
30
30
30
FC
30
30
30
30
30
30
30
18
ENDCHAR
STARTCHAR u
ENCODING 117
SWIDTH 1111 0
DWIDTH 10 0
BBX 8 9 1 0
BITMAP
C3
C3
C3
C3
C3
C3
C3
67
3F
ENDCHAR
STARTCHAR v
ENCODING 118
SWIDTH 889 0
DWIDTH 8 0
BBX 8 9 0 0
BITMAP
C3
C3
66
66
3C
3C
18
18
18
ENDCHAR
STARTCHAR w
ENCODING 119
SWIDTH 1333 0
DWIDTH 12 0
BBX 12 9 0 0
BITMAP
C030
C630
6660
6660
3FC0
3FC0
1980
1980
1980
ENDCHAR
STARTCHAR x
ENCODING 120
SWIDTH 889 0
DWIDTH 8 0
BBX 8 9 0 0
BITMAP
C3
66
66
3C
18
3C
66
66
C3
ENDCHAR
STARTCHAR y
ENCODING 121
SWIDTH 615 0
DWIDTH 8 0
BBX 8 13 0 -4
BITMAP
C3
C3
66
66
3C
3C
18
18
30
30
60
60
C0
ENDCHAR
STARTCHAR z
ENCODING 122
SWIDTH 1000 0
DWIDTH 9 0
BBX 7 9 1 0
BITMAP
FE
06
0C
18
30
30
60
C0
FE
ENDCHAR
STARTCHAR braceleft
ENCODING 123
SWIDTH 400 0
DWIDTH 6 0
BBX 4 15 1 -3
BITMAP
30
60
60
60
60
60
60
C0
60
60
60
60
60
60
30
ENDCHAR
STARTCHAR bar
ENCODING 124
SWIDTH 462 0
DWIDTH 6 0
BBX 2 13 2 -1
BITMAP
C0
C0
C0
C0
C0
C0
C0
C0
C0
C0
C0
C0
C0
ENDCHAR
STARTCHAR braceright
ENCODING 125
SWIDTH 400 0
DWIDTH 6 0
BBX 4 15 1 -3
BITMAP
C0
60
60
60
60
60
60
30
60
60
60
60
60
60
C0
ENDCHAR
STARTCHAR asciitilde
ENCODING 126
SWIDTH 3333 0
DWIDTH 10 0
BBX 8 3 1 10
BITMAP
73
DB
CE
ENDCHAR
STARTCHAR bullet
ENCODING 149
SWIDTH 1400 0
DWIDTH 7 0
BBX 6 5 1 2
BITMAP
78
FC
FC
FC
78
ENDCHAR
STARTCHAR space
ENCODING 154
SWIDTH 313 0
DWIDTH 5 0
BBX 0 0 0 0
BITMAP
ENDCHAR
STARTCHAR degree
ENCODING 156
SWIDTH 1500 0
DWIDTH 6 0
BBX 5 4 1 8
BITMAP
70
D8
D8
70
ENDCHAR
STARTCHAR twosuperior
ENCODING 157
SWIDTH 1000 0
DWIDTH 6 0
BBX 5 6 1 6
BITMAP
70
D8
18
30
60
F8
ENDCHAR
STARTCHAR periodcentered
ENCODING 158
SWIDTH 3000 0
DWIDTH 6 0
BBX 3 2 2 4
BITMAP
E0
E0
ENDCHAR
STARTCHAR afii10071
ENCODING 163
SWIDTH 909 0
DWIDTH 10 0
BBX 8 11 1 0
BITMAP
66
00
3C
66
C3
C3
FF
C0
C3
66
3C
ENDCHAR
STARTCHAR afii10023
ENCODING 179
SWIDTH 857 0
DWIDTH 12 0
BBX 9 14 2 0
BITMAP
6300
0000
FF80
C000
C000
C000
C000
FF00
C000
C000
C000
C000
C000
FF80
ENDCHAR
STARTCHAR copyright
ENCODING 191
SWIDTH 1000 0
DWIDTH 12 0
BBX 12 12 0 0
BITMAP
1F80
70E0
6060
CF30
D9B0
D830
D830
D9B0
CF30
6070
70E0
1F80
ENDCHAR
STARTCHAR afii10096
ENCODING 192
SWIDTH 1333 0
DWIDTH 12 0
BBX 10 9 1 0
BITMAP
CF00
D980
F0C0
F0C0
F0C0
F0C0
F0C0
D980
CF00
ENDCHAR
STARTCHAR afii10065
ENCODING 193
SWIDTH 1111 0
DWIDTH 10 0
BBX 9 9 1 0
BITMAP
7E00
C300
0300
0300
7F00
C300
C300
C300
7F80
ENDCHAR
STARTCHAR afii10066
ENCODING 194
SWIDTH 833 0
DWIDTH 10 0
BBX 8 12 1 0
BITMAP
03
3E
60
FC
E6
C3
C3
C3
C3
C3
66
3C
ENDCHAR
STARTCHAR afii10088
ENCODING 195
SWIDTH 818 0
DWIDTH 9 0
BBX 8 11 1 -2
BITMAP
C6
C6
C6
C6
C6
C6
C6
C6
FF
03
03
ENDCHAR
STARTCHAR afii10069
ENCODING 196
SWIDTH 1000 0
DWIDTH 11 0
BBX 9 11 1 -2
BITMAP
3F00
3300
3300
3300
3300
3300
3300
6300
FF80
C180
C180
ENDCHAR
STARTCHAR afii10070
ENCODING 197
SWIDTH 1111 0
DWIDTH 10 0
BBX 8 9 1 0
BITMAP
3C
66
C3
C3
FF
C0
C3
66
3C
ENDCHAR
STARTCHAR afii10086
ENCODING 198
SWIDTH 563 0
DWIDTH 9 0
BBX 8 16 1 -4
BITMAP
18
18
18
7E
DB
DB
DB
DB
DB
DB
DB
7E
18
18
18
18
ENDCHAR
STARTCHAR afii10068
ENCODING 199
SWIDTH 889 0
DWIDTH 8 0
BBX 7 9 1 0
BITMAP
FE
C0
C0
C0
C0
C0
C0
C0
C0
ENDCHAR
STARTCHAR afii10087
ENCODING 200
SWIDTH 889 0
DWIDTH 8 0
BBX 8 9 0 0
BITMAP
C3
66
66
3C
18
3C
66
66
C3
ENDCHAR
STARTCHAR afii10074
ENCODING 201
SWIDTH 1111 0
DWIDTH 10 0
BBX 8 9 1 0
BITMAP
C3
C3
C7
CF
DB
F3
E3
C3
C3
ENDCHAR
STARTCHAR afii10075
ENCODING 202
SWIDTH 909 0
DWIDTH 10 0
BBX 8 11 1 0
BITMAP
66
3C
C3
C3
C7
CF
DB
F3
E3
C3
C3
ENDCHAR
STARTCHAR afii10076
ENCODING 203
SWIDTH 1000 0
DWIDTH 9 0
BBX 8 9 1 0
BITMAP
C6
CC
D8
F0
F0
D8
CC
C6
C3
ENDCHAR
STARTCHAR afii10077
ENCODING 204
SWIDTH 1111 0
DWIDTH 10 0
BBX 8 9 1 0
BITMAP
3F
33
33
33
33
33
33
33
E3
ENDCHAR
STARTCHAR afii10078
ENCODING 205
SWIDTH 1333 0
DWIDTH 12 0
BBX 10 9 1 0
BITMAP
C0C0
E1C0
F3C0
DEC0
CCC0
C0C0
C0C0
C0C0
C0C0
ENDCHAR
STARTCHAR afii10079
ENCODING 206
SWIDTH 1111 0
DWIDTH 10 0
BBX 8 9 1 0
BITMAP
C3
C3
C3
C3
FF
C3
C3
C3
C3
ENDCHAR
STARTCHAR afii10080
ENCODING 207
SWIDTH 1111 0
DWIDTH 10 0
BBX 8 9 1 0
BITMAP
3C
66
C3
C3
C3
C3
C3
66
3C
ENDCHAR
STARTCHAR afii10081
ENCODING 208
SWIDTH 1111 0
DWIDTH 10 0
BBX 8 9 1 0
BITMAP
FF
C3
C3
C3
C3
C3
C3
C3
C3
ENDCHAR
STARTCHAR afii10097
ENCODING 209
SWIDTH 1111 0
DWIDTH 10 0
BBX 8 9 1 0
BITMAP
7F
C3
C3
C3
7F
1B
33
63
C3
ENDCHAR
STARTCHAR afii10082
ENCODING 210
SWIDTH 769 0
DWIDTH 10 0
BBX 8 13 1 -4
BITMAP
FC
E6
C3
C3
C3
C3
C3
E6
FC
C0
C0
C0
C0
ENDCHAR
STARTCHAR afii10083
ENCODING 211
SWIDTH 1000 0
DWIDTH 9 0
BBX 8 9 1 0
BITMAP
3C
66
C3
C0
C0
C0
C3
66
3C
ENDCHAR
STARTCHAR afii10084
ENCODING 212
SWIDTH 1111 0
DWIDTH 10 0
BBX 8 9 1 0
BITMAP
FF
18
18
18
18
18
18
18
18
ENDCHAR
STARTCHAR afii10085
ENCODING 213
SWIDTH 692 0
DWIDTH 9 0
BBX 8 13 1 -4
BITMAP
C3
C3
66
66
3C
3C
18
18
30
30
60
60
C0
ENDCHAR
STARTCHAR afii10072
ENCODING 214
SWIDTH 1556 0
DWIDTH 14 0
BBX 14 9 0 0
BITMAP
6318
3330
1B60
0FC0
0FC0
1B60
3330
6318
C30C
ENDCHAR
STARTCHAR afii10067
ENCODING 215
SWIDTH 1111 0
DWIDTH 10 0
BBX 8 9 1 0
BITMAP
FE
C3
C3
C3
FE
C3
C3
C3
FE
ENDCHAR
STARTCHAR afii10094
ENCODING 216
SWIDTH 1111 0
DWIDTH 10 0
BBX 8 9 1 0
BITMAP
C0
C0
C0
FE
C3
C3
C3
C3
FE
ENDCHAR
STARTCHAR afii10093
ENCODING 217
SWIDTH 1333 0
DWIDTH 12 0
BBX 10 9 1 0
BITMAP
C0C0
C0C0
C0C0
FEC0
C3C0
C3C0
C3C0
C3C0
FEC0
ENDCHAR
STARTCHAR afii10073
ENCODING 218
SWIDTH 1111 0
DWIDTH 10 0
BBX 8 9 1 0
BITMAP
7E
C3
03
03
3E
03
C3
C3
7E
ENDCHAR
STARTCHAR afii10090
ENCODING 219
SWIDTH 1333 0
DWIDTH 12 0
BBX 10 9 1 0
BITMAP
CCC0
CCC0
CCC0
CCC0
CCC0
CCC0
CCC0
CCC0
FFC0
ENDCHAR
STARTCHAR afii10095
ENCODING 220
SWIDTH 1111 0
DWIDTH 10 0
BBX 8 9 1 0
BITMAP
7C
C6
03
03
3F
03
03
C6
7C
ENDCHAR
STARTCHAR afii10091
ENCODING 221
SWIDTH 1091 0
DWIDTH 12 0
BBX 11 11 1 -2
BITMAP
CCC0
CCC0
CCC0
CCC0
CCC0
CCC0
CCC0
CCC0
FFE0
0060
0060
ENDCHAR
STARTCHAR afii10089
ENCODING 222
SWIDTH 1111 0
DWIDTH 10 0
BBX 8 9 1 0
BITMAP
C3
C3
C3
C3
7F
03
03
03
03
ENDCHAR
STARTCHAR afii10092
ENCODING 223
SWIDTH 1222 0
DWIDTH 11 0
BBX 10 9 1 0
BITMAP
F000
3000
3000
3F80
30C0
30C0
30C0
30C0
3F80
ENDCHAR
STARTCHAR afii10048
ENCODING 224
SWIDTH 1167 0
DWIDTH 14 0
BBX 12 12 1 0
BITMAP
C780
DCE0
D860
F030
F030
F030
F030
F030
F030
D860
DCE0
C780
ENDCHAR
STARTCHAR afii10017
ENCODING 225
SWIDTH 1000 0
DWIDTH 12 0
BBX 12 12 0 0
BITMAP
0600
0600
0F00
0F00
1980
1980
30C0
30C0
7FE0
6060
C030
C030
ENDCHAR
STARTCHAR afii10018
ENCODING 226
SWIDTH 1000 0
DWIDTH 12 0
BBX 9 12 2 0
BITMAP
FF00
C000
C000
C000
C000
FE00
C300
C180
C180
C180
C300
FE00
ENDCHAR
STARTCHAR afii10040
ENCODING 227
SWIDTH 929 0
DWIDTH 13 0
BBX 10 14 2 -2
BITMAP
C180
C180
C180
C180
C180
C180
C180
C180
C180
C180
C180
FFC0
00C0
00C0
ENDCHAR
STARTCHAR afii10021
ENCODING 228
SWIDTH 929 0
DWIDTH 13 0
BBX 11 14 1 -2
BITMAP
1FC0
18C0
18C0
18C0
18C0
18C0
18C0
18C0
18C0
18C0
30C0
FFE0
C060
C060
ENDCHAR
STARTCHAR afii10022
ENCODING 229
SWIDTH 1000 0
DWIDTH 12 0
BBX 9 12 2 0
BITMAP
FF80
C000
C000
C000
C000
FF00
C000
C000
C000
C000
C000
FF80
ENDCHAR
STARTCHAR afii10038
ENCODING 230
SWIDTH 1000 0
DWIDTH 13 0
BBX 12 13 1 0
BITMAP
0600
1F80
76E0
6660
C630
C630
C630
C630
C630
6660
76E0
1F80
0600
ENDCHAR
STARTCHAR afii10020
ENCODING 231
SWIDTH 917 0
DWIDTH 11 0
BBX 9 12 2 0
BITMAP
FF80
C000
C000
C000
C000
C000
C000
C000
C000
C000
C000
C000
ENDCHAR
STARTCHAR afii10039
ENCODING 232
SWIDTH 1000 0
DWIDTH 12 0
BBX 12 12 0 0
BITMAP
C030
6060
30C0
1980
0F00
0600
0600
0F00
1980
30C0
6060
C030
ENDCHAR
STARTCHAR afii10026
ENCODING 233
SWIDTH 1000 0
DWIDTH 12 0
BBX 8 12 2 0
BITMAP
C3
C7
C7
CF
CF
DB
DB
F3
F3
E3
E3
C3
ENDCHAR
STARTCHAR afii10027
ENCODING 234
SWIDTH 857 0
DWIDTH 12 0
BBX 8 14 2 0
BITMAP
66
3C
C3
C7
C7
CF
CF
DB
DB
F3
F3
E3
E3
C3
ENDCHAR
STARTCHAR afii10028
ENCODING 235
SWIDTH 917 0
DWIDTH 11 0
BBX 9 12 2 0
BITMAP
C300
C600
CC00
D800
F000
E000
F000
D800
CC00
C600
C300
C180
ENDCHAR
STARTCHAR afii10029
ENCODING 236
SWIDTH 917 0
DWIDTH 11 0
BBX 9 12 1 0
BITMAP
3F80
3180
3180
3180
3180
3180
3180
3180
3180
3180
3180
E180
ENDCHAR
STARTCHAR afii10030
ENCODING 237
SWIDTH 1167 0
DWIDTH 14 0
BBX 10 12 2 0
BITMAP
C0C0
C0C0
E1C0
E1C0
F3C0
F3C0
DEC0
DEC0
CCC0
CCC0
C0C0
C0C0
ENDCHAR
STARTCHAR afii10031
ENCODING 238
SWIDTH 1083 0
DWIDTH 13 0
BBX 9 12 2 0
BITMAP
C180
C180
C180
C180
C180
FF80
C180
C180
C180
C180
C180
C180
ENDCHAR
STARTCHAR afii10032
ENCODING 239
SWIDTH 1083 0
DWIDTH 13 0
BBX 11 12 1 0
BITMAP
1F00
71C0
60C0
C060
C060
C060
C060
C060
C060
60C0
71C0
1F00
ENDCHAR
STARTCHAR afii10033
ENCODING 240
SWIDTH 1083 0
DWIDTH 13 0
BBX 9 12 2 0
BITMAP
FF80
C180
C180
C180
C180
C180
C180
C180
C180
C180
C180
C180
ENDCHAR
STARTCHAR afii10049
ENCODING 241
SWIDTH 1000 0
DWIDTH 12 0
BBX 9 12 1 0
BITMAP
3F80
6180
C180
C180
C180
6180
3F80
0D80
1980
3180
6180
C180
ENDCHAR
STARTCHAR afii10034
ENCODING 242
SWIDTH 917 0
DWIDTH 11 0
BBX 9 12 2 0
BITMAP
FE00
C300
C180
C180
C180
C300
FE00
C000
C000
C000
C000
C000
ENDCHAR
STARTCHAR afii10035
ENCODING 243
SWIDTH 1000 0
DWIDTH 12 0
BBX 11 12 1 0
BITMAP
1F00
71C0
60C0
C060
C000
C000
C000
C000
C060
60C0
71C0
1F00
ENDCHAR
STARTCHAR afii10036
ENCODING 244
SWIDTH 833 0
DWIDTH 10 0
BBX 10 12 0 0
BITMAP
FFC0
0C00
0C00
0C00
0C00
0C00
0C00
0C00
0C00
0C00
0C00
0C00
ENDCHAR
STARTCHAR afii10037
ENCODING 245
SWIDTH 1000 0
DWIDTH 12 0
BBX 10 12 1 0
BITMAP
C0C0
C0C0
6180
6180
3300
3300
1E00
1E00
0C00
0C00
0C00
7800
ENDCHAR
STARTCHAR afii10024
ENCODING 246
SWIDTH 1333 0
DWIDTH 16 0
BBX 16 12 0 0
BITMAP
C183
6186
318C
1998
0DB0
07E0
07E0
0DB0
1998
318C
6186
C183
ENDCHAR
STARTCHAR afii10019
ENCODING 247
SWIDTH 1000 0
DWIDTH 12 0
BBX 9 12 2 0
BITMAP
FE00
C300
C180
C180
C300
FE00
C300
C180
C180
C180
C300
FE00
ENDCHAR
STARTCHAR afii10046
ENCODING 248
SWIDTH 1000 0
DWIDTH 12 0
BBX 10 12 2 0
BITMAP
C000
C000
C000
C000
C000
FF00
C180
C0C0
C0C0
C0C0
C180
FF00
ENDCHAR
STARTCHAR afii10045
ENCODING 249
SWIDTH 1250 0
DWIDTH 15 0
BBX 12 12 2 0
BITMAP
C030
C030
C030
C030
C030
FF30
C1B0
C0F0
C0F0
C0F0
C1B0
FF30
ENDCHAR
STARTCHAR afii10025
ENCODING 250
SWIDTH 1000 0
DWIDTH 12 0
BBX 9 12 2 0
BITMAP
7F00
C180
0180
0180
0180
3F00
0180
0180
0180
0180
C180
7F00
ENDCHAR
STARTCHAR afii10042
ENCODING 251
SWIDTH 1333 0
DWIDTH 16 0
BBX 14 12 1 0
BITMAP
C30C
C30C
C30C
C30C
C30C
C30C
C30C
C30C
C30C
C30C
C30C
FFFC
ENDCHAR
STARTCHAR afii10047
ENCODING 252
SWIDTH 1083 0
DWIDTH 13 0
BBX 11 12 1 0
BITMAP
3F80
60C0
C060
0060
0060
1FE0
0060
0060
0060
C060
60C0
3F80
ENDCHAR
STARTCHAR afii10043
ENCODING 253
SWIDTH 1214 0
DWIDTH 17 0
BBX 15 14 1 -2
BITMAP
C30C
C30C
C30C
C30C
C30C
C30C
C30C
C30C
C30C
C30C
C30C
FFFE
0006
0006
ENDCHAR
STARTCHAR afii10041
ENCODING 254
SWIDTH 1083 0
DWIDTH 13 0
BBX 9 12 2 0
BITMAP
C180
C180
C180
C180
C180
7F80
0180
0180
0180
0180
0180
0180
ENDCHAR
STARTCHAR afii10044
ENCODING 255
SWIDTH 1083 0
DWIDTH 13 0
BBX 12 12 1 0
BITMAP
F000
3000
3000
3000
3000
3FC0
3060
3030
3030
3030
3060
3FC0
ENDCHAR
ENDFONT
