STARTFONT 2.1
COMMENT Copyright (C) 1990-1991 EWT Consulting
COMMENT Portions Copyright (C) 1994-1995 Cronyx Ltd.
COMMENT Changes Copyright (C) 1996-1997 by Andrey A. Chernov, Moscow, Russia.
COMMENT Modified by Serge Vakulenko, <vak@cronyx.ru>
COMMENT Changes 1999 by Serge Winitzki.
COMMENT This software may be used, modified, copied, distributed, and sold,
COMMENT in both source and binary form provided that the copyright
COMMENT and these terms are retained. Under no circumstances is the author
COMMENT responsible for the proper functioning of this software, nor does
COMMENT the author assume any responsibility for damages incurred with its use.
COMMENT $XFree86$
FONT -Cronyx-Helvetica-Bold-R-Normal--20-140-100-100-P-77-KOI8-R
SIZE 14 96 96
FONTBOUNDINGBOX 19 22 0 -5
STARTPROPERTIES 21
DEFAULT_CHAR 32
FONT_ASCENT 19
FONT_DESCENT 5
SPACING "P"
FONTNAME_REGISTRY ""
FOUNDRY "Cronyx"
FAMILY_NAME "Helvetica"
WEIGHT_NAME "Bold"
SLANT "R"
SETWIDTH_NAME "Normal"
ADD_STYLE_NAME ""
AVERAGE_WIDTH 77
CHARSET_REGISTRY "KOI8"
CHARSET_ENCODING "R"
PIXEL_SIZE 20
POINT_SIZE 140
RESOLUTION_X 100
RESOLUTION_Y 100
COPYRIGHT "Copyright (C) 1990, 1991 EWT Consulting, Portions Copyright (C) 1994 Cronyx Ltd., Portions Copyright (C) 1996-1997 by Andrey A. Chernov, Moscow, Russia."
_XMBDFED_INFO "Edited with xmbdfed 3.8."
_XFREE86_GLYPH_RANGES "32_126 149 154 156_158 163 179 191_255"
ENDPROPERTIES
CHARS 167
STARTCHAR space
ENCODING 32
SWIDTH 316 0
DWIDTH 6 0
BBX 0 0 0 0
BITMAP
ENDCHAR
STARTCHAR exclam
ENCODING 33
SWIDTH 429 0
DWIDTH 6 0
BBX 3 14 2 0
BITMAP
E0
E0
E0
E0
E0
E0
E0
E0
E0
E0
00
00
E0
E0
ENDCHAR
STARTCHAR quotedbl
ENCODING 34
SWIDTH 2000 0
DWIDTH 8 0
BBX 6 4 1 10
BITMAP
FC
FC
FC
FC
ENDCHAR
STARTCHAR numbersign
ENCODING 35
SWIDTH 786 0
DWIDTH 11 0
BBX 9 14 1 0
BITMAP
1B00
1B00
1B00
1B00
7F80
3600
3600
3600
3600
FF00
6C00
6C00
6C00
6C00
ENDCHAR
STARTCHAR dollar
ENCODING 36
SWIDTH 611 0
DWIDTH 11 0
BBX 10 18 0 -2
BITMAP
0C00
0C00
1E00
7F80
7F80
EC00
FC00
7C00
3F00
0F80
0FC0
0DC0
EDC0
7F80
7F80
1E00
0C00
0C00
ENDCHAR
STARTCHAR percent
ENCODING 37
SWIDTH 1143 0
DWIDTH 16 0
BBX 14 14 1 0
BITMAP
7C38
EE70
C670
C6E0
EFC0
7DC0
0380
0700
0EF8
0FDC
1D8C
398C
39DC
70F8
ENDCHAR
STARTCHAR ampersand
ENCODING 38
SWIDTH 1000 0
DWIDTH 14 0
BBX 13 14 1 0
BITMAP
1C00
3E00
7700
7700
7700
3E00
3C70
7E70
FFE0
E7E0
E3C0
F3E0
7FF0
3E78
ENDCHAR
STARTCHAR quotesingle
ENCODING 39
SWIDTH 1250 0
DWIDTH 5 0
BBX 3 4 1 10
BITMAP
E0
E0
E0
E0
ENDCHAR
STARTCHAR parenleft
ENCODING 40
SWIDTH 389 0
DWIDTH 7 0
BBX 5 18 1 -4
BITMAP
18
38
70
70
E0
E0
E0
E0
E0
E0
E0
E0
E0
E0
70
70
38
18
ENDCHAR
STARTCHAR parenright
ENCODING 41
SWIDTH 389 0
DWIDTH 7 0
BBX 5 18 1 -4
BITMAP
C0
E0
70
70
38
38
38
38
38
38
38
38
38
38
70
70
E0
C0
ENDCHAR
STARTCHAR asterisk
ENCODING 42
SWIDTH 1143 0
DWIDTH 8 0
BBX 6 7 1 7
BITMAP
30
FC
FC
78
FC
FC
30
ENDCHAR
STARTCHAR plus
ENCODING 43
SWIDTH 1200 0
DWIDTH 12 0
BBX 11 10 1 2
BITMAP
0E00
0E00
0E00
0E00
FFE0
FFE0
0E00
0E00
0E00
0E00
ENDCHAR
STARTCHAR comma
ENCODING 44
SWIDTH 1500 0
DWIDTH 6 0
BBX 3 4 2 -2
BITMAP
E0
E0
60
C0
ENDCHAR
STARTCHAR hyphen
ENCODING 45
SWIDTH 4500 0
DWIDTH 9 0
BBX 9 2 0 4
BITMAP
FF80
FF80
ENDCHAR
STARTCHAR period
ENCODING 46
SWIDTH 3000 0
DWIDTH 6 0
BBX 3 2 2 0
BITMAP
E0
E0
ENDCHAR
STARTCHAR slash
ENCODING 47
SWIDTH 375 0
DWIDTH 6 0
BBX 6 16 0 -2
BITMAP
1C
1C
1C
1C
38
38
38
38
70
70
70
70
E0
E0
E0
E0
ENDCHAR
STARTCHAR zero
ENCODING 48
SWIDTH 786 0
DWIDTH 11 0
BBX 10 14 1 0
BITMAP
1E00
7F80
7380
E1C0
E1C0
E1C0
E1C0
E1C0
E1C0
E1C0
E1C0
7380
7F80
1E00
ENDCHAR
STARTCHAR one
ENCODING 49
SWIDTH 786 0
DWIDTH 11 0
BBX 6 14 2 0
BITMAP
1C
3C
FC
FC
1C
1C
1C
1C
1C
1C
1C
1C
1C
1C
ENDCHAR
STARTCHAR two
ENCODING 50
SWIDTH 786 0
DWIDTH 11 0
BBX 10 14 1 0
BITMAP
3F00
7F80
F3C0
E1C0
01C0
03C0
0780
1F00
3C00
7800
7000
E000
FFC0
FFC0
ENDCHAR
STARTCHAR three
ENCODING 51
SWIDTH 786 0
DWIDTH 11 0
BBX 10 14 1 0
BITMAP
1E00
7F80
7380
E1C0
E1C0
0380
1F00
1F80
0380
E1C0
E1C0
7380
7F80
1E00
ENDCHAR
STARTCHAR four
ENCODING 52
SWIDTH 786 0
DWIDTH 11 0
BBX 10 14 1 0
BITMAP
0F00
0F00
1F00
1F00
3F00
3F00
7700
7700
E700
FFC0
FFC0
0700
0700
0700
ENDCHAR
STARTCHAR five
ENCODING 53
SWIDTH 786 0
DWIDTH 11 0
BBX 10 14 1 0
BITMAP
7F80
7F80
7000
7000
E000
FE00
FF80
E380
01C0
01C0
E1C0
F380
7F80
3E00
ENDCHAR
STARTCHAR six
ENCODING 54
SWIDTH 786 0
DWIDTH 11 0
BBX 10 14 1 0
BITMAP
1E00
7F80
7380
E1C0
E000
FE00
FF80
F380
E1C0
E1C0
E1C0
7380
7F80
1E00
ENDCHAR
STARTCHAR seven
ENCODING 55
SWIDTH 786 0
DWIDTH 11 0
BBX 10 14 1 0
BITMAP
FFC0
FFC0
01C0
01C0
0380
0380
0700
0700
0E00
0E00
0E00
1C00
1C00
1C00
ENDCHAR
STARTCHAR eight
ENCODING 56
SWIDTH 786 0
DWIDTH 11 0
BBX 10 14 1 0
BITMAP
1E00
7F80
7380
E1C0
E1C0
7380
3F00
7F80
7380
E1C0
E1C0
7380
7F80
1E00
ENDCHAR
STARTCHAR nine
ENCODING 57
SWIDTH 786 0
DWIDTH 11 0
BBX 10 14 1 0
BITMAP
1E00
7F80
7380
E1C0
E1C0
E1C0
73C0
7FC0
1FC0
01C0
E1C0
7380
7F80
1E00
ENDCHAR
STARTCHAR colon
ENCODING 58
SWIDTH 600 0
DWIDTH 6 0
BBX 3 10 2 0
BITMAP
E0
E0
00
00
00
00
00
00
E0
E0
ENDCHAR
STARTCHAR semicolon
ENCODING 59
SWIDTH 500 0
DWIDTH 6 0
BBX 3 12 2 -2
BITMAP
E0
E0
00
00
00
00
00
00
E0
E0
60
C0
ENDCHAR
STARTCHAR less
ENCODING 60
SWIDTH 1333 0
DWIDTH 12 0
BBX 11 9 1 2
BITMAP
00E0
03E0
0F80
3E00
F800
3E00
0F80
03E0
00E0
ENDCHAR
STARTCHAR equal
ENCODING 61
SWIDTH 2000 0
DWIDTH 12 0
BBX 11 6 1 4
BITMAP
FFE0
FFE0
0000
0000
FFE0
FFE0
ENDCHAR
STARTCHAR greater
ENCODING 62
SWIDTH 1333 0
DWIDTH 12 0
BBX 11 9 1 2
BITMAP
E000
F800
3E00
0F80
07E0
0F80
3E00
F800
E000
ENDCHAR
STARTCHAR question
ENCODING 63
SWIDTH 786 0
DWIDTH 11 0
BBX 10 14 1 0
BITMAP
1E00
7F80
7380
E1C0
E1C0
0380
0780
0F00
0E00
1C00
1C00
0000
1C00
1C00
ENDCHAR
STARTCHAR at
ENCODING 64
SWIDTH 1176 0
DWIDTH 20 0
BBX 18 17 1 -3
BITMAP
07F800
1E1E00
380700
700380
600180
E1FDC0
C3B8C0
C738C0
C738C0
CE71C0
CE7380
E7FF00
600000
700000
380600
1E1E00
07F800
ENDCHAR
STARTCHAR A
ENCODING 65
SWIDTH 1000 0
DWIDTH 14 0
BBX 14 14 0 0
BITMAP
0780
0780
0FC0
0FC0
1CE0
1CE0
1CE0
3870
3FF0
7FF8
7038
7038
E01C
E01C
ENDCHAR
STARTCHAR B
ENCODING 66
SWIDTH 929 0
DWIDTH 13 0
BBX 11 14 1 0
BITMAP
FF80
FFC0
E1E0
E0E0
E0E0
E1E0
FFC0
FFC0
E1E0
E0E0
E0E0
E1E0
FFC0
FF80
ENDCHAR
STARTCHAR C
ENCODING 67
SWIDTH 1000 0
DWIDTH 14 0
BBX 13 14 1 0
BITMAP
0FC0
3FF0
7878
7038
E000
E000
E000
E000
E000
E000
7038
7878
3FF0
0FC0
ENDCHAR
STARTCHAR D
ENCODING 68
SWIDTH 1000 0
DWIDTH 14 0
BBX 12 14 1 0
BITMAP
FF00
FFC0
E1E0
E0E0
E070
E070
E070
E070
E070
E070
E0E0
E1E0
FFC0
FF00
ENDCHAR
STARTCHAR E
ENCODING 69
SWIDTH 1000 0
DWIDTH 14 0
BBX 12 14 1 0
BITMAP
FFF0
FFF0
E000
E000
E000
E000
FFE0
FFE0
E000
E000
E000
E000
FFF0
FFF0
ENDCHAR
STARTCHAR F
ENCODING 70
SWIDTH 929 0
DWIDTH 13 0
BBX 12 14 1 0
BITMAP
FFF0
FFF0
E000
E000
E000
E000
FFE0
FFE0
E000
E000
E000
E000
E000
E000
ENDCHAR
STARTCHAR G
ENCODING 71
SWIDTH 1071 0
DWIDTH 15 0
BBX 13 14 1 0
BITMAP
0FC0
3FF0
7878
7038
E000
E000
E000
E0F8
E0F8
E038
7038
7878
3FF8
0FF8
ENDCHAR
STARTCHAR H
ENCODING 72
SWIDTH 1071 0
DWIDTH 15 0
BBX 13 14 1 0
BITMAP
E038
E038
E038
E038
E038
E038
FFF8
FFF8
E038
E038
E038
E038
E038
E038
ENDCHAR
STARTCHAR I
ENCODING 73
SWIDTH 357 0
DWIDTH 5 0
BBX 3 14 1 0
BITMAP
E0
E0
E0
E0
E0
E0
E0
E0
E0
E0
E0
E0
E0
E0
ENDCHAR
STARTCHAR J
ENCODING 74
SWIDTH 714 0
DWIDTH 10 0
BBX 9 14 0 0
BITMAP
0380
0380
0380
0380
0380
0380
0380
0380
0380
0380
E380
F780
7F00
1C00
ENDCHAR
STARTCHAR K
ENCODING 75
SWIDTH 929 0
DWIDTH 13 0
BBX 12 14 1 0
BITMAP
E1E0
E3C0
E780
EF00
FE00
FC00
F800
FC00
FE00
EF00
E780
E3C0
E1E0
E0F0
ENDCHAR
STARTCHAR L
ENCODING 76
SWIDTH 786 0
DWIDTH 11 0
BBX 10 14 1 0
BITMAP
E000
E000
E000
E000
E000
E000
E000
E000
E000
E000
E000
E000
FFC0
FFC0
ENDCHAR
STARTCHAR M
ENCODING 77
SWIDTH 1214 0
DWIDTH 17 0
BBX 15 14 1 0
BITMAP
E00E
E00E
F01E
F01E
F83E
F83E
FC7E
FC7E
EEEE
EEEE
E7CE
E7CE
E38E
E38E
ENDCHAR
STARTCHAR N
ENCODING 78
SWIDTH 1071 0
DWIDTH 15 0
BBX 13 14 1 0
BITMAP
F038
F838
F838
FC38
FE38
EE38
EF38
E7B8
E3B8
E3F8
E1F8
E0F8
E0F8
E078
ENDCHAR
STARTCHAR O
ENCODING 79
SWIDTH 1143 0
DWIDTH 16 0
BBX 14 14 1 0
BITMAP
0FC0
3FF0
7878
7038
E01C
E01C
E01C
E01C
E01C
E01C
7038
7878
3FF0
0FC0
ENDCHAR
STARTCHAR P
ENCODING 80
SWIDTH 929 0
DWIDTH 13 0
BBX 12 14 1 0
BITMAP
FF80
FFE0
E0E0
E070
E070
E070
E0E0
FFE0
FF80
E000
E000
E000
E000
E000
ENDCHAR
STARTCHAR Q
ENCODING 81
SWIDTH 1143 0
DWIDTH 16 0
BBX 14 14 1 0
BITMAP
0FC0
3FF0
7878
7038
E01C
E01C
E01C
E01C
E0DC
E1FC
70F8
7878
3FFC
0FD8
ENDCHAR
STARTCHAR R
ENCODING 82
SWIDTH 1000 0
DWIDTH 14 0
BBX 13 14 1 0
BITMAP
FF80
FFE0
E0E0
E070
E070
E070
E0E0
FFE0
FFE0
E070
E070
E070
E070
E038
ENDCHAR
STARTCHAR S
ENCODING 83
SWIDTH 929 0
DWIDTH 13 0
BBX 11 14 1 0
BITMAP
1F00
7FC0
F1E0
E0E0
F000
7C00
3F80
0FC0
01E0
00E0
E0E0
F1E0
7FC0
1F00
ENDCHAR
STARTCHAR T
ENCODING 84
SWIDTH 929 0
DWIDTH 13 0
BBX 13 14 0 0
BITMAP
FFF8
FFF8
0700
0700
0700
0700
0700
0700
0700
0700
0700
0700
0700
0700
ENDCHAR
STARTCHAR U
ENCODING 85
SWIDTH 1000 0
DWIDTH 14 0
BBX 12 14 1 0
BITMAP
E070
E070
E070
E070
E070
E070
E070
E070
E070
E070
70E0
79E0
3FC0
0F00
ENDCHAR
STARTCHAR V
ENCODING 86
SWIDTH 1000 0
DWIDTH 14 0
BBX 14 14 0 0
BITMAP
E01C
E01C
7038
7038
3870
3870
3870
1CE0
1CE0
0FC0
0FC0
0FC0
0780
0780
ENDCHAR
STARTCHAR W
ENCODING 87
SWIDTH 1357 0
DWIDTH 19 0
BBX 19 14 0 0
BITMAP
E0E0E0
E0E0E0
E0E0E0
71F1C0
71F1C0
71F1C0
3BBB80
3BBB80
3BBB80
1F1F00
1F1F00
1F1F00
0E0E00
0E0E00
ENDCHAR
STARTCHAR X
ENCODING 88
SWIDTH 1071 0
DWIDTH 15 0
BBX 15 14 0 0
BITMAP
E00E
F01E
783C
3C78
1EF0
0FE0
07C0
07C0
0FE0
1EF0
3C78
783C
F01E
E00E
ENDCHAR
STARTCHAR Y
ENCODING 89
SWIDTH 929 0
DWIDTH 13 0
BBX 13 14 0 0
BITMAP
E038
F078
7070
38E0
3DE0
1DC0
0F80
0F80
0700
0700
0700
0700
0700
0700
ENDCHAR
STARTCHAR Z
ENCODING 90
SWIDTH 929 0
DWIDTH 13 0
BBX 13 14 0 0
BITMAP
7FF8
7FF8
0078
00F0
01E0
03C0
0780
0F00
1E00
3C00
7800
F000
FFF8
FFF8
ENDCHAR
STARTCHAR bracketleft
ENCODING 91
SWIDTH 316 0
DWIDTH 6 0
BBX 5 19 1 -4
BITMAP
F8
F8
E0
E0
E0
E0
E0
E0
E0
E0
E0
E0
E0
E0
E0
E0
E0
F8
F8
ENDCHAR
STARTCHAR backslash
ENCODING 92
SWIDTH 375 0
DWIDTH 6 0
BBX 6 16 0 -2
BITMAP
E0
E0
E0
E0
70
70
70
70
38
38
38
38
1C
1C
1C
1C
ENDCHAR
STARTCHAR bracketright
ENCODING 93
SWIDTH 316 0
DWIDTH 6 0
BBX 5 19 0 -4
BITMAP
F8
F8
38
38
38
38
38
38
38
38
38
38
38
38
38
38
38
F8
F8
ENDCHAR
STARTCHAR asciicircum
ENCODING 94
SWIDTH 3333 0
DWIDTH 10 0
BBX 8 3 1 11
BITMAP
3C
7E
E7
ENDCHAR
STARTCHAR underscore
ENCODING 95
SWIDTH 5500 0
DWIDTH 11 0
BBX 11 2 0 -3
BITMAP
FFE0
FFE0
ENDCHAR
STARTCHAR grave
ENCODING 96
SWIDTH 2333 0
DWIDTH 7 0
BBX 5 3 1 11
BITMAP
F0
38
18
ENDCHAR
STARTCHAR a
ENCODING 97
SWIDTH 1100 0
DWIDTH 11 0
BBX 10 10 1 0
BITMAP
3E00
7F00
F780
0380
1F80
7B80
E380
E780
FFC0
7DC0
ENDCHAR
STARTCHAR b
ENCODING 98
SWIDTH 857 0
DWIDTH 12 0
BBX 10 14 1 0
BITMAP
E000
E000
E000
E000
FE00
FF80
F380
E1C0
E1C0
E1C0
E1C0
F380
FF80
FE00
ENDCHAR
STARTCHAR c
ENCODING 99
SWIDTH 1100 0
DWIDTH 11 0
BBX 10 10 1 0
BITMAP
1E00
7F80
7380
E1C0
E000
E000
E1C0
7380
7F80
1E00
ENDCHAR
STARTCHAR d
ENCODING 100
SWIDTH 857 0
DWIDTH 12 0
BBX 10 14 1 0
BITMAP
01C0
01C0
01C0
01C0
1FC0
7FC0
73C0
E1C0
E1C0
E1C0
E1C0
73C0
7FC0
1FC0
ENDCHAR
STARTCHAR e
ENCODING 101
SWIDTH 1200 0
DWIDTH 12 0
BBX 10 10 1 0
BITMAP
1E00
7F80
7380
E1C0
FFC0
FFC0
E000
71C0
7F80
1E00
ENDCHAR
STARTCHAR f
ENCODING 102
SWIDTH 357 0
DWIDTH 5 0
BBX 5 14 0 0
BITMAP
38
78
70
70
F8
F8
70
70
70
70
70
70
70
70
ENDCHAR
STARTCHAR g
ENCODING 103
SWIDTH 857 0
DWIDTH 12 0
BBX 10 14 1 -4
BITMAP
1FC0
7FC0
73C0
E1C0
E1C0
E1C0
E1C0
73C0
7FC0
1FC0
E1C0
7380
7F80
1E00
ENDCHAR
STARTCHAR h
ENCODING 104
SWIDTH 857 0
DWIDTH 12 0
BBX 10 14 1 0
BITMAP
E000
E000
E000
E000
FE00
FF80
F380
E1C0
E1C0
E1C0
E1C0
E1C0
E1C0
E1C0
ENDCHAR
STARTCHAR i
ENCODING 105
SWIDTH 357 0
DWIDTH 5 0
BBX 3 14 1 0
BITMAP
E0
E0
00
00
E0
E0
E0
E0
E0
E0
E0
E0
E0
E0
ENDCHAR
STARTCHAR j
ENCODING 106
SWIDTH 278 0
DWIDTH 5 0
BBX 4 18 0 -4
BITMAP
70
70
00
00
70
70
70
70
70
70
70
70
70
70
70
70
F0
E0
ENDCHAR
STARTCHAR k
ENCODING 107
SWIDTH 714 0
DWIDTH 10 0
BBX 9 14 1 0
BITMAP
E000
E000
E000
E000
E380
E700
EE00
FC00
F800
FC00
EE00
E700
E380
E180
ENDCHAR
STARTCHAR l
ENCODING 108
SWIDTH 357 0
DWIDTH 5 0
BBX 3 14 1 0
BITMAP
E0
E0
E0
E0
E0
E0
E0
E0
E0
E0
E0
E0
E0
E0
ENDCHAR
STARTCHAR m
ENCODING 109
SWIDTH 1700 0
DWIDTH 17 0
BBX 15 10 1 0
BITMAP
FE78
FFFC
F7DE
E38E
E38E
E38E
E38E
E38E
E38E
E38E
ENDCHAR
STARTCHAR n
ENCODING 110
SWIDTH 1200 0
DWIDTH 12 0
BBX 10 10 1 0
BITMAP
FE00
FF80
F380
E1C0
E1C0
E1C0
E1C0
E1C0
E1C0
E1C0
ENDCHAR
STARTCHAR o
ENCODING 111
SWIDTH 1200 0
DWIDTH 12 0
BBX 10 10 1 0
BITMAP
1E00
7F80
7380
E1C0
E1C0
E1C0
E1C0
7380
7F80
1E00
ENDCHAR
STARTCHAR p
ENCODING 112
SWIDTH 857 0
DWIDTH 12 0
BBX 10 14 1 -4
BITMAP
FE00
FF80
F380
E1C0
E1C0
E1C0
E1C0
F380
FF80
FE00
E000
E000
E000
E000
ENDCHAR
STARTCHAR q
ENCODING 113
SWIDTH 857 0
DWIDTH 12 0
BBX 10 14 1 -4
BITMAP
1FC0
7FC0
73C0
E1C0
E1C0
E1C0
E1C0
73C0
7FC0
1FC0
01C0
01C0
01C0
01C0
ENDCHAR
STARTCHAR r
ENCODING 114
SWIDTH 700 0
DWIDTH 7 0
BBX 6 10 1 0
BITMAP
FC
FC
F0
E0
E0
E0
E0
E0
E0
E0
ENDCHAR
STARTCHAR s
ENCODING 115
SWIDTH 1000 0
DWIDTH 10 0
BBX 8 10 1 0
BITMAP
3C
7E
E7
F0
7C
1E
07
E7
7E
3C
ENDCHAR
STARTCHAR t
ENCODING 116
SWIDTH 385 0
DWIDTH 5 0
BBX 5 13 0 0
BITMAP
70
70
70
F8
F8
70
70
70
70
70
70
78
38
ENDCHAR
STARTCHAR u
ENCODING 117
SWIDTH 1200 0
DWIDTH 12 0
BBX 10 10 1 0
BITMAP
E1C0
E1C0
E1C0
E1C0
E1C0
E1C0
E1C0
73C0
7FC0
1FC0
ENDCHAR
STARTCHAR v
ENCODING 118
SWIDTH 1000 0
DWIDTH 10 0
BBX 10 10 0 0
BITMAP
E1C0
E1C0
E1C0
7380
7380
3F00
3F00
3F00
1E00
1E00
ENDCHAR
STARTCHAR w
ENCODING 119
SWIDTH 1500 0
DWIDTH 15 0
BBX 15 10 0 0
BITMAP
E38E
E38E
739C
77DC
77DC
3EF8
3EF8
1EF0
1C70
1C70
ENDCHAR
STARTCHAR x
ENCODING 120
SWIDTH 1100 0
DWIDTH 11 0
BBX 11 10 0 0
BITMAP
E0E0
F1E0
7BC0
3F80
1F00
1F00
3F80
7BC0
F1E0
E0E0
ENDCHAR
STARTCHAR y
ENCODING 121
SWIDTH 714 0
DWIDTH 10 0
BBX 10 14 0 -4
BITMAP
E1C0
E1C0
E1C0
7380
7380
3F00
3F00
3F00
1E00
1E00
1C00
1C00
7C00
7800
ENDCHAR
STARTCHAR z
ENCODING 122
SWIDTH 1000 0
DWIDTH 10 0
BBX 10 10 0 0
BITMAP
FFC0
FFC0
0380
0700
0E00
1C00
3800
7000
FFC0
FFC0
ENDCHAR
STARTCHAR braceleft
ENCODING 123
SWIDTH 389 0
DWIDTH 7 0
BBX 6 18 1 -4
BITMAP
1C
38
38
38
38
38
38
70
E0
E0
70
38
38
38
38
38
38
1C
ENDCHAR
STARTCHAR bar
ENCODING 124
SWIDTH 263 0
DWIDTH 5 0
BBX 3 19 1 -5
BITMAP
E0
E0
E0
E0
E0
E0
E0
E0
E0
E0
E0
E0
E0
E0
E0
E0
E0
E0
E0
ENDCHAR
STARTCHAR braceright
ENCODING 125
SWIDTH 389 0
DWIDTH 7 0
BBX 6 18 0 -4
BITMAP
E0
70
70
70
70
70
70
38
1C
1C
38
70
70
70
70
70
70
E0
ENDCHAR
STARTCHAR asciitilde
ENCODING 126
SWIDTH 4000 0
DWIDTH 12 0
BBX 10 3 1 11
BITMAP
79C0
FFC0
E780
ENDCHAR
STARTCHAR bullet
ENCODING 149
SWIDTH 1286 0
DWIDTH 9 0
BBX 8 7 1 2
BITMAP
3C
7E
FF
FF
FF
7E
3C
ENDCHAR
STARTCHAR space
ENCODING 154
SWIDTH 316 0
DWIDTH 6 0
BBX 0 0 0 0
BITMAP
ENDCHAR
STARTCHAR degree
ENCODING 156
SWIDTH 1400 0
DWIDTH 7 0
BBX 6 5 1 9
BITMAP
78
FC
CC
FC
78
ENDCHAR
STARTCHAR twosuperior
ENCODING 157
SWIDTH 857 0
DWIDTH 6 0
BBX 6 7 0 7
BITMAP
78
FC
DC
38
70
E0
FC
ENDCHAR
STARTCHAR periodcentered
ENCODING 158
SWIDTH 3500 0
DWIDTH 7 0
BBX 3 2 3 5
BITMAP
E0
E0
ENDCHAR
STARTCHAR afii10071
ENCODING 163
SWIDTH 1000 0
DWIDTH 12 0
BBX 10 12 1 0
BITMAP
7380
0000
1E00
7F80
7380
E1C0
FFC0
FFC0
E000
71C0
7F80
1E00
ENDCHAR
STARTCHAR afii10023
ENCODING 179
SWIDTH 824 0
DWIDTH 14 0
BBX 12 17 1 0
BITMAP
70E0
70E0
0000
FFF0
FFF0
E000
E000
E000
E000
FFE0
FFE0
E000
E000
E000
E000
FFF0
FFF0
ENDCHAR
STARTCHAR copyright
ENCODING 191
SWIDTH 1071 0
DWIDTH 15 0
BBX 14 14 0 0
BITMAP
0FC0
3CF0
7038
67D8
EEFC
DC0C
DC0C
DC0C
DC0C
EEFC
67D8
7038
3CF0
0FC0
ENDCHAR
STARTCHAR afii10096
ENCODING 192
SWIDTH 1500 0
DWIDTH 15 0
BBX 13 10 1 0
BITMAP
E3C0
EFF0
EE70
FC38
FC38
FC38
FC38
EE70
EFF0
E3C0
ENDCHAR
STARTCHAR afii10065
ENCODING 193
SWIDTH 1100 0
DWIDTH 11 0
BBX 10 10 1 0
BITMAP
3E00
7F00
F780
0380
1F80
7B80
E380
E780
FFC0
7DC0
ENDCHAR
STARTCHAR afii10066
ENCODING 194
SWIDTH 857 0
DWIDTH 12 0
BBX 10 14 1 0
BITMAP
0380
3F80
7F00
F000
FF00
FF80
F3C0
E1C0
E1C0
E1C0
E1C0
F3C0
7F80
3F00
ENDCHAR
STARTCHAR afii10088
ENCODING 195
SWIDTH 1083 0
DWIDTH 13 0
BBX 11 12 1 -2
BITMAP
E1C0
E1C0
E1C0
E1C0
E1C0
E1C0
E1C0
E1C0
FFE0
FFE0
00E0
00E0
ENDCHAR
STARTCHAR afii10069
ENCODING 196
SWIDTH 1167 0
DWIDTH 14 0
BBX 13 12 1 -2
BITMAP
1FE0
1FE0
1CE0
1CE0
1CE0
1CE0
1CE0
38E0
FFF8
FFF8
E038
E038
ENDCHAR
STARTCHAR afii10070
ENCODING 197
SWIDTH 1200 0
DWIDTH 12 0
BBX 10 10 1 0
BITMAP
1E00
7F80
7380
E1C0
FFC0
FFC0
E000
71C0
7F80
1E00
ENDCHAR
STARTCHAR afii10086
ENCODING 198
SWIDTH 833 0
DWIDTH 15 0
BBX 13 18 1 -5
BITMAP
0700
0700
0700
1FC0
7FF0
7770
E738
E738
E738
E738
F778
7FF0
1FC0
0700
0700
0700
0700
0700
ENDCHAR
STARTCHAR afii10068
ENCODING 199
SWIDTH 1000 0
DWIDTH 10 0
BBX 9 10 1 0
BITMAP
FF80
FF80
E000
E000
E000
E000
E000
E000
E000
E000
ENDCHAR
STARTCHAR afii10087
ENCODING 200
SWIDTH 1100 0
DWIDTH 11 0
BBX 11 10 0 0
BITMAP
E0E0
F1E0
7BC0
3F80
1F00
1F00
3F80
7BC0
F1E0
E0E0
ENDCHAR
STARTCHAR afii10074
ENCODING 201
SWIDTH 1200 0
DWIDTH 12 0
BBX 10 10 1 0
BITMAP
E1C0
E1C0
E3C0
E7C0
EFC0
FDC0
F9C0
F1C0
E1C0
E1C0
ENDCHAR
STARTCHAR afii10075
ENCODING 202
SWIDTH 1000 0
DWIDTH 12 0
BBX 10 12 1 0
BITMAP
3F00
1E00
E1C0
E1C0
E3C0
E7C0
EFC0
FDC0
F9C0
F1C0
E1C0
E1C0
ENDCHAR
STARTCHAR afii10076
ENCODING 203
SWIDTH 1000 0
DWIDTH 10 0
BBX 9 10 1 0
BITMAP
E380
E700
EE00
FC00
F800
FC00
EE00
E700
E380
E180
ENDCHAR
STARTCHAR afii10077
ENCODING 204
SWIDTH 1200 0
DWIDTH 12 0
BBX 10 10 1 0
BITMAP
3FC0
3FC0
39C0
39C0
39C0
39C0
39C0
39C0
F9C0
F1C0
ENDCHAR
STARTCHAR afii10078
ENCODING 205
SWIDTH 1500 0
DWIDTH 15 0
BBX 13 10 1 0
BITMAP
E038
F078
F8F8
FDF8
EFB8
E738
E038
E038
E038
E038
ENDCHAR
STARTCHAR afii10079
ENCODING 206
SWIDTH 1200 0
DWIDTH 12 0
BBX 10 10 1 0
BITMAP
E1C0
E1C0
E1C0
E1C0
FFC0
FFC0
E1C0
E1C0
E1C0
E1C0
ENDCHAR
STARTCHAR afii10080
ENCODING 207
SWIDTH 1200 0
DWIDTH 12 0
BBX 10 10 1 0
BITMAP
1E00
7F80
7380
E1C0
E1C0
E1C0
E1C0
7380
7F80
1E00
ENDCHAR
STARTCHAR afii10081
ENCODING 208
SWIDTH 1200 0
DWIDTH 12 0
BBX 10 10 1 0
BITMAP
FFC0
FFC0
E1C0
E1C0
E1C0
E1C0
E1C0
E1C0
E1C0
E1C0
ENDCHAR
STARTCHAR afii10097
ENCODING 209
SWIDTH 1200 0
DWIDTH 12 0
BBX 10 10 1 0
BITMAP
7FC0
FFC0
E1C0
E1C0
E1C0
FFC0
7FC0
3DC0
79C0
F1C0
ENDCHAR
STARTCHAR afii10082
ENCODING 210
SWIDTH 857 0
DWIDTH 12 0
BBX 10 14 1 -4
BITMAP
FE00
FF80
F380
E1C0
E1C0
E1C0
E1C0
F380
FF80
FE00
E000
E000
E000
E000
ENDCHAR
STARTCHAR afii10083
ENCODING 211
SWIDTH 1100 0
DWIDTH 11 0
BBX 10 10 1 0
BITMAP
1E00
7F80
7380
E1C0
E000
E000
E1C0
7380
7F80
1E00
ENDCHAR
STARTCHAR afii10084
ENCODING 212
SWIDTH 1182 0
DWIDTH 13 0
BBX 11 11 1 -1
BITMAP
FFE0
FFE0
0E00
0E00
0E00
0E00
0E00
0E00
0E00
0E00
0E00
ENDCHAR
STARTCHAR afii10085
ENCODING 213
SWIDTH 714 0
DWIDTH 10 0
BBX 10 14 0 -4
BITMAP
E1C0
E1C0
E1C0
7380
7380
3F00
3F00
3F00
1E00
1E00
1C00
1C00
7C00
7800
ENDCHAR
STARTCHAR afii10072
ENCODING 214
SWIDTH 1545 0
DWIDTH 17 0
BBX 17 11 0 -1
BITMAP
F1C780
79CF00
3DDE00
1FFC00
0FF800
0FF800
1FFC00
3DDE00
79CF00
F1C780
E1C380
ENDCHAR
STARTCHAR afii10067
ENCODING 215
SWIDTH 1100 0
DWIDTH 11 0
BBX 9 10 1 0
BITMAP
FF00
FF80
E380
E380
FF00
FF00
E380
E380
FF80
FF00
ENDCHAR
STARTCHAR afii10094
ENCODING 216
SWIDTH 1200 0
DWIDTH 12 0
BBX 10 10 1 0
BITMAP
E000
E000
E000
FF80
FFC0
E1C0
E1C0
E1C0
FFC0
FF80
ENDCHAR
STARTCHAR afii10093
ENCODING 217
SWIDTH 1500 0
DWIDTH 15 0
BBX 13 10 1 0
BITMAP
E038
E038
E038
FFB8
FFF8
E1F8
E1F8
E1F8
FFF8
FFB8
ENDCHAR
STARTCHAR afii10073
ENCODING 218
SWIDTH 1100 0
DWIDTH 11 0
BBX 9 10 1 0
BITMAP
7F00
FF80
E380
0380
1F00
1F80
0380
E380
FF80
7F00
ENDCHAR
STARTCHAR afii10090
ENCODING 219
SWIDTH 1500 0
DWIDTH 15 0
BBX 13 10 1 0
BITMAP
E738
E738
E738
E738
E738
E738
E738
E738
FFF8
FFF8
ENDCHAR
STARTCHAR afii10095
ENCODING 220
SWIDTH 1100 0
DWIDTH 11 0
BBX 9 10 1 0
BITMAP
3E00
7F00
E780
0380
1F80
1F80
0380
E780
7F00
3E00
ENDCHAR
STARTCHAR afii10091
ENCODING 221
SWIDTH 1333 0
DWIDTH 16 0
BBX 14 12 1 -2
BITMAP
E738
E738
E738
E738
E738
E738
E738
E738
FFFC
FFFC
001C
001C
ENDCHAR
STARTCHAR afii10089
ENCODING 222
SWIDTH 1200 0
DWIDTH 12 0
BBX 10 10 1 0
BITMAP
E1C0
E1C0
E1C0
E1C0
FFC0
7FC0
01C0
01C0
01C0
01C0
ENDCHAR
STARTCHAR afii10092
ENCODING 223
SWIDTH 1400 0
DWIDTH 14 0
BBX 12 10 1 0
BITMAP
F800
F800
3800
3FE0
3FF0
3870
3870
3870
3FF0
3FE0
ENDCHAR
STARTCHAR afii10048
ENCODING 224
SWIDTH 1214 0
DWIDTH 17 0
BBX 16 14 1 0
BITMAP
E1F0
E7FC
EF1E
EE0E
FC07
FC07
FC07
FC07
FC07
FC07
EE0E
EF1E
E7FC
E1F0
ENDCHAR
STARTCHAR afii10017
ENCODING 225
SWIDTH 1000 0
DWIDTH 14 0
BBX 14 14 0 0
BITMAP
0780
0780
0FC0
0FC0
1CE0
1CE0
1CE0
3870
3FF0
7FF8
7038
7038
E01C
E01C
ENDCHAR
STARTCHAR afii10018
ENCODING 226
SWIDTH 929 0
DWIDTH 13 0
BBX 11 14 1 0
BITMAP
FFC0
FFC0
E000
E000
E000
E000
FF80
FFC0
E1E0
E0E0
E0E0
E1E0
FFC0
FF80
ENDCHAR
STARTCHAR afii10040
ENCODING 227
SWIDTH 938 0
DWIDTH 15 0
BBX 13 16 1 -2
BITMAP
E070
E070
E070
E070
E070
E070
E070
E070
E070
E070
E070
E070
FFF0
FFF8
0038
0038
ENDCHAR
STARTCHAR afii10021
ENCODING 228
SWIDTH 1000 0
DWIDTH 16 0
BBX 14 16 1 -2
BITMAP
1FF0
1FF0
1C70
1C70
1C70
1C70
1C70
1C70
1C70
1C70
1C70
3870
FFFC
FFFC
E01C
E01C
ENDCHAR
STARTCHAR afii10022
ENCODING 229
SWIDTH 1000 0
DWIDTH 14 0
BBX 12 14 1 0
BITMAP
FFF0
FFF0
E000
E000
E000
E000
FFE0
FFE0
E000
E000
E000
E000
FFF0
FFF0
ENDCHAR
STARTCHAR afii10038
ENCODING 230
SWIDTH 1214 0
DWIDTH 17 0
BBX 15 14 1 0
BITMAP
0380
0FE0
3FF8
7BBC
739C
E38E
E38E
E38E
E38E
739C
7BBC
3FF8
0FE0
0380
ENDCHAR
STARTCHAR afii10020
ENCODING 231
SWIDTH 1000 0
DWIDTH 14 0
BBX 12 14 1 0
BITMAP
FFF0
FFF0
E000
E000
E000
E000
E000
E000
E000
E000
E000
E000
E000
E000
ENDCHAR
STARTCHAR afii10039
ENCODING 232
SWIDTH 1071 0
DWIDTH 15 0
BBX 15 14 0 0
BITMAP
E00E
F01E
783C
3C78
1EF0
0FE0
07C0
07C0
0FE0
1EF0
3C78
783C
F01E
E00E
ENDCHAR
STARTCHAR afii10026
ENCODING 233
SWIDTH 1071 0
DWIDTH 15 0
BBX 13 14 1 0
BITMAP
E038
E038
E078
E0F8
E1F8
E3F8
E7B8
EF38
FE38
FC38
F838
F038
E038
E038
ENDCHAR
STARTCHAR afii10027
ENCODING 234
SWIDTH 882 0
DWIDTH 15 0
BBX 13 17 1 0
BITMAP
38E0
1FC0
0F80
E038
E038
E078
E0F8
E1F8
E3F8
E7B8
EF38
FE38
FC38
F838
F038
E038
E038
ENDCHAR
STARTCHAR afii10028
ENCODING 235
SWIDTH 929 0
DWIDTH 13 0
BBX 12 14 1 0
BITMAP
E1E0
E3C0
E780
EF00
FE00
FC00
F800
FC00
FE00
EF00
E780
E3C0
E1E0
E0F0
ENDCHAR
STARTCHAR afii10029
ENCODING 236
SWIDTH 1000 0
DWIDTH 14 0
BBX 12 14 1 0
BITMAP
3FF0
3FF0
3870
3870
3870
3870
3870
3870
3870
3870
3870
3870
F870
F070
ENDCHAR
STARTCHAR afii10030
ENCODING 237
SWIDTH 1214 0
DWIDTH 17 0
BBX 15 14 1 0
BITMAP
E00E
E00E
F01E
F01E
F83E
F83E
FC7E
FC7E
EEEE
EEEE
E7CE
E7CE
E38E
E38E
ENDCHAR
STARTCHAR afii10031
ENCODING 238
SWIDTH 1071 0
DWIDTH 15 0
BBX 13 14 1 0
BITMAP
E038
E038
E038
E038
E038
E038
FFF8
FFF8
E038
E038
E038
E038
E038
E038
ENDCHAR
STARTCHAR afii10032
ENCODING 239
SWIDTH 1143 0
DWIDTH 16 0
BBX 14 14 1 0
BITMAP
0FC0
3FF0
7878
7038
E01C
E01C
E01C
E01C
E01C
E01C
7038
7878
3FF0
0FC0
ENDCHAR
STARTCHAR afii10033
ENCODING 240
SWIDTH 1071 0
DWIDTH 15 0
BBX 13 14 1 0
BITMAP
FFF8
FFF8
E038
E038
E038
E038
E038
E038
E038
E038
E038
E038
E038
E038
ENDCHAR
STARTCHAR afii10049
ENCODING 241
SWIDTH 933 0
DWIDTH 14 0
BBX 12 15 1 -1
BITMAP
3FF0
7FF0
F070
E070
E070
E070
F070
7FF0
3FF0
07F0
0F70
1E70
3C70
7870
F070
ENDCHAR
STARTCHAR afii10034
ENCODING 242
SWIDTH 929 0
DWIDTH 13 0
BBX 12 14 1 0
BITMAP
FF80
FFE0
E0E0
E070
E070
E070
E0E0
FFE0
FF80
E000
E000
E000
E000
E000
ENDCHAR
STARTCHAR afii10035
ENCODING 243
SWIDTH 1000 0
DWIDTH 14 0
BBX 13 14 1 0
BITMAP
0FC0
3FF0
7878
7038
E000
E000
E000
E000
E000
E000
7038
7878
3FF0
0FC0
ENDCHAR
STARTCHAR afii10036
ENCODING 244
SWIDTH 929 0
DWIDTH 13 0
BBX 13 14 0 0
BITMAP
FFF8
FFF8
0700
0700
0700
0700
0700
0700
0700
0700
0700
0700
0700
0700
ENDCHAR
STARTCHAR afii10037
ENCODING 245
SWIDTH 929 0
DWIDTH 13 0
BBX 13 14 0 0
BITMAP
E038
E038
7070
7070
38E0
38E0
1DC0
1DC0
0F80
0780
0700
0F00
3E00
3C00
ENDCHAR
STARTCHAR afii10024
ENCODING 246
SWIDTH 1357 0
DWIDTH 19 0
BBX 19 14 0 0
BITMAP
70E1C0
78E3C0
3CE780
1EEF00
0FFE00
07FC00
03F800
07FC00
0FFE00
1EEF00
3CE780
78E3C0
F0E1E0
E0E0E0
ENDCHAR
STARTCHAR afii10019
ENCODING 247
SWIDTH 929 0
DWIDTH 13 0
BBX 11 14 1 0
BITMAP
FF80
FFC0
E1E0
E0E0
E0E0
E1E0
FFC0
FFC0
E1E0
E0E0
E0E0
E1E0
FFC0
FF80
ENDCHAR
STARTCHAR afii10046
ENCODING 248
SWIDTH 1000 0
DWIDTH 14 0
BBX 12 14 1 0
BITMAP
E000
E000
E000
E000
E000
FFC0
FFE0
E0F0
E070
E070
E070
E0F0
FFE0
FFC0
ENDCHAR
STARTCHAR afii10045
ENCODING 249
SWIDTH 1214 0
DWIDTH 17 0
BBX 15 14 1 0
BITMAP
E00E
E00E
E00E
E00E
E00E
FFCE
FFEE
E0FE
E07E
E07E
E07E
E0FE
FFEE
FFCE
ENDCHAR
STARTCHAR afii10025
ENCODING 250
SWIDTH 857 0
DWIDTH 12 0
BBX 10 14 1 0
BITMAP
3F00
7F80
E1C0
01C0
01C0
0380
1F00
1F00
0380
01C0
01C0
E1C0
7F80
3F00
ENDCHAR
STARTCHAR afii10042
ENCODING 251
SWIDTH 1357 0
DWIDTH 19 0
BBX 17 14 1 0
BITMAP
E1C380
E1C380
E1C380
E1C380
E1C380
E1C380
E1C380
E1C380
E1C380
E1C380
E1C380
E1C380
FFFF80
FFFF80
ENDCHAR
STARTCHAR afii10047
ENCODING 252
SWIDTH 1000 0
DWIDTH 14 0
BBX 12 14 1 0
BITMAP
3F80
7FC0
F1E0
00F0
0070
0070
0FF0
0FF0
0070
0070
00E0
F1E0
7FC0
3F80
ENDCHAR
STARTCHAR afii10043
ENCODING 253
SWIDTH 1250 0
DWIDTH 20 0
BBX 18 16 1 -2
BITMAP
E1C380
E1C380
E1C380
E1C380
E1C380
E1C380
E1C380
E1C380
E1C380
E1C380
E1C380
E1C380
FFFFC0
FFFFC0
0001C0
0001C0
ENDCHAR
STARTCHAR afii10041
ENCODING 254
SWIDTH 1071 0
DWIDTH 15 0
BBX 13 14 1 0
BITMAP
E038
E038
E038
E038
E038
F038
7FF8
3FF8
0038
0038
0038
0038
0038
0038
ENDCHAR
STARTCHAR afii10044
ENCODING 255
SWIDTH 1143 0
DWIDTH 16 0
BBX 14 14 1 0
BITMAP
F800
F800
3800
3800
3800
3FF0
3FF8
383C
381C
381C
381C
383C
3FF8
3FF0
ENDCHAR
ENDFONT
