STARTFONT 2.1
COMMENT Copyright (C) 1990-1991 EWT Consulting
COMMENT Portions Copyright (C) 1994-1995 Cronyx Ltd.
COMMENT Changes Copyright (C) 1996-1997 by Andrey A. Chernov, Moscow, Russia.
COMMENT Modified by Serge Vakulenko, <vak@cronyx.ru>
COMMENT Changes 1999 by Serge Winitzki.
COMMENT This software may be used, modified, copied, distributed, and sold,
COMMENT in both source and binary form provided that the copyright
COMMENT and these terms are retained. Under no circumstances is the author
COMMENT responsible for the proper functioning of this software, nor does
COMMENT the author assume any responsibility for damages incurred with its use.
COMMENT $XFree86$
FONT -Cronyx-Times-Bold-I-Normal--17-120-100-100-P-64-KOI8-R
SIZE 12 96 96
FONTBOUNDINGBOX 23 17 -2 -4
STARTPROPERTIES 21
DEFAULT_CHAR 32
FONT_ASCENT 15
FONT_DESCENT 4
SPACING "P"
FONTNAME_REGISTRY ""
FOUNDRY "Cronyx"
FAMILY_NAME "Times"
WEIGHT_NAME "Bold"
SLANT "I"
SETWIDTH_NAME "Normal"
ADD_STYLE_NAME ""
AVERAGE_WIDTH 64
CHARSET_REGISTRY "KOI8"
CHARSET_ENCODING "R"
PIXEL_SIZE 17
POINT_SIZE 120
RESOLUTION_X 100
RESOLUTION_Y 100
COPYRIGHT "Copyright (C) 1990, 1991 EWT Consulting, Portions Copyright (C) 1994 Cronyx Ltd., Portions Copyright (C) 1996-1997 by Andrey A. Chernov, Moscow, Russia."
_XMBDFED_INFO "Edited with xmbdfed 4.3."
_XFREE86_GLYPH_RANGES "32_126 149 154 156_158 163 179 191_255"
ENDPROPERTIES
CHARS 167
STARTCHAR space
ENCODING 32
SWIDTH 313 0
DWIDTH 5 0
BBX 0 0 -1 0
BITMAP
ENDCHAR
STARTCHAR exclam
ENCODING 33
SWIDTH 455 0
DWIDTH 5 0
BBX 4 11 0 0
BITMAP
30
30
30
30
60
60
60
60
00
C0
C0
ENDCHAR
STARTCHAR quotedbl
ENCODING 34
SWIDTH 1750 0
DWIDTH 7 0
BBX 6 4 1 7
BITMAP
6C
D8
D8
D8
ENDCHAR
STARTCHAR numbersign
ENCODING 35
SWIDTH 818 0
DWIDTH 9 0
BBX 11 11 -1 0
BITMAP
06C0
06C0
06C0
1FE0
1B00
1B00
1B00
7F80
6C00
6C00
6C00
ENDCHAR
STARTCHAR dollar
ENCODING 36
SWIDTH 600 0
DWIDTH 9 0
BBX 10 15 0 -2
BITMAP
0300
0300
0FC0
1BC0
3780
3600
1E00
0E00
0E00
0F00
6F00
7F00
FC00
1800
1800
ENDCHAR
STARTCHAR percent
ENCODING 37
SWIDTH 1273 0
DWIDTH 14 0
BBX 14 11 0 0
BITMAP
1C0C
37F8
3630
3660
3980
0300
0670
0CD8
31B0
61B0
C0E0
ENDCHAR
STARTCHAR ampersand
ENCODING 38
SWIDTH 1182 0
DWIDTH 13 0
BBX 13 11 0 0
BITMAP
0E00
1B00
1B00
1B00
1C00
1CF0
3660
63C0
C300
C780
7CC0
ENDCHAR
STARTCHAR quotesingle
ENCODING 39
SWIDTH 1250 0
DWIDTH 5 0
BBX 3 4 1 7
BITMAP
60
C0
C0
C0
ENDCHAR
STARTCHAR parenleft
ENCODING 40
SWIDTH 400 0
DWIDTH 6 0
BBX 7 15 0 -3
BITMAP
06
06
0C
0C
30
30
30
30
60
60
60
30
60
30
30
ENDCHAR
STARTCHAR parenright
ENCODING 41
SWIDTH 400 0
DWIDTH 6 0
BBX 7 15 0 -3
BITMAP
18
18
0C
0C
0C
0C
0C
0C
18
18
18
30
60
C0
C0
ENDCHAR
STARTCHAR asterisk
ENCODING 42
SWIDTH 1333 0
DWIDTH 8 0
BBX 7 6 1 5
BITMAP
18
7E
3C
78
FC
30
ENDCHAR
STARTCHAR plus
ENCODING 43
SWIDTH 1429 0
DWIDTH 10 0
BBX 9 7 1 2
BITMAP
0C00
0C00
0C00
7F80
1800
1800
1800
ENDCHAR
STARTCHAR comma
ENCODING 44
SWIDTH 1333 0
DWIDTH 4 0
BBX 3 3 0 -1
BITMAP
60
60
C0
ENDCHAR
STARTCHAR hyphen
ENCODING 45
SWIDTH 6000 0
DWIDTH 6 0
BBX 6 1 0 5
BITMAP
FC
ENDCHAR
STARTCHAR period
ENCODING 46
SWIDTH 2000 0
DWIDTH 4 0
BBX 2 2 0 0
BITMAP
C0
C0
ENDCHAR
STARTCHAR slash
ENCODING 47
SWIDTH 500 0
DWIDTH 6 0
BBX 9 12 -1 -1
BITMAP
0180
0300
0600
0600
0600
1800
1800
3000
3000
6000
C000
C000
ENDCHAR
STARTCHAR zero
ENCODING 48
SWIDTH 818 0
DWIDTH 9 0
BBX 9 11 0 0
BITMAP
0E00
1B00
3180
3180
6300
6300
6300
6300
C600
6C00
3800
ENDCHAR
STARTCHAR one
ENCODING 49
SWIDTH 818 0
DWIDTH 9 0
BBX 8 11 1 0
BITMAP
0C
1C
3C
0C
18
18
18
18
30
30
FC
ENDCHAR
STARTCHAR two
ENCODING 50
SWIDTH 818 0
DWIDTH 9 0
BBX 9 11 0 0
BITMAP
1E00
3300
0180
0180
0300
0600
0C00
1800
6000
C600
FE00
ENDCHAR
STARTCHAR three
ENCODING 51
SWIDTH 818 0
DWIDTH 9 0
BBX 9 11 0 0
BITMAP
1E00
3300
0180
0180
0600
1C00
0600
0300
0600
CC00
7800
ENDCHAR
STARTCHAR four
ENCODING 52
SWIDTH 818 0
DWIDTH 9 0
BBX 9 11 0 0
BITMAP
0180
0380
0780
0780
1B00
3300
3300
6300
FE00
0600
0600
ENDCHAR
STARTCHAR five
ENCODING 53
SWIDTH 818 0
DWIDTH 9 0
BBX 9 11 0 0
BITMAP
1F80
1800
3000
3000
7C00
0600
0300
0300
0600
CC00
7800
ENDCHAR
STARTCHAR six
ENCODING 54
SWIDTH 818 0
DWIDTH 9 0
BBX 9 11 0 0
BITMAP
0380
0E00
1800
1800
7E00
7300
6300
6300
C600
C600
7C00
ENDCHAR
STARTCHAR seven
ENCODING 55
SWIDTH 818 0
DWIDTH 9 0
BBX 9 11 0 0
BITMAP
3F80
3180
0180
0300
0600
0600
0C00
0C00
1800
3000
3000
ENDCHAR
STARTCHAR eight
ENCODING 56
SWIDTH 818 0
DWIDTH 9 0
BBX 9 11 0 0
BITMAP
1F00
3180
3180
3180
6300
3E00
6300
6300
C600
C600
7C00
ENDCHAR
STARTCHAR nine
ENCODING 57
SWIDTH 818 0
DWIDTH 9 0
BBX 9 11 0 0
BITMAP
1F00
3180
3180
3180
6300
6700
3F00
0600
0C00
3800
E000
ENDCHAR
STARTCHAR colon
ENCODING 58
SWIDTH 714 0
DWIDTH 5 0
BBX 3 7 0 0
BITMAP
60
60
00
00
00
C0
C0
ENDCHAR
STARTCHAR semicolon
ENCODING 59
SWIDTH 625 0
DWIDTH 5 0
BBX 5 8 -1 -1
BITMAP
18
30
00
00
00
60
60
C0
ENDCHAR
STARTCHAR less
ENCODING 60
SWIDTH 1429 0
DWIDTH 10 0
BBX 9 7 1 1
BITMAP
0180
0700
1C00
7000
3800
0E00
0300
ENDCHAR
STARTCHAR equal
ENCODING 61
SWIDTH 3333 0
DWIDTH 10 0
BBX 8 3 1 3
BITMAP
FF
00
FF
ENDCHAR
STARTCHAR greater
ENCODING 62
SWIDTH 1429 0
DWIDTH 10 0
BBX 9 7 1 1
BITMAP
6000
3800
0E00
0380
1C00
7000
C000
ENDCHAR
STARTCHAR question
ENCODING 63
SWIDTH 727 0
DWIDTH 8 0
BBX 8 11 0 0
BITMAP
1E
33
03
03
0C
18
18
18
00
30
30
ENDCHAR
STARTCHAR at
ENCODING 64
SWIDTH 1143 0
DWIDTH 16 0
BBX 17 14 0 -3
BITMAP
01F800
070E00
0C0300
180600
31FB00
333300
333300
6CC600
6CC600
6CCC00
67F800
600000
707000
1FC000
ENDCHAR
STARTCHAR A
ENCODING 65
SWIDTH 1091 0
DWIDTH 12 0
BBX 14 11 -1 0
BITMAP
0180
0180
03C0
03C0
0CC0
0CC0
1860
1FE0
6060
6060
F0F0
ENDCHAR
STARTCHAR B
ENCODING 66
SWIDTH 1091 0
DWIDTH 12 0
BBX 12 11 0 0
BITMAP
3F80
18C0
1860
1860
3180
3F80
30C0
3060
60C0
6180
FF00
ENDCHAR
STARTCHAR C
ENCODING 67
SWIDTH 1091 0
DWIDTH 12 0
BBX 12 11 0 0
BITMAP
07F0
1C70
1830
3000
6000
6000
6000
6000
60C0
7180
1F00
ENDCHAR
STARTCHAR D
ENCODING 68
SWIDTH 1182 0
DWIDTH 13 0
BBX 13 11 0 0
BITMAP
3FC0
1870
1830
1818
3030
3030
3030
3030
60C0
61C0
FF00
ENDCHAR
STARTCHAR E
ENCODING 69
SWIDTH 1000 0
DWIDTH 11 0
BBX 11 11 0 0
BITMAP
3FE0
1860
1800
1800
3300
3F00
3300
3000
6000
6180
FF80
ENDCHAR
STARTCHAR F
ENCODING 70
SWIDTH 1000 0
DWIDTH 11 0
BBX 11 11 0 0
BITMAP
3FE0
1860
1800
1800
3300
3F00
3300
3000
6000
6000
F000
ENDCHAR
STARTCHAR G
ENCODING 71
SWIDTH 1182 0
DWIDTH 13 0
BBX 14 11 0 0
BITMAP
07F0
1C70
1830
3000
6000
60F8
6030
6030
60C0
71C0
1F00
ENDCHAR
STARTCHAR H
ENCODING 72
SWIDTH 1182 0
DWIDTH 13 0
BBX 13 11 0 0
BITMAP
3C78
1830
1830
1830
3060
3FE0
3060
3060
60C0
60C0
F1E0
ENDCHAR
STARTCHAR I
ENCODING 73
SWIDTH 545 0
DWIDTH 6 0
BBX 6 11 0 0
BITMAP
3C
18
18
18
30
30
30
30
60
60
F0
ENDCHAR
STARTCHAR J
ENCODING 74
SWIDTH 727 0
DWIDTH 8 0
BBX 8 11 0 0
BITMAP
0F
06
06
06
0C
0C
0C
0C
18
D8
70
ENDCHAR
STARTCHAR K
ENCODING 75
SWIDTH 1091 0
DWIDTH 12 0
BBX 13 11 0 0
BITMAP
3CF0
1860
18C0
1980
3600
3E00
3B00
3180
6180
60C0
F1E0
ENDCHAR
STARTCHAR L
ENCODING 76
SWIDTH 1000 0
DWIDTH 11 0
BBX 11 11 0 0
BITMAP
3C00
1800
1800
1800
3000
3000
3000
3000
6000
6180
FF80
ENDCHAR
STARTCHAR M
ENCODING 77
SWIDTH 1455 0
DWIDTH 16 0
BBX 16 11 0 0
BITMAP
3807
1C0E
1C0E
1E1E
3C3C
366C
366C
33CC
6798
6318
F33C
ENDCHAR
STARTCHAR N
ENCODING 78
SWIDTH 1182 0
DWIDTH 13 0
BBX 13 11 0 0
BITMAP
3878
1C30
1C30
1E30
3660
3660
3360
31E0
63C0
61C0
F0C0
ENDCHAR
STARTCHAR O
ENCODING 79
SWIDTH 1182 0
DWIDTH 13 0
BBX 13 11 0 0
BITMAP
07C0
1C70
1830
3018
6030
6030
6030
6030
60C0
71C0
1F00
ENDCHAR
STARTCHAR P
ENCODING 80
SWIDTH 909 0
DWIDTH 10 0
BBX 10 11 0 0
BITMAP
3F00
1980
18C0
18C0
3300
3E00
3000
3000
6000
6000
F000
ENDCHAR
STARTCHAR Q
ENCODING 81
SWIDTH 1000 0
DWIDTH 13 0
BBX 14 13 0 -2
BITMAP
03E0
0E38
1830
3018
3018
3018
6030
6030
3060
38E0
1F00
0700
0380
ENDCHAR
STARTCHAR R
ENCODING 82
SWIDTH 1000 0
DWIDTH 11 0
BBX 12 11 0 0
BITMAP
3F00
1980
18C0
18C0
3300
3E00
3600
3300
6300
6180
F0C0
ENDCHAR
STARTCHAR S
ENCODING 83
SWIDTH 909 0
DWIDTH 10 0
BBX 10 11 0 0
BITMAP
0FC0
19C0
30C0
3000
3000
1E00
0300
0180
C300
E600
FC00
ENDCHAR
STARTCHAR T
ENCODING 84
SWIDTH 909 0
DWIDTH 10 0
BBX 12 11 -1 0
BITMAP
3FF0
3330
0300
0300
0600
0600
0600
0600
0C00
0C00
1E00
ENDCHAR
STARTCHAR U
ENCODING 85
SWIDTH 1182 0
DWIDTH 13 0
BBX 13 11 0 0
BITMAP
3C78
1830
1830
1830
3060
3060
3060
3060
60C0
3180
1F00
ENDCHAR
STARTCHAR V
ENCODING 86
SWIDTH 1091 0
DWIDTH 12 0
BBX 14 11 -1 0
BITMAP
3C3C
1818
1818
0C30
1860
0CC0
0CC0
0780
0F00
0600
0600
ENDCHAR
STARTCHAR W
ENCODING 87
SWIDTH 1455 0
DWIDTH 16 0
BBX 18 11 -1 0
BITMAP
3FFFC0
199980
199B00
0CF300
19E600
0CCC00
0CCC00
07F800
0FF000
066000
066000
ENDCHAR
STARTCHAR X
ENCODING 88
SWIDTH 1091 0
DWIDTH 12 0
BBX 14 11 -1 0
BITMAP
3C3C
1818
0C30
0660
0780
0300
0780
0CC0
30C0
6060
F0F0
ENDCHAR
STARTCHAR Y
ENCODING 89
SWIDTH 1091 0
DWIDTH 12 0
BBX 14 11 -1 0
BITMAP
3C3C
1818
0C30
0660
0780
0300
0300
0300
0600
0600
0F00
ENDCHAR
STARTCHAR Z
ENCODING 90
SWIDTH 1000 0
DWIDTH 11 0
BBX 12 11 -1 0
BITMAP
1FF0
1860
00C0
00C0
0300
0600
0C00
1800
3000
60C0
FFC0
ENDCHAR
STARTCHAR bracketleft
ENCODING 91
SWIDTH 400 0
DWIDTH 6 0
BBX 7 15 0 -3
BITMAP
1E
18
18
18
30
30
30
30
60
60
60
60
C0
C0
F0
ENDCHAR
STARTCHAR backslash
ENCODING 92
SWIDTH 500 0
DWIDTH 6 0
BBX 9 12 -1 -1
BITMAP
1800
3000
1800
1800
1800
1800
1800
0C00
0C00
1800
0C00
0C00
ENDCHAR
STARTCHAR bracketright
ENCODING 93
SWIDTH 400 0
DWIDTH 6 0
BBX 7 15 0 -3
BITMAP
1E
06
06
06
0C
0C
0C
0C
18
18
18
18
30
30
F0
ENDCHAR
STARTCHAR asciicircum
ENCODING 94
SWIDTH 2667 0
DWIDTH 8 0
BBX 6 3 2 9
BITMAP
30
78
CC
ENDCHAR
STARTCHAR underscore
ENCODING 95
SWIDTH 9000 0
DWIDTH 9 0
BBX 9 1 -2 -4
BITMAP
FF80
ENDCHAR
STARTCHAR grave
ENCODING 96
SWIDTH 2000 0
DWIDTH 6 0
BBX 4 3 1 9
BITMAP
C0
60
30
ENDCHAR
STARTCHAR a
ENCODING 97
SWIDTH 1000 0
DWIDTH 8 0
BBX 9 8 0 0
BITMAP
1E00
6600
0600
3E00
6600
CC00
CC00
7E00
ENDCHAR
STARTCHAR b
ENCODING 98
SWIDTH 667 0
DWIDTH 8 0
BBX 10 12 0 0
BITMAP
1C00
1800
1800
1800
1F00
3B00
3300
3300
3300
6600
6600
3C00
ENDCHAR
STARTCHAR c
ENCODING 99
SWIDTH 875 0
DWIDTH 7 0
BBX 8 8 0 0
BITMAP
1E
66
60
60
60
C0
CC
78
ENDCHAR
STARTCHAR d
ENCODING 100
SWIDTH 667 0
DWIDTH 8 0
BBX 10 12 0 0
BITMAP
0380
0300
0300
0300
1F00
6600
6600
6600
6600
CC00
CC00
7E00
ENDCHAR
STARTCHAR e
ENCODING 101
SWIDTH 875 0
DWIDTH 7 0
BBX 8 8 0 0
BITMAP
1E
66
66
7E
60
C0
CC
78
ENDCHAR
STARTCHAR f
ENCODING 102
SWIDTH 583 0
DWIDTH 7 0
BBX 9 12 0 0
BITMAP
0700
1B00
1800
1800
3C00
3000
3000
3000
3000
6000
6000
F000
ENDCHAR
STARTCHAR g
ENCODING 103
SWIDTH 750 0
DWIDTH 9 0
BBX 12 12 -2 -4
BITMAP
07E0
1980
1980
1980
1980
1E00
3000
3F00
6180
C180
C180
7F00
ENDCHAR
STARTCHAR h
ENCODING 104
SWIDTH 750 0
DWIDTH 9 0
BBX 11 12 0 0
BITMAP
1C00
1800
1800
1800
1F00
3B00
3300
3300
3300
6600
6600
FF00
ENDCHAR
STARTCHAR i
ENCODING 105
SWIDTH 455 0
DWIDTH 5 0
BBX 6 11 0 0
BITMAP
18
00
00
38
30
30
30
30
60
60
F0
ENDCHAR
STARTCHAR j
ENCODING 106
SWIDTH 267 0
DWIDTH 4 0
BBX 6 15 -1 -4
BITMAP
0C
00
00
1C
18
18
18
18
30
30
30
30
60
60
C0
ENDCHAR
STARTCHAR k
ENCODING 107
SWIDTH 833 0
DWIDTH 10 0
BBX 12 12 0 0
BITMAP
1C00
1800
1800
1800
1BC0
3300
3600
3C00
3E00
6600
6300
F780
ENDCHAR
STARTCHAR l
ENCODING 108
SWIDTH 417 0
DWIDTH 5 0
BBX 7 12 0 0
BITMAP
1C
18
18
18
18
30
30
30
30
60
60
F0
ENDCHAR
STARTCHAR m
ENCODING 109
SWIDTH 1625 0
DWIDTH 13 0
BBX 14 8 0 0
BITMAP
3F70
3BB0
3330
3330
3330
6660
6660
FFF0
ENDCHAR
STARTCHAR n
ENCODING 110
SWIDTH 1125 0
DWIDTH 9 0
BBX 10 8 0 0
BITMAP
3F00
3B00
3300
3300
3300
6600
6600
FF00
ENDCHAR
STARTCHAR o
ENCODING 111
SWIDTH 875 0
DWIDTH 7 0
BBX 8 8 0 0
BITMAP
1E
66
66
66
66
CC
CC
78
ENDCHAR
STARTCHAR p
ENCODING 112
SWIDTH 750 0
DWIDTH 9 0
BBX 10 12 -1 -4
BITMAP
1F80
1D80
1980
1980
1980
3300
3300
3E00
3000
6000
6000
F000
ENDCHAR
STARTCHAR q
ENCODING 113
SWIDTH 667 0
DWIDTH 8 0
BBX 10 12 -1 -4
BITMAP
0F80
3700
3300
3300
3300
6600
6600
3E00
0600
0C00
0C00
1E00
ENDCHAR
STARTCHAR r
ENCODING 114
SWIDTH 1000 0
DWIDTH 8 0
BBX 9 8 0 0
BITMAP
3F00
3B00
3000
3000
3000
6000
6000
F000
ENDCHAR
STARTCHAR s
ENCODING 115
SWIDTH 750 0
DWIDTH 6 0
BBX 7 8 0 0
BITMAP
1E
6C
60
38
0C
18
D8
F0
ENDCHAR
STARTCHAR t
ENCODING 116
SWIDTH 600 0
DWIDTH 6 0
BBX 7 10 0 0
BITMAP
18
18
3C
30
30
30
30
60
78
30
ENDCHAR
STARTCHAR u
ENCODING 117
SWIDTH 1125 0
DWIDTH 9 0
BBX 10 8 0 0
BITMAP
3B80
3300
3300
3300
3300
6600
6E00
3F00
ENDCHAR
STARTCHAR v
ENCODING 118
SWIDTH 1125 0
DWIDTH 9 0
BBX 10 8 0 0
BITMAP
3FC0
3300
3300
1E00
1E00
3C00
1800
1800
ENDCHAR
STARTCHAR w
ENCODING 119
SWIDTH 1625 0
DWIDTH 13 0
BBX 14 8 0 0
BITMAP
3FFC
3330
3330
1FE0
1FE0
3FC0
1980
1980
ENDCHAR
STARTCHAR x
ENCODING 120
SWIDTH 1125 0
DWIDTH 9 0
BBX 10 8 0 0
BITMAP
39C0
3300
1E00
0C00
0C00
3C00
6600
E700
ENDCHAR
STARTCHAR y
ENCODING 121
SWIDTH 750 0
DWIDTH 9 0
BBX 11 12 -1 -4
BITMAP
1FE0
1980
1980
0F00
0F00
1E00
0C00
0C00
1800
3000
F000
E000
ENDCHAR
STARTCHAR z
ENCODING 122
SWIDTH 1000 0
DWIDTH 8 0
BBX 9 8 0 0
BITMAP
3F80
6600
0C00
0C00
1800
3000
6600
FE00
ENDCHAR
STARTCHAR braceleft
ENCODING 123
SWIDTH 533 0
DWIDTH 8 0
BBX 9 15 0 -3
BITMAP
0380
0600
0600
0600
0C00
0C00
0C00
3800
1800
1800
1800
1800
3000
3000
1C00
ENDCHAR
STARTCHAR bar
ENCODING 124
SWIDTH 333 0
DWIDTH 4 0
BBX 5 12 0 -1
BITMAP
18
30
30
30
30
60
60
60
60
C0
C0
C0
ENDCHAR
STARTCHAR braceright
ENCODING 125
SWIDTH 533 0
DWIDTH 8 0
BBX 9 15 0 -3
BITMAP
1C00
0600
0600
0600
0C00
0C00
0C00
0700
1800
1800
1800
1800
3000
3000
E000
ENDCHAR
STARTCHAR asciitilde
ENCODING 126
SWIDTH 3333 0
DWIDTH 10 0
BBX 8 3 2 9
BITMAP
70
DB
0E
ENDCHAR
STARTCHAR bullet
ENCODING 149
SWIDTH 1750 0
DWIDTH 7 0
BBX 6 4 1 2
BITMAP
38
F8
F8
70
ENDCHAR
STARTCHAR space
ENCODING 154
SWIDTH 313 0
DWIDTH 5 0
BBX 0 0 -1 0
BITMAP
ENDCHAR
STARTCHAR degree
ENCODING 156
SWIDTH 2000 0
DWIDTH 6 0
BBX 5 3 2 8
BITMAP
70
D8
70
ENDCHAR
STARTCHAR twosuperior
ENCODING 157
SWIDTH 833 0
DWIDTH 5 0
BBX 6 6 0 5
BITMAP
38
6C
18
60
C0
F8
ENDCHAR
STARTCHAR periodcentered
ENCODING 158
SWIDTH 3500 0
DWIDTH 7 0
BBX 3 2 3 4
BITMAP
E0
E0
ENDCHAR
STARTCHAR afii10071
ENCODING 163
SWIDTH 545 0
DWIDTH 6 0
BBX 8 11 0 0
BITMAP
1E
1E
00
1E
66
66
7E
60
C0
CC
78
ENDCHAR
STARTCHAR afii10023
ENCODING 179
SWIDTH 692 0
DWIDTH 9 0
BBX 12 13 0 0
BITMAP
0EE0
0000
3FE0
1860
1800
1800
3300
3F00
3300
3000
6000
6180
FF80
ENDCHAR
STARTCHAR copyright
ENCODING 191
SWIDTH 1273 0
DWIDTH 14 0
BBX 14 11 0 0
BITMAP
07E0
1C38
1BD8
366C
6C18
6C18
6C18
7CD8
6F60
70E0
1F80
ENDCHAR
STARTCHAR afii10096
ENCODING 192
SWIDTH 1625 0
DWIDTH 13 0
BBX 13 8 0 0
BITMAP
3DF0
3630
3630
3E30
3630
6C60
6C60
F7C0
ENDCHAR
STARTCHAR afii10065
ENCODING 193
SWIDTH 1000 0
DWIDTH 8 0
BBX 9 8 0 0
BITMAP
1E00
6600
0600
3E00
6600
CC00
CC00
7E00
ENDCHAR
STARTCHAR afii10066
ENCODING 194
SWIDTH 636 0
DWIDTH 7 0
BBX 8 11 0 0
BITMAP
03
1E
30
3E
76
66
66
66
CC
CC
78
ENDCHAR
STARTCHAR afii10088
ENCODING 195
SWIDTH 900 0
DWIDTH 9 0
BBX 10 10 0 -2
BITMAP
3FC0
1980
1980
3300
3300
3300
3300
FF00
0300
0300
ENDCHAR
STARTCHAR afii10069
ENCODING 196
SWIDTH 900 0
DWIDTH 9 0
BBX 10 10 0 -2
BITMAP
1FC0
0D80
0D80
1B00
1B00
1B00
3300
FF00
C300
C300
ENDCHAR
STARTCHAR afii10070
ENCODING 197
SWIDTH 875 0
DWIDTH 7 0
BBX 8 8 0 0
BITMAP
1E
66
66
7E
60
C0
CC
78
ENDCHAR
STARTCHAR afii10086
ENCODING 198
SWIDTH 714 0
DWIDTH 10 0
BBX 11 14 -1 -4
BITMAP
0780
0300
0FC0
36C0
36C0
36C0
36C0
6D80
6D80
3F00
0C00
1800
1800
3C00
ENDCHAR
STARTCHAR afii10068
ENCODING 199
SWIDTH 1000 0
DWIDTH 8 0
BBX 9 8 0 0
BITMAP
3F80
3300
3000
3000
3000
6000
6000
F000
ENDCHAR
STARTCHAR afii10087
ENCODING 200
SWIDTH 1125 0
DWIDTH 9 0
BBX 10 8 0 0
BITMAP
39C0
3300
1E00
0C00
0C00
3C00
6600
E700
ENDCHAR
STARTCHAR afii10074
ENCODING 201
SWIDTH 1250 0
DWIDTH 10 0
BBX 11 8 0 0
BITMAP
3DE0
3380
3780
3780
3D80
7B00
7300
F780
ENDCHAR
STARTCHAR afii10075
ENCODING 202
SWIDTH 909 0
DWIDTH 10 0
BBX 11 11 0 0
BITMAP
0D80
0700
0000
3DE0
3380
3780
3780
3D80
7B00
7300
F780
ENDCHAR
STARTCHAR afii10076
ENCODING 203
SWIDTH 1125 0
DWIDTH 9 0
BBX 10 8 0 0
BITMAP
3FC0
3300
3600
3C00
3600
6600
6600
FF00
ENDCHAR
STARTCHAR afii10077
ENCODING 204
SWIDTH 1125 0
DWIDTH 9 0
BBX 10 8 0 0
BITMAP
1FC0
1B00
1B00
1B00
1B00
3600
3600
EF00
ENDCHAR
STARTCHAR afii10078
ENCODING 205
SWIDTH 1375 0
DWIDTH 11 0
BBX 12 8 0 0
BITMAP
3870
39C0
39C0
3FC0
3FC0
6D80
6D80
F3C0
ENDCHAR
STARTCHAR afii10079
ENCODING 206
SWIDTH 1125 0
DWIDTH 9 0
BBX 10 8 0 0
BITMAP
3FC0
3300
3300
3F00
3300
6600
6600
FF00
ENDCHAR
STARTCHAR afii10080
ENCODING 207
SWIDTH 1000 0
DWIDTH 8 0
BBX 9 8 0 0
BITMAP
1F00
6300
6300
6300
6300
C600
C600
7C00
ENDCHAR
STARTCHAR afii10081
ENCODING 208
SWIDTH 1125 0
DWIDTH 9 0
BBX 10 8 0 0
BITMAP
3FC0
3300
3300
3300
3300
6600
6600
FF00
ENDCHAR
STARTCHAR afii10097
ENCODING 209
SWIDTH 1125 0
DWIDTH 9 0
BBX 10 8 0 0
BITMAP
0FC0
3300
3300
3300
1F00
3600
6600
EF00
ENDCHAR
STARTCHAR afii10082
ENCODING 210
SWIDTH 750 0
DWIDTH 9 0
BBX 10 12 -1 -4
BITMAP
1F80
1980
1980
1980
1980
3300
3300
3E00
3000
6000
6000
F000
ENDCHAR
STARTCHAR afii10083
ENCODING 211
SWIDTH 875 0
DWIDTH 7 0
BBX 8 8 0 0
BITMAP
1E
66
60
60
60
C0
CC
78
ENDCHAR
STARTCHAR afii10084
ENCODING 212
SWIDTH 1125 0
DWIDTH 9 0
BBX 10 8 0 0
BITMAP
3FC0
6D80
0C00
0C00
0C00
1800
1800
3C00
ENDCHAR
STARTCHAR afii10085
ENCODING 213
SWIDTH 750 0
DWIDTH 9 0
BBX 11 12 -1 -4
BITMAP
1FE0
1980
1980
0F00
0F00
1E00
0C00
0C00
1800
3000
F000
E000
ENDCHAR
STARTCHAR afii10072
ENCODING 214
SWIDTH 1875 0
DWIDTH 15 0
BBX 14 8 1 0
BITMAP
3FFC
3330
1B60
0FC0
1B60
6660
6660
FFF0
ENDCHAR
STARTCHAR afii10067
ENCODING 215
SWIDTH 1000 0
DWIDTH 8 0
BBX 9 8 0 0
BITMAP
3E00
3600
3600
3E00
3300
6600
6600
FC00
ENDCHAR
STARTCHAR afii10094
ENCODING 216
SWIDTH 1000 0
DWIDTH 8 0
BBX 9 8 0 0
BITMAP
3C00
3000
3000
3E00
3300
6600
6600
FC00
ENDCHAR
STARTCHAR afii10093
ENCODING 217
SWIDTH 1500 0
DWIDTH 12 0
BBX 13 8 0 0
BITMAP
3C78
3060
3060
3E60
3360
66C0
66C0
FDE0
ENDCHAR
STARTCHAR afii10073
ENCODING 218
SWIDTH 1000 0
DWIDTH 8 0
BBX 9 8 0 0
BITMAP
1F00
6300
0300
0E00
0300
0600
C600
7C00
ENDCHAR
STARTCHAR afii10090
ENCODING 219
SWIDTH 1625 0
DWIDTH 13 0
BBX 14 8 0 0
BITMAP
3FFC
3330
3330
3330
3330
6660
6660
FFF0
ENDCHAR
STARTCHAR afii10095
ENCODING 220
SWIDTH 1000 0
DWIDTH 8 0
BBX 9 8 0 0
BITMAP
1F00
6300
0300
1F00
0300
0600
C600
7C00
ENDCHAR
STARTCHAR afii10091
ENCODING 221
SWIDTH 1300 0
DWIDTH 13 0
BBX 14 10 0 -2
BITMAP
3FFC
1998
1998
3330
3330
3330
3330
FFF0
0030
0030
ENDCHAR
STARTCHAR afii10089
ENCODING 222
SWIDTH 1125 0
DWIDTH 9 0
BBX 10 8 0 0
BITMAP
3FC0
3300
3300
3300
1F00
0600
0600
0F00
ENDCHAR
STARTCHAR afii10092
ENCODING 223
SWIDTH 1125 0
DWIDTH 9 0
BBX 10 8 0 0
BITMAP
3E00
7800
1800
1F00
1980
3300
3300
7E00
ENDCHAR
STARTCHAR afii10048
ENCODING 224
SWIDTH 1636 0
DWIDTH 18 0
BBX 18 11 0 0
BITMAP
3C3E00
18E380
18C180
1980C0
330180
3F0180
330180
330180
630600
638E00
F0F800
ENDCHAR
STARTCHAR afii10017
ENCODING 225
SWIDTH 1091 0
DWIDTH 12 0
BBX 14 11 -1 0
BITMAP
0180
0180
03C0
03C0
0CC0
0CC0
1860
1FE0
6060
6060
F0F0
ENDCHAR
STARTCHAR afii10018
ENCODING 226
SWIDTH 1091 0
DWIDTH 12 0
BBX 12 11 0 0
BITMAP
3FE0
1860
1800
1800
3F80
30C0
3060
3060
60C0
6180
FF00
ENDCHAR
STARTCHAR afii10040
ENCODING 227
SWIDTH 1000 0
DWIDTH 13 0
BBX 14 13 0 -2
BITMAP
1E3C
0C18
1830
1830
1830
1830
3060
3060
3060
3060
FFE0
0060
0060
ENDCHAR
STARTCHAR afii10021
ENCODING 228
SWIDTH 923 0
DWIDTH 12 0
BBX 13 13 0 -2
BITMAP
0FF8
0630
0C60
0C60
0C60
0C60
18C0
18C0
18C0
30C0
FFC0
C0C0
C0C0
ENDCHAR
STARTCHAR afii10022
ENCODING 229
SWIDTH 1000 0
DWIDTH 11 0
BBX 11 11 0 0
BITMAP
3FE0
1860
1800
1800
3300
3F00
3300
3000
6000
6180
FF80
ENDCHAR
STARTCHAR afii10038
ENCODING 230
SWIDTH 875 0
DWIDTH 14 0
BBX 16 16 0 -3
BITMAP
00F0
00C0
07F8
0CCC
18C6
318C
318C
318C
318C
6318
6318
3330
1FE0
0600
0600
0F00
ENDCHAR
STARTCHAR afii10020
ENCODING 231
SWIDTH 909 0
DWIDTH 10 0
BBX 11 11 0 0
BITMAP
3FE0
1860
1800
1800
3000
3000
3000
3000
6000
6000
F000
ENDCHAR
STARTCHAR afii10039
ENCODING 232
SWIDTH 1273 0
DWIDTH 14 0
BBX 14 11 0 0
BITMAP
3C3C
1818
0C30
0660
0780
0300
0780
0CC0
30C0
6060
F0F0
ENDCHAR
STARTCHAR afii10026
ENCODING 233
SWIDTH 1182 0
DWIDTH 13 0
BBX 13 11 0 0
BITMAP
3C78
1830
1830
1870
31E0
3360
3660
3C60
70C0
60C0
F1E0
ENDCHAR
STARTCHAR afii10027
ENCODING 234
SWIDTH 1000 0
DWIDTH 13 0
BBX 14 13 0 0
BITMAP
0360
03C0
3C78
1830
1830
1870
31E0
3360
3660
3C60
70C0
60C0
F1E0
ENDCHAR
STARTCHAR afii10028
ENCODING 235
SWIDTH 1091 0
DWIDTH 12 0
BBX 13 11 0 0
BITMAP
3CF0
1860
18C0
1980
3600
3E00
3B00
3180
6180
60C0
F1E0
ENDCHAR
STARTCHAR afii10029
ENCODING 236
SWIDTH 1182 0
DWIDTH 13 0
BBX 13 11 0 0
BITMAP
0FF8
0630
0630
0630
0C60
0C60
0C60
0C60
18C0
18C0
F1E0
ENDCHAR
STARTCHAR afii10030
ENCODING 237
SWIDTH 1455 0
DWIDTH 16 0
BBX 16 11 0 0
BITMAP
3807
1C0E
1C0E
1E1E
3C3C
366C
366C
33CC
6798
6318
F33C
ENDCHAR
STARTCHAR afii10031
ENCODING 238
SWIDTH 1182 0
DWIDTH 13 0
BBX 13 11 0 0
BITMAP
3C78
1830
1830
1830
3060
3FE0
3060
3060
60C0
60C0
F1E0
ENDCHAR
STARTCHAR afii10032
ENCODING 239
SWIDTH 1182 0
DWIDTH 13 0
BBX 13 11 0 0
BITMAP
07C0
1C70
1830
3018
6030
6030
6030
6030
60C0
71C0
1F00
ENDCHAR
STARTCHAR afii10033
ENCODING 240
SWIDTH 1182 0
DWIDTH 13 0
BBX 13 11 0 0
BITMAP
3FF8
1830
1830
1830
3060
3060
3060
3060
60C0
60C0
F1E0
ENDCHAR
STARTCHAR afii10049
ENCODING 241
SWIDTH 1273 0
DWIDTH 14 0
BBX 14 11 0 0
BITMAP
07FC
0C18
0C18
0C18
1830
0FF0
0630
0C30
3060
3060
F0F0
ENDCHAR
STARTCHAR afii10034
ENCODING 242
SWIDTH 1091 0
DWIDTH 12 0
BBX 12 11 0 0
BITMAP
3FC0
1860
1830
1830
3060
30C0
3F80
3000
6000
6000
F000
ENDCHAR
STARTCHAR afii10035
ENCODING 243
SWIDTH 1091 0
DWIDTH 12 0
BBX 13 11 0 0
BITMAP
07F0
1C70
1830
3000
6000
6000
6000
6030
60C0
71C0
1F00
ENDCHAR
STARTCHAR afii10036
ENCODING 244
SWIDTH 1091 0
DWIDTH 12 0
BBX 12 11 0 0
BITMAP
3FF0
3330
0300
0300
0600
0600
0600
0600
0C00
0C00
1E00
ENDCHAR
STARTCHAR afii10037
ENCODING 245
SWIDTH 1182 0
DWIDTH 13 0
BBX 14 11 0 0
BITMAP
3C3C
1818
0C30
0630
0CC0
06C0
0780
0380
0600
0600
3C00
ENDCHAR
STARTCHAR afii10024
ENCODING 246
SWIDTH 1727 0
DWIDTH 19 0
BBX 20 11 0 0
BITMAP
1E79E0
0C30C0
063180
033300
036C00
03FC00
06F600
0C6300
30C300
60C180
F1E3C0
ENDCHAR
STARTCHAR afii10019
ENCODING 247
SWIDTH 1091 0
DWIDTH 12 0
BBX 12 11 0 0
BITMAP
3F80
18C0
1860
1860
3180
3F80
30C0
3060
60C0
6180
FF00
ENDCHAR
STARTCHAR afii10046
ENCODING 248
SWIDTH 1091 0
DWIDTH 12 0
BBX 12 11 0 0
BITMAP
3C00
1800
1800
1800
3F80
30C0
3060
3060
60C0
6180
FF00
ENDCHAR
STARTCHAR afii10045
ENCODING 249
SWIDTH 1455 0
DWIDTH 16 0
BBX 16 11 0 0
BITMAP
3C0F
1806
1806
1806
3F8C
30CC
306C
306C
60D8
6198
FF3C
ENDCHAR
STARTCHAR afii10025
ENCODING 250
SWIDTH 1000 0
DWIDTH 11 0
BBX 11 11 0 0
BITMAP
1F80
30C0
0060
0060
0180
0F00
0180
00C0
0180
C300
7E00
ENDCHAR
STARTCHAR afii10042
ENCODING 251
SWIDTH 1636 0
DWIDTH 18 0
BBX 18 11 0 0
BITMAP
3CF3C0
186180
186180
186180
30C300
30C300
30C300
30C300
618600
618600
FFFF00
ENDCHAR
STARTCHAR afii10047
ENCODING 252
SWIDTH 1000 0
DWIDTH 11 0
BBX 11 11 0 0
BITMAP
0F80
18C0
3060
0060
00C0
1FC0
00C0
00C0
C180
6300
3E00
ENDCHAR
STARTCHAR afii10043
ENCODING 253
SWIDTH 1385 0
DWIDTH 18 0
BBX 19 13 0 -2
BITMAP
1E79E0
0C30C0
186180
186180
186180
186180
30C300
30C300
30C300
30C300
FFFF00
000300
000300
ENDCHAR
STARTCHAR afii10041
ENCODING 254
SWIDTH 1182 0
DWIDTH 13 0
BBX 13 11 0 0
BITMAP
3C78
1830
1830
1830
3060
1FE0
0060
0060
00C0
00C0
01E0
ENDCHAR
STARTCHAR afii10044
ENCODING 255
SWIDTH 1273 0
DWIDTH 14 0
BBX 14 11 0 0
BITMAP
3F00
3600
0600
0600
0FE0
0C30
0C18
0C18
1830
1860
3FC0
ENDCHAR
ENDFONT
