STARTFONT 2.1
COMMENT Copyright (C) 1990-1991 EWT Consulting
COMMENT Portions Copyright (C) 1994-1995 Cronyx Ltd.
COMMENT Changes Copyright (C) 1996-1997 by Andrey A. Chernov, Moscow, Russia.
COMMENT Modified by Serge Vakulenko, <vak@cronyx.ru>
COMMENT Changes 1999 by Serge Winitzki.
COMMENT This software may be used, modified, copied, distributed, and sold,
COMMENT in both source and binary form provided that the copyright
COMMENT and these terms are retained. Under no circumstances is the author
COMMENT responsible for the proper functioning of this software, nor does
COMMENT the author assume any responsibility for damages incurred with its use.
COMMENT $XFree86$
FONT -Cronyx-Helvetica-Medium-O-Normal--34-240-100-100-P-130-KOI8-R
SIZE 24 96 96
FONTBOUNDINGBOX 39 33 -2 -7
STARTPROPERTIES 21
DEFAULT_CHAR 32
FONT_ASCENT 29
FONT_DESCENT 8
SPACING "P"
FONTNAME_REGISTRY ""
FOUNDRY "Cronyx"
FAMILY_NAME "Helvetica"
WEIGHT_NAME "Medium"
SLANT "O"
SETWIDTH_NAME "Normal"
ADD_STYLE_NAME ""
AVERAGE_WIDTH 130
CHARSET_REGISTRY "KOI8"
CHARSET_ENCODING "R"
PIXEL_SIZE 34
POINT_SIZE 240
RESOLUTION_X 100
RESOLUTION_Y 100
COPYRIGHT "Copyright (C) 1990, 1991 EWT Consulting, Portions Copyright (C) 1994 Cronyx Ltd., Portions Copyright (C) 1996-1997 by Andrey A. Chernov, Moscow, Russia."
_XMBDFED_INFO "Edited with xmbdfed 3.8."
_XFREE86_GLYPH_RANGES "32_126 149 154 156_158 163 179 191_255"
ENDPROPERTIES
CHARS 167
STARTCHAR space
ENCODING 32
SWIDTH 281 0
DWIDTH 9 0
BBX 0 0 -1 0
BITMAP
ENDCHAR
STARTCHAR exclam
ENCODING 33
SWIDTH 281 0
DWIDTH 9 0
BBX 8 23 2 0
BITMAP
07
07
07
07
0E
0E
0E
0E
1C
1C
1C
1C
38
38
10
10
20
00
00
00
E0
E0
E0
ENDCHAR
STARTCHAR quotedbl
ENCODING 34
SWIDTH 343 0
DWIDTH 11 0
BBX 11 8 3 15
BITMAP
38E0
71C0
71C0
71C0
71C0
4100
4100
4100
ENDCHAR
STARTCHAR numbersign
ENCODING 35
SWIDTH 562 0
DWIDTH 18 0
BBX 21 23 0 0
BITMAP
001860
001860
001860
001860
0071C0
006180
07FFF0
07FFF0
00C300
01C700
018600
018600
030C00
071C00
061800
3FFF80
7FFF00
0C3000
1C7000
186000
30C000
30C000
30C000
ENDCHAR
STARTCHAR dollar
ENCODING 36
SWIDTH 562 0
DWIDTH 18 0
BBX 23 28 0 -3
BITMAP
000300
000600
001F80
007FE0
00F6F0
01CCE0
038C70
038C70
038C00
039800
03D800
01F800
00FE00
007F00
003F80
0033C0
0031C0
0061C0
3861C0
3861C0
3861C0
38C700
3CCF00
1FFE00
07F800
018000
018000
018000
ENDCHAR
STARTCHAR percent
ENCODING 37
SWIDTH 875 0
DWIDTH 28 0
BBX 29 23 1 0
BITMAP
00F00700
03FC0600
030C0E00
06060C00
0C0C3800
0C0C3000
0C0C7000
06186000
0FF1C000
03C18000
00038000
00030000
000E0000
000C1E00
001C7F80
00186180
00718180
00618180
00E18180
00C18180
03818600
0301FE00
07007800
ENDCHAR
STARTCHAR ampersand
ENCODING 38
SWIDTH 687 0
DWIDTH 22 0
BBX 25 23 1 0
BITMAP
00180000
007E0000
00FF0000
00E70000
03870000
03870000
03870000
01CE0000
03FC0000
01F80000
03F00000
07F80000
1E78E000
1C3CE000
3C1FC000
380FC000
700F0000
70070000
780F8000
3C1FC000
7FFBC000
3FF1E000
0FC0F000
ENDCHAR
STARTCHAR quotesingle
ENCODING 39
SWIDTH 218 0
DWIDTH 7 0
BBX 5 8 4 15
BITMAP
38
70
70
70
70
40
40
40
ENDCHAR
STARTCHAR parenleft
ENCODING 40
SWIDTH 343 0
DWIDTH 11 0
BBX 14 30 1 -7
BITMAP
000C
001C
0038
00E0
00E0
01C0
01C0
0380
0700
0700
0700
0E00
0E00
0E00
0E00
1C00
1C00
1C00
1C00
3800
3800
3800
1C00
3800
3800
1C00
1C00
1C00
0E00
0600
ENDCHAR
STARTCHAR parenright
ENCODING 41
SWIDTH 343 0
DWIDTH 11 0
BBX 14 30 -1 -7
BITMAP
0180
01C0
00E0
00E0
00E0
0070
0070
00E0
0070
0070
0070
00E0
00E0
00E0
00E0
01C0
01C0
01C0
01C0
0380
0380
0380
0700
0E00
0E00
1C00
1C00
7000
E000
C000
ENDCHAR
STARTCHAR asterisk
ENCODING 42
SWIDTH 375 0
DWIDTH 12 0
BBX 12 9 3 14
BITMAP
0300
0300
36C0
7FE0
1F80
0F00
3F00
7380
2100
ENDCHAR
STARTCHAR plus
ENCODING 43
SWIDTH 593 0
DWIDTH 19 0
BBX 21 19 1 2
BITMAP
001C00
001C00
001C00
001C00
003800
003800
003800
003800
3FFFE0
3FFFE0
3FFFE0
007000
00E000
00E000
00E000
00E000
01C000
01C000
01C000
ENDCHAR
STARTCHAR comma
ENCODING 44
SWIDTH 281 0
DWIDTH 9 0
BBX 4 6 2 -3
BITMAP
70
70
70
20
40
80
ENDCHAR
STARTCHAR hyphen
ENCODING 45
SWIDTH 312 0
DWIDTH 10 0
BBX 8 2 1 6
BITMAP
FF
FF
ENDCHAR
STARTCHAR period
ENCODING 46
SWIDTH 281 0
DWIDTH 9 0
BBX 3 3 2 0
BITMAP
E0
E0
E0
ENDCHAR
STARTCHAR slash
ENCODING 47
SWIDTH 281 0
DWIDTH 9 0
BBX 14 23 -1 0
BITMAP
001C
001C
001C
0038
0070
0070
00E0
00E0
01C0
0380
0380
0380
0700
0E00
0E00
0E00
3800
3800
3800
3800
E000
E000
E000
ENDCHAR
STARTCHAR zero
ENCODING 48
SWIDTH 562 0
DWIDTH 18 0
BBX 19 23 1 0
BITMAP
003C00
00FF00
01FF80
03C3C0
070380
0F03C0
0E01C0
0E01C0
1C0380
1C0380
1C0380
1C0380
380700
380700
380700
380700
700E00
781E00
381C00
3C3C00
3FF000
1FE000
078000
ENDCHAR
STARTCHAR one
ENCODING 49
SWIDTH 500 0
DWIDTH 16 0
BBX 11 23 3 0
BITMAP
0060
0060
00E0
01E0
0FC0
0FC0
0FC0
01C0
0380
0380
0380
0380
0700
0700
0700
0700
0E00
0E00
0E00
0E00
1C00
1C00
1C00
ENDCHAR
STARTCHAR two
ENCODING 50
SWIDTH 562 0
DWIDTH 18 0
BBX 21 23 0 0
BITMAP
001E00
007F80
00FFC0
01E1E0
0381C0
0700E0
0700E0
0000E0
0001C0
000380
000780
001F00
00FC00
01F000
03C000
078000
1E0000
1C0000
380000
380000
FFFF00
FFFF00
FFFF00
ENDCHAR
STARTCHAR three
ENCODING 51
SWIDTH 562 0
DWIDTH 18 0
BBX 21 23 0 0
BITMAP
001E00
007F80
00FFC0
01E1E0
0381C0
0700E0
0700E0
0000E0
000380
003F80
003F00
003F80
000780
000380
0001C0
0001C0
700380
700380
380700
3C0F00
3FFC00
1FF800
07E000
ENDCHAR
STARTCHAR four
ENCODING 52
SWIDTH 562 0
DWIDTH 18 0
BBX 21 23 0 0
BITMAP
0003C0
0007C0
0007C0
000FC0
003F80
003B80
007B80
00F380
01C700
03C700
078700
070700
1E0E00
1C0E00
3C0E00
3FFFC0
7FFF80
7FFF80
001C00
001C00
003800
003800
003800
ENDCHAR
STARTCHAR five
ENCODING 53
SWIDTH 562 0
DWIDTH 18 0
BBX 21 23 0 0
BITMAP
00FFF0
00FFF0
00FFF0
00E000
038000
038000
038000
03BF00
0FFF80
0FFFC0
0F03C0
0E01E0
0001C0
0001C0
0001C0
0001C0
700380
700380
380700
3C0F00
3FFC00
1FF800
07E000
ENDCHAR
STARTCHAR six
ENCODING 54
SWIDTH 562 0
DWIDTH 18 0
BBX 20 23 1 0
BITMAP
003E00
00FF80
01FFC0
03E3C0
0701C0
0F01C0
0E0000
0E0000
1C7800
1DFE00
1FFF00
1F8F80
3C0700
3C0780
380380
380380
700700
780F00
380E00
3E3E00
3FF800
1FF000
07C000
ENDCHAR
STARTCHAR seven
ENCODING 55
SWIDTH 562 0
DWIDTH 18 0
BBX 21 23 0 0
BITMAP
07FFF8
07FFF8
07FFF8
000078
0001E0
0003C0
000380
000780
000E00
001E00
001C00
003C00
007000
007000
00F000
00E000
01C000
03C000
038000
038000
070000
070000
070000
ENDCHAR
STARTCHAR eight
ENCODING 56
SWIDTH 562 0
DWIDTH 18 0
BBX 21 23 0 0
BITMAP
001E00
007F80
00FFC0
01E1E0
0381C0
0700E0
0700E0
0700E0
070380
07FF80
03FF00
07FF80
1E0780
1C0380
3801C0
3801C0
700380
700380
380700
3C0F00
3FFC00
1FF800
07E000
ENDCHAR
STARTCHAR nine
ENCODING 57
SWIDTH 562 0
DWIDTH 18 0
BBX 20 23 0 0
BITMAP
003E00
00FF80
01FFC0
03E3E0
0701C0
0F01E0
0E00E0
0E00E0
1C01C0
1E03C0
0E03C0
0F8FC0
0FFF80
07FB80
01E380
000380
000700
380F00
380E00
1E3E00
3FF800
1FF000
07C000
ENDCHAR
STARTCHAR colon
ENCODING 58
SWIDTH 281 0
DWIDTH 9 0
BBX 7 16 2 0
BITMAP
0E
1C
1C
00
00
00
00
00
00
00
00
00
00
E0
E0
E0
ENDCHAR
STARTCHAR semicolon
ENCODING 59
SWIDTH 281 0
DWIDTH 9 0
BBX 7 19 2 -3
BITMAP
0E
0E
0E
00
00
00
00
00
00
00
00
00
00
70
70
70
20
40
80
ENDCHAR
STARTCHAR less
ENCODING 60
SWIDTH 593 0
DWIDTH 19 0
BBX 20 16 1 3
BITMAP
000030
0001E0
0007E0
001F80
007E00
03F000
0FC000
3F0000
3F0000
1F8000
07E000
01F800
007E00
003F00
000F00
000300
ENDCHAR
STARTCHAR equal
ENCODING 61
SWIDTH 593 0
DWIDTH 19 0
BBX 19 9 1 7
BITMAP
3FFFE0
3FFFE0
7FFFC0
000000
000000
000000
FFFF80
FFFF80
FFFF80
ENDCHAR
STARTCHAR greater
ENCODING 62
SWIDTH 593 0
DWIDTH 19 0
BBX 20 16 2 3
BITMAP
0C0000
1E0000
1F8000
07E000
01F800
00FC00
003F00
000FC0
000FC0
007E00
01F800
07E000
1F8000
FC0000
F00000
C00000
ENDCHAR
STARTCHAR question
ENCODING 63
SWIDTH 531 0
DWIDTH 17 0
BBX 20 23 0 0
BITMAP
003E00
00FF80
01FFC0
03C1E0
0701C0
0E00E0
0E00E0
0000E0
0001C0
000380
000780
000F00
003C00
007800
007000
00E000
01C000
000000
000000
000000
038000
038000
038000
ENDCHAR
STARTCHAR at
ENCODING 64
SWIDTH 937 0
DWIDTH 30 0
BBX 34 26 0 -3
BITMAP
00007F0000
0003FFE000
000F80F800
0038003800
0070001C00
00E0000E00
01C03C0600
0301FD8600
0603878600
0606030300
0606030300
1818060600
18180C0600
18300C0600
18300C0C00
3060301800
1860703000
1830F87000
181FDFE000
181F1F0000
1C00000000
0E00000000
0780000000
07C0380000
01FFF00000
003FC00000
ENDCHAR
STARTCHAR A
ENCODING 65
SWIDTH 687 0
DWIDTH 22 0
BBX 26 23 0 0
BITMAP
0007C000
0007C000
000FE000
000FE000
001DC000
003DE000
0038E000
0038E000
00F1E000
00E0E000
01E0F000
01C07000
0380E000
0780F000
07007000
07FFF000
1FFFF000
1FFFF000
3C007800
38003800
70007000
F0007800
E0003800
ENDCHAR
STARTCHAR B
ENCODING 66
SWIDTH 656 0
DWIDTH 21 0
BBX 22 23 2 0
BITMAP
07FF80
07FFE0
07FFF0
070070
0E0070
0E0070
0E0070
0E0070
1C01C0
1FFFC0
1FFF80
1FFFC0
3803C0
3801C0
3800E0
3800E0
7001C0
7001C0
7003C0
700780
FFFF00
FFFE00
FFF800
ENDCHAR
STARTCHAR C
ENCODING 67
SWIDTH 718 0
DWIDTH 23 0
BBX 26 23 1 0
BITMAP
0007E000
003FFC00
007FFE00
00F81F00
03C00F00
07800780
07000380
07000380
1C000000
1C000000
1C000000
1C000000
38000000
38000000
38000000
1C000E00
38001C00
3C003C00
1E007800
0F81F000
0FFFC000
07FF8000
00FC0000
ENDCHAR
STARTCHAR D
ENCODING 68
SWIDTH 718 0
DWIDTH 23 0
BBX 24 23 2 0
BITMAP
07FF00
07FFE0
07FFF0
0700F8
0E0078
0E003C
0E001C
0E001C
1C001C
1C001C
1C001C
1C001C
380038
380038
380038
380070
7000E0
7001E0
7003C0
700F80
FFFE00
FFFC00
FFE000
ENDCHAR
STARTCHAR E
ENCODING 69
SWIDTH 656 0
DWIDTH 21 0
BBX 22 23 2 0
BITMAP
07FFFC
07FFFC
07FFFC
070000
0E0000
0E0000
0E0000
0E0000
1C0000
1FFFC0
1FFFC0
1FFFC0
380000
380000
380000
380000
700000
700000
700000
700000
FFFF80
FFFF80
FFFF80
ENDCHAR
STARTCHAR F
ENCODING 70
SWIDTH 625 0
DWIDTH 20 0
BBX 22 23 2 0
BITMAP
07FFFC
07FFFC
07FFFC
070000
0E0000
0E0000
0E0000
0E0000
1C0000
1FFF80
1FFF80
1FFF80
380000
380000
380000
380000
700000
700000
700000
700000
E00000
E00000
E00000
ENDCHAR
STARTCHAR G
ENCODING 71
SWIDTH 781 0
DWIDTH 25 0
BBX 26 23 1 0
BITMAP
0007E000
003FFC00
007FFE00
00F81F00
03C00F00
07800780
07000380
07000380
1C000000
1C000000
1C000000
1C01FF00
3803FE00
3803FE00
38000E00
1C000E00
38003C00
3C003C00
1E007C00
0F81FC00
0FFFB800
07FF3800
00FC3800
ENDCHAR
STARTCHAR H
ENCODING 72
SWIDTH 718 0
DWIDTH 23 0
BBX 23 23 2 0
BITMAP
07000E
07000E
07000E
07000E
0E001C
0E001C
0E001C
0E001C
1C0038
1FFFF8
1FFFF8
1FFFF8
380070
380070
380070
380070
7000E0
7000E0
7000E0
7000E0
E001C0
E001C0
E001C0
ENDCHAR
STARTCHAR I
ENCODING 73
SWIDTH 250 0
DWIDTH 8 0
BBX 8 23 2 0
BITMAP
07
07
07
07
0E
0E
0E
0E
1C
1C
1C
1C
38
38
38
38
70
70
70
70
E0
E0
E0
ENDCHAR
STARTCHAR J
ENCODING 74
SWIDTH 500 0
DWIDTH 16 0
BBX 18 23 0 0
BITMAP
0001C0
0001C0
0001C0
0001C0
000380
000380
000380
000380
000700
000700
000700
000700
000E00
000E00
380E00
380E00
701C00
701C00
783C00
3C7800
7FF000
3FE000
0F8000
ENDCHAR
STARTCHAR K
ENCODING 75
SWIDTH 656 0
DWIDTH 21 0
BBX 24 23 1 0
BITMAP
07003C
070078
0700F0
0701E0
0E0780
0E0F00
0E1E00
0E3C00
1CF000
1DE000
1FE000
1FF000
3EF000
3C7800
383C00
381E00
701E00
700F00
700780
7003C0
E003C0
E001E0
E000E0
ENDCHAR
STARTCHAR L
ENCODING 76
SWIDTH 562 0
DWIDTH 18 0
BBX 20 23 2 0
BITMAP
070000
070000
070000
070000
0E0000
0E0000
0E0000
0E0000
1C0000
1C0000
1C0000
1C0000
380000
380000
380000
380000
700000
700000
700000
700000
FFFE00
FFFE00
FFFE00
ENDCHAR
STARTCHAR M
ENCODING 77
SWIDTH 812 0
DWIDTH 26 0
BBX 26 23 2 0
BITMAP
078003C0
07C007C0
07C007C0
07C007C0
0FC01F80
0FC01F80
0FC01F80
0FE03F80
1DC07700
1DC07700
1DE0F700
1CE0E700
39C1CE00
39E3CE00
38E38E00
38E38E00
71EF1C00
70EE1C00
70EE1C00
70FE1C00
E0F83800
E0F83800
E0F83800
ENDCHAR
STARTCHAR N
ENCODING 78
SWIDTH 750 0
DWIDTH 24 0
BBX 24 23 2 0
BITMAP
078007
07C007
07C007
07E007
0FE00E
0EE00E
0EF00E
0E780E
1C701C
1C781C
1C3C1C
1C1C1C
383C38
381E38
380E38
380F38
700F70
700770
7007F0
7003F0
E003E0
E003E0
E001E0
ENDCHAR
STARTCHAR O
ENCODING 79
SWIDTH 781 0
DWIDTH 25 0
BBX 27 23 1 0
BITMAP
0007E000
003FFC00
007FFE00
00F81F00
03C00F00
07800780
07000380
07000380
1C000380
1C000380
1C000380
1C000380
38000700
38000700
38000700
1C000E00
38001C00
3C003C00
1E007800
0F81F000
0FFFC000
07FF8000
00FC0000
ENDCHAR
STARTCHAR P
ENCODING 80
SWIDTH 656 0
DWIDTH 21 0
BBX 22 23 2 0
BITMAP
07FFC0
07FFF0
07FFF8
070078
0E0078
0E0038
0E0038
0E0038
1C0070
1C00F0
1C01E0
1FFFE0
3FFF80
3FFE00
380000
380000
700000
700000
700000
700000
E00000
E00000
E00000
ENDCHAR
STARTCHAR Q
ENCODING 81
SWIDTH 781 0
DWIDTH 25 0
BBX 27 23 1 0
BITMAP
0007E000
003FFC00
007FFE00
00F81F00
03C00F00
07800780
07000380
07000380
1C000380
1C000380
1C000380
1C000380
38000700
38000700
3800C700
1C01EE00
3801FC00
3C00FC00
1E007800
0F81FC00
0FFFFC00
07FF9C00
00FC0800
ENDCHAR
STARTCHAR R
ENCODING 82
SWIDTH 687 0
DWIDTH 22 0
BBX 23 23 2 0
BITMAP
07FFC0
07FFF0
07FFF8
070038
0E0038
0E0038
0E0038
0E0038
1C00F0
1C01E0
1FFFE0
1FFFC0
3FFFC0
3803C0
3801E0
3800E0
7001C0
7001C0
7001C0
7001C0
E00380
E003C0
E001C0
ENDCHAR
STARTCHAR S
ENCODING 83
SWIDTH 656 0
DWIDTH 21 0
BBX 24 23 0 0
BITMAP
003FE0
00FFF8
01FFFC
01E03C
07803C
07001C
070000
078000
078000
07F800
03FFC0
00FFF0
001FF0
0000F0
000078
000038
700070
780070
3800F0
3E01E0
3FFFC0
1FFF80
07FE00
ENDCHAR
STARTCHAR T
ENCODING 84
SWIDTH 625 0
DWIDTH 20 0
BBX 24 23 0 0
BITMAP
07FFFF
07FFFF
07FFFF
000700
000E00
000E00
000E00
000E00
001C00
001C00
001C00
001C00
003800
003800
003800
003800
007000
007000
007000
007000
00E000
00E000
00E000
ENDCHAR
STARTCHAR U
ENCODING 85
SWIDTH 718 0
DWIDTH 23 0
BBX 23 23 2 0
BITMAP
07000E
07000E
07000E
07000E
0E001C
0E001C
0E001C
0E001C
1C0038
1C0038
1C0038
1C0038
380070
380070
380070
380070
7000E0
7801E0
3801C0
3E07C0
3FFF00
1FFE00
07F800
ENDCHAR
STARTCHAR V
ENCODING 86
SWIDTH 687 0
DWIDTH 22 0
BBX 26 23 0 0
BITMAP
070001C0
078003C0
03800380
03800380
07800F00
03800E00
03C01E00
01C01C00
03803800
03C07800
01C07000
01C07000
03C1E000
01C1C000
01E3C000
00E38000
01C70000
01EF0000
00EE0000
00FE0000
01FC0000
00F80000
00F80000
ENDCHAR
STARTCHAR W
ENCODING 87
SWIDTH 968 0
DWIDTH 31 0
BBX 35 23 0 0
BITMAP
07003C00E0
07003C00E0
07003C00E0
07807E01E0
0700FC0380
0700FC0380
0781FE0780
0381CE0700
07039C0E00
07879E1E00
03870E1C00
03870E1C00
079E1E7800
039C0E7000
039C0E7000
03FC0FF000
03F00FC000
03F00FC000
03F00FC000
01E0078000
03C00F0000
03C00F0000
03C00F0000
ENDCHAR
STARTCHAR X
ENCODING 88
SWIDTH 656 0
DWIDTH 21 0
BBX 25 23 0 0
BITMAP
03800700
03C00F00
01C00E00
01E01E00
01E07800
00F0F000
0070E000
0079E000
007F8000
003F0000
001E0000
001E0000
007E0000
00FF0000
00E70000
01E78000
07878000
0F03C000
0E01C000
1E01E000
7801E000
F000F000
E0007000
ENDCHAR
STARTCHAR Y
ENCODING 89
SWIDTH 687 0
DWIDTH 22 0
BBX 26 23 0 0
BITMAP
070001C0
078003C0
03C00780
01E00F00
01C01C00
01E03C00
00F07800
0078F000
0071C000
007BC000
003F8000
001F0000
001C0000
001C0000
001C0000
001C0000
00380000
00380000
00380000
00380000
00700000
00700000
00700000
ENDCHAR
STARTCHAR Z
ENCODING 90
SWIDTH 625 0
DWIDTH 20 0
BBX 24 23 0 0
BITMAP
03FFFE
03FFFE
03FFFE
00001E
000078
0000F0
0001E0
0003C0
000F00
000E00
001E00
003C00
00F000
01E000
01C000
03C000
0F0000
1E0000
3C0000
780000
FFFFE0
FFFFE0
FFFFE0
ENDCHAR
STARTCHAR bracketleft
ENCODING 91
SWIDTH 281 0
DWIDTH 9 0
BBX 13 30 0 -7
BITMAP
01F8
01F8
01F8
0380
0380
0380
0380
0700
0700
0700
0700
0E00
0E00
0E00
0E00
1C00
1C00
1C00
1C00
3800
3800
3800
3800
7000
7000
7000
7000
FC00
FC00
FC00
ENDCHAR
STARTCHAR backslash
ENCODING 92
SWIDTH 281 0
DWIDTH 9 0
BBX 14 23 -1 0
BITMAP
0700
0700
0700
0380
0700
0700
0700
0380
0700
0700
0380
0380
0700
0700
0380
0380
0700
0380
0380
0380
0380
0380
0380
ENDCHAR
STARTCHAR bracketright
ENCODING 93
SWIDTH 281 0
DWIDTH 9 0
BBX 13 30 -1 -7
BITMAP
01F8
01F8
01F8
0070
0070
0070
0070
00E0
00E0
00E0
00E0
01C0
01C0
01C0
01C0
0380
0380
0380
0380
0700
0700
0700
0700
0E00
0E00
0E00
0E00
FC00
FC00
FC00
ENDCHAR
STARTCHAR asciicircum
ENCODING 94
SWIDTH 468 0
DWIDTH 15 0
BBX 14 5 4 18
BITMAP
07C0
0FE0
3DE0
7070
C018
ENDCHAR
STARTCHAR underscore
ENCODING 95
SWIDTH 562 0
DWIDTH 18 0
BBX 18 2 -1 -3
BITMAP
FFFFC0
FFFFC0
ENDCHAR
STARTCHAR grave
ENCODING 96
SWIDTH 343 0
DWIDTH 11 0
BBX 8 4 5 19
BITMAP
7C
3C
0E
02
ENDCHAR
STARTCHAR a
ENCODING 97
SWIDTH 562 0
DWIDTH 18 0
BBX 21 16 0 0
BITMAP
00FF00
07FF80
070380
0E01C0
0001C0
000780
03FF80
0FFB80
1E0380
380700
700700
700700
700F00
703F00
7FF780
1FC380
ENDCHAR
STARTCHAR b
ENCODING 98
SWIDTH 562 0
DWIDTH 18 0
BBX 20 23 1 0
BITMAP
070000
070000
070000
070000
0E0000
0E0000
0E0000
0E7E00
1FFF00
1F8F80
1E0380
1E03C0
380380
380380
380380
380380
700700
700700
780F00
780E00
FC7C00
FFF800
E7E000
ENDCHAR
STARTCHAR c
ENCODING 99
SWIDTH 500 0
DWIDTH 16 0
BBX 19 16 0 0
BITMAP
00FF00
07FF80
0F87C0
0E01C0
1E01C0
380000
380000
380000
380000
700000
700000
780700
380700
7C3E00
3FFC00
0FF000
ENDCHAR
STARTCHAR d
ENCODING 100
SWIDTH 562 0
DWIDTH 18 0
BBX 20 23 0 0
BITMAP
000070
000070
000070
000070
0000E0
0000E0
0000E0
00FCE0
07FFC0
0F8FC0
0E03C0
1E03C0
380380
380380
380380
380380
700700
700700
780F00
380F00
7C7E00
3FFE00
0FCE00
ENDCHAR
STARTCHAR e
ENCODING 101
SWIDTH 531 0
DWIDTH 17 0
BBX 19 16 0 0
BITMAP
00FE00
07FF00
0F8F80
0E0380
1E03C0
380380
3FFF80
3FFF80
380000
700000
700000
780F00
380E00
7C7C00
3FF800
0FE000
ENDCHAR
STARTCHAR f
ENCODING 102
SWIDTH 281 0
DWIDTH 9 0
BBX 14 23 -1 0
BITMAP
001C
007C
0070
00E0
01C0
01C0
01C0
0FF8
1FF0
0380
0380
0380
0700
0700
0700
0700
0E00
0E00
0E00
0E00
1C00
1C00
1C00
ENDCHAR
STARTCHAR g
ENCODING 103
SWIDTH 562 0
DWIDTH 18 0
BBX 20 23 -1 -7
BITMAP
007E70
01FFF0
03E3F0
0380F0
0F01E0
0E00E0
0E00E0
0E00E0
1C01C0
1C01C0
1C01C0
1E03C0
1C0780
1F1F80
0FFF80
03F380
000700
000700
380E00
380E00
3C7800
1FF000
07C000
ENDCHAR
STARTCHAR h
ENCODING 104
SWIDTH 562 0
DWIDTH 18 0
BBX 19 23 1 0
BITMAP
070000
070000
070000
070000
0E0000
0E0000
0E0000
0E7E00
1DFF00
1F0F00
1E0780
1C0380
380700
380700
380700
380700
700E00
700E00
700E00
700E00
E01C00
E01C00
E01C00
ENDCHAR
STARTCHAR i
ENCODING 105
SWIDTH 218 0
DWIDTH 7 0
BBX 8 23 1 0
BITMAP
07
07
07
00
00
00
00
0E
1C
1C
1C
1C
38
38
38
38
70
70
70
70
E0
E0
E0
ENDCHAR
STARTCHAR j
ENCODING 106
SWIDTH 218 0
DWIDTH 7 0
BBX 12 30 -2 -7
BITMAP
0070
0070
0070
0000
0000
0000
0000
01C0
01C0
01C0
01C0
0380
0380
0380
0380
0700
0700
0700
0700
0E00
0E00
0E00
0E00
1C00
1C00
1C00
1C00
7800
F000
E000
ENDCHAR
STARTCHAR k
ENCODING 107
SWIDTH 500 0
DWIDTH 16 0
BBX 19 23 1 0
BITMAP
070000
070000
070000
070000
0E0000
0E0000
0E0000
0E0700
1C1C00
1C3800
1C7000
1CE000
3B8000
3F8000
3FC000
3DE000
71E000
70E000
70F000
707800
E07800
E03800
E03C00
ENDCHAR
STARTCHAR l
ENCODING 108
SWIDTH 218 0
DWIDTH 7 0
BBX 8 23 1 0
BITMAP
07
07
07
07
0E
0E
0E
0E
1C
1C
1C
1C
38
38
38
38
70
70
70
70
E0
E0
E0
ENDCHAR
STARTCHAR m
ENCODING 109
SWIDTH 843 0
DWIDTH 27 0
BBX 27 16 1 0
BITMAP
0E7C1F00
1DFE7F80
1F1EC780
1E0F83C0
1C0701C0
380E0380
380E0380
380E0380
380E0380
701C0700
701C0700
701C0700
701C0700
E0380E00
E0380E00
E0380E00
ENDCHAR
STARTCHAR n
ENCODING 110
SWIDTH 562 0
DWIDTH 18 0
BBX 18 16 1 0
BITMAP
0E7E00
1DFF00
1F0F00
1E0780
1C0380
380700
380700
380700
380700
700E00
700E00
700E00
700E00
E01C00
E01C00
E01C00
ENDCHAR
STARTCHAR o
ENCODING 111
SWIDTH 562 0
DWIDTH 18 0
BBX 20 16 0 0
BITMAP
00FF00
07FF80
0F87C0
0E01C0
1E01E0
3801C0
3801C0
3801C0
3801C0
700380
700380
780780
380700
7C3E00
3FFC00
0FF000
ENDCHAR
STARTCHAR p
ENCODING 112
SWIDTH 562 0
DWIDTH 18 0
BBX 20 22 0 -6
BITMAP
073F00
07FFC0
07E3E0
0F01C0
0F01E0
0E00E0
0E00E0
1C01C0
1C01C0
1C01C0
1C01C0
3C0780
3C0700
3F1F00
3FFE00
73F000
700000
700000
700000
E00000
E00000
E00000
ENDCHAR
STARTCHAR q
ENCODING 113
SWIDTH 562 0
DWIDTH 18 0
BBX 20 22 -1 -6
BITMAP
007E70
01FFF0
03E3F0
0701E0
0F01E0
0E00E0
0E00E0
1C01C0
1C01C0
1C01C0
1C01C0
3C0780
1C0780
1F1F80
0FFF80
07E700
000700
000700
000700
000E00
000E00
000E00
ENDCHAR
STARTCHAR r
ENCODING 114
SWIDTH 343 0
DWIDTH 11 0
BBX 13 16 1 0
BITMAP
0E78
1DF0
1F00
1E00
1C00
3800
3800
3800
3800
7000
7000
7000
7000
E000
E000
E000
ENDCHAR
STARTCHAR s
ENCODING 115
SWIDTH 500 0
DWIDTH 16 0
BBX 18 16 0 0
BITMAP
01FC00
0FFE00
0E0E00
1C0700
1C0000
380000
1C0000
1FF800
07FE00
001C00
000E00
700E00
700E00
703800
7FF800
1FE000
ENDCHAR
STARTCHAR t
ENCODING 116
SWIDTH 281 0
DWIDTH 9 0
BBX 14 22 -1 0
BITMAP
00E0
00E0
00E0
01C0
01C0
01C0
0FF8
1FF0
0380
0380
0380
0700
0700
0700
0700
0E00
0E00
0E00
0E00
0E00
0F80
0380
ENDCHAR
STARTCHAR u
ENCODING 117
SWIDTH 562 0
DWIDTH 18 0
BBX 18 16 1 0
BITMAP
0E01C0
1C0380
1C0380
1C0380
1C0380
380700
380700
380700
380700
700E00
700E00
700E00
781E00
787C00
7FDC00
1F9C00
ENDCHAR
STARTCHAR v
ENCODING 118
SWIDTH 468 0
DWIDTH 15 0
BBX 19 16 -1 0
BITMAP
0E00E0
1C01C0
1C01C0
0E0380
0E0380
0E0E00
0E0E00
071C00
071C00
077000
077000
07F000
03E000
07C000
038000
038000
ENDCHAR
STARTCHAR w
ENCODING 119
SWIDTH 718 0
DWIDTH 23 0
BBX 27 16 -1 0
BITMAP
0E0380E0
1C0701C0
1C0701C0
0E0F8380
0E0F8380
0E3B8E00
0E3B8E00
0E3B8E00
0771DC00
0EE3B800
0EE3B800
07C1F000
07C1F000
0701C000
0701C000
0701C000
ENDCHAR
STARTCHAR x
ENCODING 120
SWIDTH 468 0
DWIDTH 15 0
BBX 19 16 -1 0
BITMAP
0E00E0
1E03C0
0F0780
078F00
038E00
07BC00
03F800
01F000
01F000
07F000
0F7800
0E3800
1E3C00
783C00
F01E00
E00E00
ENDCHAR
STARTCHAR y
ENCODING 121
SWIDTH 468 0
DWIDTH 15 0
BBX 20 23 -2 -7
BITMAP
070070
070070
070070
0380E0
0701C0
038380
038380
01C700
038E00
01DC00
01DC00
00F800
01F000
00E000
00E000
01C000
038000
070000
070000
0E0000
3C0000
F80000
E00000
ENDCHAR
STARTCHAR z
ENCODING 122
SWIDTH 500 0
DWIDTH 16 0
BBX 18 16 0 0
BITMAP
0FFF80
1FFF00
1FFF00
000F00
001E00
007800
00F000
01E000
01C000
078000
0F0000
1E0000
3C0000
FFFC00
FFFC00
FFFC00
ENDCHAR
STARTCHAR braceleft
ENCODING 123
SWIDTH 343 0
DWIDTH 11 0
BBX 16 25 0 -1
BITMAP
000F
003F
0078
00F0
00E0
00E0
01C0
01C0
01C0
0180
0700
0E00
1C00
0E00
0E00
0600
0700
0700
0E00
0E00
0E00
0F00
0F00
0FC0
03C0
ENDCHAR
STARTCHAR bar
ENCODING 124
SWIDTH 218 0
DWIDTH 7 0
BBX 8 23 1 0
BITMAP
07
07
07
07
0E
0E
0E
0E
1C
1C
1C
1C
38
38
38
38
70
70
70
70
E0
E0
E0
ENDCHAR
STARTCHAR braceright
ENCODING 125
SWIDTH 343 0
DWIDTH 11 0
BBX 16 25 0 -1
BITMAP
03C0
03F0
01E0
00F0
0070
0070
00E0
00E0
00E0
00E0
00E0
00F0
0078
0070
01C0
0180
0380
0380
0700
0700
0700
0F00
3C00
FC00
F000
ENDCHAR
STARTCHAR asciitilde
ENCODING 126
SWIDTH 593 0
DWIDTH 19 0
BBX 17 5 5 18
BITMAP
1F0380
3F8380
F3CF00
E0FE00
E07C00
ENDCHAR
STARTCHAR bullet
ENCODING 149
SWIDTH 375 0
DWIDTH 12 0
BBX 12 9 1 3
BITMAP
0FC0
1FE0
7FE0
7FE0
7FE0
7FE0
FFC0
7F80
3F00
ENDCHAR
STARTCHAR space
ENCODING 154
SWIDTH 281 0
DWIDTH 9 0
BBX 0 0 -1 0
BITMAP
ENDCHAR
STARTCHAR degree
ENCODING 156
SWIDTH 343 0
DWIDTH 11 0
BBX 11 9 3 14
BITMAP
0700
1FC0
3180
60C0
60C0
60C0
6300
7F00
1C00
ENDCHAR
STARTCHAR twosuperior
ENCODING 157
SWIDTH 281 0
DWIDTH 9 0
BBX 10 11 3 12
BITMAP
0F00
1F80
30C0
00C0
0700
1E00
3800
3000
C000
FF00
FF00
ENDCHAR
STARTCHAR periodcentered
ENCODING 158
SWIDTH 281 0
DWIDTH 9 0
BBX 3 3 3 7
BITMAP
E0
E0
E0
ENDCHAR
STARTCHAR afii10071
ENCODING 163
SWIDTH 531 0
DWIDTH 17 0
BBX 20 20 0 0
BITMAP
00E1C0
01C380
01C380
000000
00FE00
07FF00
0F8F80
0E0380
1E03C0
380380
3FFF80
3FFF80
380000
700000
700000
780F00
380E00
7C7C00
3FF800
0FE000
ENDCHAR
STARTCHAR afii10023
ENCODING 179
SWIDTH 656 0
DWIDTH 21 0
BBX 23 26 2 0
BITMAP
007070
007070
000000
07FFFC
07FFFC
07FFFC
070000
0E0000
0E0000
0E0000
0E0000
1C0000
1FFFC0
1FFFC0
1FFFC0
380000
380000
380000
380000
700000
700000
700000
700000
FFFF80
FFFF80
FFFF80
ENDCHAR
STARTCHAR copyright
ENCODING 191
SWIDTH 750 0
DWIDTH 24 0
BBX 27 23 0 0
BITMAP
0003C000
001FF800
00781E00
00E00700
03800700
03000300
0607C180
060FE180
0838C100
18300180
18300180
18300180
30600300
30600300
10718200
183F8600
303E0C00
18001800
1C003800
0E007000
0F03C000
03FF0000
00780000
ENDCHAR
STARTCHAR afii10096
ENCODING 192
SWIDTH 718 0
DWIDTH 23 0
BBX 23 16 1 0
BITMAP
0E0FE0
1C7FF0
1CF8F8
1CE038
1DE03C
3B8038
3B8038
3F8038
3F8038
770070
770070
7780F0
7380E0
E7C7C0
E3FF80
E0FE00
ENDCHAR
STARTCHAR afii10065
ENCODING 193
SWIDTH 562 0
DWIDTH 18 0
BBX 21 16 0 0
BITMAP
00FF00
07FF80
070380
0E01C0
0001C0
000780
03FF80
0FFB80
1E0380
380700
700700
700700
700F00
703F00
7FF780
1FC380
ENDCHAR
STARTCHAR afii10066
ENCODING 194
SWIDTH 562 0
DWIDTH 18 0
BBX 21 23 0 0
BITMAP
000030
0001F0
001FE0
00FF80
03E000
07C000
070000
0E7E00
1FFF00
1F8780
1F03C0
1E01C0
3801C0
3801C0
3801C0
3801C0
700380
700380
380700
3C0F00
3C3C00
1FF800
07E000
ENDCHAR
STARTCHAR afii10088
ENCODING 195
SWIDTH 593 0
DWIDTH 19 0
BBX 20 19 1 -3
BITMAP
0E01C0
0E01C0
0E01C0
0E01C0
1C0380
1C0380
1C0380
1C0380
380700
380700
380700
380700
700E00
700E00
7FFF80
7FFF80
000700
000700
000700
ENDCHAR
STARTCHAR afii10069
ENCODING 196
SWIDTH 687 0
DWIDTH 22 0
BBX 24 19 0 -3
BITMAP
00FFF8
00FFF8
00E038
00E038
01C070
01C070
01C070
01C070
0380E0
0380E0
0380E0
0380E0
0701C0
0E01C0
7FFFF8
7FFFF8
E00070
E00070
E00070
ENDCHAR
STARTCHAR afii10070
ENCODING 197
SWIDTH 531 0
DWIDTH 17 0
BBX 19 16 0 0
BITMAP
00FE00
07FF00
0F8F80
0E0380
1E03C0
380380
3FFF80
3FFF80
380000
700000
700000
780F00
380E00
7C7C00
3FF800
0FE000
ENDCHAR
STARTCHAR afii10086
ENCODING 198
SWIDTH 656 0
DWIDTH 21 0
BBX 25 27 -1 -6
BITMAP
00038000
00038000
00038000
00038000
00070000
007FF000
01FFFC00
03E73E00
070E1C00
0F0E1E00
0E0E0E00
0E0E0E00
1C1C1C00
1C1C1C00
1C1C1C00
1C1C1C00
3C387800
1C387000
1F39F000
0FFFE000
07FF0000
00700000
00700000
00700000
00E00000
00E00000
00E00000
ENDCHAR
STARTCHAR afii10068
ENCODING 199
SWIDTH 500 0
DWIDTH 16 0
BBX 17 16 1 0
BITMAP
0FFF80
1FFF00
1C0000
1C0000
1C0000
380000
380000
380000
380000
700000
700000
700000
700000
E00000
E00000
E00000
ENDCHAR
STARTCHAR afii10087
ENCODING 200
SWIDTH 468 0
DWIDTH 15 0
BBX 19 16 -1 0
BITMAP
0E00E0
1E03C0
0F0780
078F00
038E00
07BC00
03F800
01F000
01F000
07F000
0F7800
0E3800
1E3C00
783C00
F01E00
E00E00
ENDCHAR
STARTCHAR afii10074
ENCODING 201
SWIDTH 562 0
DWIDTH 18 0
BBX 18 16 1 0
BITMAP
0E01C0
1C0380
1C0380
1C0780
1C0F80
383F00
387F00
38F700
39E700
778E00
7F0E00
7E0E00
7C0E00
F01C00
E01C00
E01C00
ENDCHAR
STARTCHAR afii10075
ENCODING 202
SWIDTH 562 0
DWIDTH 18 0
BBX 19 20 1 0
BITMAP
00E700
01CE00
00FC00
007800
0E01C0
1C0380
1C0380
1C0780
1C0F80
383F00
387F00
38F700
39E700
778E00
7F0E00
7E0E00
7C0E00
F01C00
E01C00
E01C00
ENDCHAR
STARTCHAR afii10076
ENCODING 203
SWIDTH 500 0
DWIDTH 16 0
BBX 18 16 1 0
BITMAP
0E0700
1C1C00
1C3800
1C7000
1CE000
3B8000
3F8000
3FC000
3DE000
71E000
70E000
70F000
707800
E07800
E03800
E03C00
ENDCHAR
STARTCHAR afii10077
ENCODING 204
SWIDTH 562 0
DWIDTH 18 0
BBX 19 16 0 0
BITMAP
00FFE0
03FFC0
0381C0
0381C0
0381C0
070380
070380
070380
070380
0E0700
0E0700
0E0700
0E0700
1C0E00
FC0E00
F80E00
ENDCHAR
STARTCHAR afii10078
ENCODING 205
SWIDTH 750 0
DWIDTH 24 0
BBX 24 16 1 0
BITMAP
0E0007
1E001E
1F003E
1F807E
1FC0FE
3BC3DC
39E79C
38FF1C
387E1C
707838
703038
700038
700038
E00070
E00070
E00070
ENDCHAR
STARTCHAR afii10079
ENCODING 206
SWIDTH 562 0
DWIDTH 18 0
BBX 18 16 1 0
BITMAP
0E01C0
1C0380
1C0380
1C0380
1C0380
380700
380700
3FFF00
3FFF00
700E00
700E00
700E00
700E00
E01C00
E01C00
E01C00
ENDCHAR
STARTCHAR afii10080
ENCODING 207
SWIDTH 562 0
DWIDTH 18 0
BBX 20 16 0 0
BITMAP
00FF00
07FF80
0F87C0
0E01C0
1E01E0
3801C0
3801C0
3801C0
3801C0
700380
700380
780780
380700
7C3E00
3FFC00
0FF000
ENDCHAR
STARTCHAR afii10081
ENCODING 208
SWIDTH 562 0
DWIDTH 18 0
BBX 18 16 1 0
BITMAP
0FFFC0
1FFF80
1C0380
1C0380
1C0380
380700
380700
380700
380700
700E00
700E00
700E00
700E00
E01C00
E01C00
E01C00
ENDCHAR
STARTCHAR afii10097
ENCODING 209
SWIDTH 531 0
DWIDTH 17 0
BBX 18 16 0 0
BITMAP
03FFC0
0FFF80
1E0380
1C0380
1C0380
380700
3C0700
1FFF00
0FFF00
03CE00
078E00
0F0E00
1E0E00
781C00
F01C00
E01C00
ENDCHAR
STARTCHAR afii10082
ENCODING 210
SWIDTH 562 0
DWIDTH 18 0
BBX 20 22 0 -6
BITMAP
073F00
07FFC0
07E3E0
0F01C0
0F01E0
0E00E0
0E00E0
1C01C0
1C01C0
1C01C0
1C01C0
3C0780
3C0700
3F1F00
3FFE00
73F000
700000
700000
700000
E00000
E00000
E00000
ENDCHAR
STARTCHAR afii10083
ENCODING 211
SWIDTH 500 0
DWIDTH 16 0
BBX 19 16 0 0
BITMAP
00FF00
07FF80
0F87C0
0E01C0
1E01C0
380000
380000
380000
380000
700000
700000
780700
380700
7C3E00
3FFC00
0FF000
ENDCHAR
STARTCHAR afii10084
ENCODING 212
SWIDTH 562 0
DWIDTH 18 0
BBX 20 16 0 0
BITMAP
0FFFF0
1FFFE0
003800
003800
003800
007000
007000
007000
007000
00E000
00E000
00E000
00E000
01C000
01C000
01C000
ENDCHAR
STARTCHAR afii10085
ENCODING 213
SWIDTH 468 0
DWIDTH 15 0
BBX 20 23 -2 -7
BITMAP
070070
070070
070070
0380E0
0701C0
038380
038380
01C700
038E00
01DC00
01DC00
00F800
01F000
00E000
00E000
01C000
038000
070000
070000
0E0000
3C0000
F80000
E00000
ENDCHAR
STARTCHAR afii10072
ENCODING 214
SWIDTH 781 0
DWIDTH 25 0
BBX 29 16 -1 0
BITMAP
0381C0E0
078383C0
03C38780
01E38F00
00F39E00
00F77800
007FF000
007FF000
00F77800
03CE7800
078E3C00
0F0E1E00
1E0E0F00
781C0F00
F01C0780
E01C0380
ENDCHAR
STARTCHAR afii10067
ENCODING 215
SWIDTH 562 0
DWIDTH 18 0
BBX 18 16 1 0
BITMAP
0FFE00
1FFE00
1C0F00
1C0700
1C0700
380E00
3FFC00
3FFC00
380E00
700E00
700E00
700E00
700E00
E03800
FFF800
FFF000
ENDCHAR
STARTCHAR afii10094
ENCODING 216
SWIDTH 562 0
DWIDTH 18 0
BBX 19 16 1 0
BITMAP
0E0000
1C0000
1C0000
1C0000
1C0000
380000
380000
3FFE00
3FFF00
700F00
700700
700700
700700
E01E00
FFFC00
FFF800
ENDCHAR
STARTCHAR afii10093
ENCODING 217
SWIDTH 718 0
DWIDTH 23 0
BBX 23 16 1 0
BITMAP
0E000E
1C001C
1C001C
1C001C
1C001C
380038
380038
3FFE38
3FFF38
700F70
700770
700770
700770
E01EE0
FFFCE0
FFF8E0
ENDCHAR
STARTCHAR afii10073
ENCODING 218
SWIDTH 500 0
DWIDTH 16 0
BBX 18 16 0 0
BITMAP
01FE00
07FE00
0F0E00
0E0700
000700
000E00
00FC00
00FC00
001E00
000E00
000E00
700E00
700E00
703800
7FF800
3FE000
ENDCHAR
STARTCHAR afii10090
ENCODING 219
SWIDTH 781 0
DWIDTH 25 0
BBX 25 16 1 0
BITMAP
0E070380
1C0E0700
1C0E0700
1C0E0700
1C0E0700
381C0E00
381C0E00
381C0E00
381C0E00
70381C00
70381C00
70381C00
70381C00
E0703800
FFFFF800
FFFFF800
ENDCHAR
STARTCHAR afii10095
ENCODING 220
SWIDTH 531 0
DWIDTH 17 0
BBX 19 16 0 0
BITMAP
01FE00
0FFF00
1F0F80
1C0380
0003C0
000380
000380
00FF80
00FF80
000700
000700
000F00
700E00
F87C00
7FF800
1FE000
ENDCHAR
STARTCHAR afii10091
ENCODING 221
SWIDTH 812 0
DWIDTH 26 0
BBX 27 19 1 -3
BITMAP
0E070380
0E070380
0E070380
0E070380
1C0E0700
1C0E0700
1C0E0700
1C0E0700
381C0E00
381C0E00
381C0E00
381C0E00
70381C00
70381C00
7FFFFF00
7FFFFF00
00000E00
00000E00
00000E00
ENDCHAR
STARTCHAR afii10089
ENCODING 222
SWIDTH 562 0
DWIDTH 18 0
BBX 18 16 1 0
BITMAP
0E01C0
1C0380
1C0380
1C0380
1C0380
380700
380700
3FFF00
1FFF00
000E00
000E00
000E00
000E00
001C00
001C00
001C00
ENDCHAR
STARTCHAR afii10092
ENCODING 223
SWIDTH 625 0
DWIDTH 20 0
BBX 22 16 0 0
BITMAP
0FC000
1F8000
038000
038000
038000
070000
070000
07FFC0
07FFE0
0E01E0
0E00E0
0E00E0
0E00E0
1C03C0
1FFF80
1FFF00
ENDCHAR
STARTCHAR afii10048
ENCODING 224
SWIDTH 906 0
DWIDTH 29 0
BBX 30 23 1 0
BITMAP
07007C00
0703FF80
0707FFC0
070F83E0
0E3C01E0
0E7800F0
0E700070
0E700070
1DC00070
1DC00070
1FC00070
1FC00070
3F8000E0
3B8000E0
3B8000E0
39C001C0
73800380
73C00780
71E00F00
70F83E00
E0FFF800
E07FF000
E00F8000
ENDCHAR
STARTCHAR afii10017
ENCODING 225
SWIDTH 687 0
DWIDTH 22 0
BBX 26 23 0 0
BITMAP
0007C000
0007C000
000FE000
000FE000
001DC000
003DE000
0038E000
0038E000
00F1E000
00E0E000
01E0F000
01C07000
0380E000
0780F000
07007000
07FFF000
1FFFF000
1FFFF000
3C007800
38003800
70007000
F0007800
E0003800
ENDCHAR
STARTCHAR afii10018
ENCODING 226
SWIDTH 656 0
DWIDTH 21 0
BBX 22 23 2 0
BITMAP
07FFF8
07FFF8
07FFF8
070000
0E0000
0E0000
0E0000
0E0000
1C0000
1FFF00
1FFF80
1FFFC0
3803C0
3801C0
3800E0
3800E0
7001C0
7001C0
7003C0
700780
FFFF00
FFFE00
FFF800
ENDCHAR
STARTCHAR afii10040
ENCODING 227
SWIDTH 750 0
DWIDTH 24 0
BBX 26 26 2 -3
BITMAP
03800700
03800700
03800700
07000E00
07000E00
07000E00
07000E00
0E001C00
0E001C00
0E001C00
0E001C00
1C003800
1C003800
1C003800
1C003800
38007000
38007000
38007000
38007000
7000E000
7FFFF800
7FFFF800
7FFFF800
00007000
00007000
00007000
ENDCHAR
STARTCHAR afii10021
ENCODING 228
SWIDTH 718 0
DWIDTH 23 0
BBX 27 26 0 -3
BITMAP
001FFF00
001FFF00
001FFF00
00380E00
00380E00
00380E00
00380E00
00701C00
00701C00
00701C00
00701C00
00E03800
00E03800
00E03800
00E03800
01C07000
01C07000
01C07000
03C07000
0F00E000
7FFFFC00
7FFFFC00
7FFFFC00
E0003800
E0003800
E0003800
ENDCHAR
STARTCHAR afii10022
ENCODING 229
SWIDTH 656 0
DWIDTH 21 0
BBX 22 23 2 0
BITMAP
07FFFC
07FFFC
07FFFC
070000
0E0000
0E0000
0E0000
0E0000
1C0000
1FFFC0
1FFFC0
1FFFC0
380000
380000
380000
380000
700000
700000
700000
700000
FFFF80
FFFF80
FFFF80
ENDCHAR
STARTCHAR afii10038
ENCODING 230
SWIDTH 843 0
DWIDTH 27 0
BBX 29 24 1 0
BITMAP
0000E000
0007F000
003FFE00
007FFF00
00F9CF80
03C38780
078383C0
070381C0
070381C0
1C0701C0
1C0701C0
1C0701C0
1C0701C0
380E0380
1C0E0700
1C0E0700
1E0E0F00
1E1C3C00
0F9CF800
07FFF000
03FFE000
00FE0000
00380000
00380000
ENDCHAR
STARTCHAR afii10020
ENCODING 231
SWIDTH 656 0
DWIDTH 21 0
BBX 22 23 2 0
BITMAP
07FFFC
07FFFC
07FFFC
070000
0E0000
0E0000
0E0000
0E0000
1C0000
1C0000
1C0000
1C0000
380000
380000
380000
380000
700000
700000
700000
700000
E00000
E00000
E00000
ENDCHAR
STARTCHAR afii10039
ENCODING 232
SWIDTH 656 0
DWIDTH 21 0
BBX 25 23 0 0
BITMAP
03800700
03C00F00
01C00E00
01E01E00
01E07800
00F0F000
0070E000
0079E000
007F8000
003F0000
001E0000
001E0000
007E0000
00FF0000
00E70000
01E78000
07878000
0F03C000
0E01C000
1E01E000
7801E000
F000F000
E0007000
ENDCHAR
STARTCHAR afii10026
ENCODING 233
SWIDTH 750 0
DWIDTH 24 0
BBX 24 23 2 0
BITMAP
070007
070007
070007
070007
0E001E
0E003E
0E007E
0E00FE
1C03DC
1C079C
1C0F1C
1C1E1C
387838
38F038
39E038
3BC038
7F0070
7E0070
7C0070
780070
E000E0
E000E0
E000E0
ENDCHAR
STARTCHAR afii10027
ENCODING 234
SWIDTH 750 0
DWIDTH 24 0
BBX 25 26 2 0
BITMAP
003C7800
001FF000
000FE000
07070700
07000700
07000700
07000700
0E001E00
0E003E00
0E007E00
0E00FE00
1C03DC00
1C079C00
1C0F1C00
1C1E1C00
38783800
38F03800
39E03800
3BC03800
7F007000
7E007000
7C007000
78007000
E000E000
E000E000
E000E000
ENDCHAR
STARTCHAR afii10028
ENCODING 235
SWIDTH 656 0
DWIDTH 21 0
BBX 24 23 1 0
BITMAP
07003C
070078
0700F0
0701E0
0E0780
0E0F00
0E1E00
0E3C00
1CF000
1DE000
1FE000
1FF000
3EF000
3C7800
383C00
381E00
701E00
700F00
700780
7003C0
E003C0
E001E0
E000E0
ENDCHAR
STARTCHAR afii10029
ENCODING 236
SWIDTH 656 0
DWIDTH 21 0
BBX 22 23 1 0
BITMAP
007FFC
00FFFC
00FFFC
00E01C
01C038
01C038
01C038
01C038
038070
038070
038070
038070
0700E0
0700E0
0700E0
0700E0
0E01C0
0E01C0
0E01C0
0E01C0
1C0380
FC0380
F80380
ENDCHAR
STARTCHAR afii10030
ENCODING 237
SWIDTH 812 0
DWIDTH 26 0
BBX 26 23 2 0
BITMAP
078003C0
07C007C0
07C007C0
07C007C0
0FC01F80
0FC01F80
0FC01F80
0FE03F80
1DC07700
1DC07700
1DE0F700
1CE0E700
39C1CE00
39E3CE00
38E38E00
38E38E00
71EF1C00
70EE1C00
70EE1C00
70FE1C00
E0F83800
E0F83800
E0F83800
ENDCHAR
STARTCHAR afii10031
ENCODING 238
SWIDTH 718 0
DWIDTH 23 0
BBX 23 23 2 0
BITMAP
07000E
07000E
07000E
07000E
0E001C
0E001C
0E001C
0E001C
1C0038
1FFFF8
1FFFF8
1FFFF8
380070
380070
380070
380070
7000E0
7000E0
7000E0
7000E0
E001C0
E001C0
E001C0
ENDCHAR
STARTCHAR afii10032
ENCODING 239
SWIDTH 781 0
DWIDTH 25 0
BBX 27 23 1 0
BITMAP
0007E000
003FFC00
007FFE00
00F81F00
03C00F00
07800780
07000380
07000380
1C000380
1C000380
1C000380
1C000380
38000700
38000700
38000700
1C000E00
38001C00
3C003C00
1E007800
0F81F000
0FFFC000
07FF8000
00FC0000
ENDCHAR
STARTCHAR afii10033
ENCODING 240
SWIDTH 718 0
DWIDTH 23 0
BBX 23 23 2 0
BITMAP
07FFFE
07FFFE
07FFFE
07000E
0E001C
0E001C
0E001C
0E001C
1C0038
1C0038
1C0038
1C0038
380070
380070
380070
380070
7000E0
7000E0
7000E0
7000E0
E001C0
E001C0
E001C0
ENDCHAR
STARTCHAR afii10049
ENCODING 241
SWIDTH 656 0
DWIDTH 21 0
BBX 22 23 1 0
BITMAP
01FFFC
03FFFC
07FFFC
07001C
0E0038
0E0038
0E0038
0E0038
1C0070
1E0070
1FFFF0
0FFFF0
0FFFE0
003CE0
0078E0
00F0E0
03C1C0
0781C0
0F01C0
1E01C0
780380
F00380
E00380
ENDCHAR
STARTCHAR afii10034
ENCODING 242
SWIDTH 656 0
DWIDTH 21 0
BBX 22 23 2 0
BITMAP
07FFC0
07FFF0
07FFF8
070078
0E0078
0E0038
0E0038
0E0038
1C0070
1C00F0
1C01E0
1FFFE0
3FFF80
3FFE00
380000
380000
700000
700000
700000
700000
E00000
E00000
E00000
ENDCHAR
STARTCHAR afii10035
ENCODING 243
SWIDTH 718 0
DWIDTH 23 0
BBX 26 23 1 0
BITMAP
0007E000
003FFC00
007FFE00
00F81F00
03C00F00
07800780
07000380
07000380
1C000000
1C000000
1C000000
1C000000
38000000
38000000
38000000
1C000E00
38001C00
3C003C00
1E007800
0F81F000
0FFFC000
07FF8000
00FC0000
ENDCHAR
STARTCHAR afii10036
ENCODING 244
SWIDTH 625 0
DWIDTH 20 0
BBX 24 23 0 0
BITMAP
07FFFF
07FFFF
07FFFF
000700
000E00
000E00
000E00
000E00
001C00
001C00
001C00
001C00
003800
003800
003800
003800
007000
007000
007000
007000
00E000
00E000
00E000
ENDCHAR
STARTCHAR afii10037
ENCODING 245
SWIDTH 687 0
DWIDTH 22 0
BBX 26 23 0 0
BITMAP
070001C0
078003C0
03C00780
01E00F00
01C01C00
01E03C00
00F07800
0078F000
0071C000
007BC000
003F8000
001F0000
003C0000
00380000
00780000
00700000
01E00000
01C00000
03800000
07800000
1E000000
7C000000
78000000
ENDCHAR
STARTCHAR afii10024
ENCODING 246
SWIDTH 968 0
DWIDTH 31 0
BBX 36 23 -1 0
BITMAP
01C01C01C0
01E01C03C0
00F01C0780
00781C0F00
0078383C00
003C387800
001E38F000
000F39E000
000F778000
0007FF0000
0003FE0000
0007FF0000
001EEF0000
003CE78000
0078E3C000
00F0E1E000
03C1C1E000
0781C0F000
0F01C07800
1E01C03C00
7803803C00
F003801E00
E003800E00
ENDCHAR
STARTCHAR afii10019
ENCODING 247
SWIDTH 656 0
DWIDTH 21 0
BBX 22 23 2 0
BITMAP
07FF80
07FFE0
07FFF0
070070
0E0070
0E0070
0E0070
0E0070
1C01C0
1FFFC0
1FFF80
1FFFC0
3803C0
3801C0
3800E0
3800E0
7001C0
7001C0
7003C0
700780
FFFF00
FFFE00
FFF800
ENDCHAR
STARTCHAR afii10046
ENCODING 248
SWIDTH 718 0
DWIDTH 23 0
BBX 23 23 2 0
BITMAP
070000
070000
070000
070000
0E0000
0E0000
0E0000
0E0000
1C0000
1C0000
1FFFE0
1FFFF0
3FFFF0
3800F0
380070
380070
7000E0
7000E0
7000E0
7001E0
FFFFC0
FFFF80
FFFF00
ENDCHAR
STARTCHAR afii10045
ENCODING 249
SWIDTH 812 0
DWIDTH 26 0
BBX 27 23 1 0
BITMAP
070000E0
070000E0
070000E0
070000E0
0E0001C0
0E0001C0
0E0001C0
0E0001C0
1C000380
1C000380
1FFFE380
1FFFF380
3FFFF700
3800F700
38007700
38007700
7000EE00
7000EE00
7000EE00
7001EE00
FFFFDC00
FFFF9C00
FFFF1C00
ENDCHAR
STARTCHAR afii10025
ENCODING 250
SWIDTH 593 0
DWIDTH 19 0
BBX 22 23 0 0
BITMAP
007FE0
01FFF0
03FFF8
038078
000070
000070
000070
000070
0000E0
0001C0
00FF80
00FFC0
01FFC0
0003E0
0000E0
0000E0
0001C0
0001C0
7001C0
7803C0
7FFF00
7FFE00
1FFC00
ENDCHAR
STARTCHAR afii10042
ENCODING 251
SWIDTH 906 0
DWIDTH 29 0
BBX 32 23 0 0
BITMAP
07007007
07007007
07007007
07007007
0E00E00E
0E00E00E
0E00E00E
0E00E00E
1C01C01C
1C01C01C
1C01C01C
1C01C01C
38038038
38038038
38038038
38038038
70070070
70070070
70070070
70070070
FFFFFFE0
FFFFFFE0
FFFFFFE0
ENDCHAR
STARTCHAR afii10047
ENCODING 252
SWIDTH 750 0
DWIDTH 24 0
BBX 25 23 1 0
BITMAP
001F8000
00FFF000
01FFF800
03E07C00
0F003C00
0E001E00
00000E00
00000E00
00000E00
00000E00
001FFE00
001FFE00
003FFC00
00001C00
00001C00
00003800
00007000
7000F000
7801E000
3E07C000
3FFF0000
1FFE0000
03F00000
ENDCHAR
STARTCHAR afii10043
ENCODING 253
SWIDTH 968 0
DWIDTH 31 0
BBX 35 26 0 -3
BITMAP
0380380380
0380380380
0380380380
0700700700
0700700700
0700700700
0700700700
0E00E00E00
0E00E00E00
0E00E00E00
0E00E00E00
1C01C01C00
1C01C01C00
1C01C01C00
1C01C01C00
3803803800
3803803800
3803803800
3803803800
7007007000
7FFFFFFC00
7FFFFFFC00
7FFFFFFC00
0000003800
0000003800
0000003800
ENDCHAR
STARTCHAR afii10041
ENCODING 254
SWIDTH 718 0
DWIDTH 23 0
BBX 23 23 2 0
BITMAP
07000E
07000E
07000E
07000E
0E001C
0E001C
0E001C
0E001C
1E0038
1FFFF8
0FFFF8
07FFF8
000070
000070
000070
000070
0000E0
0000E0
0000E0
0000E0
0001C0
0001C0
0001C0
ENDCHAR
STARTCHAR afii10044
ENCODING 255
SWIDTH 750 0
DWIDTH 24 0
BBX 27 23 0 0
BITMAP
07F00000
07F00000
07F00000
00700000
00E00000
00E00000
00E00000
00E00000
01C00000
01C00000
01FFFE00
01FFFF00
03FFFF00
03800F00
03800700
03800700
07000E00
07000E00
07000E00
07001E00
0FFFFC00
0FFFF800
0FFFF000
ENDCHAR
ENDFONT
