STARTFONT 2.1
COMMENT Copyright (C) 1990-1991 EWT Consulting
COMMENT Portions Copyright (C) 1994-1995 Cronyx Ltd.
COMMENT Changes Copyright (C) 1996-1997 by Andrey A. Chernov, Moscow, Russia.
COMMENT Modified by Serge Vakulenko, <vak@cronyx.ru>
COMMENT Changes 1999 by Serge Winitzki.
COMMENT This software may be used, modified, copied, distributed, and sold,
COMMENT in both source and binary form provided that the copyright
COMMENT and these terms are retained. Under no circumstances is the author
COMMENT responsible for the proper functioning of this software, nor does
COMMENT the author assume any responsibility for damages incurred with its use.
COMMENT $XFree86$
FONT -Cronyx-Helvetica-Medium-O-Normal--14-100-100-100-P-56-KOI8-R
SIZE 10 96 96
FONTBOUNDINGBOX 16 15 -1 -3
STARTPROPERTIES 21
DEFAULT_CHAR 32
FONT_ASCENT 13
FONT_DESCENT 3
SPACING "P"
FONTNAME_REGISTRY ""
FOUNDRY "Cronyx"
FAMILY_NAME "Helvetica"
WEIGHT_NAME "Medium"
SLANT "O"
SETWIDTH_NAME "Normal"
ADD_STYLE_NAME ""
AVERAGE_WIDTH 56
CHARSET_REGISTRY "KOI8"
CHARSET_ENCODING "R"
PIXEL_SIZE 14
POINT_SIZE 100
RESOLUTION_X 100
RESOLUTION_Y 100
COPYRIGHT "Copyright (C) 1990, 1991 EWT Consulting, Portions Copyright (C) 1994 Cronyx Ltd., Portions Copyright (C) 1996-1997 by Andrey A. Chernov, Moscow, Russia."
_XMBDFED_INFO "Edited with xmbdfed 4.3."
_XFREE86_GLYPH_RANGES "32_126 149 154 156_158 163 179 191_255"
ENDPROPERTIES
CHARS 167
STARTCHAR space
ENCODING 32
SWIDTH 225 0
DWIDTH 3 0
BBX 0 0 -1 0
BITMAP
ENDCHAR
STARTCHAR exclam
ENCODING 33
SWIDTH 225 0
DWIDTH 3 0
BBX 3 10 0 0
BITMAP
20
20
20
40
40
40
40
80
00
80
ENDCHAR
STARTCHAR quotedbl
ENCODING 34
SWIDTH 375 0
DWIDTH 5 0
BBX 4 4 1 6
BITMAP
50
A0
A0
A0
ENDCHAR
STARTCHAR numbersign
ENCODING 35
SWIDTH 525 0
DWIDTH 7 0
BBX 9 10 -1 0
BITMAP
0500
0500
0500
3F00
1400
1400
7E00
5000
5000
5000
ENDCHAR
STARTCHAR dollar
ENCODING 36
SWIDTH 525 0
DWIDTH 7 0
BBX 7 11 0 -1
BITMAP
08
1C
2A
2A
50
38
14
14
A8
70
20
ENDCHAR
STARTCHAR percent
ENCODING 37
SWIDTH 900 0
DWIDTH 12 0
BBX 12 10 0 0
BITMAP
1800
2420
2840
3180
0200
0400
08C0
3140
4240
0180
ENDCHAR
STARTCHAR ampersand
ENCODING 38
SWIDTH 675 0
DWIDTH 9 0
BBX 9 10 0 0
BITMAP
0C00
1200
1200
2400
1800
2800
4400
8A00
8400
7A00
ENDCHAR
STARTCHAR quotesingle
ENCODING 39
SWIDTH 225 0
DWIDTH 3 0
BBX 2 4 1 6
BITMAP
40
80
80
80
ENDCHAR
STARTCHAR parenleft
ENCODING 40
SWIDTH 300 0
DWIDTH 4 0
BBX 6 13 0 -3
BITMAP
04
08
10
20
20
20
40
40
40
40
40
40
20
ENDCHAR
STARTCHAR parenright
ENCODING 41
SWIDTH 300 0
DWIDTH 4 0
BBX 6 13 -1 -3
BITMAP
10
08
10
08
08
08
10
10
10
20
40
40
80
ENDCHAR
STARTCHAR asterisk
ENCODING 42
SWIDTH 375 0
DWIDTH 5 0
BBX 6 4 0 6
BITMAP
10
A8
70
D8
ENDCHAR
STARTCHAR plus
ENCODING 43
SWIDTH 525 0
DWIDTH 7 0
BBX 6 5 1 2
BITMAP
10
10
F8
20
20
ENDCHAR
STARTCHAR comma
ENCODING 44
SWIDTH 225 0
DWIDTH 3 0
BBX 2 2 -1 -1
BITMAP
40
80
ENDCHAR
STARTCHAR hyphen
ENCODING 45
SWIDTH 300 0
DWIDTH 4 0
BBX 4 1 0 4
BITMAP
F0
ENDCHAR
STARTCHAR period
ENCODING 46
SWIDTH 225 0
DWIDTH 3 0
BBX 1 1 0 0
BITMAP
80
ENDCHAR
STARTCHAR slash
ENCODING 47
SWIDTH 300 0
DWIDTH 4 0
BBX 7 12 -1 -2
BITMAP
02
04
04
08
08
10
20
20
40
80
80
80
ENDCHAR
STARTCHAR zero
ENCODING 48
SWIDTH 525 0
DWIDTH 7 0
BBX 7 10 0 0
BITMAP
1C
22
22
44
44
44
44
88
88
70
ENDCHAR
STARTCHAR one
ENCODING 49
SWIDTH 525 0
DWIDTH 7 0
BBX 5 10 0 0
BITMAP
08
38
08
10
10
10
10
20
20
20
ENDCHAR
STARTCHAR two
ENCODING 50
SWIDTH 525 0
DWIDTH 7 0
BBX 7 10 0 0
BITMAP
1C
22
22
04
08
10
20
40
80
F8
ENDCHAR
STARTCHAR three
ENCODING 51
SWIDTH 525 0
DWIDTH 7 0
BBX 7 10 0 0
BITMAP
1C
22
02
04
18
04
04
08
88
70
ENDCHAR
STARTCHAR four
ENCODING 52
SWIDTH 525 0
DWIDTH 7 0
BBX 7 10 0 0
BITMAP
02
06
0A
14
24
44
7C
08
08
08
ENDCHAR
STARTCHAR five
ENCODING 53
SWIDTH 525 0
DWIDTH 7 0
BBX 7 10 0 0
BITMAP
3E
20
20
40
78
44
04
08
88
70
ENDCHAR
STARTCHAR six
ENCODING 54
SWIDTH 525 0
DWIDTH 7 0
BBX 7 10 0 0
BITMAP
1C
22
20
40
58
64
44
88
88
70
ENDCHAR
STARTCHAR seven
ENCODING 55
SWIDTH 525 0
DWIDTH 7 0
BBX 7 10 0 0
BITMAP
3E
02
04
08
08
10
20
40
40
40
ENDCHAR
STARTCHAR eight
ENCODING 56
SWIDTH 525 0
DWIDTH 7 0
BBX 7 10 0 0
BITMAP
1C
22
22
44
38
44
44
88
88
70
ENDCHAR
STARTCHAR nine
ENCODING 57
SWIDTH 525 0
DWIDTH 7 0
BBX 7 10 0 0
BITMAP
1C
22
22
44
4C
34
04
08
88
70
ENDCHAR
STARTCHAR colon
ENCODING 58
SWIDTH 225 0
DWIDTH 3 0
BBX 2 7 0 0
BITMAP
40
00
00
00
00
00
80
ENDCHAR
STARTCHAR semicolon
ENCODING 59
SWIDTH 225 0
DWIDTH 3 0
BBX 4 8 -1 -1
BITMAP
10
00
00
00
00
00
40
80
ENDCHAR
STARTCHAR less
ENCODING 60
SWIDTH 525 0
DWIDTH 7 0
BBX 6 7 1 1
BITMAP
0C
18
30
60
60
30
18
ENDCHAR
STARTCHAR equal
ENCODING 61
SWIDTH 525 0
DWIDTH 7 0
BBX 5 3 1 3
BITMAP
F8
00
F8
ENDCHAR
STARTCHAR greater
ENCODING 62
SWIDTH 525 0
DWIDTH 7 0
BBX 6 7 1 1
BITMAP
60
30
18
0C
30
60
C0
ENDCHAR
STARTCHAR question
ENCODING 63
SWIDTH 525 0
DWIDTH 7 0
BBX 7 10 0 0
BITMAP
1C
22
22
04
08
10
10
20
00
20
ENDCHAR
STARTCHAR at
ENCODING 64
SWIDTH 1050 0
DWIDTH 14 0
BBX 15 12 0 -1
BITMAP
01E0
0E30
1008
1008
21E4
4248
4448
4488
2370
4000
3060
0F80
ENDCHAR
STARTCHAR A
ENCODING 65
SWIDTH 675 0
DWIDTH 9 0
BBX 11 10 -1 0
BITMAP
0200
0200
0500
0A00
1100
1100
3F80
4100
8080
8080
ENDCHAR
STARTCHAR B
ENCODING 66
SWIDTH 675 0
DWIDTH 9 0
BBX 9 10 0 0
BITMAP
3F00
2080
2080
4100
7E00
4100
4100
8200
8200
FC00
ENDCHAR
STARTCHAR C
ENCODING 67
SWIDTH 675 0
DWIDTH 9 0
BBX 10 10 0 0
BITMAP
0F00
1080
2040
4000
4000
4000
4000
8100
4200
3C00
ENDCHAR
STARTCHAR D
ENCODING 68
SWIDTH 750 0
DWIDTH 10 0
BBX 10 10 0 0
BITMAP
3F00
2080
2040
4080
4080
4080
4080
8100
8200
FC00
ENDCHAR
STARTCHAR E
ENCODING 69
SWIDTH 675 0
DWIDTH 9 0
BBX 9 10 0 0
BITMAP
3F80
2000
2000
4000
7E00
4000
4000
8000
8000
FE00
ENDCHAR
STARTCHAR F
ENCODING 70
SWIDTH 600 0
DWIDTH 8 0
BBX 9 10 0 0
BITMAP
3F80
2000
2000
4000
7E00
4000
4000
8000
8000
8000
ENDCHAR
STARTCHAR G
ENCODING 71
SWIDTH 750 0
DWIDTH 10 0
BBX 10 10 0 0
BITMAP
0F00
1080
2040
4000
4000
4380
4080
8100
4300
3D00
ENDCHAR
STARTCHAR H
ENCODING 72
SWIDTH 750 0
DWIDTH 10 0
BBX 10 10 0 0
BITMAP
2040
2040
2040
4080
7F80
4080
4080
8100
8100
8100
ENDCHAR
STARTCHAR I
ENCODING 73
SWIDTH 225 0
DWIDTH 3 0
BBX 3 10 0 0
BITMAP
20
20
20
40
40
40
40
80
80
80
ENDCHAR
STARTCHAR J
ENCODING 74
SWIDTH 525 0
DWIDTH 7 0
BBX 7 10 0 0
BITMAP
02
02
02
04
04
04
04
88
88
70
ENDCHAR
STARTCHAR K
ENCODING 75
SWIDTH 600 0
DWIDTH 8 0
BBX 9 10 0 0
BITMAP
2100
2200
2400
5800
6000
5000
4800
8800
8400
8200
ENDCHAR
STARTCHAR L
ENCODING 76
SWIDTH 525 0
DWIDTH 7 0
BBX 8 10 0 0
BITMAP
20
20
20
40
40
40
40
80
80
FC
ENDCHAR
STARTCHAR M
ENCODING 77
SWIDTH 825 0
DWIDTH 11 0
BBX 11 10 0 0
BITMAP
2020
2020
3060
60C0
5140
5140
4A40
9480
8880
8880
ENDCHAR
STARTCHAR N
ENCODING 78
SWIDTH 750 0
DWIDTH 10 0
BBX 10 10 0 0
BITMAP
2040
3040
2840
5080
4880
4480
4280
8500
8300
8100
ENDCHAR
STARTCHAR O
ENCODING 79
SWIDTH 750 0
DWIDTH 10 0
BBX 10 10 0 0
BITMAP
0F00
1080
2040
4080
4080
4080
4080
8100
4200
3C00
ENDCHAR
STARTCHAR P
ENCODING 80
SWIDTH 675 0
DWIDTH 9 0
BBX 10 10 0 0
BITMAP
3F00
2080
2040
4080
4100
7E00
4000
8000
8000
8000
ENDCHAR
STARTCHAR Q
ENCODING 81
SWIDTH 750 0
DWIDTH 10 0
BBX 10 10 0 0
BITMAP
0F00
1080
2040
4080
4080
4080
4080
8500
4200
3D00
ENDCHAR
STARTCHAR R
ENCODING 82
SWIDTH 750 0
DWIDTH 10 0
BBX 11 10 0 0
BITMAP
3F00
2080
2040
4080
4100
7F00
4080
8100
8100
8080
ENDCHAR
STARTCHAR S
ENCODING 83
SWIDTH 675 0
DWIDTH 9 0
BBX 9 10 0 0
BITMAP
1F00
2080
2080
4000
3800
0600
0100
8200
8200
7C00
ENDCHAR
STARTCHAR T
ENCODING 84
SWIDTH 675 0
DWIDTH 9 0
BBX 11 10 -1 0
BITMAP
3FE0
0200
0200
0400
0400
0400
0400
0800
0800
0800
ENDCHAR
STARTCHAR U
ENCODING 85
SWIDTH 750 0
DWIDTH 10 0
BBX 10 10 0 0
BITMAP
2040
2040
2040
4080
4080
4080
4080
8100
4200
3C00
ENDCHAR
STARTCHAR V
ENCODING 86
SWIDTH 675 0
DWIDTH 9 0
BBX 11 10 -1 0
BITMAP
2020
2020
1040
2080
1100
1100
0A00
1400
0800
0800
ENDCHAR
STARTCHAR W
ENCODING 87
SWIDTH 975 0
DWIDTH 13 0
BBX 15 10 -1 0
BITMAP
2082
2082
2104
2288
2288
1450
1450
28A0
1040
1040
ENDCHAR
STARTCHAR X
ENCODING 88
SWIDTH 600 0
DWIDTH 8 0
BBX 10 10 -1 0
BITMAP
2040
2040
1080
1300
0C00
0C00
1200
6200
8100
8100
ENDCHAR
STARTCHAR Y
ENCODING 89
SWIDTH 675 0
DWIDTH 9 0
BBX 11 10 -1 0
BITMAP
2020
2020
1040
1180
0A00
0400
0400
0800
0800
0800
ENDCHAR
STARTCHAR Z
ENCODING 90
SWIDTH 600 0
DWIDTH 8 0
BBX 8 10 0 0
BITMAP
3F
01
02
04
08
10
20
40
80
FC
ENDCHAR
STARTCHAR bracketleft
ENCODING 91
SWIDTH 300 0
DWIDTH 4 0
BBX 6 13 0 -3
BITMAP
1C
10
20
20
20
20
40
40
40
40
80
80
E0
ENDCHAR
STARTCHAR backslash
ENCODING 92
SWIDTH 300 0
DWIDTH 4 0
BBX 7 12 -1 -2
BITMAP
10
20
20
10
10
20
10
10
10
10
10
10
ENDCHAR
STARTCHAR bracketright
ENCODING 93
SWIDTH 300 0
DWIDTH 4 0
BBX 6 13 -1 -3
BITMAP
1C
04
08
08
08
08
10
10
10
10
20
20
E0
ENDCHAR
STARTCHAR asciicircum
ENCODING 94
SWIDTH 525 0
DWIDTH 7 0
BBX 5 3 2 8
BITMAP
20
50
88
ENDCHAR
STARTCHAR underscore
ENCODING 95
SWIDTH 525 0
DWIDTH 7 0
BBX 7 1 -1 -2
BITMAP
FE
ENDCHAR
STARTCHAR grave
ENCODING 96
SWIDTH 300 0
DWIDTH 4 0
BBX 2 2 2 8
BITMAP
80
40
ENDCHAR
STARTCHAR a
ENCODING 97
SWIDTH 600 0
DWIDTH 8 0
BBX 8 7 0 0
BITMAP
3C
42
3E
42
84
84
7A
ENDCHAR
STARTCHAR b
ENCODING 98
SWIDTH 600 0
DWIDTH 8 0
BBX 8 10 0 0
BITMAP
20
20
20
5C
62
42
42
84
C4
B8
ENDCHAR
STARTCHAR c
ENCODING 99
SWIDTH 525 0
DWIDTH 7 0
BBX 7 7 0 0
BITMAP
3C
42
40
40
80
84
78
ENDCHAR
STARTCHAR d
ENCODING 100
SWIDTH 600 0
DWIDTH 8 0
BBX 8 10 0 0
BITMAP
01
01
01
3A
46
42
42
84
8C
74
ENDCHAR
STARTCHAR e
ENCODING 101
SWIDTH 600 0
DWIDTH 8 0
BBX 7 7 0 0
BITMAP
3C
42
42
7E
80
84
78
ENDCHAR
STARTCHAR f
ENCODING 102
SWIDTH 225 0
DWIDTH 3 0
BBX 5 10 -1 0
BITMAP
08
10
10
70
20
20
20
40
40
40
ENDCHAR
STARTCHAR g
ENCODING 103
SWIDTH 600 0
DWIDTH 8 0
BBX 8 10 0 -3
BITMAP
1D
23
21
42
42
46
3A
04
04
78
ENDCHAR
STARTCHAR h
ENCODING 104
SWIDTH 525 0
DWIDTH 7 0
BBX 7 10 0 0
BITMAP
20
20
20
58
64
44
44
88
88
88
ENDCHAR
STARTCHAR i
ENCODING 105
SWIDTH 225 0
DWIDTH 3 0
BBX 3 10 0 0
BITMAP
20
00
00
40
40
40
40
80
80
80
ENDCHAR
STARTCHAR j
ENCODING 106
SWIDTH 225 0
DWIDTH 3 0
BBX 5 13 -1 -3
BITMAP
08
00
00
10
10
10
20
20
20
20
40
40
80
ENDCHAR
STARTCHAR k
ENCODING 107
SWIDTH 525 0
DWIDTH 7 0
BBX 8 10 0 0
BITMAP
20
20
20
44
48
50
70
90
88
84
ENDCHAR
STARTCHAR l
ENCODING 108
SWIDTH 225 0
DWIDTH 3 0
BBX 3 10 0 0
BITMAP
20
20
20
40
40
40
40
80
80
80
ENDCHAR
STARTCHAR m
ENCODING 109
SWIDTH 825 0
DWIDTH 11 0
BBX 10 7 0 0
BITMAP
5980
6640
4440
4440
8880
8880
8880
ENDCHAR
STARTCHAR n
ENCODING 110
SWIDTH 525 0
DWIDTH 7 0
BBX 6 7 0 0
BITMAP
58
64
44
44
88
88
88
ENDCHAR
STARTCHAR o
ENCODING 111
SWIDTH 600 0
DWIDTH 8 0
BBX 7 7 0 0
BITMAP
3C
42
42
42
84
84
78
ENDCHAR
STARTCHAR p
ENCODING 112
SWIDTH 600 0
DWIDTH 8 0
BBX 8 10 0 -3
BITMAP
2E
31
21
42
42
62
5C
80
80
80
ENDCHAR
STARTCHAR q
ENCODING 113
SWIDTH 600 0
DWIDTH 8 0
BBX 8 10 0 -3
BITMAP
1D
23
21
42
42
46
3A
04
04
04
ENDCHAR
STARTCHAR r
ENCODING 114
SWIDTH 300 0
DWIDTH 4 0
BBX 4 7 0 0
BITMAP
50
60
40
40
80
80
80
ENDCHAR
STARTCHAR s
ENCODING 115
SWIDTH 525 0
DWIDTH 7 0
BBX 6 7 0 0
BITMAP
38
44
40
38
08
88
70
ENDCHAR
STARTCHAR t
ENCODING 116
SWIDTH 225 0
DWIDTH 3 0
BBX 5 9 -1 0
BITMAP
10
10
70
20
20
20
40
40
20
ENDCHAR
STARTCHAR u
ENCODING 117
SWIDTH 525 0
DWIDTH 7 0
BBX 6 7 0 0
BITMAP
44
44
44
44
88
98
68
ENDCHAR
STARTCHAR v
ENCODING 118
SWIDTH 525 0
DWIDTH 7 0
BBX 8 7 -1 0
BITMAP
41
41
22
24
28
28
10
ENDCHAR
STARTCHAR w
ENCODING 119
SWIDTH 675 0
DWIDTH 9 0
BBX 10 7 -1 0
BITMAP
4440
4440
2A80
2A80
5500
2200
2200
ENDCHAR
STARTCHAR x
ENCODING 120
SWIDTH 450 0
DWIDTH 6 0
BBX 7 7 -1 0
BITMAP
42
24
18
18
30
48
84
ENDCHAR
STARTCHAR y
ENCODING 121
SWIDTH 525 0
DWIDTH 7 0
BBX 9 10 -1 -3
BITMAP
2080
2080
1100
2200
1400
1400
0800
1000
2000
C000
ENDCHAR
STARTCHAR z
ENCODING 122
SWIDTH 450 0
DWIDTH 6 0
BBX 5 7 0 0
BITMAP
78
08
10
20
40
80
F0
ENDCHAR
STARTCHAR braceleft
ENCODING 123
SWIDTH 375 0
DWIDTH 5 0
BBX 8 13 -1 -3
BITMAP
03
04
08
08
08
10
60
10
10
10
20
20
18
ENDCHAR
STARTCHAR bar
ENCODING 124
SWIDTH 225 0
DWIDTH 3 0
BBX 4 13 0 -3
BITMAP
10
10
20
20
20
20
40
40
40
40
80
80
80
ENDCHAR
STARTCHAR braceright
ENCODING 125
SWIDTH 375 0
DWIDTH 5 0
BBX 8 13 -1 -3
BITMAP
18
04
08
08
08
08
0C
10
10
10
20
20
C0
ENDCHAR
STARTCHAR asciitilde
ENCODING 126
SWIDTH 675 0
DWIDTH 9 0
BBX 7 3 1 7
BITMAP
62
92
8C
ENDCHAR
STARTCHAR bullet
ENCODING 149
SWIDTH 375 0
DWIDTH 5 0
BBX 5 4 1 2
BITMAP
30
F0
F0
60
ENDCHAR
STARTCHAR space
ENCODING 154
SWIDTH 225 0
DWIDTH 3 0
BBX 0 0 -1 0
BITMAP
ENDCHAR
STARTCHAR degree
ENCODING 156
SWIDTH 375 0
DWIDTH 5 0
BBX 5 4 1 6
BITMAP
30
50
90
60
ENDCHAR
STARTCHAR twosuperior
ENCODING 157
SWIDTH 300 0
DWIDTH 4 0
BBX 5 5 0 5
BITMAP
30
50
20
40
F0
ENDCHAR
STARTCHAR periodcentered
ENCODING 158
SWIDTH 225 0
DWIDTH 3 0
BBX 1 2 2 3
BITMAP
80
80
ENDCHAR
STARTCHAR afii10071
ENCODING 163
SWIDTH 600 0
DWIDTH 8 0
BBX 8 9 0 0
BITMAP
12
00
3C
42
42
7E
80
84
78
ENDCHAR
STARTCHAR afii10023
ENCODING 179
SWIDTH 675 0
DWIDTH 9 0
BBX 10 12 0 0
BITMAP
0880
0000
3F80
2000
2000
4000
7E00
4000
4000
8000
8000
FE00
ENDCHAR
STARTCHAR copyright
ENCODING 191
SWIDTH 600 0
DWIDTH 8 0
BBX 10 8 0 2
BITMAP
0F00
3100
4E80
5080
5080
9D00
4200
3C00
ENDCHAR
STARTCHAR afii10096
ENCODING 192
SWIDTH 675 0
DWIDTH 9 0
BBX 8 7 0 0
BITMAP
4E
51
51
71
A2
A2
9C
ENDCHAR
STARTCHAR afii10065
ENCODING 193
SWIDTH 600 0
DWIDTH 8 0
BBX 8 7 0 0
BITMAP
3C
42
3E
42
84
84
7A
ENDCHAR
STARTCHAR afii10066
ENCODING 194
SWIDTH 600 0
DWIDTH 8 0
BBX 8 10 0 0
BITMAP
01
1E
20
7C
42
42
42
84
84
78
ENDCHAR
STARTCHAR afii10088
ENCODING 195
SWIDTH 525 0
DWIDTH 7 0
BBX 8 9 0 -2
BITMAP
22
22
44
44
44
44
FC
04
04
ENDCHAR
STARTCHAR afii10069
ENCODING 196
SWIDTH 600 0
DWIDTH 8 0
BBX 9 9 0 -2
BITMAP
0F00
0900
1200
1200
1200
2200
FE00
8200
8200
ENDCHAR
STARTCHAR afii10070
ENCODING 197
SWIDTH 600 0
DWIDTH 8 0
BBX 7 7 0 0
BITMAP
3C
42
42
7E
80
84
78
ENDCHAR
STARTCHAR afii10086
ENCODING 198
SWIDTH 675 0
DWIDTH 9 0
BBX 10 13 0 -3
BITMAP
0200
0200
0400
1F00
2480
2480
4900
4900
4900
3E00
1000
1000
1000
ENDCHAR
STARTCHAR afii10068
ENCODING 199
SWIDTH 450 0
DWIDTH 6 0
BBX 6 7 0 0
BITMAP
7C
40
40
40
80
80
80
ENDCHAR
STARTCHAR afii10087
ENCODING 200
SWIDTH 450 0
DWIDTH 6 0
BBX 7 7 -1 0
BITMAP
42
24
18
18
30
48
84
ENDCHAR
STARTCHAR afii10074
ENCODING 201
SWIDTH 600 0
DWIDTH 8 0
BBX 7 7 0 0
BITMAP
42
42
46
4A
B4
C4
84
ENDCHAR
STARTCHAR afii10075
ENCODING 202
SWIDTH 600 0
DWIDTH 8 0
BBX 8 9 0 0
BITMAP
12
0C
42
42
46
4A
B4
C4
84
ENDCHAR
STARTCHAR afii10076
ENCODING 203
SWIDTH 525 0
DWIDTH 7 0
BBX 7 7 0 0
BITMAP
44
48
50
70
90
88
84
ENDCHAR
STARTCHAR afii10077
ENCODING 204
SWIDTH 525 0
DWIDTH 7 0
BBX 7 7 0 0
BITMAP
1E
22
22
22
44
44
84
ENDCHAR
STARTCHAR afii10078
ENCODING 205
SWIDTH 675 0
DWIDTH 9 0
BBX 8 7 0 0
BITMAP
41
63
55
49
82
82
82
ENDCHAR
STARTCHAR afii10079
ENCODING 206
SWIDTH 525 0
DWIDTH 7 0
BBX 7 7 0 0
BITMAP
42
42
42
7E
84
84
84
ENDCHAR
STARTCHAR afii10080
ENCODING 207
SWIDTH 600 0
DWIDTH 8 0
BBX 7 7 0 0
BITMAP
3C
42
42
42
84
84
78
ENDCHAR
STARTCHAR afii10081
ENCODING 208
SWIDTH 525 0
DWIDTH 7 0
BBX 7 7 0 0
BITMAP
7E
42
42
42
84
84
84
ENDCHAR
STARTCHAR afii10097
ENCODING 209
SWIDTH 600 0
DWIDTH 8 0
BBX 7 7 0 0
BITMAP
3E
42
42
42
7C
44
84
ENDCHAR
STARTCHAR afii10082
ENCODING 210
SWIDTH 600 0
DWIDTH 8 0
BBX 8 10 0 -3
BITMAP
2E
31
21
42
42
62
5C
80
80
80
ENDCHAR
STARTCHAR afii10083
ENCODING 211
SWIDTH 525 0
DWIDTH 7 0
BBX 7 7 0 0
BITMAP
3C
42
40
40
80
84
78
ENDCHAR
STARTCHAR afii10084
ENCODING 212
SWIDTH 450 0
DWIDTH 6 0
BBX 6 7 0 0
BITMAP
7C
10
10
10
20
20
20
ENDCHAR
STARTCHAR afii10085
ENCODING 213
SWIDTH 600 0
DWIDTH 8 0
BBX 9 10 0 -3
BITMAP
2080
2080
1100
2200
1400
1400
0800
1000
2000
C000
ENDCHAR
STARTCHAR afii10072
ENCODING 214
SWIDTH 825 0
DWIDTH 11 0
BBX 12 7 -1 0
BITMAP
2220
1240
0A80
1F80
2480
4440
8420
ENDCHAR
STARTCHAR afii10067
ENCODING 215
SWIDTH 600 0
DWIDTH 8 0
BBX 7 7 0 0
BITMAP
7C
42
42
7E
84
84
F8
ENDCHAR
STARTCHAR afii10094
ENCODING 216
SWIDTH 600 0
DWIDTH 8 0
BBX 7 7 0 0
BITMAP
40
40
7C
42
84
84
F8
ENDCHAR
STARTCHAR afii10093
ENCODING 217
SWIDTH 750 0
DWIDTH 10 0
BBX 9 7 0 0
BITMAP
4080
4080
7C80
4280
8500
8500
F900
ENDCHAR
STARTCHAR afii10073
ENCODING 218
SWIDTH 600 0
DWIDTH 8 0
BBX 7 7 0 0
BITMAP
3C
42
02
1C
04
84
78
ENDCHAR
STARTCHAR afii10090
ENCODING 219
SWIDTH 825 0
DWIDTH 11 0
BBX 10 7 0 0
BITMAP
4440
4440
4440
4440
8880
8880
FF80
ENDCHAR
STARTCHAR afii10095
ENCODING 220
SWIDTH 600 0
DWIDTH 8 0
BBX 7 7 0 0
BITMAP
3C
42
02
3E
04
84
78
ENDCHAR
STARTCHAR afii10091
ENCODING 221
SWIDTH 825 0
DWIDTH 11 0
BBX 12 9 0 -2
BITMAP
2220
2220
4440
4440
4440
4440
FFC0
0040
0040
ENDCHAR
STARTCHAR afii10089
ENCODING 222
SWIDTH 525 0
DWIDTH 7 0
BBX 7 7 0 0
BITMAP
42
42
42
3E
04
04
04
ENDCHAR
STARTCHAR afii10092
ENCODING 223
SWIDTH 675 0
DWIDTH 9 0
BBX 9 7 0 0
BITMAP
7000
1000
1F00
1080
2100
2100
3E00
ENDCHAR
STARTCHAR afii10048
ENCODING 224
SWIDTH 825 0
DWIDTH 11 0
BBX 11 10 0 0
BITMAP
2380
2440
2820
5040
7040
5040
5040
A080
9100
8E00
ENDCHAR
STARTCHAR afii10017
ENCODING 225
SWIDTH 675 0
DWIDTH 9 0
BBX 11 10 -1 0
BITMAP
0200
0200
0500
0A00
1100
1100
3F80
4100
8080
8080
ENDCHAR
STARTCHAR afii10018
ENCODING 226
SWIDTH 675 0
DWIDTH 9 0
BBX 9 10 0 0
BITMAP
3F00
2000
2000
4000
7E00
4100
4100
8200
8200
FC00
ENDCHAR
STARTCHAR afii10040
ENCODING 227
SWIDTH 750 0
DWIDTH 10 0
BBX 12 12 0 -2
BITMAP
1020
2040
2040
2040
2040
4080
4080
4080
4080
FF80
0080
0080
ENDCHAR
STARTCHAR afii10021
ENCODING 228
SWIDTH 750 0
DWIDTH 10 0
BBX 12 12 0 -2
BITMAP
07E0
0840
0840
0840
0840
1080
1080
1080
2080
FF80
8080
8080
ENDCHAR
STARTCHAR afii10022
ENCODING 229
SWIDTH 675 0
DWIDTH 9 0
BBX 9 10 0 0
BITMAP
3F80
2000
2000
4000
7E00
4000
4000
8000
8000
FE00
ENDCHAR
STARTCHAR afii10038
ENCODING 230
SWIDTH 750 0
DWIDTH 10 0
BBX 11 11 0 0
BITMAP
0200
0F80
1240
2220
4440
4440
4440
4480
4900
3E00
0800
ENDCHAR
STARTCHAR afii10020
ENCODING 231
SWIDTH 600 0
DWIDTH 8 0
BBX 8 10 0 0
BITMAP
3F
20
20
40
40
40
40
80
80
80
ENDCHAR
STARTCHAR afii10039
ENCODING 232
SWIDTH 600 0
DWIDTH 8 0
BBX 10 10 -1 0
BITMAP
2040
2040
1080
1300
0C00
0C00
1200
6200
8100
8100
ENDCHAR
STARTCHAR afii10026
ENCODING 233
SWIDTH 750 0
DWIDTH 10 0
BBX 10 10 0 0
BITMAP
2040
2040
2040
4180
4280
4480
4880
B100
C100
8100
ENDCHAR
STARTCHAR afii10027
ENCODING 234
SWIDTH 750 0
DWIDTH 10 0
BBX 11 12 0 0
BITMAP
0480
0700
2040
2040
2040
4180
4280
4480
4880
B100
C100
8100
ENDCHAR
STARTCHAR afii10028
ENCODING 235
SWIDTH 600 0
DWIDTH 8 0
BBX 9 10 0 0
BITMAP
2100
2200
2400
5800
6000
5000
4800
8800
8400
8200
ENDCHAR
STARTCHAR afii10029
ENCODING 236
SWIDTH 750 0
DWIDTH 10 0
BBX 11 10 0 0
BITMAP
07E0
0820
0820
1040
1040
1040
1040
2080
2080
C080
ENDCHAR
STARTCHAR afii10030
ENCODING 237
SWIDTH 825 0
DWIDTH 11 0
BBX 11 10 0 0
BITMAP
2020
2020
3060
60C0
5140
5140
4A40
9480
8880
8880
ENDCHAR
STARTCHAR afii10031
ENCODING 238
SWIDTH 750 0
DWIDTH 10 0
BBX 10 10 0 0
BITMAP
2040
2040
2040
4080
7F80
4080
4080
8100
8100
8100
ENDCHAR
STARTCHAR afii10032
ENCODING 239
SWIDTH 750 0
DWIDTH 10 0
BBX 10 10 0 0
BITMAP
0F00
1080
2040
4080
4080
4080
4080
8100
4200
3C00
ENDCHAR
STARTCHAR afii10033
ENCODING 240
SWIDTH 750 0
DWIDTH 10 0
BBX 10 10 0 0
BITMAP
3FC0
2040
2040
4080
4080
4080
4080
8100
8100
8100
ENDCHAR
STARTCHAR afii10049
ENCODING 241
SWIDTH 750 0
DWIDTH 10 0
BBX 10 10 0 0
BITMAP
1FC0
2040
2040
4080
4080
3F80
1080
2100
4100
8100
ENDCHAR
STARTCHAR afii10034
ENCODING 242
SWIDTH 675 0
DWIDTH 9 0
BBX 10 10 0 0
BITMAP
3F00
2080
2040
4080
4100
7E00
4000
8000
8000
8000
ENDCHAR
STARTCHAR afii10035
ENCODING 243
SWIDTH 675 0
DWIDTH 9 0
BBX 10 10 0 0
BITMAP
0F00
1080
2040
4000
4000
4000
4000
8100
4200
3C00
ENDCHAR
STARTCHAR afii10036
ENCODING 244
SWIDTH 675 0
DWIDTH 9 0
BBX 11 10 -1 0
BITMAP
3FE0
0200
0200
0400
0400
0400
0400
0800
0800
0800
ENDCHAR
STARTCHAR afii10037
ENCODING 245
SWIDTH 750 0
DWIDTH 10 0
BBX 11 10 0 0
BITMAP
2020
2020
1040
1180
0A00
0400
0800
1000
2000
C000
ENDCHAR
STARTCHAR afii10024
ENCODING 246
SWIDTH 975 0
DWIDTH 13 0
BBX 15 10 -1 0
BITMAP
1084
0888
0490
0560
0380
0540
0920
3220
4210
8208
ENDCHAR
STARTCHAR afii10019
ENCODING 247
SWIDTH 675 0
DWIDTH 9 0
BBX 9 10 0 0
BITMAP
3F00
2080
2080
4100
7E00
4100
4100
8200
8200
FC00
ENDCHAR
STARTCHAR afii10046
ENCODING 248
SWIDTH 750 0
DWIDTH 10 0
BBX 10 10 0 0
BITMAP
2000
2000
2000
4000
7F00
4080
4080
8100
8100
FE00
ENDCHAR
STARTCHAR afii10045
ENCODING 249
SWIDTH 900 0
DWIDTH 12 0
BBX 12 10 0 0
BITMAP
2010
2010
2010
4020
7F20
40A0
40A0
8140
8140
FE40
ENDCHAR
STARTCHAR afii10025
ENCODING 250
SWIDTH 675 0
DWIDTH 9 0
BBX 9 10 0 0
BITMAP
1F00
2080
0080
0100
0E00
0100
0100
0200
8200
7C00
ENDCHAR
STARTCHAR afii10042
ENCODING 251
SWIDTH 975 0
DWIDTH 13 0
BBX 13 10 0 0
BITMAP
2108
2108
2108
4210
4210
4210
4210
8420
8420
FFE0
ENDCHAR
STARTCHAR afii10047
ENCODING 252
SWIDTH 750 0
DWIDTH 10 0
BBX 10 10 0 0
BITMAP
0F00
1080
2040
0080
1F80
0080
0080
8100
4200
3C00
ENDCHAR
STARTCHAR afii10043
ENCODING 253
SWIDTH 975 0
DWIDTH 13 0
BBX 15 12 0 -2
BITMAP
1084
2108
2108
2108
2108
4210
4210
4210
4210
FFF0
0010
0010
ENDCHAR
STARTCHAR afii10041
ENCODING 254
SWIDTH 750 0
DWIDTH 10 0
BBX 10 10 0 0
BITMAP
2040
2040
2040
4080
3F80
0080
0080
0100
0100
0100
ENDCHAR
STARTCHAR afii10044
ENCODING 255
SWIDTH 825 0
DWIDTH 11 0
BBX 12 10 -1 0
BITMAP
3800
0800
0800
1000
1FC0
1020
1020
2040
2040
3F80
ENDCHAR
ENDFONT
