STARTFONT 2.1
COMMENT Copyright (C) 1990-1991 EWT Consulting
COMMENT Portions Copyright (C) 1994-1995 Cronyx Ltd.
COMMENT Changes Copyright (C) 1996-1997 by Andrey A. Chernov, Moscow, Russia.
COMMENT Modified by Serge Vakulenko, <vak@cronyx.ru>
COMMENT Changes 1999 by Serge Winitzki.
COMMENT This software may be used, modified, copied, distributed, and sold,
COMMENT in both source and binary form provided that the copyright
COMMENT and these terms are retained. Under no circumstances is the author
COMMENT responsible for the proper functioning of this software, nor does
COMMENT the author assume any responsibility for damages incurred with its use.
COMMENT $XFree86$
FONT -Cronyx-Times-Bold-I-Normal--14-100-100-100-P-54-KOI8-R
SIZE 10 96 96
FONTBOUNDINGBOX 17 15 -1 -3
STARTPROPERTIES 21
DEFAULT_CHAR 32
FONT_ASCENT 13
FONT_DESCENT 3
SPACING "P"
FONTNAME_REGISTRY ""
FOUNDRY "Cronyx"
FAMILY_NAME "Times"
WEIGHT_NAME "Bold"
SLANT "I"
SETWIDTH_NAME "Normal"
ADD_STYLE_NAME ""
AVERAGE_WIDTH 54
CHARSET_REGISTRY "KOI8"
CHARSET_ENCODING "R"
PIXEL_SIZE 14
POINT_SIZE 100
RESOLUTION_X 100
RESOLUTION_Y 100
COPYRIGHT "Copyright (C) 1990, 1991 EWT Consulting, Portions Copyright (C) 1994 Cronyx Ltd., Portions Copyright (C) 1996-1997 by Andrey A. Chernov, Moscow, Russia."
_XMBDFED_INFO "Edited with xmbdfed 4.3."
_XFREE86_GLYPH_RANGES "32_126 149 154 156_158 163 179 191_255"
ENDPROPERTIES
CHARS 167
STARTCHAR space
ENCODING 32
SWIDTH 308 0
DWIDTH 4 0
BBX 0 0 -1 0
BITMAP
ENDCHAR
STARTCHAR exclam
ENCODING 33
SWIDTH 400 0
DWIDTH 4 0
BBX 4 10 0 0
BITMAP
30
30
30
60
60
60
60
00
00
C0
ENDCHAR
STARTCHAR quotedbl
ENCODING 34
SWIDTH 2000 0
DWIDTH 6 0
BBX 4 3 1 7
BITMAP
F0
F0
F0
ENDCHAR
STARTCHAR numbersign
ENCODING 35
SWIDTH 800 0
DWIDTH 8 0
BBX 10 10 -1 0
BITMAP
0780
0780
0780
3F80
1E00
1E00
7F00
7800
7800
7800
ENDCHAR
STARTCHAR dollar
ENCODING 36
SWIDTH 538 0
DWIDTH 7 0
BBX 8 13 0 -2
BITMAP
06
06
1C
36
36
30
38
0C
0C
6C
70
60
60
ENDCHAR
STARTCHAR percent
ENCODING 37
SWIDTH 1300 0
DWIDTH 13 0
BBX 13 10 0 0
BITMAP
1C18
3630
3660
3980
0300
0600
0CE0
3360
6360
C1C0
ENDCHAR
STARTCHAR ampersand
ENCODING 38
SWIDTH 1100 0
DWIDTH 11 0
BBX 11 10 0 0
BITMAP
0C00
1E00
1E00
3C00
1BC0
3D80
6780
C600
CF00
7980
ENDCHAR
STARTCHAR quotesingle
ENCODING 39
SWIDTH 1333 0
DWIDTH 4 0
BBX 2 3 1 7
BITMAP
C0
C0
C0
ENDCHAR
STARTCHAR parenleft
ENCODING 40
SWIDTH 385 0
DWIDTH 5 0
BBX 6 13 0 -3
BITMAP
0C
0C
30
30
30
30
60
60
60
60
C0
60
60
ENDCHAR
STARTCHAR parenright
ENCODING 41
SWIDTH 385 0
DWIDTH 5 0
BBX 6 13 0 -3
BITMAP
18
18
18
18
18
18
30
30
30
30
60
C0
C0
ENDCHAR
STARTCHAR asterisk
ENCODING 42
SWIDTH 1600 0
DWIDTH 8 0
BBX 7 5 1 5
BITMAP
18
7E
78
FC
30
ENDCHAR
STARTCHAR plus
ENCODING 43
SWIDTH 1600 0
DWIDTH 8 0
BBX 7 5 1 2
BITMAP
18
18
FC
30
30
ENDCHAR
STARTCHAR comma
ENCODING 44
SWIDTH 1333 0
DWIDTH 4 0
BBX 3 3 -1 -2
BITMAP
60
60
C0
ENDCHAR
STARTCHAR hyphen
ENCODING 45
SWIDTH 5000 0
DWIDTH 5 0
BBX 5 1 0 4
BITMAP
F8
ENDCHAR
STARTCHAR period
ENCODING 46
SWIDTH 4000 0
DWIDTH 4 0
BBX 2 1 0 0
BITMAP
C0
ENDCHAR
STARTCHAR slash
ENCODING 47
SWIDTH 417 0
DWIDTH 5 0
BBX 8 12 -1 -2
BITMAP
03
06
06
0C
0C
18
30
30
30
C0
C0
C0
ENDCHAR
STARTCHAR zero
ENCODING 48
SWIDTH 700 0
DWIDTH 7 0
BBX 7 10 0 0
BITMAP
1C
36
36
6C
6C
6C
6C
D8
D8
70
ENDCHAR
STARTCHAR one
ENCODING 49
SWIDTH 700 0
DWIDTH 7 0
BBX 6 10 1 0
BITMAP
18
38
18
30
30
30
30
60
60
F0
ENDCHAR
STARTCHAR two
ENCODING 50
SWIDTH 700 0
DWIDTH 7 0
BBX 7 10 0 0
BITMAP
1C
36
06
0C
18
18
30
60
D8
F8
ENDCHAR
STARTCHAR three
ENCODING 51
SWIDTH 700 0
DWIDTH 7 0
BBX 7 10 0 0
BITMAP
1C
36
06
0C
38
0C
0C
18
D8
70
ENDCHAR
STARTCHAR four
ENCODING 52
SWIDTH 700 0
DWIDTH 7 0
BBX 7 10 0 0
BITMAP
06
0E
0E
3C
3C
6C
7C
18
18
18
ENDCHAR
STARTCHAR five
ENCODING 53
SWIDTH 700 0
DWIDTH 7 0
BBX 7 10 0 0
BITMAP
3E
30
30
60
78
0C
0C
18
D8
70
ENDCHAR
STARTCHAR six
ENCODING 54
SWIDTH 700 0
DWIDTH 7 0
BBX 7 10 0 0
BITMAP
0E
18
30
60
78
6C
6C
D8
D8
70
ENDCHAR
STARTCHAR seven
ENCODING 55
SWIDTH 700 0
DWIDTH 7 0
BBX 7 10 0 0
BITMAP
3E
36
06
18
18
18
30
60
60
60
ENDCHAR
STARTCHAR eight
ENCODING 56
SWIDTH 700 0
DWIDTH 7 0
BBX 7 10 0 0
BITMAP
1C
36
36
6C
38
6C
6C
D8
D8
70
ENDCHAR
STARTCHAR nine
ENCODING 57
SWIDTH 700 0
DWIDTH 7 0
BBX 7 10 0 0
BITMAP
1C
36
36
6C
6C
3C
0C
18
30
E0
ENDCHAR
STARTCHAR colon
ENCODING 58
SWIDTH 667 0
DWIDTH 4 0
BBX 3 6 0 0
BITMAP
60
00
00
00
00
C0
ENDCHAR
STARTCHAR semicolon
ENCODING 59
SWIDTH 500 0
DWIDTH 4 0
BBX 5 8 -1 -2
BITMAP
18
00
00
00
00
60
60
C0
ENDCHAR
STARTCHAR less
ENCODING 60
SWIDTH 778 0
DWIDTH 7 0
BBX 8 9 0 0
BITMAP
03
06
18
30
60
30
30
18
0C
ENDCHAR
STARTCHAR equal
ENCODING 61
SWIDTH 2000 0
DWIDTH 8 0
BBX 7 4 1 3
BITMAP
7E
00
00
FC
ENDCHAR
STARTCHAR greater
ENCODING 62
SWIDTH 778 0
DWIDTH 7 0
BBX 8 9 0 0
BITMAP
30
18
18
0C
06
0C
30
60
C0
ENDCHAR
STARTCHAR question
ENCODING 63
SWIDTH 700 0
DWIDTH 7 0
BBX 7 10 0 0
BITMAP
1C
36
06
0C
18
30
30
00
00
60
ENDCHAR
STARTCHAR at
ENCODING 64
SWIDTH 1300 0
DWIDTH 13 0
BBX 13 10 0 0
BITMAP
0FE0
1830
33D8
6DB0
6DB0
6DB0
6DB0
CF60
61C0
3C00
ENDCHAR
STARTCHAR A
ENCODING 65
SWIDTH 1000 0
DWIDTH 10 0
BBX 12 10 -1 0
BITMAP
0300
0300
0780
0F00
1980
1980
1F80
6180
6180
F3C0
ENDCHAR
STARTCHAR B
ENCODING 66
SWIDTH 1000 0
DWIDTH 10 0
BBX 10 10 0 0
BITMAP
3F80
18C0
18C0
3180
3F00
3180
3180
6300
6300
FE00
ENDCHAR
STARTCHAR C
ENCODING 67
SWIDTH 1100 0
DWIDTH 11 0
BBX 11 10 0 0
BITMAP
0FE0
18E0
3060
6000
6000
6000
6000
C180
6300
3E00
ENDCHAR
STARTCHAR D
ENCODING 68
SWIDTH 1100 0
DWIDTH 11 0
BBX 11 10 0 0
BITMAP
3F00
19C0
18C0
30C0
30C0
30C0
30C0
6300
6700
FC00
ENDCHAR
STARTCHAR E
ENCODING 69
SWIDTH 900 0
DWIDTH 9 0
BBX 9 10 0 0
BITMAP
3F80
1980
1800
3600
3E00
3600
3000
6000
6600
FE00
ENDCHAR
STARTCHAR F
ENCODING 70
SWIDTH 900 0
DWIDTH 9 0
BBX 9 10 0 0
BITMAP
3F80
1980
1800
3600
3E00
3600
3000
6000
6000
F000
ENDCHAR
STARTCHAR G
ENCODING 71
SWIDTH 1100 0
DWIDTH 11 0
BBX 12 10 0 0
BITMAP
0FE0
18E0
3060
6000
6000
61E0
60C0
C180
6180
3F00
ENDCHAR
STARTCHAR H
ENCODING 72
SWIDTH 1100 0
DWIDTH 11 0
BBX 11 10 0 0
BITMAP
3DE0
18C0
18C0
3180
3F80
3180
3180
6300
6300
F780
ENDCHAR
STARTCHAR I
ENCODING 73
SWIDTH 600 0
DWIDTH 6 0
BBX 6 10 0 0
BITMAP
3C
18
18
30
30
30
30
60
60
F0
ENDCHAR
STARTCHAR J
ENCODING 74
SWIDTH 800 0
DWIDTH 8 0
BBX 8 10 0 0
BITMAP
0F
06
06
0C
0C
0C
0C
18
D8
F0
ENDCHAR
STARTCHAR K
ENCODING 75
SWIDTH 1000 0
DWIDTH 10 0
BBX 11 10 0 0
BITMAP
3FC0
1980
1B00
3C00
3800
3C00
3600
6600
6300
F780
ENDCHAR
STARTCHAR L
ENCODING 76
SWIDTH 1000 0
DWIDTH 10 0
BBX 10 10 0 0
BITMAP
3C00
1800
1800
3000
3000
3000
3000
6000
6300
FF00
ENDCHAR
STARTCHAR M
ENCODING 77
SWIDTH 1200 0
DWIDTH 12 0
BBX 12 10 0 0
BITMAP
3870
1CE0
1CE0
39C0
3FC0
3FC0
3FC0
6D80
6D80
FFC0
ENDCHAR
STARTCHAR N
ENCODING 78
SWIDTH 1100 0
DWIDTH 11 0
BBX 11 10 0 0
BITMAP
39E0
1CC0
1CC0
3D80
3D80
3780
3780
6700
6700
F300
ENDCHAR
STARTCHAR O
ENCODING 79
SWIDTH 1100 0
DWIDTH 11 0
BBX 11 10 0 0
BITMAP
0F80
18C0
3060
60C0
60C0
60C0
60C0
C180
6300
3E00
ENDCHAR
STARTCHAR P
ENCODING 80
SWIDTH 900 0
DWIDTH 9 0
BBX 9 10 0 0
BITMAP
3F00
1980
1980
3300
3300
3E00
3000
6000
6000
F000
ENDCHAR
STARTCHAR Q
ENCODING 81
SWIDTH 917 0
DWIDTH 11 0
BBX 12 12 0 -2
BITMAP
07C0
18C0
3060
3060
3060
60C0
60C0
60C0
3180
3E00
0E00
0700
ENDCHAR
STARTCHAR R
ENCODING 82
SWIDTH 1100 0
DWIDTH 11 0
BBX 11 10 0 0
BITMAP
3F00
1980
1980
3300
3300
3E00
3600
6600
6300
F380
ENDCHAR
STARTCHAR S
ENCODING 83
SWIDTH 800 0
DWIDTH 8 0
BBX 8 10 0 0
BITMAP
1F
37
33
60
38
0C
06
CC
EC
F8
ENDCHAR
STARTCHAR T
ENCODING 84
SWIDTH 1200 0
DWIDTH 12 0
BBX 12 10 0 0
BITMAP
3FF0
3330
0300
0600
0600
0600
0600
0C00
0C00
1E00
ENDCHAR
STARTCHAR U
ENCODING 85
SWIDTH 1100 0
DWIDTH 11 0
BBX 11 10 0 0
BITMAP
3DE0
18C0
18C0
3180
3180
3180
3180
6300
6300
3E00
ENDCHAR
STARTCHAR V
ENCODING 86
SWIDTH 1000 0
DWIDTH 10 0
BBX 12 10 -1 0
BITMAP
3CF0
1860
1860
1980
1980
0F00
0F00
1E00
0C00
0C00
ENDCHAR
STARTCHAR W
ENCODING 87
SWIDTH 1400 0
DWIDTH 14 0
BBX 16 10 -1 0
BITMAP
3FFF
19E6
19E6
1998
1998
0FF0
0FF0
1FE0
0CC0
0CC0
ENDCHAR
STARTCHAR X
ENCODING 88
SWIDTH 1100 0
DWIDTH 11 0
BBX 13 10 -1 0
BITMAP
3C78
1830
0C60
0D80
0700
0700
0D80
3180
60C0
F1E0
ENDCHAR
STARTCHAR Y
ENCODING 89
SWIDTH 1000 0
DWIDTH 10 0
BBX 12 10 -1 0
BITMAP
3CF0
1860
0CC0
1980
0F00
0600
0600
0C00
0C00
1E00
ENDCHAR
STARTCHAR Z
ENCODING 90
SWIDTH 900 0
DWIDTH 9 0
BBX 11 10 -1 0
BITMAP
3FE0
30C0
0180
0300
0600
0C00
1800
3000
6180
FF80
ENDCHAR
STARTCHAR bracketleft
ENCODING 91
SWIDTH 385 0
DWIDTH 5 0
BBX 6 13 0 -3
BITMAP
1C
18
30
30
30
30
60
60
60
60
C0
C0
E0
ENDCHAR
STARTCHAR backslash
ENCODING 92
SWIDTH 417 0
DWIDTH 5 0
BBX 8 12 -1 -2
BITMAP
18
30
30
18
18
30
18
18
18
18
18
18
ENDCHAR
STARTCHAR bracketright
ENCODING 93
SWIDTH 385 0
DWIDTH 5 0
BBX 6 13 0 -3
BITMAP
1C
0C
18
18
18
18
30
30
30
30
60
60
E0
ENDCHAR
STARTCHAR asciicircum
ENCODING 94
SWIDTH 2667 0
DWIDTH 8 0
BBX 6 3 2 8
BITMAP
30
78
CC
ENDCHAR
STARTCHAR underscore
ENCODING 95
SWIDTH 7000 0
DWIDTH 7 0
BBX 7 1 -1 -3
BITMAP
FE
ENDCHAR
STARTCHAR grave
ENCODING 96
SWIDTH 1667 0
DWIDTH 5 0
BBX 4 3 1 8
BITMAP
C0
60
30
ENDCHAR
STARTCHAR a
ENCODING 97
SWIDTH 1000 0
DWIDTH 7 0
BBX 7 7 0 0
BITMAP
38
6C
3C
6C
D8
D8
7C
ENDCHAR
STARTCHAR b
ENCODING 98
SWIDTH 800 0
DWIDTH 8 0
BBX 9 10 0 0
BITMAP
3800
1800
1800
3E00
3B00
3300
3300
6600
6600
3C00
ENDCHAR
STARTCHAR c
ENCODING 99
SWIDTH 1000 0
DWIDTH 7 0
BBX 7 7 0 0
BITMAP
3C
66
60
60
C0
CC
78
ENDCHAR
STARTCHAR d
ENCODING 100
SWIDTH 700 0
DWIDTH 7 0
BBX 8 10 0 0
BITMAP
07
03
03
3E
66
66
66
CC
CC
7C
ENDCHAR
STARTCHAR e
ENCODING 101
SWIDTH 1000 0
DWIDTH 7 0
BBX 7 7 0 0
BITMAP
3C
66
66
7E
C0
CC
78
ENDCHAR
STARTCHAR f
ENCODING 102
SWIDTH 600 0
DWIDTH 6 0
BBX 7 10 0 0
BITMAP
0E
18
18
78
30
30
30
60
60
F0
ENDCHAR
STARTCHAR g
ENCODING 103
SWIDTH 800 0
DWIDTH 8 0
BBX 9 10 0 -3
BITMAP
1F80
3300
3300
6600
3C00
6000
3E00
C600
C600
7C00
ENDCHAR
STARTCHAR h
ENCODING 104
SWIDTH 800 0
DWIDTH 8 0
BBX 10 10 -1 0
BITMAP
3800
1800
1800
3E00
3B00
3300
3300
6600
6600
F700
ENDCHAR
STARTCHAR i
ENCODING 105
SWIDTH 500 0
DWIDTH 5 0
BBX 6 10 0 0
BITMAP
18
00
00
70
30
30
30
60
60
F0
ENDCHAR
STARTCHAR j
ENCODING 106
SWIDTH 385 0
DWIDTH 5 0
BBX 6 13 0 -3
BITMAP
0C
00
00
38
18
18
30
30
30
30
60
60
C0
ENDCHAR
STARTCHAR k
ENCODING 107
SWIDTH 800 0
DWIDTH 8 0
BBX 10 10 -1 0
BITMAP
3800
1800
1800
3700
3600
3C00
3C00
6C00
6600
F700
ENDCHAR
STARTCHAR l
ENCODING 108
SWIDTH 400 0
DWIDTH 4 0
BBX 6 10 -1 0
BITMAP
38
18
18
30
30
30
30
60
60
F0
ENDCHAR
STARTCHAR m
ENCODING 109
SWIDTH 1429 0
DWIDTH 10 0
BBX 11 7 -1 0
BITMAP
7D80
3FC0
36C0
36C0
6D80
6D80
FFC0
ENDCHAR
STARTCHAR n
ENCODING 110
SWIDTH 1143 0
DWIDTH 8 0
BBX 9 7 -1 0
BITMAP
7E00
3B00
3300
3300
6600
6600
F700
ENDCHAR
STARTCHAR o
ENCODING 111
SWIDTH 1000 0
DWIDTH 7 0
BBX 7 7 0 0
BITMAP
3C
66
66
66
CC
CC
78
ENDCHAR
STARTCHAR p
ENCODING 112
SWIDTH 800 0
DWIDTH 8 0
BBX 9 10 0 -3
BITMAP
3F00
1D80
1980
3300
3300
3300
3E00
6000
6000
F000
ENDCHAR
STARTCHAR q
ENCODING 113
SWIDTH 800 0
DWIDTH 8 0
BBX 9 10 0 -3
BITMAP
1F00
3300
3300
6600
6600
6600
3E00
0C00
0C00
1E00
ENDCHAR
STARTCHAR r
ENCODING 114
SWIDTH 1000 0
DWIDTH 7 0
BBX 7 7 0 0
BITMAP
7E
38
30
30
60
60
F0
ENDCHAR
STARTCHAR s
ENCODING 115
SWIDTH 857 0
DWIDTH 6 0
BBX 6 7 0 0
BITMAP
3C
6C
60
38
18
D8
F0
ENDCHAR
STARTCHAR t
ENCODING 116
SWIDTH 667 0
DWIDTH 6 0
BBX 7 9 0 0
BITMAP
18
18
78
30
30
30
60
78
30
ENDCHAR
STARTCHAR u
ENCODING 117
SWIDTH 1143 0
DWIDTH 8 0
BBX 9 7 -1 0
BITMAP
7700
3300
3300
3300
6600
6E00
3F00
ENDCHAR
STARTCHAR v
ENCODING 118
SWIDTH 1143 0
DWIDTH 8 0
BBX 9 7 -1 0
BITMAP
7F80
3300
3300
1E00
3C00
1800
1800
ENDCHAR
STARTCHAR w
ENCODING 119
SWIDTH 1714 0
DWIDTH 12 0
BBX 13 7 -1 0
BITMAP
7FF8
3330
3330
1FE0
3FC0
1980
1980
ENDCHAR
STARTCHAR x
ENCODING 120
SWIDTH 1143 0
DWIDTH 8 0
BBX 9 7 -1 0
BITMAP
7F80
3300
1E00
0C00
3C00
6600
FF00
ENDCHAR
STARTCHAR y
ENCODING 121
SWIDTH 800 0
DWIDTH 8 0
BBX 10 10 -1 -3
BITMAP
3FC0
1980
1980
1E00
1E00
0C00
0C00
3000
F000
E000
ENDCHAR
STARTCHAR z
ENCODING 122
SWIDTH 1000 0
DWIDTH 7 0
BBX 7 7 0 0
BITMAP
7E
66
0C
18
60
CC
FC
ENDCHAR
STARTCHAR braceleft
ENCODING 123
SWIDTH 462 0
DWIDTH 6 0
BBX 7 13 0 -3
BITMAP
06
0C
18
18
18
18
60
30
30
30
60
60
30
ENDCHAR
STARTCHAR bar
ENCODING 124
SWIDTH 308 0
DWIDTH 4 0
BBX 5 13 0 -3
BITMAP
18
18
30
30
30
30
60
60
60
60
C0
C0
C0
ENDCHAR
STARTCHAR braceright
ENCODING 125
SWIDTH 462 0
DWIDTH 6 0
BBX 7 13 0 -3
BITMAP
18
0C
18
18
18
18
18
30
30
30
60
60
C0
ENDCHAR
STARTCHAR asciitilde
ENCODING 126
SWIDTH 4500 0
DWIDTH 9 0
BBX 7 2 2 8
BITMAP
76
DC
ENDCHAR
STARTCHAR bullet
ENCODING 149
SWIDTH 1200 0
DWIDTH 6 0
BBX 6 5 1 1
BITMAP
38
7C
F8
F8
70
ENDCHAR
STARTCHAR space
ENCODING 154
SWIDTH 308 0
DWIDTH 4 0
BBX 0 0 -1 0
BITMAP
ENDCHAR
STARTCHAR degree
ENCODING 156
SWIDTH 1667 0
DWIDTH 5 0
BBX 4 3 1 7
BITMAP
60
F0
60
ENDCHAR
STARTCHAR twosuperior
ENCODING 157
SWIDTH 667 0
DWIDTH 4 0
BBX 5 6 0 4
BITMAP
30
78
18
60
C0
F0
ENDCHAR
STARTCHAR periodcentered
ENCODING 158
SWIDTH 3000 0
DWIDTH 6 0
BBX 3 2 2 3
BITMAP
E0
E0
ENDCHAR
STARTCHAR afii10071
ENCODING 163
SWIDTH 667 0
DWIDTH 6 0
BBX 8 9 0 0
BITMAP
3F
00
3C
66
66
7E
C0
CC
78
ENDCHAR
STARTCHAR afii10023
ENCODING 179
SWIDTH 583 0
DWIDTH 7 0
BBX 10 12 0 0
BITMAP
0FC0
0000
3F80
1980
1800
3600
3E00
3600
3000
6000
6600
FE00
ENDCHAR
STARTCHAR copyright
ENCODING 191
SWIDTH 1200 0
DWIDTH 12 0
BBX 12 10 0 0
BITMAP
0FC0
1860
37B0
79E0
7860
7860
79E0
DEC0
6180
3F00
ENDCHAR
STARTCHAR afii10096
ENCODING 192
SWIDTH 1571 0
DWIDTH 11 0
BBX 11 7 0 0
BITMAP
7BC0
3660
3660
3E60
6CC0
6CC0
F780
ENDCHAR
STARTCHAR afii10065
ENCODING 193
SWIDTH 1143 0
DWIDTH 8 0
BBX 8 7 0 0
BITMAP
3C
06
3E
66
CC
CC
7E
ENDCHAR
STARTCHAR afii10066
ENCODING 194
SWIDTH 700 0
DWIDTH 7 0
BBX 8 10 0 0
BITMAP
03
1E
30
7C
76
66
66
CC
CC
78
ENDCHAR
STARTCHAR afii10088
ENCODING 195
SWIDTH 1000 0
DWIDTH 9 0
BBX 10 9 0 -2
BITMAP
3FC0
1980
3300
3300
3300
3300
FF00
0300
0300
ENDCHAR
STARTCHAR afii10069
ENCODING 196
SWIDTH 1125 0
DWIDTH 9 0
BBX 10 8 0 -1
BITMAP
1FC0
1B00
1B00
1B00
1B00
6600
FF00
C300
ENDCHAR
STARTCHAR afii10070
ENCODING 197
SWIDTH 1000 0
DWIDTH 7 0
BBX 7 7 0 0
BITMAP
3C
66
66
7E
C0
CC
78
ENDCHAR
STARTCHAR afii10086
ENCODING 198
SWIDTH 750 0
DWIDTH 9 0
BBX 11 12 0 -3
BITMAP
0780
0600
1F80
36C0
36C0
6D80
6D80
6D80
3F00
1800
1800
3C00
ENDCHAR
STARTCHAR afii10068
ENCODING 199
SWIDTH 1143 0
DWIDTH 8 0
BBX 8 7 0 0
BITMAP
7F
33
30
30
60
60
F0
ENDCHAR
STARTCHAR afii10087
ENCODING 200
SWIDTH 1286 0
DWIDTH 9 0
BBX 9 7 0 0
BITMAP
7F80
3300
1E00
0C00
3C00
6600
FF00
ENDCHAR
STARTCHAR afii10074
ENCODING 201
SWIDTH 1286 0
DWIDTH 9 0
BBX 9 7 0 0
BITMAP
7F80
3300
3700
3F00
7600
6600
FF00
ENDCHAR
STARTCHAR afii10075
ENCODING 202
SWIDTH 1000 0
DWIDTH 9 0
BBX 10 9 0 0
BITMAP
0F00
0600
7F80
3300
3700
3F00
7600
6600
FF00
ENDCHAR
STARTCHAR afii10076
ENCODING 203
SWIDTH 1143 0
DWIDTH 8 0
BBX 8 7 0 0
BITMAP
7F
36
3C
3C
6C
6C
FE
ENDCHAR
STARTCHAR afii10077
ENCODING 204
SWIDTH 1286 0
DWIDTH 9 0
BBX 9 7 0 0
BITMAP
3F80
1B00
1B00
1B00
3600
3600
EF00
ENDCHAR
STARTCHAR afii10078
ENCODING 205
SWIDTH 1571 0
DWIDTH 11 0
BBX 11 7 0 0
BITMAP
70E0
39C0
39C0
3FC0
7F80
6D80
FDC0
ENDCHAR
STARTCHAR afii10079
ENCODING 206
SWIDTH 1286 0
DWIDTH 9 0
BBX 9 7 0 0
BITMAP
7F80
3300
3300
3F00
6600
6600
FF00
ENDCHAR
STARTCHAR afii10080
ENCODING 207
SWIDTH 1000 0
DWIDTH 7 0
BBX 7 7 0 0
BITMAP
3C
66
66
66
CC
CC
78
ENDCHAR
STARTCHAR afii10081
ENCODING 208
SWIDTH 1286 0
DWIDTH 9 0
BBX 9 7 0 0
BITMAP
7F80
3300
3300
3300
6600
6600
FF00
ENDCHAR
STARTCHAR afii10097
ENCODING 209
SWIDTH 1286 0
DWIDTH 9 0
BBX 9 7 0 0
BITMAP
1F80
3300
3300
1F00
3600
6600
EF00
ENDCHAR
STARTCHAR afii10082
ENCODING 210
SWIDTH 800 0
DWIDTH 8 0
BBX 9 10 0 -3
BITMAP
3F00
1980
1980
3300
3300
3300
3E00
6000
6000
F000
ENDCHAR
STARTCHAR afii10083
ENCODING 211
SWIDTH 1000 0
DWIDTH 7 0
BBX 7 7 0 0
BITMAP
3C
66
60
60
C0
CC
78
ENDCHAR
STARTCHAR afii10084
ENCODING 212
SWIDTH 1000 0
DWIDTH 7 0
BBX 7 7 0 0
BITMAP
7E
7E
18
18
30
30
78
ENDCHAR
STARTCHAR afii10085
ENCODING 213
SWIDTH 900 0
DWIDTH 9 0
BBX 10 10 0 -3
BITMAP
3FC0
1980
1980
1E00
1E00
0C00
0C00
3000
F000
E000
ENDCHAR
STARTCHAR afii10072
ENCODING 214
SWIDTH 1571 0
DWIDTH 11 0
BBX 11 7 0 0
BITMAP
7FE0
36C0
1F80
1F80
6D80
6D80
FFC0
ENDCHAR
STARTCHAR afii10067
ENCODING 215
SWIDTH 1143 0
DWIDTH 8 0
BBX 8 7 0 0
BITMAP
7E
33
33
3E
66
66
FC
ENDCHAR
STARTCHAR afii10094
ENCODING 216
SWIDTH 1143 0
DWIDTH 8 0
BBX 8 7 0 0
BITMAP
78
30
3E
33
66
66
FC
ENDCHAR
STARTCHAR afii10093
ENCODING 217
SWIDTH 1571 0
DWIDTH 11 0
BBX 11 7 0 0
BITMAP
79E0
30C0
3EC0
33C0
6780
6780
FFC0
ENDCHAR
STARTCHAR afii10073
ENCODING 218
SWIDTH 1000 0
DWIDTH 7 0
BBX 7 7 0 0
BITMAP
3C
66
06
1C
0C
CC
78
ENDCHAR
STARTCHAR afii10090
ENCODING 219
SWIDTH 1857 0
DWIDTH 13 0
BBX 13 7 0 0
BITMAP
7FF8
3330
3330
3330
6660
6660
FFF0
ENDCHAR
STARTCHAR afii10095
ENCODING 220
SWIDTH 1000 0
DWIDTH 7 0
BBX 7 7 0 0
BITMAP
3C
66
06
3E
0C
CC
78
ENDCHAR
STARTCHAR afii10091
ENCODING 221
SWIDTH 1444 0
DWIDTH 13 0
BBX 14 9 0 -2
BITMAP
3FFC
1998
3330
3330
3330
3330
FFF0
0030
0030
ENDCHAR
STARTCHAR afii10089
ENCODING 222
SWIDTH 1286 0
DWIDTH 9 0
BBX 9 7 0 0
BITMAP
7F80
3300
3300
1F00
0600
0600
0F00
ENDCHAR
STARTCHAR afii10092
ENCODING 223
SWIDTH 1286 0
DWIDTH 9 0
BBX 9 7 0 0
BITMAP
7C00
7800
7F00
1980
3300
3300
7E00
ENDCHAR
STARTCHAR afii10048
ENCODING 224
SWIDTH 1400 0
DWIDTH 14 0
BBX 15 10 0 0
BITMAP
3CF8
198C
1B06
360C
3E0C
360C
360C
6C18
6630
F3E0
ENDCHAR
STARTCHAR afii10017
ENCODING 225
SWIDTH 1000 0
DWIDTH 10 0
BBX 12 10 -1 0
BITMAP
0300
0300
0780
0F00
1980
1980
1F80
6180
6180
F3C0
ENDCHAR
STARTCHAR afii10018
ENCODING 226
SWIDTH 900 0
DWIDTH 9 0
BBX 10 10 0 0
BITMAP
3FC0
18C0
1800
3000
3F00
3180
3180
6300
6300
FE00
ENDCHAR
STARTCHAR afii10040
ENCODING 227
SWIDTH 833 0
DWIDTH 10 0
BBX 12 12 0 -2
BITMAP
1EF0
18C0
18C0
18C0
18C0
3180
3180
3180
3180
FF80
0180
0180
ENDCHAR
STARTCHAR afii10021
ENCODING 228
SWIDTH 833 0
DWIDTH 10 0
BBX 12 12 0 -2
BITMAP
0FF0
0CC0
0CC0
0CC0
0CC0
1980
1980
1980
3180
FF80
C180
C180
ENDCHAR
STARTCHAR afii10022
ENCODING 229
SWIDTH 800 0
DWIDTH 8 0
BBX 9 10 0 0
BITMAP
3F80
1980
1800
3600
3E00
3600
3000
6000
6600
FE00
ENDCHAR
STARTCHAR afii10038
ENCODING 230
SWIDTH 1000 0
DWIDTH 11 0
BBX 12 11 0 0
BITMAP
0780
0300
0FC0
1B60
6660
6660
6660
36C0
3F00
0C00
1E00
ENDCHAR
STARTCHAR afii10020
ENCODING 231
SWIDTH 900 0
DWIDTH 9 0
BBX 10 10 0 0
BITMAP
3FC0
18C0
1800
3000
3000
3000
3000
6000
6000
F000
ENDCHAR
STARTCHAR afii10039
ENCODING 232
SWIDTH 1200 0
DWIDTH 12 0
BBX 13 10 0 0
BITMAP
3C78
1830
0C60
0D80
0700
0700
0D80
3180
60C0
F1E0
ENDCHAR
STARTCHAR afii10026
ENCODING 233
SWIDTH 1000 0
DWIDTH 10 0
BBX 11 10 0 0
BITMAP
3DE0
18C0
19C0
3780
3780
3D80
3D80
7300
6300
F780
ENDCHAR
STARTCHAR afii10027
ENCODING 234
SWIDTH 833 0
DWIDTH 10 0
BBX 12 12 0 0
BITMAP
06C0
0700
3DE0
18C0
19C0
3780
3780
3D80
3D80
7300
6300
F780
ENDCHAR
STARTCHAR afii10028
ENCODING 235
SWIDTH 900 0
DWIDTH 9 0
BBX 10 10 0 0
BITMAP
3FC0
1980
1B00
3600
3C00
3600
3600
6600
6600
FF00
ENDCHAR
STARTCHAR afii10029
ENCODING 236
SWIDTH 1000 0
DWIDTH 10 0
BBX 11 10 0 0
BITMAP
1FE0
0CC0
0CC0
1980
1980
1980
1980
3300
3300
E780
ENDCHAR
STARTCHAR afii10030
ENCODING 237
SWIDTH 1100 0
DWIDTH 11 0
BBX 12 10 0 0
BITMAP
3870
1CE0
1CE0
39C0
3FC0
3FC0
3FC0
6D80
6D80
FFC0
ENDCHAR
STARTCHAR afii10031
ENCODING 238
SWIDTH 1000 0
DWIDTH 10 0
BBX 11 10 0 0
BITMAP
3DE0
18C0
18C0
3180
3F80
3180
3180
6300
6300
F780
ENDCHAR
STARTCHAR afii10032
ENCODING 239
SWIDTH 1000 0
DWIDTH 10 0
BBX 11 10 0 0
BITMAP
0F80
18C0
3060
60C0
60C0
60C0
60C0
C180
6300
3E00
ENDCHAR
STARTCHAR afii10033
ENCODING 240
SWIDTH 1000 0
DWIDTH 10 0
BBX 11 10 0 0
BITMAP
3FE0
18C0
18C0
3180
3180
3180
3180
6300
6300
F780
ENDCHAR
STARTCHAR afii10049
ENCODING 241
SWIDTH 1100 0
DWIDTH 11 0
BBX 11 10 1 0
BITMAP
0FE0
18C0
18C0
3180
3180
1F80
0D80
3300
6300
E780
ENDCHAR
STARTCHAR afii10034
ENCODING 242
SWIDTH 900 0
DWIDTH 9 0
BBX 10 10 0 0
BITMAP
3F80
18C0
18C0
3180
3180
3F00
3000
6000
6000
F000
ENDCHAR
STARTCHAR afii10035
ENCODING 243
SWIDTH 1000 0
DWIDTH 10 0
BBX 11 10 0 0
BITMAP
0FE0
18E0
3060
6000
6000
6000
6000
C180
6300
3E00
ENDCHAR
STARTCHAR afii10036
ENCODING 244
SWIDTH 1100 0
DWIDTH 11 0
BBX 12 10 0 0
BITMAP
3FF0
3330
0300
0600
0600
0600
0600
0C00
0C00
1E00
ENDCHAR
STARTCHAR afii10037
ENCODING 245
SWIDTH 1200 0
DWIDTH 12 0
BBX 13 10 0 0
BITMAP
3C78
1830
0C60
0CC0
0D80
0780
0300
0600
6C00
7800
ENDCHAR
STARTCHAR afii10024
ENCODING 246
SWIDTH 1300 0
DWIDTH 13 0
BBX 14 10 0 0
BITMAP
3FFC
1998
0DB0
1B60
0FC0
1B60
1B60
6660
6660
FFF0
ENDCHAR
STARTCHAR afii10019
ENCODING 247
SWIDTH 900 0
DWIDTH 9 0
BBX 10 10 0 0
BITMAP
3F80
18C0
18C0
3180
3F00
3180
3180
6300
6300
FE00
ENDCHAR
STARTCHAR afii10046
ENCODING 248
SWIDTH 900 0
DWIDTH 9 0
BBX 10 10 0 0
BITMAP
3C00
1800
1800
3000
3F00
3180
3180
6300
6300
FE00
ENDCHAR
STARTCHAR afii10045
ENCODING 249
SWIDTH 1200 0
DWIDTH 12 0
BBX 13 10 0 0
BITMAP
3C78
1830
1830
3060
3F60
31E0
31E0
63C0
63C0
FFE0
ENDCHAR
STARTCHAR afii10025
ENCODING 250
SWIDTH 800 0
DWIDTH 8 0
BBX 9 10 0 0
BITMAP
1F00
3180
3180
0300
1E00
0300
0300
C600
C600
7C00
ENDCHAR
STARTCHAR afii10042
ENCODING 251
SWIDTH 1300 0
DWIDTH 13 0
BBX 14 10 0 0
BITMAP
3FFC
1998
1998
3330
3330
3330
3330
6660
6660
FFF0
ENDCHAR
STARTCHAR afii10047
ENCODING 252
SWIDTH 900 0
DWIDTH 9 0
BBX 10 10 0 0
BITMAP
1F80
30C0
30C0
0180
1F80
0180
0180
C300
C300
7E00
ENDCHAR
STARTCHAR afii10043
ENCODING 253
SWIDTH 1083 0
DWIDTH 13 0
BBX 15 12 0 -2
BITMAP
1FFE
1998
1998
1998
1998
3330
3330
3330
3330
FFF0
0030
0030
ENDCHAR
STARTCHAR afii10041
ENCODING 254
SWIDTH 1000 0
DWIDTH 10 0
BBX 11 10 0 0
BITMAP
3DE0
18C0
18C0
3180
3180
1F80
0180
0300
0300
0780
ENDCHAR
STARTCHAR afii10044
ENCODING 255
SWIDTH 1100 0
DWIDTH 11 0
BBX 12 10 0 0
BITMAP
3F00
3600
3600
0C00
0FC0
0C60
0C60
18C0
18C0
3F80
ENDCHAR
ENDFONT
