STARTFONT 2.1
COMMENT Copyright (C) 1990-1991 EWT Consulting
COMMENT Portions Copyright (C) 1994-1995 Cronyx Ltd.
COMMENT Changes Copyright (C) 1996-1997 by Andrey A. Chernov, Moscow, Russia.
COMMENT Modified by Serge Vakulenko, <vak@cronyx.ru>
COMMENT Changes 1999 by Serge Winitzki.
COMMENT This software may be used, modified, copied, distributed, and sold,
COMMENT in both source and binary form provided that the copyright
COMMENT and these terms are retained. Under no circumstances is the author
COMMENT responsible for the proper functioning of this software, nor does
COMMENT the author assume any responsibility for damages incurred with its use.
COMMENT $XFree86$
FONT -Cronyx-Helvetica-Bold-R-Normal--25-180-100-100-P-98-KOI8-R
SIZE 18 96 96
FONTBOUNDINGBOX 25 26 0 -6
STARTPROPERTIES 21
DEFAULT_CHAR 32
FONT_ASCENT 23
FONT_DESCENT 6
SPACING "P"
FONTNAME_REGISTRY ""
FOUNDRY "Cronyx"
FAMILY_NAME "Helvetica"
WEIGHT_NAME "Bold"
SLANT "R"
SETWIDTH_NAME "Normal"
ADD_STYLE_NAME ""
AVERAGE_WIDTH 98
CHARSET_REGISTRY "KOI8"
CHARSET_ENCODING "R"
PIXEL_SIZE 25
POINT_SIZE 180
RESOLUTION_X 100
RESOLUTION_Y 100
COPYRIGHT "Copyright (C) 1990, 1991 EWT Consulting, Portions Copyright (C) 1994 Cronyx Ltd., Portions Copyright (C) 1996-1997 by Andrey A. Chernov, Moscow, Russia."
_XMBDFED_INFO "Edited with xmbdfed 3.8."
_XFREE86_GLYPH_RANGES "32_126 149 154 156_158 163 179 191_255"
ENDPROPERTIES
CHARS 167
STARTCHAR space
ENCODING 32
SWIDTH 292 0
DWIDTH 7 0
BBX 0 0 0 0
BITMAP
ENDCHAR
STARTCHAR exclam
ENCODING 33
SWIDTH 412 0
DWIDTH 7 0
BBX 3 17 2 0
BITMAP
E0
E0
E0
E0
E0
E0
E0
E0
E0
E0
E0
E0
E0
00
00
E0
E0
ENDCHAR
STARTCHAR quotedbl
ENCODING 34
SWIDTH 1500 0
DWIDTH 9 0
BBX 7 6 1 11
BITMAP
EE
EE
EE
EE
EE
EE
ENDCHAR
STARTCHAR numbersign
ENCODING 35
SWIDTH 824 0
DWIDTH 14 0
BBX 12 17 1 0
BITMAP
0EE0
0EE0
0EE0
1DC0
1DC0
7FF0
7FF0
1DC0
3B80
3B80
FFE0
FFE0
3B80
3B80
7700
7700
7700
ENDCHAR
STARTCHAR dollar
ENCODING 36
SWIDTH 700 0
DWIDTH 14 0
BBX 12 20 1 -2
BITMAP
0600
1F80
7FE0
76F0
E670
E600
E600
7600
7F80
1FE0
06E0
0670
0670
0670
E670
F6E0
7FE0
1F80
0600
0600
ENDCHAR
STARTCHAR percent
ENCODING 37
SWIDTH 1353 0
DWIDTH 23 0
BBX 21 17 1 0
BITMAP
3E0380
7F0380
F78700
E38E00
E38E00
F79C00
7F3800
3E3800
007000
00E3E0
00E7F0
01CF78
038E38
038E38
070F78
0E07F0
0E03E0
ENDCHAR
STARTCHAR ampersand
ENCODING 38
SWIDTH 1000 0
DWIDTH 17 0
BBX 15 17 1 0
BITMAP
0F00
1F80
39C0
39C0
39C0
1F80
1F80
0F00
3F80
7B9C
73DC
E1FC
E0F8
E078
70F8
7FFC
1F9E
ENDCHAR
STARTCHAR quotesingle
ENCODING 39
SWIDTH 833 0
DWIDTH 5 0
BBX 3 6 1 11
BITMAP
E0
E0
E0
E0
E0
E0
ENDCHAR
STARTCHAR parenleft
ENCODING 40
SWIDTH 409 0
DWIDTH 9 0
BBX 6 22 2 -5
BITMAP
1C
38
38
70
70
70
E0
E0
E0
E0
E0
E0
E0
E0
E0
E0
70
70
70
38
38
1C
ENDCHAR
STARTCHAR parenright
ENCODING 41
SWIDTH 409 0
DWIDTH 9 0
BBX 6 22 1 -5
BITMAP
E0
70
70
38
38
38
1C
1C
1C
1C
1C
1C
1C
1C
1C
1C
38
38
38
70
70
E0
ENDCHAR
STARTCHAR asterisk
ENCODING 42
SWIDTH 1571 0
DWIDTH 11 0
BBX 8 7 2 10
BITMAP
18
18
FF
7E
3C
7E
66
ENDCHAR
STARTCHAR plus
ENCODING 43
SWIDTH 1500 0
DWIDTH 15 0
BBX 11 10 2 4
BITMAP
0E00
0E00
0E00
0E00
FFE0
FFE0
0E00
0E00
0E00
0E00
ENDCHAR
STARTCHAR comma
ENCODING 44
SWIDTH 1750 0
DWIDTH 7 0
BBX 3 4 2 -2
BITMAP
E0
E0
60
C0
ENDCHAR
STARTCHAR hyphen
ENCODING 45
SWIDTH 4500 0
DWIDTH 9 0
BBX 7 2 1 5
BITMAP
FE
FE
ENDCHAR
STARTCHAR period
ENCODING 46
SWIDTH 3500 0
DWIDTH 7 0
BBX 3 2 2 0
BITMAP
E0
E0
ENDCHAR
STARTCHAR slash
ENCODING 47
SWIDTH 471 0
DWIDTH 8 0
BBX 8 17 0 0
BITMAP
07
07
0E
0E
0E
1C
1C
1C
38
38
38
70
70
70
E0
E0
E0
ENDCHAR
STARTCHAR zero
ENCODING 48
SWIDTH 824 0
DWIDTH 14 0
BBX 12 17 1 0
BITMAP
0F00
3FC0
79E0
70E0
E070
E070
E070
E070
E070
E070
E070
E070
E070
70E0
79E0
3FC0
0F00
ENDCHAR
STARTCHAR one
ENCODING 49
SWIDTH 824 0
DWIDTH 14 0
BBX 7 17 2 0
BITMAP
0E
1E
FE
FE
0E
0E
0E
0E
0E
0E
0E
0E
0E
0E
0E
0E
0E
ENDCHAR
STARTCHAR two
ENCODING 50
SWIDTH 824 0
DWIDTH 14 0
BBX 12 17 1 0
BITMAP
1F80
7FE0
79E0
F0F0
E070
0070
00F0
01E0
07E0
0F80
1E00
3C00
7800
7000
F000
FFF0
FFF0
ENDCHAR
STARTCHAR three
ENCODING 51
SWIDTH 824 0
DWIDTH 14 0
BBX 12 17 1 0
BITMAP
1F80
7FE0
79E0
F0F0
E070
00E0
01E0
0FC0
0FC0
01E0
00F0
E070
E070
F0F0
79E0
7FE0
1F80
ENDCHAR
STARTCHAR four
ENCODING 52
SWIDTH 824 0
DWIDTH 14 0
BBX 12 17 1 0
BITMAP
01E0
03E0
07E0
07E0
0FE0
1EE0
1CE0
3CE0
78E0
70E0
F0E0
FFF0
FFF0
00E0
00E0
00E0
00E0
ENDCHAR
STARTCHAR five
ENCODING 53
SWIDTH 824 0
DWIDTH 14 0
BBX 12 17 1 0
BITMAP
3FF0
3FF0
3800
7000
7000
7000
FF80
FFE0
E1E0
00F0
0070
0070
0070
E0F0
F1E0
7FE0
1F80
ENDCHAR
STARTCHAR six
ENCODING 54
SWIDTH 824 0
DWIDTH 14 0
BBX 12 17 1 0
BITMAP
0F80
3FE0
78E0
7070
E000
E000
EF80
FFE0
F9E0
F0F0
E070
E070
E070
F0F0
79E0
7FE0
1F80
ENDCHAR
STARTCHAR seven
ENCODING 55
SWIDTH 824 0
DWIDTH 14 0
BBX 12 17 1 0
BITMAP
FFF0
FFF0
00E0
01E0
01C0
03C0
0380
0780
0700
0F00
0E00
0E00
1E00
1C00
1C00
1C00
1C00
ENDCHAR
STARTCHAR eight
ENCODING 56
SWIDTH 824 0
DWIDTH 14 0
BBX 12 17 1 0
BITMAP
0F00
3FC0
39C0
70E0
70E0
70E0
39C0
3FC0
3FC0
79E0
F0F0
E070
E070
F0F0
79E0
7FE0
1F80
ENDCHAR
STARTCHAR nine
ENCODING 57
SWIDTH 824 0
DWIDTH 14 0
BBX 12 17 1 0
BITMAP
1F80
7FE0
79E0
F0F0
E070
E070
E070
F0F0
79F0
7FF0
1FF0
0070
0070
E0E0
71E0
7FC0
1F00
ENDCHAR
STARTCHAR colon
ENCODING 58
SWIDTH 583 0
DWIDTH 7 0
BBX 3 12 2 0
BITMAP
E0
E0
00
00
00
00
00
00
00
00
E0
E0
ENDCHAR
STARTCHAR semicolon
ENCODING 59
SWIDTH 500 0
DWIDTH 7 0
BBX 3 14 2 -2
BITMAP
E0
E0
00
00
00
00
00
00
00
00
E0
E0
60
C0
ENDCHAR
STARTCHAR less
ENCODING 60
SWIDTH 938 0
DWIDTH 15 0
BBX 13 16 1 0
BITMAP
0018
0078
00F0
03C0
0780
1E00
3C00
F000
F000
3C00
1E00
0780
03C0
00F0
0078
0018
ENDCHAR
STARTCHAR equal
ENCODING 61
SWIDTH 1875 0
DWIDTH 15 0
BBX 13 8 1 5
BITMAP
FFF8
FFF8
0000
0000
0000
0000
FFF8
FFF8
ENDCHAR
STARTCHAR greater
ENCODING 62
SWIDTH 938 0
DWIDTH 15 0
BBX 13 16 1 0
BITMAP
C000
F000
7800
1E00
0F00
03C0
01E0
0078
0078
01E0
03C0
0F00
1E00
7800
F000
C000
ENDCHAR
STARTCHAR question
ENCODING 63
SWIDTH 765 0
DWIDTH 13 0
BBX 11 17 1 0
BITMAP
1F00
7FC0
71C0
E0E0
E0E0
01E0
03C0
0780
0700
0E00
0E00
0E00
0000
0000
0000
0E00
0E00
ENDCHAR
STARTCHAR at
ENCODING 64
SWIDTH 1190 0
DWIDTH 25 0
BBX 23 21 1 -4
BITMAP
00FE00
03FF80
0F01E0
1C0070
380038
307E18
71FFDC
63C7CC
E3838E
E7038E
E7070E
E7070C
E70E1C
638E38
73FF78
30F3E0
380000
1C0000
0F0380
03FF00
00FC00
ENDCHAR
STARTCHAR A
ENCODING 65
SWIDTH 941 0
DWIDTH 16 0
BBX 16 17 0 0
BITMAP
03C0
03C0
07E0
07E0
07E0
0FF0
0E70
0E70
1E78
1C38
3C3C
3FFC
3FFC
781E
700E
F00F
F00F
ENDCHAR
STARTCHAR B
ENCODING 66
SWIDTH 1000 0
DWIDTH 17 0
BBX 14 17 2 0
BITMAP
FFC0
FFF0
E070
E038
E038
E038
E078
FFF0
FFF8
E038
E01C
E01C
E01C
E01C
E038
FFF8
FFE0
ENDCHAR
STARTCHAR C
ENCODING 67
SWIDTH 1059 0
DWIDTH 18 0
BBX 17 17 1 0
BITMAP
07F800
1FFE00
3E1F00
780700
700380
F00380
E00000
E00000
E00000
E00000
E00000
F00380
700380
780700
3E1F00
1FFE00
07F800
ENDCHAR
STARTCHAR D
ENCODING 68
SWIDTH 1059 0
DWIDTH 18 0
BBX 15 17 2 0
BITMAP
FFC0
FFF0
E0F8
E03C
E01C
E01E
E00E
E00E
E00E
E00E
E00E
E01E
E01C
E03C
E0F8
FFF0
FFC0
ENDCHAR
STARTCHAR E
ENCODING 69
SWIDTH 1000 0
DWIDTH 17 0
BBX 14 17 2 0
BITMAP
FFFC
FFFC
E000
E000
E000
E000
E000
FFF0
FFF0
E000
E000
E000
E000
E000
E000
FFFC
FFFC
ENDCHAR
STARTCHAR F
ENCODING 70
SWIDTH 941 0
DWIDTH 16 0
BBX 14 17 2 0
BITMAP
FFFC
FFFC
E000
E000
E000
E000
E000
FFF0
FFF0
E000
E000
E000
E000
E000
E000
E000
E000
ENDCHAR
STARTCHAR G
ENCODING 71
SWIDTH 1118 0
DWIDTH 19 0
BBX 17 17 1 0
BITMAP
07F800
1FFE00
3E1F00
780700
700380
F00380
E00000
E00000
E00000
E07F80
E07F80
F00380
700380
780780
3E1F80
1FFF80
07F980
ENDCHAR
STARTCHAR H
ENCODING 72
SWIDTH 1059 0
DWIDTH 18 0
BBX 14 17 2 0
BITMAP
E01C
E01C
E01C
E01C
E01C
E01C
E01C
FFFC
FFFC
E01C
E01C
E01C
E01C
E01C
E01C
E01C
E01C
ENDCHAR
STARTCHAR I
ENCODING 73
SWIDTH 412 0
DWIDTH 7 0
BBX 3 17 2 0
BITMAP
E0
E0
E0
E0
E0
E0
E0
E0
E0
E0
E0
E0
E0
E0
E0
E0
E0
ENDCHAR
STARTCHAR J
ENCODING 74
SWIDTH 765 0
DWIDTH 13 0
BBX 11 17 0 0
BITMAP
00E0
00E0
00E0
00E0
00E0
00E0
00E0
00E0
00E0
00E0
00E0
00E0
E0E0
E0E0
71C0
7FC0
1F00
ENDCHAR
STARTCHAR K
ENCODING 75
SWIDTH 1000 0
DWIDTH 17 0
BBX 15 17 2 0
BITMAP
E03C
E078
E0F0
E1E0
E3C0
E780
EF00
FF80
FF80
FBC0
F1E0
E0E0
E0F0
E078
E038
E03C
E01E
ENDCHAR
STARTCHAR L
ENCODING 76
SWIDTH 824 0
DWIDTH 14 0
BBX 12 17 2 0
BITMAP
E000
E000
E000
E000
E000
E000
E000
E000
E000
E000
E000
E000
E000
E000
E000
FFF0
FFF0
ENDCHAR
STARTCHAR M
ENCODING 77
SWIDTH 1235 0
DWIDTH 21 0
BBX 17 17 2 0
BITMAP
E00380
E00380
F00780
F00780
F80F80
F80F80
FC1F80
FC1F80
FE3F80
EE3B80
EF7B80
E77380
E7F380
E3E380
E3E380
E1C380
E1C380
ENDCHAR
STARTCHAR N
ENCODING 78
SWIDTH 1118 0
DWIDTH 19 0
BBX 15 17 2 0
BITMAP
E00E
F00E
F80E
FC0E
FC0E
FE0E
EF0E
E78E
E38E
E3CE
E1EE
E0FE
E07E
E07E
E03E
E01E
E00E
ENDCHAR
STARTCHAR O
ENCODING 79
SWIDTH 1176 0
DWIDTH 20 0
BBX 18 17 1 0
BITMAP
07F800
1FFE00
3E1F00
780780
700380
F003C0
E001C0
E001C0
E001C0
E001C0
E001C0
F003C0
700380
780780
3E1F00
1FFE00
07F800
ENDCHAR
STARTCHAR P
ENCODING 80
SWIDTH 1000 0
DWIDTH 17 0
BBX 15 17 2 0
BITMAP
FFF0
FFFC
E01C
E00E
E00E
E00E
E00E
E01C
FFFC
FFF0
E000
E000
E000
E000
E000
E000
E000
ENDCHAR
STARTCHAR Q
ENCODING 81
SWIDTH 1053 0
DWIDTH 20 0
BBX 18 19 1 -2
BITMAP
07F800
1FFE00
3E1F00
780780
700380
F003C0
E001C0
E001C0
E001C0
E001C0
E001C0
F033C0
707B80
783F80
3E1F00
1FFF00
07FF80
0003C0
000180
ENDCHAR
STARTCHAR R
ENCODING 82
SWIDTH 1059 0
DWIDTH 18 0
BBX 16 17 2 0
BITMAP
FFF0
FFFC
E01C
E00E
E00E
E00E
E00E
E01C
FFFC
FFF8
E03C
E01C
E00E
E00E
E00E
E00F
E007
ENDCHAR
STARTCHAR S
ENCODING 83
SWIDTH 1000 0
DWIDTH 17 0
BBX 15 17 1 0
BITMAP
0FE0
3FF8
383C
701C
7000
7000
3800
3FF0
0FFC
001C
000E
000E
E00E
F00E
7C1C
3FFC
0FF0
ENDCHAR
STARTCHAR T
ENCODING 84
SWIDTH 1000 0
DWIDTH 17 0
BBX 17 17 0 0
BITMAP
FFFF80
FFFF80
01C000
01C000
01C000
01C000
01C000
01C000
01C000
01C000
01C000
01C000
01C000
01C000
01C000
01C000
01C000
ENDCHAR
STARTCHAR U
ENCODING 85
SWIDTH 1059 0
DWIDTH 18 0
BBX 14 17 2 0
BITMAP
E01C
E01C
E01C
E01C
E01C
E01C
E01C
E01C
E01C
E01C
E01C
E01C
E01C
7038
7878
3FF0
0FC0
ENDCHAR
STARTCHAR V
ENCODING 86
SWIDTH 941 0
DWIDTH 16 0
BBX 16 17 0 0
BITMAP
F00F
F00F
700E
781E
381C
381C
3C3C
1C38
1E78
0E70
0E70
0FF0
07E0
07E0
07E0
03C0
03C0
ENDCHAR
STARTCHAR W
ENCODING 87
SWIDTH 1353 0
DWIDTH 23 0
BBX 23 17 0 0
BITMAP
E0380E
E0380E
F0381E
707C1C
707C1C
78FE3C
38EE38
38EE38
3DEF78
1DC770
1DC770
1FC7F0
0F83E0
0F83E0
0701C0
0701C0
0701C0
ENDCHAR
STARTCHAR X
ENCODING 88
SWIDTH 1059 0
DWIDTH 18 0
BBX 18 17 0 0
BITMAP
E001C0
F003C0
780780
3C0F00
1E1E00
0F3C00
07F800
03F000
01E000
03F000
07F800
0F3C00
1E1E00
3C0F00
780780
F003C0
E001C0
ENDCHAR
STARTCHAR Y
ENCODING 89
SWIDTH 1000 0
DWIDTH 17 0
BBX 17 17 0 0
BITMAP
E00380
F00780
780F00
3C1E00
1E3C00
0F7800
07F000
03E000
01C000
01C000
01C000
01C000
01C000
01C000
01C000
01C000
01C000
ENDCHAR
STARTCHAR Z
ENCODING 90
SWIDTH 882 0
DWIDTH 15 0
BBX 15 17 0 0
BITMAP
7FFC
7FFC
0078
0070
00F0
01E0
01C0
03C0
0780
0F00
0E00
1E00
3C00
3800
7800
FFFE
FFFE
ENDCHAR
STARTCHAR bracketleft
ENCODING 91
SWIDTH 364 0
DWIDTH 8 0
BBX 5 22 2 -5
BITMAP
F8
F8
E0
E0
E0
E0
E0
E0
E0
E0
E0
E0
E0
E0
E0
E0
E0
E0
E0
E0
F8
F8
ENDCHAR
STARTCHAR backslash
ENCODING 92
SWIDTH 471 0
DWIDTH 8 0
BBX 8 17 0 0
BITMAP
E0
E0
70
70
70
38
38
38
1C
1C
1C
0E
0E
0E
07
07
07
ENDCHAR
STARTCHAR bracketright
ENCODING 93
SWIDTH 364 0
DWIDTH 8 0
BBX 5 22 1 -5
BITMAP
F8
F8
38
38
38
38
38
38
38
38
38
38
38
38
38
38
38
38
38
38
F8
F8
ENDCHAR
STARTCHAR asciicircum
ENCODING 94
SWIDTH 3000 0
DWIDTH 12 0
BBX 10 4 1 13
BITMAP
1E00
3F00
7F80
E1C0
ENDCHAR
STARTCHAR underscore
ENCODING 95
SWIDTH 7000 0
DWIDTH 14 0
BBX 14 2 0 -3
BITMAP
FFFC
FFFC
ENDCHAR
STARTCHAR grave
ENCODING 96
SWIDTH 2250 0
DWIDTH 9 0
BBX 7 4 1 13
BITMAP
F0
78
1C
06
ENDCHAR
STARTCHAR a
ENCODING 97
SWIDTH 1167 0
DWIDTH 14 0
BBX 13 12 1 0
BITMAP
1F00
7FC0
71C0
00E0
01E0
1FE0
7FE0
F0E0
E0E0
F1E0
7FF8
3F78
ENDCHAR
STARTCHAR b
ENCODING 98
SWIDTH 882 0
DWIDTH 15 0
BBX 12 17 2 0
BITMAP
E000
E000
E000
E000
E000
FF80
FFE0
F1E0
E0F0
E070
E070
E070
E070
E0F0
F1E0
FFE0
FF80
ENDCHAR
STARTCHAR c
ENCODING 99
SWIDTH 1083 0
DWIDTH 13 0
BBX 12 12 1 0
BITMAP
0F80
3FE0
78F0
7070
E000
E000
E000
E000
7070
78F0
3FE0
0F80
ENDCHAR
STARTCHAR d
ENCODING 100
SWIDTH 882 0
DWIDTH 15 0
BBX 12 17 1 0
BITMAP
0070
0070
0070
0070
0070
1FF0
7FF0
78F0
F070
E070
E070
E070
E070
F070
78F0
7FF0
1FF0
ENDCHAR
STARTCHAR e
ENCODING 101
SWIDTH 1250 0
DWIDTH 15 0
BBX 13 12 1 0
BITMAP
0F80
3FE0
78F0
7070
E038
FFF8
FFF8
E000
7000
7878
3FF0
0FC0
ENDCHAR
STARTCHAR f
ENCODING 102
SWIDTH 412 0
DWIDTH 7 0
BBX 7 17 0 0
BITMAP
1E
3E
38
38
38
FE
FE
38
38
38
38
38
38
38
38
38
38
ENDCHAR
STARTCHAR g
ENCODING 103
SWIDTH 882 0
DWIDTH 15 0
BBX 12 17 1 -5
BITMAP
1FF0
7FF0
78F0
F070
E070
E070
E070
E070
F070
78F0
7FF0
1FF0
0070
0070
70E0
7FE0
1F80
ENDCHAR
STARTCHAR h
ENCODING 104
SWIDTH 824 0
DWIDTH 14 0
BBX 10 17 2 0
BITMAP
E000
E000
E000
E000
E000
FF00
FF80
F3C0
E1C0
E1C0
E1C0
E1C0
E1C0
E1C0
E1C0
E1C0
E1C0
ENDCHAR
STARTCHAR i
ENCODING 105
SWIDTH 412 0
DWIDTH 7 0
BBX 3 17 2 0
BITMAP
E0
E0
00
00
00
E0
E0
E0
E0
E0
E0
E0
E0
E0
E0
E0
E0
ENDCHAR
STARTCHAR j
ENCODING 106
SWIDTH 318 0
DWIDTH 7 0
BBX 5 22 0 -5
BITMAP
38
38
00
00
00
38
38
38
38
38
38
38
38
38
38
38
38
38
38
38
F8
F0
ENDCHAR
STARTCHAR k
ENCODING 107
SWIDTH 765 0
DWIDTH 13 0
BBX 11 17 2 0
BITMAP
E000
E000
E000
E000
E000
E3C0
E780
EF00
FE00
FC00
FE00
FF00
E700
E780
E3C0
E1C0
E1E0
ENDCHAR
STARTCHAR l
ENCODING 108
SWIDTH 412 0
DWIDTH 7 0
BBX 3 17 2 0
BITMAP
E0
E0
E0
E0
E0
E0
E0
E0
E0
E0
E0
E0
E0
E0
E0
E0
E0
ENDCHAR
STARTCHAR m
ENCODING 109
SWIDTH 1750 0
DWIDTH 21 0
BBX 17 12 2 0
BITMAP
FF3E00
FFFF00
F3E700
E1C380
E1C380
E1C380
E1C380
E1C380
E1C380
E1C380
E1C380
E1C380
ENDCHAR
STARTCHAR n
ENCODING 110
SWIDTH 1167 0
DWIDTH 14 0
BBX 10 12 2 0
BITMAP
FE00
FF80
F380
E1C0
E1C0
E1C0
E1C0
E1C0
E1C0
E1C0
E1C0
E1C0
ENDCHAR
STARTCHAR o
ENCODING 111
SWIDTH 1250 0
DWIDTH 15 0
BBX 13 12 1 0
BITMAP
1FC0
7FF0
78F0
F078
E038
E038
E038
E038
F078
78F0
7FF0
1FC0
ENDCHAR
STARTCHAR p
ENCODING 112
SWIDTH 882 0
DWIDTH 15 0
BBX 12 17 2 -5
BITMAP
FF80
FFE0
F1E0
E0F0
E070
E070
E070
E070
E0F0
F1E0
FFE0
FF80
E000
E000
E000
E000
E000
ENDCHAR
STARTCHAR q
ENCODING 113
SWIDTH 882 0
DWIDTH 15 0
BBX 12 17 1 -5
BITMAP
1FF0
7FF0
78F0
F070
E070
E070
E070
E070
F070
78F0
7FF0
1FF0
0070
0070
0070
0070
0070
ENDCHAR
STARTCHAR r
ENCODING 114
SWIDTH 750 0
DWIDTH 9 0
BBX 7 12 2 0
BITMAP
EE
FE
F8
F0
E0
E0
E0
E0
E0
E0
E0
E0
ENDCHAR
STARTCHAR s
ENCODING 115
SWIDTH 1083 0
DWIDTH 13 0
BBX 11 12 1 0
BITMAP
3F00
7FC0
F1C0
E000
F800
7F80
1FC0
03E0
00E0
E1E0
FFC0
3F80
ENDCHAR
STARTCHAR t
ENCODING 116
SWIDTH 467 0
DWIDTH 7 0
BBX 7 15 0 0
BITMAP
38
38
38
FE
FE
38
38
38
38
38
38
38
38
3E
1E
ENDCHAR
STARTCHAR u
ENCODING 117
SWIDTH 1167 0
DWIDTH 14 0
BBX 10 12 2 0
BITMAP
E1C0
E1C0
E1C0
E1C0
E1C0
E1C0
E1C0
E1C0
E1C0
73C0
7FC0
1FC0
ENDCHAR
STARTCHAR v
ENCODING 118
SWIDTH 1000 0
DWIDTH 12 0
BBX 12 12 0 0
BITMAP
E070
E070
F0F0
70E0
79E0
39C0
39C0
3FC0
1F80
1F80
0F00
0F00
ENDCHAR
STARTCHAR w
ENCODING 119
SWIDTH 1583 0
DWIDTH 19 0
BBX 19 12 0 0
BITMAP
E0E0E0
E0E0E0
F1F1E0
71F1C0
7BFBC0
3BBB80
3BBB80
3FBF80
1F1F00
1F1F00
0E0E00
0E0E00
ENDCHAR
STARTCHAR x
ENCODING 120
SWIDTH 1000 0
DWIDTH 12 0
BBX 12 12 0 0
BITMAP
E070
F0F0
79E0
3FC0
1F80
0F00
0F00
1F80
3FC0
79E0
F0F0
E070
ENDCHAR
STARTCHAR y
ENCODING 121
SWIDTH 706 0
DWIDTH 12 0
BBX 12 17 0 -5
BITMAP
E070
E070
F0F0
70E0
79E0
39C0
39C0
3FC0
1F80
1F80
0F00
0F00
0E00
1E00
1C00
FC00
F800
ENDCHAR
STARTCHAR z
ENCODING 122
SWIDTH 1000 0
DWIDTH 12 0
BBX 12 12 0 0
BITMAP
7FF0
7FF0
01E0
03C0
0780
0F00
0F00
1E00
3C00
7800
FFF0
FFF0
ENDCHAR
STARTCHAR braceleft
ENCODING 123
SWIDTH 455 0
DWIDTH 10 0
BBX 7 22 1 -5
BITMAP
0E
1E
3C
38
38
38
38
38
38
70
E0
E0
70
38
38
38
38
38
38
3C
1E
0E
ENDCHAR
STARTCHAR bar
ENCODING 124
SWIDTH 304 0
DWIDTH 7 0
BBX 3 23 2 -6
BITMAP
E0
E0
E0
E0
E0
E0
E0
E0
E0
E0
00
00
00
E0
E0
E0
E0
E0
E0
E0
E0
E0
E0
ENDCHAR
STARTCHAR braceright
ENCODING 125
SWIDTH 455 0
DWIDTH 10 0
BBX 7 22 1 -5
BITMAP
E0
F0
70
38
38
38
38
38
38
1C
0E
0E
1C
38
38
38
38
38
38
70
F0
E0
ENDCHAR
STARTCHAR asciitilde
ENCODING 126
SWIDTH 3750 0
DWIDTH 15 0
BBX 12 4 1 13
BITMAP
7C70
FF70
EFF0
E3E0
ENDCHAR
STARTCHAR bullet
ENCODING 149
SWIDTH 1571 0
DWIDTH 11 0
BBX 8 7 2 3
BITMAP
3C
7E
FF
FF
FF
7E
3C
ENDCHAR
STARTCHAR space
ENCODING 154
SWIDTH 292 0
DWIDTH 7 0
BBX 0 0 0 0
BITMAP
ENDCHAR
STARTCHAR degree
ENCODING 156
SWIDTH 1500 0
DWIDTH 9 0
BBX 7 6 1 11
BITMAP
38
7C
EE
EE
7C
38
ENDCHAR
STARTCHAR twosuperior
ENCODING 157
SWIDTH 1000 0
DWIDTH 8 0
BBX 7 8 1 9
BITMAP
7C
EE
0E
1C
38
70
E0
FE
ENDCHAR
STARTCHAR periodcentered
ENCODING 158
SWIDTH 3000 0
DWIDTH 6 0
BBX 3 2 3 5
BITMAP
E0
E0
ENDCHAR
STARTCHAR afii10071
ENCODING 163
SWIDTH 1000 0
DWIDTH 15 0
BBX 13 15 1 0
BITMAP
38E0
38E0
0000
0F80
3FE0
78F0
7070
E038
FFF8
FFF8
E000
7000
7878
3FF0
0FC0
ENDCHAR
STARTCHAR afii10023
ENCODING 179
SWIDTH 850 0
DWIDTH 17 0
BBX 14 20 2 0
BITMAP
3870
3870
0000
FFFC
FFFC
E000
E000
E000
E000
E000
FFF0
FFF0
E000
E000
E000
E000
E000
E000
FFFC
FFFC
ENDCHAR
STARTCHAR copyright
ENCODING 191
SWIDTH 1235 0
DWIDTH 21 0
BBX 17 17 2 0
BITMAP
07F000
1E3C00
380E00
73E700
677300
EE3B80
CE3980
CE0180
CE0180
CE0180
CE3980
EE3B80
677300
73E700
380E00
1E3C00
07F000
ENDCHAR
STARTCHAR afii10096
ENCODING 192
SWIDTH 1500 0
DWIDTH 18 0
BBX 16 12 1 0
BITMAP
E3F8
EFFE
EF1E
FE0F
FC07
FC07
FC07
FC07
FE0F
EF1E
EFFE
E3F8
ENDCHAR
STARTCHAR afii10065
ENCODING 193
SWIDTH 1167 0
DWIDTH 14 0
BBX 13 12 1 0
BITMAP
1F00
7FC0
71C0
00E0
01E0
1FE0
7FE0
F0E0
E0E0
F1E0
7FF8
3F78
ENDCHAR
STARTCHAR afii10066
ENCODING 194
SWIDTH 938 0
DWIDTH 15 0
BBX 13 16 1 0
BITMAP
00F0
1FE0
7FC0
F000
FFC0
FFF0
F070
F078
E038
E038
E038
E038
E078
7070
7FF0
1FC0
ENDCHAR
STARTCHAR afii10088
ENCODING 195
SWIDTH 1000 0
DWIDTH 14 0
BBX 11 14 2 -2
BITMAP
E1C0
E1C0
E1C0
E1C0
E1C0
E1C0
E1C0
E1C0
E1C0
E1C0
FFE0
FFE0
00E0
00E0
ENDCHAR
STARTCHAR afii10069
ENCODING 196
SWIDTH 1143 0
DWIDTH 16 0
BBX 14 14 1 -2
BITMAP
1FF0
1FF0
1C70
1C70
1C70
1C70
1C70
1C70
1C70
3870
FFFC
FFFC
E01C
E01C
ENDCHAR
STARTCHAR afii10070
ENCODING 197
SWIDTH 1250 0
DWIDTH 15 0
BBX 13 12 1 0
BITMAP
0F80
3FE0
78F0
7070
E038
FFF8
FFF8
E000
7000
7878
3FF0
0FC0
ENDCHAR
STARTCHAR afii10086
ENCODING 198
SWIDTH 850 0
DWIDTH 17 0
BBX 15 20 1 -5
BITMAP
0380
0380
0380
1FF0
7FFC
7BBC
F39E
E38E
E38E
E38E
E38E
F39E
7BBC
7FFC
1FF0
0380
0380
0380
0380
0380
ENDCHAR
STARTCHAR afii10068
ENCODING 199
SWIDTH 1083 0
DWIDTH 13 0
BBX 10 12 2 0
BITMAP
FFC0
FFC0
E000
E000
E000
E000
E000
E000
E000
E000
E000
E000
ENDCHAR
STARTCHAR afii10087
ENCODING 200
SWIDTH 1000 0
DWIDTH 12 0
BBX 12 12 0 0
BITMAP
E070
F0F0
79E0
3FC0
1F80
0F00
0F00
1F80
3FC0
79E0
F0F0
E070
ENDCHAR
STARTCHAR afii10074
ENCODING 201
SWIDTH 1083 0
DWIDTH 13 0
BBX 11 12 1 0
BITMAP
E0E0
E0E0
E1E0
E3E0
E7E0
EFE0
FEE0
FCE0
F8E0
F0E0
E0E0
E0E0
ENDCHAR
STARTCHAR afii10075
ENCODING 202
SWIDTH 867 0
DWIDTH 13 0
BBX 11 15 1 0
BITMAP
3B80
3F80
1F00
E0E0
E0E0
E1E0
E3E0
E7E0
EFE0
FEE0
FCE0
F8E0
F0E0
E0E0
E0E0
ENDCHAR
STARTCHAR afii10076
ENCODING 203
SWIDTH 1083 0
DWIDTH 13 0
BBX 11 12 2 0
BITMAP
E3C0
E780
EF00
FE00
FC00
FE00
FF00
E700
E780
E3C0
E1C0
E1E0
ENDCHAR
STARTCHAR afii10077
ENCODING 204
SWIDTH 1167 0
DWIDTH 14 0
BBX 11 12 1 0
BITMAP
1FE0
3FE0
38E0
38E0
38E0
38E0
38E0
38E0
38E0
38E0
78E0
F0E0
ENDCHAR
STARTCHAR afii10078
ENCODING 205
SWIDTH 1417 0
DWIDTH 17 0
BBX 15 12 1 0
BITMAP
E00E
F01E
F83E
FC7E
FEFE
EFEE
E7CE
E38E
E00E
E00E
E00E
E00E
ENDCHAR
STARTCHAR afii10079
ENCODING 206
SWIDTH 1167 0
DWIDTH 14 0
BBX 10 12 2 0
BITMAP
E1C0
E1C0
E1C0
E1C0
E1C0
FFC0
FFC0
E1C0
E1C0
E1C0
E1C0
E1C0
ENDCHAR
STARTCHAR afii10080
ENCODING 207
SWIDTH 1250 0
DWIDTH 15 0
BBX 13 12 1 0
BITMAP
1FC0
7FF0
78F0
F078
E038
E038
E038
E038
F078
78F0
7FF0
1FC0
ENDCHAR
STARTCHAR afii10081
ENCODING 208
SWIDTH 1167 0
DWIDTH 14 0
BBX 10 12 2 0
BITMAP
FFC0
FFC0
E1C0
E1C0
E1C0
E1C0
E1C0
E1C0
E1C0
E1C0
E1C0
E1C0
ENDCHAR
STARTCHAR afii10097
ENCODING 209
SWIDTH 1167 0
DWIDTH 14 0
BBX 12 12 1 0
BITMAP
3FF0
7FF0
F070
E070
E070
F070
7FF0
3FF0
1E70
3C70
7870
F070
ENDCHAR
STARTCHAR afii10082
ENCODING 210
SWIDTH 882 0
DWIDTH 15 0
BBX 12 17 2 -5
BITMAP
FF80
FFE0
F1E0
E0F0
E070
E070
E070
E070
E0F0
F1E0
FFE0
FF80
E000
E000
E000
E000
E000
ENDCHAR
STARTCHAR afii10083
ENCODING 211
SWIDTH 1083 0
DWIDTH 13 0
BBX 12 12 1 0
BITMAP
0F80
3FE0
78F0
7070
E000
E000
E000
E000
7070
78F0
3FE0
0F80
ENDCHAR
STARTCHAR afii10084
ENCODING 212
SWIDTH 1083 0
DWIDTH 13 0
BBX 13 12 0 0
BITMAP
FFF8
FFF8
0700
0700
0700
0700
0700
0700
0700
0700
0700
0700
ENDCHAR
STARTCHAR afii10085
ENCODING 213
SWIDTH 706 0
DWIDTH 12 0
BBX 12 17 0 -5
BITMAP
E070
E070
F0F0
70E0
79E0
39C0
39C0
3FC0
1F80
1F80
0F00
0F00
0E00
1E00
1C00
FC00
F800
ENDCHAR
STARTCHAR afii10072
ENCODING 214
SWIDTH 1750 0
DWIDTH 21 0
BBX 19 12 1 0
BITMAP
E0E0E0
F0E1E0
78E3C0
3CE780
1EEF00
0FFE00
07FC00
0FFE00
1EEF00
3CE780
78E3C0
F0E1E0
ENDCHAR
STARTCHAR afii10067
ENCODING 215
SWIDTH 1167 0
DWIDTH 14 0
BBX 11 12 2 0
BITMAP
FFC0
FFE0
E0E0
E0E0
E0E0
FFC0
FFE0
E0E0
E0E0
E0E0
FFE0
FFC0
ENDCHAR
STARTCHAR afii10094
ENCODING 216
SWIDTH 1167 0
DWIDTH 14 0
BBX 12 12 1 0
BITMAP
E000
E000
E000
E000
FFC0
FFE0
E0F0
E070
E070
E0F0
FFE0
FFC0
ENDCHAR
STARTCHAR afii10093
ENCODING 217
SWIDTH 1417 0
DWIDTH 17 0
BBX 15 12 1 0
BITMAP
E00E
E00E
E00E
E00E
FFCE
FFEE
E0FE
E07E
E07E
E0FE
FFEE
FFCE
ENDCHAR
STARTCHAR afii10073
ENCODING 218
SWIDTH 1083 0
DWIDTH 13 0
BBX 11 12 1 0
BITMAP
7FC0
FFE0
E0E0
00E0
00E0
0FC0
0FE0
00E0
00E0
E0E0
FFE0
7FC0
ENDCHAR
STARTCHAR afii10090
ENCODING 219
SWIDTH 1583 0
DWIDTH 19 0
BBX 17 12 1 0
BITMAP
E1C380
E1C380
E1C380
E1C380
E1C380
E1C380
E1C380
E1C380
E1C380
E1C380
FFFF80
FFFF80
ENDCHAR
STARTCHAR afii10095
ENCODING 220
SWIDTH 1167 0
DWIDTH 14 0
BBX 12 12 1 0
BITMAP
3F80
7FE0
F1E0
00F0
0070
0FF0
0FF0
0070
00F0
F1E0
7FE0
3F80
ENDCHAR
STARTCHAR afii10091
ENCODING 221
SWIDTH 1429 0
DWIDTH 20 0
BBX 18 14 1 -2
BITMAP
E1C380
E1C380
E1C380
E1C380
E1C380
E1C380
E1C380
E1C380
E1C380
E1C380
FFFFC0
FFFFC0
0001C0
0001C0
ENDCHAR
STARTCHAR afii10089
ENCODING 222
SWIDTH 1167 0
DWIDTH 14 0
BBX 10 12 2 0
BITMAP
E1C0
E1C0
E1C0
E1C0
E1C0
FFC0
7FC0
01C0
01C0
01C0
01C0
01C0
ENDCHAR
STARTCHAR afii10092
ENCODING 223
SWIDTH 1333 0
DWIDTH 16 0
BBX 14 12 1 0
BITMAP
F800
F800
3800
3800
3FF0
3FF8
383C
381C
381C
383C
3FF8
3FF0
ENDCHAR
STARTCHAR afii10048
ENCODING 224
SWIDTH 1353 0
DWIDTH 23 0
BBX 20 17 2 0
BITMAP
E0FE00
E3FF80
E7C7C0
EF01E0
EE00E0
FE00F0
FC0070
FC0070
FC0070
FC0070
FC0070
FE00F0
EE00E0
EF01E0
E7C7C0
E3FF80
E0FE00
ENDCHAR
STARTCHAR afii10017
ENCODING 225
SWIDTH 941 0
DWIDTH 16 0
BBX 16 17 0 0
BITMAP
03C0
03C0
07E0
07E0
07E0
0FF0
0E70
0E70
1E78
1C38
3C3C
3FFC
3FFC
781E
700E
F00F
F00F
ENDCHAR
STARTCHAR afii10018
ENCODING 226
SWIDTH 1000 0
DWIDTH 17 0
BBX 14 17 2 0
BITMAP
FFF8
FFF8
E000
E000
E000
E000
E000
FFF0
FFF8
E038
E01C
E01C
E01C
E01C
E038
FFF8
FFE0
ENDCHAR
STARTCHAR afii10040
ENCODING 227
SWIDTH 947 0
DWIDTH 18 0
BBX 15 19 2 -2
BITMAP
E01C
E01C
E01C
E01C
E01C
E01C
E01C
E01C
E01C
E01C
E01C
E01C
E01C
E01C
E01C
FFFE
FFFE
000E
000E
ENDCHAR
STARTCHAR afii10021
ENCODING 228
SWIDTH 1000 0
DWIDTH 19 0
BBX 17 19 1 -2
BITMAP
0FFE00
0FFE00
0E0E00
0E0E00
0E0E00
0E0E00
0E0E00
0E0E00
0E0E00
0E0E00
0E0E00
0E0E00
0E0E00
0E0E00
1C0E00
FFFF80
FFFF80
E00380
E00380
ENDCHAR
STARTCHAR afii10022
ENCODING 229
SWIDTH 1000 0
DWIDTH 17 0
BBX 14 17 2 0
BITMAP
FFFC
FFFC
E000
E000
E000
E000
E000
FFF0
FFF0
E000
E000
E000
E000
E000
E000
FFFC
FFFC
ENDCHAR
STARTCHAR afii10038
ENCODING 230
SWIDTH 1235 0
DWIDTH 21 0
BBX 19 17 1 0
BITMAP
00E000
07FC00
1FFF00
3EEF80
78E3C0
70E1C0
F0E1E0
E0E0E0
E0E0E0
F0E1E0
70E1C0
78E3C0
3EEF80
1FFF00
07FC00
00E000
00E000
ENDCHAR
STARTCHAR afii10020
ENCODING 231
SWIDTH 1000 0
DWIDTH 17 0
BBX 14 17 2 0
BITMAP
FFFC
FFFC
E000
E000
E000
E000
E000
E000
E000
E000
E000
E000
E000
E000
E000
E000
E000
ENDCHAR
STARTCHAR afii10039
ENCODING 232
SWIDTH 1059 0
DWIDTH 18 0
BBX 18 17 0 0
BITMAP
E001C0
F003C0
780780
3C0F00
1E1E00
0F3C00
07F800
03F000
01E000
03F000
07F800
0F3C00
1E1E00
3C0F00
780780
F003C0
E001C0
ENDCHAR
STARTCHAR afii10026
ENCODING 233
SWIDTH 1118 0
DWIDTH 19 0
BBX 15 17 2 0
BITMAP
E00E
E00E
E00E
E01E
E03E
E07E
E0FE
E1EE
E3CE
E78E
EF0E
FE0E
FC0E
F80E
F00E
E00E
E00E
ENDCHAR
STARTCHAR afii10027
ENCODING 234
SWIDTH 950 0
DWIDTH 19 0
BBX 15 20 2 0
BITMAP
1EF0
0FE0
07C0
E00E
E00E
E00E
E01E
E03E
E07E
E0FE
E1EE
E3CE
E78E
EF0E
FE0E
FC0E
F80E
F00E
E00E
E00E
ENDCHAR
STARTCHAR afii10028
ENCODING 235
SWIDTH 1000 0
DWIDTH 17 0
BBX 15 17 2 0
BITMAP
E03C
E078
E0F0
E1E0
E3C0
E780
EF00
FF80
FF80
FBC0
F1E0
E0E0
E0F0
E078
E038
E03C
E01E
ENDCHAR
STARTCHAR afii10029
ENCODING 236
SWIDTH 941 0
DWIDTH 16 0
BBX 13 17 1 0
BITMAP
1FF8
3FF8
3838
3838
3838
3838
3838
3838
3838
3838
3838
3838
3838
3838
3838
F838
F038
ENDCHAR
STARTCHAR afii10030
ENCODING 237
SWIDTH 1235 0
DWIDTH 21 0
BBX 17 17 2 0
BITMAP
E00380
E00380
F00780
F00780
F80F80
F80F80
FC1F80
FC1F80
FE3F80
EE3B80
EF7B80
E77380
E7F380
E3E380
E3E380
E1C380
E1C380
ENDCHAR
STARTCHAR afii10031
ENCODING 238
SWIDTH 1059 0
DWIDTH 18 0
BBX 14 17 2 0
BITMAP
E01C
E01C
E01C
E01C
E01C
E01C
E01C
FFFC
FFFC
E01C
E01C
E01C
E01C
E01C
E01C
E01C
E01C
ENDCHAR
STARTCHAR afii10032
ENCODING 239
SWIDTH 1176 0
DWIDTH 20 0
BBX 18 17 1 0
BITMAP
07F800
1FFE00
3E1F00
780780
700380
F003C0
E001C0
E001C0
E001C0
E001C0
E001C0
F003C0
700380
780780
3E1F00
1FFE00
07F800
ENDCHAR
STARTCHAR afii10033
ENCODING 240
SWIDTH 1059 0
DWIDTH 18 0
BBX 14 17 2 0
BITMAP
FFFC
FFFC
E01C
E01C
E01C
E01C
E01C
E01C
E01C
E01C
E01C
E01C
E01C
E01C
E01C
E01C
E01C
ENDCHAR
STARTCHAR afii10049
ENCODING 241
SWIDTH 1059 0
DWIDTH 18 0
BBX 15 17 1 0
BITMAP
3FFE
7FFE
F00E
E00E
E00E
E00E
E00E
E00E
F00E
7FFE
1FFE
078E
0F0E
1E0E
3C0E
780E
F00E
ENDCHAR
STARTCHAR afii10034
ENCODING 242
SWIDTH 1000 0
DWIDTH 17 0
BBX 15 17 2 0
BITMAP
FFF0
FFFC
E01C
E00E
E00E
E00E
E00E
E01C
FFFC
FFF0
E000
E000
E000
E000
E000
E000
E000
ENDCHAR
STARTCHAR afii10035
ENCODING 243
SWIDTH 1059 0
DWIDTH 18 0
BBX 17 17 1 0
BITMAP
07F800
1FFE00
3E1F00
780700
700380
F00380
E00000
E00000
E00000
E00000
E00000
F00380
700380
780700
3E1F00
1FFE00
07F800
ENDCHAR
STARTCHAR afii10036
ENCODING 244
SWIDTH 1000 0
DWIDTH 17 0
BBX 17 17 0 0
BITMAP
FFFF80
FFFF80
01C000
01C000
01C000
01C000
01C000
01C000
01C000
01C000
01C000
01C000
01C000
01C000
01C000
01C000
01C000
ENDCHAR
STARTCHAR afii10037
ENCODING 245
SWIDTH 882 0
DWIDTH 15 0
BBX 13 17 1 0
BITMAP
E038
E038
F078
7070
7070
78F0
38E0
3DE0
1DC0
1DC0
0F80
0F80
0F80
0F00
0F00
7E00
7C00
ENDCHAR
STARTCHAR afii10024
ENCODING 246
SWIDTH 1471 0
DWIDTH 25 0
BBX 25 17 0 0
BITMAP
701C0700
781C0F00
3C1C1E00
1E1C3C00
0F1C7800
079CF000
03DDE000
01FFC000
01FFC000
01FFC000
03DDE000
079CF000
0F1C7800
1E1C3C00
3C1C1E00
781C0F00
F01C0780
ENDCHAR
STARTCHAR afii10019
ENCODING 247
SWIDTH 1000 0
DWIDTH 17 0
BBX 14 17 2 0
BITMAP
FFC0
FFF0
E070
E038
E038
E038
E078
FFF0
FFF8
E038
E01C
E01C
E01C
E01C
E038
FFF8
FFE0
ENDCHAR
STARTCHAR afii10046
ENCODING 248
SWIDTH 1118 0
DWIDTH 19 0
BBX 16 17 2 0
BITMAP
E000
E000
E000
E000
E000
E000
E000
FFFC
FFFE
E00F
E007
E007
E007
E007
E00F
FFFE
FFFC
ENDCHAR
STARTCHAR afii10045
ENCODING 249
SWIDTH 1353 0
DWIDTH 23 0
BBX 19 17 2 0
BITMAP
E000E0
E000E0
E000E0
E000E0
E000E0
E000E0
E000E0
FFFCE0
FFFEE0
E00FE0
E007E0
E007E0
E007E0
E007E0
E00FE0
FFFEE0
FFFCE0
ENDCHAR
STARTCHAR afii10025
ENCODING 250
SWIDTH 1000 0
DWIDTH 17 0
BBX 15 17 1 0
BITMAP
0FE0
3FF8
783C
701C
001C
001C
003C
03F8
03F8
003C
001E
000E
000E
E00E
F01E
7FFC
1FF8
ENDCHAR
STARTCHAR afii10042
ENCODING 251
SWIDTH 1353 0
DWIDTH 23 0
BBX 21 17 1 0
BITMAP
E07038
E07038
E07038
E07038
E07038
E07038
E07038
E07038
E07038
E07038
E07038
E07038
E07038
E07038
E07038
FFFFF8
FFFFF8
ENDCHAR
STARTCHAR afii10047
ENCODING 252
SWIDTH 1059 0
DWIDTH 18 0
BBX 16 17 1 0
BITMAP
1FE0
7FF8
F87C
E01E
000E
000F
0007
03FF
03FF
0007
0007
000F
000E
E01E
F87C
7FF8
1FE0
ENDCHAR
STARTCHAR afii10043
ENCODING 253
SWIDTH 1263 0
DWIDTH 24 0
BBX 22 19 1 -2
BITMAP
E07038
E07038
E07038
E07038
E07038
E07038
E07038
E07038
E07038
E07038
E07038
E07038
E07038
E07038
E07038
FFFFFC
FFFFFC
00001C
00001C
ENDCHAR
STARTCHAR afii10041
ENCODING 254
SWIDTH 1059 0
DWIDTH 18 0
BBX 14 17 2 0
BITMAP
E01C
E01C
E01C
E01C
E01C
E01C
E01C
FFFC
7FFC
001C
001C
001C
001C
001C
001C
001C
001C
ENDCHAR
STARTCHAR afii10044
ENCODING 255
SWIDTH 1235 0
DWIDTH 21 0
BBX 19 17 1 0
BITMAP
FC0000
FC0000
1C0000
1C0000
1C0000
1C0000
1C0000
1FFF80
1FFFC0
1C01E0
1C00E0
1C00E0
1C00E0
1C00E0
1C01E0
1FFFC0
1FFF80
ENDCHAR
ENDFONT
