STARTFONT 2.1
COMMENT Copyright (C) 1990-1991 EWT Consulting
COMMENT Portions Copyright (C) 1994-1995 Cronyx Ltd.
COMMENT Changes Copyright (C) 1996-1997 by Andrey A. Chernov, Moscow, Russia.
COMMENT Modified by Serge Vakulenko, <vak@cronyx.ru>
COMMENT Changes 1999 by Serge Winitzki.
COMMENT This software may be used, modified, copied, distributed, and sold,
COMMENT in both source and binary form provided that the copyright
COMMENT and these terms are retained. Under no circumstances is the author
COMMENT responsible for the proper functioning of this software, nor does
COMMENT the author assume any responsibility for damages incurred with its use.
COMMENT $XFree86$
FONT -Cronyx-Courier-Bold-R-Normal--14-100-100-100-M-80-KOI8-R
SIZE 10 96 96
FONTBOUNDINGBOX 9 13 0 -2
STARTPROPERTIES 21
DEFAULT_CHAR 32
FONT_ASCENT 11
FONT_DESCENT 2
SPACING "M"
FONTNAME_REGISTRY ""
FOUNDRY "Cronyx"
FAMILY_NAME "Courier"
WEIGHT_NAME "Bold"
SLANT "R"
SETWIDTH_NAME "Normal"
ADD_STYLE_NAME ""
AVERAGE_WIDTH 80
CHARSET_REGISTRY "KOI8"
CHARSET_ENCODING "R"
PIXEL_SIZE 14
POINT_SIZE 100
RESOLUTION_X 100
RESOLUTION_Y 100
COPYRIGHT "Copyright (C) 1990, 1991 EWT Consulting, Portions Copyright (C) 1994 Cronyx Ltd., Portions Copyright (C) 1996-1997 by Andrey A. Chernov, Moscow, Russia."
_XMBDFED_INFO "Edited with xmbdfed 4.3."
_XFREE86_GLYPH_RANGES "32_126 149 154 156_158 163 179 191_255"
ENDPROPERTIES
CHARS 167
STARTCHAR space
ENCODING 32
SWIDTH 692 0
DWIDTH 9 0
BBX 0 0 0 0
BITMAP
ENDCHAR
STARTCHAR exclam
ENCODING 33
SWIDTH 1000 0
DWIDTH 9 0
BBX 2 9 4 0
BITMAP
C0
C0
C0
C0
C0
C0
C0
00
C0
ENDCHAR
STARTCHAR quotedbl
ENCODING 34
SWIDTH 3000 0
DWIDTH 9 0
BBX 4 3 3 6
BITMAP
F0
F0
F0
ENDCHAR
STARTCHAR numbersign
ENCODING 35
SWIDTH 1000 0
DWIDTH 9 0
BBX 8 9 1 0
BITMAP
1E
1E
7F
3C
3C
3C
FE
78
78
ENDCHAR
STARTCHAR dollar
ENCODING 36
SWIDTH 1000 0
DWIDTH 9 0
BBX 6 9 2 0
BITMAP
30
78
CC
C0
78
0C
CC
78
30
ENDCHAR
STARTCHAR percent
ENCODING 37
SWIDTH 1000 0
DWIDTH 9 0
BBX 8 9 1 0
BITMAP
60
F3
66
0C
18
30
66
CF
06
ENDCHAR
STARTCHAR ampersand
ENCODING 38
SWIDTH 1000 0
DWIDTH 9 0
BBX 8 9 1 0
BITMAP
38
60
60
30
70
DB
DE
CC
7F
ENDCHAR
STARTCHAR quotesingle
ENCODING 39
SWIDTH 3000 0
DWIDTH 9 0
BBX 2 3 4 6
BITMAP
C0
C0
C0
ENDCHAR
STARTCHAR parenleft
ENCODING 40
SWIDTH 818 0
DWIDTH 9 0
BBX 4 11 3 -2
BITMAP
30
60
60
C0
C0
C0
C0
C0
60
60
30
ENDCHAR
STARTCHAR parenright
ENCODING 41
SWIDTH 818 0
DWIDTH 9 0
BBX 4 11 3 -2
BITMAP
C0
60
60
30
30
30
30
30
60
60
C0
ENDCHAR
STARTCHAR asterisk
ENCODING 42
SWIDTH 1800 0
DWIDTH 9 0
BBX 8 5 1 2
BITMAP
7E
3C
FF
3C
7E
ENDCHAR
STARTCHAR plus
ENCODING 43
SWIDTH 1286 0
DWIDTH 9 0
BBX 8 7 1 0
BITMAP
18
18
18
FF
18
18
18
ENDCHAR
STARTCHAR comma
ENCODING 44
SWIDTH 4500 0
DWIDTH 9 0
BBX 3 2 3 -1
BITMAP
60
C0
ENDCHAR
STARTCHAR hyphen
ENCODING 45
SWIDTH 9000 0
DWIDTH 9 0
BBX 7 1 1 3
BITMAP
FE
ENDCHAR
STARTCHAR period
ENCODING 46
SWIDTH 9000 0
DWIDTH 9 0
BBX 2 1 4 0
BITMAP
C0
ENDCHAR
STARTCHAR slash
ENCODING 47
SWIDTH 1286 0
DWIDTH 9 0
BBX 8 7 1 1
BITMAP
03
06
0C
18
30
60
C0
ENDCHAR
STARTCHAR zero
ENCODING 48
SWIDTH 1000 0
DWIDTH 9 0
BBX 6 9 2 0
BITMAP
78
CC
CC
CC
CC
CC
CC
CC
78
ENDCHAR
STARTCHAR one
ENCODING 49
SWIDTH 1000 0
DWIDTH 9 0
BBX 6 9 2 0
BITMAP
30
F0
30
30
30
30
30
30
FC
ENDCHAR
STARTCHAR two
ENCODING 50
SWIDTH 1000 0
DWIDTH 9 0
BBX 6 9 2 0
BITMAP
78
CC
0C
0C
18
30
60
C0
FC
ENDCHAR
STARTCHAR three
ENCODING 51
SWIDTH 1000 0
DWIDTH 9 0
BBX 6 9 2 0
BITMAP
78
CC
0C
0C
38
0C
0C
CC
78
ENDCHAR
STARTCHAR four
ENCODING 52
SWIDTH 1000 0
DWIDTH 9 0
BBX 6 9 2 0
BITMAP
18
38
38
78
78
D8
FC
18
3C
ENDCHAR
STARTCHAR five
ENCODING 53
SWIDTH 1000 0
DWIDTH 9 0
BBX 6 9 2 0
BITMAP
FC
C0
C0
C0
F8
0C
0C
CC
78
ENDCHAR
STARTCHAR six
ENCODING 54
SWIDTH 1000 0
DWIDTH 9 0
BBX 6 9 2 0
BITMAP
38
60
C0
C0
F8
CC
CC
CC
78
ENDCHAR
STARTCHAR seven
ENCODING 55
SWIDTH 1000 0
DWIDTH 9 0
BBX 6 9 2 0
BITMAP
FC
CC
0C
18
18
30
30
60
60
ENDCHAR
STARTCHAR eight
ENCODING 56
SWIDTH 1000 0
DWIDTH 9 0
BBX 6 9 2 0
BITMAP
78
CC
CC
CC
78
CC
CC
CC
78
ENDCHAR
STARTCHAR nine
ENCODING 57
SWIDTH 1000 0
DWIDTH 9 0
BBX 6 9 2 0
BITMAP
78
CC
CC
CC
7C
0C
0C
18
70
ENDCHAR
STARTCHAR colon
ENCODING 58
SWIDTH 1500 0
DWIDTH 9 0
BBX 2 6 4 0
BITMAP
C0
00
00
00
00
C0
ENDCHAR
STARTCHAR semicolon
ENCODING 59
SWIDTH 1286 0
DWIDTH 9 0
BBX 3 7 3 -1
BITMAP
60
00
00
00
00
60
C0
ENDCHAR
STARTCHAR less
ENCODING 60
SWIDTH 1286 0
DWIDTH 9 0
BBX 5 7 2 0
BITMAP
18
30
60
C0
60
30
18
ENDCHAR
STARTCHAR equal
ENCODING 61
SWIDTH 3000 0
DWIDTH 9 0
BBX 6 3 2 3
BITMAP
FC
00
FC
ENDCHAR
STARTCHAR greater
ENCODING 62
SWIDTH 1286 0
DWIDTH 9 0
BBX 5 7 3 0
BITMAP
C0
60
30
18
30
60
C0
ENDCHAR
STARTCHAR question
ENCODING 63
SWIDTH 1000 0
DWIDTH 9 0
BBX 6 9 2 0
BITMAP
78
CC
0C
0C
18
30
30
00
30
ENDCHAR
STARTCHAR at
ENCODING 64
SWIDTH 1000 0
DWIDTH 9 0
BBX 8 9 1 0
BITMAP
3E
63
DF
FF
FF
FF
DE
60
3C
ENDCHAR
STARTCHAR A
ENCODING 65
SWIDTH 1000 0
DWIDTH 9 0
BBX 8 9 1 0
BITMAP
38
18
18
3C
3C
66
7E
66
FF
ENDCHAR
STARTCHAR B
ENCODING 66
SWIDTH 1000 0
DWIDTH 9 0
BBX 8 9 1 0
BITMAP
FE
63
63
63
7E
63
63
63
FE
ENDCHAR
STARTCHAR C
ENCODING 67
SWIDTH 1000 0
DWIDTH 9 0
BBX 8 9 1 0
BITMAP
3E
63
C0
C0
C0
C0
C0
63
3E
ENDCHAR
STARTCHAR D
ENCODING 68
SWIDTH 1000 0
DWIDTH 9 0
BBX 8 9 1 0
BITMAP
FC
66
63
63
63
63
63
66
FC
ENDCHAR
STARTCHAR E
ENCODING 69
SWIDTH 1000 0
DWIDTH 9 0
BBX 8 9 1 0
BITMAP
FF
63
60
6C
7C
6C
60
63
FF
ENDCHAR
STARTCHAR F
ENCODING 70
SWIDTH 1000 0
DWIDTH 9 0
BBX 8 9 1 0
BITMAP
FF
63
60
6C
7C
6C
60
60
F8
ENDCHAR
STARTCHAR G
ENCODING 71
SWIDTH 1000 0
DWIDTH 9 0
BBX 8 9 1 0
BITMAP
3E
63
C0
C0
C0
CF
C3
63
3E
ENDCHAR
STARTCHAR H
ENCODING 72
SWIDTH 1000 0
DWIDTH 9 0
BBX 8 9 1 0
BITMAP
FF
66
66
66
7E
66
66
66
FF
ENDCHAR
STARTCHAR I
ENCODING 73
SWIDTH 1000 0
DWIDTH 9 0
BBX 6 9 2 0
BITMAP
FC
30
30
30
30
30
30
30
FC
ENDCHAR
STARTCHAR J
ENCODING 74
SWIDTH 1000 0
DWIDTH 9 0
BBX 7 9 1 0
BITMAP
3E
0C
0C
0C
0C
0C
CC
CC
78
ENDCHAR
STARTCHAR K
ENCODING 75
SWIDTH 1000 0
DWIDTH 9 0
BBX 8 9 1 0
BITMAP
F7
66
6C
6C
78
78
6C
66
F7
ENDCHAR
STARTCHAR L
ENCODING 76
SWIDTH 1000 0
DWIDTH 9 0
BBX 8 9 1 0
BITMAP
FC
30
30
30
30
30
30
33
FF
ENDCHAR
STARTCHAR M
ENCODING 77
SWIDTH 1000 0
DWIDTH 9 0
BBX 8 9 1 0
BITMAP
E7
66
7E
7E
7E
7E
66
66
FF
ENDCHAR
STARTCHAR N
ENCODING 78
SWIDTH 1000 0
DWIDTH 9 0
BBX 8 9 1 0
BITMAP
EF
66
76
76
7E
6E
6E
66
F6
ENDCHAR
STARTCHAR O
ENCODING 79
SWIDTH 1000 0
DWIDTH 9 0
BBX 8 9 1 0
BITMAP
3C
66
C3
C3
C3
C3
C3
66
3C
ENDCHAR
STARTCHAR P
ENCODING 80
SWIDTH 1000 0
DWIDTH 9 0
BBX 8 9 1 0
BITMAP
FE
63
63
63
7E
60
60
60
F8
ENDCHAR
STARTCHAR Q
ENCODING 81
SWIDTH 900 0
DWIDTH 9 0
BBX 8 10 1 -1
BITMAP
3C
66
C3
C3
C3
C3
C3
66
3C
3F
ENDCHAR
STARTCHAR R
ENCODING 82
SWIDTH 1000 0
DWIDTH 9 0
BBX 8 9 1 0
BITMAP
FE
63
63
63
7E
6C
6C
66
F7
ENDCHAR
STARTCHAR S
ENCODING 83
SWIDTH 1000 0
DWIDTH 9 0
BBX 8 9 1 0
BITMAP
7E
C3
C0
C0
7E
03
03
C3
7E
ENDCHAR
STARTCHAR T
ENCODING 84
SWIDTH 1000 0
DWIDTH 9 0
BBX 8 9 1 0
BITMAP
FF
DB
18
18
18
18
18
18
3C
ENDCHAR
STARTCHAR U
ENCODING 85
SWIDTH 1000 0
DWIDTH 9 0
BBX 8 9 1 0
BITMAP
FF
66
66
66
66
66
66
66
3C
ENDCHAR
STARTCHAR V
ENCODING 86
SWIDTH 1000 0
DWIDTH 9 0
BBX 8 9 1 0
BITMAP
FF
66
66
66
3C
3C
3C
18
18
ENDCHAR
STARTCHAR W
ENCODING 87
SWIDTH 1000 0
DWIDTH 9 0
BBX 8 9 1 0
BITMAP
FF
66
66
66
7E
7E
7E
3C
3C
ENDCHAR
STARTCHAR X
ENCODING 88
SWIDTH 1000 0
DWIDTH 9 0
BBX 8 9 1 0
BITMAP
FF
66
3C
3C
18
3C
3C
66
FF
ENDCHAR
STARTCHAR Y
ENCODING 89
SWIDTH 1000 0
DWIDTH 9 0
BBX 8 9 1 0
BITMAP
FF
66
66
3C
3C
18
18
18
3C
ENDCHAR
STARTCHAR Z
ENCODING 90
SWIDTH 1000 0
DWIDTH 9 0
BBX 8 9 1 0
BITMAP
FF
C6
0C
0C
18
30
30
63
FF
ENDCHAR
STARTCHAR bracketleft
ENCODING 91
SWIDTH 818 0
DWIDTH 9 0
BBX 4 11 3 -2
BITMAP
F0
C0
C0
C0
C0
C0
C0
C0
C0
C0
F0
ENDCHAR
STARTCHAR backslash
ENCODING 92
SWIDTH 1286 0
DWIDTH 9 0
BBX 8 7 1 1
BITMAP
C0
60
30
18
0C
06
03
ENDCHAR
STARTCHAR bracketright
ENCODING 93
SWIDTH 900 0
DWIDTH 9 0
BBX 4 10 3 -2
BITMAP
F0
30
30
30
30
30
30
30
30
F0
ENDCHAR
STARTCHAR asciicircum
ENCODING 94
SWIDTH 3000 0
DWIDTH 9 0
BBX 6 3 2 7
BITMAP
30
78
CC
ENDCHAR
STARTCHAR underscore
ENCODING 95
SWIDTH 9000 0
DWIDTH 9 0
BBX 9 1 0 -2
BITMAP
FF80
ENDCHAR
STARTCHAR grave
ENCODING 96
SWIDTH 4500 0
DWIDTH 9 0
BBX 3 2 3 7
BITMAP
C0
60
ENDCHAR
STARTCHAR a
ENCODING 97
SWIDTH 1500 0
DWIDTH 9 0
BBX 8 6 1 0
BITMAP
7C
06
7E
C6
C6
7F
ENDCHAR
STARTCHAR b
ENCODING 98
SWIDTH 1000 0
DWIDTH 9 0
BBX 8 9 1 0
BITMAP
E0
60
60
7E
63
63
63
63
FE
ENDCHAR
STARTCHAR c
ENCODING 99
SWIDTH 1500 0
DWIDTH 9 0
BBX 8 6 1 0
BITMAP
7E
C3
C0
C0
C3
7E
ENDCHAR
STARTCHAR d
ENCODING 100
SWIDTH 1000 0
DWIDTH 9 0
BBX 8 9 1 0
BITMAP
0E
06
06
7E
C6
C6
C6
C6
7F
ENDCHAR
STARTCHAR e
ENCODING 101
SWIDTH 1500 0
DWIDTH 9 0
BBX 8 6 1 0
BITMAP
7E
C3
FF
C0
C3
7E
ENDCHAR
STARTCHAR f
ENCODING 102
SWIDTH 1000 0
DWIDTH 9 0
BBX 5 9 2 0
BITMAP
38
60
60
F8
60
60
60
60
F8
ENDCHAR
STARTCHAR g
ENCODING 103
SWIDTH 1125 0
DWIDTH 9 0
BBX 8 8 1 -2
BITMAP
7F
C6
C6
C6
7E
06
06
7C
ENDCHAR
STARTCHAR h
ENCODING 104
SWIDTH 1000 0
DWIDTH 9 0
BBX 8 9 1 0
BITMAP
E0
60
60
7C
76
66
66
66
FF
ENDCHAR
STARTCHAR i
ENCODING 105
SWIDTH 1000 0
DWIDTH 9 0
BBX 6 9 2 0
BITMAP
30
00
00
F0
30
30
30
30
FC
ENDCHAR
STARTCHAR j
ENCODING 106
SWIDTH 818 0
DWIDTH 9 0
BBX 5 11 2 -2
BITMAP
18
00
00
F8
18
18
18
18
18
18
F0
ENDCHAR
STARTCHAR k
ENCODING 107
SWIDTH 1000 0
DWIDTH 9 0
BBX 8 9 1 0
BITMAP
E0
60
60
6E
6C
78
78
6C
E7
ENDCHAR
STARTCHAR l
ENCODING 108
SWIDTH 1000 0
DWIDTH 9 0
BBX 6 9 2 0
BITMAP
70
30
30
30
30
30
30
30
FC
ENDCHAR
STARTCHAR m
ENCODING 109
SWIDTH 1500 0
DWIDTH 9 0
BBX 8 6 1 0
BITMAP
FC
7E
7E
7E
7E
FF
ENDCHAR
STARTCHAR n
ENCODING 110
SWIDTH 1500 0
DWIDTH 9 0
BBX 8 6 1 0
BITMAP
FC
76
66
66
66
FF
ENDCHAR
STARTCHAR o
ENCODING 111
SWIDTH 1500 0
DWIDTH 9 0
BBX 8 6 1 0
BITMAP
7E
C3
C3
C3
C3
7E
ENDCHAR
STARTCHAR p
ENCODING 112
SWIDTH 1125 0
DWIDTH 9 0
BBX 8 8 1 -2
BITMAP
FE
63
63
63
63
7E
60
F0
ENDCHAR
STARTCHAR q
ENCODING 113
SWIDTH 1125 0
DWIDTH 9 0
BBX 8 8 1 -2
BITMAP
7F
C6
C6
C6
C6
7E
06
0F
ENDCHAR
STARTCHAR r
ENCODING 114
SWIDTH 1500 0
DWIDTH 9 0
BBX 8 6 1 0
BITMAP
FE
3B
30
30
30
FC
ENDCHAR
STARTCHAR s
ENCODING 115
SWIDTH 1500 0
DWIDTH 9 0
BBX 8 6 1 0
BITMAP
7E
C3
78
0E
C3
7E
ENDCHAR
STARTCHAR t
ENCODING 116
SWIDTH 1125 0
DWIDTH 9 0
BBX 6 8 2 0
BITMAP
60
60
F8
60
60
60
6C
38
ENDCHAR
STARTCHAR u
ENCODING 117
SWIDTH 1500 0
DWIDTH 9 0
BBX 8 6 1 0
BITMAP
EE
66
66
66
6E
3F
ENDCHAR
STARTCHAR v
ENCODING 118
SWIDTH 1500 0
DWIDTH 9 0
BBX 8 6 1 0
BITMAP
FF
66
66
3C
3C
18
ENDCHAR
STARTCHAR w
ENCODING 119
SWIDTH 1500 0
DWIDTH 9 0
BBX 8 6 1 0
BITMAP
FF
66
7E
7E
3C
3C
ENDCHAR
STARTCHAR x
ENCODING 120
SWIDTH 1500 0
DWIDTH 9 0
BBX 8 6 1 0
BITMAP
FF
66
3C
3C
66
FF
ENDCHAR
STARTCHAR y
ENCODING 121
SWIDTH 1125 0
DWIDTH 9 0
BBX 8 8 1 -2
BITMAP
FF
66
66
3C
3C
18
18
70
ENDCHAR
STARTCHAR z
ENCODING 122
SWIDTH 1500 0
DWIDTH 9 0
BBX 7 6 1 0
BITMAP
FE
CC
18
30
66
FE
ENDCHAR
STARTCHAR braceleft
ENCODING 123
SWIDTH 818 0
DWIDTH 9 0
BBX 6 11 2 -2
BITMAP
1C
30
30
30
30
E0
30
30
30
30
1C
ENDCHAR
STARTCHAR bar
ENCODING 124
SWIDTH 750 0
DWIDTH 9 0
BBX 2 12 4 -2
BITMAP
C0
C0
C0
C0
C0
C0
C0
C0
C0
C0
C0
C0
ENDCHAR
STARTCHAR braceright
ENCODING 125
SWIDTH 818 0
DWIDTH 9 0
BBX 6 11 2 -2
BITMAP
E0
30
30
30
30
1C
30
30
30
30
E0
ENDCHAR
STARTCHAR asciitilde
ENCODING 126
SWIDTH 3000 0
DWIDTH 9 0
BBX 8 3 1 5
BITMAP
73
DB
CE
ENDCHAR
STARTCHAR bullet
ENCODING 149
SWIDTH 1800 0
DWIDTH 9 0
BBX 6 5 2 2
BITMAP
78
FC
FC
FC
78
ENDCHAR
STARTCHAR space
ENCODING 154
SWIDTH 692 0
DWIDTH 9 0
BBX 0 0 0 0
BITMAP
ENDCHAR
STARTCHAR degree
ENCODING 156
SWIDTH 3000 0
DWIDTH 9 0
BBX 4 3 3 6
BITMAP
60
F0
60
ENDCHAR
STARTCHAR twosuperior
ENCODING 157
SWIDTH 1800 0
DWIDTH 9 0
BBX 4 5 3 4
BITMAP
60
F0
30
60
F0
ENDCHAR
STARTCHAR periodcentered
ENCODING 158
SWIDTH 9000 0
DWIDTH 9 0
BBX 2 1 4 3
BITMAP
C0
ENDCHAR
STARTCHAR afii10071
ENCODING 163
SWIDTH 1125 0
DWIDTH 9 0
BBX 8 8 1 0
BITMAP
7E
00
7E
C3
FF
C0
C3
7E
ENDCHAR
STARTCHAR afii10023
ENCODING 179
SWIDTH 818 0
DWIDTH 9 0
BBX 8 11 1 0
BITMAP
7E
00
FF
63
60
6C
7C
6C
60
63
FF
ENDCHAR
STARTCHAR copyright
ENCODING 191
SWIDTH 1125 0
DWIDTH 9 0
BBX 8 8 1 1
BITMAP
3C
66
DF
F3
F3
DF
66
3C
ENDCHAR
STARTCHAR afii10096
ENCODING 192
SWIDTH 1500 0
DWIDTH 9 0
BBX 9 6 0 0
BITMAP
FF00
7980
7980
7980
7980
FF00
ENDCHAR
STARTCHAR afii10065
ENCODING 193
SWIDTH 1500 0
DWIDTH 9 0
BBX 8 6 1 0
BITMAP
7C
06
7E
C6
C6
7F
ENDCHAR
STARTCHAR afii10066
ENCODING 194
SWIDTH 1000 0
DWIDTH 9 0
BBX 7 9 2 0
BITMAP
06
7C
C0
FC
E6
C6
C6
C6
7C
ENDCHAR
STARTCHAR afii10088
ENCODING 195
SWIDTH 1286 0
DWIDTH 9 0
BBX 8 7 1 -1
BITMAP
FF
66
66
66
66
FF
03
ENDCHAR
STARTCHAR afii10069
ENCODING 196
SWIDTH 1286 0
DWIDTH 9 0
BBX 8 7 1 -1
BITMAP
7F
36
36
36
66
FF
C3
ENDCHAR
STARTCHAR afii10070
ENCODING 197
SWIDTH 1500 0
DWIDTH 9 0
BBX 8 6 1 0
BITMAP
7E
C3
FF
C0
C3
7E
ENDCHAR
STARTCHAR afii10086
ENCODING 198
SWIDTH 900 0
DWIDTH 9 0
BBX 8 10 1 -2
BITMAP
3C
18
7E
DB
DB
DB
DB
7E
18
3C
ENDCHAR
STARTCHAR afii10068
ENCODING 199
SWIDTH 1500 0
DWIDTH 9 0
BBX 7 6 1 0
BITMAP
FE
66
60
60
60
F0
ENDCHAR
STARTCHAR afii10087
ENCODING 200
SWIDTH 1500 0
DWIDTH 9 0
BBX 8 6 1 0
BITMAP
FF
66
3C
3C
66
FF
ENDCHAR
STARTCHAR afii10074
ENCODING 201
SWIDTH 1500 0
DWIDTH 9 0
BBX 8 6 1 0
BITMAP
FF
66
6E
7E
76
FF
ENDCHAR
STARTCHAR afii10075
ENCODING 202
SWIDTH 1125 0
DWIDTH 9 0
BBX 8 8 1 0
BITMAP
3C
00
FF
66
6E
7E
76
FF
ENDCHAR
STARTCHAR afii10076
ENCODING 203
SWIDTH 1500 0
DWIDTH 9 0
BBX 7 6 1 0
BITMAP
FE
6C
78
78
6C
FE
ENDCHAR
STARTCHAR afii10077
ENCODING 204
SWIDTH 1500 0
DWIDTH 9 0
BBX 8 6 1 0
BITMAP
7F
36
36
36
F6
EF
ENDCHAR
STARTCHAR afii10078
ENCODING 205
SWIDTH 1500 0
DWIDTH 9 0
BBX 8 6 1 0
BITMAP
E7
7E
7E
7E
66
FF
ENDCHAR
STARTCHAR afii10079
ENCODING 206
SWIDTH 1500 0
DWIDTH 9 0
BBX 8 6 1 0
BITMAP
FF
66
7E
66
66
FF
ENDCHAR
STARTCHAR afii10080
ENCODING 207
SWIDTH 1500 0
DWIDTH 9 0
BBX 8 6 1 0
BITMAP
7E
C3
C3
C3
C3
7E
ENDCHAR
STARTCHAR afii10081
ENCODING 208
SWIDTH 1500 0
DWIDTH 9 0
BBX 8 6 1 0
BITMAP
FF
66
66
66
66
FF
ENDCHAR
STARTCHAR afii10097
ENCODING 209
SWIDTH 1500 0
DWIDTH 9 0
BBX 8 6 1 0
BITMAP
3F
66
66
3E
36
EF
ENDCHAR
STARTCHAR afii10082
ENCODING 210
SWIDTH 1125 0
DWIDTH 9 0
BBX 8 8 1 -2
BITMAP
FE
63
63
63
63
7E
60
F0
ENDCHAR
STARTCHAR afii10083
ENCODING 211
SWIDTH 1500 0
DWIDTH 9 0
BBX 8 6 1 0
BITMAP
7E
C3
C0
C0
C3
7E
ENDCHAR
STARTCHAR afii10084
ENCODING 212
SWIDTH 1500 0
DWIDTH 9 0
BBX 8 6 1 0
BITMAP
FF
DB
18
18
18
3C
ENDCHAR
STARTCHAR afii10085
ENCODING 213
SWIDTH 1125 0
DWIDTH 9 0
BBX 8 8 1 -2
BITMAP
FF
66
66
3C
3C
18
D8
70
ENDCHAR
STARTCHAR afii10072
ENCODING 214
SWIDTH 1500 0
DWIDTH 9 0
BBX 8 6 1 0
BITMAP
FF
7E
3C
7E
7E
FF
ENDCHAR
STARTCHAR afii10067
ENCODING 215
SWIDTH 1500 0
DWIDTH 9 0
BBX 8 6 1 0
BITMAP
FE
63
7E
63
63
FE
ENDCHAR
STARTCHAR afii10094
ENCODING 216
SWIDTH 1500 0
DWIDTH 9 0
BBX 7 6 1 0
BITMAP
F0
60
7C
66
66
FC
ENDCHAR
STARTCHAR afii10093
ENCODING 217
SWIDTH 1500 0
DWIDTH 9 0
BBX 9 6 0 0
BITMAP
F780
6300
7B00
6F00
6F00
FF80
ENDCHAR
STARTCHAR afii10073
ENCODING 218
SWIDTH 1500 0
DWIDTH 9 0
BBX 8 6 1 0
BITMAP
FE
C3
1E
03
C3
7E
ENDCHAR
STARTCHAR afii10090
ENCODING 219
SWIDTH 1500 0
DWIDTH 9 0
BBX 8 6 1 0
BITMAP
FF
7E
7E
7E
7E
FF
ENDCHAR
STARTCHAR afii10095
ENCODING 220
SWIDTH 1500 0
DWIDTH 9 0
BBX 8 6 1 0
BITMAP
7E
C3
1F
03
C3
7E
ENDCHAR
STARTCHAR afii10091
ENCODING 221
SWIDTH 1286 0
DWIDTH 9 0
BBX 8 7 1 -1
BITMAP
FF
7E
7E
7E
7E
FF
03
ENDCHAR
STARTCHAR afii10089
ENCODING 222
SWIDTH 1500 0
DWIDTH 9 0
BBX 8 6 1 0
BITMAP
FF
66
6E
3E
06
0F
ENDCHAR
STARTCHAR afii10092
ENCODING 223
SWIDTH 1500 0
DWIDTH 9 0
BBX 8 6 1 0
BITMAP
F8
F0
3E
33
33
7E
ENDCHAR
STARTCHAR afii10048
ENCODING 224
SWIDTH 1000 0
DWIDTH 9 0
BBX 9 9 0 0
BITMAP
FF00
7980
7980
7980
7980
7980
7980
7980
FF00
ENDCHAR
STARTCHAR afii10017
ENCODING 225
SWIDTH 1000 0
DWIDTH 9 0
BBX 8 9 1 0
BITMAP
18
18
18
3C
3C
66
7E
66
FF
ENDCHAR
STARTCHAR afii10018
ENCODING 226
SWIDTH 1000 0
DWIDTH 9 0
BBX 8 9 1 0
BITMAP
FF
63
60
60
7E
63
63
63
FE
ENDCHAR
STARTCHAR afii10040
ENCODING 227
SWIDTH 900 0
DWIDTH 9 0
BBX 8 10 1 -1
BITMAP
FF
66
66
66
66
66
66
66
FF
03
ENDCHAR
STARTCHAR afii10021
ENCODING 228
SWIDTH 900 0
DWIDTH 9 0
BBX 8 10 1 -1
BITMAP
7F
36
36
36
36
36
36
66
FF
C3
ENDCHAR
STARTCHAR afii10022
ENCODING 229
SWIDTH 1000 0
DWIDTH 9 0
BBX 8 9 1 0
BITMAP
FF
63
60
6C
7C
6C
60
63
FF
ENDCHAR
STARTCHAR afii10038
ENCODING 230
SWIDTH 900 0
DWIDTH 9 0
BBX 8 10 1 0
BITMAP
18
3C
7E
DB
DB
DB
DB
7E
3C
18
ENDCHAR
STARTCHAR afii10020
ENCODING 231
SWIDTH 1000 0
DWIDTH 9 0
BBX 8 9 1 0
BITMAP
FF
63
60
60
60
60
60
60
F8
ENDCHAR
STARTCHAR afii10039
ENCODING 232
SWIDTH 1000 0
DWIDTH 9 0
BBX 8 9 1 0
BITMAP
FF
66
3C
3C
18
3C
3C
66
FF
ENDCHAR
STARTCHAR afii10026
ENCODING 233
SWIDTH 1000 0
DWIDTH 9 0
BBX 8 9 1 0
BITMAP
FF
66
66
6E
7E
7E
76
66
FF
ENDCHAR
STARTCHAR afii10027
ENCODING 234
SWIDTH 818 0
DWIDTH 9 0
BBX 8 11 1 0
BITMAP
3C
18
FF
66
66
6E
7E
7E
76
66
FF
ENDCHAR
STARTCHAR afii10028
ENCODING 235
SWIDTH 1000 0
DWIDTH 9 0
BBX 8 9 1 0
BITMAP
F7
66
6C
6C
78
78
6C
66
F7
ENDCHAR
STARTCHAR afii10029
ENCODING 236
SWIDTH 1000 0
DWIDTH 9 0
BBX 8 9 1 0
BITMAP
7F
36
36
36
36
36
36
F6
EF
ENDCHAR
STARTCHAR afii10030
ENCODING 237
SWIDTH 1000 0
DWIDTH 9 0
BBX 8 9 1 0
BITMAP
E7
66
7E
7E
7E
7E
66
66
FF
ENDCHAR
STARTCHAR afii10031
ENCODING 238
SWIDTH 1000 0
DWIDTH 9 0
BBX 8 9 1 0
BITMAP
FF
66
66
66
7E
66
66
66
FF
ENDCHAR
STARTCHAR afii10032
ENCODING 239
SWIDTH 1000 0
DWIDTH 9 0
BBX 8 9 1 0
BITMAP
3C
66
C3
C3
C3
C3
C3
66
3C
ENDCHAR
STARTCHAR afii10033
ENCODING 240
SWIDTH 1000 0
DWIDTH 9 0
BBX 8 9 1 0
BITMAP
FF
66
66
66
66
66
66
66
FF
ENDCHAR
STARTCHAR afii10049
ENCODING 241
SWIDTH 1000 0
DWIDTH 9 0
BBX 8 9 1 0
BITMAP
7F
C6
C6
C6
7E
36
66
66
EF
ENDCHAR
STARTCHAR afii10034
ENCODING 242
SWIDTH 1000 0
DWIDTH 9 0
BBX 8 9 1 0
BITMAP
FE
63
63
63
7E
60
60
60
F0
ENDCHAR
STARTCHAR afii10035
ENCODING 243
SWIDTH 1000 0
DWIDTH 9 0
BBX 8 9 1 0
BITMAP
3F
67
C3
C0
C0
C0
C3
63
3E
ENDCHAR
STARTCHAR afii10036
ENCODING 244
SWIDTH 1000 0
DWIDTH 9 0
BBX 8 9 1 0
BITMAP
FF
DB
18
18
18
18
18
18
3C
ENDCHAR
STARTCHAR afii10037
ENCODING 245
SWIDTH 1000 0
DWIDTH 9 0
BBX 8 9 1 0
BITMAP
FF
66
66
3C
3C
18
18
D8
70
ENDCHAR
STARTCHAR afii10024
ENCODING 246
SWIDTH 1000 0
DWIDTH 9 0
BBX 8 9 1 0
BITMAP
FF
7E
7E
7E
3C
7E
7E
7E
FF
ENDCHAR
STARTCHAR afii10019
ENCODING 247
SWIDTH 1000 0
DWIDTH 9 0
BBX 8 9 1 0
BITMAP
FE
63
63
63
7E
63
63
63
FE
ENDCHAR
STARTCHAR afii10046
ENCODING 248
SWIDTH 1000 0
DWIDTH 9 0
BBX 8 9 1 0
BITMAP
F0
60
60
60
7E
63
63
63
FE
ENDCHAR
STARTCHAR afii10045
ENCODING 249
SWIDTH 1000 0
DWIDTH 9 0
BBX 9 9 0 0
BITMAP
F780
6300
6300
6300
7B00
6F00
6F00
6F00
FF80
ENDCHAR
STARTCHAR afii10025
ENCODING 250
SWIDTH 1000 0
DWIDTH 9 0
BBX 7 9 1 0
BITMAP
FC
E6
C6
06
3C
06
C6
C6
7C
ENDCHAR
STARTCHAR afii10042
ENCODING 251
SWIDTH 1000 0
DWIDTH 9 0
BBX 8 9 1 0
BITMAP
FF
7E
7E
7E
7E
7E
7E
7E
FF
ENDCHAR
STARTCHAR afii10047
ENCODING 252
SWIDTH 1000 0
DWIDTH 9 0
BBX 7 9 1 0
BITMAP
78
CC
06
06
7E
06
06
CC
78
ENDCHAR
STARTCHAR afii10043
ENCODING 253
SWIDTH 900 0
DWIDTH 9 0
BBX 8 10 1 -1
BITMAP
FF
7E
7E
7E
7E
7E
7E
7E
FF
03
ENDCHAR
STARTCHAR afii10041
ENCODING 254
SWIDTH 1000 0
DWIDTH 9 0
BBX 8 9 1 0
BITMAP
FF
66
66
66
6E
3E
06
06
0F
ENDCHAR
STARTCHAR afii10044
ENCODING 255
SWIDTH 1000 0
DWIDTH 9 0
BBX 8 9 1 0
BITMAP
F8
F0
F0
30
3E
33
33
33
7E
ENDCHAR
ENDFONT
