STARTFONT 2.1
COMMENT Copyright (C) 1990-1991 EWT Consulting
COMMENT Portions Copyright (C) 1994-1995 Cronyx Ltd.
COMMENT Changes Copyright (C) 1996-1997 by Andrey A. Chernov, Moscow, Russia.
COMMENT Modified by Serge Vakulenko, <vak@cronyx.ru>
COMMENT Changes 1999 by Serge Winitzki.
COMMENT This software may be used, modified, copied, distributed, and sold,
COMMENT in both source and binary form provided that the copyright
COMMENT and these terms are retained. Under no circumstances is the author
COMMENT responsible for the proper functioning of this software, nor does
COMMENT the author assume any responsibility for damages incurred with its use.
COMMENT $XFree86$
FONT -Cronyx-Times-Medium-I-Normal--25-180-100-100-P-94-KOI8-R
SIZE 18 96 96
FONTBOUNDINGBOX 29 26 -2 -6
STARTPROPERTIES 21
DEFAULT_CHAR 32
FONT_ASCENT 21
FONT_DESCENT 6
SPACING "P"
FONTNAME_REGISTRY ""
FOUNDRY "Cronyx"
FAMILY_NAME "Times"
WEIGHT_NAME "Medium"
SLANT "I"
SETWIDTH_NAME "Normal"
ADD_STYLE_NAME ""
AVERAGE_WIDTH 94
CHARSET_REGISTRY "KOI8"
CHARSET_ENCODING "R"
PIXEL_SIZE 25
POINT_SIZE 180
RESOLUTION_X 100
RESOLUTION_Y 100
COPYRIGHT "Copyright (C) 1990, 1991 EWT Consulting, Portions Copyright (C) 1994 Cronyx Ltd., Portions Copyright (C) 1996-1997 by Andrey A. Chernov, Moscow, Russia."
_XMBDFED_INFO "Edited with xmbdfed 3.8."
_XFREE86_GLYPH_RANGES "32_126 149 154 156_158 163 179 191_255"
ENDPROPERTIES
CHARS 167
STARTCHAR space
ENCODING 32
SWIDTH 250 0
DWIDTH 6 0
BBX 0 0 -1 0
BITMAP
ENDCHAR
STARTCHAR exclam
ENCODING 33
SWIDTH 291 0
DWIDTH 7 0
BBX 7 17 1 0
BITMAP
04
0E
1C
1C
1C
1C
38
38
10
10
20
20
00
20
E0
E0
40
ENDCHAR
STARTCHAR quotedbl
ENCODING 34
SWIDTH 416 0
DWIDTH 10 0
BBX 9 6 2 11
BITMAP
2100
7380
7380
4200
4200
4200
ENDCHAR
STARTCHAR numbersign
ENCODING 35
SWIDTH 500 0
DWIDTH 12 0
BBX 16 17 -1 0
BITMAP
018C
018C
0318
0318
0318
0FFE
0C60
0C60
0C60
0C60
18C0
7FF0
3180
3180
6300
6300
6300
ENDCHAR
STARTCHAR dollar
ENCODING 36
SWIDTH 500 0
DWIDTH 12 0
BBX 15 21 0 -3
BITMAP
0020
0020
01F4
035C
064C
0644
0C88
0E80
0780
03E0
01E0
0160
0170
2130
4260
6260
72C0
5F80
0400
0400
0400
ENDCHAR
STARTCHAR percent
ENCODING 37
SWIDTH 833 0
DWIDTH 20 0
BBX 22 17 0 0
BITMAP
01E060
033FE0
0C2380
182300
182300
184600
319800
1E1800
003000
0061E0
00C660
018C20
031820
031840
0C3080
183100
181E00
ENDCHAR
STARTCHAR ampersand
ENCODING 38
SWIDTH 791 0
DWIDTH 19 0
BBX 21 17 0 0
BITMAP
003800
006C00
018C00
018400
018C00
00D800
01E000
03C7C0
0EE380
186100
306600
607400
603C00
601C00
607C80
79CF80
1F0700
ENDCHAR
STARTCHAR quotesingle
ENCODING 39
SWIDTH 250 0
DWIDTH 6 0
BBX 4 6 3 11
BITMAP
20
70
70
40
40
40
ENDCHAR
STARTCHAR parenleft
ENCODING 40
SWIDTH 333 0
DWIDTH 8 0
BBX 11 22 -1 -5
BITMAP
0020
0040
0080
0300
0200
0600
0600
1800
1800
1800
1800
3000
3000
3000
3000
3000
3000
1000
1800
1000
0800
0400
ENDCHAR
STARTCHAR parenright
ENCODING 41
SWIDTH 333 0
DWIDTH 8 0
BBX 11 22 -1 -5
BITMAP
0400
0200
0100
0300
0100
0180
0180
0180
0180
0180
0180
0300
0300
0300
0300
0600
0C00
0C00
0800
3000
2000
4000
ENDCHAR
STARTCHAR asterisk
ENCODING 42
SWIDTH 333 0
DWIDTH 8 0
BBX 9 9 2 9
BITMAP
0400
0E00
7B00
7F00
1C00
7F00
D600
3800
1000
ENDCHAR
STARTCHAR plus
ENCODING 43
SWIDTH 583 0
DWIDTH 14 0
BBX 12 10 2 2
BITMAP
0300
0300
0300
0600
7FE0
7FE0
0600
0C00
0C00
0C00
ENDCHAR
STARTCHAR comma
ENCODING 44
SWIDTH 250 0
DWIDTH 6 0
BBX 4 7 1 -3
BITMAP
20
70
70
30
20
20
40
ENDCHAR
STARTCHAR hyphen
ENCODING 45
SWIDTH 333 0
DWIDTH 8 0
BBX 7 2 1 6
BITMAP
FE
FE
ENDCHAR
STARTCHAR period
ENCODING 46
SWIDTH 250 0
DWIDTH 6 0
BBX 4 4 1 0
BITMAP
20
E0
E0
40
ENDCHAR
STARTCHAR slash
ENCODING 47
SWIDTH 291 0
DWIDTH 7 0
BBX 11 18 -1 -1
BITMAP
0060
0060
0060
0180
0180
0180
0300
0600
0600
0C00
0C00
1800
3000
3000
3000
C000
C000
C000
ENDCHAR
STARTCHAR zero
ENCODING 48
SWIDTH 500 0
DWIDTH 12 0
BBX 14 16 0 0
BITMAP
01E0
0660
0C30
0C30
1818
3030
3030
3030
3030
6060
6060
6060
30C0
6180
3300
1E00
ENDCHAR
STARTCHAR one
ENCODING 49
SWIDTH 500 0
DWIDTH 12 0
BBX 10 16 2 0
BITMAP
0100
0600
0E00
1E00
0600
0C00
0C00
0C00
0C00
1800
1800
1800
1800
3000
7800
FC00
ENDCHAR
STARTCHAR two
ENCODING 50
SWIDTH 500 0
DWIDTH 12 0
BBX 14 16 0 0
BITMAP
01E0
07E0
0C70
0830
0030
0060
0060
00C0
00C0
0300
0600
0400
0820
10C0
7F80
FF80
ENDCHAR
STARTCHAR three
ENCODING 51
SWIDTH 500 0
DWIDTH 12 0
BBX 14 16 0 0
BITMAP
01E0
07E0
0C70
0030
0030
00C0
03C0
00E0
0060
0060
0060
0060
00E0
E380
F700
3E00
ENDCHAR
STARTCHAR four
ENCODING 52
SWIDTH 500 0
DWIDTH 12 0
BBX 15 16 0 0
BITMAP
0038
0070
00F0
01B0
0330
0460
0C60
1860
3060
60C0
7FF0
7FF0
00C0
0180
0180
0180
ENDCHAR
STARTCHAR five
ENCODING 53
SWIDTH 500 0
DWIDTH 12 0
BBX 14 16 0 0
BITMAP
03F8
07E0
0400
0800
0800
1F80
1FE0
00E0
0070
0060
0060
0060
0060
E180
F380
3E00
ENDCHAR
STARTCHAR six
ENCODING 54
SWIDTH 500 0
DWIDTH 12 0
BBX 14 16 0 0
BITMAP
0030
01C0
0300
0600
0C00
1800
3B80
3CE0
3860
6060
6060
6060
6060
6180
7380
1E00
ENDCHAR
STARTCHAR seven
ENCODING 55
SWIDTH 500 0
DWIDTH 12 0
BBX 14 16 0 0
BITMAP
07FC
0FF0
1830
1030
0060
00C0
0080
0180
0180
0600
0600
0600
0C00
1800
3000
3000
ENDCHAR
STARTCHAR eight
ENCODING 56
SWIDTH 500 0
DWIDTH 12 0
BBX 14 16 0 0
BITMAP
03E0
0C60
1830
1830
1C30
1C60
0EC0
0FC0
1BE0
21C0
60E0
6060
6060
6180
7380
1E00
ENDCHAR
STARTCHAR nine
ENCODING 57
SWIDTH 500 0
DWIDTH 12 0
BBX 14 16 0 0
BITMAP
01E0
0E70
0C30
1818
1818
3030
3030
1870
1CF0
0FE0
00C0
00C0
0180
0600
0C00
3000
ENDCHAR
STARTCHAR colon
ENCODING 58
SWIDTH 291 0
DWIDTH 7 0
BBX 5 11 1 0
BITMAP
10
38
38
10
00
00
00
20
E0
E0
40
ENDCHAR
STARTCHAR semicolon
ENCODING 59
SWIDTH 291 0
DWIDTH 7 0
BBX 6 14 1 -3
BITMAP
08
1C
1C
10
00
00
00
20
70
70
30
20
20
40
ENDCHAR
STARTCHAR less
ENCODING 60
SWIDTH 583 0
DWIDTH 14 0
BBX 14 13 1 1
BITMAP
000C
0038
00E0
0380
0700
1C00
7000
3800
0E00
0700
0380
01C0
0060
ENDCHAR
STARTCHAR equal
ENCODING 61
SWIDTH 583 0
DWIDTH 14 0
BBX 13 7 1 4
BITMAP
7FF8
7FF8
0000
0000
0000
FFF0
FFF0
ENDCHAR
STARTCHAR greater
ENCODING 62
SWIDTH 583 0
DWIDTH 14 0
BBX 14 13 2 1
BITMAP
1800
0E00
0E00
0380
01C0
0070
0070
00E0
0380
0700
3800
7000
C000
ENDCHAR
STARTCHAR question
ENCODING 63
SWIDTH 458 0
DWIDTH 11 0
BBX 13 17 0 0
BITMAP
03E0
0670
1870
1C70
1C70
0860
00C0
0180
0300
0200
0400
0400
0000
0400
1C00
1C00
0800
ENDCHAR
STARTCHAR at
ENCODING 64
SWIDTH 958 0
DWIDTH 23 0
BBX 25 17 0 -3
BITMAP
001FC000
00707000
03803800
06000C00
0C1F0600
0C31C600
30C18600
31818600
31830600
31830C00
618F3800
30FBE000
30000000
18000000
1C000000
07060000
01F80000
ENDCHAR
STARTCHAR A
ENCODING 65
SWIDTH 708 0
DWIDTH 17 0
BBX 20 16 0 0
BITMAP
001800
003000
007800
005800
00CC00
011800
011800
030C00
020C00
041800
0FFC00
080C00
180600
200C00
200C00
F83F00
ENDCHAR
STARTCHAR B
ENCODING 66
SWIDTH 666 0
DWIDTH 16 0
BBX 18 16 0 0
BITMAP
0FFE00
060600
060300
060300
060300
0C0600
0C0C00
0FFC00
0C0E00
180C00
180600
180600
180600
301800
303800
FFE000
ENDCHAR
STARTCHAR C
ENCODING 67
SWIDTH 625 0
DWIDTH 15 0
BBX 17 16 0 0
BITMAP
007C80
038F00
060300
0C0100
0C0100
300000
300000
300000
300000
600000
600000
300000
300400
301800
1C6000
078000
ENDCHAR
STARTCHAR D
ENCODING 68
SWIDTH 708 0
DWIDTH 17 0
BBX 19 16 0 0
BITMAP
0FFC00
060E00
060300
060180
060180
0C0180
0C0180
0C0180
0C0180
180300
180300
180600
180600
301800
307000
FFC000
ENDCHAR
STARTCHAR E
ENCODING 69
SWIDTH 583 0
DWIDTH 14 0
BBX 16 16 0 0
BITMAP
0FFE
060C
0604
0600
0600
0C20
0C20
0FE0
0C20
1840
1800
1800
1800
3010
3030
FFE0
ENDCHAR
STARTCHAR F
ENCODING 70
SWIDTH 541 0
DWIDTH 13 0
BBX 15 16 0 0
BITMAP
0FFE
060C
0604
0600
0600
0C20
0C20
0FE0
0C20
1840
1800
1800
1800
3000
3000
FC00
ENDCHAR
STARTCHAR G
ENCODING 71
SWIDTH 708 0
DWIDTH 17 0
BBX 20 16 0 0
BITMAP
007C80
038700
060300
0C0100
0C0100
300000
300000
300000
300FC0
600600
600600
300600
300600
300800
1C3000
07C000
ENDCHAR
STARTCHAR H
ENCODING 72
SWIDTH 708 0
DWIDTH 17 0
BBX 19 16 0 0
BITMAP
0FC7E0
060300
060300
060300
060300
0C0600
0C0600
0FFE00
0C0600
180C00
180C00
180C00
180C00
301800
301800
FC7E00
ENDCHAR
STARTCHAR I
ENCODING 73
SWIDTH 333 0
DWIDTH 8 0
BBX 10 16 0 0
BITMAP
0FC0
0600
0600
0600
0600
0C00
0C00
0C00
0C00
1800
1800
1800
1800
3000
3000
FC00
ENDCHAR
STARTCHAR J
ENCODING 74
SWIDTH 416 0
DWIDTH 10 0
BBX 12 16 0 0
BITMAP
03F0
0180
0180
0180
0180
0300
0300
0300
0300
0600
0600
0600
0600
CC00
CC00
7800
ENDCHAR
STARTCHAR K
ENCODING 75
SWIDTH 708 0
DWIDTH 17 0
BBX 20 16 0 0
BITMAP
0FC7C0
060600
060C00
061800
063000
0CC000
0DC000
0FC000
0E6000
186000
186000
183000
181800
303000
301800
FC7F00
ENDCHAR
STARTCHAR L
ENCODING 76
SWIDTH 541 0
DWIDTH 13 0
BBX 16 16 0 0
BITMAP
0FE0
0600
0600
0600
0600
0C00
0C00
0C00
0C00
1800
1800
1800
1800
3010
3030
FFE0
ENDCHAR
STARTCHAR M
ENCODING 77
SWIDTH 875 0
DWIDTH 21 0
BBX 23 16 0 0
BITMAP
0F803E
070070
078070
0580F0
0580B0
098160
098360
08C260
08C260
118CC0
10C8C0
10D8C0
1070C0
20E180
20E180
F843E0
ENDCHAR
STARTCHAR N
ENCODING 78
SWIDTH 708 0
DWIDTH 17 0
BBX 19 16 0 0
BITMAP
0F03E0
060100
070100
078100
058100
098200
08C200
08C200
086200
106400
106400
103400
101C00
203800
201800
F80800
ENDCHAR
STARTCHAR O
ENCODING 79
SWIDTH 708 0
DWIDTH 17 0
BBX 19 16 0 0
BITMAP
007C00
038E00
060300
0C0180
0C0180
300180
300180
300180
300180
600300
600300
300600
300600
301800
1C7000
07C000
ENDCHAR
STARTCHAR P
ENCODING 80
SWIDTH 583 0
DWIDTH 14 0
BBX 16 16 0 0
BITMAP
0FF8
061C
060C
0606
0606
0C0C
0C18
0C38
0FE0
1800
1800
1800
1800
3000
3000
FC00
ENDCHAR
STARTCHAR Q
ENCODING 81
SWIDTH 708 0
DWIDTH 17 0
BBX 19 19 0 -3
BITMAP
007C00
01C700
030180
0600C0
0C0180
1800C0
1800C0
1800C0
300180
300180
300180
180300
300600
180C00
0E3800
03E000
03C000
01E000
007C00
ENDCHAR
STARTCHAR R
ENCODING 82
SWIDTH 666 0
DWIDTH 16 0
BBX 19 16 0 0
BITMAP
0FFC00
060E00
060600
060300
060300
0C0600
0C0C00
0C1C00
0FF000
186000
187000
183000
183800
303000
303800
FC1E00
ENDCHAR
STARTCHAR S
ENCODING 83
SWIDTH 541 0
DWIDTH 13 0
BBX 15 16 0 0
BITMAP
03F4
0C38
1818
1808
1C08
1C00
1F00
07C0
01F0
00E0
0070
4030
4030
C0C0
E1C0
BF00
ENDCHAR
STARTCHAR T
ENCODING 84
SWIDTH 666 0
DWIDTH 16 0
BBX 18 16 0 0
BITMAP
0FFFC0
186180
106080
106080
006000
00C000
00C000
00C000
00C000
018000
018000
018000
018000
030000
030000
0FC000
ENDCHAR
STARTCHAR U
ENCODING 85
SWIDTH 708 0
DWIDTH 17 0
BBX 19 16 0 0
BITMAP
0FC3E0
060100
060100
060100
060100
0C0200
0C0200
0C0200
0C0200
180400
180400
180400
180800
181000
1C3000
07C000
ENDCHAR
STARTCHAR V
ENCODING 86
SWIDTH 708 0
DWIDTH 17 0
BBX 21 16 -1 0
BITMAP
0FC1F8
0C01C0
060080
060080
030100
060200
030400
030400
018800
031000
019000
01A000
00E000
01C000
008000
008000
ENDCHAR
STARTCHAR W
ENCODING 87
SWIDTH 916 0
DWIDTH 22 0
BBX 26 16 -1 0
BITMAP
0F9FDFC0
0E0E0E00
06060400
06060400
060E0800
06161000
06161000
06161000
03232000
06464000
06464000
03838000
03838000
03070000
02020000
02020000
ENDCHAR
STARTCHAR X
ENCODING 88
SWIDTH 750 0
DWIDTH 18 0
BBX 20 16 0 0
BITMAP
0FE3E0
070100
030200
018200
00C400
00D800
006000
007000
00F000
013000
021800
021800
040C00
080C00
380C00
FE3F00
ENDCHAR
STARTCHAR Y
ENCODING 89
SWIDTH 750 0
DWIDTH 18 0
BBX 22 16 -1 0
BITMAP
0FE0FC
070060
0380C0
018080
01C180
01C600
00C400
00EC00
007800
006000
006000
006000
006000
00C000
00C000
03F000
ENDCHAR
STARTCHAR Z
ENCODING 90
SWIDTH 625 0
DWIDTH 15 0
BBX 17 16 0 0
BITMAP
07FF80
0C0E00
080C00
001C00
003800
006000
00E000
01C000
018000
070000
0E0000
0C0000
1C0000
700800
601800
FFF800
ENDCHAR
STARTCHAR bracketleft
ENCODING 91
SWIDTH 333 0
DWIDTH 8 0
BBX 10 22 0 -5
BITMAP
07C0
0700
0600
0C00
0C00
0C00
0C00
1800
1800
1800
1800
3000
3000
3000
3000
6000
6000
6000
6000
C000
E000
F800
ENDCHAR
STARTCHAR backslash
ENCODING 92
SWIDTH 291 0
DWIDTH 7 0
BBX 11 17 -1 0
BITMAP
0C00
0C00
1800
0C00
0C00
0C00
0C00
0C00
0C00
0600
0C00
0C00
0600
0600
0C00
0600
0600
ENDCHAR
STARTCHAR bracketright
ENCODING 93
SWIDTH 333 0
DWIDTH 8 0
BBX 10 22 -1 -5
BITMAP
07C0
01C0
00C0
0180
0180
0180
0180
0300
0300
0300
0300
0600
0600
0600
0600
0C00
0C00
0C00
0C00
1800
3800
F800
ENDCHAR
STARTCHAR asciicircum
ENCODING 94
SWIDTH 458 0
DWIDTH 11 0
BBX 10 5 3 12
BITMAP
0400
0E00
3E00
6300
C180
ENDCHAR
STARTCHAR underscore
ENCODING 95
SWIDTH 500 0
DWIDTH 12 0
BBX 12 2 -2 -4
BITMAP
FFF0
FFF0
ENDCHAR
STARTCHAR grave
ENCODING 96
SWIDTH 333 0
DWIDTH 8 0
BBX 4 3 4 14
BITMAP
C0
60
10
ENDCHAR
STARTCHAR a
ENCODING 97
SWIDTH 458 0
DWIDTH 11 0
BBX 12 11 0 0
BITMAP
0F80
18C0
18C0
00C0
0780
1D80
3180
6180
C740
EFC0
7980
ENDCHAR
STARTCHAR b
ENCODING 98
SWIDTH 458 0
DWIDTH 11 0
BBX 14 17 0 0
BITMAP
0200
0E00
0C00
0C00
0C00
0C00
1BC0
1C60
1830
1830
3060
3060
3060
3060
60C0
3180
1E00
ENDCHAR
STARTCHAR c
ENCODING 99
SWIDTH 416 0
DWIDTH 10 0
BBX 11 11 0 0
BITMAP
07C0
1860
1060
3000
6000
6000
6000
6000
6080
3180
1F00
ENDCHAR
STARTCHAR d
ENCODING 100
SWIDTH 458 0
DWIDTH 11 0
BBX 14 17 0 0
BITMAP
0008
0038
0030
0030
0030
0030
0F60
18E0
3060
3060
60C0
60C0
60C0
60C0
C180
63C0
3D00
ENDCHAR
STARTCHAR e
ENCODING 101
SWIDTH 416 0
DWIDTH 10 0
BBX 11 11 0 0
BITMAP
0F80
18C0
3060
3060
7FC0
6000
6000
6000
6180
7300
1E00
ENDCHAR
STARTCHAR f
ENCODING 102
SWIDTH 291 0
DWIDTH 7 0
BBX 10 17 0 0
BITMAP
0380
06C0
0D80
0C00
0C00
0C00
3E00
1800
1800
1800
3000
3000
3000
3000
6000
6000
F800
ENDCHAR
STARTCHAR g
ENCODING 103
SWIDTH 500 0
DWIDTH 12 0
BBX 16 17 -2 -6
BITMAP
01E0
0338
0C3C
0C30
0C30
0C30
0CC0
0F80
1800
1C00
1FC0
0870
3038
6018
C030
E060
7F80
ENDCHAR
STARTCHAR h
ENCODING 104
SWIDTH 458 0
DWIDTH 11 0
BBX 14 17 0 0
BITMAP
0200
0E00
0C00
0C00
0C00
0C00
19C0
1AE0
1C60
1860
30C0
30C0
30C0
30C0
6180
6180
F3C0
ENDCHAR
STARTCHAR i
ENCODING 105
SWIDTH 208 0
DWIDTH 5 0
BBX 8 17 0 0
BITMAP
06
06
00
00
00
00
08
38
18
18
30
30
30
30
60
60
F0
ENDCHAR
STARTCHAR j
ENCODING 106
SWIDTH 208 0
DWIDTH 5 0
BBX 10 22 -2 -5
BITMAP
0180
0180
0000
0000
0000
0000
0080
0700
0300
0300
0300
0600
0600
0600
0600
0C00
0C00
0C00
0C00
D800
D800
7000
ENDCHAR
STARTCHAR k
ENCODING 107
SWIDTH 500 0
DWIDTH 12 0
BBX 15 17 0 0
BITMAP
0200
0E00
0C00
0C00
0C00
0C00
19E0
1880
1900
1A00
3C00
3C00
3600
3300
6300
6180
F3E0
ENDCHAR
STARTCHAR l
ENCODING 108
SWIDTH 208 0
DWIDTH 5 0
BBX 8 17 0 0
BITMAP
02
0E
0C
0C
0C
0C
18
18
18
18
30
30
30
30
60
60
F0
ENDCHAR
STARTCHAR m
ENCODING 109
SWIDTH 708 0
DWIDTH 17 0
BBX 18 11 0 0
BITMAP
09C700
3AEB80
1C7180
186180
30C300
30C300
30C300
30C300
618600
618600
F3CF00
ENDCHAR
STARTCHAR n
ENCODING 110
SWIDTH 458 0
DWIDTH 11 0
BBX 12 11 0 0
BITMAP
09C0
3AE0
1C60
1860
30C0
30C0
30C0
30C0
6180
6180
F3C0
ENDCHAR
STARTCHAR o
ENCODING 111
SWIDTH 458 0
DWIDTH 11 0
BBX 12 11 0 0
BITMAP
0380
0CC0
1860
3030
6060
6060
6060
6060
6180
3300
1C00
ENDCHAR
STARTCHAR p
ENCODING 112
SWIDTH 458 0
DWIDTH 11 0
BBX 14 16 -1 -5
BITMAP
03F0
1E30
0C18
0C18
0C18
1830
1830
1830
1830
38C0
3700
3000
3000
6000
6000
F000
ENDCHAR
STARTCHAR q
ENCODING 113
SWIDTH 458 0
DWIDTH 11 0
BBX 14 16 -1 -5
BITMAP
03E8
0C70
1830
1830
1830
3060
3060
3060
3060
31C0
1EC0
00C0
00C0
0180
0180
03C0
ENDCHAR
STARTCHAR r
ENCODING 114
SWIDTH 333 0
DWIDTH 8 0
BBX 9 11 0 0
BITMAP
0B80
3D80
1800
1800
3000
3000
3000
3000
6000
6000
F000
ENDCHAR
STARTCHAR s
ENCODING 115
SWIDTH 375 0
DWIDTH 9 0
BBX 10 11 0 0
BITMAP
0F80
1980
3080
3800
3C00
0F00
0380
4180
C300
E600
9C00
ENDCHAR
STARTCHAR t
ENCODING 116
SWIDTH 291 0
DWIDTH 7 0
BBX 9 15 0 0
BITMAP
0400
0400
0C00
0C00
3E00
1800
1800
1800
3000
3000
3000
3000
6000
6C00
3800
ENDCHAR
STARTCHAR u
ENCODING 117
SWIDTH 458 0
DWIDTH 11 0
BBX 12 11 0 0
BITMAP
38E0
1860
1860
1860
30C0
30C0
30C0
30C0
6380
35C0
1900
ENDCHAR
STARTCHAR v
ENCODING 118
SWIDTH 458 0
DWIDTH 11 0
BBX 13 11 -1 0
BITMAP
3C38
1810
1810
0C20
1840
0C80
0C80
0700
0E00
0400
0400
ENDCHAR
STARTCHAR w
ENCODING 119
SWIDTH 708 0
DWIDTH 17 0
BBX 19 11 -1 0
BITMAP
3CF0E0
186040
186040
0C3080
186100
0CB200
0CB200
071C00
0E3800
041000
041000
ENDCHAR
STARTCHAR x
ENCODING 120
SWIDTH 500 0
DWIDTH 12 0
BBX 12 11 0 0
BITMAP
3CF0
1840
0C80
0F00
0E00
0600
0700
0B00
1300
6180
F3C0
ENDCHAR
STARTCHAR y
ENCODING 121
SWIDTH 541 0
DWIDTH 13 0
BBX 15 16 -1 -5
BITMAP
0F0E
0C08
0C08
0610
0620
0640
0640
0380
0380
0200
0200
0400
0800
1000
D000
E000
ENDCHAR
STARTCHAR z
ENCODING 122
SWIDTH 458 0
DWIDTH 11 0
BBX 11 11 0 0
BITMAP
1FE0
10C0
1180
0180
0600
0C00
0C00
1800
6080
6080
FF80
ENDCHAR
STARTCHAR braceleft
ENCODING 123
SWIDTH 416 0
DWIDTH 10 0
BBX 10 22 1 -5
BITMAP
0040
0180
0300
0600
0600
0600
0600
0C00
0C00
0C00
0C00
3000
1800
1800
1800
3000
3000
3000
3000
6000
2000
1000
ENDCHAR
STARTCHAR bar
ENCODING 124
SWIDTH 250 0
DWIDTH 6 0
BBX 6 17 1 0
BITMAP
0C
0C
18
18
18
18
30
30
30
30
60
60
60
60
C0
C0
C0
ENDCHAR
STARTCHAR braceright
ENCODING 125
SWIDTH 416 0
DWIDTH 10 0
BBX 9 22 1 -5
BITMAP
0400
0200
0300
0600
0600
0600
0600
0C00
0C00
0C00
0C00
0C00
1800
1800
1800
3000
3000
3000
3000
6000
4000
8000
ENDCHAR
STARTCHAR asciitilde
ENCODING 126
SWIDTH 500 0
DWIDTH 12 0
BBX 11 4 3 13
BITMAP
1C20
7CC0
CF80
8700
ENDCHAR
STARTCHAR bullet
ENCODING 149
SWIDTH 333 0
DWIDTH 8 0
BBX 8 7 1 2
BITMAP
1C
3E
7F
7F
FE
7C
38
ENDCHAR
STARTCHAR space
ENCODING 154
SWIDTH 250 0
DWIDTH 6 0
BBX 0 0 -1 0
BITMAP
ENDCHAR
STARTCHAR degree
ENCODING 156
SWIDTH 333 0
DWIDTH 8 0
BBX 7 6 3 12
BITMAP
18
3C
66
CC
78
30
ENDCHAR
STARTCHAR twosuperior
ENCODING 157
SWIDTH 250 0
DWIDTH 6 0
BBX 7 8 1 9
BITMAP
1C
6C
0C
0C
18
60
48
F8
ENDCHAR
STARTCHAR periodcentered
ENCODING 158
SWIDTH 333 0
DWIDTH 8 0
BBX 4 4 4 4
BITMAP
20
E0
E0
40
ENDCHAR
STARTCHAR afii10071
ENCODING 163
SWIDTH 375 0
DWIDTH 9 0
BBX 12 15 0 0
BITMAP
0440
0EE0
0440
0000
0F80
18C0
3060
3060
7FC0
6000
6000
6000
6180
7300
1E00
ENDCHAR
STARTCHAR afii10023
ENCODING 179
SWIDTH 541 0
DWIDTH 13 0
BBX 18 20 0 0
BITMAP
018600
079E00
030C00
000000
0FFF00
060600
060200
060000
060000
0C1000
0C1000
0FF000
0C1000
182000
180000
180000
180000
300800
301800
FFF000
ENDCHAR
STARTCHAR copyright
ENCODING 191
SWIDTH 750 0
DWIDTH 18 0
BBX 20 16 1 1
BITMAP
007E00
038700
060180
0C00C0
0C7CC0
3198C0
3308C0
3300C0
3300C0
661180
632180
31C300
300300
300C00
1C3800
07E000
ENDCHAR
STARTCHAR afii10096
ENCODING 192
SWIDTH 666 0
DWIDTH 16 0
BBX 17 11 0 0
BITMAP
3C3C00
186600
18C300
198180
330300
3F0300
330300
330300
630C00
619800
F0F000
ENDCHAR
STARTCHAR afii10065
ENCODING 193
SWIDTH 458 0
DWIDTH 11 0
BBX 12 11 0 0
BITMAP
0F80
18C0
18C0
00C0
0780
1D80
3180
6180
C740
EFC0
7980
ENDCHAR
STARTCHAR afii10066
ENCODING 194
SWIDTH 416 0
DWIDTH 10 0
BBX 13 16 0 0
BITMAP
0010
07E0
0C00
1800
1800
3F80
38C0
3060
3060
60C0
60C0
60C0
60C0
C180
6300
3C00
ENDCHAR
STARTCHAR afii10088
ENCODING 195
SWIDTH 541 0
DWIDTH 13 0
BBX 15 13 0 -2
BITMAP
1E3C
0C18
1830
1830
1830
1830
3060
3060
3060
3060
FFF0
0030
0010
ENDCHAR
STARTCHAR afii10069
ENCODING 196
SWIDTH 541 0
DWIDTH 13 0
BBX 15 13 0 -2
BITMAP
07FC
0218
0430
0430
0430
0430
0860
0860
0860
1060
FFF0
C030
8010
ENDCHAR
STARTCHAR afii10070
ENCODING 197
SWIDTH 416 0
DWIDTH 10 0
BBX 11 11 0 0
BITMAP
0F80
18C0
3060
3060
7FC0
6000
6000
6000
C180
6300
3E00
ENDCHAR
STARTCHAR afii10086
ENCODING 198
SWIDTH 541 0
DWIDTH 13 0
BBX 17 20 -1 -5
BITMAP
007800
006000
006000
006000
01F800
06D800
0CCC00
18C600
18C600
318C00
318C00
318C00
199800
1B6000
0FC000
030000
030000
060000
060000
0F0000
ENDCHAR
STARTCHAR afii10068
ENCODING 199
SWIDTH 375 0
DWIDTH 9 0
BBX 10 11 0 0
BITMAP
3FC0
1840
1840
1800
3000
3000
3000
3000
6000
6000
F000
ENDCHAR
STARTCHAR afii10087
ENCODING 200
SWIDTH 458 0
DWIDTH 11 0
BBX 12 11 0 0
BITMAP
3CF0
1840
0C80
0F00
0E00
0600
0700
0B00
1300
6180
F3C0
ENDCHAR
STARTCHAR afii10074
ENCODING 201
SWIDTH 500 0
DWIDTH 12 0
BBX 13 11 0 0
BITMAP
3C78
1870
18B0
1930
3260
3260
3460
3860
70C0
70C0
F1E0
ENDCHAR
STARTCHAR afii10075
ENCODING 202
SWIDTH 500 0
DWIDTH 12 0
BBX 14 14 0 0
BITMAP
0360
01C0
0000
3C78
1870
18B0
1930
3260
3260
3460
3860
70C0
70C0
F1E0
ENDCHAR
STARTCHAR afii10076
ENCODING 203
SWIDTH 500 0
DWIDTH 12 0
BBX 13 11 0 0
BITMAP
3C70
18B0
1880
1900
3E00
3C00
3600
3300
6300
6180
F3E0
ENDCHAR
STARTCHAR afii10077
ENCODING 204
SWIDTH 500 0
DWIDTH 12 0
BBX 13 11 0 0
BITMAP
0FF8
0430
0430
0430
0860
0860
0860
0860
10C0
D0C0
E1E0
ENDCHAR
STARTCHAR afii10078
ENCODING 205
SWIDTH 625 0
DWIDTH 15 0
BBX 16 11 0 0
BITMAP
380F
1C0E
1C16
1626
2C4C
264C
268C
238C
4718
4218
E03C
ENDCHAR
STARTCHAR afii10079
ENCODING 206
SWIDTH 500 0
DWIDTH 12 0
BBX 13 11 0 0
BITMAP
3C78
1830
1830
1830
3060
3FE0
3060
3060
60C0
60C0
F1E0
ENDCHAR
STARTCHAR afii10080
ENCODING 207
SWIDTH 458 0
DWIDTH 11 0
BBX 12 11 0 0
BITMAP
0FC0
1860
3030
3030
6060
6060
6060
6060
C0C0
6180
3F00
ENDCHAR
STARTCHAR afii10081
ENCODING 208
SWIDTH 500 0
DWIDTH 12 0
BBX 13 11 0 0
BITMAP
3FF8
1830
1830
1830
3060
3060
3060
3060
60C0
60C0
F1E0
ENDCHAR
STARTCHAR afii10097
ENCODING 209
SWIDTH 541 0
DWIDTH 13 0
BBX 14 11 0 0
BITMAP
07FC
0C18
0C18
0C18
1830
0FF0
0630
0C30
1860
3060
F0F0
ENDCHAR
STARTCHAR afii10082
ENCODING 210
SWIDTH 458 0
DWIDTH 11 0
BBX 14 16 -1 -5
BITMAP
0FF0
0C30
0C18
0C18
0C18
1830
1830
1830
1830
30C0
3F80
3000
3000
6000
6000
F000
ENDCHAR
STARTCHAR afii10083
ENCODING 211
SWIDTH 416 0
DWIDTH 10 0
BBX 11 11 0 0
BITMAP
0FC0
1860
3060
3000
6000
6000
6000
6000
C080
6180
3F00
ENDCHAR
STARTCHAR afii10084
ENCODING 212
SWIDTH 458 0
DWIDTH 11 0
BBX 12 11 0 0
BITMAP
3FF0
2310
0300
0300
0600
0600
0600
0600
0C00
0C00
1E00
ENDCHAR
STARTCHAR afii10085
ENCODING 213
SWIDTH 500 0
DWIDTH 12 0
BBX 15 16 -1 -5
BITMAP
0F0E
0C08
0C08
0610
0620
0640
0640
0380
0380
0200
0200
0400
0800
1000
D000
E000
ENDCHAR
STARTCHAR afii10072
ENCODING 214
SWIDTH 750 0
DWIDTH 18 0
BBX 20 11 -1 0
BITMAP
1C78E0
1A3160
023100
013200
016400
01F800
036C00
066600
18C600
30C300
F9E7C0
ENDCHAR
STARTCHAR afii10067
ENCODING 215
SWIDTH 416 0
DWIDTH 10 0
BBX 11 11 0 0
BITMAP
3F80
18C0
18C0
18C0
3180
3F00
3180
30C0
6180
6180
FF00
ENDCHAR
STARTCHAR afii10094
ENCODING 216
SWIDTH 416 0
DWIDTH 10 0
BBX 11 11 0 0
BITMAP
3C00
1800
1800
1800
3F80
30C0
30C0
30C0
6180
6180
FF00
ENDCHAR
STARTCHAR afii10093
ENCODING 217
SWIDTH 625 0
DWIDTH 15 0
BBX 16 11 0 0
BITMAP
3C0F
1806
1806
1806
3F8C
30CC
30CC
30CC
6198
6198
FF3C
ENDCHAR
STARTCHAR afii10073
ENCODING 218
SWIDTH 416 0
DWIDTH 10 0
BBX 11 11 0 0
BITMAP
2F80
30C0
2060
0060
0180
0F00
0180
00C0
8180
C300
BE00
ENDCHAR
STARTCHAR afii10090
ENCODING 219
SWIDTH 708 0
DWIDTH 17 0
BBX 18 11 0 0
BITMAP
3CF3C0
186180
186180
186180
30C300
30C300
30C300
30C300
618600
618600
FFFF00
ENDCHAR
STARTCHAR afii10095
ENCODING 220
SWIDTH 416 0
DWIDTH 10 0
BBX 11 11 0 0
BITMAP
1F80
30C0
2060
0060
00C0
1FC0
00C0
00C0
8180
C300
7E00
ENDCHAR
STARTCHAR afii10091
ENCODING 221
SWIDTH 750 0
DWIDTH 18 0
BBX 20 13 0 -2
BITMAP
1E79E0
0C30C0
186180
186180
186180
186180
30C300
30C300
30C300
30C300
FFFF80
000180
000080
ENDCHAR
STARTCHAR afii10089
ENCODING 222
SWIDTH 500 0
DWIDTH 12 0
BBX 13 11 0 0
BITMAP
3C78
1830
1830
1830
3060
3060
1FE0
0060
00C0
00C0
01E0
ENDCHAR
STARTCHAR afii10092
ENCODING 223
SWIDTH 541 0
DWIDTH 13 0
BBX 14 11 0 0
BITMAP
3F80
3300
2300
2300
07F0
0618
0618
0618
0C30
0C30
1FE0
ENDCHAR
STARTCHAR afii10048
ENCODING 224
SWIDTH 958 0
DWIDTH 23 0
BBX 25 16 0 0
BITMAP
0F01F000
0C0E3800
0C180C00
0C300600
0C300600
18C00600
18C00600
1FC00600
18C00600
31800C00
31800C00
30C01800
30C01800
60C06000
6071C000
F01F0000
ENDCHAR
STARTCHAR afii10017
ENCODING 225
SWIDTH 708 0
DWIDTH 17 0
BBX 20 16 0 0
BITMAP
001800
003000
007800
005800
00CC00
011800
011800
030C00
020C00
041800
0FFC00
080C00
180600
200C00
200C00
F83F00
ENDCHAR
STARTCHAR afii10018
ENCODING 226
SWIDTH 625 0
DWIDTH 15 0
BBX 17 16 0 0
BITMAP
0FFF00
0C0600
0C0200
0C0000
0C0000
180000
1FF000
181C00
180C00
300C00
300C00
300C00
300C00
603000
607000
FFC000
ENDCHAR
STARTCHAR afii10040
ENCODING 227
SWIDTH 666 0
DWIDTH 16 0
BBX 18 19 0 -3
BITMAP
0F0780
060300
060300
060300
0C0600
0C0600
0C0600
0C0600
180C00
180C00
180C00
180C00
301800
301800
301800
7FFE00
000C00
000400
000400
ENDCHAR
STARTCHAR afii10021
ENCODING 228
SWIDTH 708 0
DWIDTH 17 0
BBX 19 19 0 -3
BITMAP
03FFC0
010180
010180
010180
020300
020300
020300
020300
040600
040600
040600
040600
080C00
080C00
100C00
7FFF00
C00600
800200
800200
ENDCHAR
STARTCHAR afii10022
ENCODING 229
SWIDTH 583 0
DWIDTH 14 0
BBX 16 16 0 0
BITMAP
0FFE
0C0C
0C04
0C00
0C00
1800
1820
1FE0
1820
3000
3000
3000
3000
6010
6030
FFF0
ENDCHAR
STARTCHAR afii10038
ENCODING 230
SWIDTH 750 0
DWIDTH 18 0
BBX 20 18 0 -1
BITMAP
003C00
001800
007E00
03B700
063180
0C30C0
0C30C0
3060C0
3060C0
3060C0
3060C0
30C300
30C300
18C600
0EDC00
07E000
018000
03C000
ENDCHAR
STARTCHAR afii10020
ENCODING 231
SWIDTH 583 0
DWIDTH 14 0
BBX 16 16 0 0
BITMAP
0FFF
0C06
0C02
0C00
0C00
1800
1800
1800
1800
3000
3000
3000
3000
6000
6000
F000
ENDCHAR
STARTCHAR afii10039
ENCODING 232
SWIDTH 750 0
DWIDTH 18 0
BBX 20 16 0 0
BITMAP
0FE3F0
070180
030200
018200
00C400
00D800
006000
007000
00F000
013000
021800
021800
040C00
080C00
380C00
FE3F00
ENDCHAR
STARTCHAR afii10026
ENCODING 233
SWIDTH 625 0
DWIDTH 15 0
BBX 17 16 0 0
BITMAP
0F0780
0C0E00
0C0E00
0C1600
0C2600
184C00
184C00
188C00
190C00
321800
321800
341800
381800
703000
703000
F07800
ENDCHAR
STARTCHAR afii10027
ENCODING 234
SWIDTH 625 0
DWIDTH 15 0
BBX 18 20 0 0
BITMAP
008400
019800
00F000
000000
0F0780
0C0E00
0C0E00
0C1600
0C2600
184C00
184C00
188C00
190C00
321800
321800
341800
381800
703000
703000
F07800
ENDCHAR
STARTCHAR afii10028
ENCODING 235
SWIDTH 625 0
DWIDTH 15 0
BBX 18 16 0 0
BITMAP
0FC380
060F00
061000
061000
062000
0C4000
0F8000
0DC000
0CC000
18C000
18C000
186000
183000
306000
303000
FC7C00
ENDCHAR
STARTCHAR afii10029
ENCODING 236
SWIDTH 666 0
DWIDTH 16 0
BBX 18 16 0 0
BITMAP
01FFC0
010300
010300
010300
010300
020600
020600
020600
020600
040C00
040C00
040C00
040C00
E81800
E81800
707C00
ENDCHAR
STARTCHAR afii10030
ENCODING 237
SWIDTH 791 0
DWIDTH 19 0
BBX 21 16 0 0
BITMAP
0F0078
0E00E0
0F00E0
0B01E0
0B0160
1302C0
1306C0
1184C0
1184C0
231980
219180
21B180
20E180
41C300
41C300
E08780
ENDCHAR
STARTCHAR afii10031
ENCODING 238
SWIDTH 625 0
DWIDTH 15 0
BBX 17 16 0 0
BITMAP
0F0780
0C0600
0C0600
0C0600
0C0600
180C00
180C00
1FFC00
180C00
301800
301800
301800
301800
603000
603000
F07800
ENDCHAR
STARTCHAR afii10032
ENCODING 239
SWIDTH 708 0
DWIDTH 17 0
BBX 19 16 0 0
BITMAP
007C00
038E00
060300
0E0380
0C0180
380380
380380
380380
380380
700700
700700
300600
380E00
301800
1C7000
07C000
ENDCHAR
STARTCHAR afii10033
ENCODING 240
SWIDTH 625 0
DWIDTH 15 0
BBX 17 16 0 0
BITMAP
0FFF80
0C0600
0C0600
0C0600
0C0600
180C00
180C00
180C00
180C00
301800
301800
301800
301800
603000
603000
F07800
ENDCHAR
STARTCHAR afii10049
ENCODING 241
SWIDTH 666 0
DWIDTH 16 0
BBX 18 16 0 0
BITMAP
007FC0
038300
030300
060300
060300
0C0600
060600
070600
01FE00
00CC00
018C00
030C00
060C00
181800
301800
E03C00
ENDCHAR
STARTCHAR afii10034
ENCODING 242
SWIDTH 583 0
DWIDTH 14 0
BBX 16 16 0 0
BITMAP
0FF8
0C1C
0C0C
0C06
0C06
180C
180C
1818
1838
3FC0
3000
3000
3000
6000
6000
F000
ENDCHAR
STARTCHAR afii10035
ENCODING 243
SWIDTH 625 0
DWIDTH 15 0
BBX 17 16 0 0
BITMAP
007C80
038F00
060300
0E0100
0C0100
380000
300000
300000
300000
600000
700000
300000
380400
381800
1EE000
078000
ENDCHAR
STARTCHAR afii10036
ENCODING 244
SWIDTH 666 0
DWIDTH 16 0
BBX 18 16 0 0
BITMAP
0FFFC0
186180
106080
006000
006000
00C000
00C000
00C000
00C000
018000
018000
018000
018000
030000
030000
078000
ENDCHAR
STARTCHAR afii10037
ENCODING 245
SWIDTH 791 0
DWIDTH 19 0
BBX 22 16 0 0
BITMAP
0FC07C
070060
0380C0
018080
01C180
01C600
00C400
00EC00
007800
006000
006000
00C000
008000
030000
360000
1C0000
ENDCHAR
STARTCHAR afii10024
ENCODING 246
SWIDTH 958 0
DWIDTH 23 0
BBX 26 16 0 0
BITMAP
070FC380
0D060F00
00861000
00861000
00462000
008C4000
007F8000
00EDC000
00CCC000
0318C000
0318C000
06186000
0C183000
18306000
30303000
F8FC7C00
ENDCHAR
STARTCHAR afii10019
ENCODING 247
SWIDTH 625 0
DWIDTH 15 0
BBX 17 16 0 0
BITMAP
0FFC00
0C0C00
0C0600
0C0600
0C0600
180C00
181800
1FF800
181C00
301800
300C00
300C00
300C00
603000
607000
FFC000
ENDCHAR
STARTCHAR afii10046
ENCODING 248
SWIDTH 625 0
DWIDTH 15 0
BBX 17 16 0 0
BITMAP
0F0000
0C0000
0C0000
0C0000
0C0000
180000
1FF800
180C00
180600
300C00
300C00
300C00
300C00
601800
603000
FFE000
ENDCHAR
STARTCHAR afii10045
ENCODING 249
SWIDTH 833 0
DWIDTH 20 0
BBX 22 16 0 0
BITMAP
0F003C
0C0030
0C0030
0C0030
0C0030
180060
1FF860
180C60
180660
300CC0
300CC0
300CC0
300CC0
601980
603180
FFE3C0
ENDCHAR
STARTCHAR afii10025
ENCODING 250
SWIDTH 500 0
DWIDTH 12 0
BBX 14 16 0 0
BITMAP
0BE0
1C30
1018
0018
0018
0030
0060
03C0
0060
0060
0060
0060
0060
80C0
C180
BE00
ENDCHAR
STARTCHAR afii10042
ENCODING 251
SWIDTH 833 0
DWIDTH 20 0
BBX 22 16 0 0
BITMAP
0F1E3C
0C1830
0C1830
0C1830
0C1830
183060
183060
183060
183060
3060C0
3060C0
3060C0
3060C0
60C180
60C180
FFFFC0
ENDCHAR
STARTCHAR afii10047
ENCODING 252
SWIDTH 541 0
DWIDTH 13 0
BBX 15 16 0 0
BITMAP
0BF0
1C18
100C
000C
000C
0018
0418
07F8
0418
0030
0030
0030
0030
8060
C0C0
BF00
ENDCHAR
STARTCHAR afii10043
ENCODING 253
SWIDTH 875 0
DWIDTH 21 0
BBX 23 19 0 -3
BITMAP
0F1E3C
060C18
060C18
060C18
0C1830
0C1830
0C1830
0C1830
183060
183060
183060
183060
3060C0
3060C0
3060C0
7FFFF0
000060
000020
000020
ENDCHAR
STARTCHAR afii10041
ENCODING 254
SWIDTH 625 0
DWIDTH 15 0
BBX 17 16 0 0
BITMAP
0F0780
0C0600
0C0600
0C0600
0C0600
180C00
180C00
180C00
0FFC00
001800
001800
001800
001800
003000
003000
007800
ENDCHAR
STARTCHAR afii10044
ENCODING 255
SWIDTH 750 0
DWIDTH 18 0
BBX 20 16 0 0
BITMAP
0FE000
198000
118000
118000
018000
030000
03FF00
030180
0300C0
060180
060180
060180
060180
0C0300
0C0600
1FFC00
ENDCHAR
ENDFONT
