STARTFONT 2.1
COMMENT Copyright (C) 1990-1991 EWT Consulting
COMMENT Portions Copyright (C) 1994-1995 Cronyx Ltd.
COMMENT Changes Copyright (C) 1996-1997 by Andrey A. Chernov, Moscow, Russia.
COMMENT Modified by Serge Vakulenko, <vak@cronyx.ru>
COMMENT Changes 1999 by Serge Winitzki.
COMMENT This software may be used, modified, copied, distributed, and sold,
COMMENT in both source and binary form provided that the copyright
COMMENT and these terms are retained. Under no circumstances is the author
COMMENT responsible for the proper functioning of this software, nor does
COMMENT the author assume any responsibility for damages incurred with its use.
COMMENT $XFree86$
FONT -Cronyx-Times-Medium-I-Normal--14-100-100-100-P-54-KOI8-R
SIZE 10 96 96
FONTBOUNDINGBOX 16 15 -1 -3
STARTPROPERTIES 21
DEFAULT_CHAR 32
FONT_ASCENT 13
FONT_DESCENT 3
SPACING "P"
FONTNAME_REGISTRY ""
FOUNDRY "Cronyx"
FAMILY_NAME "Times"
WEIGHT_NAME "Medium"
SLANT "I"
SETWIDTH_NAME "Normal"
ADD_STYLE_NAME ""
AVERAGE_WIDTH 54
CHARSET_REGISTRY "KOI8"
CHARSET_ENCODING "R"
PIXEL_SIZE 14
POINT_SIZE 100
RESOLUTION_X 100
RESOLUTION_Y 100
COPYRIGHT "Copyright (C) 1990, 1991 EWT Consulting, Portions Copyright (C) 1994 Cronyx Ltd., Portions Copyright (C) 1996-1997 by Andrey A. Chernov, Moscow, Russia."
_XMBDFED_INFO "Edited with xmbdfed 4.3."
_XFREE86_GLYPH_RANGES "32_126 149 154 156_158 163 179 191_255"
ENDPROPERTIES
CHARS 167
STARTCHAR space
ENCODING 32
SWIDTH 225 0
DWIDTH 3 0
BBX 0 0 -1 0
BITMAP
ENDCHAR
STARTCHAR exclam
ENCODING 33
SWIDTH 225 0
DWIDTH 3 0
BBX 3 10 0 0
BITMAP
20
20
20
40
40
40
40
00
00
80
ENDCHAR
STARTCHAR quotedbl
ENCODING 34
SWIDTH 375 0
DWIDTH 5 0
BBX 3 3 1 7
BITMAP
A0
A0
A0
ENDCHAR
STARTCHAR numbersign
ENCODING 35
SWIDTH 525 0
DWIDTH 7 0
BBX 9 10 -1 0
BITMAP
0500
0500
0500
3F00
1400
1400
7E00
5000
5000
5000
ENDCHAR
STARTCHAR dollar
ENCODING 36
SWIDTH 450 0
DWIDTH 6 0
BBX 7 13 0 -2
BITMAP
04
04
18
24
24
20
30
08
08
50
60
40
40
ENDCHAR
STARTCHAR percent
ENCODING 37
SWIDTH 900 0
DWIDTH 12 0
BBX 12 10 0 0
BITMAP
1810
2420
2840
3180
0200
0400
08C0
3140
4240
8180
ENDCHAR
STARTCHAR ampersand
ENCODING 38
SWIDTH 750 0
DWIDTH 10 0
BBX 10 10 0 0
BITMAP
0800
1400
1400
2800
1380
2900
4600
8400
8A00
7100
ENDCHAR
STARTCHAR quotesingle
ENCODING 39
SWIDTH 225 0
DWIDTH 3 0
BBX 1 3 1 7
BITMAP
80
80
80
ENDCHAR
STARTCHAR parenleft
ENCODING 40
SWIDTH 300 0
DWIDTH 4 0
BBX 5 13 0 -3
BITMAP
08
10
20
20
20
20
40
40
40
40
80
40
40
ENDCHAR
STARTCHAR parenright
ENCODING 41
SWIDTH 300 0
DWIDTH 4 0
BBX 5 13 0 -3
BITMAP
10
10
10
10
10
10
20
20
20
20
40
80
80
ENDCHAR
STARTCHAR asterisk
ENCODING 42
SWIDTH 525 0
DWIDTH 7 0
BBX 6 5 1 5
BITMAP
10
54
78
A8
20
ENDCHAR
STARTCHAR plus
ENCODING 43
SWIDTH 525 0
DWIDTH 7 0
BBX 6 5 1 2
BITMAP
10
10
F8
20
20
ENDCHAR
STARTCHAR comma
ENCODING 44
SWIDTH 225 0
DWIDTH 3 0
BBX 2 3 -1 -2
BITMAP
40
40
80
ENDCHAR
STARTCHAR hyphen
ENCODING 45
SWIDTH 300 0
DWIDTH 4 0
BBX 4 1 0 4
BITMAP
F0
ENDCHAR
STARTCHAR period
ENCODING 46
SWIDTH 225 0
DWIDTH 3 0
BBX 1 1 0 0
BITMAP
80
ENDCHAR
STARTCHAR slash
ENCODING 47
SWIDTH 300 0
DWIDTH 4 0
BBX 7 12 -1 -2
BITMAP
02
04
04
08
08
10
20
20
40
80
80
80
ENDCHAR
STARTCHAR zero
ENCODING 48
SWIDTH 450 0
DWIDTH 6 0
BBX 6 10 0 0
BITMAP
18
24
24
48
48
48
48
90
90
60
ENDCHAR
STARTCHAR one
ENCODING 49
SWIDTH 450 0
DWIDTH 6 0
BBX 5 10 1 0
BITMAP
10
30
10
20
20
20
20
40
40
E0
ENDCHAR
STARTCHAR two
ENCODING 50
SWIDTH 450 0
DWIDTH 6 0
BBX 6 10 0 0
BITMAP
18
24
04
08
10
10
20
40
90
F0
ENDCHAR
STARTCHAR three
ENCODING 51
SWIDTH 450 0
DWIDTH 6 0
BBX 6 10 0 0
BITMAP
18
24
04
08
30
08
08
10
90
60
ENDCHAR
STARTCHAR four
ENCODING 52
SWIDTH 450 0
DWIDTH 6 0
BBX 6 10 0 0
BITMAP
04
0C
1C
28
28
48
78
10
10
10
ENDCHAR
STARTCHAR five
ENCODING 53
SWIDTH 450 0
DWIDTH 6 0
BBX 6 10 0 0
BITMAP
3C
20
20
40
70
08
08
10
90
60
ENDCHAR
STARTCHAR six
ENCODING 54
SWIDTH 450 0
DWIDTH 6 0
BBX 6 10 0 0
BITMAP
0C
10
20
40
70
48
48
90
90
60
ENDCHAR
STARTCHAR seven
ENCODING 55
SWIDTH 450 0
DWIDTH 6 0
BBX 6 10 0 0
BITMAP
3C
24
08
10
10
10
20
40
40
40
ENDCHAR
STARTCHAR eight
ENCODING 56
SWIDTH 450 0
DWIDTH 6 0
BBX 6 10 0 0
BITMAP
18
24
24
48
30
48
48
90
90
60
ENDCHAR
STARTCHAR nine
ENCODING 57
SWIDTH 450 0
DWIDTH 6 0
BBX 6 10 0 0
BITMAP
18
24
24
48
48
38
08
10
20
C0
ENDCHAR
STARTCHAR colon
ENCODING 58
SWIDTH 225 0
DWIDTH 3 0
BBX 2 6 0 0
BITMAP
40
00
00
00
00
80
ENDCHAR
STARTCHAR semicolon
ENCODING 59
SWIDTH 225 0
DWIDTH 3 0
BBX 4 8 -1 -2
BITMAP
10
00
00
00
00
40
40
80
ENDCHAR
STARTCHAR less
ENCODING 60
SWIDTH 450 0
DWIDTH 6 0
BBX 7 9 0 0
BITMAP
02
04
18
20
40
20
20
10
08
ENDCHAR
STARTCHAR equal
ENCODING 61
SWIDTH 525 0
DWIDTH 7 0
BBX 6 4 1 3
BITMAP
7C
00
00
F8
ENDCHAR
STARTCHAR greater
ENCODING 62
SWIDTH 450 0
DWIDTH 6 0
BBX 7 9 0 0
BITMAP
20
10
10
08
04
08
30
40
80
ENDCHAR
STARTCHAR question
ENCODING 63
SWIDTH 450 0
DWIDTH 6 0
BBX 6 10 0 0
BITMAP
18
24
04
08
10
20
20
00
00
40
ENDCHAR
STARTCHAR at
ENCODING 64
SWIDTH 900 0
DWIDTH 12 0
BBX 12 10 0 0
BITMAP
0FC0
1020
2390
4520
4920
4920
4920
8E40
4180
3800
ENDCHAR
STARTCHAR A
ENCODING 65
SWIDTH 675 0
DWIDTH 9 0
BBX 11 10 -1 0
BITMAP
0200
0200
0500
0A00
1100
1100
3F00
4100
4100
E380
ENDCHAR
STARTCHAR B
ENCODING 66
SWIDTH 675 0
DWIDTH 9 0
BBX 9 10 0 0
BITMAP
3F00
1080
1080
2100
3E00
2100
2100
4200
4200
FC00
ENDCHAR
STARTCHAR C
ENCODING 67
SWIDTH 750 0
DWIDTH 10 0
BBX 10 10 0 0
BITMAP
0F40
10C0
2040
4000
4000
4000
4000
8100
4200
3C00
ENDCHAR
STARTCHAR D
ENCODING 68
SWIDTH 750 0
DWIDTH 10 0
BBX 10 10 0 0
BITMAP
3E00
1180
1080
2080
2080
2080
2100
4200
4600
F800
ENDCHAR
STARTCHAR E
ENCODING 69
SWIDTH 600 0
DWIDTH 8 0
BBX 8 10 0 0
BITMAP
3F
11
10
24
3C
24
20
40
44
FC
ENDCHAR
STARTCHAR F
ENCODING 70
SWIDTH 600 0
DWIDTH 8 0
BBX 8 10 0 0
BITMAP
3F
11
10
24
3C
24
20
40
40
E0
ENDCHAR
STARTCHAR G
ENCODING 71
SWIDTH 750 0
DWIDTH 10 0
BBX 11 10 0 0
BITMAP
0F40
10C0
2040
4000
4000
41C0
4080
8100
4100
3E00
ENDCHAR
STARTCHAR H
ENCODING 72
SWIDTH 750 0
DWIDTH 10 0
BBX 10 10 0 0
BITMAP
39C0
1080
1080
2100
3F00
2100
2100
4200
4200
E700
ENDCHAR
STARTCHAR I
ENCODING 73
SWIDTH 375 0
DWIDTH 5 0
BBX 5 10 0 0
BITMAP
38
10
10
20
20
20
20
40
40
E0
ENDCHAR
STARTCHAR J
ENCODING 74
SWIDTH 525 0
DWIDTH 7 0
BBX 7 10 0 0
BITMAP
0E
04
04
08
08
08
08
10
90
E0
ENDCHAR
STARTCHAR K
ENCODING 75
SWIDTH 675 0
DWIDTH 9 0
BBX 10 10 0 0
BITMAP
3B80
1100
1200
2C00
3000
2800
2400
4400
4200
E700
ENDCHAR
STARTCHAR L
ENCODING 76
SWIDTH 675 0
DWIDTH 9 0
BBX 9 10 0 0
BITMAP
3800
1000
1000
2000
2000
2000
2000
4000
4200
FE00
ENDCHAR
STARTCHAR M
ENCODING 77
SWIDTH 825 0
DWIDTH 11 0
BBX 11 10 0 0
BITMAP
3060
18C0
18C0
3180
2A80
2A80
2C80
4900
4900
EB80
ENDCHAR
STARTCHAR N
ENCODING 78
SWIDTH 750 0
DWIDTH 10 0
BBX 10 10 0 0
BITMAP
31C0
1880
1880
2900
2900
2500
2500
4600
4600
E200
ENDCHAR
STARTCHAR O
ENCODING 79
SWIDTH 750 0
DWIDTH 10 0
BBX 10 10 0 0
BITMAP
0F00
1080
2040
4080
4080
4080
4080
8100
4200
3C00
ENDCHAR
STARTCHAR P
ENCODING 80
SWIDTH 600 0
DWIDTH 8 0
BBX 8 10 0 0
BITMAP
3E
11
11
22
22
3C
20
40
40
E0
ENDCHAR
STARTCHAR Q
ENCODING 81
SWIDTH 750 0
DWIDTH 10 0
BBX 11 12 0 -2
BITMAP
0780
1880
2040
2040
2040
4080
4080
4080
2100
3E00
0C00
0600
ENDCHAR
STARTCHAR R
ENCODING 82
SWIDTH 750 0
DWIDTH 10 0
BBX 10 10 0 0
BITMAP
3E00
1100
1100
2200
2200
3C00
2400
4400
4200
E300
ENDCHAR
STARTCHAR S
ENCODING 83
SWIDTH 525 0
DWIDTH 7 0
BBX 7 10 0 0
BITMAP
1A
26
22
40
30
08
04
88
C8
B0
ENDCHAR
STARTCHAR T
ENCODING 84
SWIDTH 825 0
DWIDTH 11 0
BBX 11 10 0 0
BITMAP
3FE0
2220
0200
0400
0400
0400
0400
0800
0800
1C00
ENDCHAR
STARTCHAR U
ENCODING 85
SWIDTH 750 0
DWIDTH 10 0
BBX 10 10 0 0
BITMAP
39C0
1080
1080
2100
2100
2100
2100
4200
4200
3C00
ENDCHAR
STARTCHAR V
ENCODING 86
SWIDTH 675 0
DWIDTH 9 0
BBX 11 10 -1 0
BITMAP
38E0
1040
1080
1100
1100
0A00
0A00
1400
0800
0800
ENDCHAR
STARTCHAR W
ENCODING 87
SWIDTH 975 0
DWIDTH 13 0
BBX 15 10 -1 0
BITMAP
3B6E
1144
1188
1110
1110
0AA0
0AA0
1540
0880
0880
ENDCHAR
STARTCHAR X
ENCODING 88
SWIDTH 750 0
DWIDTH 10 0
BBX 12 10 -1 0
BITMAP
3870
1020
0840
0980
0600
0600
0900
3100
4080
E1C0
ENDCHAR
STARTCHAR Y
ENCODING 89
SWIDTH 675 0
DWIDTH 9 0
BBX 11 10 -1 0
BITMAP
38E0
1040
0880
1100
0A00
0400
0400
0800
0800
1C00
ENDCHAR
STARTCHAR Z
ENCODING 90
SWIDTH 600 0
DWIDTH 8 0
BBX 10 10 -1 0
BITMAP
3FC0
2080
0100
0200
0400
0800
1000
2000
4100
FF00
ENDCHAR
STARTCHAR bracketleft
ENCODING 91
SWIDTH 300 0
DWIDTH 4 0
BBX 5 13 0 -3
BITMAP
18
10
20
20
20
20
40
40
40
40
80
80
C0
ENDCHAR
STARTCHAR backslash
ENCODING 92
SWIDTH 300 0
DWIDTH 4 0
BBX 7 12 -1 -2
BITMAP
10
20
20
10
10
20
10
10
10
10
10
10
ENDCHAR
STARTCHAR bracketright
ENCODING 93
SWIDTH 300 0
DWIDTH 4 0
BBX 5 13 0 -3
BITMAP
18
08
10
10
10
10
20
20
20
20
40
40
C0
ENDCHAR
STARTCHAR asciicircum
ENCODING 94
SWIDTH 525 0
DWIDTH 7 0
BBX 5 3 2 8
BITMAP
20
50
88
ENDCHAR
STARTCHAR underscore
ENCODING 95
SWIDTH 450 0
DWIDTH 6 0
BBX 6 1 -1 -3
BITMAP
FC
ENDCHAR
STARTCHAR grave
ENCODING 96
SWIDTH 300 0
DWIDTH 4 0
BBX 3 3 1 8
BITMAP
80
40
20
ENDCHAR
STARTCHAR a
ENCODING 97
SWIDTH 450 0
DWIDTH 6 0
BBX 6 7 0 0
BITMAP
30
48
38
48
90
90
68
ENDCHAR
STARTCHAR b
ENCODING 98
SWIDTH 525 0
DWIDTH 7 0
BBX 8 10 0 0
BITMAP
30
10
10
2C
32
22
22
44
44
38
ENDCHAR
STARTCHAR c
ENCODING 99
SWIDTH 450 0
DWIDTH 6 0
BBX 6 7 0 0
BITMAP
38
44
40
40
80
88
70
ENDCHAR
STARTCHAR d
ENCODING 100
SWIDTH 450 0
DWIDTH 6 0
BBX 7 10 0 0
BITMAP
06
02
02
3C
44
44
44
88
88
78
ENDCHAR
STARTCHAR e
ENCODING 101
SWIDTH 450 0
DWIDTH 6 0
BBX 6 7 0 0
BITMAP
38
44
44
7C
80
88
70
ENDCHAR
STARTCHAR f
ENCODING 102
SWIDTH 375 0
DWIDTH 5 0
BBX 6 10 0 0
BITMAP
0C
10
10
70
20
20
20
40
40
E0
ENDCHAR
STARTCHAR g
ENCODING 103
SWIDTH 525 0
DWIDTH 7 0
BBX 8 10 0 -3
BITMAP
1F
22
22
44
38
40
7C
84
84
78
ENDCHAR
STARTCHAR h
ENCODING 104
SWIDTH 525 0
DWIDTH 7 0
BBX 9 10 -1 0
BITMAP
3000
1000
1000
2C00
3200
2200
2200
4400
4400
E600
ENDCHAR
STARTCHAR i
ENCODING 105
SWIDTH 300 0
DWIDTH 4 0
BBX 5 10 0 0
BITMAP
10
00
00
60
20
20
20
40
40
E0
ENDCHAR
STARTCHAR j
ENCODING 106
SWIDTH 300 0
DWIDTH 4 0
BBX 5 13 0 -3
BITMAP
08
00
00
30
10
10
20
20
20
20
40
40
80
ENDCHAR
STARTCHAR k
ENCODING 107
SWIDTH 525 0
DWIDTH 7 0
BBX 9 10 -1 0
BITMAP
3000
1000
1000
2600
2400
2800
3800
4800
4400
E600
ENDCHAR
STARTCHAR l
ENCODING 108
SWIDTH 225 0
DWIDTH 3 0
BBX 5 10 -1 0
BITMAP
30
10
10
20
20
20
20
40
40
E0
ENDCHAR
STARTCHAR m
ENCODING 109
SWIDTH 675 0
DWIDTH 9 0
BBX 10 7 -1 0
BITMAP
6900
3680
2480
2480
4900
4900
ED80
ENDCHAR
STARTCHAR n
ENCODING 110
SWIDTH 525 0
DWIDTH 7 0
BBX 8 7 -1 0
BITMAP
6C
32
22
22
44
44
E6
ENDCHAR
STARTCHAR o
ENCODING 111
SWIDTH 450 0
DWIDTH 6 0
BBX 6 7 0 0
BITMAP
38
44
44
44
88
88
70
ENDCHAR
STARTCHAR p
ENCODING 112
SWIDTH 525 0
DWIDTH 7 0
BBX 8 10 0 -3
BITMAP
36
19
11
22
22
22
3C
40
40
E0
ENDCHAR
STARTCHAR q
ENCODING 113
SWIDTH 525 0
DWIDTH 7 0
BBX 8 10 0 -3
BITMAP
1E
22
22
44
44
44
3C
08
08
1C
ENDCHAR
STARTCHAR r
ENCODING 114
SWIDTH 450 0
DWIDTH 6 0
BBX 6 7 0 0
BITMAP
6C
30
20
20
40
40
E0
ENDCHAR
STARTCHAR s
ENCODING 115
SWIDTH 375 0
DWIDTH 5 0
BBX 5 7 0 0
BITMAP
38
48
40
30
10
90
E0
ENDCHAR
STARTCHAR t
ENCODING 116
SWIDTH 375 0
DWIDTH 5 0
BBX 6 9 0 0
BITMAP
10
10
70
20
20
20
40
50
20
ENDCHAR
STARTCHAR u
ENCODING 117
SWIDTH 525 0
DWIDTH 7 0
BBX 8 7 -1 0
BITMAP
66
22
22
22
44
4C
36
ENDCHAR
STARTCHAR v
ENCODING 118
SWIDTH 525 0
DWIDTH 7 0
BBX 8 7 -1 0
BITMAP
77
22
22
14
28
10
10
ENDCHAR
STARTCHAR w
ENCODING 119
SWIDTH 825 0
DWIDTH 11 0
BBX 12 7 -1 0
BITMAP
7770
2220
2220
1540
2A80
1100
1100
ENDCHAR
STARTCHAR x
ENCODING 120
SWIDTH 525 0
DWIDTH 7 0
BBX 8 7 -1 0
BITMAP
77
22
14
10
28
44
EE
ENDCHAR
STARTCHAR y
ENCODING 121
SWIDTH 525 0
DWIDTH 7 0
BBX 9 10 -1 -3
BITMAP
3B80
1100
1200
1400
1400
0800
1000
2000
A000
C000
ENDCHAR
STARTCHAR z
ENCODING 122
SWIDTH 450 0
DWIDTH 6 0
BBX 6 7 0 0
BITMAP
7C
44
08
10
60
88
F8
ENDCHAR
STARTCHAR braceleft
ENCODING 123
SWIDTH 375 0
DWIDTH 5 0
BBX 6 13 0 -3
BITMAP
04
08
10
10
10
20
40
20
20
20
40
40
20
ENDCHAR
STARTCHAR bar
ENCODING 124
SWIDTH 225 0
DWIDTH 3 0
BBX 4 13 0 -3
BITMAP
10
10
20
20
20
20
40
40
40
40
80
80
80
ENDCHAR
STARTCHAR braceright
ENCODING 125
SWIDTH 375 0
DWIDTH 5 0
BBX 6 13 0 -3
BITMAP
10
08
10
10
10
10
10
20
20
20
40
40
80
ENDCHAR
STARTCHAR asciitilde
ENCODING 126
SWIDTH 600 0
DWIDTH 8 0
BBX 6 2 2 8
BITMAP
64
98
ENDCHAR
STARTCHAR bullet
ENCODING 149
SWIDTH 375 0
DWIDTH 5 0
BBX 5 5 1 1
BITMAP
30
78
F0
F0
60
ENDCHAR
STARTCHAR space
ENCODING 154
SWIDTH 225 0
DWIDTH 3 0
BBX 0 0 -1 0
BITMAP
ENDCHAR
STARTCHAR degree
ENCODING 156
SWIDTH 300 0
DWIDTH 4 0
BBX 3 3 1 7
BITMAP
40
A0
40
ENDCHAR
STARTCHAR twosuperior
ENCODING 157
SWIDTH 225 0
DWIDTH 3 0
BBX 4 6 0 4
BITMAP
20
50
20
40
80
E0
ENDCHAR
STARTCHAR periodcentered
ENCODING 158
SWIDTH 375 0
DWIDTH 5 0
BBX 2 2 2 3
BITMAP
C0
C0
ENDCHAR
STARTCHAR afii10071
ENCODING 163
SWIDTH 375 0
DWIDTH 5 0
BBX 7 9 0 0
BITMAP
36
00
38
44
44
7C
80
88
70
ENDCHAR
STARTCHAR afii10023
ENCODING 179
SWIDTH 450 0
DWIDTH 6 0
BBX 9 12 0 0
BITMAP
0D80
0000
3F00
1100
1000
2400
3C00
2400
2000
4000
4400
FC00
ENDCHAR
STARTCHAR copyright
ENCODING 191
SWIDTH 825 0
DWIDTH 11 0
BBX 11 10 0 0
BITMAP
0F80
1040
2720
4940
5040
5040
5140
9E80
4100
3E00
ENDCHAR
STARTCHAR afii10096
ENCODING 192
SWIDTH 750 0
DWIDTH 10 0
BBX 10 7 0 0
BITMAP
7380
2440
2440
3C40
4880
4880
E700
ENDCHAR
STARTCHAR afii10065
ENCODING 193
SWIDTH 525 0
DWIDTH 7 0
BBX 7 7 0 0
BITMAP
38
04
3C
44
88
88
74
ENDCHAR
STARTCHAR afii10066
ENCODING 194
SWIDTH 450 0
DWIDTH 6 0
BBX 7 10 0 0
BITMAP
02
1C
20
58
64
44
44
88
88
70
ENDCHAR
STARTCHAR afii10088
ENCODING 195
SWIDTH 600 0
DWIDTH 8 0
BBX 9 9 0 -2
BITMAP
3B80
1100
2200
2200
2200
2200
FE00
0200
0200
ENDCHAR
STARTCHAR afii10069
ENCODING 196
SWIDTH 600 0
DWIDTH 8 0
BBX 9 8 0 -1
BITMAP
1F80
1200
1200
1200
2200
4400
FE00
8200
ENDCHAR
STARTCHAR afii10070
ENCODING 197
SWIDTH 450 0
DWIDTH 6 0
BBX 6 7 0 0
BITMAP
38
44
44
7C
80
88
70
ENDCHAR
STARTCHAR afii10086
ENCODING 198
SWIDTH 600 0
DWIDTH 8 0
BBX 10 12 0 -3
BITMAP
0700
0400
1F00
2480
2480
4900
4900
4900
3E00
1000
1000
3800
ENDCHAR
STARTCHAR afii10068
ENCODING 199
SWIDTH 525 0
DWIDTH 7 0
BBX 7 7 0 0
BITMAP
7E
22
20
20
40
40
E0
ENDCHAR
STARTCHAR afii10087
ENCODING 200
SWIDTH 600 0
DWIDTH 8 0
BBX 8 7 0 0
BITMAP
77
22
14
10
28
44
EE
ENDCHAR
STARTCHAR afii10074
ENCODING 201
SWIDTH 600 0
DWIDTH 8 0
BBX 8 7 0 0
BITMAP
77
22
26
2A
74
44
EE
ENDCHAR
STARTCHAR afii10075
ENCODING 202
SWIDTH 600 0
DWIDTH 8 0
BBX 9 9 0 0
BITMAP
0A00
0800
7700
2200
2600
2A00
7400
4400
EE00
ENDCHAR
STARTCHAR afii10076
ENCODING 203
SWIDTH 525 0
DWIDTH 7 0
BBX 7 7 0 0
BITMAP
76
24
28
38
48
48
EC
ENDCHAR
STARTCHAR afii10077
ENCODING 204
SWIDTH 600 0
DWIDTH 8 0
BBX 8 7 0 0
BITMAP
3F
12
12
12
24
24
CE
ENDCHAR
STARTCHAR afii10078
ENCODING 205
SWIDTH 750 0
DWIDTH 10 0
BBX 10 7 0 0
BITMAP
60C0
3180
3180
2A80
5500
4900
E980
ENDCHAR
STARTCHAR afii10079
ENCODING 206
SWIDTH 600 0
DWIDTH 8 0
BBX 8 7 0 0
BITMAP
77
22
22
3E
44
44
EE
ENDCHAR
STARTCHAR afii10080
ENCODING 207
SWIDTH 450 0
DWIDTH 6 0
BBX 6 7 0 0
BITMAP
38
44
44
44
88
88
70
ENDCHAR
STARTCHAR afii10081
ENCODING 208
SWIDTH 600 0
DWIDTH 8 0
BBX 8 7 0 0
BITMAP
7F
22
22
22
44
44
EE
ENDCHAR
STARTCHAR afii10097
ENCODING 209
SWIDTH 600 0
DWIDTH 8 0
BBX 8 7 0 0
BITMAP
1F
22
22
1E
24
44
CE
ENDCHAR
STARTCHAR afii10082
ENCODING 210
SWIDTH 525 0
DWIDTH 7 0
BBX 8 10 0 -3
BITMAP
3E
11
11
22
22
22
3C
40
40
E0
ENDCHAR
STARTCHAR afii10083
ENCODING 211
SWIDTH 450 0
DWIDTH 6 0
BBX 6 7 0 0
BITMAP
38
44
40
40
80
88
70
ENDCHAR
STARTCHAR afii10084
ENCODING 212
SWIDTH 450 0
DWIDTH 6 0
BBX 6 7 0 0
BITMAP
7C
54
10
10
20
20
70
ENDCHAR
STARTCHAR afii10085
ENCODING 213
SWIDTH 600 0
DWIDTH 8 0
BBX 9 10 0 -3
BITMAP
3B80
1100
1200
1400
1400
0800
1000
2000
A000
C000
ENDCHAR
STARTCHAR afii10072
ENCODING 214
SWIDTH 750 0
DWIDTH 10 0
BBX 10 7 0 0
BITMAP
6EC0
2480
1500
3F00
4900
4900
DD80
ENDCHAR
STARTCHAR afii10067
ENCODING 215
SWIDTH 525 0
DWIDTH 7 0
BBX 7 7 0 0
BITMAP
7C
22
22
3C
44
44
F8
ENDCHAR
STARTCHAR afii10094
ENCODING 216
SWIDTH 525 0
DWIDTH 7 0
BBX 7 7 0 0
BITMAP
70
20
3C
22
44
44
F8
ENDCHAR
STARTCHAR afii10093
ENCODING 217
SWIDTH 750 0
DWIDTH 10 0
BBX 10 7 0 0
BITMAP
71C0
2080
3C80
2280
4500
4500
FB80
ENDCHAR
STARTCHAR afii10073
ENCODING 218
SWIDTH 450 0
DWIDTH 6 0
BBX 6 7 0 0
BITMAP
38
44
04
18
08
88
70
ENDCHAR
STARTCHAR afii10090
ENCODING 219
SWIDTH 900 0
DWIDTH 12 0
BBX 12 7 0 0
BITMAP
7770
2220
2220
2220
4440
4440
FFE0
ENDCHAR
STARTCHAR afii10095
ENCODING 220
SWIDTH 450 0
DWIDTH 6 0
BBX 6 7 0 0
BITMAP
38
44
04
3C
08
88
70
ENDCHAR
STARTCHAR afii10091
ENCODING 221
SWIDTH 900 0
DWIDTH 12 0
BBX 13 9 0 -2
BITMAP
3BB8
1110
2220
2220
2220
2220
FFE0
0020
0020
ENDCHAR
STARTCHAR afii10089
ENCODING 222
SWIDTH 600 0
DWIDTH 8 0
BBX 8 7 0 0
BITMAP
77
22
22
1E
04
04
0E
ENDCHAR
STARTCHAR afii10092
ENCODING 223
SWIDTH 600 0
DWIDTH 8 0
BBX 8 7 0 0
BITMAP
78
50
5E
11
22
22
7C
ENDCHAR
STARTCHAR afii10048
ENCODING 224
SWIDTH 975 0
DWIDTH 13 0
BBX 14 10 0 0
BITMAP
38F0
1108
1204
2408
3C08
2408
2408
4810
4420
E3C0
ENDCHAR
STARTCHAR afii10017
ENCODING 225
SWIDTH 675 0
DWIDTH 9 0
BBX 11 10 -1 0
BITMAP
0200
0200
0500
0A00
1100
1100
3F00
4100
4100
E380
ENDCHAR
STARTCHAR afii10018
ENCODING 226
SWIDTH 600 0
DWIDTH 8 0
BBX 9 10 0 0
BITMAP
3F80
1080
1000
2000
3E00
2100
2100
4200
4200
FC00
ENDCHAR
STARTCHAR afii10040
ENCODING 227
SWIDTH 675 0
DWIDTH 9 0
BBX 11 12 0 -2
BITMAP
1CE0
1080
1080
1080
1080
2100
2100
2100
2100
FF00
0100
0100
ENDCHAR
STARTCHAR afii10021
ENCODING 228
SWIDTH 675 0
DWIDTH 9 0
BBX 11 12 0 -2
BITMAP
0FE0
0880
0880
0880
0880
1100
1100
1100
2100
FF00
8100
8100
ENDCHAR
STARTCHAR afii10022
ENCODING 229
SWIDTH 525 0
DWIDTH 7 0
BBX 8 10 0 0
BITMAP
3F
11
10
24
3C
24
20
40
44
FC
ENDCHAR
STARTCHAR afii10038
ENCODING 230
SWIDTH 750 0
DWIDTH 10 0
BBX 11 11 0 0
BITMAP
0700
0200
0F80
1240
2440
4440
4440
2480
3F00
0800
1C00
ENDCHAR
STARTCHAR afii10020
ENCODING 231
SWIDTH 600 0
DWIDTH 8 0
BBX 9 10 0 0
BITMAP
3F80
1080
1000
2000
2000
2000
2000
4000
4000
E000
ENDCHAR
STARTCHAR afii10039
ENCODING 232
SWIDTH 825 0
DWIDTH 11 0
BBX 12 10 0 0
BITMAP
3870
1020
0840
0980
0600
0600
0900
3100
4080
E1C0
ENDCHAR
STARTCHAR afii10026
ENCODING 233
SWIDTH 675 0
DWIDTH 9 0
BBX 10 10 0 0
BITMAP
39C0
1080
1180
2300
2500
2900
3100
6200
4200
E700
ENDCHAR
STARTCHAR afii10027
ENCODING 234
SWIDTH 675 0
DWIDTH 9 0
BBX 11 12 0 0
BITMAP
0480
0700
39C0
1080
1180
2300
2500
2900
3100
6200
4200
E700
ENDCHAR
STARTCHAR afii10028
ENCODING 235
SWIDTH 600 0
DWIDTH 8 0
BBX 9 10 0 0
BITMAP
3B80
1100
1200
2400
3800
2400
2400
4400
4400
EE00
ENDCHAR
STARTCHAR afii10029
ENCODING 236
SWIDTH 675 0
DWIDTH 9 0
BBX 10 10 0 0
BITMAP
1FC0
0880
0880
1100
1100
1100
1100
2200
2200
C700
ENDCHAR
STARTCHAR afii10030
ENCODING 237
SWIDTH 750 0
DWIDTH 10 0
BBX 11 10 0 0
BITMAP
3060
18C0
18C0
3180
2A80
2A80
2C80
4900
4900
EB80
ENDCHAR
STARTCHAR afii10031
ENCODING 238
SWIDTH 675 0
DWIDTH 9 0
BBX 10 10 0 0
BITMAP
39C0
1080
1080
2100
3F00
2100
2100
4200
4200
E700
ENDCHAR
STARTCHAR afii10032
ENCODING 239
SWIDTH 675 0
DWIDTH 9 0
BBX 10 10 0 0
BITMAP
0F00
1080
2040
4080
4080
4080
4080
8100
4200
3C00
ENDCHAR
STARTCHAR afii10033
ENCODING 240
SWIDTH 675 0
DWIDTH 9 0
BBX 10 10 0 0
BITMAP
3FC0
1080
1080
2100
2100
2100
2100
4200
4200
E700
ENDCHAR
STARTCHAR afii10049
ENCODING 241
SWIDTH 750 0
DWIDTH 10 0
BBX 10 10 1 0
BITMAP
0FC0
1080
1080
2100
2100
1F00
1100
2200
4200
C700
ENDCHAR
STARTCHAR afii10034
ENCODING 242
SWIDTH 600 0
DWIDTH 8 0
BBX 9 10 0 0
BITMAP
3F00
1080
1080
2100
2100
3E00
2000
4000
4000
E000
ENDCHAR
STARTCHAR afii10035
ENCODING 243
SWIDTH 675 0
DWIDTH 9 0
BBX 10 10 0 0
BITMAP
0F40
10C0
2040
4000
4000
4000
4000
8100
4200
3C00
ENDCHAR
STARTCHAR afii10036
ENCODING 244
SWIDTH 750 0
DWIDTH 10 0
BBX 11 10 0 0
BITMAP
3FE0
2220
0200
0400
0400
0400
0400
0800
0800
1C00
ENDCHAR
STARTCHAR afii10037
ENCODING 245
SWIDTH 825 0
DWIDTH 11 0
BBX 12 10 0 0
BITMAP
3870
1020
0840
0880
0900
0500
0200
0400
4800
7000
ENDCHAR
STARTCHAR afii10024
ENCODING 246
SWIDTH 900 0
DWIDTH 12 0
BBX 13 10 0 0
BITMAP
3BB8
1110
0920
1240
0F80
1240
2240
4440
4440
EEE0
ENDCHAR
STARTCHAR afii10019
ENCODING 247
SWIDTH 600 0
DWIDTH 8 0
BBX 9 10 0 0
BITMAP
3F00
1080
1080
2100
3E00
2100
2100
4200
4200
FC00
ENDCHAR
STARTCHAR afii10046
ENCODING 248
SWIDTH 600 0
DWIDTH 8 0
BBX 9 10 0 0
BITMAP
3800
1000
1000
2000
3E00
2100
2100
4200
4200
FC00
ENDCHAR
STARTCHAR afii10045
ENCODING 249
SWIDTH 825 0
DWIDTH 11 0
BBX 12 10 0 0
BITMAP
3870
1020
1020
2040
3E40
2140
2140
4280
4280
FDC0
ENDCHAR
STARTCHAR afii10025
ENCODING 250
SWIDTH 525 0
DWIDTH 7 0
BBX 8 10 0 0
BITMAP
1E
21
21
02
1C
02
02
84
84
78
ENDCHAR
STARTCHAR afii10042
ENCODING 251
SWIDTH 900 0
DWIDTH 12 0
BBX 13 10 0 0
BITMAP
3BB8
1110
1110
2220
2220
2220
2220
4440
4440
FFE0
ENDCHAR
STARTCHAR afii10047
ENCODING 252
SWIDTH 600 0
DWIDTH 8 0
BBX 9 10 0 0
BITMAP
1F00
2080
2080
0100
1F00
0100
0100
8200
8200
7C00
ENDCHAR
STARTCHAR afii10043
ENCODING 253
SWIDTH 900 0
DWIDTH 12 0
BBX 14 12 0 -2
BITMAP
1DDC
1110
1110
1110
1110
2220
2220
2220
2220
FFE0
0020
0020
ENDCHAR
STARTCHAR afii10041
ENCODING 254
SWIDTH 675 0
DWIDTH 9 0
BBX 10 10 0 0
BITMAP
39C0
1080
1080
2100
2100
1F00
0100
0200
0200
0700
ENDCHAR
STARTCHAR afii10044
ENCODING 255
SWIDTH 750 0
DWIDTH 10 0
BBX 11 10 0 0
BITMAP
3E00
2400
2400
0800
0F80
0840
0840
1080
1080
3F00
ENDCHAR
ENDFONT
