STARTFONT 2.1
COMMENT Copyright (C) 1990-1991 EWT Consulting
COMMENT Portions Copyright (C) 1994-1995 Cronyx Ltd.
COMMENT Changes Copyright (C) 1996-1997 by Andrey A. Chernov, Moscow, Russia.
COMMENT Modified by Serge Vakulenko, <vak@cronyx.ru>
COMMENT Changes 1999 by Serge Winitzki.
COMMENT This software may be used, modified, copied, distributed, and sold,
COMMENT in both source and binary form provided that the copyright
COMMENT and these terms are retained. Under no circumstances is the author
COMMENT responsible for the proper functioning of this software, nor does
COMMENT the author assume any responsibility for damages incurred with its use.
COMMENT $XFree86$
FONT -Cronyx-Times-Bold-I-Normal--11-80-100-100-P-44-KOI8-R
SIZE 8 96 96
FONTBOUNDINGBOX 14 13 -1 -2
STARTPROPERTIES 21
DEFAULT_CHAR 32
FONT_ASCENT 11
FONT_DESCENT 2
SPACING "P"
FONTNAME_REGISTRY ""
FOUNDRY "Cronyx"
FAMILY_NAME "Times"
WEIGHT_NAME "Bold"
SLANT "I"
SETWIDTH_NAME "Normal"
ADD_STYLE_NAME ""
AVERAGE_WIDTH 44
CHARSET_REGISTRY "KOI8"
CHARSET_ENCODING "R"
PIXEL_SIZE 11
POINT_SIZE 80
RESOLUTION_X 100
RESOLUTION_Y 100
COPYRIGHT "Copyright (C) 1990, 1991 EWT Consulting, Portions Copyright (C) 1994 Cronyx Ltd., Portions Copyright (C) 1996-1997 by Andrey A. Chernov, Moscow, Russia."
_XMBDFED_INFO "Edited with xmbdfed 4.3."
_XFREE86_GLYPH_RANGES "32_126 149 154 156_158 163 179 191_255"
ENDPROPERTIES
CHARS 167
STARTCHAR space
ENCODING 32
SWIDTH 273 0
DWIDTH 3 0
BBX 0 0 -1 0
BITMAP
ENDCHAR
STARTCHAR exclam
ENCODING 33
SWIDTH 444 0
DWIDTH 4 0
BBX 4 9 0 0
BITMAP
30
30
60
60
60
60
00
00
C0
ENDCHAR
STARTCHAR quotedbl
ENCODING 34
SWIDTH 1667 0
DWIDTH 5 0
BBX 4 3 1 6
BITMAP
F0
F0
F0
ENDCHAR
STARTCHAR numbersign
ENCODING 35
SWIDTH 778 0
DWIDTH 7 0
BBX 8 9 0 0
BITMAP
1E
1E
7E
3C
3C
3C
FC
78
78
ENDCHAR
STARTCHAR dollar
ENCODING 36
SWIDTH 600 0
DWIDTH 6 0
BBX 7 10 0 -1
BITMAP
0C
1C
36
60
30
18
0C
D8
70
30
ENDCHAR
STARTCHAR percent
ENCODING 37
SWIDTH 1222 0
DWIDTH 11 0
BBX 12 9 0 0
BITMAP
1C30
3660
6D80
3B00
0600
0DC0
36C0
66C0
C380
ENDCHAR
STARTCHAR ampersand
ENCODING 38
SWIDTH 1000 0
DWIDTH 9 0
BBX 10 9 0 0
BITMAP
1C00
3600
6C00
3800
3800
6F80
DE00
CC00
7E00
ENDCHAR
STARTCHAR quotesingle
ENCODING 39
SWIDTH 1000 0
DWIDTH 3 0
BBX 2 3 1 6
BITMAP
C0
C0
C0
ENDCHAR
STARTCHAR parenleft
ENCODING 40
SWIDTH 364 0
DWIDTH 4 0
BBX 5 11 0 -2
BITMAP
18
18
30
30
60
60
60
60
C0
60
60
ENDCHAR
STARTCHAR parenright
ENCODING 41
SWIDTH 364 0
DWIDTH 4 0
BBX 5 11 0 -2
BITMAP
30
30
18
18
30
30
30
30
60
C0
C0
ENDCHAR
STARTCHAR asterisk
ENCODING 42
SWIDTH 1500 0
DWIDTH 6 0
BBX 6 4 1 5
BITMAP
6C
70
70
D8
ENDCHAR
STARTCHAR plus
ENCODING 43
SWIDTH 1400 0
DWIDTH 7 0
BBX 7 5 1 2
BITMAP
18
18
FC
30
30
ENDCHAR
STARTCHAR comma
ENCODING 44
SWIDTH 2000 0
DWIDTH 4 0
BBX 3 2 0 -1
BITMAP
60
C0
ENDCHAR
STARTCHAR hyphen
ENCODING 45
SWIDTH 4000 0
DWIDTH 4 0
BBX 3 1 1 4
BITMAP
E0
ENDCHAR
STARTCHAR period
ENCODING 46
SWIDTH 3000 0
DWIDTH 3 0
BBX 2 1 0 0
BITMAP
C0
ENDCHAR
STARTCHAR slash
ENCODING 47
SWIDTH 444 0
DWIDTH 4 0
BBX 5 9 0 0
BITMAP
18
18
30
30
30
60
C0
C0
C0
ENDCHAR
STARTCHAR zero
ENCODING 48
SWIDTH 667 0
DWIDTH 6 0
BBX 7 9 0 0
BITMAP
1C
36
6C
6C
6C
6C
D8
D8
70
ENDCHAR
STARTCHAR one
ENCODING 49
SWIDTH 667 0
DWIDTH 6 0
BBX 6 9 1 0
BITMAP
18
38
30
30
30
30
60
60
F0
ENDCHAR
STARTCHAR two
ENCODING 50
SWIDTH 667 0
DWIDTH 6 0
BBX 7 9 0 0
BITMAP
1C
36
0C
0C
18
30
C0
D8
F8
ENDCHAR
STARTCHAR three
ENCODING 51
SWIDTH 667 0
DWIDTH 6 0
BBX 7 9 0 0
BITMAP
1C
36
0C
0C
38
0C
18
D8
70
ENDCHAR
STARTCHAR four
ENCODING 52
SWIDTH 667 0
DWIDTH 6 0
BBX 7 9 0 0
BITMAP
06
0E
1C
3C
3C
6C
F8
18
18
ENDCHAR
STARTCHAR five
ENCODING 53
SWIDTH 667 0
DWIDTH 6 0
BBX 7 9 0 0
BITMAP
3E
30
60
78
6C
0C
18
D8
70
ENDCHAR
STARTCHAR six
ENCODING 54
SWIDTH 667 0
DWIDTH 6 0
BBX 7 9 0 0
BITMAP
1C
36
60
60
78
6C
D8
D8
70
ENDCHAR
STARTCHAR seven
ENCODING 55
SWIDTH 667 0
DWIDTH 6 0
BBX 7 9 0 0
BITMAP
3E
36
6C
18
18
18
60
60
60
ENDCHAR
STARTCHAR eight
ENCODING 56
SWIDTH 667 0
DWIDTH 6 0
BBX 7 9 0 0
BITMAP
1C
36
6C
6C
38
6C
D8
D8
70
ENDCHAR
STARTCHAR nine
ENCODING 57
SWIDTH 667 0
DWIDTH 6 0
BBX 7 9 0 0
BITMAP
1C
36
6C
6C
3C
0C
18
18
70
ENDCHAR
STARTCHAR colon
ENCODING 58
SWIDTH 500 0
DWIDTH 3 0
BBX 3 6 0 0
BITMAP
60
00
00
00
00
C0
ENDCHAR
STARTCHAR semicolon
ENCODING 59
SWIDTH 571 0
DWIDTH 4 0
BBX 4 7 0 -1
BITMAP
30
00
00
00
00
60
C0
ENDCHAR
STARTCHAR less
ENCODING 60
SWIDTH 1400 0
DWIDTH 7 0
BBX 7 5 1 1
BITMAP
0E
38
C0
70
1C
ENDCHAR
STARTCHAR equal
ENCODING 61
SWIDTH 2333 0
DWIDTH 7 0
BBX 6 3 1 2
BITMAP
FC
00
FC
ENDCHAR
STARTCHAR greater
ENCODING 62
SWIDTH 1400 0
DWIDTH 7 0
BBX 7 5 1 1
BITMAP
70
1C
0C
38
E0
ENDCHAR
STARTCHAR question
ENCODING 63
SWIDTH 667 0
DWIDTH 6 0
BBX 7 9 0 0
BITMAP
1C
36
6C
0C
18
30
60
00
60
ENDCHAR
STARTCHAR at
ENCODING 64
SWIDTH 1000 0
DWIDTH 10 0
BBX 11 10 0 -1
BITMAP
0F80
18C0
37E0
7BC0
7BC0
7BC0
7BC0
DF00
6000
3E00
ENDCHAR
STARTCHAR A
ENCODING 65
SWIDTH 1000 0
DWIDTH 9 0
BBX 10 9 0 0
BITMAP
0600
0600
1E00
1E00
1E00
3300
7E00
6600
FF00
ENDCHAR
STARTCHAR B
ENCODING 66
SWIDTH 778 0
DWIDTH 7 0
BBX 8 9 0 0
BITMAP
3E
1B
36
36
3C
36
6C
6C
F8
ENDCHAR
STARTCHAR C
ENCODING 67
SWIDTH 778 0
DWIDTH 7 0
BBX 8 9 0 0
BITMAP
1F
33
60
60
60
60
C0
CC
78
ENDCHAR
STARTCHAR D
ENCODING 68
SWIDTH 889 0
DWIDTH 8 0
BBX 9 9 0 0
BITMAP
3E00
1B00
3300
3300
3300
3300
6600
6C00
F800
ENDCHAR
STARTCHAR E
ENCODING 69
SWIDTH 778 0
DWIDTH 7 0
BBX 8 9 0 0
BITMAP
3F
1B
30
3C
3C
3C
60
6C
FC
ENDCHAR
STARTCHAR F
ENCODING 70
SWIDTH 778 0
DWIDTH 7 0
BBX 8 9 0 0
BITMAP
3F
1B
30
3C
3C
3C
60
60
F0
ENDCHAR
STARTCHAR G
ENCODING 71
SWIDTH 889 0
DWIDTH 8 0
BBX 9 9 0 0
BITMAP
1F00
3300
6000
6000
6F00
6600
CC00
CC00
7800
ENDCHAR
STARTCHAR H
ENCODING 72
SWIDTH 1000 0
DWIDTH 9 0
BBX 10 9 0 0
BITMAP
3FC0
1980
3300
3300
3F00
3300
6600
6600
FF00
ENDCHAR
STARTCHAR I
ENCODING 73
SWIDTH 556 0
DWIDTH 5 0
BBX 6 9 0 0
BITMAP
3C
18
30
30
30
30
60
60
F0
ENDCHAR
STARTCHAR J
ENCODING 74
SWIDTH 667 0
DWIDTH 6 0
BBX 7 9 0 0
BITMAP
1E
0C
18
18
18
18
30
F0
E0
ENDCHAR
STARTCHAR K
ENCODING 75
SWIDTH 1000 0
DWIDTH 9 0
BBX 10 9 0 0
BITMAP
3F80
1B00
3C00
3800
3800
3C00
6C00
6600
F700
ENDCHAR
STARTCHAR L
ENCODING 76
SWIDTH 778 0
DWIDTH 7 0
BBX 8 9 0 0
BITMAP
3C
18
30
30
30
30
60
6C
FC
ENDCHAR
STARTCHAR M
ENCODING 77
SWIDTH 1222 0
DWIDTH 11 0
BBX 12 9 0 0
BITMAP
3870
1860
39C0
39C0
3FC0
3FC0
6D80
6D80
F3C0
ENDCHAR
STARTCHAR N
ENCODING 78
SWIDTH 1000 0
DWIDTH 9 0
BBX 10 9 0 0
BITMAP
3BC0
1980
3B00
3B00
3F00
3F00
6E00
6E00
F600
ENDCHAR
STARTCHAR O
ENCODING 79
SWIDTH 778 0
DWIDTH 7 0
BBX 8 9 0 0
BITMAP
1E
33
66
66
66
66
CC
CC
78
ENDCHAR
STARTCHAR P
ENCODING 80
SWIDTH 778 0
DWIDTH 7 0
BBX 8 9 0 0
BITMAP
3E
1B
36
36
3C
30
60
60
F0
ENDCHAR
STARTCHAR Q
ENCODING 81
SWIDTH 636 0
DWIDTH 7 0
BBX 8 11 0 -2
BITMAP
1E
33
33
33
66
66
66
66
78
38
1C
ENDCHAR
STARTCHAR R
ENCODING 82
SWIDTH 889 0
DWIDTH 8 0
BBX 9 9 0 0
BITMAP
3E00
1B00
3600
3600
3C00
3C00
6C00
6C00
FE00
ENDCHAR
STARTCHAR S
ENCODING 83
SWIDTH 556 0
DWIDTH 5 0
BBX 6 9 0 0
BITMAP
1C
3C
60
60
30
18
30
F0
E0
ENDCHAR
STARTCHAR T
ENCODING 84
SWIDTH 778 0
DWIDTH 7 0
BBX 8 9 0 0
BITMAP
3F
3F
18
18
18
18
30
30
78
ENDCHAR
STARTCHAR U
ENCODING 85
SWIDTH 1000 0
DWIDTH 9 0
BBX 10 9 0 0
BITMAP
3FC0
1980
3300
3300
3300
3300
6600
6600
3C00
ENDCHAR
STARTCHAR V
ENCODING 86
SWIDTH 1000 0
DWIDTH 9 0
BBX 10 9 0 0
BITMAP
3FC0
1980
3300
3300
1E00
1E00
3C00
1800
1800
ENDCHAR
STARTCHAR W
ENCODING 87
SWIDTH 1222 0
DWIDTH 11 0
BBX 12 9 0 0
BITMAP
3CF0
1860
30C0
36C0
36C0
3FC0
7F80
3300
3300
ENDCHAR
STARTCHAR X
ENCODING 88
SWIDTH 1000 0
DWIDTH 9 0
BBX 10 9 0 0
BITMAP
3FC0
1980
1E00
1E00
0C00
1E00
3C00
6600
FF00
ENDCHAR
STARTCHAR Y
ENCODING 89
SWIDTH 1000 0
DWIDTH 9 0
BBX 10 9 0 0
BITMAP
3FC0
1980
3300
1E00
1E00
0C00
1800
1800
3C00
ENDCHAR
STARTCHAR Z
ENCODING 90
SWIDTH 778 0
DWIDTH 7 0
BBX 8 9 0 0
BITMAP
3F
33
0C
0C
18
30
60
CC
FC
ENDCHAR
STARTCHAR bracketleft
ENCODING 91
SWIDTH 364 0
DWIDTH 4 0
BBX 5 11 0 -2
BITMAP
38
30
30
30
60
60
60
60
C0
C0
E0
ENDCHAR
STARTCHAR backslash
ENCODING 92
SWIDTH 400 0
DWIDTH 4 0
BBX 5 10 0 0
BITMAP
30
30
30
60
60
30
30
60
60
60
ENDCHAR
STARTCHAR bracketright
ENCODING 93
SWIDTH 364 0
DWIDTH 4 0
BBX 5 11 0 -2
BITMAP
38
18
18
18
30
30
30
30
60
60
E0
ENDCHAR
STARTCHAR asciicircum
ENCODING 94
SWIDTH 3000 0
DWIDTH 6 0
BBX 5 2 1 7
BITMAP
70
D8
ENDCHAR
STARTCHAR underscore
ENCODING 95
SWIDTH 6000 0
DWIDTH 6 0
BBX 6 1 -1 -2
BITMAP
FC
ENDCHAR
STARTCHAR grave
ENCODING 96
SWIDTH 2000 0
DWIDTH 4 0
BBX 3 2 1 7
BITMAP
C0
60
ENDCHAR
STARTCHAR a
ENCODING 97
SWIDTH 1000 0
DWIDTH 6 0
BBX 6 6 0 0
BITMAP
38
0C
3C
D8
D8
78
ENDCHAR
STARTCHAR b
ENCODING 98
SWIDTH 667 0
DWIDTH 6 0
BBX 8 9 -1 0
BITMAP
38
18
30
3C
36
36
6C
6C
38
ENDCHAR
STARTCHAR c
ENCODING 99
SWIDTH 1000 0
DWIDTH 6 0
BBX 6 6 0 0
BITMAP
38
6C
60
C0
D8
70
ENDCHAR
STARTCHAR d
ENCODING 100
SWIDTH 667 0
DWIDTH 6 0
BBX 7 9 0 0
BITMAP
0E
06
0C
3C
6C
6C
D8
D8
78
ENDCHAR
STARTCHAR e
ENCODING 101
SWIDTH 1000 0
DWIDTH 6 0
BBX 6 6 0 0
BITMAP
38
6C
7C
C0
D8
70
ENDCHAR
STARTCHAR f
ENCODING 102
SWIDTH 556 0
DWIDTH 5 0
BBX 6 9 0 0
BITMAP
0C
18
30
78
30
30
60
60
70
ENDCHAR
STARTCHAR g
ENCODING 103
SWIDTH 750 0
DWIDTH 6 0
BBX 7 8 0 -2
BITMAP
1E
6C
6C
6C
6C
78
18
70
ENDCHAR
STARTCHAR h
ENCODING 104
SWIDTH 667 0
DWIDTH 6 0
BBX 8 9 -1 0
BITMAP
38
18
30
3C
36
36
6C
6C
6C
ENDCHAR
STARTCHAR i
ENCODING 105
SWIDTH 444 0
DWIDTH 4 0
BBX 5 9 0 0
BITMAP
18
00
00
70
30
30
60
60
60
ENDCHAR
STARTCHAR j
ENCODING 106
SWIDTH 364 0
DWIDTH 4 0
BBX 5 11 0 -2
BITMAP
18
00
00
38
30
30
30
30
60
60
C0
ENDCHAR
STARTCHAR k
ENCODING 107
SWIDTH 667 0
DWIDTH 6 0
BBX 8 9 -1 0
BITMAP
38
18
30
36
3C
38
70
78
6C
ENDCHAR
STARTCHAR l
ENCODING 108
SWIDTH 333 0
DWIDTH 3 0
BBX 5 9 -1 0
BITMAP
38
18
30
30
30
30
60
60
60
ENDCHAR
STARTCHAR m
ENCODING 109
SWIDTH 1500 0
DWIDTH 9 0
BBX 10 6 -1 0
BITMAP
7F80
36C0
36C0
6D80
6D80
6D80
ENDCHAR
STARTCHAR n
ENCODING 110
SWIDTH 1000 0
DWIDTH 6 0
BBX 7 6 -1 0
BITMAP
7C
36
36
6C
6C
6C
ENDCHAR
STARTCHAR o
ENCODING 111
SWIDTH 1000 0
DWIDTH 6 0
BBX 6 6 0 0
BITMAP
38
6C
6C
D8
D8
70
ENDCHAR
STARTCHAR p
ENCODING 112
SWIDTH 750 0
DWIDTH 6 0
BBX 8 8 -1 -2
BITMAP
3E
36
36
36
36
78
60
F0
ENDCHAR
STARTCHAR q
ENCODING 113
SWIDTH 875 0
DWIDTH 7 0
BBX 8 8 0 -2
BITMAP
1C
6C
6C
6C
6C
78
18
1C
ENDCHAR
STARTCHAR r
ENCODING 114
SWIDTH 833 0
DWIDTH 5 0
BBX 6 6 -1 0
BITMAP
7C
3C
30
60
60
70
ENDCHAR
STARTCHAR s
ENCODING 115
SWIDTH 833 0
DWIDTH 5 0
BBX 5 6 0 0
BITMAP
38
60
30
30
30
E0
ENDCHAR
STARTCHAR t
ENCODING 116
SWIDTH 625 0
DWIDTH 5 0
BBX 6 8 0 0
BITMAP
18
30
78
30
30
60
60
30
ENDCHAR
STARTCHAR u
ENCODING 117
SWIDTH 1000 0
DWIDTH 6 0
BBX 7 6 -1 0
BITMAP
7E
36
36
6C
6C
3C
ENDCHAR
STARTCHAR v
ENCODING 118
SWIDTH 1000 0
DWIDTH 6 0
BBX 7 6 -1 0
BITMAP
66
66
3C
78
30
30
ENDCHAR
STARTCHAR w
ENCODING 119
SWIDTH 1500 0
DWIDTH 9 0
BBX 9 6 0 0
BITMAP
7F80
6D80
7F80
FF00
6600
6600
ENDCHAR
STARTCHAR x
ENCODING 120
SWIDTH 1000 0
DWIDTH 6 0
BBX 7 6 -1 0
BITMAP
7E
3C
18
30
78
FC
ENDCHAR
STARTCHAR y
ENCODING 121
SWIDTH 750 0
DWIDTH 6 0
BBX 7 8 0 -2
BITMAP
36
6C
6C
6C
38
60
60
C0
ENDCHAR
STARTCHAR z
ENCODING 122
SWIDTH 1000 0
DWIDTH 6 0
BBX 6 6 0 0
BITMAP
7C
6C
18
60
D8
F8
ENDCHAR
STARTCHAR braceleft
ENCODING 123
SWIDTH 455 0
DWIDTH 5 0
BBX 6 11 0 -2
BITMAP
0C
18
18
18
30
60
30
30
60
60
30
ENDCHAR
STARTCHAR bar
ENCODING 124
SWIDTH 333 0
DWIDTH 3 0
BBX 4 9 0 -1
BITMAP
30
30
60
60
60
60
C0
C0
C0
ENDCHAR
STARTCHAR braceright
ENCODING 125
SWIDTH 455 0
DWIDTH 5 0
BBX 6 11 0 -2
BITMAP
30
18
18
18
30
18
30
30
60
60
C0
ENDCHAR
STARTCHAR asciitilde
ENCODING 126
SWIDTH 3500 0
DWIDTH 7 0
BBX 6 2 1 7
BITMAP
7C
F8
ENDCHAR
STARTCHAR bullet
ENCODING 149
SWIDTH 1500 0
DWIDTH 6 0
BBX 6 4 1 2
BITMAP
38
F8
F8
70
ENDCHAR
STARTCHAR space
ENCODING 154
SWIDTH 273 0
DWIDTH 3 0
BBX 0 0 -1 0
BITMAP
ENDCHAR
STARTCHAR degree
ENCODING 156
SWIDTH 1333 0
DWIDTH 4 0
BBX 4 3 0 6
BITMAP
60
F0
60
ENDCHAR
STARTCHAR twosuperior
ENCODING 157
SWIDTH 800 0
DWIDTH 4 0
BBX 5 5 0 4
BITMAP
70
18
60
C0
F0
ENDCHAR
STARTCHAR periodcentered
ENCODING 158
SWIDTH 2000 0
DWIDTH 4 0
BBX 3 2 1 3
BITMAP
E0
E0
ENDCHAR
STARTCHAR afii10071
ENCODING 163
SWIDTH 625 0
DWIDTH 5 0
BBX 7 8 0 0
BITMAP
36
00
38
6C
7C
C0
D8
70
ENDCHAR
STARTCHAR afii10023
ENCODING 179
SWIDTH 636 0
DWIDTH 7 0
BBX 9 11 0 0
BITMAP
1F80
0000
3F80
1980
3000
3600
3E00
3600
6000
6600
FE00
ENDCHAR
STARTCHAR copyright
ENCODING 191
SWIDTH 1125 0
DWIDTH 9 0
BBX 10 8 1 1
BITMAP
0F00
3300
7F80
7980
7980
FF00
6600
3C00
ENDCHAR
STARTCHAR afii10096
ENCODING 192
SWIDTH 1667 0
DWIDTH 10 0
BBX 9 6 0 0
BITMAP
7F00
3D80
3D80
7B00
7B00
FE00
ENDCHAR
STARTCHAR afii10065
ENCODING 193
SWIDTH 1000 0
DWIDTH 6 0
BBX 6 6 0 0
BITMAP
38
0C
3C
D8
D8
78
ENDCHAR
STARTCHAR afii10066
ENCODING 194
SWIDTH 667 0
DWIDTH 6 0
BBX 7 9 0 0
BITMAP
06
1C
60
78
6C
6C
D8
D8
70
ENDCHAR
STARTCHAR afii10088
ENCODING 195
SWIDTH 1000 0
DWIDTH 7 0
BBX 7 7 0 -1
BITMAP
6C
6C
6C
6C
D8
FC
0C
ENDCHAR
STARTCHAR afii10069
ENCODING 196
SWIDTH 1143 0
DWIDTH 8 0
BBX 8 7 0 -1
BITMAP
1E
1E
1E
1E
6C
FE
C6
ENDCHAR
STARTCHAR afii10070
ENCODING 197
SWIDTH 1000 0
DWIDTH 6 0
BBX 6 6 0 0
BITMAP
38
6C
7C
C0
D8
70
ENDCHAR
STARTCHAR afii10086
ENCODING 198
SWIDTH 700 0
DWIDTH 7 0
BBX 8 10 0 -2
BITMAP
1E
0C
1E
7E
7E
7E
7E
78
30
78
ENDCHAR
STARTCHAR afii10068
ENCODING 199
SWIDTH 1167 0
DWIDTH 7 0
BBX 7 6 0 0
BITMAP
7E
36
30
60
60
F0
ENDCHAR
STARTCHAR afii10087
ENCODING 200
SWIDTH 1167 0
DWIDTH 7 0
BBX 7 6 0 0
BITMAP
7E
3C
18
30
78
FC
ENDCHAR
STARTCHAR afii10074
ENCODING 201
SWIDTH 1000 0
DWIDTH 6 0
BBX 6 6 0 0
BITMAP
6C
6C
7C
F8
D8
D8
ENDCHAR
STARTCHAR afii10075
ENCODING 202
SWIDTH 750 0
DWIDTH 6 0
BBX 7 8 0 0
BITMAP
1C
00
6C
6C
7C
F8
D8
D8
ENDCHAR
STARTCHAR afii10076
ENCODING 203
SWIDTH 1000 0
DWIDTH 6 0
BBX 6 6 0 0
BITMAP
6C
78
70
F0
D8
D8
ENDCHAR
STARTCHAR afii10077
ENCODING 204
SWIDTH 1000 0
DWIDTH 6 0
BBX 6 6 0 0
BITMAP
1C
3C
3C
78
78
D8
ENDCHAR
STARTCHAR afii10078
ENCODING 205
SWIDTH 1167 0
DWIDTH 7 0
BBX 7 6 0 0
BITMAP
66
7E
7E
FC
FC
CC
ENDCHAR
STARTCHAR afii10079
ENCODING 206
SWIDTH 1000 0
DWIDTH 6 0
BBX 6 6 0 0
BITMAP
6C
6C
7C
D8
D8
D8
ENDCHAR
STARTCHAR afii10080
ENCODING 207
SWIDTH 1000 0
DWIDTH 6 0
BBX 6 6 0 0
BITMAP
38
6C
6C
D8
D8
70
ENDCHAR
STARTCHAR afii10081
ENCODING 208
SWIDTH 1000 0
DWIDTH 6 0
BBX 6 6 0 0
BITMAP
7C
6C
6C
D8
D8
D8
ENDCHAR
STARTCHAR afii10097
ENCODING 209
SWIDTH 1167 0
DWIDTH 7 0
BBX 8 6 -1 0
BITMAP
1F
36
36
3C
3C
EE
ENDCHAR
STARTCHAR afii10082
ENCODING 210
SWIDTH 875 0
DWIDTH 7 0
BBX 8 8 0 -2
BITMAP
3E
36
36
36
36
78
60
F0
ENDCHAR
STARTCHAR afii10083
ENCODING 211
SWIDTH 1000 0
DWIDTH 6 0
BBX 6 6 0 0
BITMAP
38
6C
60
C0
D8
70
ENDCHAR
STARTCHAR afii10084
ENCODING 212
SWIDTH 1167 0
DWIDTH 7 0
BBX 7 6 0 0
BITMAP
7E
7E
18
30
30
78
ENDCHAR
STARTCHAR afii10085
ENCODING 213
SWIDTH 875 0
DWIDTH 7 0
BBX 8 8 0 -2
BITMAP
33
66
3C
3C
18
30
30
E0
ENDCHAR
STARTCHAR afii10072
ENCODING 214
SWIDTH 1500 0
DWIDTH 9 0
BBX 9 6 0 0
BITMAP
6D80
3F00
1E00
7E00
DB00
DB00
ENDCHAR
STARTCHAR afii10067
ENCODING 215
SWIDTH 1167 0
DWIDTH 7 0
BBX 7 6 0 0
BITMAP
7C
36
3C
6C
6C
F8
ENDCHAR
STARTCHAR afii10094
ENCODING 216
SWIDTH 1167 0
DWIDTH 7 0
BBX 7 6 0 0
BITMAP
70
30
3C
6C
6C
F8
ENDCHAR
STARTCHAR afii10093
ENCODING 217
SWIDTH 1500 0
DWIDTH 9 0
BBX 9 6 0 0
BITMAP
7380
3180
3D80
6F00
6F00
FF00
ENDCHAR
STARTCHAR afii10073
ENCODING 218
SWIDTH 1167 0
DWIDTH 7 0
BBX 7 6 0 0
BITMAP
3C
66
0C
0C
CC
78
ENDCHAR
STARTCHAR afii10090
ENCODING 219
SWIDTH 1500 0
DWIDTH 9 0
BBX 9 6 0 0
BITMAP
6D80
6D80
6D80
DB00
DB00
FF00
ENDCHAR
STARTCHAR afii10095
ENCODING 220
SWIDTH 1167 0
DWIDTH 7 0
BBX 7 6 0 0
BITMAP
3C
66
1E
0C
CC
78
ENDCHAR
STARTCHAR afii10091
ENCODING 221
SWIDTH 1429 0
DWIDTH 10 0
BBX 10 7 0 -1
BITMAP
6D80
6D80
6D80
6D80
DB00
FF80
0180
ENDCHAR
STARTCHAR afii10089
ENCODING 222
SWIDTH 1000 0
DWIDTH 6 0
BBX 6 6 0 0
BITMAP
6C
6C
6C
78
18
18
ENDCHAR
STARTCHAR afii10092
ENCODING 223
SWIDTH 1333 0
DWIDTH 8 0
BBX 8 6 0 0
BITMAP
78
78
1E
36
36
7C
ENDCHAR
STARTCHAR afii10048
ENCODING 224
SWIDTH 1222 0
DWIDTH 11 0
BBX 12 9 0 0
BITMAP
3DE0
1B30
3660
3660
3E60
3660
6CC0
6CC0
F780
ENDCHAR
STARTCHAR afii10017
ENCODING 225
SWIDTH 1000 0
DWIDTH 9 0
BBX 10 9 0 0
BITMAP
0600
0600
1E00
1E00
1E00
3300
7E00
6600
FF00
ENDCHAR
STARTCHAR afii10018
ENCODING 226
SWIDTH 889 0
DWIDTH 8 0
BBX 9 9 0 0
BITMAP
3F80
1980
3000
3E00
3300
3300
6600
6600
FC00
ENDCHAR
STARTCHAR afii10040
ENCODING 227
SWIDTH 818 0
DWIDTH 9 0
BBX 10 11 0 -2
BITMAP
3FC0
1980
1980
1980
3300
3300
3300
3300
FF00
0300
0300
ENDCHAR
STARTCHAR afii10021
ENCODING 228
SWIDTH 900 0
DWIDTH 9 0
BBX 10 10 0 -1
BITMAP
0F80
0D80
0D80
1B00
1B00
1B00
1B00
6600
FF00
C300
ENDCHAR
STARTCHAR afii10022
ENCODING 229
SWIDTH 889 0
DWIDTH 8 0
BBX 9 9 0 0
BITMAP
3F80
1980
3000
3600
3E00
3600
6000
6600
FE00
ENDCHAR
STARTCHAR afii10038
ENCODING 230
SWIDTH 1100 0
DWIDTH 11 0
BBX 10 10 1 0
BITMAP
0F00
0600
1F80
6D80
6D80
6D80
6D80
7E00
1800
3C00
ENDCHAR
STARTCHAR afii10020
ENCODING 231
SWIDTH 889 0
DWIDTH 8 0
BBX 9 9 0 0
BITMAP
3F80
1980
3000
3000
3000
3000
6000
6000
F000
ENDCHAR
STARTCHAR afii10039
ENCODING 232
SWIDTH 1000 0
DWIDTH 9 0
BBX 10 9 0 0
BITMAP
3FC0
1980
3300
1E00
0C00
1E00
6600
6600
FF00
ENDCHAR
STARTCHAR afii10026
ENCODING 233
SWIDTH 1000 0
DWIDTH 9 0
BBX 10 9 0 0
BITMAP
3FC0
1980
3300
3700
3F00
3F00
7600
6600
FF00
ENDCHAR
STARTCHAR afii10027
ENCODING 234
SWIDTH 818 0
DWIDTH 9 0
BBX 10 11 0 0
BITMAP
0F00
0000
3FC0
1980
3300
3300
3700
3F00
7600
6600
FF00
ENDCHAR
STARTCHAR afii10028
ENCODING 235
SWIDTH 1000 0
DWIDTH 9 0
BBX 10 9 0 0
BITMAP
3FC0
1980
3600
3C00
3E00
3600
6600
6600
FF00
ENDCHAR
STARTCHAR afii10029
ENCODING 236
SWIDTH 778 0
DWIDTH 7 0
BBX 9 9 -1 0
BITMAP
0F80
0D80
1B00
1B00
1B00
1B00
3600
3600
E600
ENDCHAR
STARTCHAR afii10030
ENCODING 237
SWIDTH 1222 0
DWIDTH 11 0
BBX 12 9 0 0
BITMAP
3870
1860
39C0
39C0
3FC0
3FC0
6D80
6D80
F3C0
ENDCHAR
STARTCHAR afii10031
ENCODING 238
SWIDTH 1000 0
DWIDTH 9 0
BBX 10 9 0 0
BITMAP
3FC0
1980
3300
3300
3F00
3300
6600
6600
FF00
ENDCHAR
STARTCHAR afii10032
ENCODING 239
SWIDTH 778 0
DWIDTH 7 0
BBX 8 9 0 0
BITMAP
1E
33
66
66
66
66
CC
CC
78
ENDCHAR
STARTCHAR afii10033
ENCODING 240
SWIDTH 1000 0
DWIDTH 9 0
BBX 10 9 0 0
BITMAP
3FC0
1980
3300
3300
3300
3300
6600
6600
FF00
ENDCHAR
STARTCHAR afii10049
ENCODING 241
SWIDTH 1000 0
DWIDTH 9 0
BBX 10 9 0 0
BITMAP
0FC0
1980
3300
3300
1F00
0F00
3600
3600
EF00
ENDCHAR
STARTCHAR afii10034
ENCODING 242
SWIDTH 889 0
DWIDTH 8 0
BBX 9 9 0 0
BITMAP
3F00
1980
3300
3300
3300
3E00
6000
6000
F000
ENDCHAR
STARTCHAR afii10035
ENCODING 243
SWIDTH 778 0
DWIDTH 7 0
BBX 8 9 0 0
BITMAP
1F
33
60
60
60
60
C0
CC
78
ENDCHAR
STARTCHAR afii10036
ENCODING 244
SWIDTH 778 0
DWIDTH 7 0
BBX 8 9 0 0
BITMAP
3F
3F
18
18
18
18
30
30
78
ENDCHAR
STARTCHAR afii10037
ENCODING 245
SWIDTH 1000 0
DWIDTH 9 0
BBX 10 9 0 0
BITMAP
3FC0
1980
3300
1E00
1E00
0C00
1800
1800
F000
ENDCHAR
STARTCHAR afii10024
ENCODING 246
SWIDTH 1222 0
DWIDTH 11 0
BBX 12 9 0 0
BITMAP
3FF0
1B60
36C0
1F80
0F00
1F80
6D80
6D80
FFC0
ENDCHAR
STARTCHAR afii10019
ENCODING 247
SWIDTH 889 0
DWIDTH 8 0
BBX 9 9 0 0
BITMAP
3F00
1980
3300
3300
3E00
3300
6600
6600
FC00
ENDCHAR
STARTCHAR afii10046
ENCODING 248
SWIDTH 889 0
DWIDTH 8 0
BBX 9 9 0 0
BITMAP
3C00
1800
3000
3000
3E00
3300
6600
6600
FC00
ENDCHAR
STARTCHAR afii10045
ENCODING 249
SWIDTH 1222 0
DWIDTH 11 0
BBX 12 9 0 0
BITMAP
3CF0
1860
30C0
30C0
3EC0
33C0
6780
6780
FFC0
ENDCHAR
STARTCHAR afii10025
ENCODING 250
SWIDTH 778 0
DWIDTH 7 0
BBX 8 9 0 0
BITMAP
1E
33
06
06
1C
06
0C
CC
78
ENDCHAR
STARTCHAR afii10042
ENCODING 251
SWIDTH 1222 0
DWIDTH 11 0
BBX 12 9 0 0
BITMAP
3FF0
1B60
36C0
36C0
36C0
36C0
6D80
6D80
FFC0
ENDCHAR
STARTCHAR afii10047
ENCODING 252
SWIDTH 778 0
DWIDTH 7 0
BBX 8 9 0 0
BITMAP
1E
33
06
06
3E
06
0C
CC
78
ENDCHAR
STARTCHAR afii10043
ENCODING 253
SWIDTH 1100 0
DWIDTH 11 0
BBX 12 10 0 -1
BITMAP
3FF0
1B60
1B60
36C0
36C0
36C0
36C0
6D80
FFC0
00C0
ENDCHAR
STARTCHAR afii10041
ENCODING 254
SWIDTH 1000 0
DWIDTH 9 0
BBX 10 9 0 0
BITMAP
3FC0
1980
3300
3300
1F00
0300
0600
0600
0F00
ENDCHAR
STARTCHAR afii10044
ENCODING 255
SWIDTH 1000 0
DWIDTH 9 0
BBX 10 9 0 0
BITMAP
3E00
3C00
7800
1800
1F00
1980
3300
3300
7E00
ENDCHAR
ENDFONT
