STARTFONT 2.1
COMMENT Copyright (C) 1990-1991 EWT Consulting
COMMENT Portions Copyright (C) 1994-1995 Cronyx Ltd.
COMMENT Changes Copyright (C) 1996-1997 by Andrey A. Chernov, Moscow, Russia.
COMMENT Modified by Serge Vakulenko, <vak@cronyx.ru>
COMMENT Changes 1999 by Serge Winitzki.
COMMENT This software may be used, modified, copied, distributed, and sold,
COMMENT in both source and binary form provided that the copyright
COMMENT and these terms are retained. Under no circumstances is the author
COMMENT responsible for the proper functioning of this software, nor does
COMMENT the author assume any responsibility for damages incurred with its use.
COMMENT $XFree86$
FONT -Cronyx-Times-Bold-R-Normal--25-180-100-100-P-94-KOI8-R
SIZE 18 96 96
FONTBOUNDINGBOX 24 26 0 -6
STARTPROPERTIES 21
DEFAULT_CHAR 32
FONT_ASCENT 21
FONT_DESCENT 6
SPACING "P"
FONTNAME_REGISTRY ""
FOUNDRY "Cronyx"
FAMILY_NAME "Times"
WEIGHT_NAME "Bold"
SLANT "R"
SETWIDTH_NAME "Normal"
ADD_STYLE_NAME ""
AVERAGE_WIDTH 94
CHARSET_REGISTRY "KOI8"
CHARSET_ENCODING "R"
PIXEL_SIZE 25
POINT_SIZE 180
RESOLUTION_X 100
RESOLUTION_Y 100
COPYRIGHT "Copyright (C) 1990, 1991 EWT Consulting, Portions Copyright (C) 1994 Cronyx Ltd., Portions Copyright (C) 1996-1997 by Andrey A. Chernov, Moscow, Russia."
_XMBDFED_INFO "Edited with xmbdfed 3.8."
_XFREE86_GLYPH_RANGES "32_126 149 154 156_158 163 179 191_255"
ENDPROPERTIES
CHARS 167
STARTCHAR space
ENCODING 32
SWIDTH 292 0
DWIDTH 7 0
BBX 0 0 0 0
BITMAP
ENDCHAR
STARTCHAR exclam
ENCODING 33
SWIDTH 471 0
DWIDTH 8 0
BBX 4 17 2 0
BITMAP
60
F0
F0
F0
F0
F0
F0
F0
60
60
60
60
00
60
F0
F0
60
ENDCHAR
STARTCHAR quotedbl
ENCODING 34
SWIDTH 1833 0
DWIDTH 11 0
BBX 9 6 1 11
BITMAP
6300
F780
F780
6300
6300
6300
ENDCHAR
STARTCHAR numbersign
ENCODING 35
SWIDTH 765 0
DWIDTH 13 0
BBX 13 17 0 0
BITMAP
1CE0
1CE0
1CE0
1CE0
1CE0
7FF8
39C0
39C0
39C0
39C0
39C0
FFF0
7380
7380
7380
7380
7380
ENDCHAR
STARTCHAR dollar
ENCODING 36
SWIDTH 619 0
DWIDTH 13 0
BBX 11 21 1 -3
BITMAP
0600
0600
1FE0
3FE0
76E0
7660
7660
7E00
3E00
1F80
07C0
07C0
07E0
C6E0
C6E0
E6E0
F7C0
FF80
0600
0600
0600
ENDCHAR
STARTCHAR percent
ENCODING 37
SWIDTH 1235 0
DWIDTH 21 0
BBX 19 17 1 0
BITMAP
1F0700
3BFF00
719E00
E19C00
E19C00
E33800
E67000
7C7000
00E000
01C7C0
01CEE0
039C60
073860
073860
0E38C0
1C3980
1C1F00
ENDCHAR
STARTCHAR ampersand
ENCODING 38
SWIDTH 1176 0
DWIDTH 20 0
BBX 18 17 1 0
BITMAP
03C000
07E000
0E7000
0E3000
0E7000
07E000
07C000
0F9F80
3FCF00
71C600
70EE00
E0FC00
E07C00
E03C00
707EC0
7DEFC0
1F8780
ENDCHAR
STARTCHAR quotesingle
ENCODING 39
SWIDTH 1167 0
DWIDTH 7 0
BBX 4 6 2 11
BITMAP
60
F0
F0
60
60
60
ENDCHAR
STARTCHAR parenleft
ENCODING 40
SWIDTH 409 0
DWIDTH 9 0
BBX 7 22 1 -5
BITMAP
06
0C
18
38
30
70
70
E0
E0
E0
E0
E0
E0
E0
E0
70
70
30
38
18
0C
06
ENDCHAR
STARTCHAR parenright
ENCODING 41
SWIDTH 409 0
DWIDTH 9 0
BBX 7 22 1 -5
BITMAP
C0
60
30
38
18
1C
1C
0E
0E
0E
0E
0E
0E
0E
0E
0E
1C
1C
18
38
30
60
ENDCHAR
STARTCHAR asterisk
ENCODING 42
SWIDTH 1000 0
DWIDTH 9 0
BBX 8 9 1 9
BITMAP
18
3C
FF
FF
3C
FF
FF
3C
18
ENDCHAR
STARTCHAR plus
ENCODING 43
SWIDTH 1500 0
DWIDTH 15 0
BBX 11 10 2 2
BITMAP
0E00
0E00
0E00
0E00
FFE0
FFE0
0E00
0E00
0E00
0E00
ENDCHAR
STARTCHAR comma
ENCODING 44
SWIDTH 1000 0
DWIDTH 7 0
BBX 4 7 2 -3
BITMAP
60
F0
F0
70
30
30
60
ENDCHAR
STARTCHAR hyphen
ENCODING 45
SWIDTH 4500 0
DWIDTH 9 0
BBX 8 2 1 6
BITMAP
FF
FF
ENDCHAR
STARTCHAR period
ENCODING 46
SWIDTH 1750 0
DWIDTH 7 0
BBX 4 4 2 0
BITMAP
60
F0
F0
60
ENDCHAR
STARTCHAR slash
ENCODING 47
SWIDTH 444 0
DWIDTH 8 0
BBX 8 18 0 -1
BITMAP
07
07
07
0E
0E
0E
1C
1C
1C
38
38
38
70
70
70
E0
E0
E0
ENDCHAR
STARTCHAR zero
ENCODING 48
SWIDTH 813 0
DWIDTH 13 0
BBX 11 16 1 0
BITMAP
1F00
3B80
71C0
71C0
E0E0
E0E0
E0E0
E0E0
E0E0
E0E0
E0E0
E0E0
71C0
71C0
3B80
1F00
ENDCHAR
STARTCHAR one
ENCODING 49
SWIDTH 813 0
DWIDTH 13 0
BBX 7 16 3 0
BITMAP
18
38
78
F8
38
38
38
38
38
38
38
38
38
38
7C
FE
ENDCHAR
STARTCHAR two
ENCODING 50
SWIDTH 813 0
DWIDTH 13 0
BBX 11 16 1 0
BITMAP
1F00
3F80
73C0
61C0
01C0
01C0
01C0
0380
0380
0700
0E00
0C00
1860
30E0
7FC0
FFC0
ENDCHAR
STARTCHAR three
ENCODING 51
SWIDTH 813 0
DWIDTH 13 0
BBX 11 16 1 0
BITMAP
1F00
3F80
73C0
01C0
01C0
0380
0F80
03C0
01C0
00E0
00E0
00E0
01E0
F3C0
FF80
3F00
ENDCHAR
STARTCHAR four
ENCODING 52
SWIDTH 813 0
DWIDTH 13 0
BBX 12 16 1 0
BITMAP
03C0
03C0
07C0
0FC0
1DC0
19C0
39C0
71C0
E1C0
E1C0
FFF0
FFF0
01C0
01C0
01C0
01C0
ENDCHAR
STARTCHAR five
ENCODING 53
SWIDTH 813 0
DWIDTH 13 0
BBX 11 16 1 0
BITMAP
3FC0
3F80
3000
6000
6000
7F00
7FC0
03C0
01E0
00E0
00E0
00E0
00E0
F1C0
FBC0
3F00
ENDCHAR
STARTCHAR six
ENCODING 54
SWIDTH 813 0
DWIDTH 13 0
BBX 11 16 1 0
BITMAP
0380
0E00
1C00
3800
7000
7000
FF00
FBC0
F1C0
E0E0
E0E0
E0E0
E0E0
71C0
7BC0
1F00
ENDCHAR
STARTCHAR seven
ENCODING 55
SWIDTH 813 0
DWIDTH 13 0
BBX 11 16 1 0
BITMAP
7FE0
7FC0
E1C0
C1C0
0380
0380
0300
0700
0700
0E00
0E00
0E00
1C00
1C00
3800
3800
ENDCHAR
STARTCHAR eight
ENCODING 56
SWIDTH 813 0
DWIDTH 13 0
BBX 11 16 1 0
BITMAP
3F00
7380
E1C0
E1C0
F1C0
79C0
3F80
3F80
7FC0
63C0
E1E0
E0E0
E0E0
71C0
7BC0
1F00
ENDCHAR
STARTCHAR nine
ENCODING 57
SWIDTH 813 0
DWIDTH 13 0
BBX 11 16 1 0
BITMAP
1F00
7BC0
71C0
E0E0
E0E0
E0E0
E0E0
71E0
7BE0
1FE0
01C0
01C0
0380
0700
0E00
3800
ENDCHAR
STARTCHAR colon
ENCODING 58
SWIDTH 727 0
DWIDTH 8 0
BBX 4 11 2 0
BITMAP
60
F0
F0
60
00
00
00
60
F0
F0
60
ENDCHAR
STARTCHAR semicolon
ENCODING 59
SWIDTH 571 0
DWIDTH 8 0
BBX 4 14 2 -3
BITMAP
60
F0
F0
60
00
00
00
60
F0
F0
70
30
30
60
ENDCHAR
STARTCHAR less
ENCODING 60
SWIDTH 1154 0
DWIDTH 15 0
BBX 12 13 1 1
BITMAP
0070
01E0
03C0
0F00
1E00
7800
F000
7800
1E00
0F00
03C0
01E0
0070
ENDCHAR
STARTCHAR equal
ENCODING 61
SWIDTH 2143 0
DWIDTH 15 0
BBX 13 7 1 4
BITMAP
FFF8
FFF8
0000
0000
0000
FFF8
FFF8
ENDCHAR
STARTCHAR greater
ENCODING 62
SWIDTH 1154 0
DWIDTH 15 0
BBX 12 13 2 1
BITMAP
E000
7800
3C00
0F00
0780
01E0
00F0
01E0
0780
0F00
3C00
7800
E000
ENDCHAR
STARTCHAR question
ENCODING 63
SWIDTH 706 0
DWIDTH 12 0
BBX 10 17 1 0
BITMAP
3F00
7780
E3C0
F3C0
F3C0
6380
0380
0700
0E00
0C00
0C00
0C00
0000
0C00
1E00
1E00
0C00
ENDCHAR
STARTCHAR at
ENCODING 64
SWIDTH 1412 0
DWIDTH 24 0
BBX 22 17 1 -3
BITMAP
01FE00
078780
1E01E0
380070
70FC38
71CF38
E3871C
E7071C
E70E1C
E70E38
E39F78
71FFE0
700000
380000
1E0000
078700
01FC00
ENDCHAR
STARTCHAR A
ENCODING 65
SWIDTH 1125 0
DWIDTH 18 0
BBX 17 16 1 0
BITMAP
01C000
01C000
03E000
03E000
077000
067000
067000
0E3800
0C3800
0C3800
1FFC00
181C00
380E00
300E00
300E00
FC3F80
ENDCHAR
STARTCHAR B
ENCODING 66
SWIDTH 1063 0
DWIDTH 17 0
BBX 15 16 1 0
BITMAP
FFF0
3838
381C
381C
381C
381C
3838
3FF8
383C
381C
380E
380E
380E
381C
383C
FFF0
ENDCHAR
STARTCHAR C
ENCODING 67
SWIDTH 1000 0
DWIDTH 16 0
BBX 14 16 1 0
BITMAP
07EC
1E7C
381C
700C
700C
E000
E000
E000
E000
E000
E000
7000
700C
3818
1E70
07C0
ENDCHAR
STARTCHAR D
ENCODING 68
SWIDTH 1125 0
DWIDTH 18 0
BBX 16 16 1 0
BITMAP
FFE0
3878
381C
380E
380E
3807
3807
3807
3807
3807
3807
380E
380E
381C
3878
FFE0
ENDCHAR
STARTCHAR E
ENCODING 69
SWIDTH 938 0
DWIDTH 15 0
BBX 13 16 1 0
BITMAP
FFF0
3870
3830
3800
3800
38C0
38C0
3FC0
38C0
38C0
3800
3800
3800
3818
3838
FFF0
ENDCHAR
STARTCHAR F
ENCODING 70
SWIDTH 875 0
DWIDTH 14 0
BBX 12 16 1 0
BITMAP
FFF0
3870
3830
3800
3800
38C0
38C0
3FC0
38C0
38C0
3800
3800
3800
3800
3800
FE00
ENDCHAR
STARTCHAR G
ENCODING 71
SWIDTH 1125 0
DWIDTH 18 0
BBX 17 16 1 0
BITMAP
07EC00
1E3C00
381C00
700C00
700C00
E00000
E00000
E00000
E03F80
E00E00
E00E00
700E00
700E00
380C00
1E3800
07E000
ENDCHAR
STARTCHAR H
ENCODING 72
SWIDTH 1125 0
DWIDTH 18 0
BBX 16 16 1 0
BITMAP
FE7F
381C
381C
381C
381C
381C
381C
3FFC
381C
381C
381C
381C
381C
381C
381C
FE7F
ENDCHAR
STARTCHAR I
ENCODING 73
SWIDTH 563 0
DWIDTH 9 0
BBX 7 16 1 0
BITMAP
FE
38
38
38
38
38
38
38
38
38
38
38
38
38
38
FE
ENDCHAR
STARTCHAR J
ENCODING 74
SWIDTH 688 0
DWIDTH 11 0
BBX 9 16 1 0
BITMAP
3F80
0E00
0E00
0E00
0E00
0E00
0E00
0E00
0E00
0E00
0E00
0E00
0E00
EE00
EE00
7C00
ENDCHAR
STARTCHAR K
ENCODING 75
SWIDTH 1125 0
DWIDTH 18 0
BBX 17 16 1 0
BITMAP
FE7E00
383800
387000
38E000
39C000
3B8000
3F8000
3F8000
3DC000
38E000
38E000
387000
383800
383800
381C00
FE7F80
ENDCHAR
STARTCHAR L
ENCODING 76
SWIDTH 875 0
DWIDTH 14 0
BBX 13 16 1 0
BITMAP
FF00
3800
3800
3800
3800
3800
3800
3800
3800
3800
3800
3800
3800
3818
3838
FFF0
ENDCHAR
STARTCHAR M
ENCODING 77
SWIDTH 1375 0
DWIDTH 22 0
BBX 20 16 1 0
BITMAP
FC03F0
3C03C0
3E03C0
3E07C0
3E07C0
3707C0
370FC0
338DC0
338DC0
339DC0
31D9C0
31F9C0
30F1C0
30F1C0
30F1C0
FC63F0
ENDCHAR
STARTCHAR N
ENCODING 78
SWIDTH 1125 0
DWIDTH 18 0
BBX 16 16 1 0
BITMAP
F83F
380C
3C0C
3E0C
3E0C
370C
338C
338C
31CC
30EC
30EC
307C
303C
303C
301C
FC0C
ENDCHAR
STARTCHAR O
ENCODING 79
SWIDTH 1125 0
DWIDTH 18 0
BBX 16 16 1 0
BITMAP
07E0
1E78
381C
700E
700E
E007
E007
E007
E007
E007
E007
700E
700E
381C
1E78
07E0
ENDCHAR
STARTCHAR P
ENCODING 80
SWIDTH 938 0
DWIDTH 15 0
BBX 13 16 1 0
BITMAP
FFC0
38F0
3870
3838
3838
3838
3870
38F0
3FC0
3800
3800
3800
3800
3800
3800
FE00
ENDCHAR
STARTCHAR Q
ENCODING 81
SWIDTH 947 0
DWIDTH 18 0
BBX 16 19 1 -3
BITMAP
07E0
1E78
381C
700E
700E
E007
E007
E007
E007
E007
E007
700E
700E
381C
1E78
07E0
03E0
01F0
007E
ENDCHAR
STARTCHAR R
ENCODING 82
SWIDTH 1063 0
DWIDTH 17 0
BBX 16 16 1 0
BITMAP
FFE0
3878
3838
381C
381C
381C
3838
3878
3FE0
38E0
38F0
3870
3878
3838
383C
FE1F
ENDCHAR
STARTCHAR S
ENCODING 83
SWIDTH 875 0
DWIDTH 14 0
BBX 12 16 1 0
BITMAP
3FE0
71E0
E0E0
E060
F060
7800
7E00
1F80
07E0
01E0
00F0
C070
C070
E0E0
F1E0
FF80
ENDCHAR
STARTCHAR T
ENCODING 84
SWIDTH 1063 0
DWIDTH 17 0
BBX 15 16 1 0
BITMAP
FFFE
E38E
C386
C386
0380
0380
0380
0380
0380
0380
0380
0380
0380
0380
0380
0FE0
ENDCHAR
STARTCHAR U
ENCODING 85
SWIDTH 1125 0
DWIDTH 18 0
BBX 16 16 1 0
BITMAP
FE3F
380C
380C
380C
380C
380C
380C
380C
380C
380C
380C
380C
380C
1C18
1E38
07E0
ENDCHAR
STARTCHAR V
ENCODING 86
SWIDTH 1125 0
DWIDTH 18 0
BBX 18 16 0 0
BITMAP
FE1FC0
700F00
380600
380600
1C0C00
1C0C00
0E1800
0E1800
071800
073000
03B000
03E000
01E000
01E000
00C000
00C000
ENDCHAR
STARTCHAR W
ENCODING 87
SWIDTH 1438 0
DWIDTH 23 0
BBX 23 16 0 0
BITMAP
FDFFFE
787878
383830
383830
383830
1C7C60
1C7C60
1C7C60
0ECEC0
0ECEC0
0ECEC0
078780
078780
038780
030300
030300
ENDCHAR
STARTCHAR X
ENCODING 88
SWIDTH 1188 0
DWIDTH 19 0
BBX 17 16 1 0
BITMAP
FF3F00
3C0C00
1C1800
0E1800
073000
03E000
01C000
01E000
01E000
037000
063800
063800
0C1C00
180E00
3C0E00
FF3F80
ENDCHAR
STARTCHAR Y
ENCODING 89
SWIDTH 1188 0
DWIDTH 19 0
BBX 19 16 0 0
BITMAP
FF0FE0
3C0380
1E0700
0E0600
0F0E00
079C00
039800
03F800
01F000
00E000
00E000
00E000
00E000
00E000
00E000
03F800
ENDCHAR
STARTCHAR Z
ENCODING 90
SWIDTH 1000 0
DWIDTH 16 0
BBX 14 16 1 0
BITMAP
7FFC
7078
6070
00F0
01E0
01C0
03C0
0780
0700
0F00
1E00
1C00
3C00
780C
701C
FFFC
ENDCHAR
STARTCHAR bracketleft
ENCODING 91
SWIDTH 409 0
DWIDTH 9 0
BBX 6 22 2 -5
BITMAP
FC
F0
E0
E0
E0
E0
E0
E0
E0
E0
E0
E0
E0
E0
E0
E0
E0
E0
E0
E0
F0
FC
ENDCHAR
STARTCHAR backslash
ENCODING 92
SWIDTH 471 0
DWIDTH 8 0
BBX 8 17 0 0
BITMAP
E0
E0
E0
70
70
70
38
38
38
1C
1C
1C
0E
0E
0E
07
07
ENDCHAR
STARTCHAR bracketright
ENCODING 93
SWIDTH 409 0
DWIDTH 9 0
BBX 6 22 1 -5
BITMAP
FC
3C
1C
1C
1C
1C
1C
1C
1C
1C
1C
1C
1C
1C
1C
1C
1C
1C
1C
1C
3C
FC
ENDCHAR
STARTCHAR asciicircum
ENCODING 94
SWIDTH 2400 0
DWIDTH 12 0
BBX 10 5 1 12
BITMAP
0C00
1E00
3F00
7380
E1C0
ENDCHAR
STARTCHAR underscore
ENCODING 95
SWIDTH 6500 0
DWIDTH 13 0
BBX 13 2 0 -4
BITMAP
FFF8
FFF8
ENDCHAR
STARTCHAR grave
ENCODING 96
SWIDTH 3000 0
DWIDTH 9 0
BBX 5 3 2 14
BITMAP
E0
70
18
ENDCHAR
STARTCHAR a
ENCODING 97
SWIDTH 1091 0
DWIDTH 12 0
BBX 11 11 1 0
BITMAP
3F00
7380
7380
0380
0F80
3F80
7380
E380
E7E0
FFE0
7DC0
ENDCHAR
STARTCHAR b
ENCODING 98
SWIDTH 706 0
DWIDTH 12 0
BBX 11 17 1 0
BITMAP
3000
F000
7000
7000
7000
7000
7F80
79C0
70E0
70E0
70E0
70E0
70E0
70E0
70E0
39C0
1F00
ENDCHAR
STARTCHAR c
ENCODING 99
SWIDTH 1000 0
DWIDTH 11 0
BBX 10 11 1 0
BITMAP
1F80
71C0
61C0
E000
E000
E000
E000
E000
70C0
39C0
1F80
ENDCHAR
STARTCHAR d
ENCODING 100
SWIDTH 706 0
DWIDTH 12 0
BBX 11 17 1 0
BITMAP
00C0
03C0
01C0
01C0
01C0
01C0
3FC0
73C0
E1C0
E1C0
E1C0
E1C0
E1C0
E1C0
E1C0
73E0
3F80
ENDCHAR
STARTCHAR e
ENCODING 101
SWIDTH 1000 0
DWIDTH 11 0
BBX 10 11 1 0
BITMAP
3F00
7380
E1C0
E1C0
FFC0
E000
E000
E000
71C0
7B80
1F00
ENDCHAR
STARTCHAR f
ENCODING 102
SWIDTH 471 0
DWIDTH 8 0
BBX 7 17 1 0
BITMAP
3C
7E
7E
70
70
70
FC
70
70
70
70
70
70
70
70
70
FC
ENDCHAR
STARTCHAR g
ENCODING 103
SWIDTH 765 0
DWIDTH 13 0
BBX 13 17 0 -6
BITMAP
1F00
3BC0
71F0
71C0
71C0
71C0
3B80
3F00
7000
7800
3FC0
18F0
7078
E038
E038
F070
7FC0
ENDCHAR
STARTCHAR h
ENCODING 104
SWIDTH 706 0
DWIDTH 12 0
BBX 11 17 1 0
BITMAP
3000
F000
7000
7000
7000
7000
7780
7FC0
79C0
71C0
71C0
71C0
71C0
71C0
71C0
71C0
FBE0
ENDCHAR
STARTCHAR i
ENCODING 105
SWIDTH 353 0
DWIDTH 6 0
BBX 5 17 1 0
BITMAP
70
70
00
00
00
00
30
F0
70
70
70
70
70
70
70
70
F8
ENDCHAR
STARTCHAR j
ENCODING 106
SWIDTH 273 0
DWIDTH 6 0
BBX 6 22 0 -5
BITMAP
38
38
00
00
00
00
0C
3C
1C
1C
1C
1C
1C
1C
1C
1C
1C
1C
1C
FC
FC
78
ENDCHAR
STARTCHAR k
ENCODING 107
SWIDTH 765 0
DWIDTH 13 0
BBX 12 17 1 0
BITMAP
3000
F000
7000
7000
7000
7000
77C0
7300
7600
7C00
7C00
7C00
7E00
7700
7380
71C0
FBF0
ENDCHAR
STARTCHAR l
ENCODING 108
SWIDTH 353 0
DWIDTH 6 0
BBX 5 17 1 0
BITMAP
30
F0
70
70
70
70
70
70
70
70
70
70
70
70
70
70
F8
ENDCHAR
STARTCHAR m
ENCODING 109
SWIDTH 1636 0
DWIDTH 18 0
BBX 17 11 1 0
BITMAP
379E00
FFFF00
79E700
71C700
71C700
71C700
71C700
71C700
71C700
71C700
FBEF80
ENDCHAR
STARTCHAR n
ENCODING 110
SWIDTH 1091 0
DWIDTH 12 0
BBX 11 11 1 0
BITMAP
3780
FFC0
79C0
71C0
71C0
71C0
71C0
71C0
71C0
71C0
FBE0
ENDCHAR
STARTCHAR o
ENCODING 111
SWIDTH 1091 0
DWIDTH 12 0
BBX 11 11 1 0
BITMAP
0F00
3B80
71C0
E0E0
E0E0
E0E0
E0E0
E0E0
71C0
3B80
1E00
ENDCHAR
STARTCHAR p
ENCODING 112
SWIDTH 750 0
DWIDTH 12 0
BBX 11 16 1 -5
BITMAP
3F80
F9C0
70E0
70E0
70E0
70E0
70E0
70E0
70E0
79C0
7F00
7000
7000
7000
7000
F800
ENDCHAR
STARTCHAR q
ENCODING 113
SWIDTH 750 0
DWIDTH 12 0
BBX 11 16 1 -5
BITMAP
3FC0
73C0
E1C0
E1C0
E1C0
E1C0
E1C0
E1C0
E1C0
73C0
3FC0
01C0
01C0
01C0
01C0
03E0
ENDCHAR
STARTCHAR r
ENCODING 114
SWIDTH 818 0
DWIDTH 9 0
BBX 8 11 1 0
BITMAP
3F
FF
70
70
70
70
70
70
70
70
F8
ENDCHAR
STARTCHAR s
ENCODING 115
SWIDTH 909 0
DWIDTH 10 0
BBX 9 11 1 0
BITMAP
3F00
7700
E300
F000
7C00
1F00
0780
C380
E380
F700
DE00
ENDCHAR
STARTCHAR t
ENCODING 116
SWIDTH 533 0
DWIDTH 8 0
BBX 7 15 1 0
BITMAP
30
30
70
70
FC
70
70
70
70
70
70
70
70
7E
3C
ENDCHAR
STARTCHAR u
ENCODING 117
SWIDTH 1091 0
DWIDTH 12 0
BBX 11 11 1 0
BITMAP
F3C0
71C0
71C0
71C0
71C0
71C0
71C0
71C0
73C0
3FE0
1D80
ENDCHAR
STARTCHAR v
ENCODING 118
SWIDTH 1091 0
DWIDTH 12 0
BBX 12 11 0 0
BITMAP
F8F0
7060
7060
38C0
38C0
1D80
1D80
0F00
0F00
0600
0600
ENDCHAR
STARTCHAR w
ENCODING 119
SWIDTH 1636 0
DWIDTH 18 0
BBX 18 11 0 0
BITMAP
FBE3C0
71C180
71C180
38E300
38E300
1DF600
1DF600
0F3C00
0F3C00
061800
061800
ENDCHAR
STARTCHAR x
ENCODING 120
SWIDTH 1182 0
DWIDTH 13 0
BBX 11 11 1 0
BITMAP
FBE0
7180
3B00
3F00
1E00
0E00
0F00
1F00
3380
71C0
FBE0
ENDCHAR
STARTCHAR y
ENCODING 121
SWIDTH 875 0
DWIDTH 14 0
BBX 12 16 1 -5
BITMAP
F8F0
7060
7060
38C0
38C0
1D80
1D80
0F00
0F00
0600
0600
0C00
0C00
1800
F800
F000
ENDCHAR
STARTCHAR z
ENCODING 122
SWIDTH 1091 0
DWIDTH 12 0
BBX 10 11 1 0
BITMAP
7FC0
6380
6700
0700
0E00
1C00
1C00
3800
70C0
70C0
FFC0
ENDCHAR
STARTCHAR braceleft
ENCODING 123
SWIDTH 500 0
DWIDTH 11 0
BBX 6 22 3 -5
BITMAP
0C
38
70
70
70
70
70
70
70
70
70
E0
70
70
70
70
70
70
70
70
30
18
ENDCHAR
STARTCHAR bar
ENCODING 124
SWIDTH 412 0
DWIDTH 7 0
BBX 3 17 2 0
BITMAP
E0
E0
E0
E0
E0
E0
E0
E0
E0
E0
E0
E0
E0
E0
E0
E0
E0
ENDCHAR
STARTCHAR braceright
ENCODING 125
SWIDTH 500 0
DWIDTH 11 0
BBX 5 22 3 -5
BITMAP
C0
60
70
70
70
70
70
70
70
70
70
38
70
70
70
70
70
70
70
70
60
C0
ENDCHAR
STARTCHAR asciitilde
ENCODING 126
SWIDTH 3250 0
DWIDTH 13 0
BBX 11 4 1 13
BITMAP
3C60
7EE0
EFC0
C780
ENDCHAR
STARTCHAR bullet
ENCODING 149
SWIDTH 1286 0
DWIDTH 9 0
BBX 8 7 1 2
BITMAP
3C
7E
FF
FF
FF
7E
3C
ENDCHAR
STARTCHAR space
ENCODING 154
SWIDTH 292 0
DWIDTH 7 0
BBX 0 0 0 0
BITMAP
ENDCHAR
STARTCHAR degree
ENCODING 156
SWIDTH 1500 0
DWIDTH 9 0
BBX 7 6 1 12
BITMAP
38
7C
EE
EE
7C
38
ENDCHAR
STARTCHAR twosuperior
ENCODING 157
SWIDTH 875 0
DWIDTH 7 0
BBX 6 8 0 9
BITMAP
78
FC
1C
1C
38
70
6C
FC
ENDCHAR
STARTCHAR periodcentered
ENCODING 158
SWIDTH 2250 0
DWIDTH 9 0
BBX 4 4 4 4
BITMAP
60
F0
F0
60
ENDCHAR
STARTCHAR afii10071
ENCODING 163
SWIDTH 667 0
DWIDTH 10 0
BBX 10 15 1 0
BITMAP
3300
7F80
3300
0000
3F00
7380
E1C0
E1C0
FFC0
E000
E000
E000
71C0
7B80
1F00
ENDCHAR
STARTCHAR afii10023
ENCODING 179
SWIDTH 700 0
DWIDTH 14 0
BBX 14 20 1 0
BITMAP
38E0
7DF0
38E0
0000
FFF8
3838
3818
3800
3800
3860
3860
3FE0
3860
3860
3800
3800
3800
380C
381C
FFF8
ENDCHAR
STARTCHAR copyright
ENCODING 191
SWIDTH 1188 0
DWIDTH 19 0
BBX 17 16 1 1
BITMAP
07F000
1E3C00
380E00
700700
73F700
E77380
EE3380
EE0380
EE0380
EE3380
E76380
73C700
700700
380E00
1E3C00
07F000
ENDCHAR
STARTCHAR afii10096
ENCODING 192
SWIDTH 1545 0
DWIDTH 17 0
BBX 16 11 1 0
BITMAP
F8F8
71DC
738E
7707
7707
7F07
7707
7707
738E
71DC
F8F8
ENDCHAR
STARTCHAR afii10065
ENCODING 193
SWIDTH 1091 0
DWIDTH 12 0
BBX 11 11 1 0
BITMAP
3F00
7380
7380
0380
0F80
3F80
7380
E380
E7E0
FFE0
7DC0
ENDCHAR
STARTCHAR afii10066
ENCODING 194
SWIDTH 688 0
DWIDTH 11 0
BBX 10 16 1 0
BITMAP
0180
3F00
7000
E000
E000
FF00
F380
E1C0
E1C0
E1C0
E1C0
E1C0
E1C0
E1C0
7380
3E00
ENDCHAR
STARTCHAR afii10088
ENCODING 195
SWIDTH 1077 0
DWIDTH 14 0
BBX 13 13 1 -2
BITMAP
F9F0
70E0
70E0
70E0
70E0
70E0
70E0
70E0
70E0
70E0
FFF8
0038
0018
ENDCHAR
STARTCHAR afii10069
ENCODING 196
SWIDTH 1077 0
DWIDTH 14 0
BBX 13 13 1 -2
BITMAP
3FF0
18E0
18E0
18E0
18E0
18E0
18E0
18E0
18E0
30E0
FFF8
E038
C018
ENDCHAR
STARTCHAR afii10070
ENCODING 197
SWIDTH 1000 0
DWIDTH 11 0
BBX 10 11 1 0
BITMAP
3F00
7380
E1C0
E1C0
FFC0
E000
E000
E000
E1C0
7380
3F00
ENDCHAR
STARTCHAR afii10086
ENCODING 198
SWIDTH 700 0
DWIDTH 14 0
BBX 13 20 1 -5
BITMAP
0F80
0700
0700
0700
1FC0
3FE0
7770
E738
E738
E738
E738
E738
7770
3FE0
1FC0
0700
0700
0700
0700
0F80
ENDCHAR
STARTCHAR afii10068
ENCODING 199
SWIDTH 909 0
DWIDTH 10 0
BBX 9 11 1 0
BITMAP
FF80
7180
7180
7000
7000
7000
7000
7000
7000
7000
F800
ENDCHAR
STARTCHAR afii10087
ENCODING 200
SWIDTH 1091 0
DWIDTH 12 0
BBX 11 11 1 0
BITMAP
FBE0
7180
3B00
3F00
1E00
0E00
0F00
1F00
3380
71C0
FBE0
ENDCHAR
STARTCHAR afii10074
ENCODING 201
SWIDTH 1182 0
DWIDTH 13 0
BBX 12 11 1 0
BITMAP
F9F0
71E0
73E0
73E0
76E0
76E0
7CE0
7CE0
78E0
78E0
F9F0
ENDCHAR
STARTCHAR afii10075
ENCODING 202
SWIDTH 929 0
DWIDTH 13 0
BBX 12 14 1 0
BITMAP
1F80
0F00
0000
F9F0
71E0
73E0
73E0
76E0
76E0
7CE0
7CE0
78E0
78E0
F9F0
ENDCHAR
STARTCHAR afii10076
ENCODING 203
SWIDTH 1182 0
DWIDTH 13 0
BBX 12 11 1 0
BITMAP
F9E0
73E0
7300
7600
7C00
7C00
7E00
7700
7380
71C0
FBF0
ENDCHAR
STARTCHAR afii10077
ENCODING 204
SWIDTH 1182 0
DWIDTH 13 0
BBX 12 11 1 0
BITMAP
3FF0
18E0
18E0
18E0
18E0
18E0
18E0
18E0
18E0
F8E0
F1F0
ENDCHAR
STARTCHAR afii10078
ENCODING 205
SWIDTH 1455 0
DWIDTH 16 0
BBX 15 11 1 0
BITMAP
F03E
783C
787C
7C7C
7CDC
6EDC
6F9C
679C
679C
631C
F03E
ENDCHAR
STARTCHAR afii10079
ENCODING 206
SWIDTH 1182 0
DWIDTH 13 0
BBX 12 11 1 0
BITMAP
F9F0
70E0
70E0
70E0
70E0
7FE0
70E0
70E0
70E0
70E0
F9F0
ENDCHAR
STARTCHAR afii10080
ENCODING 207
SWIDTH 1091 0
DWIDTH 12 0
BBX 11 11 1 0
BITMAP
3F80
71C0
E0E0
E0E0
E0E0
E0E0
E0E0
E0E0
E0E0
71C0
3F80
ENDCHAR
STARTCHAR afii10081
ENCODING 208
SWIDTH 1182 0
DWIDTH 13 0
BBX 12 11 1 0
BITMAP
FFF0
70E0
70E0
70E0
70E0
70E0
70E0
70E0
70E0
70E0
F9F0
ENDCHAR
STARTCHAR afii10097
ENCODING 209
SWIDTH 1273 0
DWIDTH 14 0
BBX 13 11 1 0
BITMAP
1FF8
3870
3870
3870
3870
1FF0
0E70
1C70
1C70
3870
F8F8
ENDCHAR
STARTCHAR afii10082
ENCODING 210
SWIDTH 750 0
DWIDTH 12 0
BBX 11 16 1 -5
BITMAP
FF80
71C0
70E0
70E0
70E0
70E0
70E0
70E0
70E0
71C0
7F80
7000
7000
7000
7000
F800
ENDCHAR
STARTCHAR afii10083
ENCODING 211
SWIDTH 1000 0
DWIDTH 11 0
BBX 10 11 1 0
BITMAP
3F80
71C0
E1C0
E000
E000
E000
E000
E000
E0C0
71C0
3F80
ENDCHAR
STARTCHAR afii10084
ENCODING 212
SWIDTH 1091 0
DWIDTH 12 0
BBX 11 11 1 0
BITMAP
FFE0
CE60
0E00
0E00
0E00
0E00
0E00
0E00
0E00
0E00
1F00
ENDCHAR
STARTCHAR afii10085
ENCODING 213
SWIDTH 813 0
DWIDTH 13 0
BBX 12 16 1 -5
BITMAP
F8F0
7060
7060
38C0
38C0
1D80
1D80
0F00
0F00
0600
0600
0C00
0C00
1800
F800
F000
ENDCHAR
STARTCHAR afii10072
ENCODING 214
SWIDTH 1727 0
DWIDTH 19 0
BBX 19 11 0 0
BITMAP
79F3C0
7CE7C0
0CE600
06EC00
03F800
03F800
07FC00
0EEE00
1CE700
38E380
FDF7E0
ENDCHAR
STARTCHAR afii10067
ENCODING 215
SWIDTH 1000 0
DWIDTH 11 0
BBX 10 11 1 0
BITMAP
FF00
7380
7380
7380
7380
7F00
7380
71C0
71C0
71C0
FF80
ENDCHAR
STARTCHAR afii10094
ENCODING 216
SWIDTH 1000 0
DWIDTH 11 0
BBX 10 11 1 0
BITMAP
F800
7000
7000
7000
7F80
71C0
71C0
71C0
71C0
71C0
FF80
ENDCHAR
STARTCHAR afii10093
ENCODING 217
SWIDTH 1455 0
DWIDTH 16 0
BBX 15 11 1 0
BITMAP
F83E
701C
701C
701C
7F9C
71DC
71DC
71DC
71DC
71DC
FFBE
ENDCHAR
STARTCHAR afii10073
ENCODING 218
SWIDTH 1000 0
DWIDTH 11 0
BBX 10 11 1 0
BITMAP
FF00
E380
C1C0
01C0
0380
1F00
0380
01C0
C1C0
E380
FF00
ENDCHAR
STARTCHAR afii10090
ENCODING 219
SWIDTH 1636 0
DWIDTH 18 0
BBX 17 11 1 0
BITMAP
FBEF80
71C700
71C700
71C700
71C700
71C700
71C700
71C700
71C700
71C700
FFFF80
ENDCHAR
STARTCHAR afii10095
ENCODING 220
SWIDTH 1000 0
DWIDTH 11 0
BBX 10 11 1 0
BITMAP
7F00
E380
C1C0
01C0
01C0
3FC0
01C0
01C0
C1C0
E380
7F00
ENDCHAR
STARTCHAR afii10091
ENCODING 221
SWIDTH 1462 0
DWIDTH 19 0
BBX 18 13 1 -2
BITMAP
FBEF80
71C700
71C700
71C700
71C700
71C700
71C700
71C700
71C700
71C700
FFFFC0
0001C0
0000C0
ENDCHAR
STARTCHAR afii10089
ENCODING 222
SWIDTH 1182 0
DWIDTH 13 0
BBX 12 11 1 0
BITMAP
F9F0
70E0
70E0
70E0
70E0
70E0
3FE0
00E0
00E0
00E0
01F0
ENDCHAR
STARTCHAR afii10092
ENCODING 223
SWIDTH 1273 0
DWIDTH 14 0
BBX 13 11 1 0
BITMAP
FF00
EE00
CE00
CE00
0FF0
0E38
0E38
0E38
0E38
0E38
1FF0
ENDCHAR
STARTCHAR afii10048
ENCODING 224
SWIDTH 1500 0
DWIDTH 24 0
BBX 22 16 1 0
BITMAP
F81F80
7079E0
70E070
71C038
71C038
73801C
73801C
7F801C
73801C
73801C
73801C
71C038
71C038
70E070
7079E0
F81F80
ENDCHAR
STARTCHAR afii10017
ENCODING 225
SWIDTH 1125 0
DWIDTH 18 0
BBX 17 16 1 0
BITMAP
01C000
01C000
03E000
03E000
077000
067000
067000
0E3800
0C3800
0C3800
1FFC00
181C00
380E00
300E00
300E00
FC3F80
ENDCHAR
STARTCHAR afii10018
ENCODING 226
SWIDTH 1000 0
DWIDTH 16 0
BBX 14 16 1 0
BITMAP
FFF8
7038
7018
7000
7000
7000
7FE0
7078
7038
701C
701C
701C
701C
7038
7078
FFE0
ENDCHAR
STARTCHAR afii10040
ENCODING 227
SWIDTH 895 0
DWIDTH 17 0
BBX 15 19 1 -3
BITMAP
F87C
7038
7038
7038
7038
7038
7038
7038
7038
7038
7038
7038
7038
7038
7038
FFFE
000E
0006
0006
ENDCHAR
STARTCHAR afii10021
ENCODING 228
SWIDTH 947 0
DWIDTH 18 0
BBX 16 19 1 -3
BITMAP
3FFE
181C
181C
181C
181C
181C
181C
181C
181C
181C
181C
181C
181C
181C
301C
FFFF
E007
C003
C003
ENDCHAR
STARTCHAR afii10022
ENCODING 229
SWIDTH 938 0
DWIDTH 15 0
BBX 13 16 1 0
BITMAP
FFF0
7070
7030
7000
7000
7000
70C0
7FC0
70C0
7000
7000
7000
7000
7018
7038
FFF8
ENDCHAR
STARTCHAR afii10038
ENCODING 230
SWIDTH 1056 0
DWIDTH 19 0
BBX 17 18 1 -1
BITMAP
03E000
01C000
07F000
1FFC00
39CE00
71C700
71C700
E1C380
E1C380
E1C380
E1C380
71C700
71C700
39CE00
1FFC00
07F000
01C000
03E000
ENDCHAR
STARTCHAR afii10020
ENCODING 231
SWIDTH 938 0
DWIDTH 15 0
BBX 13 16 1 0
BITMAP
FFF8
7038
7018
7000
7000
7000
7000
7000
7000
7000
7000
7000
7000
7000
7000
F800
ENDCHAR
STARTCHAR afii10039
ENCODING 232
SWIDTH 1188 0
DWIDTH 19 0
BBX 17 16 1 0
BITMAP
FF3F80
3C0E00
1C1800
0E1800
073000
03E000
01C000
01E000
01E000
037000
063800
063800
0C1C00
180E00
3C0E00
FF3F80
ENDCHAR
STARTCHAR afii10026
ENCODING 233
SWIDTH 1000 0
DWIDTH 16 0
BBX 14 16 1 0
BITMAP
F87C
7078
7078
70F8
70F8
71B8
71B8
7338
7338
7638
7638
7C38
7C38
7838
7838
F87C
ENDCHAR
STARTCHAR afii10027
ENCODING 234
SWIDTH 800 0
DWIDTH 16 0
BBX 14 20 1 0
BITMAP
18C0
1DC0
0F80
0000
F87C
7078
7078
70F8
70F8
71B8
71B8
7338
7338
7638
7638
7C38
7C38
7838
7838
F87C
ENDCHAR
STARTCHAR afii10028
ENCODING 235
SWIDTH 1000 0
DWIDTH 16 0
BBX 15 16 1 0
BITMAP
FE3C
387C
38C0
38C0
3980
3980
3F00
3F80
3B80
39C0
39C0
38E0
3870
3870
3838
FE7E
ENDCHAR
STARTCHAR afii10029
ENCODING 236
SWIDTH 1063 0
DWIDTH 17 0
BBX 15 16 1 0
BITMAP
1FFE
0C1C
0C1C
0C1C
0C1C
0C1C
0C1C
0C1C
0C1C
0C1C
0C1C
0C1C
0C1C
FC1C
FC1C
787E
ENDCHAR
STARTCHAR afii10030
ENCODING 237
SWIDTH 1250 0
DWIDTH 20 0
BBX 18 16 1 0
BITMAP
F807C0
780780
7C0780
7C0F80
7C0F80
6E0F80
6E1F80
671B80
671B80
673B80
63B380
63F380
61E380
61E380
61E380
F0C7C0
ENDCHAR
STARTCHAR afii10031
ENCODING 238
SWIDTH 1000 0
DWIDTH 16 0
BBX 14 16 1 0
BITMAP
F87C
7038
7038
7038
7038
7038
7038
7FF8
7038
7038
7038
7038
7038
7038
7038
F87C
ENDCHAR
STARTCHAR afii10032
ENCODING 239
SWIDTH 1125 0
DWIDTH 18 0
BBX 16 16 1 0
BITMAP
07E0
1E78
381C
781E
700E
F00F
F00F
F00F
F00F
F00F
F00F
700E
781E
381C
1E78
07E0
ENDCHAR
STARTCHAR afii10033
ENCODING 240
SWIDTH 1000 0
DWIDTH 16 0
BBX 14 16 1 0
BITMAP
FFFC
7038
7038
7038
7038
7038
7038
7038
7038
7038
7038
7038
7038
7038
7038
F87C
ENDCHAR
STARTCHAR afii10049
ENCODING 241
SWIDTH 1063 0
DWIDTH 17 0
BBX 15 16 1 0
BITMAP
07FE
1E1C
1C1C
381C
381C
381C
1C1C
1E1C
07FC
01DC
039C
071C
0E1C
1C1C
381C
F03E
ENDCHAR
STARTCHAR afii10034
ENCODING 242
SWIDTH 938 0
DWIDTH 15 0
BBX 13 16 1 0
BITMAP
FFC0
70F0
7070
7038
7038
7038
7038
7070
70F0
7FC0
7000
7000
7000
7000
7000
F800
ENDCHAR
STARTCHAR afii10035
ENCODING 243
SWIDTH 1000 0
DWIDTH 16 0
BBX 14 16 1 0
BITMAP
07EC
1E7C
381C
780C
700C
F000
E000
E000
E000
E000
F000
7000
780C
3C18
1FF0
07C0
ENDCHAR
STARTCHAR afii10036
ENCODING 244
SWIDTH 1063 0
DWIDTH 17 0
BBX 15 16 1 0
BITMAP
FFFE
E38E
C386
0380
0380
0380
0380
0380
0380
0380
0380
0380
0380
0380
0380
07C0
ENDCHAR
STARTCHAR afii10037
ENCODING 245
SWIDTH 1250 0
DWIDTH 20 0
BBX 19 16 1 0
BITMAP
FE07E0
3C0380
1E0700
0E0600
0F0E00
079C00
039800
03F800
01F000
00E000
00E000
01C000
018000
038000
3F0000
1E0000
ENDCHAR
STARTCHAR afii10024
ENCODING 246
SWIDTH 1500 0
DWIDTH 24 0
BBX 23 16 1 0
BITMAP
78FE3C
7C387C
0638C0
0638C0
033980
033980
01FF00
03FF80
03BB80
0739C0
0739C0
0E38E0
1C3870
1C3870
383838
FCFE7E
ENDCHAR
STARTCHAR afii10019
ENCODING 247
SWIDTH 1000 0
DWIDTH 16 0
BBX 14 16 1 0
BITMAP
FFE0
7070
7038
7038
7038
7038
7070
7FF0
7078
7038
701C
701C
701C
7038
7078
FFE0
ENDCHAR
STARTCHAR afii10046
ENCODING 248
SWIDTH 1000 0
DWIDTH 16 0
BBX 14 16 1 0
BITMAP
F800
7000
7000
7000
7000
7000
7FF0
7038
701C
701C
701C
701C
701C
701C
7038
FFF0
ENDCHAR
STARTCHAR afii10045
ENCODING 249
SWIDTH 1313 0
DWIDTH 21 0
BBX 19 16 1 0
BITMAP
F803E0
7001C0
7001C0
7001C0
7001C0
7001C0
7FF1C0
7039C0
701DC0
701DC0
701DC0
701DC0
701DC0
701DC0
7039C0
FFF3E0
ENDCHAR
STARTCHAR afii10025
ENCODING 250
SWIDTH 813 0
DWIDTH 13 0
BBX 11 16 1 0
BITMAP
FF00
E1C0
C0E0
00E0
00E0
00E0
01C0
0F80
01C0
00E0
00E0
00E0
00E0
C0E0
E1C0
FF00
ENDCHAR
STARTCHAR afii10042
ENCODING 251
SWIDTH 1313 0
DWIDTH 21 0
BBX 19 16 1 0
BITMAP
F9F3E0
70E1C0
70E1C0
70E1C0
70E1C0
70E1C0
70E1C0
70E1C0
70E1C0
70E1C0
70E1C0
70E1C0
70E1C0
70E1C0
70E1C0
FFFFE0
ENDCHAR
STARTCHAR afii10047
ENCODING 252
SWIDTH 875 0
DWIDTH 14 0
BBX 12 16 1 0
BITMAP
FF80
E0E0
C070
0070
0070
0070
1870
1FF0
1870
0070
0070
0070
0070
C070
E0E0
FF80
ENDCHAR
STARTCHAR afii10043
ENCODING 253
SWIDTH 1158 0
DWIDTH 22 0
BBX 20 19 1 -3
BITMAP
F9F3E0
70E1C0
70E1C0
70E1C0
70E1C0
70E1C0
70E1C0
70E1C0
70E1C0
70E1C0
70E1C0
70E1C0
70E1C0
70E1C0
70E1C0
FFFFF0
000070
000030
000030
ENDCHAR
STARTCHAR afii10041
ENCODING 254
SWIDTH 1000 0
DWIDTH 16 0
BBX 14 16 1 0
BITMAP
F87C
7038
7038
7038
7038
7038
7038
7038
3FF8
0038
0038
0038
0038
0038
0038
007C
ENDCHAR
STARTCHAR afii10044
ENCODING 255
SWIDTH 1188 0
DWIDTH 19 0
BBX 17 16 1 0
BITMAP
FF0000
EE0000
CE0000
CE0000
0E0000
0E0000
0FFE00
0E0700
0E0380
0E0380
0E0380
0E0380
0E0380
0E0380
0E0700
1FFE00
ENDCHAR
ENDFONT
