STARTFONT 2.1
COMMENT Copyright (C) 1990-1991 EWT Consulting
COMMENT Portions Copyright (C) 1994-1995 Cronyx Ltd.
COMMENT Changes Copyright (C) 1996-1997 by Andrey A. Chernov, Moscow, Russia.
COMMENT Modified by Serge Vakulenko, <vak@cronyx.ru>
COMMENT Changes 1999 by Serge Winitzki.
COMMENT This software may be used, modified, copied, distributed, and sold,
COMMENT in both source and binary form provided that the copyright
COMMENT and these terms are retained. Under no circumstances is the author
COMMENT responsible for the proper functioning of this software, nor does
COMMENT the author assume any responsibility for damages incurred with its use.
COMMENT $XFree86$
FONT -Cronyx-Times-Bold-I-Normal--25-180-100-100-P-94-KOI8-R
SIZE 18 96 96
FONTBOUNDINGBOX 30 26 -2 -6
STARTPROPERTIES 21
DEFAULT_CHAR 32
FONT_ASCENT 21
FONT_DESCENT 6
SPACING "P"
FONTNAME_REGISTRY ""
FOUNDRY "Cronyx"
FAMILY_NAME "Times"
WEIGHT_NAME "Bold"
SLANT "I"
SETWIDTH_NAME "Normal"
ADD_STYLE_NAME ""
AVERAGE_WIDTH 94
CHARSET_REGISTRY "KOI8"
CHARSET_ENCODING "R"
PIXEL_SIZE 25
POINT_SIZE 180
RESOLUTION_X 100
RESOLUTION_Y 100
COPYRIGHT "Copyright (C) 1990, 1991 EWT Consulting, Portions Copyright (C) 1994 Cronyx Ltd., Portions Copyright (C) 1996-1997 by Andrey A. Chernov, Moscow, Russia."
_XMBDFED_INFO "Edited with xmbdfed 3.8."
_XFREE86_GLYPH_RANGES "32_126 149 154 156_158 163 179 191_255"
ENDPROPERTIES
CHARS 167
STARTCHAR space
ENCODING 32
SWIDTH 292 0
DWIDTH 7 0
BBX 0 0 -1 0
BITMAP
ENDCHAR
STARTCHAR exclam
ENCODING 33
SWIDTH 471 0
DWIDTH 8 0
BBX 8 17 1 0
BITMAP
06
0F
1E
1E
1E
1E
3C
3C
18
18
30
30
00
30
F0
F0
60
ENDCHAR
STARTCHAR quotedbl
ENCODING 34
SWIDTH 1833 0
DWIDTH 11 0
BBX 10 6 2 11
BITMAP
3180
7BC0
7BC0
6300
6300
6300
ENDCHAR
STARTCHAR numbersign
ENCODING 35
SWIDTH 765 0
DWIDTH 13 0
BBX 17 17 -1 0
BITMAP
01CE00
01CE00
039C00
039C00
039C00
0FFF00
0E7000
0E7000
0E7000
0E7000
1CE000
7FF800
39C000
39C000
738000
738000
738000
ENDCHAR
STARTCHAR dollar
ENCODING 36
SWIDTH 619 0
DWIDTH 13 0
BBX 16 21 0 -3
BITMAP
0030
0030
01FE
03FE
076E
0766
0ECC
0FC0
07C0
03F0
01F0
01F0
01F8
31B8
6370
7370
7BE0
7FC0
0600
0600
0600
ENDCHAR
STARTCHAR percent
ENCODING 37
SWIDTH 1235 0
DWIDTH 21 0
BBX 23 17 0 0
BITMAP
01F070
03BFF0
0E33C0
1C3380
1C3380
1C6700
399C00
1F1C00
003800
0071F0
00E770
01CE30
039C30
039C30
0E38C0
1C3980
1C1F00
ENDCHAR
STARTCHAR ampersand
ENCODING 38
SWIDTH 1176 0
DWIDTH 20 0
BBX 22 17 0 0
BITMAP
003C00
007E00
01CE00
01C600
01CE00
00FC00
01F000
03E7E0
0FF3C0
1C7180
387700
707E00
703E00
701E00
707EC0
7DEFC0
1F8780
ENDCHAR
STARTCHAR quotesingle
ENCODING 39
SWIDTH 1167 0
DWIDTH 7 0
BBX 5 6 3 11
BITMAP
30
78
78
60
60
60
ENDCHAR
STARTCHAR parenleft
ENCODING 40
SWIDTH 409 0
DWIDTH 9 0
BBX 12 22 -1 -5
BITMAP
0030
0060
00C0
0380
0300
0700
0700
1C00
1C00
1C00
1C00
3800
3800
3800
3800
3800
3800
1800
1C00
1800
0C00
0600
ENDCHAR
STARTCHAR parenright
ENCODING 41
SWIDTH 409 0
DWIDTH 9 0
BBX 12 22 -1 -5
BITMAP
0600
0300
0180
0380
0180
01C0
01C0
01C0
01C0
01C0
01C0
0380
0380
0380
0380
0700
0E00
0E00
0C00
3800
3000
6000
ENDCHAR
STARTCHAR asterisk
ENCODING 42
SWIDTH 1000 0
DWIDTH 9 0
BBX 10 9 2 9
BITMAP
0600
0F00
7F80
7F80
1E00
7F80
FF00
3C00
1800
ENDCHAR
STARTCHAR plus
ENCODING 43
SWIDTH 1500 0
DWIDTH 15 0
BBX 13 10 2 2
BITMAP
0380
0380
0380
0700
7FF0
7FF0
0700
0E00
0E00
0E00
ENDCHAR
STARTCHAR comma
ENCODING 44
SWIDTH 1000 0
DWIDTH 7 0
BBX 5 7 1 -3
BITMAP
30
78
78
38
30
30
60
ENDCHAR
STARTCHAR hyphen
ENCODING 45
SWIDTH 4500 0
DWIDTH 9 0
BBX 8 2 1 6
BITMAP
FF
FF
ENDCHAR
STARTCHAR period
ENCODING 46
SWIDTH 1750 0
DWIDTH 7 0
BBX 5 4 1 0
BITMAP
30
F0
F0
60
ENDCHAR
STARTCHAR slash
ENCODING 47
SWIDTH 444 0
DWIDTH 8 0
BBX 12 18 -1 -1
BITMAP
0070
0070
0070
01C0
01C0
01C0
0380
0700
0700
0E00
0E00
1C00
3800
3800
3800
E000
E000
E000
ENDCHAR
STARTCHAR zero
ENCODING 48
SWIDTH 813 0
DWIDTH 13 0
BBX 15 16 0 0
BITMAP
01F0
0770
0E38
0E38
1C1C
3838
3838
3838
3838
7070
7070
7070
38E0
71C0
3B80
1F00
ENDCHAR
STARTCHAR one
ENCODING 49
SWIDTH 813 0
DWIDTH 13 0
BBX 11 16 2 0
BITMAP
0180
0700
0F00
1F00
0700
0E00
0E00
0E00
0E00
1C00
1C00
1C00
1C00
3800
7C00
FE00
ENDCHAR
STARTCHAR two
ENCODING 50
SWIDTH 813 0
DWIDTH 13 0
BBX 15 16 0 0
BITMAP
01F0
07F0
0E78
0C38
0038
0070
0070
00E0
00E0
0380
0700
0600
0C30
30E0
7FC0
FFC0
ENDCHAR
STARTCHAR three
ENCODING 51
SWIDTH 813 0
DWIDTH 13 0
BBX 15 16 0 0
BITMAP
01F0
07F0
0E78
0038
0038
00E0
03E0
00F0
0070
0070
0070
0070
00F0
F3C0
FF80
3F00
ENDCHAR
STARTCHAR four
ENCODING 52
SWIDTH 813 0
DWIDTH 13 0
BBX 16 16 0 0
BITMAP
003C
0078
00F8
01F8
03B8
0670
0E70
1C70
3870
70E0
7FF8
7FF8
00E0
01C0
01C0
01C0
ENDCHAR
STARTCHAR five
ENCODING 53
SWIDTH 813 0
DWIDTH 13 0
BBX 15 16 0 0
BITMAP
03FC
07F0
0600
0C00
0C00
1FC0
1FF0
00F0
0078
0070
0070
0070
0070
F1C0
FBC0
3F00
ENDCHAR
STARTCHAR six
ENCODING 54
SWIDTH 813 0
DWIDTH 13 0
BBX 15 16 0 0
BITMAP
0038
01C0
0380
0700
0E00
1C00
3FC0
3EF0
3C70
7070
7070
7070
7070
71C0
7BC0
1F00
ENDCHAR
STARTCHAR seven
ENCODING 55
SWIDTH 813 0
DWIDTH 13 0
BBX 15 16 0 0
BITMAP
07FE
0FF8
1C38
1838
0070
00E0
00C0
01C0
01C0
0700
0700
0700
0E00
1C00
3800
3800
ENDCHAR
STARTCHAR eight
ENCODING 56
SWIDTH 813 0
DWIDTH 13 0
BBX 15 16 0 0
BITMAP
03F0
0E70
1C38
1C38
1E38
1E70
0FE0
0FE0
1FF0
31E0
70F0
7070
7070
71C0
7BC0
1F00
ENDCHAR
STARTCHAR nine
ENCODING 57
SWIDTH 813 0
DWIDTH 13 0
BBX 15 16 0 0
BITMAP
01F0
0F78
0E38
1C1C
1C1C
3838
3838
1C78
1EF8
0FF0
00E0
00E0
01C0
0700
0E00
3800
ENDCHAR
STARTCHAR colon
ENCODING 58
SWIDTH 727 0
DWIDTH 8 0
BBX 6 11 1 0
BITMAP
18
3C
3C
18
00
00
00
30
F0
F0
60
ENDCHAR
STARTCHAR semicolon
ENCODING 59
SWIDTH 571 0
DWIDTH 8 0
BBX 7 14 1 -3
BITMAP
0C
1E
1E
18
00
00
00
30
78
78
38
30
30
60
ENDCHAR
STARTCHAR less
ENCODING 60
SWIDTH 1154 0
DWIDTH 15 0
BBX 15 13 1 1
BITMAP
000E
003C
00F0
03C0
0780
1E00
7800
3C00
0F00
0780
03C0
01E0
0070
ENDCHAR
STARTCHAR equal
ENCODING 61
SWIDTH 2143 0
DWIDTH 15 0
BBX 14 7 1 4
BITMAP
7FFC
7FFC
0000
0000
0000
FFF8
FFF8
ENDCHAR
STARTCHAR greater
ENCODING 62
SWIDTH 1154 0
DWIDTH 15 0
BBX 15 13 2 1
BITMAP
1C00
0F00
0F00
03C0
01E0
0078
0078
00F0
03C0
0780
3C00
7800
E000
ENDCHAR
STARTCHAR question
ENCODING 63
SWIDTH 706 0
DWIDTH 12 0
BBX 14 17 0 0
BITMAP
03F0
0778
1C78
1E78
1E78
0C70
00E0
01C0
0380
0300
0600
0600
0000
0600
1E00
1E00
0C00
ENDCHAR
STARTCHAR at
ENCODING 64
SWIDTH 1412 0
DWIDTH 24 0
BBX 26 17 0 -3
BITMAP
001FE000
00787800
03C03C00
07000E00
0E1F8700
0E39E700
38E1C700
39C1C700
39C38700
39C38E00
71CFBC00
38FFF000
38000000
1C000000
1E000000
07870000
01FC0000
ENDCHAR
STARTCHAR A
ENCODING 65
SWIDTH 1125 0
DWIDTH 18 0
BBX 21 16 0 0
BITMAP
001C00
003800
007C00
007C00
00EE00
019C00
019C00
038E00
030E00
061C00
0FFE00
0C0E00
1C0700
300E00
300E00
FC3F80
ENDCHAR
STARTCHAR B
ENCODING 66
SWIDTH 1063 0
DWIDTH 17 0
BBX 19 16 0 0
BITMAP
0FFF00
070700
070380
070380
070380
0E0700
0E0E00
0FFE00
0E0F00
1C0E00
1C0700
1C0700
1C0700
381C00
383C00
FFF000
ENDCHAR
STARTCHAR C
ENCODING 67
SWIDTH 1000 0
DWIDTH 16 0
BBX 18 16 0 0
BITMAP
007EC0
03CF80
070380
0E0180
0E0180
380000
380000
380000
380000
700000
700000
380000
380600
381800
1E7000
07C000
ENDCHAR
STARTCHAR D
ENCODING 68
SWIDTH 1125 0
DWIDTH 18 0
BBX 20 16 0 0
BITMAP
0FFE00
070F00
070380
0701C0
0701C0
0E01C0
0E01C0
0E01C0
0E01C0
1C0380
1C0380
1C0700
1C0700
381C00
387800
FFE000
ENDCHAR
STARTCHAR E
ENCODING 69
SWIDTH 938 0
DWIDTH 15 0
BBX 17 16 0 0
BITMAP
0FFF00
070E00
070600
070000
070000
0E3000
0E3000
0FF000
0E3000
1C6000
1C0000
1C0000
1C0000
381800
383800
FFF000
ENDCHAR
STARTCHAR F
ENCODING 70
SWIDTH 875 0
DWIDTH 14 0
BBX 16 16 0 0
BITMAP
0FFF
070E
0706
0700
0700
0E30
0E30
0FF0
0E30
1C60
1C00
1C00
1C00
3800
3800
FE00
ENDCHAR
STARTCHAR G
ENCODING 71
SWIDTH 1125 0
DWIDTH 18 0
BBX 21 16 0 0
BITMAP
007EC0
03C780
070380
0E0180
0E0180
380000
380000
380000
380FE0
700700
700700
380700
380700
380C00
1E3800
07E000
ENDCHAR
STARTCHAR H
ENCODING 72
SWIDTH 1125 0
DWIDTH 18 0
BBX 20 16 0 0
BITMAP
0FE7F0
070380
070380
070380
070380
0E0700
0E0700
0FFF00
0E0700
1C0E00
1C0E00
1C0E00
1C0E00
381C00
381C00
FE7F00
ENDCHAR
STARTCHAR I
ENCODING 73
SWIDTH 563 0
DWIDTH 9 0
BBX 11 16 0 0
BITMAP
0FE0
0700
0700
0700
0700
0E00
0E00
0E00
0E00
1C00
1C00
1C00
1C00
3800
3800
FE00
ENDCHAR
STARTCHAR J
ENCODING 74
SWIDTH 688 0
DWIDTH 11 0
BBX 13 16 0 0
BITMAP
03F8
01C0
01C0
01C0
01C0
0380
0380
0380
0380
0700
0700
0700
0700
EE00
EE00
7C00
ENDCHAR
STARTCHAR K
ENCODING 75
SWIDTH 1125 0
DWIDTH 18 0
BBX 21 16 0 0
BITMAP
0FE7E0
070700
070E00
071C00
073800
0EE000
0FE000
0FE000
0F7000
1C7000
1C7000
1C3800
1C1C00
383800
381C00
FE7F80
ENDCHAR
STARTCHAR L
ENCODING 76
SWIDTH 875 0
DWIDTH 14 0
BBX 17 16 0 0
BITMAP
0FF000
070000
070000
070000
070000
0E0000
0E0000
0E0000
0E0000
1C0000
1C0000
1C0000
1C0000
381800
383800
FFF000
ENDCHAR
STARTCHAR M
ENCODING 77
SWIDTH 1375 0
DWIDTH 22 0
BBX 24 16 0 0
BITMAP
0FC03F
078078
07C078
07C0F8
07C0F8
0DC1F0
0DC3F0
0CE370
0CE370
19CEE0
18ECE0
18FCE0
1878E0
30F1C0
30F1C0
FC63F0
ENDCHAR
STARTCHAR N
ENCODING 78
SWIDTH 1125 0
DWIDTH 18 0
BBX 20 16 0 0
BITMAP
0F83F0
070180
078180
07C180
07C180
0DC300
0CE300
0CE300
0C7300
187600
187600
183E00
181E00
303C00
301C00
FC0C00
ENDCHAR
STARTCHAR O
ENCODING 79
SWIDTH 1125 0
DWIDTH 18 0
BBX 20 16 0 0
BITMAP
007E00
03CF00
070380
0E01C0
0E01C0
3801C0
3801C0
3801C0
3801C0
700380
700380
380700
380700
381C00
1E7800
07E000
ENDCHAR
STARTCHAR P
ENCODING 80
SWIDTH 938 0
DWIDTH 15 0
BBX 17 16 0 0
BITMAP
0FFC00
071E00
070E00
070700
070700
0E0E00
0E1C00
0E3C00
0FF000
1C0000
1C0000
1C0000
1C0000
380000
380000
FE0000
ENDCHAR
STARTCHAR Q
ENCODING 81
SWIDTH 947 0
DWIDTH 18 0
BBX 20 19 0 -3
BITMAP
007E00
01E780
0381C0
0700E0
0E01C0
1C00E0
1C00E0
1C00E0
3801C0
3801C0
3801C0
1C0380
380700
1C0E00
0F3C00
03F000
03E000
01F000
007E00
ENDCHAR
STARTCHAR R
ENCODING 82
SWIDTH 1063 0
DWIDTH 17 0
BBX 20 16 0 0
BITMAP
0FFE00
070F00
070700
070380
070380
0E0700
0E0E00
0E1E00
0FF800
1C7000
1C7800
1C3800
1C3C00
383800
383C00
FE1F00
ENDCHAR
STARTCHAR S
ENCODING 83
SWIDTH 875 0
DWIDTH 14 0
BBX 16 16 0 0
BITMAP
03FE
0E3C
1C1C
1C0C
1E0C
1E00
1F80
07E0
01F8
00F0
0078
6038
6038
E0E0
F1E0
FF80
ENDCHAR
STARTCHAR T
ENCODING 84
SWIDTH 1063 0
DWIDTH 17 0
BBX 19 16 0 0
BITMAP
0FFFE0
1C71C0
1870C0
1870C0
007000
00E000
00E000
00E000
00E000
01C000
01C000
01C000
01C000
038000
038000
0FE000
ENDCHAR
STARTCHAR U
ENCODING 85
SWIDTH 1125 0
DWIDTH 18 0
BBX 20 16 0 0
BITMAP
0FE3F0
070180
070180
070180
070180
0E0300
0E0300
0E0300
0E0300
1C0600
1C0600
1C0600
1C0600
1C1800
1E3800
07E000
ENDCHAR
STARTCHAR V
ENCODING 86
SWIDTH 1125 0
DWIDTH 18 0
BBX 22 16 -1 0
BITMAP
0FE1FC
0E01E0
0700C0
0700C0
038180
070300
038600
038600
01C600
039800
01D800
01F000
00F000
01E000
00C000
00C000
ENDCHAR
STARTCHAR W
ENCODING 87
SWIDTH 1438 0
DWIDTH 23 0
BBX 27 16 -1 0
BITMAP
0FDFFFE0
0F0F0F00
07070600
07070600
07070600
071F1800
071F1800
071F1800
03B3B000
07676000
07676000
03C3C000
03C3C000
03878000
03030000
03030000
ENDCHAR
STARTCHAR X
ENCODING 88
SWIDTH 1188 0
DWIDTH 19 0
BBX 21 16 0 0
BITMAP
0FF3F0
078180
038300
01C300
00E600
00F800
007000
007800
007800
01B800
031C00
031C00
060E00
180E00
3C0E00
FF3F80
ENDCHAR
STARTCHAR Y
ENCODING 89
SWIDTH 1188 0
DWIDTH 19 0
BBX 23 16 -1 0
BITMAP
0FF0FE
078070
03C0E0
01C0C0
01E1C0
01E700
00E600
00FE00
007C00
007000
007000
007000
007000
00E000
00E000
03F800
ENDCHAR
STARTCHAR Z
ENCODING 90
SWIDTH 1000 0
DWIDTH 16 0
BBX 18 16 0 0
BITMAP
07FFC0
0E0F00
0C0E00
001E00
003C00
007000
00F000
01E000
01C000
078000
0F0000
0E0000
1E0000
780C00
701C00
FFFC00
ENDCHAR
STARTCHAR bracketleft
ENCODING 91
SWIDTH 409 0
DWIDTH 9 0
BBX 11 22 0 -5
BITMAP
07E0
0780
0700
0E00
0E00
0E00
0E00
1C00
1C00
1C00
1C00
3800
3800
3800
3800
7000
7000
7000
7000
E000
F000
FC00
ENDCHAR
STARTCHAR backslash
ENCODING 92
SWIDTH 471 0
DWIDTH 8 0
BBX 12 17 -1 0
BITMAP
0E00
0E00
1C00
0E00
0E00
0E00
0E00
0E00
0E00
0700
0E00
0E00
0700
0700
0E00
0700
0700
ENDCHAR
STARTCHAR bracketright
ENCODING 93
SWIDTH 409 0
DWIDTH 9 0
BBX 11 22 -1 -5
BITMAP
07E0
01E0
00E0
01C0
01C0
01C0
01C0
0380
0380
0380
0380
0700
0700
0700
0700
0E00
0E00
0E00
0E00
1C00
3C00
FC00
ENDCHAR
STARTCHAR asciicircum
ENCODING 94
SWIDTH 2400 0
DWIDTH 12 0
BBX 11 5 3 12
BITMAP
0600
0F00
3F00
7380
E1C0
ENDCHAR
STARTCHAR underscore
ENCODING 95
SWIDTH 6500 0
DWIDTH 13 0
BBX 13 2 -2 -4
BITMAP
FFF8
FFF8
ENDCHAR
STARTCHAR grave
ENCODING 96
SWIDTH 3000 0
DWIDTH 9 0
BBX 5 3 4 14
BITMAP
E0
70
18
ENDCHAR
STARTCHAR a
ENCODING 97
SWIDTH 1091 0
DWIDTH 12 0
BBX 13 11 0 0
BITMAP
0FC0
1CE0
1CE0
00E0
07C0
1FC0
39C0
71C0
E7E0
FFE0
7DC0
ENDCHAR
STARTCHAR b
ENCODING 98
SWIDTH 706 0
DWIDTH 12 0
BBX 15 17 0 0
BITMAP
0300
0F00
0E00
0E00
0E00
0E00
1FE0
1E70
1C38
1C38
3870
3870
3870
3870
70E0
39C0
1F00
ENDCHAR
STARTCHAR c
ENCODING 99
SWIDTH 1000 0
DWIDTH 11 0
BBX 12 11 0 0
BITMAP
07E0
1C70
1870
3800
7000
7000
7000
7000
70C0
39C0
1F80
ENDCHAR
STARTCHAR d
ENCODING 100
SWIDTH 706 0
DWIDTH 12 0
BBX 15 17 0 0
BITMAP
000C
003C
0038
0038
0038
0038
0FF0
1CF0
3870
3870
70E0
70E0
70E0
70E0
E1C0
73E0
3F80
ENDCHAR
STARTCHAR e
ENCODING 101
SWIDTH 1000 0
DWIDTH 11 0
BBX 12 11 0 0
BITMAP
0FC0
1CE0
3870
3870
7FE0
7000
7000
7000
71C0
7B80
1F00
ENDCHAR
STARTCHAR f
ENCODING 102
SWIDTH 471 0
DWIDTH 8 0
BBX 11 17 0 0
BITMAP
03C0
07E0
0FC0
0E00
0E00
0E00
3F00
1C00
1C00
1C00
3800
3800
3800
3800
7000
7000
FC00
ENDCHAR
STARTCHAR g
ENCODING 103
SWIDTH 765 0
DWIDTH 13 0
BBX 17 17 -2 -6
BITMAP
01F000
03BC00
0E3E00
0E3800
0E3800
0E3800
0EE000
0FC000
1C0000
1E0000
1FE000
0C7800
383C00
701C00
E03800
F07000
7FC000
ENDCHAR
STARTCHAR h
ENCODING 104
SWIDTH 706 0
DWIDTH 12 0
BBX 15 17 0 0
BITMAP
0300
0F00
0E00
0E00
0E00
0E00
1DE0
1FF0
1E70
1C70
38E0
38E0
38E0
38E0
71C0
71C0
FBE0
ENDCHAR
STARTCHAR i
ENCODING 105
SWIDTH 353 0
DWIDTH 6 0
BBX 9 17 0 0
BITMAP
0700
0700
0000
0000
0000
0000
0C00
3C00
1C00
1C00
3800
3800
3800
3800
7000
7000
F800
ENDCHAR
STARTCHAR j
ENCODING 106
SWIDTH 273 0
DWIDTH 6 0
BBX 11 22 -2 -5
BITMAP
01C0
01C0
0000
0000
0000
0000
00C0
0780
0380
0380
0380
0700
0700
0700
0700
0E00
0E00
0E00
0E00
FC00
FC00
7800
ENDCHAR
STARTCHAR k
ENCODING 107
SWIDTH 765 0
DWIDTH 13 0
BBX 16 17 0 0
BITMAP
0300
0F00
0E00
0E00
0E00
0E00
1DF0
1CC0
1D80
1F00
3E00
3E00
3F00
3B80
7380
71C0
FBF0
ENDCHAR
STARTCHAR l
ENCODING 108
SWIDTH 353 0
DWIDTH 6 0
BBX 9 17 0 0
BITMAP
0300
0F00
0E00
0E00
0E00
0E00
1C00
1C00
1C00
1C00
3800
3800
3800
3800
7000
7000
F800
ENDCHAR
STARTCHAR m
ENCODING 109
SWIDTH 1636 0
DWIDTH 18 0
BBX 19 11 0 0
BITMAP
0DE780
3FFFC0
1E79C0
1C71C0
38E380
38E380
38E380
38E380
71C700
71C700
FBEF80
ENDCHAR
STARTCHAR n
ENCODING 110
SWIDTH 1091 0
DWIDTH 12 0
BBX 13 11 0 0
BITMAP
0DE0
3FF0
1E70
1C70
38E0
38E0
38E0
38E0
71C0
71C0
FBE0
ENDCHAR
STARTCHAR o
ENCODING 111
SWIDTH 1091 0
DWIDTH 12 0
BBX 13 11 0 0
BITMAP
03C0
0EE0
1C70
3838
7070
7070
7070
7070
71C0
3B80
1E00
ENDCHAR
STARTCHAR p
ENCODING 112
SWIDTH 750 0
DWIDTH 12 0
BBX 15 16 -1 -5
BITMAP
03F8
1F38
0E1C
0E1C
0E1C
1C38
1C38
1C38
1C38
3CE0
3F80
3800
3800
7000
7000
F800
ENDCHAR
STARTCHAR q
ENCODING 113
SWIDTH 750 0
DWIDTH 12 0
BBX 15 16 -1 -5
BITMAP
03FC
0E78
1C38
1C38
1C38
3870
3870
3870
3870
39E0
1FE0
00E0
00E0
01C0
01C0
03E0
ENDCHAR
STARTCHAR r
ENCODING 114
SWIDTH 818 0
DWIDTH 9 0
BBX 10 11 0 0
BITMAP
0FC0
3FC0
1C00
1C00
3800
3800
3800
3800
7000
7000
F800
ENDCHAR
STARTCHAR s
ENCODING 115
SWIDTH 909 0
DWIDTH 10 0
BBX 11 11 0 0
BITMAP
0FC0
1DC0
38C0
3C00
3E00
0F80
03C0
61C0
E380
F700
DE00
ENDCHAR
STARTCHAR t
ENCODING 116
SWIDTH 533 0
DWIDTH 8 0
BBX 10 15 0 0
BITMAP
0600
0600
0E00
0E00
3F00
1C00
1C00
1C00
3800
3800
3800
3800
7000
7E00
3C00
ENDCHAR
STARTCHAR u
ENCODING 117
SWIDTH 1091 0
DWIDTH 12 0
BBX 13 11 0 0
BITMAP
3CF0
1C70
1C70
1C70
38E0
38E0
38E0
38E0
73C0
3FE0
1D80
ENDCHAR
STARTCHAR v
ENCODING 118
SWIDTH 1091 0
DWIDTH 12 0
BBX 14 11 -1 0
BITMAP
3E3C
1C18
1C18
0E30
1C60
0EC0
0EC0
0780
0F00
0600
0600
ENDCHAR
STARTCHAR w
ENCODING 119
SWIDTH 1636 0
DWIDTH 18 0
BBX 20 11 -1 0
BITMAP
3EF8F0
1C7060
1C7060
0E38C0
1C7180
0EFB00
0EFB00
079E00
0F3C00
061800
061800
ENDCHAR
STARTCHAR x
ENCODING 120
SWIDTH 1182 0
DWIDTH 13 0
BBX 13 11 0 0
BITMAP
3EF8
1C60
0EC0
0FC0
0F00
0700
0780
0F80
3380
71C0
FBE0
ENDCHAR
STARTCHAR y
ENCODING 121
SWIDTH 875 0
DWIDTH 14 0
BBX 16 16 -1 -5
BITMAP
0F8F
0E0C
0E0C
0718
0718
0760
0760
03C0
03C0
0300
0300
0600
0600
1800
F800
F000
ENDCHAR
STARTCHAR z
ENCODING 122
SWIDTH 1091 0
DWIDTH 12 0
BBX 12 11 0 0
BITMAP
1FF0
18E0
19C0
01C0
0700
0E00
0E00
1C00
70C0
70C0
FFC0
ENDCHAR
STARTCHAR braceleft
ENCODING 123
SWIDTH 500 0
DWIDTH 11 0
BBX 11 22 1 -5
BITMAP
0060
01C0
0380
0700
0700
0700
0700
0E00
0E00
0E00
0E00
3800
1C00
1C00
1C00
3800
3800
3800
3800
7000
3000
1800
ENDCHAR
STARTCHAR bar
ENCODING 124
SWIDTH 412 0
DWIDTH 7 0
BBX 7 17 1 0
BITMAP
0E
0E
1C
1C
1C
1C
38
38
38
38
70
70
70
70
E0
E0
E0
ENDCHAR
STARTCHAR braceright
ENCODING 125
SWIDTH 500 0
DWIDTH 11 0
BBX 10 22 1 -5
BITMAP
0600
0300
0380
0700
0700
0700
0700
0E00
0E00
0E00
0E00
0E00
1C00
1C00
1C00
3800
3800
3800
3800
7000
6000
C000
ENDCHAR
STARTCHAR asciitilde
ENCODING 126
SWIDTH 3250 0
DWIDTH 13 0
BBX 12 4 3 13
BITMAP
1E30
7EE0
EFC0
C780
ENDCHAR
STARTCHAR bullet
ENCODING 149
SWIDTH 1286 0
DWIDTH 9 0
BBX 9 7 1 2
BITMAP
1E00
3F00
7F80
7F80
FF00
7E00
3C00
ENDCHAR
STARTCHAR space
ENCODING 154
SWIDTH 292 0
DWIDTH 7 0
BBX 0 0 -1 0
BITMAP
ENDCHAR
STARTCHAR degree
ENCODING 156
SWIDTH 1500 0
DWIDTH 9 0
BBX 8 6 3 12
BITMAP
1C
3E
77
EE
7C
38
ENDCHAR
STARTCHAR twosuperior
ENCODING 157
SWIDTH 875 0
DWIDTH 7 0
BBX 8 8 1 9
BITMAP
1E
7E
0E
0E
1C
70
6C
FC
ENDCHAR
STARTCHAR periodcentered
ENCODING 158
SWIDTH 2250 0
DWIDTH 9 0
BBX 5 4 4 4
BITMAP
30
F0
F0
60
ENDCHAR
STARTCHAR afii10071
ENCODING 163
SWIDTH 667 0
DWIDTH 10 0
BBX 13 15 0 0
BITMAP
0660
0FF0
0660
0000
0FC0
1CE0
3870
3870
7FE0
7000
7000
7000
71C0
7B80
1F00
ENDCHAR
STARTCHAR afii10023
ENCODING 179
SWIDTH 700 0
DWIDTH 14 0
BBX 19 20 0 0
BITMAP
01C700
07DF00
038E00
000000
0FFF80
070700
070300
070000
070000
0E1800
0E1800
0FF800
0E1800
1C3000
1C0000
1C0000
1C0000
380C00
381C00
FFF800
ENDCHAR
STARTCHAR copyright
ENCODING 191
SWIDTH 1188 0
DWIDTH 19 0
BBX 21 16 1 1
BITMAP
007F00
03C780
0701C0
0E00E0
0E7EE0
39DCE0
3B8CE0
3B80E0
3B80E0
7719C0
73B1C0
39E380
380380
380E00
1E3C00
07F000
ENDCHAR
STARTCHAR afii10096
ENCODING 192
SWIDTH 1545 0
DWIDTH 17 0
BBX 18 11 0 0
BITMAP
3E3E00
1C7700
1CE380
1DC1C0
3B8380
3F8380
3B8380
3B8380
738E00
71DC00
F8F800
ENDCHAR
STARTCHAR afii10065
ENCODING 193
SWIDTH 1091 0
DWIDTH 12 0
BBX 13 11 0 0
BITMAP
0FC0
1CE0
1CE0
00E0
07C0
1FC0
39C0
71C0
E7E0
FFE0
7DC0
ENDCHAR
STARTCHAR afii10066
ENCODING 194
SWIDTH 688 0
DWIDTH 11 0
BBX 14 16 0 0
BITMAP
0018
07E0
0E00
1C00
1C00
3FC0
3CE0
3870
3870
70E0
70E0
70E0
70E0
E1C0
7380
3E00
ENDCHAR
STARTCHAR afii10088
ENCODING 195
SWIDTH 1077 0
DWIDTH 14 0
BBX 16 13 0 -2
BITMAP
1F3E
0E1C
1C38
1C38
1C38
1C38
3870
3870
3870
3870
FFF8
0038
0018
ENDCHAR
STARTCHAR afii10069
ENCODING 196
SWIDTH 1077 0
DWIDTH 14 0
BBX 16 13 0 -2
BITMAP
07FE
031C
0638
0638
0638
0638
0C70
0C70
0C70
1870
FFF8
E038
C018
ENDCHAR
STARTCHAR afii10070
ENCODING 197
SWIDTH 1000 0
DWIDTH 11 0
BBX 12 11 0 0
BITMAP
0FC0
1CE0
3870
3870
7FE0
7000
7000
7000
E1C0
7380
3F00
ENDCHAR
STARTCHAR afii10086
ENCODING 198
SWIDTH 700 0
DWIDTH 14 0
BBX 18 20 -1 -5
BITMAP
007C00
007000
007000
007000
01FC00
07FC00
0EEE00
1CE700
1CE700
39CE00
39CE00
39CE00
1DDC00
1FF000
0FE000
038000
038000
070000
070000
0F8000
ENDCHAR
STARTCHAR afii10068
ENCODING 199
SWIDTH 909 0
DWIDTH 10 0
BBX 11 11 0 0
BITMAP
3FE0
1C60
1C60
1C00
3800
3800
3800
3800
7000
7000
F800
ENDCHAR
STARTCHAR afii10087
ENCODING 200
SWIDTH 1091 0
DWIDTH 12 0
BBX 13 11 0 0
BITMAP
3EF8
1C60
0EC0
0FC0
0F00
0700
0780
0F80
3380
71C0
FBE0
ENDCHAR
STARTCHAR afii10074
ENCODING 201
SWIDTH 1182 0
DWIDTH 13 0
BBX 14 11 0 0
BITMAP
3E7C
1C78
1CF8
1CF8
3B70
3B70
3E70
3E70
78E0
78E0
F9F0
ENDCHAR
STARTCHAR afii10075
ENCODING 202
SWIDTH 929 0
DWIDTH 13 0
BBX 15 14 0 0
BITMAP
03F0
01E0
0000
3E7C
1C78
1CF8
1CF8
3B70
3B70
3E70
3E70
78E0
78E0
F9F0
ENDCHAR
STARTCHAR afii10076
ENCODING 203
SWIDTH 1182 0
DWIDTH 13 0
BBX 14 11 0 0
BITMAP
3E78
1CF8
1CC0
1D80
3E00
3E00
3F00
3B80
7380
71C0
FBF0
ENDCHAR
STARTCHAR afii10077
ENCODING 204
SWIDTH 1182 0
DWIDTH 13 0
BBX 14 11 0 0
BITMAP
0FFC
0638
0638
0638
0C70
0C70
0C70
0C70
18E0
F8E0
F1F0
ENDCHAR
STARTCHAR afii10078
ENCODING 205
SWIDTH 1455 0
DWIDTH 16 0
BBX 17 11 0 0
BITMAP
3C0F80
1E0F00
1E1F00
1F1F00
3E6E00
376E00
37CE00
33CE00
679C00
631C00
F03E00
ENDCHAR
STARTCHAR afii10079
ENCODING 206
SWIDTH 1182 0
DWIDTH 13 0
BBX 14 11 0 0
BITMAP
3E7C
1C38
1C38
1C38
3870
3FF0
3870
3870
70E0
70E0
F9F0
ENDCHAR
STARTCHAR afii10080
ENCODING 207
SWIDTH 1091 0
DWIDTH 12 0
BBX 13 11 0 0
BITMAP
0FE0
1C70
3838
3838
7070
7070
7070
7070
E0E0
71C0
3F80
ENDCHAR
STARTCHAR afii10081
ENCODING 208
SWIDTH 1182 0
DWIDTH 13 0
BBX 14 11 0 0
BITMAP
3FFC
1C38
1C38
1C38
3870
3870
3870
3870
70E0
70E0
F9F0
ENDCHAR
STARTCHAR afii10097
ENCODING 209
SWIDTH 1273 0
DWIDTH 14 0
BBX 15 11 0 0
BITMAP
07FE
0E1C
0E1C
0E1C
1C38
0FF8
0738
0E38
1C70
3870
F8F8
ENDCHAR
STARTCHAR afii10082
ENCODING 210
SWIDTH 750 0
DWIDTH 12 0
BBX 15 16 -1 -5
BITMAP
0FF8
0E38
0E1C
0E1C
0E1C
1C38
1C38
1C38
1C38
38E0
3FC0
3800
3800
7000
7000
F800
ENDCHAR
STARTCHAR afii10083
ENCODING 211
SWIDTH 1000 0
DWIDTH 11 0
BBX 12 11 0 0
BITMAP
0FE0
1C70
3870
3800
7000
7000
7000
7000
E0C0
71C0
3F80
ENDCHAR
STARTCHAR afii10084
ENCODING 212
SWIDTH 1091 0
DWIDTH 12 0
BBX 13 11 0 0
BITMAP
3FF8
3398
0380
0380
0700
0700
0700
0700
0E00
0E00
1F00
ENDCHAR
STARTCHAR afii10085
ENCODING 213
SWIDTH 813 0
DWIDTH 13 0
BBX 16 16 -1 -5
BITMAP
0F8F
0E0C
0E0C
0718
0718
0760
0760
03C0
03C0
0300
0300
0600
0600
1800
F800
F000
ENDCHAR
STARTCHAR afii10072
ENCODING 214
SWIDTH 1727 0
DWIDTH 19 0
BBX 21 11 -1 0
BITMAP
1E7CF0
1F39F0
033980
01BB00
01FC00
01FC00
03FE00
077700
1CE700
38E380
FDF7E0
ENDCHAR
STARTCHAR afii10067
ENCODING 215
SWIDTH 1000 0
DWIDTH 11 0
BBX 12 11 0 0
BITMAP
3FC0
1CE0
1CE0
1CE0
39C0
3F80
39C0
38E0
71C0
71C0
FF80
ENDCHAR
STARTCHAR afii10094
ENCODING 216
SWIDTH 1000 0
DWIDTH 11 0
BBX 12 11 0 0
BITMAP
3E00
1C00
1C00
1C00
3FC0
38E0
38E0
38E0
71C0
71C0
FF80
ENDCHAR
STARTCHAR afii10093
ENCODING 217
SWIDTH 1455 0
DWIDTH 16 0
BBX 17 11 0 0
BITMAP
3E0F80
1C0700
1C0700
1C0700
3FCE00
38EE00
38EE00
38EE00
71DC00
71DC00
FFBE00
ENDCHAR
STARTCHAR afii10073
ENCODING 218
SWIDTH 1000 0
DWIDTH 11 0
BBX 12 11 0 0
BITMAP
3FC0
38E0
3070
0070
01C0
0F80
01C0
00E0
C1C0
E380
FF00
ENDCHAR
STARTCHAR afii10090
ENCODING 219
SWIDTH 1636 0
DWIDTH 18 0
BBX 19 11 0 0
BITMAP
3EFBE0
1C71C0
1C71C0
1C71C0
38E380
38E380
38E380
38E380
71C700
71C700
FFFF80
ENDCHAR
STARTCHAR afii10095
ENCODING 220
SWIDTH 1000 0
DWIDTH 11 0
BBX 12 11 0 0
BITMAP
1FC0
38E0
3070
0070
00E0
1FE0
00E0
00E0
C1C0
E380
7F00
ENDCHAR
STARTCHAR afii10091
ENCODING 221
SWIDTH 1462 0
DWIDTH 19 0
BBX 21 13 0 -2
BITMAP
1F7DF0
0E38E0
1C71C0
1C71C0
1C71C0
1C71C0
38E380
38E380
38E380
38E380
FFFFC0
0001C0
0000C0
ENDCHAR
STARTCHAR afii10089
ENCODING 222
SWIDTH 1182 0
DWIDTH 13 0
BBX 14 11 0 0
BITMAP
3E7C
1C38
1C38
1C38
3870
3870
1FF0
0070
00E0
00E0
01F0
ENDCHAR
STARTCHAR afii10092
ENCODING 223
SWIDTH 1273 0
DWIDTH 14 0
BBX 15 11 0 0
BITMAP
3FC0
3B80
3380
3380
07F8
071C
071C
071C
0E38
0E38
1FF0
ENDCHAR
STARTCHAR afii10048
ENCODING 224
SWIDTH 1500 0
DWIDTH 24 0
BBX 26 16 0 0
BITMAP
0F81F800
0E0F3C00
0E1C0E00
0E380700
0E380700
1CE00700
1CE00700
1FE00700
1CE00700
39C00E00
39C00E00
38E01C00
38E01C00
70E07000
7079E000
F81F8000
ENDCHAR
STARTCHAR afii10017
ENCODING 225
SWIDTH 1125 0
DWIDTH 18 0
BBX 21 16 0 0
BITMAP
001C00
003800
007C00
007C00
00EE00
019C00
019C00
038E00
030E00
061C00
0FFE00
0C0E00
1C0700
300E00
300E00
FC3F80
ENDCHAR
STARTCHAR afii10018
ENCODING 226
SWIDTH 1000 0
DWIDTH 16 0
BBX 18 16 0 0
BITMAP
0FFF80
0E0700
0E0300
0E0000
0E0000
1C0000
1FF800
1C1E00
1C0E00
380E00
380E00
380E00
380E00
703800
707800
FFE000
ENDCHAR
STARTCHAR afii10040
ENCODING 227
SWIDTH 895 0
DWIDTH 17 0
BBX 19 19 0 -3
BITMAP
0F87C0
070380
070380
070380
0E0700
0E0700
0E0700
0E0700
1C0E00
1C0E00
1C0E00
1C0E00
381C00
381C00
381C00
7FFF00
000E00
000600
000600
ENDCHAR
STARTCHAR afii10021
ENCODING 228
SWIDTH 947 0
DWIDTH 18 0
BBX 20 19 0 -3
BITMAP
03FFE0
0181C0
0181C0
0181C0
030380
030380
030380
030380
060700
060700
060700
060700
0C0E00
0C0E00
180E00
7FFF80
E00700
C00300
C00300
ENDCHAR
STARTCHAR afii10022
ENCODING 229
SWIDTH 938 0
DWIDTH 15 0
BBX 17 16 0 0
BITMAP
0FFF00
0E0E00
0E0600
0E0000
0E0000
1C0000
1C3000
1FF000
1C3000
380000
380000
380000
380000
701800
703800
FFF800
ENDCHAR
STARTCHAR afii10038
ENCODING 230
SWIDTH 1056 0
DWIDTH 19 0
BBX 21 18 0 -1
BITMAP
003E00
001C00
007F00
03FF80
0739C0
0E38E0
0E38E0
3870E0
3870E0
3870E0
3870E0
38E380
38E380
1CE700
0FFE00
07F000
01C000
03E000
ENDCHAR
STARTCHAR afii10020
ENCODING 231
SWIDTH 938 0
DWIDTH 15 0
BBX 17 16 0 0
BITMAP
0FFF80
0E0700
0E0300
0E0000
0E0000
1C0000
1C0000
1C0000
1C0000
380000
380000
380000
380000
700000
700000
F80000
ENDCHAR
STARTCHAR afii10039
ENCODING 232
SWIDTH 1188 0
DWIDTH 19 0
BBX 21 16 0 0
BITMAP
0FF3F8
0781C0
038300
01C300
00E600
00F800
007000
007800
007800
01B800
031C00
031C00
060E00
180E00
3C0E00
FF3F80
ENDCHAR
STARTCHAR afii10026
ENCODING 233
SWIDTH 1000 0
DWIDTH 16 0
BBX 18 16 0 0
BITMAP
0F87C0
0E0F00
0E0F00
0E1F00
0E1F00
1C6E00
1C6E00
1CCE00
1CCE00
3B1C00
3B1C00
3E1C00
3E1C00
783800
783800
F87C00
ENDCHAR
STARTCHAR afii10027
ENCODING 234
SWIDTH 800 0
DWIDTH 16 0
BBX 19 20 0 0
BITMAP
00C600
01DC00
00F800
000000
0F87C0
0E0F00
0E0F00
0E1F00
0E1F00
1C6E00
1C6E00
1CCE00
1CCE00
3B1C00
3B1C00
3E1C00
3E1C00
783800
783800
F87C00
ENDCHAR
STARTCHAR afii10028
ENCODING 235
SWIDTH 1000 0
DWIDTH 16 0
BBX 19 16 0 0
BITMAP
0FE3C0
070F80
071800
071800
073000
0E6000
0FC000
0FE000
0EE000
1CE000
1CE000
1C7000
1C3800
387000
383800
FE7E00
ENDCHAR
STARTCHAR afii10029
ENCODING 236
SWIDTH 1063 0
DWIDTH 17 0
BBX 19 16 0 0
BITMAP
01FFE0
018380
018380
018380
018380
030700
030700
030700
030700
060E00
060E00
060E00
060E00
FC1C00
FC1C00
787E00
ENDCHAR
STARTCHAR afii10030
ENCODING 237
SWIDTH 1250 0
DWIDTH 20 0
BBX 22 16 0 0
BITMAP
0F807C
0F00F0
0F80F0
0F81F0
0F81F0
1B83E0
1B87E0
19C6E0
19C6E0
339DC0
31D9C0
31F9C0
30F1C0
61E380
61E380
F0C7C0
ENDCHAR
STARTCHAR afii10031
ENCODING 238
SWIDTH 1000 0
DWIDTH 16 0
BBX 18 16 0 0
BITMAP
0F87C0
0E0700
0E0700
0E0700
0E0700
1C0E00
1C0E00
1FFE00
1C0E00
381C00
381C00
381C00
381C00
703800
703800
F87C00
ENDCHAR
STARTCHAR afii10032
ENCODING 239
SWIDTH 1125 0
DWIDTH 18 0
BBX 20 16 0 0
BITMAP
007E00
03CF00
070380
0F03C0
0E01C0
3C03C0
3C03C0
3C03C0
3C03C0
780780
780780
380700
3C0F00
381C00
1E7800
07E000
ENDCHAR
STARTCHAR afii10033
ENCODING 240
SWIDTH 1000 0
DWIDTH 16 0
BBX 18 16 0 0
BITMAP
0FFFC0
0E0700
0E0700
0E0700
0E0700
1C0E00
1C0E00
1C0E00
1C0E00
381C00
381C00
381C00
381C00
703800
703800
F87C00
ENDCHAR
STARTCHAR afii10049
ENCODING 241
SWIDTH 1063 0
DWIDTH 17 0
BBX 19 16 0 0
BITMAP
007FE0
03C380
038380
070380
070380
0E0700
070700
078700
01FF00
00EE00
01CE00
038E00
070E00
1C1C00
381C00
F03E00
ENDCHAR
STARTCHAR afii10034
ENCODING 242
SWIDTH 938 0
DWIDTH 15 0
BBX 17 16 0 0
BITMAP
0FFC00
0E1E00
0E0E00
0E0700
0E0700
1C0E00
1C0E00
1C1C00
1C3C00
3FE000
380000
380000
380000
700000
700000
F80000
ENDCHAR
STARTCHAR afii10035
ENCODING 243
SWIDTH 1000 0
DWIDTH 16 0
BBX 18 16 0 0
BITMAP
007EC0
03CF80
070380
0F0180
0E0180
3C0000
380000
380000
380000
700000
780000
380000
3C0600
3C1800
1FF000
07C000
ENDCHAR
STARTCHAR afii10036
ENCODING 244
SWIDTH 1063 0
DWIDTH 17 0
BBX 19 16 0 0
BITMAP
0FFFE0
1C71C0
1870C0
007000
007000
00E000
00E000
00E000
00E000
01C000
01C000
01C000
01C000
038000
038000
07C000
ENDCHAR
STARTCHAR afii10037
ENCODING 245
SWIDTH 1250 0
DWIDTH 20 0
BBX 23 16 0 0
BITMAP
0FE07E
078070
03C0E0
01C0C0
01E1C0
01E700
00E600
00FE00
007C00
007000
007000
00E000
00C000
038000
3F0000
1E0000
ENDCHAR
STARTCHAR afii10024
ENCODING 246
SWIDTH 1500 0
DWIDTH 24 0
BBX 27 16 0 0
BITMAP
078FE3C0
0F870F80
00C71800
00C71800
00673000
00CE6000
007FC000
00FFE000
00EEE000
039CE000
039CE000
071C7000
0E1C3800
1C387000
38383800
FCFE7E00
ENDCHAR
STARTCHAR afii10019
ENCODING 247
SWIDTH 1000 0
DWIDTH 16 0
BBX 18 16 0 0
BITMAP
0FFE00
0E0E00
0E0700
0E0700
0E0700
1C0E00
1C1C00
1FFC00
1C1E00
381C00
380E00
380E00
380E00
703800
707800
FFE000
ENDCHAR
STARTCHAR afii10046
ENCODING 248
SWIDTH 1000 0
DWIDTH 16 0
BBX 18 16 0 0
BITMAP
0F8000
0E0000
0E0000
0E0000
0E0000
1C0000
1FFC00
1C0E00
1C0700
380E00
380E00
380E00
380E00
701C00
703800
FFF000
ENDCHAR
STARTCHAR afii10045
ENCODING 249
SWIDTH 1313 0
DWIDTH 21 0
BBX 23 16 0 0
BITMAP
0F803E
0E0038
0E0038
0E0038
0E0038
1C0070
1FFC70
1C0E70
1C0770
380EE0
380EE0
380EE0
380EE0
701DC0
7039C0
FFF3E0
ENDCHAR
STARTCHAR afii10025
ENCODING 250
SWIDTH 813 0
DWIDTH 13 0
BBX 15 16 0 0
BITMAP
0FF0
1C38
181C
001C
001C
0038
0070
03E0
0070
0070
0070
0070
0070
C0E0
E1C0
FF00
ENDCHAR
STARTCHAR afii10042
ENCODING 251
SWIDTH 1313 0
DWIDTH 21 0
BBX 23 16 0 0
BITMAP
0F9F3E
0E1C38
0E1C38
0E1C38
0E1C38
1C3870
1C3870
1C3870
1C3870
3870E0
3870E0
3870E0
3870E0
70E1C0
70E1C0
FFFFE0
ENDCHAR
STARTCHAR afii10047
ENCODING 252
SWIDTH 875 0
DWIDTH 14 0
BBX 16 16 0 0
BITMAP
0FF8
1C1C
180E
000E
000E
001C
061C
07FC
061C
0038
0038
0038
0038
C070
E0E0
FF80
ENDCHAR
STARTCHAR afii10043
ENCODING 253
SWIDTH 1158 0
DWIDTH 22 0
BBX 24 19 0 -3
BITMAP
0F9F3E
070E1C
070E1C
070E1C
0E1C38
0E1C38
0E1C38
0E1C38
1C3870
1C3870
1C3870
1C3870
3870E0
3870E0
3870E0
7FFFF8
000070
000030
000030
ENDCHAR
STARTCHAR afii10041
ENCODING 254
SWIDTH 1000 0
DWIDTH 16 0
BBX 18 16 0 0
BITMAP
0F87C0
0E0700
0E0700
0E0700
0E0700
1C0E00
1C0E00
1C0E00
0FFE00
001C00
001C00
001C00
001C00
003800
003800
007C00
ENDCHAR
STARTCHAR afii10044
ENCODING 255
SWIDTH 1188 0
DWIDTH 19 0
BBX 21 16 0 0
BITMAP
0FF000
1DC000
19C000
19C000
01C000
038000
03FF80
0381C0
0380E0
0701C0
0701C0
0701C0
0701C0
0E0380
0E0700
1FFE00
ENDCHAR
ENDFONT
