STARTFONT 2.1
COMMENT Copyright (C) 1990-1991 EWT Consulting
COMMENT Portions Copyright (C) 1994-1995 Cronyx Ltd.
COMMENT Changes Copyright (C) 1996-1997 by Andrey A. Chernov, Moscow, Russia.
COMMENT Modified by Serge Vakulenko, <vak@cronyx.ru>
COMMENT Changes 1999 by Serge Winitzki.
COMMENT This software may be used, modified, copied, distributed, and sold,
COMMENT in both source and binary form provided that the copyright
COMMENT and these terms are retained. Under no circumstances is the author
COMMENT responsible for the proper functioning of this software, nor does
COMMENT the author assume any responsibility for damages incurred with its use.
COMMENT $XFree86$
FONT -Cronyx-Times-Medium-I-Normal--34-240-100-100-P-124-KOI8-R
SIZE 24 96 96
FONTBOUNDINGBOX 41 34 -3 -8
STARTPROPERTIES 21
DEFAULT_CHAR 32
FONT_ASCENT 27
FONT_DESCENT 8
SPACING "P"
FONTNAME_REGISTRY ""
FOUNDRY "Cronyx"
FAMILY_NAME "Times"
WEIGHT_NAME "Medium"
SLANT "I"
SETWIDTH_NAME "Normal"
ADD_STYLE_NAME ""
AVERAGE_WIDTH 124
CHARSET_REGISTRY "KOI8"
CHARSET_ENCODING "R"
PIXEL_SIZE 34
POINT_SIZE 240
RESOLUTION_X 100
RESOLUTION_Y 100
COPYRIGHT "Copyright (C) 1990, 1991 EWT Consulting, Portions Copyright (C) 1994 Cronyx Ltd., Portions Copyright (C) 1996-1997 by Andrey A. Chernov, Moscow, Russia."
_XMBDFED_INFO "Edited with xmbdfed 4.3."
_XFREE86_GLYPH_RANGES "32_126 149 154 156_158 163 179 191_255"
ENDPROPERTIES
CHARS 167
STARTCHAR space
ENCODING 32
SWIDTH 250 0
DWIDTH 8 0
BBX 0 0 -1 0
BITMAP
ENDCHAR
STARTCHAR exclam
ENCODING 33
SWIDTH 281 0
DWIDTH 9 0
BBX 8 23 2 0
BITMAP
02
07
07
07
0E
0E
0E
0E
1C
1C
08
08
10
10
10
00
00
00
00
20
E0
E0
40
ENDCHAR
STARTCHAR quotedbl
ENCODING 34
SWIDTH 375 0
DWIDTH 12 0
BBX 9 7 5 16
BITMAP
2100
7380
7380
7380
4200
4200
4200
ENDCHAR
STARTCHAR numbersign
ENCODING 35
SWIDTH 500 0
DWIDTH 16 0
BBX 21 22 -1 0
BITMAP
0030C0
0030C0
0030C0
006180
006180
006180
07FFF0
0FFFE0
018600
018600
018600
030C00
030C00
030C00
3FFF80
7FFF00
0C3000
0C3000
0C3000
186000
186000
186000
ENDCHAR
STARTCHAR dollar
ENCODING 36
SWIDTH 500 0
DWIDTH 16 0
BBX 21 28 0 -3
BITMAP
000600
000C00
000C00
003F20
00EDE0
0398C0
039840
079840
079800
0F3000
07B000
07F000
03F800
03F800
00FE00
007F00
007F00
00DF00
00CF00
20CF00
20CF00
619C00
719C00
79B800
4FE000
030000
030000
030000
ENDCHAR
STARTCHAR percent
ENCODING 37
SWIDTH 875 0
DWIDTH 28 0
BBX 31 23 0 0
BITMAP
003E01C0
00E78780
01C1FF80
0381FB00
07010C00
0E010C00
0E031800
0E023000
1C0C6000
0E18C000
0F718000
03C183C0
00061CE0
000C3820
000C7030
00187010
0061C020
0061C060
00C1C040
0181C0C0
0301C300
0601EE00
0C007800
ENDCHAR
STARTCHAR ampersand
ENCODING 38
SWIDTH 781 0
DWIDTH 25 0
BBX 25 23 2 0
BITMAP
001C0000
00770000
00630000
00C18000
01830000
01830000
01C60000
00EC0000
01F00000
01F00000
03F0FE00
07383800
1C706000
18386000
381CC000
381CC000
701F0000
701F0000
780E0000
380F0800
7C3F3000
3FE7E000
0F83C000
ENDCHAR
STARTCHAR quotesingle
ENCODING 39
SWIDTH 281 0
DWIDTH 9 0
BBX 4 7 6 16
BITMAP
20
70
70
70
40
40
40
ENDCHAR
STARTCHAR parenleft
ENCODING 40
SWIDTH 343 0
DWIDTH 11 0
BBX 15 29 0 -7
BITMAP
0006
000C
0030
0030
0060
0060
0180
0180
0380
0300
0600
0E00
0E00
0E00
1C00
1C00
1C00
1C00
1800
1800
1C00
0C00
1800
0C00
0C00
0600
0C00
0600
0300
ENDCHAR
STARTCHAR parenright
ENCODING 41
SWIDTH 343 0
DWIDTH 11 0
BBX 15 29 -1 -7
BITMAP
0180
00C0
00C0
00C0
0060
0060
0060
0060
0070
0030
0060
0070
0070
0070
00E0
00E0
00E0
00E0
0180
0180
0380
0300
0600
0C00
0C00
1800
3000
6000
C000
ENDCHAR
STARTCHAR asterisk
ENCODING 42
SWIDTH 500 0
DWIDTH 16 0
BBX 14 14 3 11
BITMAP
0080
01C0
01C0
3BB8
3938
3D78
0380
0700
7AF0
7270
7770
0E00
0E00
0400
ENDCHAR
STARTCHAR plus
ENCODING 43
SWIDTH 562 0
DWIDTH 18 0
BBX 20 16 1 1
BITMAP
001800
003000
003000
003000
003000
006000
006000
3FFFC0
3FFFC0
00C000
00C000
00C000
00C000
018000
018000
018000
ENDCHAR
STARTCHAR comma
ENCODING 44
SWIDTH 250 0
DWIDTH 8 0
BBX 5 7 1 -3
BITMAP
30
78
78
38
30
20
C0
ENDCHAR
STARTCHAR hyphen
ENCODING 45
SWIDTH 312 0
DWIDTH 10 0
BBX 8 2 2 8
BITMAP
FF
FF
ENDCHAR
STARTCHAR period
ENCODING 46
SWIDTH 250 0
DWIDTH 8 0
BBX 5 4 1 0
BITMAP
30
F0
F0
60
ENDCHAR
STARTCHAR slash
ENCODING 47
SWIDTH 250 0
DWIDTH 8 0
BBX 14 24 -1 -1
BITMAP
000C
0018
0018
0030
0030
0060
00C0
00C0
00C0
0300
0300
0300
0300
0C00
0C00
0C00
1800
3000
3000
3000
6000
C000
C000
C000
ENDCHAR
STARTCHAR zero
ENCODING 48
SWIDTH 500 0
DWIDTH 16 0
BBX 19 22 0 0
BITMAP
003C00
00E700
018180
070380
060180
0E01C0
0E01C0
1C0380
1C0380
1C0380
1C0380
380700
380700
380700
380700
700E00
700E00
300C00
381C00
303000
1CE000
078000
ENDCHAR
STARTCHAR one
ENCODING 49
SWIDTH 500 0
DWIDTH 16 0
BBX 13 22 3 0
BITMAP
0040
00C0
01C0
0780
0D80
0180
0180
0300
0300
0300
0300
0600
0600
0600
0600
0C00
0C00
0C00
0C00
1800
3C00
FF00
ENDCHAR
STARTCHAR two
ENCODING 50
SWIDTH 500 0
DWIDTH 16 0
BBX 19 22 0 0
BITMAP
007C00
01FF00
030F80
0C0F00
080780
000780
000780
000F00
000F00
000E00
000E00
003800
003000
006000
00C000
030000
060000
0C0000
180200
7FFC00
FFF800
FFF800
ENDCHAR
STARTCHAR three
ENCODING 51
SWIDTH 500 0
DWIDTH 16 0
BBX 18 22 1 0
BITMAP
007C00
01FF00
030F00
040F00
000700
000700
000600
001C00
001800
007000
03FC00
00FC00
003C00
001E00
000E00
001C00
001C00
001C00
001800
E07000
F0E000
3F8000
ENDCHAR
STARTCHAR four
ENCODING 52
SWIDTH 500 0
DWIDTH 16 0
BBX 19 22 0 0
BITMAP
000380
000380
000780
001F00
003700
003700
006700
018E00
030E00
030E00
060E00
181C00
301C00
3FFF00
3FFF00
7FFE00
003800
003800
003800
007000
007000
007000
ENDCHAR
STARTCHAR five
ENCODING 53
SWIDTH 500 0
DWIDTH 16 0
BBX 18 22 0 0
BITMAP
007F80
007F80
00FF00
010000
010000
020000
038000
0FE000
0FF800
007C00
001E00
001C00
000E00
000E00
000600
000C00
000C00
301800
781800
78E000
3FC000
0F0000
ENDCHAR
STARTCHAR six
ENCODING 54
SWIDTH 500 0
DWIDTH 16 0
BBX 19 22 0 0
BITMAP
000F00
003800
006000
018000
038000
030000
070000
0C0000
1C7800
1DFE00
1F0F00
3C0F00
380700
380700
380700
700E00
700E00
381C00
381C00
387000
1FE000
078000
ENDCHAR
STARTCHAR seven
ENCODING 55
SWIDTH 500 0
DWIDTH 16 0
BBX 19 22 0 0
BITMAP
03FFE0
03FFC0
07FFC0
080180
000300
000300
000300
000C00
000C00
000C00
001800
003000
003000
006000
006000
00C000
018000
018000
018000
060000
060000
060000
ENDCHAR
STARTCHAR eight
ENCODING 56
SWIDTH 500 0
DWIDTH 16 0
BBX 19 22 0 0
BITMAP
007E00
01C380
018180
070180
070180
070180
038180
078600
03EC00
01FC00
03FE00
0C7E00
181E00
180F00
300700
600E00
600600
600600
200400
601800
303000
0FC000
ENDCHAR
STARTCHAR nine
ENCODING 57
SWIDTH 500 0
DWIDTH 16 0
BBX 19 22 0 0
BITMAP
003C00
00FF00
01C380
070380
060180
0E01C0
0E01C0
1C0380
1C0380
1C0380
1E0380
1E0F00
0FF700
03C700
000600
001C00
001800
003800
003000
00C000
038000
1E0000
ENDCHAR
STARTCHAR colon
ENCODING 58
SWIDTH 250 0
DWIDTH 8 0
BBX 7 15 1 0
BITMAP
0C
1E
1E
0C
00
00
00
00
00
00
00
30
F0
F0
60
ENDCHAR
STARTCHAR semicolon
ENCODING 59
SWIDTH 250 0
DWIDTH 8 0
BBX 8 18 1 -3
BITMAP
06
0F
0F
0C
00
00
00
00
00
00
00
00
30
78
38
30
20
C0
ENDCHAR
STARTCHAR less
ENCODING 60
SWIDTH 562 0
DWIDTH 18 0
BBX 20 16 1 2
BITMAP
000030
0001E0
000780
001F00
007800
03C000
0F0000
3C0000
3C0000
1E0000
078000
01E000
007800
003C00
000F00
000300
ENDCHAR
STARTCHAR equal
ENCODING 61
SWIDTH 562 0
DWIDTH 18 0
BBX 18 8 1 7
BITMAP
3FFFC0
7FFF80
000000
000000
000000
000000
FFFF00
FFFF00
ENDCHAR
STARTCHAR greater
ENCODING 62
SWIDTH 562 0
DWIDTH 18 0
BBX 20 16 1 2
BITMAP
0C0000
1E0000
078000
01E000
007800
003C00
000F00
0003C0
0003C0
001E00
007800
01E000
078000
3C0000
F00000
C00000
ENDCHAR
STARTCHAR question
ENCODING 63
SWIDTH 437 0
DWIDTH 14 0
BBX 16 23 0 0
BITMAP
01F8
030E
060E
0607
0E0E
0E0E
040C
001C
0030
0060
0060
0040
0180
0100
0100
0100
0000
0000
0000
0600
1E00
1E00
0C00
ENDCHAR
STARTCHAR at
ENCODING 64
SWIDTH 906 0
DWIDTH 29 0
BBX 33 26 -1 -4
BITMAP
0001FF0000
000701C000
001C007000
0070003000
00E0001800
01C0000C00
01C0000C00
0700730C00
0701CB0C00
0703070C00
0E06060600
1C0C0C0C00
1C180C0C00
1C18180C00
1C18180C00
3830303000
1C18783000
1C1CDCE000
1C07078000
1C00000000
1C00000000
0E00000000
0700000000
07000C0000
01C0300000
007FC00000
ENDCHAR
STARTCHAR A
ENCODING 65
SWIDTH 687 0
DWIDTH 22 0
BBX 27 22 -1 0
BITMAP
00010000
00010000
00018000
00070000
00078000
000F8000
000F8000
001F8000
00378000
0033C000
0063C000
00C3C000
00C3C000
0183C000
0181E000
07FFC000
0601E000
0601E000
0C00F000
1801E000
3803F000
FE0FFC00
ENDCHAR
STARTCHAR B
ENCODING 66
SWIDTH 656 0
DWIDTH 21 0
BBX 24 22 0 0
BITMAP
07FFE0
01F078
00E03C
01C038
01C03C
01C03C
01C03C
038070
0380F0
0381E0
03FFC0
0703C0
0700E0
0700F0
070070
0E00F0
0E00F0
0E00F0
0E01E0
1C03C0
3E0F80
FFFE00
ENDCHAR
STARTCHAR C
ENCODING 67
SWIDTH 656 0
DWIDTH 21 0
BBX 24 22 0 0
BITMAP
000FC4
003C3C
00F00C
03C008
038000
078000
070000
1E0000
1E0000
1E0000
1E0000
3C0000
3C0000
3C0000
3C0000
3C0000
3C0000
1E0010
1F0020
1F80C0
07FF00
01FC00
ENDCHAR
STARTCHAR D
ENCODING 68
SWIDTH 687 0
DWIDTH 22 0
BBX 25 22 0 0
BITMAP
07FFE000
01F0F800
00E03C00
01C03C00
01C01C00
01C01E00
01C00E00
03801E00
03801E00
03801E00
03801E00
07003C00
07003C00
07003C00
07003C00
0E007000
0E00F000
0E00E000
0E01E000
1C078000
3E1F0000
FFFC0000
ENDCHAR
STARTCHAR E
ENCODING 69
SWIDTH 625 0
DWIDTH 20 0
BBX 23 22 0 0
BITMAP
07FFF8
01F018
00E008
01C010
01C000
01C000
01C000
038080
038080
038180
03FF80
070300
070100
070100
070000
0E0000
0E0000
0E0000
0E0020
1C00C0
3E0380
FFFF80
ENDCHAR
STARTCHAR F
ENCODING 70
SWIDTH 562 0
DWIDTH 18 0
BBX 21 22 0 0
BITMAP
07FFF8
01F018
00E008
01C010
01C000
01C000
01C000
038080
038080
038180
03FF80
070300
070100
070100
070000
0E0000
0E0000
0E0000
0E0000
1C0000
3E0000
FF8000
ENDCHAR
STARTCHAR G
ENCODING 71
SWIDTH 718 0
DWIDTH 23 0
BBX 26 22 1 0
BITMAP
000FC400
003C3C00
00F00C00
03C00800
03800000
07800000
07000000
1E000000
1E000000
1E000000
1E000000
3C03FE00
3C00F800
3C007000
3C007000
3C00E000
3C00E000
1E00E000
1F00E000
1F818000
07FF0000
01FC0000
ENDCHAR
STARTCHAR H
ENCODING 72
SWIDTH 718 0
DWIDTH 23 0
BBX 26 22 0 0
BITMAP
07FC7FC0
01F01F00
00E00E00
01C01C00
01C01C00
01C01C00
01C01C00
03803800
03803800
03803800
03FFF800
07007000
07007000
07007000
07007000
0E00E000
0E00E000
0E00E000
0E00E000
1C01C000
3E03E000
FF8FF800
ENDCHAR
STARTCHAR I
ENCODING 73
SWIDTH 343 0
DWIDTH 11 0
BBX 14 22 0 0
BITMAP
07FC
01F0
00E0
01C0
01C0
01C0
01C0
0380
0380
0380
0380
0700
0700
0700
0700
0E00
0E00
0E00
0E00
1C00
3E00
FF80
ENDCHAR
STARTCHAR J
ENCODING 74
SWIDTH 406 0
DWIDTH 13 0
BBX 17 22 -1 0
BITMAP
00FF80
003E00
001C00
003800
003800
003800
003800
007000
007000
007000
007000
00E000
00E000
00E000
00E000
01C000
01C000
21C000
71C000
E38000
730000
1E0000
ENDCHAR
STARTCHAR K
ENCODING 75
SWIDTH 687 0
DWIDTH 22 0
BBX 26 22 0 0
BITMAP
07FC7F00
01F01C00
00E01800
01C06000
01C0C000
01C18000
01C30000
038C0000
03980000
03BC0000
03EE0000
079C0000
070E0000
07070000
07070000
0E070000
0E038000
0E038000
0E01C000
1C01C000
3E03E000
FF8FF800
ENDCHAR
STARTCHAR L
ENCODING 76
SWIDTH 625 0
DWIDTH 20 0
BBX 23 22 0 0
BITMAP
07FC00
01F000
00E000
01C000
01C000
01C000
01C000
038000
038000
038000
038000
070000
070000
070000
070000
0E0000
0E0000
0E0000
0E0020
1C00C0
3E0380
FFFF80
ENDCHAR
STARTCHAR M
ENCODING 77
SWIDTH 875 0
DWIDTH 28 0
BBX 31 22 0 0
BITMAP
07F0007E
01F00078
00F000F0
01F001E0
017001E0
017803E0
013807E0
027009C0
027809C0
023809C0
023C11C0
04382380
04384380
043C4380
041C8380
083D0700
081D0700
081E0700
080E0700
101C0E00
38081F00
FE087FC0
ENDCHAR
STARTCHAR N
ENCODING 78
SWIDTH 718 0
DWIDTH 23 0
BBX 26 22 0 0
BITMAP
07C01FC0
01E00700
00F00200
01E00400
01F00400
01780400
013C0400
02780800
023C0800
021E0800
020F0800
041E1000
040F1000
04079000
0403D000
0807A000
0803E000
0801E000
0800E000
1001C000
3800C000
FE004000
ENDCHAR
STARTCHAR O
ENCODING 79
SWIDTH 656 0
DWIDTH 21 0
BBX 24 22 0 0
BITMAP
001FC0
0078F0
00E038
038038
038038
07001C
07001C
1E003C
1E003C
1E003C
1E003C
3C0078
3C0078
3C0078
3C0078
3800E0
3800E0
1C01C0
1C01C0
1C0700
0F1E00
03F800
ENDCHAR
STARTCHAR P
ENCODING 80
SWIDTH 593 0
DWIDTH 19 0
BBX 22 22 0 0
BITMAP
07FFE0
01F0F8
00E078
01C078
01C078
01C078
01C078
0380F0
0381E0
0383E0
03FF80
070000
070000
070000
070000
0E0000
0E0000
0E0000
0E0000
1C0000
3E0000
FF8000
ENDCHAR
STARTCHAR Q
ENCODING 81
SWIDTH 656 0
DWIDTH 21 0
BBX 25 27 -1 -5
BITMAP
000FE000
003C7800
00701C00
00E00E00
01C01C00
03800E00
03800E00
07800F00
0F001E00
0F001E00
0F001E00
0F001E00
1E003C00
1E003C00
1E003C00
0E003800
1C007000
0E00E000
0E00E000
0701C000
078F0000
01FC0000
00780000
00380000
00780000
003C0000
000F8000
ENDCHAR
STARTCHAR R
ENCODING 82
SWIDTH 656 0
DWIDTH 21 0
BBX 25 22 0 0
BITMAP
07FFE000
01F0F800
00E07800
01C07800
01C07800
01C07800
01C07800
0380F000
0381E000
0383E000
03FF8000
073C0000
071C0000
070E0000
070F0000
0E0E0000
0E070000
0E078000
0E038000
1C038000
3E03C000
FF81F000
ENDCHAR
STARTCHAR S
ENCODING 83
SWIDTH 500 0
DWIDTH 16 0
BBX 19 22 0 0
BITMAP
007E40
01C3C0
0380C0
070080
0F0080
0F0000
0F0000
0F0000
0FC000
07F000
03F800
01FC00
00FE00
003E00
001F00
001E00
401E00
401E00
601C00
E03800
F07000
9FC000
ENDCHAR
STARTCHAR T
ENCODING 84
SWIDTH 656 0
DWIDTH 21 0
BBX 24 22 0 0
BITMAP
07FFFF
060703
040701
080E02
000E00
000E00
000E00
001C00
001C00
001C00
001C00
003800
003800
003800
003800
007000
007000
007000
007000
00E000
01F000
07FC00
ENDCHAR
STARTCHAR U
ENCODING 85
SWIDTH 718 0
DWIDTH 23 0
BBX 26 22 0 0
BITMAP
07FC1FC0
01F00700
00E00200
01C00400
01C00400
01C00400
01C00400
03800800
03800800
03800800
03800800
07001000
07001000
07001000
07001000
0E002000
0E002000
0F002000
07004000
0F008000
07C30000
01FC0000
ENDCHAR
STARTCHAR V
ENCODING 86
SWIDTH 687 0
DWIDTH 22 0
BBX 27 22 -1 0
BITMAP
07FC07E0
01F00180
00E00180
01E00200
00E00600
00F00400
00700400
00E01800
00F01000
00703000
00782000
0070C000
00788000
00388000
003D8000
007A0000
003E0000
003C0000
001C0000
00300000
00100000
00100000
ENDCHAR
STARTCHAR W
ENCODING 87
SWIDTH 1031 0
DWIDTH 33 0
BBX 38 22 -1 0
BITMAP
07FC7FC3FC
01F83F00F0
00F01E0060
00E01C0080
00F01E0180
00700E0100
00781F0100
00F03E0600
00702E0400
00782F0400
0038670C00
00788F1000
0038871000
0039873000
003D07A000
003A074000
003E07C000
001C038000
001C038000
0010020000
0010020000
0010020000
ENDCHAR
STARTCHAR X
ENCODING 88
SWIDTH 718 0
DWIDTH 23 0
BBX 28 22 -1 0
BITMAP
03FC0FC0
00F00300
00780400
00780800
00781000
003C1000
001E2000
003CC000
001F0000
000F0000
000F8000
000F0000
00178000
0033C000
0043C000
0083C000
0181E000
0101E000
0200F000
0C00F000
3800F800
FF03FE00
ENDCHAR
STARTCHAR Y
ENCODING 89
SWIDTH 687 0
DWIDTH 22 0
BBX 27 22 -1 0
BITMAP
07FC0FE0
01F00380
00780200
00700400
00780400
003C0800
001C1000
003C2000
001E4000
000F8000
000F8000
000E0000
000E0000
000E0000
000E0000
001C0000
001C0000
001C0000
001C0000
00380000
007C0000
01FF0000
ENDCHAR
STARTCHAR Z
ENCODING 90
SWIDTH 656 0
DWIDTH 21 0
BBX 25 22 -1 0
BITMAP
01FFFF80
01800F00
01000F00
02003C00
00007800
0000F000
0000F000
0003C000
00078000
000F0000
000F0000
003C0000
00780000
00F00000
00F00000
03C00000
07800000
0F000000
0F000800
3C003000
7800E000
FFFFE000
ENDCHAR
STARTCHAR bracketleft
ENCODING 91
SWIDTH 343 0
DWIDTH 11 0
BBX 14 29 0 -6
BITMAP
01FC
01E0
0380
0380
0380
0380
0700
0700
0700
0700
0E00
0E00
0E00
0E00
1C00
1C00
1C00
1C00
3800
3800
3800
3800
7000
7000
7000
7000
E000
F000
FE00
ENDCHAR
STARTCHAR backslash
ENCODING 92
SWIDTH 250 0
DWIDTH 8 0
BBX 13 23 -1 0
BITMAP
0600
0600
0600
0300
0600
0600
0300
0300
0600
0300
0300
0300
0600
0300
0300
0300
0300
0300
0300
0300
0300
0300
0300
ENDCHAR
STARTCHAR bracketright
ENCODING 93
SWIDTH 343 0
DWIDTH 11 0
BBX 14 29 0 -6
BITMAP
01FC
003C
0038
0038
0038
0038
0070
0070
0070
0070
00E0
00E0
00E0
00E0
01C0
01C0
01C0
01C0
0380
0380
0380
0380
0700
0700
0700
0700
0E00
1E00
FE00
ENDCHAR
STARTCHAR asciicircum
ENCODING 94
SWIDTH 500 0
DWIDTH 16 0
BBX 15 7 4 16
BITMAP
0180
03C0
07E0
0E70
3870
7038
E01C
ENDCHAR
STARTCHAR underscore
ENCODING 95
SWIDTH 500 0
DWIDTH 16 0
BBX 16 2 -1 -3
BITMAP
FFFF
FFFF
ENDCHAR
STARTCHAR grave
ENCODING 96
SWIDTH 343 0
DWIDTH 11 0
BBX 6 4 7 19
BITMAP
60
E0
30
08
ENDCHAR
STARTCHAR a
ENCODING 97
SWIDTH 437 0
DWIDTH 14 0
BBX 15 15 0 0
BITMAP
03E0
0E30
1C38
1C38
1070
00F0
03F0
0E70
38E0
70E0
70E0
70E0
F3C0
7DF0
38E0
ENDCHAR
STARTCHAR b
ENCODING 98
SWIDTH 531 0
DWIDTH 17 0
BBX 20 23 0 0
BITMAP
00C000
01C000
07C000
01C000
038000
038000
038000
038000
073C00
07DF00
070780
070380
0E0780
0E0380
0E0380
0E0380
1C0700
1C0700
1C0E00
1C0E00
383800
1CF000
07C000
ENDCHAR
STARTCHAR c
ENCODING 99
SWIDTH 437 0
DWIDTH 14 0
BBX 15 15 0 0
BITMAP
01E0
0738
0E1C
0C1C
3810
3800
3800
3800
7000
7000
7000
7808
7830
3FC0
1F80
ENDCHAR
STARTCHAR d
ENCODING 100
SWIDTH 531 0
DWIDTH 17 0
BBX 20 23 0 0
BITMAP
000060
0000E0
0003E0
0000E0
0001C0
0001C0
0001C0
0001C0
01E380
071B80
0E0780
0C0380
380700
380700
380700
380700
700E00
700E00
780E00
380E00
7C3E00
3FD800
0F1000
ENDCHAR
STARTCHAR e
ENCODING 101
SWIDTH 437 0
DWIDTH 14 0
BBX 15 15 0 0
BITMAP
01C0
07F0
0E38
0C18
3838
3838
3FF8
3800
7000
7000
7800
3C18
7FE0
3FC0
0F00
ENDCHAR
STARTCHAR f
ENCODING 102
SWIDTH 375 0
DWIDTH 12 0
BBX 15 23 0 0
BITMAP
007C
00CE
01C6
01C0
0380
0380
0380
0380
1FC0
0700
0700
0700
0E00
0E00
0E00
0E00
1C00
1C00
1C00
1C00
3800
7C00
FE00
ENDCHAR
STARTCHAR g
ENCODING 103
SWIDTH 468 0
DWIDTH 15 0
BBX 19 23 -2 -8
BITMAP
007E60
01CFC0
030700
030380
0E0700
0E0700
0E0600
070600
0F3800
07E000
020000
040000
180000
1FF000
1FFC00
0FFE00
0C0E00
300600
700600
780C00
FFF800
7FF000
1FC000
ENDCHAR
STARTCHAR h
ENCODING 104
SWIDTH 531 0
DWIDTH 17 0
BBX 20 23 0 0
BITMAP
00C000
01C000
07C000
01C000
038000
038000
038000
038000
073C00
077E00
078F00
070700
0E0E00
0E0E00
0E0E00
0E0E00
1C1C00
1C1C00
1C1C00
1C1C00
383800
7C7C00
FEFE00
ENDCHAR
STARTCHAR i
ENCODING 105
SWIDTH 281 0
DWIDTH 9 0
BBX 12 23 0 0
BITMAP
0080
01C0
01C0
0080
0000
0000
0000
0000
0100
0700
1F00
0700
0E00
0E00
0E00
0E00
1C00
1C00
1C00
1C00
3800
7C00
FE00
ENDCHAR
STARTCHAR j
ENCODING 106
SWIDTH 281 0
DWIDTH 9 0
BBX 13 31 -3 -8
BITMAP
0010
0038
0038
0010
0000
0000
0000
0000
0020
00E0
03E0
00E0
01C0
01C0
01C0
01C0
0380
0380
0380
0380
0700
0700
0700
0700
0E00
0E00
0E00
0E00
1800
D800
F000
ENDCHAR
STARTCHAR k
ENCODING 107
SWIDTH 500 0
DWIDTH 16 0
BBX 20 23 0 0
BITMAP
00C000
01C000
07C000
01C000
038000
038000
038000
038000
071E00
070800
071000
072000
0EC000
0F0000
0F8000
0FC000
1DC000
1CE000
1C7000
1C3800
383800
7C1C00
FE7E00
ENDCHAR
STARTCHAR l
ENCODING 108
SWIDTH 281 0
DWIDTH 9 0
BBX 12 23 0 0
BITMAP
00C0
01C0
07C0
01C0
0380
0380
0380
0380
0700
0700
0700
0700
0E00
0E00
0E00
0E00
1C00
1C00
1C00
1C00
3800
7C00
FE00
ENDCHAR
STARTCHAR m
ENCODING 109
SWIDTH 750 0
DWIDTH 24 0
BBX 26 15 0 0
BITMAP
033C3C00
077E7E00
1F8F8F00
07070700
0E0E0E00
0E0E0E00
0E0E0E00
0E0E0E00
1C1C1C00
1C1C1C00
1C1C1C00
1C1C1C00
38383800
7C7C7C00
FEFEFE00
ENDCHAR
STARTCHAR n
ENCODING 110
SWIDTH 500 0
DWIDTH 16 0
BBX 18 15 0 0
BITMAP
033C00
077E00
1F8F00
070700
0E0E00
0E0E00
0E0E00
0E0E00
1C1C00
1C1C00
1C1C00
1C1C00
383800
7C7C00
FEFE00
ENDCHAR
STARTCHAR o
ENCODING 111
SWIDTH 500 0
DWIDTH 16 0
BBX 17 15 0 0
BITMAP
00F800
039E00
060F00
0E0700
180F00
380700
380700
380700
700E00
700E00
700C00
381C00
783000
3CE000
0F8000
ENDCHAR
STARTCHAR p
ENCODING 112
SWIDTH 531 0
DWIDTH 17 0
BBX 20 23 -2 -8
BITMAP
00CF00
01F7C0
07C1E0
01C0E0
0381E0
0380E0
0380E0
0380E0
0701C0
0701C0
070380
070380
0E0E00
0F3C00
0FF000
0E0000
1C0000
1C0000
1C0000
1C0000
380000
7C0000
FE0000
ENDCHAR
STARTCHAR q
ENCODING 113
SWIDTH 500 0
DWIDTH 16 0
BBX 20 23 -2 -8
BITMAP
007840
01C7C0
0381C0
0301C0
0E0380
0E0380
0E0380
0E0380
1C0700
1C0700
1E0700
0E0700
1F0E00
0FFE00
03CE00
000E00
001C00
001C00
001C00
001C00
003800
007C00
00FE00
ENDCHAR
STARTCHAR r
ENCODING 114
SWIDTH 406 0
DWIDTH 13 0
BBX 14 15 0 0
BITMAP
0338
077C
1F9C
0700
0E00
0E00
0E00
0E00
1C00
1C00
1C00
1C00
3800
7C00
FE00
ENDCHAR
STARTCHAR s
ENCODING 115
SWIDTH 406 0
DWIDTH 13 0
BBX 13 15 1 0
BITMAP
07D0
0E30
1C10
1C10
3C00
1C00
1F00
07C0
03C0
01E0
40E0
40E0
C1C0
F380
9F00
ENDCHAR
STARTCHAR t
ENCODING 116
SWIDTH 312 0
DWIDTH 10 0
BBX 14 20 0 0
BITMAP
0040
0080
0180
0380
0380
1FE0
0700
0700
0700
0E00
0E00
0E00
0E00
1C00
1C00
1C00
1C00
3880
1F00
0E00
ENDCHAR
STARTCHAR u
ENCODING 117
SWIDTH 500 0
DWIDTH 16 0
BBX 18 15 0 0
BITMAP
1E0F00
0E0700
0E0700
0E0700
1C0E00
1C0E00
1C0E00
1C0E00
381C00
381C00
381C00
381C00
387E00
1FB800
0F3000
ENDCHAR
STARTCHAR v
ENCODING 118
SWIDTH 562 0
DWIDTH 18 0
BBX 19 15 0 0
BITMAP
1FC7E0
070180
070100
038200
070400
038400
038400
01C800
039000
01D000
01E000
00E000
018000
008000
008000
ENDCHAR
STARTCHAR w
ENCODING 119
SWIDTH 812 0
DWIDTH 26 0
BBX 27 15 0 0
BITMAP
1FCFE3E0
07038080
07038080
0383C100
07078200
0707C200
0389C400
0391E800
03A1D000
03A1D000
03E1F000
01C0E000
0381C000
01008000
01008000
ENDCHAR
STARTCHAR x
ENCODING 120
SWIDTH 500 0
DWIDTH 16 0
BBX 18 15 0 0
BITMAP
1F8F80
070600
038C00
038800
03B000
01E000
01E000
00E000
03E000
02E000
067000
043800
187000
303800
FCFE00
ENDCHAR
STARTCHAR y
ENCODING 121
SWIDTH 562 0
DWIDTH 18 0
BBX 21 23 -2 -8
BITMAP
07F1F8
01C060
01C040
00E080
01C100
00E100
00E100
007200
00E400
007400
007800
003800
006000
002000
002000
004000
008000
010000
010000
020000
6C0000
F80000
700000
ENDCHAR
STARTCHAR z
ENCODING 122
SWIDTH 468 0
DWIDTH 15 0
BBX 16 15 0 0
BITMAP
0FFF
0C0E
081C
081C
0070
00E0
00E0
01C0
0700
0700
0E00
1C04
3808
7018
FFF8
ENDCHAR
STARTCHAR braceleft
ENCODING 123
SWIDTH 406 0
DWIDTH 13 0
BBX 17 30 0 -6
BITMAP
000380
000E00
000C00
003800
003800
003800
003800
007000
007000
007000
007000
01C000
01C000
038000
0E0000
070000
038000
038000
01C000
038000
038000
038000
038000
070000
070000
070000
070000
060000
070000
01C000
ENDCHAR
STARTCHAR bar
ENCODING 124
SWIDTH 281 0
DWIDTH 9 0
BBX 9 24 2 -1
BITMAP
0380
0700
0700
0700
0700
0E00
0E00
0E00
0E00
1C00
1C00
1C00
1C00
3800
3800
3800
3800
7000
7000
7000
7000
E000
E000
E000
ENDCHAR
STARTCHAR braceright
ENCODING 125
SWIDTH 406 0
DWIDTH 13 0
BBX 17 30 0 -6
BITMAP
01C000
007000
003000
007000
007000
007000
007000
00E000
00E000
00E000
00E000
00E000
00E000
007000
001C00
00E000
01C000
01C000
038000
070000
070000
070000
070000
0E0000
0E0000
0E0000
0E0000
180000
380000
E00000
ENDCHAR
STARTCHAR asciitilde
ENCODING 126
SWIDTH 500 0
DWIDTH 16 0
BBX 14 4 4 19
BITMAP
1E04
7F18
C7F0
81E0
ENDCHAR
STARTCHAR bullet
ENCODING 149
SWIDTH 343 0
DWIDTH 11 0
BBX 10 8 2 4
BITMAP
0F00
3F00
7F80
7F80
7F80
FF00
7E00
3C00
ENDCHAR
STARTCHAR space
ENCODING 154
SWIDTH 250 0
DWIDTH 8 0
BBX 0 0 -1 0
BITMAP
ENDCHAR
STARTCHAR degree
ENCODING 156
SWIDTH 343 0
DWIDTH 11 0
BBX 10 8 4 15
BITMAP
0F00
3F00
7380
6180
6180
E700
7E00
3C00
ENDCHAR
STARTCHAR twosuperior
ENCODING 157
SWIDTH 250 0
DWIDTH 8 0
BBX 10 10 2 13
BITMAP
1F00
2180
0180
0300
0600
0C00
1800
6100
FE00
FC00
ENDCHAR
STARTCHAR periodcentered
ENCODING 158
SWIDTH 250 0
DWIDTH 8 0
BBX 5 4 2 7
BITMAP
30
F0
F0
60
ENDCHAR
STARTCHAR afii10071
ENCODING 163
SWIDTH 406 0
DWIDTH 13 0
BBX 17 20 0 0
BITMAP
010400
071C00
071C00
020800
000000
01C000
07F000
0E3800
0C1800
383800
383800
3FF800
380000
700000
700000
780000
3C1800
7FE000
3FC000
0F0000
ENDCHAR
STARTCHAR afii10023
ENCODING 179
SWIDTH 562 0
DWIDTH 18 0
BBX 24 26 0 0
BITMAP
006060
00F0F0
006060
000000
07FFF8
01F018
00E008
01C010
01C000
01C000
01C000
038080
038080
038180
03FF80
070300
070100
070100
070000
0E0000
0E0000
0E0000
0E0020
1C00C0
3E0380
FFFF80
ENDCHAR
STARTCHAR copyright
ENCODING 191
SWIDTH 750 0
DWIDTH 24 0
BBX 27 22 0 0
BITMAP
0007E000
001FF800
00781E00
01C00E00
03800700
03000300
0607D180
0C3CE300
1C306380
18702180
18600180
30C00300
30E00300
38604700
18798600
303E0C00
18001800
1C003800
0E007000
0F03C000
03FF0000
00FC0000
ENDCHAR
STARTCHAR afii10096
ENCODING 192
SWIDTH 750 0
DWIDTH 24 0
BBX 25 15 0 0
BITMAP
1FC1F000
0F871C00
070E0E00
071C0700
0E300600
0E700700
0FF00700
0FF00700
1CE00E00
1CE00E00
1C701C00
1C701C00
38707000
7C38E000
FE0F8000
ENDCHAR
STARTCHAR afii10065
ENCODING 193
SWIDTH 437 0
DWIDTH 14 0
BBX 16 15 0 0
BITMAP
03F0
0E18
1C1C
1C1C
1038
0078
03F8
0E38
3870
7070
7070
7070
F0E0
7F78
3C30
ENDCHAR
STARTCHAR afii10066
ENCODING 194
SWIDTH 437 0
DWIDTH 14 0
BBX 18 22 0 0
BITMAP
000040
007FC0
01FF00
070000
060000
0E0000
0EF800
1FFC00
1FFE00
1E0E00
1C0700
380E00
380E00
380E00
380E00
701C00
701C00
701800
703800
70E000
7FC000
1F0000
ENDCHAR
STARTCHAR afii10088
ENCODING 195
SWIDTH 593 0
DWIDTH 19 0
BBX 21 18 0 -3
BITMAP
0FE3F8
07C1F0
0380E0
0701C0
0701C0
0701C0
0701C0
0E0380
0E0380
0E0380
0E0380
1C0700
1C0700
3E0F00
7FFFC0
000180
000080
000080
ENDCHAR
STARTCHAR afii10069
ENCODING 196
SWIDTH 531 0
DWIDTH 17 0
BBX 19 18 0 -3
BITMAP
0FFFE0
0787C0
030380
060700
060700
060700
060700
0C0E00
0C0E00
0C0E00
0C0E00
181C00
181C00
383E00
7FFF00
C00600
800200
800200
ENDCHAR
STARTCHAR afii10070
ENCODING 197
SWIDTH 406 0
DWIDTH 13 0
BBX 15 15 0 0
BITMAP
01C0
07F0
0E38
0C18
3838
3838
3FF8
3800
7000
7000
7000
3818
7860
3FC0
0F00
ENDCHAR
STARTCHAR afii10086
ENCODING 198
SWIDTH 562 0
DWIDTH 18 0
BBX 23 26 -2 -8
BITMAP
000F80
000700
000700
003F80
00EEE0
018E30
038E38
061C30
0E1C38
0E1C38
0E1C38
1C3870
1C3870
1C3870
0E38E0
0C7180
077700
01FC00
007000
00E000
00E000
00E000
00E000
01C000
03E000
07F000
ENDCHAR
STARTCHAR afii10068
ENCODING 199
SWIDTH 406 0
DWIDTH 13 0
BBX 15 15 0 0
BITMAP
1FFE
0F86
0702
0702
0E00
0E00
0E00
0E00
1C00
1C00
1C00
1C00
3800
7C00
FE00
ENDCHAR
STARTCHAR afii10087
ENCODING 200
SWIDTH 531 0
DWIDTH 17 0
BBX 18 15 0 0
BITMAP
1F8F80
070600
038C00
038800
03B000
01E000
01E000
00E000
03E000
02E000
067000
043800
187000
303800
FCFE00
ENDCHAR
STARTCHAR afii10074
ENCODING 201
SWIDTH 593 0
DWIDTH 19 0
BBX 20 15 0 0
BITMAP
1FC3F0
0F83E0
0707C0
0705C0
0E1B80
0E1380
0E3380
0E2380
1CC700
1C8700
1D8700
1D0700
3E0E00
7C1F00
FC3F80
ENDCHAR
STARTCHAR afii10075
ENCODING 202
SWIDTH 593 0
DWIDTH 19 0
BBX 21 19 0 0
BITMAP
006300
006300
003E00
000000
1FC3F0
0F83E0
0707C0
0705C0
0E1B80
0E1380
0E3380
0E2380
1CC700
1C8700
1D8700
1D0700
3E0E00
7C1F00
FC3F80
ENDCHAR
STARTCHAR afii10076
ENCODING 203
SWIDTH 531 0
DWIDTH 17 0
BBX 19 15 0 0
BITMAP
1FC3C0
0F85E0
0709C0
071000
0E6000
0F8000
0F8000
0FC000
1DC000
1CE000
1C7000
1C3800
383800
7C1C00
FE7E00
ENDCHAR
STARTCHAR afii10077
ENCODING 204
SWIDTH 593 0
DWIDTH 19 0
BBX 20 15 0 0
BITMAP
03FFF0
01E3E0
00C1C0
00C1C0
018380
018380
018380
018380
030700
030700
030700
030700
E60E00
EC1F00
783F80
ENDCHAR
STARTCHAR afii10078
ENCODING 205
SWIDTH 718 0
DWIDTH 23 0
BBX 24 15 0 0
BITMAP
1E003F
0F003E
07007C
07805C
0B01B8
0B8138
098338
09C238
118C70
11C870
10D870
10F070
20E0E0
70C1F0
F843F8
ENDCHAR
STARTCHAR afii10079
ENCODING 206
SWIDTH 593 0
DWIDTH 19 0
BBX 20 15 0 0
BITMAP
1FC7F0
0F83E0
0701C0
0701C0
0E0380
0E0380
0FFF80
0FFF80
1C0700
1C0700
1C0700
1C0700
380E00
7C1F00
FE3F80
ENDCHAR
STARTCHAR afii10080
ENCODING 207
SWIDTH 531 0
DWIDTH 17 0
BBX 18 15 0 0
BITMAP
00F800
038E00
070700
0E0380
180300
380380
380380
380380
700700
700700
380E00
380E00
383800
1C7000
07C000
ENDCHAR
STARTCHAR afii10081
ENCODING 208
SWIDTH 593 0
DWIDTH 19 0
BBX 20 15 0 0
BITMAP
1FFFF0
0F83E0
0701C0
0701C0
0E0380
0E0380
0E0380
0E0380
1C0700
1C0700
1C0700
1C0700
380E00
7C1F00
FE3F80
ENDCHAR
STARTCHAR afii10097
ENCODING 209
SWIDTH 593 0
DWIDTH 19 0
BBX 20 15 0 0
BITMAP
00FFF0
01C1E0
0381C0
0381C0
070380
070380
038380
01FF80
00E700
01C700
038700
070700
1C0E00
381F00
F83F80
ENDCHAR
STARTCHAR afii10082
ENCODING 210
SWIDTH 500 0
DWIDTH 16 0
BBX 20 23 -2 -8
BITMAP
07FF00
03FFC0
01C1E0
01C0E0
0381E0
0380E0
0380E0
0380E0
0701C0
0701C0
070380
070380
0E0E00
0E3C00
0FF000
0E0000
1C0000
1C0000
1C0000
1C0000
380000
7C0000
FE0000
ENDCHAR
STARTCHAR afii10083
ENCODING 211
SWIDTH 406 0
DWIDTH 13 0
BBX 15 15 0 0
BITMAP
01E0
0738
0E1C
0C1C
3810
3800
3800
3800
7000
7000
7800
3C08
7C30
3FC0
0F80
ENDCHAR
STARTCHAR afii10084
ENCODING 212
SWIDTH 531 0
DWIDTH 17 0
BBX 18 15 0 0
BITMAP
1FFFC0
18F8C0
107040
107040
00E000
00E000
00E000
00E000
01C000
01C000
01C000
01C000
038000
07C000
0FE000
ENDCHAR
STARTCHAR afii10085
ENCODING 213
SWIDTH 531 0
DWIDTH 17 0
BBX 21 23 -2 -8
BITMAP
07F1F8
01C060
01C040
00E080
01C100
00E100
00E100
007200
00E400
007400
007800
003800
007000
002000
002000
004000
008000
010000
010000
320000
F40000
F80000
700000
ENDCHAR
STARTCHAR afii10072
ENCODING 214
SWIDTH 843 0
DWIDTH 27 0
BBX 28 15 0 0
BITMAP
0F0FE1E0
1E87C2F0
0E8382E0
00438400
00471800
00272000
001FC000
003FE000
00EEE000
01CE7000
038E3800
070E1C00
1C1C1C00
383E0E00
FE7F3F80
ENDCHAR
STARTCHAR afii10067
ENCODING 215
SWIDTH 437 0
DWIDTH 14 0
BBX 16 15 0 0
BITMAP
1FF8
0FFC
071E
070E
0E1C
0E3C
0FF8
0FF8
1C38
1C1C
1C1C
1C1C
3878
7FF0
FFE0
ENDCHAR
STARTCHAR afii10094
ENCODING 216
SWIDTH 468 0
DWIDTH 15 0
BBX 16 15 0 0
BITMAP
1FC0
0F80
0700
0700
0E00
0E00
0FF0
0FFC
1C3C
1C1C
1C1C
1C1C
3878
7FF0
FFC0
ENDCHAR
STARTCHAR afii10093
ENCODING 217
SWIDTH 687 0
DWIDTH 22 0
BBX 23 15 0 0
BITMAP
1FC0FE
0F807C
070038
070038
0E0070
0E0070
0FF070
0FFC70
1C3CE0
1C1CE0
1C1CE0
1C1CE0
3879C0
7FF3E0
FFC7F0
ENDCHAR
STARTCHAR afii10073
ENCODING 218
SWIDTH 406 0
DWIDTH 13 0
BBX 14 15 0 0
BITMAP
07F0
0FF8
1C3C
181C
0038
0078
07F0
07E0
00E0
0070
0070
6070
E1E0
7FC0
1F80
ENDCHAR
STARTCHAR afii10090
ENCODING 219
SWIDTH 843 0
DWIDTH 27 0
BBX 28 15 0 0
BITMAP
1FCFE7F0
0F87C3E0
070381C0
070381C0
0E070380
0E070380
0E070380
0E070380
1C0E0700
1C0E0700
1C0E0700
1C0E0700
381C0E00
7C3E1F00
FFFFFF80
ENDCHAR
STARTCHAR afii10095
ENCODING 220
SWIDTH 437 0
DWIDTH 14 0
BBX 15 15 0 0
BITMAP
07F0
0FF8
1C1C
180E
201C
001C
041C
07FC
0838
0038
4038
6038
E0E0
7FC0
1F80
ENDCHAR
STARTCHAR afii10091
ENCODING 221
SWIDTH 843 0
DWIDTH 27 0
BBX 29 18 0 -3
BITMAP
0FE7F3F8
07C3E1F0
0381C0E0
070381C0
070381C0
070381C0
070381C0
0E070380
0E070380
0E070380
0E070380
1C0E0700
1C0E0700
3E1F0F00
7FFFFFC0
00000180
00000080
00000080
ENDCHAR
STARTCHAR afii10089
ENCODING 222
SWIDTH 562 0
DWIDTH 18 0
BBX 19 15 0 0
BITMAP
1FCFE0
0F87C0
070380
070380
0E0700
0E0700
0E0700
0F0F00
0FFE00
000E00
000E00
000E00
001C00
003E00
007F00
ENDCHAR
STARTCHAR afii10092
ENCODING 223
SWIDTH 562 0
DWIDTH 18 0
BBX 19 15 0 0
BITMAP
1FF800
1FF000
18E000
10E000
21C000
01C000
01FE00
01FF80
038780
038380
038380
038380
070F00
0FFE00
1FF800
ENDCHAR
STARTCHAR afii10048
ENCODING 224
SWIDTH 937 0
DWIDTH 30 0
BBX 33 22 0 0
BITMAP
07FC0FE000
01F03C7800
00E0701C00
01C1C01C00
01C1C01C00
01C3800E00
01C3800E00
038F001E00
038F001E00
038F001E00
03FF001E00
071E003C00
071E003C00
071E003C00
071E003C00
0E1C007000
0E1C007000
0E0E00E000
0E0E00E000
1C0E038000
3E078F0000
FF81FC0000
ENDCHAR
STARTCHAR afii10017
ENCODING 225
SWIDTH 687 0
DWIDTH 22 0
BBX 27 22 -1 0
BITMAP
00010000
00010000
00018000
00070000
00078000
000F8000
000F8000
001F8000
00378000
0033C000
0063C000
00C3C000
00C3C000
0183C000
0181E000
07FFC000
0601E000
0601E000
0C00F000
1801E000
3803F000
FE0FFC00
ENDCHAR
STARTCHAR afii10018
ENCODING 226
SWIDTH 656 0
DWIDTH 21 0
BBX 24 22 0 0
BITMAP
07FFFC
01F00C
00E004
01C008
01C000
01C000
01C000
038000
038000
03FFC0
03C1E0
0700E0
0700F0
070070
070078
0E00F0
0E00F0
0E00F0
0E01E0
1C03C0
3E0F80
FFFE00
ENDCHAR
STARTCHAR afii10040
ENCODING 227
SWIDTH 718 0
DWIDTH 23 0
BBX 27 26 -1 -4
BITMAP
03FE3FE0
00F80F80
00700700
00E00E00
00E00E00
00E00E00
00E00E00
01C01C00
01C01C00
01C01C00
01C01C00
03803800
03803800
03803800
03803800
07007000
07007000
07007000
07007000
0E00E000
1F01F000
7FFFFC00
00001C00
00001800
00000800
00000800
ENDCHAR
STARTCHAR afii10021
ENCODING 228
SWIDTH 750 0
DWIDTH 24 0
BBX 28 26 -1 -4
BITMAP
00FFFFC0
00780F80
00300780
00600F00
00600F00
00600F00
00600F00
00C01E00
00C01E00
00C01E00
00C01E00
01803C00
01803C00
01803C00
01803C00
03007800
03007800
03007800
03007800
0C00F000
1801F800
7FFFFE00
70000E00
C0000C00
80000400
80000400
ENDCHAR
STARTCHAR afii10022
ENCODING 229
SWIDTH 625 0
DWIDTH 20 0
BBX 23 22 0 0
BITMAP
07FFF8
01F018
00E008
01C010
01C000
01C000
01C000
038080
038080
038180
03FF80
070300
070100
070100
070000
0E0000
0E0000
0E0000
0E0020
1C00C0
3E0380
FFFF80
ENDCHAR
STARTCHAR afii10038
ENCODING 230
SWIDTH 781 0
DWIDTH 25 0
BBX 28 22 0 0
BITMAP
0003E000
0001C000
001FFC00
00E38E00
01C38700
03838380
03838380
0E070380
0E070380
1E0703C0
1E0703C0
3C0E0780
3C0E0780
1C0E0700
1C0E0700
1C1C1C00
1C1C1C00
0E1C3800
071C7000
03FF8000
00380000
01FF0000
ENDCHAR
STARTCHAR afii10020
ENCODING 231
SWIDTH 593 0
DWIDTH 19 0
BBX 22 22 0 0
BITMAP
07FFFC
01F00C
00E004
01C008
01C000
01C000
01C000
038000
038000
038000
038000
070000
070000
070000
070000
0E0000
0E0000
0E0000
0E0000
1C0000
3E0000
FFC000
ENDCHAR
STARTCHAR afii10039
ENCODING 232
SWIDTH 718 0
DWIDTH 23 0
BBX 28 22 -1 0
BITMAP
03FC0FC0
00F00300
00780400
00780800
00781000
003C1000
001E2000
003CC000
001F0000
000F0000
000F8000
000F0000
00178000
0033C000
0043C000
0083C000
0181E000
0101E000
0200F000
0C00F000
3800F800
FF03FE00
ENDCHAR
STARTCHAR afii10026
ENCODING 233
SWIDTH 750 0
DWIDTH 24 0
BBX 27 22 0 0
BITMAP
07FC07E0
01F00F80
00E00F00
01C03E00
01C02E00
01C06E00
01C04E00
03819C00
03811C00
03831C00
03821C00
070C3800
07083800
07183800
07103800
0E607000
0E407000
0EC07000
0E807000
1F00E000
3E01F000
FE07FC00
ENDCHAR
STARTCHAR afii10027
ENCODING 234
SWIDTH 750 0
DWIDTH 24 0
BBX 28 25 0 0
BITMAP
00020800
0003B800
0001C000
07FC07E0
01F00F80
00E00F00
01C03E00
01C02E00
01C06E00
01C04E00
03819C00
03811C00
03831C00
03821C00
070C3800
07083800
07183800
07103800
0E607000
0E407000
0EC07000
0E807000
1F00E000
3E01F000
FE07FC00
ENDCHAR
STARTCHAR afii10028
ENCODING 235
SWIDTH 718 0
DWIDTH 23 0
BBX 26 22 0 0
BITMAP
07FC0780
01F00FC0
00E01BC0
01C06300
01C0C000
01C18000
01C30000
038C0000
03980000
03BC0000
03EE0000
079C0000
070E0000
07070000
07070000
0E070000
0E038000
0E038000
0E01C000
1C01C000
3E03E000
FF8FF800
ENDCHAR
STARTCHAR afii10029
ENCODING 236
SWIDTH 781 0
DWIDTH 25 0
BBX 28 22 0 0
BITMAP
007FFFC0
003C0F80
00180780
00300F00
00300F00
00300F00
00300F00
00601E00
00601E00
00601E00
00601E00
00C03C00
00C03C00
00C03C00
00C03C00
01807800
01807800
01807800
31807800
F300F000
F601F800
7C07FE00
ENDCHAR
STARTCHAR afii10030
ENCODING 237
SWIDTH 875 0
DWIDTH 28 0
BBX 31 22 0 0
BITMAP
07F0007E
01F00078
00F000F0
017001E0
017001E0
017802E0
013804E0
027009C0
027809C0
023809C0
023C11C0
04382380
04384380
043C4380
041C8380
083D0700
081D0700
081E0700
080E0700
101C0E00
38081F00
FE087FC0
ENDCHAR
STARTCHAR afii10031
ENCODING 238
SWIDTH 718 0
DWIDTH 23 0
BBX 26 22 0 0
BITMAP
07FC7FC0
01F01F00
00E00E00
01C01C00
01C01C00
01C01C00
01C01C00
03803800
03803800
03FFF800
03FFF800
07007000
07007000
07007000
07007000
0E00E000
0E00E000
0E00E000
0E00E000
1C01C000
3E03E000
FF8FF800
ENDCHAR
STARTCHAR afii10032
ENCODING 239
SWIDTH 656 0
DWIDTH 21 0
BBX 24 22 0 0
BITMAP
001FC0
0078F0
00E038
038038
038038
07001C
07001C
1E003C
1E003C
1E003C
1E003C
3C0078
3C0078
3C0078
3C0078
3800E0
3800E0
1C01C0
1C01C0
1C0700
0F1E00
03F800
ENDCHAR
STARTCHAR afii10033
ENCODING 240
SWIDTH 718 0
DWIDTH 23 0
BBX 26 22 0 0
BITMAP
07FFFFC0
01F01F00
00E00E00
01C01C00
01C01C00
01C01C00
01C01C00
03803800
03803800
03803800
03803800
07007000
07007000
07007000
07007000
0E00E000
0E00E000
0E00E000
0E00E000
1C01C000
3E03E000
FF8FF800
ENDCHAR
STARTCHAR afii10049
ENCODING 241
SWIDTH 687 0
DWIDTH 22 0
BBX 26 22 -1 0
BITMAP
000FFFC0
003E1F00
003C0E00
00F01C00
00F01C00
00F01C00
00F01C00
01E03800
00F03800
00F83800
003FF800
001E7000
001C7000
00387000
00787000
00E0E000
01C0E000
03C0E000
0380E000
0E01C000
1E03E000
FC0FF800
ENDCHAR
STARTCHAR afii10034
ENCODING 242
SWIDTH 593 0
DWIDTH 19 0
BBX 22 22 0 0
BITMAP
07FFE0
01F0F8
00E078
01C078
01C078
01C078
01C078
0380F0
0380F0
0380F0
0381E0
0707C0
07FF00
070000
070000
0E0000
0E0000
0E0000
0E0000
1C0000
3E0000
FF8000
ENDCHAR
STARTCHAR afii10035
ENCODING 243
SWIDTH 656 0
DWIDTH 21 0
BBX 24 22 0 0
BITMAP
000FC4
003C3C
00F00C
03C008
038000
078000
070000
1E0000
1E0000
1E0000
1E0000
3C0000
3C0000
3C0000
3C0000
3C0000
3C0000
1E0010
1F0020
1F80C0
07FF00
01FC00
ENDCHAR
STARTCHAR afii10036
ENCODING 244
SWIDTH 656 0
DWIDTH 21 0
BBX 24 22 0 0
BITMAP
07FFFF
060703
040701
080E02
000E00
000E00
000E00
001C00
001C00
001C00
001C00
003800
003800
003800
003800
007000
007000
007000
007000
00E000
01F000
07FC00
ENDCHAR
STARTCHAR afii10037
ENCODING 245
SWIDTH 656 0
DWIDTH 21 0
BBX 25 22 0 0
BITMAP
07F03F80
03E01F00
00C00C00
01C01800
00C03000
00E03000
00606000
00E0C000
00618000
00718000
00330000
00760000
003C0000
003C0000
00180000
00300000
00600000
00600000
18C00000
79800000
7B000000
3E000000
ENDCHAR
STARTCHAR afii10024
ENCODING 246
SWIDTH 1031 0
DWIDTH 33 0
BBX 38 22 -1 0
BITMAP
01E07FC0F0
03F01F01F8
03D80E0378
03181C0C60
000C1C1800
00061C3000
00031C6000
0003398000
0003BB8000
0007FFC000
000F39E000
001C71C000
003870E000
0070707000
0070707000
01C0E07000
0380E03800
0380E03800
0700E01C00
1C01C01C00
3E03E03E00
FF8FF8FF80
ENDCHAR
STARTCHAR afii10019
ENCODING 247
SWIDTH 656 0
DWIDTH 21 0
BBX 24 22 0 0
BITMAP
07FFE0
01F078
00E03C
01C038
01C03C
01C03C
01C03C
038070
0380F0
0381E0
03FFC0
07FFC0
0700E0
0700F0
070070
0E00F0
0E00F0
0E00F0
0E01E0
1C03C0
3E0F80
FFFE00
ENDCHAR
STARTCHAR afii10046
ENCODING 248
SWIDTH 656 0
DWIDTH 21 0
BBX 24 22 0 0
BITMAP
07FC00
01F000
00E000
01C000
01C000
01C000
01C000
038000
038000
03FFC0
03C1E0
0700E0
0700F0
070070
070078
0E00F0
0E00F0
0E00F0
0E01E0
1C03C0
3E0F80
FFFE00
ENDCHAR
STARTCHAR afii10045
ENCODING 249
SWIDTH 906 0
DWIDTH 29 0
BBX 32 22 0 0
BITMAP
07FC01FF
01F0007C
00E00038
01C00070
01C00070
01C00070
01C00070
038000E0
038000E0
03FFC0E0
03C1E0E0
0700E1C0
0700F1C0
070071C0
070079C0
0E00F380
0E00F380
0E00F380
0E01E380
1C03C700
3E0F8F80
FFFE3FE0
ENDCHAR
STARTCHAR afii10025
ENCODING 250
SWIDTH 656 0
DWIDTH 21 0
BBX 22 22 2 0
BITMAP
047F80
07C1E0
0600F0
0800F0
0800F0
0000F0
0000F0
0201C0
0203C0
030780
03FF00
060F00
040380
0403C0
0001C0
0003C0
0003C0
4003C0
4003C0
C00F00
F83E00
8FF800
ENDCHAR
STARTCHAR afii10042
ENCODING 251
SWIDTH 1031 0
DWIDTH 33 0
BBX 36 22 0 0
BITMAP
07FCFF9FF0
01F03E07C0
00E01C0380
01C0380700
01C0380700
01C0380700
01C0380700
0380700E00
0380700E00
0380700E00
0380700E00
0700E01C00
0700E01C00
0700E01C00
0700E01C00
0E01C03800
0E01C03800
0E01C03800
0E01C03800
1C03807000
3E07C0F800
FFFFFFFE00
ENDCHAR
STARTCHAR afii10047
ENCODING 252
SWIDTH 656 0
DWIDTH 21 0
BBX 22 22 2 0
BITMAP
047FC0
07C0F0
060078
080078
080078
000078
000078
0000F0
0200F0
0300F0
03FFF0
0601E0
0401E0
0001E0
0001E0
0003C0
0003C0
4003C0
4003C0
C00F00
F83E00
8FF800
ENDCHAR
STARTCHAR afii10043
ENCODING 253
SWIDTH 1031 0
DWIDTH 33 0
BBX 37 26 -1 -4
BITMAP
03FE7FCFF8
00F81F03E0
00700E01C0
00E01C0380
00E01C0380
00E01C0380
00E01C0380
01C0380700
01C0380700
01C0380700
01C0380700
0380700E00
0380700E00
0380700E00
0380700E00
0700E01C00
0700E01C00
0700E01C00
0700E01C00
0E01C03800
1F03E07C00
7FFFFFFF00
0000000700
0000000600
0000000200
0000000200
ENDCHAR
STARTCHAR afii10041
ENCODING 254
SWIDTH 718 0
DWIDTH 23 0
BBX 26 22 0 0
BITMAP
07FC7FC0
01F01F00
00E00E00
01C01C00
01C01C00
01C01C00
01C01C00
03803800
03803800
03803800
03C07800
03FFF000
00007000
00007000
00007000
0000E000
0000E000
0000E000
0000E000
0001C000
0003E000
000FF800
ENDCHAR
STARTCHAR afii10044
ENCODING 255
SWIDTH 750 0
DWIDTH 24 0
BBX 27 22 0 0
BITMAP
07FF8000
073E0000
061C0000
08380000
08380000
00380000
00380000
00700000
00700000
007FF800
00783C00
00E01C00
00E01E00
00E00E00
00E00F00
01C01E00
01C01E00
01C01E00
01C03C00
03807800
07C1F000
1FFFC000
ENDCHAR
ENDFONT
