STARTFONT 2.1
COMMENT Copyright (C) 1990-1991 EWT Consulting
COMMENT Portions Copyright (C) 1994-1995 Cronyx Ltd.
COMMENT Changes Copyright (C) 1996-1997 by Andrey A. Chernov, Moscow, Russia.
COMMENT Modified by Serge Vakulenko, <vak@cronyx.ru>
COMMENT Changes 1999 by Serge Winitzki.
COMMENT This software may be used, modified, copied, distributed, and sold,
COMMENT in both source and binary form provided that the copyright
COMMENT and these terms are retained. Under no circumstances is the author
COMMENT responsible for the proper functioning of this software, nor does
COMMENT the author assume any responsibility for damages incurred with its use.
COMMENT $XFree86$
FONT -Cronyx-Helvetica-Bold-O-Normal--14-100-100-100-P-56-KOI8-R
SIZE 10 96 96
FONTBOUNDINGBOX 17 15 -1 -3
STARTPROPERTIES 21
DEFAULT_CHAR 32
FONT_ASCENT 13
FONT_DESCENT 3
SPACING "P"
FONTNAME_REGISTRY ""
FOUNDRY "Cronyx"
FAMILY_NAME "Helvetica"
WEIGHT_NAME "Bold"
SLANT "O"
SETWIDTH_NAME "Normal"
ADD_STYLE_NAME ""
AVERAGE_WIDTH 56
CHARSET_REGISTRY "KOI8"
CHARSET_ENCODING "R"
PIXEL_SIZE 14
POINT_SIZE 100
RESOLUTION_X 100
RESOLUTION_Y 100
COPYRIGHT "Copyright (C) 1990, 1991 EWT Consulting, Portions Copyright (C) 1994 Cronyx Ltd., Portions Copyright (C) 1996-1997 by Andrey A. Chernov, Moscow, Russia."
_XMBDFED_INFO "Edited with xmbdfed 4.3."
_XFREE86_GLYPH_RANGES "32_126 149 154 156_158 163 179 191_255"
ENDPROPERTIES
CHARS 167
STARTCHAR space
ENCODING 32
SWIDTH 308 0
DWIDTH 4 0
BBX 0 0 -1 0
BITMAP
ENDCHAR
STARTCHAR exclam
ENCODING 33
SWIDTH 400 0
DWIDTH 4 0
BBX 4 10 0 0
BITMAP
30
30
30
60
60
60
60
C0
00
C0
ENDCHAR
STARTCHAR quotedbl
ENCODING 34
SWIDTH 1500 0
DWIDTH 6 0
BBX 5 4 1 6
BITMAP
78
F0
F0
F0
ENDCHAR
STARTCHAR numbersign
ENCODING 35
SWIDTH 800 0
DWIDTH 8 0
BBX 10 10 -1 0
BITMAP
0780
0780
0780
3F80
1E00
1E00
7F00
7800
7800
7800
ENDCHAR
STARTCHAR dollar
ENCODING 36
SWIDTH 727 0
DWIDTH 8 0
BBX 8 11 0 -1
BITMAP
0C
1E
3F
3F
78
3C
1E
1E
FC
78
30
ENDCHAR
STARTCHAR percent
ENCODING 37
SWIDTH 1300 0
DWIDTH 13 0
BBX 13 10 0 0
BITMAP
1C00
3630
3660
3980
0300
0600
0CE0
3360
6360
01C0
ENDCHAR
STARTCHAR ampersand
ENCODING 38
SWIDTH 1000 0
DWIDTH 10 0
BBX 10 10 0 0
BITMAP
0E00
1B00
1B00
3600
1C00
3C00
6600
CF00
C600
7F00
ENDCHAR
STARTCHAR quotesingle
ENCODING 39
SWIDTH 1000 0
DWIDTH 4 0
BBX 3 4 1 6
BITMAP
60
C0
C0
C0
ENDCHAR
STARTCHAR parenleft
ENCODING 40
SWIDTH 385 0
DWIDTH 5 0
BBX 7 13 0 -3
BITMAP
06
0C
18
30
30
30
60
60
60
60
60
60
30
ENDCHAR
STARTCHAR parenright
ENCODING 41
SWIDTH 385 0
DWIDTH 5 0
BBX 7 13 -1 -3
BITMAP
18
0C
18
0C
0C
0C
18
18
18
18
60
60
C0
ENDCHAR
STARTCHAR asterisk
ENCODING 42
SWIDTH 1500 0
DWIDTH 6 0
BBX 7 4 0 6
BITMAP
18
FC
78
FC
ENDCHAR
STARTCHAR plus
ENCODING 43
SWIDTH 1600 0
DWIDTH 8 0
BBX 7 5 1 2
BITMAP
18
18
FC
30
30
ENDCHAR
STARTCHAR comma
ENCODING 44
SWIDTH 2000 0
DWIDTH 4 0
BBX 3 2 -1 -1
BITMAP
60
C0
ENDCHAR
STARTCHAR hyphen
ENCODING 45
SWIDTH 5000 0
DWIDTH 5 0
BBX 5 1 0 4
BITMAP
F8
ENDCHAR
STARTCHAR period
ENCODING 46
SWIDTH 4000 0
DWIDTH 4 0
BBX 2 1 0 0
BITMAP
C0
ENDCHAR
STARTCHAR slash
ENCODING 47
SWIDTH 417 0
DWIDTH 5 0
BBX 8 12 -1 -2
BITMAP
03
06
06
0C
0C
18
30
30
30
C0
C0
C0
ENDCHAR
STARTCHAR zero
ENCODING 48
SWIDTH 800 0
DWIDTH 8 0
BBX 8 10 0 0
BITMAP
1E
33
33
66
66
66
66
CC
CC
78
ENDCHAR
STARTCHAR one
ENCODING 49
SWIDTH 800 0
DWIDTH 8 0
BBX 6 10 0 0
BITMAP
0C
3C
0C
18
18
18
18
30
30
30
ENDCHAR
STARTCHAR two
ENCODING 50
SWIDTH 800 0
DWIDTH 8 0
BBX 8 10 0 0
BITMAP
1E
33
33
06
0C
18
30
C0
C0
FC
ENDCHAR
STARTCHAR three
ENCODING 51
SWIDTH 800 0
DWIDTH 8 0
BBX 8 10 0 0
BITMAP
1E
33
03
06
1C
06
06
0C
CC
78
ENDCHAR
STARTCHAR four
ENCODING 52
SWIDTH 800 0
DWIDTH 8 0
BBX 8 10 0 0
BITMAP
03
07
0F
1E
36
66
7E
0C
0C
0C
ENDCHAR
STARTCHAR five
ENCODING 53
SWIDTH 800 0
DWIDTH 8 0
BBX 8 10 0 0
BITMAP
3F
30
30
60
7C
66
06
0C
CC
78
ENDCHAR
STARTCHAR six
ENCODING 54
SWIDTH 800 0
DWIDTH 8 0
BBX 8 10 0 0
BITMAP
1E
33
30
60
7C
76
66
CC
CC
78
ENDCHAR
STARTCHAR seven
ENCODING 55
SWIDTH 800 0
DWIDTH 8 0
BBX 8 10 0 0
BITMAP
3F
03
03
0C
0C
18
18
60
60
60
ENDCHAR
STARTCHAR eight
ENCODING 56
SWIDTH 800 0
DWIDTH 8 0
BBX 8 10 0 0
BITMAP
1E
33
33
66
3C
66
66
CC
CC
78
ENDCHAR
STARTCHAR nine
ENCODING 57
SWIDTH 800 0
DWIDTH 8 0
BBX 8 10 0 0
BITMAP
1E
33
33
66
6E
3E
06
0C
CC
78
ENDCHAR
STARTCHAR colon
ENCODING 58
SWIDTH 571 0
DWIDTH 4 0
BBX 3 7 0 0
BITMAP
60
00
00
00
00
00
C0
ENDCHAR
STARTCHAR semicolon
ENCODING 59
SWIDTH 500 0
DWIDTH 4 0
BBX 5 8 -1 -1
BITMAP
18
00
00
00
00
00
60
C0
ENDCHAR
STARTCHAR less
ENCODING 60
SWIDTH 1143 0
DWIDTH 8 0
BBX 7 7 1 1
BITMAP
0E
1C
38
70
70
38
1C
ENDCHAR
STARTCHAR equal
ENCODING 61
SWIDTH 2667 0
DWIDTH 8 0
BBX 6 3 1 3
BITMAP
FC
00
FC
ENDCHAR
STARTCHAR greater
ENCODING 62
SWIDTH 1143 0
DWIDTH 8 0
BBX 7 7 1 1
BITMAP
70
38
1C
0E
38
70
E0
ENDCHAR
STARTCHAR question
ENCODING 63
SWIDTH 800 0
DWIDTH 8 0
BBX 8 10 0 0
BITMAP
1E
33
33
06
0C
18
18
30
00
30
ENDCHAR
STARTCHAR at
ENCODING 64
SWIDTH 1250 0
DWIDTH 15 0
BBX 16 12 0 -1
BITMAP
01F0
0E38
180C
180C
31F6
666C
666C
66CC
33F8
6000
3870
0FC0
ENDCHAR
STARTCHAR A
ENCODING 65
SWIDTH 1000 0
DWIDTH 10 0
BBX 12 10 -1 0
BITMAP
0300
0300
0780
0F00
1980
1980
3FC0
6180
C0C0
C0C0
ENDCHAR
STARTCHAR B
ENCODING 66
SWIDTH 1000 0
DWIDTH 10 0
BBX 10 10 0 0
BITMAP
3F80
30C0
30C0
6180
7F00
6180
6180
C300
C300
FE00
ENDCHAR
STARTCHAR C
ENCODING 67
SWIDTH 1000 0
DWIDTH 10 0
BBX 11 10 0 0
BITMAP
0F80
18C0
3060
6000
6000
6000
6000
C180
6300
3E00
ENDCHAR
STARTCHAR D
ENCODING 68
SWIDTH 1100 0
DWIDTH 11 0
BBX 11 10 0 0
BITMAP
3F80
30C0
3060
60C0
60C0
60C0
60C0
C180
C300
FE00
ENDCHAR
STARTCHAR E
ENCODING 69
SWIDTH 1000 0
DWIDTH 10 0
BBX 10 10 0 0
BITMAP
3FC0
3000
3000
6000
7F00
6000
6000
C000
C000
FF00
ENDCHAR
STARTCHAR F
ENCODING 70
SWIDTH 900 0
DWIDTH 9 0
BBX 10 10 0 0
BITMAP
3FC0
3000
3000
6000
7F00
6000
6000
C000
C000
C000
ENDCHAR
STARTCHAR G
ENCODING 71
SWIDTH 1100 0
DWIDTH 11 0
BBX 11 10 0 0
BITMAP
0F80
18C0
3060
6000
6000
63C0
60C0
C180
6380
3F80
ENDCHAR
STARTCHAR H
ENCODING 72
SWIDTH 1100 0
DWIDTH 11 0
BBX 11 10 0 0
BITMAP
3060
3060
3060
60C0
7FC0
60C0
60C0
C180
C180
C180
ENDCHAR
STARTCHAR I
ENCODING 73
SWIDTH 400 0
DWIDTH 4 0
BBX 4 10 0 0
BITMAP
30
30
30
60
60
60
60
C0
C0
C0
ENDCHAR
STARTCHAR J
ENCODING 74
SWIDTH 800 0
DWIDTH 8 0
BBX 8 10 0 0
BITMAP
03
03
03
06
06
06
06
CC
CC
78
ENDCHAR
STARTCHAR K
ENCODING 75
SWIDTH 900 0
DWIDTH 9 0
BBX 10 10 0 0
BITMAP
3180
3300
3600
7800
7000
7800
6C00
CC00
C600
C300
ENDCHAR
STARTCHAR L
ENCODING 76
SWIDTH 800 0
DWIDTH 8 0
BBX 9 10 0 0
BITMAP
3000
3000
3000
6000
6000
6000
6000
C000
C000
FE00
ENDCHAR
STARTCHAR M
ENCODING 77
SWIDTH 1200 0
DWIDTH 12 0
BBX 12 10 0 0
BITMAP
3030
3030
3870
70E0
79E0
79E0
6F60
DEC0
CCC0
CCC0
ENDCHAR
STARTCHAR N
ENCODING 78
SWIDTH 1100 0
DWIDTH 11 0
BBX 11 10 0 0
BITMAP
3060
3860
3C60
78C0
6CC0
66C0
63C0
C780
C380
C180
ENDCHAR
STARTCHAR O
ENCODING 79
SWIDTH 1100 0
DWIDTH 11 0
BBX 11 10 0 0
BITMAP
0F80
18C0
3060
60C0
60C0
60C0
60C0
C180
6300
3E00
ENDCHAR
STARTCHAR P
ENCODING 80
SWIDTH 1000 0
DWIDTH 10 0
BBX 11 10 0 0
BITMAP
3F80
30C0
3060
60C0
6180
7F00
6000
C000
C000
C000
ENDCHAR
STARTCHAR Q
ENCODING 81
SWIDTH 1100 0
DWIDTH 11 0
BBX 11 10 0 0
BITMAP
0F80
18C0
3060
60C0
60C0
60C0
60C0
C780
6300
3F80
ENDCHAR
STARTCHAR R
ENCODING 82
SWIDTH 1100 0
DWIDTH 11 0
BBX 12 10 0 0
BITMAP
3F80
30C0
3060
60C0
6180
7F80
60C0
C180
C180
C0C0
ENDCHAR
STARTCHAR S
ENCODING 83
SWIDTH 1000 0
DWIDTH 10 0
BBX 10 10 0 0
BITMAP
1F80
30C0
30C0
6000
3C00
0700
0180
C300
C300
7E00
ENDCHAR
STARTCHAR T
ENCODING 84
SWIDTH 1000 0
DWIDTH 10 0
BBX 12 10 -1 0
BITMAP
3FF0
0300
0300
0600
0600
0600
0600
0C00
0C00
0C00
ENDCHAR
STARTCHAR U
ENCODING 85
SWIDTH 1100 0
DWIDTH 11 0
BBX 11 10 0 0
BITMAP
3060
3060
3060
60C0
60C0
60C0
60C0
C180
6300
3E00
ENDCHAR
STARTCHAR V
ENCODING 86
SWIDTH 1000 0
DWIDTH 10 0
BBX 12 10 -1 0
BITMAP
3030
3030
1860
30C0
1980
1980
0F00
1E00
0C00
0C00
ENDCHAR
STARTCHAR W
ENCODING 87
SWIDTH 1400 0
DWIDTH 14 0
BBX 16 10 -1 0
BITMAP
30C3
30C3
30C3
33CC
33CC
1E78
1E78
3CF0
1860
1860
ENDCHAR
STARTCHAR X
ENCODING 88
SWIDTH 900 0
DWIDTH 9 0
BBX 11 10 -1 0
BITMAP
3060
3060
18C0
1B00
0E00
0E00
1B00
6300
C180
C180
ENDCHAR
STARTCHAR Y
ENCODING 89
SWIDTH 1000 0
DWIDTH 10 0
BBX 12 10 -1 0
BITMAP
3030
3030
1860
1980
0F00
0600
0600
0C00
0C00
0C00
ENDCHAR
STARTCHAR Z
ENCODING 90
SWIDTH 900 0
DWIDTH 9 0
BBX 9 10 0 0
BITMAP
3F80
0180
0300
0600
0C00
1800
3000
6000
C000
FE00
ENDCHAR
STARTCHAR bracketleft
ENCODING 91
SWIDTH 385 0
DWIDTH 5 0
BBX 7 13 0 -3
BITMAP
1E
18
30
30
30
30
60
60
60
60
C0
C0
F0
ENDCHAR
STARTCHAR backslash
ENCODING 92
SWIDTH 417 0
DWIDTH 5 0
BBX 8 12 -1 -2
BITMAP
18
30
30
18
18
30
18
18
18
18
18
18
ENDCHAR
STARTCHAR bracketright
ENCODING 93
SWIDTH 385 0
DWIDTH 5 0
BBX 7 13 -1 -3
BITMAP
1E
06
0C
0C
0C
0C
18
18
18
18
30
30
F0
ENDCHAR
STARTCHAR asciicircum
ENCODING 94
SWIDTH 2667 0
DWIDTH 8 0
BBX 6 3 2 8
BITMAP
30
78
CC
ENDCHAR
STARTCHAR underscore
ENCODING 95
SWIDTH 8000 0
DWIDTH 8 0
BBX 8 1 -1 -2
BITMAP
FF
ENDCHAR
STARTCHAR grave
ENCODING 96
SWIDTH 2500 0
DWIDTH 5 0
BBX 3 2 2 8
BITMAP
C0
60
ENDCHAR
STARTCHAR a
ENCODING 97
SWIDTH 1286 0
DWIDTH 9 0
BBX 9 7 0 0
BITMAP
3E00
6300
3F00
6300
C600
C600
7F00
ENDCHAR
STARTCHAR b
ENCODING 98
SWIDTH 900 0
DWIDTH 9 0
BBX 9 10 0 0
BITMAP
3000
3000
3000
7E00
7300
6300
6300
C600
E600
FC00
ENDCHAR
STARTCHAR c
ENCODING 99
SWIDTH 1143 0
DWIDTH 8 0
BBX 8 7 0 0
BITMAP
3E
63
60
60
C0
C6
7C
ENDCHAR
STARTCHAR d
ENCODING 100
SWIDTH 900 0
DWIDTH 9 0
BBX 9 10 0 0
BITMAP
0180
0180
0180
3F00
6700
6300
6300
C600
CE00
7E00
ENDCHAR
STARTCHAR e
ENCODING 101
SWIDTH 1286 0
DWIDTH 9 0
BBX 8 7 0 0
BITMAP
3E
63
63
7F
C0
C6
7C
ENDCHAR
STARTCHAR f
ENCODING 102
SWIDTH 400 0
DWIDTH 4 0
BBX 6 10 -1 0
BITMAP
0C
18
18
78
30
30
30
60
60
60
ENDCHAR
STARTCHAR g
ENCODING 103
SWIDTH 900 0
DWIDTH 9 0
BBX 9 10 0 -3
BITMAP
1F80
3380
3180
6300
6300
6700
3F00
0600
0600
7C00
ENDCHAR
STARTCHAR h
ENCODING 104
SWIDTH 800 0
DWIDTH 8 0
BBX 8 10 0 0
BITMAP
30
30
30
7C
76
66
66
CC
CC
CC
ENDCHAR
STARTCHAR i
ENCODING 105
SWIDTH 400 0
DWIDTH 4 0
BBX 4 10 0 0
BITMAP
30
00
00
60
60
60
60
C0
C0
C0
ENDCHAR
STARTCHAR j
ENCODING 106
SWIDTH 308 0
DWIDTH 4 0
BBX 6 13 -1 -3
BITMAP
0C
00
00
18
18
18
30
30
30
30
60
60
C0
ENDCHAR
STARTCHAR k
ENCODING 107
SWIDTH 800 0
DWIDTH 8 0
BBX 9 10 0 0
BITMAP
3000
3000
3000
6600
6C00
7800
7800
D800
CC00
C600
ENDCHAR
STARTCHAR l
ENCODING 108
SWIDTH 400 0
DWIDTH 4 0
BBX 4 10 0 0
BITMAP
30
30
30
60
60
60
60
C0
C0
C0
ENDCHAR
STARTCHAR m
ENCODING 109
SWIDTH 1714 0
DWIDTH 12 0
BBX 11 7 0 0
BITMAP
7DC0
7760
6660
6660
CCC0
CCC0
CCC0
ENDCHAR
STARTCHAR n
ENCODING 110
SWIDTH 1143 0
DWIDTH 8 0
BBX 7 7 0 0
BITMAP
7C
76
66
66
CC
CC
CC
ENDCHAR
STARTCHAR o
ENCODING 111
SWIDTH 1286 0
DWIDTH 9 0
BBX 8 7 0 0
BITMAP
3E
63
63
63
C6
C6
7C
ENDCHAR
STARTCHAR p
ENCODING 112
SWIDTH 900 0
DWIDTH 9 0
BBX 9 10 0 -3
BITMAP
3F00
3980
3180
6300
6300
7300
7E00
C000
C000
C000
ENDCHAR
STARTCHAR q
ENCODING 113
SWIDTH 900 0
DWIDTH 9 0
BBX 9 10 0 -3
BITMAP
1F80
3380
3180
6300
6300
6700
3F00
0600
0600
0600
ENDCHAR
STARTCHAR r
ENCODING 114
SWIDTH 714 0
DWIDTH 5 0
BBX 5 7 0 0
BITMAP
78
70
60
60
C0
C0
C0
ENDCHAR
STARTCHAR s
ENCODING 115
SWIDTH 1143 0
DWIDTH 8 0
BBX 7 7 0 0
BITMAP
3C
66
60
3C
0C
CC
78
ENDCHAR
STARTCHAR t
ENCODING 116
SWIDTH 444 0
DWIDTH 4 0
BBX 6 9 -1 0
BITMAP
18
18
78
30
30
30
60
60
30
ENDCHAR
STARTCHAR u
ENCODING 117
SWIDTH 1143 0
DWIDTH 8 0
BBX 7 7 0 0
BITMAP
66
66
66
66
CC
DC
7C
ENDCHAR
STARTCHAR v
ENCODING 118
SWIDTH 1143 0
DWIDTH 8 0
BBX 9 7 -1 0
BITMAP
6180
6180
3300
3300
3C00
3C00
1800
ENDCHAR
STARTCHAR w
ENCODING 119
SWIDTH 1429 0
DWIDTH 10 0
BBX 11 7 -1 0
BITMAP
6660
6660
3FC0
3FC0
7F80
3300
3300
ENDCHAR
STARTCHAR x
ENCODING 120
SWIDTH 1000 0
DWIDTH 7 0
BBX 8 7 -1 0
BITMAP
63
36
1C
1C
38
6C
C6
ENDCHAR
STARTCHAR y
ENCODING 121
SWIDTH 800 0
DWIDTH 8 0
BBX 10 10 -1 -3
BITMAP
30C0
30C0
1980
3300
1E00
1E00
0C00
1800
3000
E000
ENDCHAR
STARTCHAR z
ENCODING 122
SWIDTH 1000 0
DWIDTH 7 0
BBX 6 7 0 0
BITMAP
7C
0C
18
30
60
C0
F8
ENDCHAR
STARTCHAR braceleft
ENCODING 123
SWIDTH 462 0
DWIDTH 6 0
BBX 9 13 -1 -3
BITMAP
0380
0600
0C00
0C00
0C00
0C00
7000
1800
1800
1800
3000
3000
1C00
ENDCHAR
STARTCHAR bar
ENCODING 124
SWIDTH 308 0
DWIDTH 4 0
BBX 5 13 0 -3
BITMAP
18
18
30
30
30
30
60
60
60
60
C0
C0
C0
ENDCHAR
STARTCHAR braceright
ENCODING 125
SWIDTH 462 0
DWIDTH 6 0
BBX 9 13 -1 -3
BITMAP
1C00
0600
0C00
0C00
0C00
0C00
0E00
1800
1800
1800
3000
3000
E000
ENDCHAR
STARTCHAR asciitilde
ENCODING 126
SWIDTH 3333 0
DWIDTH 10 0
BBX 8 3 1 7
BITMAP
73
DB
CE
ENDCHAR
STARTCHAR bullet
ENCODING 149
SWIDTH 1500 0
DWIDTH 6 0
BBX 6 4 1 2
BITMAP
38
F8
F8
70
ENDCHAR
STARTCHAR space
ENCODING 154
SWIDTH 308 0
DWIDTH 4 0
BBX 0 0 -1 0
BITMAP
ENDCHAR
STARTCHAR degree
ENCODING 156
SWIDTH 1500 0
DWIDTH 6 0
BBX 6 4 1 6
BITMAP
38
D8
D8
70
ENDCHAR
STARTCHAR twosuperior
ENCODING 157
SWIDTH 1000 0
DWIDTH 5 0
BBX 6 5 0 5
BITMAP
38
6C
30
60
F8
ENDCHAR
STARTCHAR periodcentered
ENCODING 158
SWIDTH 2000 0
DWIDTH 4 0
BBX 2 2 2 3
BITMAP
C0
C0
ENDCHAR
STARTCHAR afii10071
ENCODING 163
SWIDTH 1000 0
DWIDTH 9 0
BBX 9 9 0 0
BITMAP
1B00
0000
3E00
6300
6300
7F00
C000
C600
7C00
ENDCHAR
STARTCHAR afii10023
ENCODING 179
SWIDTH 833 0
DWIDTH 10 0
BBX 11 12 0 0
BITMAP
0CC0
0000
3FC0
3000
3000
6000
7F00
6000
6000
C000
C000
FF00
ENDCHAR
STARTCHAR copyright
ENCODING 191
SWIDTH 1125 0
DWIDTH 9 0
BBX 11 8 0 2
BITMAP
0F80
3180
6FC0
78C0
78C0
DF80
6300
3E00
ENDCHAR
STARTCHAR afii10096
ENCODING 192
SWIDTH 1429 0
DWIDTH 10 0
BBX 9 7 0 0
BITMAP
6F00
7980
7980
7980
F300
F300
DE00
ENDCHAR
STARTCHAR afii10065
ENCODING 193
SWIDTH 1286 0
DWIDTH 9 0
BBX 9 7 0 0
BITMAP
3E00
6300
3F00
6300
C600
C600
7F00
ENDCHAR
STARTCHAR afii10066
ENCODING 194
SWIDTH 900 0
DWIDTH 9 0
BBX 9 10 0 0
BITMAP
0180
1F00
3000
7E00
6300
6300
6300
C600
C600
7C00
ENDCHAR
STARTCHAR afii10088
ENCODING 195
SWIDTH 889 0
DWIDTH 8 0
BBX 9 9 0 -2
BITMAP
3300
3300
6600
6600
6600
6600
FE00
0600
0600
ENDCHAR
STARTCHAR afii10069
ENCODING 196
SWIDTH 1000 0
DWIDTH 9 0
BBX 10 9 0 -2
BITMAP
0F80
0D80
1B00
1B00
1B00
3300
FF00
C300
C300
ENDCHAR
STARTCHAR afii10070
ENCODING 197
SWIDTH 1286 0
DWIDTH 9 0
BBX 8 7 0 0
BITMAP
3E
63
63
7F
C0
C6
7C
ENDCHAR
STARTCHAR afii10086
ENCODING 198
SWIDTH 769 0
DWIDTH 10 0
BBX 11 13 0 -3
BITMAP
0300
0300
0600
1F80
36C0
36C0
6D80
6D80
6D80
3F00
1800
1800
1800
ENDCHAR
STARTCHAR afii10068
ENCODING 199
SWIDTH 1000 0
DWIDTH 7 0
BBX 7 7 0 0
BITMAP
7E
60
60
60
C0
C0
C0
ENDCHAR
STARTCHAR afii10087
ENCODING 200
SWIDTH 1000 0
DWIDTH 7 0
BBX 8 7 -1 0
BITMAP
63
36
1C
1C
38
6C
C6
ENDCHAR
STARTCHAR afii10074
ENCODING 201
SWIDTH 1286 0
DWIDTH 9 0
BBX 8 7 0 0
BITMAP
63
63
67
6F
F6
E6
C6
ENDCHAR
STARTCHAR afii10075
ENCODING 202
SWIDTH 1000 0
DWIDTH 9 0
BBX 9 9 0 0
BITMAP
1B00
1E00
6300
6300
6700
6F00
F600
E600
C600
ENDCHAR
STARTCHAR afii10076
ENCODING 203
SWIDTH 1143 0
DWIDTH 8 0
BBX 8 7 0 0
BITMAP
66
6C
78
78
D8
CC
C6
ENDCHAR
STARTCHAR afii10077
ENCODING 204
SWIDTH 1143 0
DWIDTH 8 0
BBX 8 7 0 0
BITMAP
1F
33
33
33
66
66
C6
ENDCHAR
STARTCHAR afii10078
ENCODING 205
SWIDTH 1429 0
DWIDTH 10 0
BBX 9 7 0 0
BITMAP
6180
7380
7F80
6D80
C300
C300
C300
ENDCHAR
STARTCHAR afii10079
ENCODING 206
SWIDTH 1143 0
DWIDTH 8 0
BBX 8 7 0 0
BITMAP
63
63
63
7F
C6
C6
C6
ENDCHAR
STARTCHAR afii10080
ENCODING 207
SWIDTH 1286 0
DWIDTH 9 0
BBX 8 7 0 0
BITMAP
3E
63
63
63
C6
C6
7C
ENDCHAR
STARTCHAR afii10081
ENCODING 208
SWIDTH 1143 0
DWIDTH 8 0
BBX 8 7 0 0
BITMAP
7F
63
63
63
C6
C6
C6
ENDCHAR
STARTCHAR afii10097
ENCODING 209
SWIDTH 1286 0
DWIDTH 9 0
BBX 8 7 0 0
BITMAP
3F
63
63
63
7E
66
C6
ENDCHAR
STARTCHAR afii10082
ENCODING 210
SWIDTH 900 0
DWIDTH 9 0
BBX 9 10 0 -3
BITMAP
3F00
3980
3180
6300
6300
7300
7E00
C000
C000
C000
ENDCHAR
STARTCHAR afii10083
ENCODING 211
SWIDTH 1143 0
DWIDTH 8 0
BBX 8 7 0 0
BITMAP
3E
63
60
60
C0
C6
7C
ENDCHAR
STARTCHAR afii10084
ENCODING 212
SWIDTH 1000 0
DWIDTH 7 0
BBX 7 7 0 0
BITMAP
7E
18
18
18
30
30
30
ENDCHAR
STARTCHAR afii10085
ENCODING 213
SWIDTH 900 0
DWIDTH 9 0
BBX 10 10 0 -3
BITMAP
30C0
30C0
1980
3300
1E00
1E00
0C00
1800
3000
E000
ENDCHAR
STARTCHAR afii10072
ENCODING 214
SWIDTH 1714 0
DWIDTH 12 0
BBX 13 7 -1 0
BITMAP
3330
1B60
0FC0
0FC0
36C0
6660
C630
ENDCHAR
STARTCHAR afii10067
ENCODING 215
SWIDTH 1286 0
DWIDTH 9 0
BBX 8 7 0 0
BITMAP
7E
63
63
7F
C6
C6
FC
ENDCHAR
STARTCHAR afii10094
ENCODING 216
SWIDTH 1286 0
DWIDTH 9 0
BBX 8 7 0 0
BITMAP
60
60
7E
63
C6
C6
FC
ENDCHAR
STARTCHAR afii10093
ENCODING 217
SWIDTH 1571 0
DWIDTH 11 0
BBX 10 7 0 0
BITMAP
60C0
60C0
7EC0
63C0
C780
C780
FD80
ENDCHAR
STARTCHAR afii10073
ENCODING 218
SWIDTH 1286 0
DWIDTH 9 0
BBX 8 7 0 0
BITMAP
3E
63
03
1E
06
C6
7C
ENDCHAR
STARTCHAR afii10090
ENCODING 219
SWIDTH 1714 0
DWIDTH 12 0
BBX 11 7 0 0
BITMAP
6660
6660
6660
6660
CCC0
CCC0
FFC0
ENDCHAR
STARTCHAR afii10095
ENCODING 220
SWIDTH 1286 0
DWIDTH 9 0
BBX 8 7 0 0
BITMAP
3E
63
03
3F
06
C6
7C
ENDCHAR
STARTCHAR afii10091
ENCODING 221
SWIDTH 1333 0
DWIDTH 12 0
BBX 13 9 0 -2
BITMAP
3330
3330
6660
6660
6660
6660
FFE0
0060
0060
ENDCHAR
STARTCHAR afii10089
ENCODING 222
SWIDTH 1143 0
DWIDTH 8 0
BBX 8 7 0 0
BITMAP
63
63
63
3F
06
06
06
ENDCHAR
STARTCHAR afii10092
ENCODING 223
SWIDTH 1429 0
DWIDTH 10 0
BBX 10 7 0 0
BITMAP
7800
1800
1F80
18C0
3180
3180
3F00
ENDCHAR
STARTCHAR afii10048
ENCODING 224
SWIDTH 1200 0
DWIDTH 12 0
BBX 12 10 0 0
BITMAP
33C0
3660
3C30
7860
7860
7860
7860
F0C0
D980
CF00
ENDCHAR
STARTCHAR afii10017
ENCODING 225
SWIDTH 1000 0
DWIDTH 10 0
BBX 12 10 -1 0
BITMAP
0300
0300
0780
0F00
1980
1980
3FC0
6180
C0C0
C0C0
ENDCHAR
STARTCHAR afii10018
ENCODING 226
SWIDTH 1000 0
DWIDTH 10 0
BBX 10 10 0 0
BITMAP
3F80
3000
3000
6000
7F00
6180
6180
C300
C300
FE00
ENDCHAR
STARTCHAR afii10040
ENCODING 227
SWIDTH 917 0
DWIDTH 11 0
BBX 13 12 0 -2
BITMAP
1830
3060
3060
3060
3060
60C0
60C0
60C0
60C0
FFC0
00C0
00C0
ENDCHAR
STARTCHAR afii10021
ENCODING 228
SWIDTH 917 0
DWIDTH 11 0
BBX 13 12 0 -2
BITMAP
07F0
0C60
0C60
0C60
0C60
18C0
18C0
18C0
30C0
FFC0
C0C0
C0C0
ENDCHAR
STARTCHAR afii10022
ENCODING 229
SWIDTH 1000 0
DWIDTH 10 0
BBX 10 10 0 0
BITMAP
3FC0
3000
3000
6000
7F00
6000
6000
C000
C000
FF00
ENDCHAR
STARTCHAR afii10038
ENCODING 230
SWIDTH 1000 0
DWIDTH 11 0
BBX 12 11 0 0
BITMAP
0300
0FC0
1B60
3330
6660
6660
6660
6660
6D80
3F00
0C00
ENDCHAR
STARTCHAR afii10020
ENCODING 231
SWIDTH 900 0
DWIDTH 9 0
BBX 9 10 0 0
BITMAP
3F80
3000
3000
6000
6000
6000
6000
C000
C000
C000
ENDCHAR
STARTCHAR afii10039
ENCODING 232
SWIDTH 900 0
DWIDTH 9 0
BBX 11 10 -1 0
BITMAP
3060
3060
18C0
1B00
0E00
0E00
1B00
6300
C180
C180
ENDCHAR
STARTCHAR afii10026
ENCODING 233
SWIDTH 1100 0
DWIDTH 11 0
BBX 11 10 0 0
BITMAP
3060
3060
3060
61C0
63C0
66C0
6CC0
F180
E180
C180
ENDCHAR
STARTCHAR afii10027
ENCODING 234
SWIDTH 917 0
DWIDTH 11 0
BBX 12 12 0 0
BITMAP
06C0
0700
3060
3060
3060
61C0
63C0
66C0
6CC0
F180
E180
C180
ENDCHAR
STARTCHAR afii10028
ENCODING 235
SWIDTH 900 0
DWIDTH 9 0
BBX 10 10 0 0
BITMAP
3180
3300
3600
7800
7000
7800
6C00
CC00
C600
C300
ENDCHAR
STARTCHAR afii10029
ENCODING 236
SWIDTH 1100 0
DWIDTH 11 0
BBX 12 10 0 0
BITMAP
07F0
0C30
0C30
1860
1860
1860
1860
30C0
30C0
E0C0
ENDCHAR
STARTCHAR afii10030
ENCODING 237
SWIDTH 1200 0
DWIDTH 12 0
BBX 12 10 0 0
BITMAP
3030
3030
3870
70E0
79E0
79E0
6F60
DEC0
CCC0
CCC0
ENDCHAR
STARTCHAR afii10031
ENCODING 238
SWIDTH 1100 0
DWIDTH 11 0
BBX 11 10 0 0
BITMAP
3060
3060
3060
60C0
7FC0
60C0
60C0
C180
C180
C180
ENDCHAR
STARTCHAR afii10032
ENCODING 239
SWIDTH 1100 0
DWIDTH 11 0
BBX 11 10 0 0
BITMAP
0F80
18C0
3060
60C0
60C0
60C0
60C0
C180
6300
3E00
ENDCHAR
STARTCHAR afii10033
ENCODING 240
SWIDTH 1100 0
DWIDTH 11 0
BBX 11 10 0 0
BITMAP
3FE0
3060
3060
60C0
60C0
60C0
60C0
C180
C180
C180
ENDCHAR
STARTCHAR afii10049
ENCODING 241
SWIDTH 1100 0
DWIDTH 11 0
BBX 11 10 0 0
BITMAP
1FE0
3060
3060
60C0
60C0
3FC0
0CC0
3180
6180
C180
ENDCHAR
STARTCHAR afii10034
ENCODING 242
SWIDTH 1000 0
DWIDTH 10 0
BBX 11 10 0 0
BITMAP
3F80
30C0
3060
60C0
6180
7F00
6000
C000
C000
C000
ENDCHAR
STARTCHAR afii10035
ENCODING 243
SWIDTH 1000 0
DWIDTH 10 0
BBX 11 10 0 0
BITMAP
0F80
18C0
3060
6000
6000
6000
6000
C180
6300
3E00
ENDCHAR
STARTCHAR afii10036
ENCODING 244
SWIDTH 1000 0
DWIDTH 10 0
BBX 12 10 -1 0
BITMAP
3FF0
0300
0300
0600
0600
0600
0600
0C00
0C00
0C00
ENDCHAR
STARTCHAR afii10037
ENCODING 245
SWIDTH 1100 0
DWIDTH 11 0
BBX 12 10 0 0
BITMAP
3030
3030
1860
1980
0F00
0600
0600
1800
3000
E000
ENDCHAR
STARTCHAR afii10024
ENCODING 246
SWIDTH 1400 0
DWIDTH 14 0
BBX 16 10 -1 0
BITMAP
18C6
0CCC
06D8
07E0
03C0
07E0
0DB0
3330
6318
C30C
ENDCHAR
STARTCHAR afii10019
ENCODING 247
SWIDTH 1000 0
DWIDTH 10 0
BBX 10 10 0 0
BITMAP
3F80
30C0
30C0
6180
7F00
6180
6180
C300
C300
FE00
ENDCHAR
STARTCHAR afii10046
ENCODING 248
SWIDTH 1100 0
DWIDTH 11 0
BBX 11 10 0 0
BITMAP
3000
3000
3000
6000
7F80
60C0
60C0
C180
C180
FF00
ENDCHAR
STARTCHAR afii10045
ENCODING 249
SWIDTH 1300 0
DWIDTH 13 0
BBX 13 10 0 0
BITMAP
3018
3018
3018
6030
7FB0
60F0
60F0
C1E0
C1E0
FF60
ENDCHAR
STARTCHAR afii10025
ENCODING 250
SWIDTH 1000 0
DWIDTH 10 0
BBX 10 10 0 0
BITMAP
1F80
30C0
00C0
0180
0F00
0180
0180
0300
C300
7E00
ENDCHAR
STARTCHAR afii10042
ENCODING 251
SWIDTH 1400 0
DWIDTH 14 0
BBX 14 10 0 0
BITMAP
318C
318C
318C
6318
6318
6318
6318
C630
C630
FFF0
ENDCHAR
STARTCHAR afii10047
ENCODING 252
SWIDTH 1100 0
DWIDTH 11 0
BBX 11 10 0 0
BITMAP
0F80
18C0
3060
00C0
1FC0
00C0
00C0
C180
6300
3E00
ENDCHAR
STARTCHAR afii10043
ENCODING 253
SWIDTH 1167 0
DWIDTH 14 0
BBX 16 12 0 -2
BITMAP
18C6
318C
318C
318C
318C
6318
6318
6318
6318
FFF8
0018
0018
ENDCHAR
STARTCHAR afii10041
ENCODING 254
SWIDTH 1100 0
DWIDTH 11 0
BBX 11 10 0 0
BITMAP
3060
3060
3060
60C0
3FC0
00C0
00C0
0180
0180
0180
ENDCHAR
STARTCHAR afii10044
ENCODING 255
SWIDTH 1200 0
DWIDTH 12 0
BBX 13 10 -1 0
BITMAP
3C00
0C00
0C00
1800
1FE0
1830
1830
3060
3060
3FC0
ENDCHAR
ENDFONT
