STARTFONT 2.1
COMMENT  
COMMENT  Copyright 1988 Bitstream, Inc., Cambridge, Massachusetts, USA
COMMENT  Bitstream and Charter are registered trademarks of Bitstream, Inc.
COMMENT  
COMMENT  The names "Bitstream" and "Charter" are registered trademarks of
COMMENT  Bitstream, Inc.  Permission to use these trademarks is hereby
COMMENT  granted only in association with the images described in this file.
COMMENT  
COMMENT  Permission to use, copy, modify, and distribute this software and
COMMENT  its documentation for any purpose and without fee is hereby
COMMENT  granted, provided that the above copyright notice appear in all
COMMENT  copies and that both that copyright notice and this permission
COMMENT  notice appear in supporting documentation, and that the name of
COMMENT  Bitstream not be used in advertising or publicity pertaining to
COMMENT  distribution of the software without specific, written prior
COMMENT  permission.  Bitstream makes no representations about the
COMMENT  suitability of this software for any purpose.  It is provided "as
COMMENT  is" without express or implied warranty.
COMMENT  
COMMENT  BITSTREAM DISCLAIMS ALL WARRANTIES WITH REGARD TO THIS SOFTWARE,
COMMENT  INCLUDING ALL IMPLIED WARRANTIES OF MERCHANTABILITY AND FITNESS, IN
COMMENT  NO EVENT SHALL BITSTREAM BE LIABLE FOR ANY SPECIAL, INDIRECT OR
COMMENT  CONSEQUENTIAL DAMAGES OR ANY DAMAGES WHATSOEVER RESULTING FROM LOSS
COMMENT  OF USE, DATA OR PROFITS, WHETHER IN AN ACTION OF CONTRACT,
COMMENT  NEGLIGENCE OR OTHER TORTIOUS ACTION, ARISING OUT OF OR IN
COMMENT  CONNECTION WITH THE USE OR PERFORMANCE OF THIS SOFTWARE.
COMMENT  
COMMENT  
COMMENT Fontware CVTBDF v1.0
FONT -Bitstream-Charter-Bold-R-Normal--19-140-100-100-P-119-ISO8859-1
SIZE 14 100 100
FONTBOUNDINGBOX 22 23 -2 -5
STARTPROPERTIES 22
COMMENT Begin LogicalFontDescription
FONTNAME_REGISTRY ""
FAMILY_NAME "Charter"
FOUNDRY "Bitstream"
WEIGHT_NAME "Bold"
SETWIDTH_NAME "Normal"
SLANT "R"
ADD_STYLE_NAME ""
PIXEL_SIZE 19
POINT_SIZE 140
RESOLUTION_X 100
RESOLUTION_Y 100
SPACING "P"
AVERAGE_WIDTH 119
CHARSET_REGISTRY "ISO8859"
CHARSET_ENCODING "1"
COMMENT END LogicalFontDescription
FONT_DESCENT 5
FONT_ASCENT 18
CAP_HEIGHT 14
X_HEIGHT 10
CHARSET_COLLECTIONS "ASCII ISOLATIN1"
FULL_NAME "Bitstream Charter Black"
COPYRIGHT "Copyright 1987 by Bitstream Inc. Charter Registered trademark of Bitstream Inc."
COMMENT ****** end of font properties
ENDPROPERTIES
CHARS 191
STARTCHAR space
ENCODING 32
SWIDTH 322 0
DWIDTH 6 0
BBX 1 1 0 0
BITMAP
00
ENDCHAR
STARTCHAR exclam
ENCODING 33
SWIDTH 343 0
DWIDTH 7 0
BBX 4 14 1 0
BITMAP
70
f0
f0
f0
f0
60
60
60
60
00
60
f0
f0
60
ENDCHAR
STARTCHAR quotedbl
ENCODING 34
SWIDTH 339 0
DWIDTH 7 0
BBX 5 6 1 7
BITMAP
d8
d8
d8
d8
48
48
ENDCHAR
STARTCHAR numbersign
ENCODING 35
SWIDTH 769 0
DWIDTH 15 0
BBX 13 14 1 -1
BITMAP
0330
0220
0660
0460
7ff8
0cc0
0880
1980
fff0
1100
3300
3300
2200
6600
ENDCHAR
STARTCHAR dollar
ENCODING 36
SWIDTH 644 0
DWIDTH 12 0
BBX 10 16 1 -2
BITMAP
3f80
6980
e980
e980
f800
fc00
7f00
3f80
0fc0
0bc0
c9c0
c9c0
cb80
ff00
0800
0800
ENDCHAR
STARTCHAR percent
ENCODING 37
SWIDTH 972 0
DWIDTH 19 0
BBX 17 13 1 0
BITMAP
7c1800
6c1800
c63000
c62000
c66000
c6df00
6c9b00
7db180
033180
023180
063180
0c1b00
081f00
ENDCHAR
STARTCHAR ampersand
ENCODING 38
SWIDTH 822 0
DWIDTH 16 0
BBX 15 14 1 0
BITMAP
1f80
39e0
78e0
78e0
7ce0
3dc0
1f9e
3f88
77c8
f3f0
f1f0
f8f0
7ff8
3f3e
ENDCHAR
STARTCHAR quoteright
ENCODING 39
SWIDTH 331 0
DWIDTH 6 0
BBX 4 6 1 6
BITMAP
e0
f0
f0
30
60
c0
ENDCHAR
STARTCHAR parenleft
ENCODING 40
SWIDTH 440 0
DWIDTH 9 0
BBX 7 16 1 -3
BITMAP
0e
3c
70
70
e0
e0
e0
e0
e0
e0
e0
e0
70
70
38
0e
ENDCHAR
STARTCHAR parenright
ENCODING 41
SWIDTH 440 0
DWIDTH 9 0
BBX 7 16 1 -3
BITMAP
e0
38
1c
1c
0e
0e
0e
0e
0e
0e
0e
0e
1c
1c
78
e0
ENDCHAR
STARTCHAR asterisk
ENCODING 42
SWIDTH 500 0
DWIDTH 10 0
BBX 8 7 1 6
BITMAP
0800
1800
db00
7e00
1800
7e00
2400
ENDCHAR
STARTCHAR plus
ENCODING 43
SWIDTH 833 0
DWIDTH 16 0
BBX 12 12 2 0
BITMAP
0600
0600
0600
0600
0600
fff0
fff0
0600
0600
0600
0600
0600
ENDCHAR
STARTCHAR comma
ENCODING 44
SWIDTH 322 0
DWIDTH 6 0
BBX 4 7 1 -4
BITMAP
e0
f0
f0
30
30
e0
80
ENDCHAR
STARTCHAR hyphen
ENCODING 45
SWIDTH 333 0
DWIDTH 6 0
BBX 5 2 1 3
BITMAP
f8
f8
ENDCHAR
STARTCHAR period
ENCODING 46
SWIDTH 322 0
DWIDTH 6 0
BBX 4 4 1 0
BITMAP
60
f0
f0
60
ENDCHAR
STARTCHAR slash
ENCODING 47
SWIDTH 500 0
DWIDTH 9 0
BBX 10 16 -1 -2
BITMAP
00c0
0080
0180
0300
0300
0600
0600
0c00
0c00
1800
1800
3000
3000
6000
6000
c000
ENDCHAR
STARTCHAR zero
ENCODING 48
SWIDTH 644 0
DWIDTH 12 0
BBX 11 14 1 0
BITMAP
1f00
3b80
71c0
71c0
f1e0
f1e0
f1e0
f1e0
f1e0
f1e0
71c0
71c0
3b80
1f00
ENDCHAR
STARTCHAR one
ENCODING 49
SWIDTH 644 0
DWIDTH 12 0
BBX 9 14 2 0
BITMAP
1c00
7c00
fc00
1c00
1c00
1c00
1c00
1c00
1c00
1c00
1c00
1c00
1c00
7f80
ENDCHAR
STARTCHAR two
ENCODING 50
SWIDTH 644 0
DWIDTH 12 0
BBX 10 14 1 0
BITMAP
3f00
7780
f3c0
f3c0
73c0
03c0
0780
0700
0e00
1c40
30c0
ffc0
ffc0
ffc0
ENDCHAR
STARTCHAR three
ENCODING 51
SWIDTH 644 0
DWIDTH 12 0
BBX 11 14 1 0
BITMAP
3f80
73c0
f3c0
71c0
03c0
0380
1e00
1f80
03c0
01e0
61e0
f1e0
f3c0
3f00
ENDCHAR
STARTCHAR four
ENCODING 52
SWIDTH 644 0
DWIDTH 12 0
BBX 11 15 1 -1
BITMAP
0380
0780
0780
0f80
1b80
3b80
3380
6380
c380
ffe0
0380
0380
0380
0380
0380
ENDCHAR
STARTCHAR five
ENCODING 53
SWIDTH 644 0
DWIDTH 12 0
BBX 10 14 1 0
BITMAP
ff80
ff80
ff80
c000
c000
fe00
ff80
87c0
03c0
03c0
c3c0
c380
e780
fe00
ENDCHAR
STARTCHAR six
ENCODING 54
SWIDTH 644 0
DWIDTH 12 0
BBX 11 14 1 0
BITMAP
0780
1c00
3800
7800
7000
f700
ffc0
f3c0
f1e0
f1e0
f1e0
71e0
7bc0
1f00
ENDCHAR
STARTCHAR seven
ENCODING 55
SWIDTH 644 0
DWIDTH 12 0
BBX 11 15 1 -1
BITMAP
ffe0
ffe0
ffe0
c0c0
c180
0180
0300
0300
0600
0e00
0c00
1800
1800
3000
7000
ENDCHAR
STARTCHAR eight
ENCODING 56
SWIDTH 644 0
DWIDTH 12 0
BBX 11 14 1 0
BITMAP
3f00
73c0
71c0
71c0
71c0
7f80
3f00
3fc0
67e0
e3e0
e1e0
e1e0
73c0
3f00
ENDCHAR
STARTCHAR nine
ENCODING 57
SWIDTH 644 0
DWIDTH 12 0
BBX 11 14 1 0
BITMAP
1f00
7bc0
71c0
f1e0
f1e0
f1e0
79e0
7fe0
1dc0
0380
0300
0600
7c00
3000
ENDCHAR
STARTCHAR colon
ENCODING 58
SWIDTH 387 0
DWIDTH 7 0
BBX 4 10 2 0
BITMAP
60
f0
f0
60
00
00
60
f0
f0
60
ENDCHAR
STARTCHAR semicolon
ENCODING 59
SWIDTH 387 0
DWIDTH 7 0
BBX 5 14 1 -4
BITMAP
30
78
78
30
00
00
00
30
78
78
18
10
70
40
ENDCHAR
STARTCHAR less
ENCODING 60
SWIDTH 833 0
DWIDTH 16 0
BBX 11 10 2 0
BITMAP
0020
01e0
0780
3c00
f000
f000
3c00
0780
01e0
0020
ENDCHAR
STARTCHAR equal
ENCODING 61
SWIDTH 833 0
DWIDTH 16 0
BBX 11 6 3 2
BITMAP
ffe0
ffe0
0000
0000
ffe0
ffe0
ENDCHAR
STARTCHAR greater
ENCODING 62
SWIDTH 833 0
DWIDTH 16 0
BBX 11 10 3 0
BITMAP
8000
f000
3c00
0780
01e0
01e0
0780
3c00
f000
8000
ENDCHAR
STARTCHAR question
ENCODING 63
SWIDTH 519 0
DWIDTH 10 0
BBX 9 14 0 0
BITMAP
7e00
cf00
c780
c780
0780
0f00
1e00
3800
3000
0000
3000
7800
7800
3000
ENDCHAR
STARTCHAR at
ENCODING 64
SWIDTH 942 0
DWIDTH 18 0
BBX 15 16 2 -3
BITMAP
03e0
0c18
180c
3004
61f2
6672
c462
cc62
cc64
cce4
cf78
6670
6000
3000
1c18
07e0
ENDCHAR
STARTCHAR A
ENCODING 65
SWIDTH 701 0
DWIDTH 13 0
BBX 14 14 0 0
BITMAP
0380
0780
07c0
07c0
0dc0
0de0
08e0
18e0
1ff0
1070
3070
3078
6038
f8fc
ENDCHAR
STARTCHAR B
ENCODING 66
SWIDTH 690 0
DWIDTH 13 0
BBX 11 14 1 0
BITMAP
ff80
73c0
73c0
73c0
73c0
7380
7f00
73c0
71e0
71e0
71e0
71e0
73c0
ff80
ENDCHAR
STARTCHAR C
ENCODING 67
SWIDTH 683 0
DWIDTH 13 0
BBX 11 14 1 0
BITMAP
0fe0
3c60
7860
7860
f000
f000
f000
f000
f000
f000
7860
7860
3c60
0fe0
ENDCHAR
STARTCHAR D
ENCODING 68
SWIDTH 780 0
DWIDTH 15 0
BBX 13 14 1 0
BITMAP
ff80
71e0
70f0
70f0
7078
7078
7078
7078
7078
7078
70f0
70f0
73e0
ff80
ENDCHAR
STARTCHAR E
ENCODING 69
SWIDTH 653 0
DWIDTH 13 0
BBX 11 14 1 0
BITMAP
ffc0
70c0
70c0
7000
7100
7100
7f00
7100
7100
7000
7060
7060
7060
ffe0
ENDCHAR
STARTCHAR F
ENCODING 70
SWIDTH 602 0
DWIDTH 12 0
BBX 10 14 1 0
BITMAP
ffc0
70c0
70c0
70c0
7000
7100
7100
7f00
7100
7100
7000
7000
7000
fc00
ENDCHAR
STARTCHAR G
ENCODING 71
SWIDTH 766 0
DWIDTH 15 0
BBX 13 14 1 0
BITMAP
0ff0
3e30
7830
7830
f000
f000
f000
f1f8
f070
f070
7870
7c70
3e70
0fe0
ENDCHAR
STARTCHAR H
ENCODING 72
SWIDTH 824 0
DWIDTH 16 0
BBX 14 14 1 0
BITMAP
f87c
7038
7038
7038
7038
7038
7ff8
7038
7038
7038
7038
7038
7038
f87c
ENDCHAR
STARTCHAR I
ENCODING 73
SWIDTH 410 0
DWIDTH 7 0
BBX 5 14 1 0
BITMAP
f8
70
70
70
70
70
70
70
70
70
70
70
70
f8
ENDCHAR
STARTCHAR J
ENCODING 74
SWIDTH 516 0
DWIDTH 10 0
BBX 9 14 0 0
BITMAP
1f80
0700
0700
0700
0700
0700
0700
0700
0700
0700
c700
c700
ce00
fc00
ENDCHAR
STARTCHAR K
ENCODING 75
SWIDTH 727 0
DWIDTH 14 0
BBX 13 14 1 0
BITMAP
f9f0
70e0
70c0
7180
7300
7600
7700
7f00
7780
7780
73c0
71e0
71e0
f8f8
ENDCHAR
STARTCHAR L
ENCODING 76
SWIDTH 600 0
DWIDTH 12 0
BBX 11 14 1 0
BITMAP
fc00
7000
7000
7000
7000
7000
7000
7000
7000
7000
7060
70e0
70e0
ffe0
ENDCHAR
STARTCHAR M
ENCODING 77
SWIDTH 961 0
DWIDTH 19 0
BBX 17 14 1 0
BITMAP
fc0f80
7c1f00
7e1f00
6e1700
6e3700
6f3700
672700
676700
67e700
63c700
63c700
63c700
61c700
f98f80
ENDCHAR
STARTCHAR N
ENCODING 78
SWIDTH 782 0
DWIDTH 15 0
BBX 13 14 1 0
BITMAP
f878
7830
7c30
7e30
6e30
6f30
6730
67b0
63b0
63f0
61f0
61f0
60f0
f070
ENDCHAR
STARTCHAR O
ENCODING 79
SWIDTH 815 0
DWIDTH 16 0
BBX 14 14 1 0
BITMAP
0fc0
3cf0
7878
7838
f03c
f03c
f03c
f03c
f03c
f03c
7838
7878
3cf0
0fc0
ENDCHAR
STARTCHAR P
ENCODING 80
SWIDTH 653 0
DWIDTH 13 0
BBX 11 14 1 0
BITMAP
ff80
77c0
73e0
71e0
71e0
71e0
73e0
77c0
7f80
7000
7000
7000
7000
f800
ENDCHAR
STARTCHAR Q
ENCODING 81
SWIDTH 815 0
DWIDTH 16 0
BBX 14 18 1 -4
BITMAP
0fc0
3cf0
7878
7838
f03c
f03c
f03c
f03c
f03c
f03c
7878
7878
3cf0
0fc0
0780
03c0
03f8
01f8
ENDCHAR
STARTCHAR R
ENCODING 82
SWIDTH 736 0
DWIDTH 15 0
BBX 14 14 1 0
BITMAP
ff80
77c0
71e0
71e0
71e0
71e0
73c0
7f00
7780
73c0
73e0
71e0
71f0
f8fc
ENDCHAR
STARTCHAR S
ENCODING 83
SWIDTH 616 0
DWIDTH 12 0
BBX 10 14 1 0
BITMAP
3fc0
70c0
e0c0
e0c0
f000
fc00
7f00
3f80
0fc0
03c0
c1c0
c1c0
c380
ff00
ENDCHAR
STARTCHAR T
ENCODING 84
SWIDTH 646 0
DWIDTH 13 0
BBX 13 14 0 0
BITMAP
fff8
c718
c718
c718
0700
0700
0700
0700
0700
0700
0700
0700
0700
1fc0
ENDCHAR
STARTCHAR U
ENCODING 85
SWIDTH 757 0
DWIDTH 15 0
BBX 13 14 1 0
BITMAP
f878
7030
7030
7030
7030
7030
7030
7030
7030
7030
7030
7860
3fe0
1f80
ENDCHAR
STARTCHAR V
ENCODING 86
SWIDTH 690 0
DWIDTH 14 0
BBX 15 14 0 0
BITMAP
fe3e
781c
3c18
3c18
1c30
1e30
1e30
0e60
0f60
0f60
07c0
07c0
07c0
0380
ENDCHAR
STARTCHAR W
ENCODING 87
SWIDTH 1014 0
DWIDTH 20 0
BBX 20 14 0 0
BITMAP
fc71f0
3870c0
3878c0
3cf8c0
3cf8c0
1cb980
1c9d80
1d9d80
1f9d00
0f0f00
0f0f00
0f0f00
060600
060600
ENDCHAR
STARTCHAR X
ENCODING 88
SWIDTH 713 0
DWIDTH 14 0
BBX 14 14 0 0
BITMAP
fe7c
3c30
3c60
1e60
0ec0
0f80
0780
0780
07c0
0de0
19e0
38f0
3070
f9fc
ENDCHAR
STARTCHAR Y
ENCODING 89
SWIDTH 671 0
DWIDTH 13 0
BBX 13 14 0 0
BITMAP
fcf8
7870
3860
3c60
1cc0
1e80
0f80
0f00
0700
0700
0700
0700
0700
1fc0
ENDCHAR
STARTCHAR Z
ENCODING 90
SWIDTH 634 0
DWIDTH 12 0
BBX 10 14 1 0
BITMAP
ffc0
c3c0
c780
c780
0f00
0f00
1e00
1e00
3c00
3800
78c0
70c0
f0c0
ffc0
ENDCHAR
STARTCHAR bracketleft
ENCODING 91
SWIDTH 495 0
DWIDTH 10 0
BBX 6 16 3 -3
BITMAP
fc
e0
e0
e0
e0
e0
e0
e0
e0
e0
e0
e0
e0
e0
e0
fc
ENDCHAR
STARTCHAR backslash
ENCODING 92
SWIDTH 500 0
DWIDTH 9 0
BBX 10 16 -1 -2
BITMAP
c000
4000
6000
2000
3000
1000
1800
0800
0c00
0600
0600
0300
0300
0180
0180
00c0
ENDCHAR
STARTCHAR bracketright
ENCODING 93
SWIDTH 495 0
DWIDTH 10 0
BBX 6 16 1 -3
BITMAP
fc
1c
1c
1c
1c
1c
1c
1c
1c
1c
1c
1c
1c
1c
1c
fc
ENDCHAR
STARTCHAR asciicircum
ENCODING 94
SWIDTH 1000 0
DWIDTH 19 0
BBX 11 5 4 8
BITMAP
0e00
1b00
3180
60c0
c060
ENDCHAR
STARTCHAR underscore
ENCODING 95
SWIDTH 500 0
DWIDTH 10 0
BBX 10 2 0 -5
BITMAP
ffc0
ffc0
ENDCHAR
STARTCHAR quoteleft
ENCODING 96
SWIDTH 331 0
DWIDTH 6 0
BBX 4 6 1 6
BITMAP
30
60
c0
f0
f0
60
ENDCHAR
STARTCHAR a
ENCODING 97
SWIDTH 616 0
DWIDTH 12 0
BBX 11 10 1 0
BITMAP
3f00
6780
e380
0380
1f80
7380
e380
e380
ff80
7be0
ENDCHAR
STARTCHAR b
ENCODING 98
SWIDTH 650 0
DWIDTH 13 0
BBX 11 14 1 0
BITMAP
7000
f000
7000
7000
7780
7fc0
71e0
70e0
70e0
70e0
70e0
71c0
71c0
7f80
ENDCHAR
STARTCHAR c
ENCODING 99
SWIDTH 537 0
DWIDTH 10 0
BBX 8 10 1 0
BITMAP
1e00
7700
6700
e700
e000
e000
e000
f000
7100
3f00
ENDCHAR
STARTCHAR d
ENCODING 100
SWIDTH 664 0
DWIDTH 13 0
BBX 11 14 1 0
BITMAP
01c0
07c0
01c0
01c0
3fc0
71c0
e1c0
e1c0
e1c0
e1c0
e1c0
f1c0
7fc0
3de0
ENDCHAR
STARTCHAR e
ENCODING 101
SWIDTH 590 0
DWIDTH 11 0
BBX 9 10 1 0
BITMAP
3e00
7700
6380
e380
ff80
e000
e000
f000
7080
3f80
ENDCHAR
STARTCHAR f
ENCODING 102
SWIDTH 387 0
DWIDTH 7 0
BBX 8 14 1 0
BITMAP
0e00
3700
7200
7000
fe00
7000
7000
7000
7000
7000
7000
7000
7000
fc00
ENDCHAR
STARTCHAR g
ENCODING 103
SWIDTH 613 0
DWIDTH 12 0
BBX 11 15 1 -5
BITMAP
3e00
77e0
e380
e380
e380
f700
3e00
2000
7e00
7f80
c7c0
c1c0
e1c0
e380
7e00
ENDCHAR
STARTCHAR h
ENCODING 104
SWIDTH 667 0
DWIDTH 13 0
BBX 11 14 1 0
BITMAP
7000
f000
7000
7000
7780
7fc0
71c0
71c0
71c0
71c0
71c0
71c0
71c0
fbe0
ENDCHAR
STARTCHAR i
ENCODING 105
SWIDTH 354 0
DWIDTH 7 0
BBX 5 14 1 0
BITMAP
70
70
70
00
30
f0
70
70
70
70
70
70
70
f8
ENDCHAR
STARTCHAR j
ENCODING 106
SWIDTH 352 0
DWIDTH 7 0
BBX 7 19 -2 -5
BITMAP
0e
0e
0e
00
06
1e
0e
0e
0e
0e
0e
0e
0e
0e
0e
4e
ec
ec
70
ENDCHAR
STARTCHAR k
ENCODING 107
SWIDTH 623 0
DWIDTH 12 0
BBX 11 14 1 0
BITMAP
3000
f000
7000
7000
73c0
7180
7300
7600
7f00
7700
7780
7380
73c0
f9e0
ENDCHAR
STARTCHAR l
ENCODING 108
SWIDTH 350 0
DWIDTH 7 0
BBX 5 14 1 0
BITMAP
30
f0
70
70
70
70
70
70
70
70
70
70
70
f8
ENDCHAR
STARTCHAR m
ENCODING 109
SWIDTH 991 0
DWIDTH 19 0
BBX 17 10 1 0
BITMAP
379e00
ffff00
73cf00
71c700
71c700
71c700
71c700
71c700
71c700
fbef80
ENDCHAR
STARTCHAR n
ENCODING 110
SWIDTH 678 0
DWIDTH 13 0
BBX 11 10 1 0
BITMAP
7780
ffc0
71c0
71c0
71c0
71c0
71c0
71c0
71c0
fbe0
ENDCHAR
STARTCHAR o
ENCODING 111
SWIDTH 650 0
DWIDTH 13 0
BBX 11 10 1 0
BITMAP
3f80
71c0
e0e0
e0e0
e0e0
e0e0
e0e0
e0e0
71c0
3f80
ENDCHAR
STARTCHAR p
ENCODING 112
SWIDTH 667 0
DWIDTH 13 0
BBX 11 15 1 -5
BITMAP
3380
ffc0
71e0
70e0
70e0
70e0
70e0
71c0
71c0
7f80
7000
7000
7000
7000
fc00
ENDCHAR
STARTCHAR q
ENCODING 113
SWIDTH 655 0
DWIDTH 13 0
BBX 11 15 1 -5
BITMAP
1fc0
71c0
71c0
e1c0
e1c0
e1c0
e1c0
f1c0
7fc0
3dc0
01c0
01c0
01c0
01c0
07e0
ENDCHAR
STARTCHAR r
ENCODING 114
SWIDTH 488 0
DWIDTH 9 0
BBX 8 10 1 0
BITMAP
7300
f700
7f00
7200
7000
7000
7000
7000
7000
fc00
ENDCHAR
STARTCHAR s
ENCODING 115
SWIDTH 523 0
DWIDTH 10 0
BBX 8 10 1 0
BITMAP
7f00
e300
e300
f800
7e00
3f00
8f00
8700
c700
fc00
ENDCHAR
STARTCHAR t
ENCODING 116
SWIDTH 407 0
DWIDTH 8 0
BBX 7 12 1 0
BITMAP
30
70
fe
70
70
70
70
70
70
70
7e
3c
ENDCHAR
STARTCHAR u
ENCODING 117
SWIDTH 667 0
DWIDTH 13 0
BBX 11 10 1 0
BITMAP
71c0
f3c0
71c0
71c0
71c0
71c0
71c0
71c0
7fc0
3de0
ENDCHAR
STARTCHAR v
ENCODING 118
SWIDTH 565 0
DWIDTH 10 0
BBX 11 10 0 0
BITMAP
f9e0
70c0
3180
3980
3900
1b00
1e00
1e00
0e00
0c00
ENDCHAR
STARTCHAR w
ENCODING 119
SWIDTH 873 0
DWIDTH 17 0
BBX 17 10 0 0
BITMAP
fcc780
78e300
39e200
396600
3d7600
1d7400
1f7c00
1f7c00
0e3800
0e3800
ENDCHAR
STARTCHAR x
ENCODING 120
SWIDTH 593 0
DWIDTH 11 0
BBX 11 10 0 0
BITMAP
f9e0
7980
3900
1f00
1e00
0f00
1f80
3380
63c0
f3e0
ENDCHAR
STARTCHAR y
ENCODING 121
SWIDTH 567 0
DWIDTH 11 0
BBX 11 15 0 -5
BITMAP
fde0
78c0
38c0
3880
3d80
1d00
1d00
1f00
0e00
0e00
0600
4400
ec00
f800
7000
ENDCHAR
STARTCHAR z
ENCODING 122
SWIDTH 556 0
DWIDTH 11 0
BBX 9 10 1 0
BITMAP
ff80
c700
cf00
1e00
1e00
3c00
7980
7980
f180
ff80
ENDCHAR
STARTCHAR braceleft
ENCODING 123
SWIDTH 500 0
DWIDTH 10 0
BBX 8 16 1 -3
BITMAP
0f00
1e00
1c00
1c00
1c00
1c00
3800
e000
3800
1c00
1c00
1c00
1c00
1c00
1e00
0f00
ENDCHAR
STARTCHAR bar
ENCODING 124
SWIDTH 500 0
DWIDTH 10 0
BBX 2 19 4 -5
BITMAP
c0
c0
c0
c0
c0
c0
c0
c0
c0
c0
c0
c0
c0
c0
c0
c0
c0
c0
c0
ENDCHAR
STARTCHAR braceright
ENCODING 125
SWIDTH 500 0
DWIDTH 10 0
BBX 8 16 1 -3
BITMAP
f000
3800
3800
3800
3800
3800
1c00
0700
1c00
3800
3800
3800
3800
3800
7800
f000
ENDCHAR
STARTCHAR c0126
ENCODING 126
SWIDTH 1000 0
DWIDTH 19 0
BBX 11 2 4 10
BITMAP
3c60
c780
ENDCHAR
STARTCHAR space
ENCODING 160
SWIDTH 322 0
DWIDTH 6 0
BBX 1 1 0 0
BITMAP
00
ENDCHAR
STARTCHAR exclamdown
ENCODING 161
SWIDTH 343 0
DWIDTH 7 0
BBX 4 14 1 0
BITMAP
60
f0
f0
60
00
60
60
60
60
60
f0
f0
f0
60
ENDCHAR
STARTCHAR cent
ENCODING 162
SWIDTH 644 0
DWIDTH 12 0
BBX 9 14 1 -2
BITMAP
0600
0600
1f80
7680
f680
e600
e600
e600
e600
f680
7680
1f80
0600
0600
ENDCHAR
STARTCHAR sterling
ENCODING 163
SWIDTH 644 0
DWIDTH 12 0
BBX 11 14 1 0
BITMAP
07c0
1ee0
3ce0
3ce0
3c00
3c00
7f80
3c00
3c00
3800
3000
7fe0
ffe0
ffe0
ENDCHAR
STARTCHAR currency
ENCODING 164
SWIDTH 606 0
DWIDTH 12 0
BBX 10 10 1 3
BITMAP
8040
5e80
2100
6080
4080
4080
4080
2100
5e80
8040
ENDCHAR
STARTCHAR yen
ENCODING 165
SWIDTH 671 0
DWIDTH 13 0
BBX 13 14 0 0
BITMAP
fcf8
7870
3860
3c60
1cc0
7ef0
0f80
0f00
7ff0
0700
0700
0700
0700
1fc0
ENDCHAR
STARTCHAR brokenbar
ENCODING 166
SWIDTH 500 0
DWIDTH 10 0
BBX 2 17 4 -4
BITMAP
c0
c0
c0
c0
c0
c0
c0
00
00
00
c0
c0
c0
c0
c0
c0
c0
ENDCHAR
STARTCHAR section
ENCODING 167
SWIDTH 500 0
DWIDTH 10 0
BBX 8 16 1 -3
BITMAP
3e00
6600
e600
6000
7800
3c00
cf00
c700
c700
e600
7800
1c00
0e00
4e00
4e00
7800
ENDCHAR
STARTCHAR dieresis
ENCODING 168
SWIDTH 500 0
DWIDTH 10 0
BBX 8 3 1 10
BITMAP
e700
e700
e700
ENDCHAR
STARTCHAR copyright
ENCODING 169
SWIDTH 900 0
DWIDTH 17 0
BBX 15 15 1 -2
BITMAP
07c0
1830
2008
43e4
4e24
8c22
9c02
9c02
9c02
8c22
4e24
43e4
3008
1830
07c0
ENDCHAR
STARTCHAR ordfeminine
ENCODING 170
SWIDTH 462 0
DWIDTH 9 0
BBX 8 7 1 6
BITMAP
7c00
c600
3e00
e600
c600
fe00
f700
ENDCHAR
STARTCHAR guillemotleft
ENCODING 171
SWIDTH 458 0
DWIDTH 9 0
BBX 8 8 0 0
BITMAP
1100
3300
6700
cc00
cc00
6700
3300
1100
ENDCHAR
STARTCHAR logicalnot
ENCODING 172
SWIDTH 833 0
DWIDTH 16 0
BBX 11 5 3 3
BITMAP
ffe0
ffe0
0060
0060
0060
ENDCHAR
STARTCHAR hyphen
ENCODING 173
SWIDTH 333 0
DWIDTH 6 0
BBX 5 2 1 3
BITMAP
f8
f8
ENDCHAR
STARTCHAR registered
ENCODING 174
SWIDTH 900 0
DWIDTH 17 0
BBX 15 15 1 -2
BITMAP
07c0
1830
2008
6fc4
4664
8662
8662
8782
86c2
8662
4664
4f34
2008
1830
07c0
ENDCHAR
STARTCHAR macron
ENCODING 175
SWIDTH 500 0
DWIDTH 10 0
BBX 7 2 2 11
BITMAP
fe
fe
ENDCHAR
STARTCHAR degree
ENCODING 176
SWIDTH 329 0
DWIDTH 6 0
BBX 6 6 0 7
BITMAP
78
cc
84
84
cc
78
ENDCHAR
STARTCHAR plusminus
ENCODING 177
SWIDTH 833 0
DWIDTH 16 0
BBX 12 12 2 -1
BITMAP
0600
0600
0600
fff0
fff0
0600
0600
0600
0000
0000
fff0
fff0
ENDCHAR
STARTCHAR twosuperior
ENCODING 178
SWIDTH 425 0
DWIDTH 8 0
BBX 6 8 1 5
BITMAP
78
cc
cc
0c
18
64
fc
fc
ENDCHAR
STARTCHAR threesuperior
ENCODING 179
SWIDTH 425 0
DWIDTH 8 0
BBX 7 8 1 5
BITMAP
7c
ce
c6
0c
38
06
c6
7c
ENDCHAR
STARTCHAR acute
ENCODING 180
SWIDTH 500 0
DWIDTH 10 0
BBX 5 4 4 10
BITMAP
38
70
60
c0
ENDCHAR
STARTCHAR mu
ENCODING 181
SWIDTH 578 0
DWIDTH 11 0
BBX 11 12 -1 -4
BITMAP
18c0
3180
3180
3180
3180
6180
73a0
5dc0
4000
c000
c000
c000
ENDCHAR
STARTCHAR paragraph
ENCODING 182
SWIDTH 500 0
DWIDTH 10 0
BBX 9 16 0 -2
BITMAP
3f80
7d00
fd00
fd00
fd00
fd00
fd00
7d00
3d00
0100
0100
0100
0100
0100
0100
0100
ENDCHAR
STARTCHAR periodcentered
ENCODING 183
SWIDTH 322 0
DWIDTH 6 0
BBX 4 4 1 4
BITMAP
60
f0
f0
60
ENDCHAR
STARTCHAR cedilla
ENCODING 184
SWIDTH 500 0
DWIDTH 10 0
BBX 4 5 3 -5
BITMAP
40
70
30
30
e0
ENDCHAR
STARTCHAR onesuperior
ENCODING 185
SWIDTH 425 0
DWIDTH 8 0
BBX 4 8 3 5
BITMAP
60
e0
60
60
60
60
60
f0
ENDCHAR
STARTCHAR ordmasculine
ENCODING 186
SWIDTH 488 0
DWIDTH 9 0
BBX 8 7 1 6
BITMAP
7e00
6700
c300
c300
c300
6700
7e00
ENDCHAR
STARTCHAR guillemotright
ENCODING 187
SWIDTH 458 0
DWIDTH 9 0
BBX 8 8 0 0
BITMAP
8800
cc00
e600
3300
3300
6600
cc00
8800
ENDCHAR
STARTCHAR onequarter
ENCODING 188
SWIDTH 977 0
DWIDTH 19 0
BBX 16 14 3 0
BITMAP
606000
e04000
60c000
618000
610000
630000
620600
f60e00
0c1e00
083600
186600
107f00
200600
600600
ENDCHAR
STARTCHAR onehalf
ENCODING 189
SWIDTH 977 0
DWIDTH 19 0
BBX 15 14 3 0
BITMAP
6060
e040
60c0
6180
6100
6300
623c
f666
0c66
0806
180c
1032
207e
607e
ENDCHAR
STARTCHAR threequarters
ENCODING 190
SWIDTH 977 0
DWIDTH 19 0
BBX 18 14 1 0
BITMAP
7c0c00
ce0800
c61800
0c3000
382000
066000
c64180
7cc380
018780
010d80
031980
021fc0
040180
0c0180
ENDCHAR
STARTCHAR questiondown
ENCODING 191
SWIDTH 519 0
DWIDTH 10 0
BBX 9 14 0 0
BITMAP
0c00
1e00
1e00
0c00
0000
0c00
1c00
7800
7000
e000
e300
e380
f380
3f00
ENDCHAR
STARTCHAR Agrave
ENCODING 192
SWIDTH 701 0
DWIDTH 13 0
BBX 14 18 0 0
BITMAP
1c00
0e00
0600
0300
0380
0780
07c0
07c0
0dc0
0de0
08e0
18e0
1ff0
1070
3070
3078
6038
f8fc
ENDCHAR
STARTCHAR Aacute
ENCODING 193
SWIDTH 701 0
DWIDTH 13 0
BBX 14 18 0 0
BITMAP
00e0
01c0
0180
0300
0380
0780
07c0
07c0
0dc0
0de0
08e0
18e0
1ff0
1070
3070
3078
6038
f8fc
ENDCHAR
STARTCHAR Acircumflex
ENCODING 194
SWIDTH 701 0
DWIDTH 13 0
BBX 14 18 0 0
BITMAP
0380
07c0
06c0
0c60
0380
0780
07c0
07c0
0dc0
0de0
08e0
18e0
1ff0
1070
3070
3078
6038
f8fc
ENDCHAR
STARTCHAR Atilde
ENCODING 195
SWIDTH 701 0
DWIDTH 13 0
BBX 14 17 0 0
BITMAP
0c40
1fc0
1180
0380
0780
07c0
07c0
0dc0
0de0
08e0
18e0
1ff0
1070
3070
3078
6038
f8fc
ENDCHAR
STARTCHAR Adieresis
ENCODING 196
SWIDTH 701 0
DWIDTH 13 0
BBX 14 17 0 0
BITMAP
1ce0
1ce0
1ce0
0380
0780
07c0
07c0
0dc0
0de0
08e0
18e0
1ff0
1070
3070
3078
6038
f8fc
ENDCHAR
STARTCHAR Aring
ENCODING 197
SWIDTH 701 0
DWIDTH 13 0
BBX 14 18 0 0
BITMAP
0380
0440
0380
0000
0380
0780
07c0
07c0
0dc0
0de0
08e0
18e0
1ff0
1070
3070
3078
6038
f8fc
ENDCHAR
STARTCHAR AE
ENCODING 198
SWIDTH 963 0
DWIDTH 19 0
BBX 19 14 -1 0
BITMAP
03ffc0
00f8c0
01b8c0
01b8c0
033800
033900
063900
063f00
0ff900
183800
183860
303860
303860
f8ffe0
ENDCHAR
STARTCHAR Ccedilla
ENCODING 199
SWIDTH 683 0
DWIDTH 13 0
BBX 11 19 1 -5
BITMAP
0fe0
3c60
7860
7860
f000
f000
f000
f000
f000
f000
7860
7860
3c60
0fe0
0100
01c0
00c0
00c0
0380
ENDCHAR
STARTCHAR Egrave
ENCODING 200
SWIDTH 653 0
DWIDTH 13 0
BBX 11 18 1 0
BITMAP
3800
1c00
0c00
0600
ffc0
70c0
70c0
7000
7100
7100
7f00
7100
7100
7000
7060
7060
7060
ffe0
ENDCHAR
STARTCHAR Eacute
ENCODING 201
SWIDTH 653 0
DWIDTH 13 0
BBX 11 18 1 0
BITMAP
01c0
0380
0300
0600
ffc0
70c0
70c0
7000
7100
7100
7f00
7100
7100
7000
7060
7060
7060
ffe0
ENDCHAR
STARTCHAR Ecircumflex
ENCODING 202
SWIDTH 653 0
DWIDTH 13 0
BBX 11 18 1 0
BITMAP
0700
0f80
0d80
18c0
ffc0
70c0
70c0
7000
7100
7100
7f00
7100
7100
7000
7060
7060
7060
ffe0
ENDCHAR
STARTCHAR Edieresis
ENCODING 203
SWIDTH 653 0
DWIDTH 13 0
BBX 11 17 1 0
BITMAP
39c0
39c0
39c0
ffc0
70c0
70c0
7000
7100
7100
7f00
7100
7100
7000
7060
7060
7060
ffe0
ENDCHAR
STARTCHAR Igrave
ENCODING 204
SWIDTH 410 0
DWIDTH 7 0
BBX 6 18 0 0
BITMAP
e0
70
30
18
7c
38
38
38
38
38
38
38
38
38
38
38
38
7c
ENDCHAR
STARTCHAR Iacute
ENCODING 205
SWIDTH 410 0
DWIDTH 7 0
BBX 7 18 1 0
BITMAP
0e
1c
18
30
f8
70
70
70
70
70
70
70
70
70
70
70
70
f8
ENDCHAR
STARTCHAR Icircumflex
ENCODING 206
SWIDTH 410 0
DWIDTH 7 0
BBX 7 18 1 0
BITMAP
38
7c
6c
c6
f8
70
70
70
70
70
70
70
70
70
70
70
70
f8
ENDCHAR
STARTCHAR Idieresis
ENCODING 207
SWIDTH 410 0
DWIDTH 7 0
BBX 8 17 0 0
BITMAP
e700
e700
e700
7c00
3800
3800
3800
3800
3800
3800
3800
3800
3800
3800
3800
3800
7c00
ENDCHAR
STARTCHAR Eth
ENCODING 208
SWIDTH 780 0
DWIDTH 15 0
BBX 13 14 1 0
BITMAP
ff80
71e0
70f0
70f0
7078
7078
fc78
7078
7078
7078
70f0
70f0
73e0
ff80
ENDCHAR
STARTCHAR Ntilde
ENCODING 209
SWIDTH 782 0
DWIDTH 15 0
BBX 13 17 1 0
BITMAP
0c40
1fc0
1180
f878
7830
7c30
7e30
6e30
6f30
6730
67b0
63b0
63f0
61f0
61f0
60f0
f070
ENDCHAR
STARTCHAR Ograve
ENCODING 210
SWIDTH 815 0
DWIDTH 16 0
BBX 14 18 1 0
BITMAP
1c00
0e00
0600
0300
0fc0
3cf0
7878
7838
f03c
f03c
f03c
f03c
f03c
f03c
7838
7878
3cf0
0fc0
ENDCHAR
STARTCHAR Oacute
ENCODING 211
SWIDTH 815 0
DWIDTH 16 0
BBX 14 18 1 0
BITMAP
00e0
01c0
0180
0300
0fc0
3cf0
7878
7838
f03c
f03c
f03c
f03c
f03c
f03c
7838
7878
3cf0
0fc0
ENDCHAR
STARTCHAR Ocircumflex
ENCODING 212
SWIDTH 815 0
DWIDTH 16 0
BBX 14 18 1 0
BITMAP
0380
07c0
06c0
0c60
0fc0
3cf0
7878
7838
f03c
f03c
f03c
f03c
f03c
f03c
7838
7878
3cf0
0fc0
ENDCHAR
STARTCHAR Otilde
ENCODING 213
SWIDTH 815 0
DWIDTH 16 0
BBX 14 17 1 0
BITMAP
0c40
1fc0
1180
0fc0
3cf0
7878
7838
f03c
f03c
f03c
f03c
f03c
f03c
7838
7878
3cf0
0fc0
ENDCHAR
STARTCHAR Odieresis
ENCODING 214
SWIDTH 815 0
DWIDTH 16 0
BBX 14 17 1 0
BITMAP
1ce0
1ce0
1ce0
0fc0
3cf0
7878
7838
f03c
f03c
f03c
f03c
f03c
f03c
7838
7878
3cf0
0fc0
ENDCHAR
STARTCHAR multiply
ENCODING 215
SWIDTH 833 0
DWIDTH 16 0
BBX 11 11 3 0
BITMAP
4040
e0e0
71c0
3b80
1f00
0e00
1f00
3b80
71c0
e0e0
4040
ENDCHAR
STARTCHAR Oslash
ENCODING 216
SWIDTH 815 0
DWIDTH 16 0
BBX 14 16 1 -2
BITMAP
0ff0
3cf0
78f8
78b8
f1bc
f13c
f13c
f23c
f23c
f43c
7438
7870
3cf0
1fc0
3000
1000
ENDCHAR
STARTCHAR Ugrave
ENCODING 217
SWIDTH 757 0
DWIDTH 15 0
BBX 13 18 1 0
BITMAP
3800
1c00
0c00
0600
f878
7030
7030
7030
7030
7030
7030
7030
7030
7030
7030
7860
3fe0
1f80
ENDCHAR
STARTCHAR Uacute
ENCODING 218
SWIDTH 757 0
DWIDTH 15 0
BBX 13 18 1 0
BITMAP
01c0
0380
0300
0600
f878
7030
7030
7030
7030
7030
7030
7030
7030
7030
7030
7860
3fe0
1f80
ENDCHAR
STARTCHAR Ucircumflex
ENCODING 219
SWIDTH 757 0
DWIDTH 15 0
BBX 13 18 1 0
BITMAP
0700
0f80
0d80
18c0
f878
7030
7030
7030
7030
7030
7030
7030
7030
7030
7030
7860
3fe0
1f80
ENDCHAR
STARTCHAR Udieresis
ENCODING 220
SWIDTH 757 0
DWIDTH 15 0
BBX 13 17 1 0
BITMAP
39c0
39c0
39c0
f878
7030
7030
7030
7030
7030
7030
7030
7030
7030
7030
7860
3fe0
1f80
ENDCHAR
STARTCHAR Yacute
ENCODING 221
SWIDTH 671 0
DWIDTH 13 0
BBX 13 18 0 0
BITMAP
00e0
01c0
0180
0300
fcf8
7870
3860
3c60
1cc0
1e80
0f80
0f00
0700
0700
0700
0700
0700
1fc0
ENDCHAR
STARTCHAR Thorn
ENCODING 222
SWIDTH 653 0
DWIDTH 13 0
BBX 11 14 1 0
BITMAP
f800
7000
7000
7f80
73c0
71e0
71e0
71e0
71e0
77c0
7f80
7000
7000
f800
ENDCHAR
STARTCHAR germandbls
ENCODING 223
SWIDTH 713 0
DWIDTH 14 0
BBX 12 14 1 0
BITMAP
0f80
39c0
31e0
71e0
71e0
7300
7700
7780
73e0
71f0
70f0
7470
7670
f7e0
ENDCHAR
STARTCHAR agrave
ENCODING 224
SWIDTH 616 0
DWIDTH 12 0
BBX 11 14 1 0
BITMAP
7000
3800
1800
0c00
3f00
6780
e380
0380
1f80
7380
e380
e380
ff80
7be0
ENDCHAR
STARTCHAR aacute
ENCODING 225
SWIDTH 616 0
DWIDTH 12 0
BBX 11 14 1 0
BITMAP
0380
0700
0600
0c00
3f00
6780
e380
0380
1f80
7380
e380
e380
ff80
7be0
ENDCHAR
STARTCHAR acircumflex
ENCODING 226
SWIDTH 616 0
DWIDTH 12 0
BBX 11 14 1 0
BITMAP
0e00
1f00
1b00
3180
3f00
6780
e380
0380
1f80
7380
e380
e380
ff80
7be0
ENDCHAR
STARTCHAR atilde
ENCODING 227
SWIDTH 616 0
DWIDTH 12 0
BBX 11 13 1 0
BITMAP
3100
7f00
4600
3f00
6780
e380
0380
1f80
7380
e380
e380
ff80
7be0
ENDCHAR
STARTCHAR adieresis
ENCODING 228
SWIDTH 616 0
DWIDTH 12 0
BBX 11 13 1 0
BITMAP
7380
7380
7380
3f00
6780
e380
0380
1f80
7380
e380
e380
ff80
7be0
ENDCHAR
STARTCHAR aring
ENCODING 229
SWIDTH 616 0
DWIDTH 12 0
BBX 11 15 1 0
BITMAP
1c00
1200
1200
1c00
0000
3f00
6780
e380
0380
1f80
7380
e380
e380
ff80
7be0
ENDCHAR
STARTCHAR ae
ENCODING 230
SWIDTH 854 0
DWIDTH 17 0
BBX 15 10 1 0
BITMAP
3f78
67dc
e38e
038e
3ffe
7380
e380
e3c2
fffe
7878
ENDCHAR
STARTCHAR ccedilla
ENCODING 231
SWIDTH 537 0
DWIDTH 10 0
BBX 8 15 1 -5
BITMAP
1e00
7700
6700
e700
e000
e000
e000
f000
7100
3f00
0800
0e00
0600
0600
1c00
ENDCHAR
STARTCHAR egrave
ENCODING 232
SWIDTH 590 0
DWIDTH 11 0
BBX 9 14 1 0
BITMAP
7000
3800
1800
0c00
3e00
7700
6380
e380
ff80
e000
e000
f000
7080
3f80
ENDCHAR
STARTCHAR eacute
ENCODING 233
SWIDTH 590 0
DWIDTH 11 0
BBX 9 14 1 0
BITMAP
0380
0700
0600
0c00
3e00
7700
6380
e380
ff80
e000
e000
f000
7080
3f80
ENDCHAR
STARTCHAR ecircumflex
ENCODING 234
SWIDTH 590 0
DWIDTH 11 0
BBX 9 14 1 0
BITMAP
0e00
1f00
1b00
3180
3e00
7700
6380
e380
ff80
e000
e000
f000
7080
3f80
ENDCHAR
STARTCHAR edieresis
ENCODING 235
SWIDTH 590 0
DWIDTH 11 0
BBX 9 13 1 0
BITMAP
7380
7380
7380
3e00
7700
6380
e380
ff80
e000
e000
f000
7080
3f80
ENDCHAR
STARTCHAR igrave
ENCODING 236
SWIDTH 354 0
DWIDTH 7 0
BBX 6 14 0 0
BITMAP
e0
70
30
18
18
78
38
38
38
38
38
38
38
7c
ENDCHAR
STARTCHAR iacute
ENCODING 237
SWIDTH 354 0
DWIDTH 7 0
BBX 7 14 1 0
BITMAP
0e
1c
18
30
30
f0
70
70
70
70
70
70
70
f8
ENDCHAR
STARTCHAR icircumflex
ENCODING 238
SWIDTH 354 0
DWIDTH 7 0
BBX 7 14 1 0
BITMAP
38
7c
6c
c6
30
f0
70
70
70
70
70
70
70
f8
ENDCHAR
STARTCHAR idieresis
ENCODING 239
SWIDTH 354 0
DWIDTH 7 0
BBX 8 13 0 0
BITMAP
e700
e700
e700
1800
7800
3800
3800
3800
3800
3800
3800
3800
7c00
ENDCHAR
STARTCHAR eth
ENCODING 240
SWIDTH 645 0
DWIDTH 12 0
BBX 10 14 1 0
BITMAP
1c80
3f00
1f00
2780
3f80
71c0
e1c0
e1c0
e1c0
e1c0
e1c0
e1c0
7380
3f00
ENDCHAR
STARTCHAR ntilde
ENCODING 241
SWIDTH 678 0
DWIDTH 13 0
BBX 11 13 1 0
BITMAP
1880
3f80
2300
7780
ffc0
71c0
71c0
71c0
71c0
71c0
71c0
71c0
fbe0
ENDCHAR
STARTCHAR ograve
ENCODING 242
SWIDTH 650 0
DWIDTH 13 0
BBX 11 14 1 0
BITMAP
3800
1c00
0c00
0600
3f80
71c0
e0e0
e0e0
e0e0
e0e0
e0e0
e0e0
71c0
3f80
ENDCHAR
STARTCHAR oacute
ENCODING 243
SWIDTH 650 0
DWIDTH 13 0
BBX 11 14 1 0
BITMAP
01c0
0380
0300
0600
3f80
71c0
e0e0
e0e0
e0e0
e0e0
e0e0
e0e0
71c0
3f80
ENDCHAR
STARTCHAR ocircumflex
ENCODING 244
SWIDTH 650 0
DWIDTH 13 0
BBX 11 14 1 0
BITMAP
0700
0f80
0d80
18c0
3f80
71c0
e0e0
e0e0
e0e0
e0e0
e0e0
e0e0
71c0
3f80
ENDCHAR
STARTCHAR otilde
ENCODING 245
SWIDTH 650 0
DWIDTH 13 0
BBX 11 13 1 0
BITMAP
1880
3f80
2300
3f80
71c0
e0e0
e0e0
e0e0
e0e0
e0e0
e0e0
71c0
3f80
ENDCHAR
STARTCHAR odieresis
ENCODING 246
SWIDTH 650 0
DWIDTH 13 0
BBX 11 13 1 0
BITMAP
39c0
39c0
39c0
3f80
71c0
e0e0
e0e0
e0e0
e0e0
e0e0
e0e0
71c0
3f80
ENDCHAR
STARTCHAR divide
ENCODING 247
SWIDTH 833 0
DWIDTH 16 0
BBX 11 10 3 0
BITMAP
0e00
0e00
0e00
0000
ffe0
ffe0
0000
0e00
0e00
0e00
ENDCHAR
STARTCHAR oslash
ENCODING 248
SWIDTH 650 0
DWIDTH 13 0
BBX 11 13 1 -2
BITMAP
0080
3f80
71c0
63e0
e6e0
e4e0
ece0
e8e0
f0e0
71c0
3f80
6000
4000
ENDCHAR
STARTCHAR ugrave
ENCODING 249
SWIDTH 667 0
DWIDTH 13 0
BBX 11 14 1 0
BITMAP
3800
1c00
0c00
0600
71c0
f3c0
71c0
71c0
71c0
71c0
71c0
71c0
7fc0
3de0
ENDCHAR
STARTCHAR uacute
ENCODING 250
SWIDTH 667 0
DWIDTH 13 0
BBX 11 14 1 0
BITMAP
01c0
0380
0300
0600
71c0
f3c0
71c0
71c0
71c0
71c0
71c0
71c0
7fc0
3de0
ENDCHAR
STARTCHAR ucircumflex
ENCODING 251
SWIDTH 667 0
DWIDTH 13 0
BBX 11 14 1 0
BITMAP
0700
0f80
0d80
18c0
71c0
f3c0
71c0
71c0
71c0
71c0
71c0
71c0
7fc0
3de0
ENDCHAR
STARTCHAR udieresis
ENCODING 252
SWIDTH 667 0
DWIDTH 13 0
BBX 11 13 1 0
BITMAP
39c0
39c0
39c0
71c0
f3c0
71c0
71c0
71c0
71c0
71c0
71c0
7fc0
3de0
ENDCHAR
STARTCHAR yacute
ENCODING 253
SWIDTH 567 0
DWIDTH 11 0
BBX 11 19 0 -5
BITMAP
01c0
0380
0300
0600
fde0
78c0
38c0
3880
3d80
1d00
1d00
1f00
0e00
0e00
0600
4400
ec00
f800
7000
ENDCHAR
STARTCHAR thorn
ENCODING 254
SWIDTH 667 0
DWIDTH 13 0
BBX 11 19 1 -5
BITMAP
3000
f000
7000
7000
7380
7fc0
71e0
70e0
70e0
70e0
70e0
71c0
71c0
7f80
7000
7000
7000
7000
fc00
ENDCHAR
STARTCHAR ydieresis
ENCODING 255
SWIDTH 567 0
DWIDTH 11 0
BBX 11 18 0 -5
BITMAP
39c0
39c0
39c0
fde0
78c0
38c0
3880
3d80
1d00
1d00
1f00
0e00
0e00
0600
4400
ec00
f800
7000
ENDCHAR
ENDFONT
