STARTFONT 2.1
COMMENT  
COMMENT  Copyright 1988 Bitstream, Inc., Cambridge, Massachusetts, USA
COMMENT  Bitstream and Charter are registered trademarks of Bitstream, Inc.
COMMENT  
COMMENT  The names "Bitstream" and "Charter" are registered trademarks of
COMMENT  Bitstream, Inc.  Permission to use these trademarks is hereby
COMMENT  granted only in association with the images described in this file.
COMMENT  
COMMENT  Permission to use, copy, modify, and distribute this software and
COMMENT  its documentation for any purpose and without fee is hereby
COMMENT  granted, provided that the above copyright notice appear in all
COMMENT  copies and that both that copyright notice and this permission
COMMENT  notice appear in supporting documentation, and that the name of
COMMENT  Bitstream not be used in advertising or publicity pertaining to
COMMENT  distribution of the software without specific, written prior
COMMENT  permission.  Bitstream makes no representations about the
COMMENT  suitability of this software for any purpose.  It is provided "as
COMMENT  is" without express or implied warranty.
COMMENT  
COMMENT  BITSTREAM DISCLAIMS ALL WARRANTIES WITH REGARD TO THIS SOFTWARE,
COMMENT  INCLUDING ALL IMPLIED WARRANTIES OF MERCHANTABILITY AND FITNESS, IN
COMMENT  NO EVENT SHALL BITSTREAM BE LIABLE FOR ANY SPECIAL, INDIRECT OR
COMMENT  CONSEQUENTIAL DAMAGES OR ANY DAMAGES WHATSOEVER RESULTING FROM LOSS
COMMENT  OF USE, DATA OR PROFITS, WHETHER IN AN ACTION OF CONTRACT,
COMMENT  NEGLIGENCE OR OTHER TORTIOUS ACTION, ARISING OUT OF OR IN
COMMENT  CONNECTION WITH THE USE OR PERFORMANCE OF THIS SOFTWARE.
COMMENT  
COMMENT  
COMMENT Fontware CVTBDF v1.0
FONT -Bitstream-Charter-Bold-I-Normal--11-80-100-100-P-68-ISO8859-1
SIZE 8 100 100
FONTBOUNDINGBOX 13 13 -2 -3
STARTPROPERTIES 22
COMMENT Begin LogicalFontDescription
FONTNAME_REGISTRY ""
FAMILY_NAME "Charter"
FOUNDRY "Bitstream"
WEIGHT_NAME "Bold"
SETWIDTH_NAME "Normal"
SLANT "I"
ADD_STYLE_NAME ""
PIXEL_SIZE 11
POINT_SIZE 80
RESOLUTION_X 100
RESOLUTION_Y 100
SPACING "P"
AVERAGE_WIDTH 68
CHARSET_REGISTRY "ISO8859"
CHARSET_ENCODING "1"
COMMENT END LogicalFontDescription
FONT_DESCENT 3
FONT_ASCENT 10
CAP_HEIGHT 8
X_HEIGHT 5
CHARSET_COLLECTIONS "ASCII ISOLATIN1"
FULL_NAME "Bitstream Charter Black Italic"
COPYRIGHT "Copyright 1987 by Bitstream Inc. Charter Registered trademark of Bitstream Inc."
COMMENT ****** end of font properties
ENDPROPERTIES
CHARS 191
STARTCHAR space
ENCODING 32
SWIDTH 319 0
DWIDTH 4 0
BBX 1 1 0 0
BITMAP
00
ENDCHAR
STARTCHAR exclam
ENCODING 33
SWIDTH 343 0
DWIDTH 4 0
BBX 3 8 0 0
BITMAP
60
60
40
40
40
00
c0
c0
ENDCHAR
STARTCHAR quotedbl
ENCODING 34
SWIDTH 339 0
DWIDTH 5 0
BBX 3 3 1 4
BITMAP
a0
a0
a0
ENDCHAR
STARTCHAR numbersign
ENCODING 35
SWIDTH 769 0
DWIDTH 9 0
BBX 8 8 0 -1
BITMAP
0a00
1200
7f00
2400
2400
fe00
4800
5000
ENDCHAR
STARTCHAR dollar
ENCODING 36
SWIDTH 639 0
DWIDTH 7 0
BBX 6 9 0 -1
BITMAP
3c
74
74
70
38
ac
a8
f0
20
ENDCHAR
STARTCHAR percent
ENCODING 37
SWIDTH 981 0
DWIDTH 11 0
BBX 9 8 1 0
BITMAP
6100
d200
9400
9f00
6c80
1480
2580
4300
ENDCHAR
STARTCHAR ampersand
ENCODING 38
SWIDTH 787 0
DWIDTH 9 0
BBX 8 8 0 0
BITMAP
3800
6c00
6c00
3300
5a00
dc00
ec00
7700
ENDCHAR
STARTCHAR quoteright
ENCODING 39
SWIDTH 331 0
DWIDTH 4 0
BBX 3 4 1 3
BITMAP
60
60
20
c0
ENDCHAR
STARTCHAR parenleft
ENCODING 40
SWIDTH 440 0
DWIDTH 5 0
BBX 4 10 1 -2
BITMAP
10
20
60
40
c0
c0
c0
c0
c0
60
ENDCHAR
STARTCHAR parenright
ENCODING 41
SWIDTH 440 0
DWIDTH 5 0
BBX 5 10 -1 -2
BITMAP
30
18
18
18
18
18
30
30
20
c0
ENDCHAR
STARTCHAR asterisk
ENCODING 42
SWIDTH 500 0
DWIDTH 6 0
BBX 5 4 1 4
BITMAP
20
f8
20
f0
ENDCHAR
STARTCHAR plus
ENCODING 43
SWIDTH 833 0
DWIDTH 9 0
BBX 7 7 1 0
BITMAP
10
10
10
fe
10
10
10
ENDCHAR
STARTCHAR comma
ENCODING 44
SWIDTH 322 0
DWIDTH 3 0
BBX 3 4 -1 -2
BITMAP
60
60
20
c0
ENDCHAR
STARTCHAR hyphen
ENCODING 45
SWIDTH 333 0
DWIDTH 4 0
BBX 4 1 0 2
BITMAP
f0
ENDCHAR
STARTCHAR period
ENCODING 46
SWIDTH 322 0
DWIDTH 3 0
BBX 2 2 0 0
BITMAP
c0
c0
ENDCHAR
STARTCHAR slash
ENCODING 47
SWIDTH 481 0
DWIDTH 6 0
BBX 8 9 -2 -1
BITMAP
0300
0200
0400
0800
1800
1000
2000
4000
c000
ENDCHAR
STARTCHAR zero
ENCODING 48
SWIDTH 639 0
DWIDTH 7 0
BBX 6 8 1 0
BITMAP
38
6c
4c
cc
cc
c8
d8
70
ENDCHAR
STARTCHAR one
ENCODING 49
SWIDTH 639 0
DWIDTH 7 0
BBX 4 8 1 0
BITMAP
30
70
30
20
20
20
60
f0
ENDCHAR
STARTCHAR two
ENCODING 50
SWIDTH 639 0
DWIDTH 7 0
BBX 6 8 0 0
BITMAP
38
6c
6c
0c
10
24
fc
f8
ENDCHAR
STARTCHAR three
ENCODING 51
SWIDTH 639 0
DWIDTH 7 0
BBX 6 8 0 0
BITMAP
38
6c
4c
08
38
0c
d8
70
ENDCHAR
STARTCHAR four
ENCODING 52
SWIDTH 639 0
DWIDTH 7 0
BBX 7 8 0 0
BITMAP
0c
1c
3c
2c
48
fe
18
18
ENDCHAR
STARTCHAR five
ENCODING 53
SWIDTH 639 0
DWIDTH 7 0
BBX 7 8 0 0
BITMAP
3e
7c
40
78
0c
4c
c8
70
ENDCHAR
STARTCHAR six
ENCODING 54
SWIDTH 639 0
DWIDTH 7 0
BBX 6 8 0 0
BITMAP
0c
30
60
78
cc
cc
c8
70
ENDCHAR
STARTCHAR seven
ENCODING 55
SWIDTH 639 0
DWIDTH 7 0
BBX 6 8 1 0
BITMAP
fc
fc
88
18
10
20
60
c0
ENDCHAR
STARTCHAR eight
ENCODING 56
SWIDTH 639 0
DWIDTH 7 0
BBX 6 8 0 0
BITMAP
38
6c
6c
70
58
cc
c8
70
ENDCHAR
STARTCHAR nine
ENCODING 57
SWIDTH 639 0
DWIDTH 7 0
BBX 6 8 1 0
BITMAP
38
4c
cc
cc
78
18
30
c0
ENDCHAR
STARTCHAR colon
ENCODING 58
SWIDTH 387 0
DWIDTH 4 0
BBX 3 5 0 0
BITMAP
60
60
00
c0
c0
ENDCHAR
STARTCHAR semicolon
ENCODING 59
SWIDTH 387 0
DWIDTH 4 0
BBX 3 7 0 -2
BITMAP
60
60
00
40
40
40
80
ENDCHAR
STARTCHAR less
ENCODING 60
SWIDTH 833 0
DWIDTH 9 0
BBX 6 6 1 0
BITMAP
04
38
c0
c0
38
04
ENDCHAR
STARTCHAR equal
ENCODING 61
SWIDTH 833 0
DWIDTH 9 0
BBX 6 3 2 1
BITMAP
fc
00
fc
ENDCHAR
STARTCHAR greater
ENCODING 62
SWIDTH 833 0
DWIDTH 9 0
BBX 6 6 2 0
BITMAP
80
70
0c
0c
70
80
ENDCHAR
STARTCHAR question
ENCODING 63
SWIDTH 519 0
DWIDTH 6 0
BBX 5 8 1 0
BITMAP
70
d8
18
30
40
00
c0
c0
ENDCHAR
STARTCHAR at
ENCODING 64
SWIDTH 942 0
DWIDTH 10 0
BBX 8 9 1 -2
BITMAP
1c00
6200
5d00
a500
a500
aa00
bc00
4200
3c00
ENDCHAR
STARTCHAR A
ENCODING 65
SWIDTH 688 0
DWIDTH 7 0
BBX 8 8 -1 0
BITMAP
0c00
0c00
1400
2600
3e00
4600
4600
e700
ENDCHAR
STARTCHAR B
ENCODING 66
SWIDTH 694 0
DWIDTH 8 0
BBX 7 8 0 0
BITMAP
7c
36
26
7c
66
66
6c
f8
ENDCHAR
STARTCHAR C
ENCODING 67
SWIDTH 671 0
DWIDTH 7 0
BBX 7 8 0 0
BITMAP
1e
62
62
c0
c0
c4
64
3c
ENDCHAR
STARTCHAR D
ENCODING 68
SWIDTH 762 0
DWIDTH 9 0
BBX 9 8 0 0
BITMAP
7e00
3300
3180
3180
3180
6300
6700
fc00
ENDCHAR
STARTCHAR E
ENCODING 69
SWIDTH 639 0
DWIDTH 7 0
BBX 7 8 0 0
BITMAP
7e
32
24
38
68
64
64
fc
ENDCHAR
STARTCHAR F
ENCODING 70
SWIDTH 590 0
DWIDTH 6 0
BBX 7 8 0 0
BITMAP
7e
32
24
3c
68
60
60
f0
ENDCHAR
STARTCHAR G
ENCODING 71
SWIDTH 750 0
DWIDTH 8 0
BBX 8 8 0 0
BITMAP
1f00
7300
6200
c000
cf00
c600
6600
3c00
ENDCHAR
STARTCHAR H
ENCODING 72
SWIDTH 813 0
DWIDTH 9 0
BBX 9 8 0 0
BITMAP
7b80
3300
2300
3f00
6300
6200
6600
ef00
ENDCHAR
STARTCHAR I
ENCODING 73
SWIDTH 407 0
DWIDTH 5 0
BBX 5 8 0 0
BITMAP
78
30
30
30
60
60
60
f0
ENDCHAR
STARTCHAR J
ENCODING 74
SWIDTH 521 0
DWIDTH 6 0
BBX 7 8 -1 0
BITMAP
1e
0c
0c
0c
0c
d8
d8
f0
ENDCHAR
STARTCHAR K
ENCODING 75
SWIDTH 708 0
DWIDTH 8 0
BBX 9 8 0 0
BITMAP
7b80
3300
3600
3c00
7c00
6600
6600
f380
ENDCHAR
STARTCHAR L
ENCODING 76
SWIDTH 583 0
DWIDTH 7 0
BBX 7 8 0 0
BITMAP
78
30
30
30
30
62
66
fe
ENDCHAR
STARTCHAR M
ENCODING 77
SWIDTH 986 0
DWIDTH 11 0
BBX 11 8 0 0
BITMAP
78e0
39c0
39c0
3ac0
4ac0
4c80
4d80
e9c0
ENDCHAR
STARTCHAR N
ENCODING 78
SWIDTH 771 0
DWIDTH 8 0
BBX 9 8 0 0
BITMAP
7380
3900
3900
3900
4e00
4e00
4600
e600
ENDCHAR
STARTCHAR O
ENCODING 79
SWIDTH 780 0
DWIDTH 9 0
BBX 8 8 0 0
BITMAP
1e00
6200
6300
c300
c300
c600
4600
3800
ENDCHAR
STARTCHAR P
ENCODING 80
SWIDTH 644 0
DWIDTH 7 0
BBX 7 8 0 0
BITMAP
7c
36
26
66
78
60
60
e0
ENDCHAR
STARTCHAR Q
ENCODING 81
SWIDTH 780 0
DWIDTH 9 0
BBX 8 10 0 -2
BITMAP
1e00
6200
6300
c300
c300
c600
6600
3c00
0c00
0f00
ENDCHAR
STARTCHAR R
ENCODING 82
SWIDTH 715 0
DWIDTH 8 0
BBX 8 8 0 0
BITMAP
7c00
3600
2600
6400
7800
6c00
6c00
e700
ENDCHAR
STARTCHAR S
ENCODING 83
SWIDTH 593 0
DWIDTH 7 0
BBX 7 8 0 0
BITMAP
1e
64
64
70
1c
4c
cc
f0
ENDCHAR
STARTCHAR T
ENCODING 84
SWIDTH 627 0
DWIDTH 7 0
BBX 8 8 0 0
BITMAP
ff00
9900
1800
3800
3000
3000
3000
7800
ENDCHAR
STARTCHAR U
ENCODING 85
SWIDTH 766 0
DWIDTH 9 0
BBX 8 8 1 0
BITMAP
f700
6200
6200
c200
c400
c400
c400
7800
ENDCHAR
STARTCHAR V
ENCODING 86
SWIDTH 669 0
DWIDTH 7 0
BBX 8 8 0 0
BITMAP
f700
6200
6600
6400
6800
2800
3000
3000
ENDCHAR
STARTCHAR W
ENCODING 87
SWIDTH 981 0
DWIDTH 10 0
BBX 11 8 0 0
BITMAP
f6e0
6640
6e40
6e80
7680
7300
6300
6300
ENDCHAR
STARTCHAR X
ENCODING 88
SWIDTH 671 0
DWIDTH 8 0
BBX 9 8 -1 0
BITMAP
7b80
3300
1e00
1c00
1c00
2c00
6600
ef00
ENDCHAR
STARTCHAR Y
ENCODING 89
SWIDTH 634 0
DWIDTH 7 0
BBX 8 8 0 0
BITMAP
f700
6200
6400
3800
3000
3000
3000
7800
ENDCHAR
STARTCHAR Z
ENCODING 90
SWIDTH 611 0
DWIDTH 7 0
BBX 7 8 0 0
BITMAP
7e
4c
0c
18
30
64
64
fc
ENDCHAR
STARTCHAR bracketleft
ENCODING 91
SWIDTH 495 0
DWIDTH 6 0
BBX 5 9 1 -2
BITMAP
38
60
60
60
40
40
c0
c0
f0
ENDCHAR
STARTCHAR backslash
ENCODING 92
SWIDTH 481 0
DWIDTH 6 0
BBX 6 9 0 -1
BITMAP
c0
40
60
20
30
10
08
08
04
ENDCHAR
STARTCHAR bracketright
ENCODING 93
SWIDTH 495 0
DWIDTH 6 0
BBX 5 9 0 -2
BITMAP
78
18
18
10
10
30
30
30
e0
ENDCHAR
STARTCHAR asciicircum
ENCODING 94
SWIDTH 1000 0
DWIDTH 11 0
BBX 7 3 2 4
BITMAP
38
6c
82
ENDCHAR
STARTCHAR underscore
ENCODING 95
SWIDTH 500 0
DWIDTH 6 0
BBX 6 1 0 -3
BITMAP
fc
ENDCHAR
STARTCHAR quoteleft
ENCODING 96
SWIDTH 331 0
DWIDTH 4 0
BBX 3 4 1 3
BITMAP
60
80
c0
c0
ENDCHAR
STARTCHAR a
ENCODING 97
SWIDTH 650 0
DWIDTH 7 0
BBX 7 5 0 0
BITMAP
3c
6c
c8
c8
7e
ENDCHAR
STARTCHAR b
ENCODING 98
SWIDTH 627 0
DWIDTH 7 0
BBX 6 8 0 0
BITMAP
e0
60
60
78
4c
cc
d8
70
ENDCHAR
STARTCHAR c
ENCODING 99
SWIDTH 498 0
DWIDTH 6 0
BBX 5 5 0 0
BITMAP
38
58
c0
c8
70
ENDCHAR
STARTCHAR d
ENCODING 100
SWIDTH 660 0
DWIDTH 7 0
BBX 6 8 0 0
BITMAP
0c
0c
0c
3c
68
c8
c8
7c
ENDCHAR
STARTCHAR e
ENCODING 101
SWIDTH 523 0
DWIDTH 6 0
BBX 6 5 0 0
BITMAP
38
4c
f0
c4
78
ENDCHAR
STARTCHAR f
ENCODING 102
SWIDTH 373 0
DWIDTH 4 0
BBX 8 11 -2 -3
BITMAP
0700
0f00
0800
3e00
1800
1800
1800
1000
3000
e000
c000
ENDCHAR
STARTCHAR g
ENCODING 103
SWIDTH 574 0
DWIDTH 6 0
BBX 7 8 0 -3
BITMAP
38
6e
6c
30
30
dc
cc
70
ENDCHAR
STARTCHAR h
ENCODING 104
SWIDTH 664 0
DWIDTH 7 0
BBX 7 8 0 0
BITMAP
60
20
60
7c
6c
4c
48
ce
ENDCHAR
STARTCHAR i
ENCODING 105
SWIDTH 361 0
DWIDTH 4 0
BBX 3 8 1 0
BITMAP
60
60
00
e0
40
c0
c0
e0
ENDCHAR
STARTCHAR j
ENCODING 106
SWIDTH 338 0
DWIDTH 4 0
BBX 6 11 -2 -3
BITMAP
0c
0c
00
3c
18
18
18
18
10
b0
c0
ENDCHAR
STARTCHAR k
ENCODING 107
SWIDTH 627 0
DWIDTH 7 0
BBX 7 8 0 0
BITMAP
70
30
60
66
7c
78
4c
ce
ENDCHAR
STARTCHAR l
ENCODING 108
SWIDTH 352 0
DWIDTH 4 0
BBX 3 8 1 0
BITMAP
e0
60
60
40
c0
c0
c0
e0
ENDCHAR
STARTCHAR m
ENCODING 109
SWIDTH 988 0
DWIDTH 11 0
BBX 11 5 0 0
BITMAP
fdc0
6ec0
4cc0
cd80
cce0
ENDCHAR
STARTCHAR n
ENCODING 110
SWIDTH 669 0
DWIDTH 7 0
BBX 7 5 0 0
BITMAP
fc
6c
4c
c8
ce
ENDCHAR
STARTCHAR o
ENCODING 111
SWIDTH 620 0
DWIDTH 7 0
BBX 6 5 0 0
BITMAP
38
4c
cc
c8
70
ENDCHAR
STARTCHAR p
ENCODING 112
SWIDTH 637 0
DWIDTH 7 0
BBX 7 8 -1 -3
BITMAP
7e
26
26
6c
78
60
60
f0
ENDCHAR
STARTCHAR q
ENCODING 113
SWIDTH 637 0
DWIDTH 7 0
BBX 6 8 0 -3
BITMAP
3c
6c
cc
c8
78
18
18
3c
ENDCHAR
STARTCHAR r
ENCODING 114
SWIDTH 519 0
DWIDTH 6 0
BBX 6 5 0 0
BITMAP
fc
6c
60
c0
c0
ENDCHAR
STARTCHAR s
ENCODING 115
SWIDTH 488 0
DWIDTH 5 0
BBX 5 5 0 0
BITMAP
38
48
70
d8
70
ENDCHAR
STARTCHAR t
ENCODING 116
SWIDTH 414 0
DWIDTH 5 0
BBX 4 7 1 0
BITMAP
20
60
f0
c0
c0
c0
e0
ENDCHAR
STARTCHAR u
ENCODING 117
SWIDTH 669 0
DWIDTH 7 0
BBX 7 5 0 0
BITMAP
cc
cc
cc
c8
fe
ENDCHAR
STARTCHAR v
ENCODING 118
SWIDTH 551 0
DWIDTH 6 0
BBX 6 5 0 0
BITMAP
ec
6c
68
70
60
ENDCHAR
STARTCHAR w
ENCODING 119
SWIDTH 856 0
DWIDTH 10 0
BBX 10 5 0 0
BITMAP
e6c0
6ec0
6e80
7700
6600
ENDCHAR
STARTCHAR x
ENCODING 120
SWIDTH 565 0
DWIDTH 7 0
BBX 7 5 0 0
BITMAP
76
3a
18
b8
ce
ENDCHAR
STARTCHAR y
ENCODING 121
SWIDTH 535 0
DWIDTH 6 0
BBX 7 8 -1 -3
BITMAP
e6
24
38
38
30
10
a0
c0
ENDCHAR
STARTCHAR z
ENCODING 122
SWIDTH 509 0
DWIDTH 6 0
BBX 6 5 0 0
BITMAP
7c
f8
78
54
f8
ENDCHAR
STARTCHAR braceleft
ENCODING 123
SWIDTH 500 0
DWIDTH 6 0
BBX 5 9 0 -2
BITMAP
18
30
30
30
c0
30
30
30
18
ENDCHAR
STARTCHAR bar
ENCODING 124
SWIDTH 500 0
DWIDTH 6 0
BBX 1 11 3 -3
BITMAP
80
80
80
80
80
80
80
80
80
80
80
ENDCHAR
STARTCHAR braceright
ENCODING 125
SWIDTH 500 0
DWIDTH 6 0
BBX 5 9 1 -2
BITMAP
c0
60
60
60
18
60
60
60
c0
ENDCHAR
STARTCHAR c0126
ENCODING 126
SWIDTH 1000 0
DWIDTH 11 0
BBX 7 2 2 5
BITMAP
72
9c
ENDCHAR
STARTCHAR space
ENCODING 160
SWIDTH 319 0
DWIDTH 4 0
BBX 1 1 0 0
BITMAP
00
ENDCHAR
STARTCHAR exclamdown
ENCODING 161
SWIDTH 343 0
DWIDTH 4 0
BBX 3 8 0 0
BITMAP
60
60
00
40
40
40
c0
c0
ENDCHAR
STARTCHAR cent
ENCODING 162
SWIDTH 639 0
DWIDTH 7 0
BBX 6 7 1 -1
BITMAP
08
3c
74
d0
d8
38
10
ENDCHAR
STARTCHAR sterling
ENCODING 163
SWIDTH 639 0
DWIDTH 7 0
BBX 7 8 0 0
BITMAP
1c
36
36
30
7c
20
60
fc
ENDCHAR
STARTCHAR currency
ENCODING 164
SWIDTH 606 0
DWIDTH 7 0
BBX 7 7 0 0
BITMAP
82
7c
44
44
44
7c
82
ENDCHAR
STARTCHAR yen
ENCODING 165
SWIDTH 671 0
DWIDTH 8 0
BBX 8 8 0 0
BITMAP
7700
6200
3400
7600
3800
fe00
1000
7800
ENDCHAR
STARTCHAR brokenbar
ENCODING 166
SWIDTH 500 0
DWIDTH 6 0
BBX 1 9 3 -2
BITMAP
80
80
80
80
00
80
80
80
80
ENDCHAR
STARTCHAR section
ENCODING 167
SWIDTH 500 0
DWIDTH 5 0
BBX 6 10 -1 -2
BITMAP
1c
34
30
3c
44
44
38
18
98
f0
ENDCHAR
STARTCHAR dieresis
ENCODING 168
SWIDTH 500 0
DWIDTH 6 0
BBX 5 2 1 6
BITMAP
d8
d8
ENDCHAR
STARTCHAR copyright
ENCODING 169
SWIDTH 900 0
DWIDTH 10 0
BBX 9 9 1 -1
BITMAP
1c00
2200
5d00
a480
a080
a480
5d00
2200
1c00
ENDCHAR
STARTCHAR ordfeminine
ENCODING 170
SWIDTH 488 0
DWIDTH 5 0
BBX 5 4 0 4
BITMAP
78
98
90
f8
ENDCHAR
STARTCHAR guillemotleft
ENCODING 171
SWIDTH 458 0
DWIDTH 5 0
BBX 5 4 0 0
BITMAP
28
d0
f0
50
ENDCHAR
STARTCHAR logicalnot
ENCODING 172
SWIDTH 833 0
DWIDTH 9 0
BBX 6 3 2 2
BITMAP
fc
04
04
ENDCHAR
STARTCHAR hyphen
ENCODING 173
SWIDTH 333 0
DWIDTH 4 0
BBX 4 1 0 2
BITMAP
f0
ENDCHAR
STARTCHAR registered
ENCODING 174
SWIDTH 900 0
DWIDTH 10 0
BBX 9 9 1 -1
BITMAP
1c00
2200
7d00
9480
9880
9480
7700
2200
1c00
ENDCHAR
STARTCHAR macron
ENCODING 175
SWIDTH 500 0
DWIDTH 6 0
BBX 5 1 1 6
BITMAP
f8
ENDCHAR
STARTCHAR degree
ENCODING 176
SWIDTH 329 0
DWIDTH 4 0
BBX 3 3 1 4
BITMAP
40
a0
40
ENDCHAR
STARTCHAR plusminus
ENCODING 177
SWIDTH 833 0
DWIDTH 9 0
BBX 7 7 1 -1
BITMAP
10
10
fe
10
10
00
fe
ENDCHAR
STARTCHAR twosuperior
ENCODING 178
SWIDTH 422 0
DWIDTH 5 0
BBX 4 5 0 3
BITMAP
30
50
30
50
f0
ENDCHAR
STARTCHAR threesuperior
ENCODING 179
SWIDTH 422 0
DWIDTH 5 0
BBX 4 5 0 3
BITMAP
70
10
60
10
e0
ENDCHAR
STARTCHAR acute
ENCODING 180
SWIDTH 500 0
DWIDTH 6 0
BBX 3 2 3 6
BITMAP
60
80
ENDCHAR
STARTCHAR mu
ENCODING 181
SWIDTH 578 0
DWIDTH 6 0
BBX 7 8 -1 -3
BITMAP
6c
48
48
4a
bc
80
80
80
ENDCHAR
STARTCHAR paragraph
ENCODING 182
SWIDTH 500 0
DWIDTH 6 0
BBX 6 9 0 -1
BITMAP
7c
e8
e8
e8
68
08
08
08
08
ENDCHAR
STARTCHAR periodcentered
ENCODING 183
SWIDTH 322 0
DWIDTH 3 0
BBX 2 2 1 2
BITMAP
c0
c0
ENDCHAR
STARTCHAR cedilla
ENCODING 184
SWIDTH 500 0
DWIDTH 6 0
BBX 3 3 1 -3
BITMAP
60
20
e0
ENDCHAR
STARTCHAR onesuperior
ENCODING 185
SWIDTH 422 0
DWIDTH 5 0
BBX 3 5 1 3
BITMAP
60
60
40
40
e0
ENDCHAR
STARTCHAR ordmasculine
ENCODING 186
SWIDTH 465 0
DWIDTH 5 0
BBX 4 4 0 4
BITMAP
60
90
90
60
ENDCHAR
STARTCHAR guillemotright
ENCODING 187
SWIDTH 458 0
DWIDTH 5 0
BBX 5 4 0 0
BITMAP
50
78
58
a0
ENDCHAR
STARTCHAR onequarter
ENCODING 188
SWIDTH 972 0
DWIDTH 10 0
BBX 9 8 1 0
BITMAP
6200
6400
4800
4980
f300
1500
2780
4100
ENDCHAR
STARTCHAR onehalf
ENCODING 189
SWIDTH 972 0
DWIDTH 10 0
BBX 9 8 1 0
BITMAP
6200
6400
4800
4980
f280
1180
2280
4780
ENDCHAR
STARTCHAR threequarters
ENCODING 190
SWIDTH 972 0
DWIDTH 10 0
BBX 10 8 0 0
BITMAP
7100
1200
6400
14c0
e980
0a80
13c0
2080
ENDCHAR
STARTCHAR questiondown
ENCODING 191
SWIDTH 519 0
DWIDTH 6 0
BBX 5 8 0 0
BITMAP
18
18
00
10
60
c0
d8
70
ENDCHAR
STARTCHAR Agrave
ENCODING 192
SWIDTH 688 0
DWIDTH 7 0
BBX 8 10 -1 0
BITMAP
0c00
0600
0c00
0c00
1400
2600
3e00
4600
4600
e700
ENDCHAR
STARTCHAR Aacute
ENCODING 193
SWIDTH 688 0
DWIDTH 7 0
BBX 8 10 -1 0
BITMAP
0300
0400
0c00
0c00
1400
2600
3e00
4600
4600
e700
ENDCHAR
STARTCHAR Acircumflex
ENCODING 194
SWIDTH 688 0
DWIDTH 7 0
BBX 8 10 -1 0
BITMAP
0600
0d00
0c00
0c00
1400
2600
3e00
4600
4600
e700
ENDCHAR
STARTCHAR Atilde
ENCODING 195
SWIDTH 688 0
DWIDTH 7 0
BBX 8 10 -1 0
BITMAP
0d00
1600
0c00
0c00
1400
2600
3e00
4600
4600
e700
ENDCHAR
STARTCHAR Adieresis
ENCODING 196
SWIDTH 688 0
DWIDTH 7 0
BBX 8 10 -1 0
BITMAP
1b00
1b00
0c00
0c00
1400
2600
3e00
4600
4600
e700
ENDCHAR
STARTCHAR Aring
ENCODING 197
SWIDTH 688 0
DWIDTH 7 0
BBX 8 10 -1 0
BITMAP
0e00
0000
0c00
0c00
1400
2600
3e00
4600
4600
e700
ENDCHAR
STARTCHAR AE
ENCODING 198
SWIDTH 951 0
DWIDTH 11 0
BBX 12 8 -1 0
BITMAP
07f0
0510
0b40
0bc0
1f40
2300
4220
e7e0
ENDCHAR
STARTCHAR Ccedilla
ENCODING 199
SWIDTH 671 0
DWIDTH 7 0
BBX 7 11 0 -3
BITMAP
1e
62
62
c0
c0
c4
64
3c
18
08
38
ENDCHAR
STARTCHAR Egrave
ENCODING 200
SWIDTH 639 0
DWIDTH 7 0
BBX 7 10 0 0
BITMAP
18
0c
7e
32
24
38
68
64
64
fc
ENDCHAR
STARTCHAR Eacute
ENCODING 201
SWIDTH 639 0
DWIDTH 7 0
BBX 7 10 0 0
BITMAP
06
08
7e
32
24
38
68
64
64
fc
ENDCHAR
STARTCHAR Ecircumflex
ENCODING 202
SWIDTH 639 0
DWIDTH 7 0
BBX 7 10 0 0
BITMAP
0c
1a
7e
32
24
38
68
64
64
fc
ENDCHAR
STARTCHAR Edieresis
ENCODING 203
SWIDTH 639 0
DWIDTH 7 0
BBX 7 10 0 0
BITMAP
36
36
7e
32
24
38
68
64
64
fc
ENDCHAR
STARTCHAR Igrave
ENCODING 204
SWIDTH 407 0
DWIDTH 5 0
BBX 5 10 0 0
BITMAP
30
18
78
30
30
30
60
60
60
f0
ENDCHAR
STARTCHAR Iacute
ENCODING 205
SWIDTH 407 0
DWIDTH 5 0
BBX 6 10 0 0
BITMAP
0c
10
78
30
30
30
60
60
60
f0
ENDCHAR
STARTCHAR Icircumflex
ENCODING 206
SWIDTH 407 0
DWIDTH 5 0
BBX 6 10 0 0
BITMAP
18
34
78
30
30
30
60
60
60
f0
ENDCHAR
STARTCHAR Idieresis
ENCODING 207
SWIDTH 407 0
DWIDTH 5 0
BBX 6 10 0 0
BITMAP
6c
6c
78
30
30
30
60
60
60
f0
ENDCHAR
STARTCHAR Eth
ENCODING 208
SWIDTH 762 0
DWIDTH 9 0
BBX 9 8 0 0
BITMAP
7e00
3380
3180
7980
3180
6300
6700
fc00
ENDCHAR
STARTCHAR Ntilde
ENCODING 209
SWIDTH 771 0
DWIDTH 8 0
BBX 9 10 0 0
BITMAP
0d00
1600
7380
3900
3900
3900
4e00
4e00
4600
e600
ENDCHAR
STARTCHAR Ograve
ENCODING 210
SWIDTH 780 0
DWIDTH 9 0
BBX 8 10 0 0
BITMAP
1800
0c00
1e00
6200
6300
c300
c300
c600
4600
3800
ENDCHAR
STARTCHAR Oacute
ENCODING 211
SWIDTH 780 0
DWIDTH 9 0
BBX 8 10 0 0
BITMAP
0600
0800
1e00
6200
6300
c300
c300
c600
4600
3800
ENDCHAR
STARTCHAR Ocircumflex
ENCODING 212
SWIDTH 780 0
DWIDTH 9 0
BBX 8 10 0 0
BITMAP
0c00
1a00
1e00
6200
6300
c300
c300
c600
4600
3800
ENDCHAR
STARTCHAR Otilde
ENCODING 213
SWIDTH 780 0
DWIDTH 9 0
BBX 8 10 0 0
BITMAP
1a00
2c00
1e00
6200
6300
c300
c300
c600
4600
3800
ENDCHAR
STARTCHAR Odieresis
ENCODING 214
SWIDTH 780 0
DWIDTH 9 0
BBX 8 10 0 0
BITMAP
3600
3600
1e00
6200
6300
c300
c300
c600
4600
3800
ENDCHAR
STARTCHAR multiply
ENCODING 215
SWIDTH 833 0
DWIDTH 9 0
BBX 6 6 2 0
BITMAP
84
48
30
30
48
84
ENDCHAR
STARTCHAR Oslash
ENCODING 216
SWIDTH 780 0
DWIDTH 9 0
BBX 8 9 0 -1
BITMAP
1f00
6600
6700
cb00
d300
e600
4600
7800
8000
ENDCHAR
STARTCHAR Ugrave
ENCODING 217
SWIDTH 766 0
DWIDTH 9 0
BBX 8 10 1 0
BITMAP
1800
0c00
f700
6200
6200
c200
c400
c400
c400
7800
ENDCHAR
STARTCHAR Uacute
ENCODING 218
SWIDTH 766 0
DWIDTH 9 0
BBX 8 10 1 0
BITMAP
0600
0800
f700
6200
6200
c200
c400
c400
c400
7800
ENDCHAR
STARTCHAR Ucircumflex
ENCODING 219
SWIDTH 766 0
DWIDTH 9 0
BBX 8 10 1 0
BITMAP
0c00
1a00
f700
6200
6200
c200
c400
c400
c400
7800
ENDCHAR
STARTCHAR Udieresis
ENCODING 220
SWIDTH 766 0
DWIDTH 9 0
BBX 8 10 1 0
BITMAP
3600
3600
f700
6200
6200
c200
c400
c400
c400
7800
ENDCHAR
STARTCHAR Yacute
ENCODING 221
SWIDTH 634 0
DWIDTH 7 0
BBX 8 10 0 0
BITMAP
0600
0800
f700
6200
6400
3800
3000
3000
3000
7800
ENDCHAR
STARTCHAR Thorn
ENCODING 222
SWIDTH 644 0
DWIDTH 7 0
BBX 7 8 0 0
BITMAP
78
3c
26
26
66
6c
78
f0
ENDCHAR
STARTCHAR germandbls
ENCODING 223
SWIDTH 697 0
DWIDTH 8 0
BBX 9 11 -2 -3
BITMAP
0700
0980
1980
1a00
1b00
1180
1580
3700
3000
e000
c000
ENDCHAR
STARTCHAR agrave
ENCODING 224
SWIDTH 650 0
DWIDTH 7 0
BBX 7 8 0 0
BITMAP
18
0c
00
3c
6c
c8
c8
7e
ENDCHAR
STARTCHAR aacute
ENCODING 225
SWIDTH 650 0
DWIDTH 7 0
BBX 7 8 0 0
BITMAP
06
08
00
3c
6c
c8
c8
7e
ENDCHAR
STARTCHAR acircumflex
ENCODING 226
SWIDTH 650 0
DWIDTH 7 0
BBX 7 8 0 0
BITMAP
0c
1a
00
3c
6c
c8
c8
7e
ENDCHAR
STARTCHAR atilde
ENCODING 227
SWIDTH 650 0
DWIDTH 7 0
BBX 7 8 0 0
BITMAP
1a
2c
00
3c
6c
c8
c8
7e
ENDCHAR
STARTCHAR adieresis
ENCODING 228
SWIDTH 650 0
DWIDTH 7 0
BBX 7 8 0 0
BITMAP
36
36
00
3c
6c
c8
c8
7e
ENDCHAR
STARTCHAR aring
ENCODING 229
SWIDTH 650 0
DWIDTH 7 0
BBX 7 8 0 0
BITMAP
10
28
10
3c
6c
c8
c8
7e
ENDCHAR
STARTCHAR ae
ENCODING 230
SWIDTH 796 0
DWIDTH 9 0
BBX 9 5 0 0
BITMAP
3b00
6d80
3f00
d880
ff00
ENDCHAR
STARTCHAR ccedilla
ENCODING 231
SWIDTH 498 0
DWIDTH 6 0
BBX 5 8 0 -3
BITMAP
38
58
c0
c8
70
30
10
70
ENDCHAR
STARTCHAR egrave
ENCODING 232
SWIDTH 523 0
DWIDTH 6 0
BBX 6 8 0 0
BITMAP
30
18
00
38
4c
f0
c4
78
ENDCHAR
STARTCHAR eacute
ENCODING 233
SWIDTH 523 0
DWIDTH 6 0
BBX 6 8 0 0
BITMAP
0c
10
00
38
4c
f0
c4
78
ENDCHAR
STARTCHAR ecircumflex
ENCODING 234
SWIDTH 523 0
DWIDTH 6 0
BBX 6 8 0 0
BITMAP
18
34
00
38
4c
f0
c4
78
ENDCHAR
STARTCHAR edieresis
ENCODING 235
SWIDTH 523 0
DWIDTH 6 0
BBX 6 8 0 0
BITMAP
6c
6c
00
38
4c
f0
c4
78
ENDCHAR
STARTCHAR igrave
ENCODING 236
SWIDTH 361 0
DWIDTH 4 0
BBX 4 8 0 0
BITMAP
60
30
00
e0
60
c0
c0
f0
ENDCHAR
STARTCHAR iacute
ENCODING 237
SWIDTH 361 0
DWIDTH 4 0
BBX 5 8 0 0
BITMAP
18
20
00
e0
60
c0
c0
f0
ENDCHAR
STARTCHAR icircumflex
ENCODING 238
SWIDTH 361 0
DWIDTH 4 0
BBX 5 8 0 0
BITMAP
30
68
00
e0
60
c0
c0
f0
ENDCHAR
STARTCHAR idieresis
ENCODING 239
SWIDTH 361 0
DWIDTH 4 0
BBX 5 8 0 0
BITMAP
d8
d8
00
e0
60
c0
c0
f0
ENDCHAR
STARTCHAR eth
ENCODING 240
SWIDTH 645 0
DWIDTH 7 0
BBX 6 8 0 0
BITMAP
34
18
28
3c
4c
cc
c8
70
ENDCHAR
STARTCHAR ntilde
ENCODING 241
SWIDTH 669 0
DWIDTH 7 0
BBX 7 8 0 0
BITMAP
1a
2c
00
fc
6c
4c
c8
ce
ENDCHAR
STARTCHAR ograve
ENCODING 242
SWIDTH 620 0
DWIDTH 7 0
BBX 6 8 0 0
BITMAP
30
18
00
38
4c
cc
c8
70
ENDCHAR
STARTCHAR oacute
ENCODING 243
SWIDTH 620 0
DWIDTH 7 0
BBX 6 8 0 0
BITMAP
0c
10
00
38
4c
cc
c8
70
ENDCHAR
STARTCHAR ocircumflex
ENCODING 244
SWIDTH 620 0
DWIDTH 7 0
BBX 6 8 0 0
BITMAP
18
34
00
38
4c
cc
c8
70
ENDCHAR
STARTCHAR otilde
ENCODING 245
SWIDTH 620 0
DWIDTH 7 0
BBX 6 8 0 0
BITMAP
34
58
00
38
4c
cc
c8
70
ENDCHAR
STARTCHAR odieresis
ENCODING 246
SWIDTH 620 0
DWIDTH 7 0
BBX 6 8 0 0
BITMAP
6c
6c
00
38
4c
cc
c8
70
ENDCHAR
STARTCHAR divide
ENCODING 247
SWIDTH 833 0
DWIDTH 9 0
BBX 7 5 1 0
BITMAP
10
00
fe
00
10
ENDCHAR
STARTCHAR oslash
ENCODING 248
SWIDTH 620 0
DWIDTH 7 0
BBX 6 7 0 -1
BITMAP
08
38
4c
dc
e8
70
40
ENDCHAR
STARTCHAR ugrave
ENCODING 249
SWIDTH 669 0
DWIDTH 7 0
BBX 7 8 0 0
BITMAP
30
18
00
cc
cc
cc
c8
fe
ENDCHAR
STARTCHAR uacute
ENCODING 250
SWIDTH 669 0
DWIDTH 7 0
BBX 7 8 0 0
BITMAP
0c
10
00
cc
cc
cc
c8
fe
ENDCHAR
STARTCHAR ucircumflex
ENCODING 251
SWIDTH 669 0
DWIDTH 7 0
BBX 7 8 0 0
BITMAP
18
34
00
cc
cc
cc
c8
fe
ENDCHAR
STARTCHAR udieresis
ENCODING 252
SWIDTH 669 0
DWIDTH 7 0
BBX 7 8 0 0
BITMAP
6c
6c
00
cc
cc
cc
c8
fe
ENDCHAR
STARTCHAR yacute
ENCODING 253
SWIDTH 535 0
DWIDTH 6 0
BBX 7 11 -1 -3
BITMAP
06
08
00
e6
24
38
38
30
10
a0
c0
ENDCHAR
STARTCHAR thorn
ENCODING 254
SWIDTH 637 0
DWIDTH 7 0
BBX 7 11 -1 -3
BITMAP
70
30
30
3e
26
26
6c
78
60
60
f0
ENDCHAR
STARTCHAR ydieresis
ENCODING 255
SWIDTH 535 0
DWIDTH 6 0
BBX 7 11 -1 -3
BITMAP
36
36
00
e6
24
38
38
30
10
a0
c0
ENDCHAR
ENDFONT
