STARTFONT 2.1
COMMENT $Xorg: charR08.bdf,v 1.3 2000/08/17 19:42:54 cpqbld Exp $
COMMENT  
COMMENT  Copyright 1988 Bitstream, Inc., Cambridge, Massachusetts, USA
COMMENT  Bitstream and Charter are registered trademarks of Bitstream, Inc.
COMMENT  
COMMENT  The names "Bitstream" and "Charter" are registered trademarks of
COMMENT  Bitstream, Inc.  Permission to use these trademarks is hereby
COMMENT  granted only in association with the images described in this file.
COMMENT  
COMMENT  Permission to use, copy, modify, and distribute this software and
COMMENT  its documentation for any purpose and without fee is hereby
COMMENT  granted, provided that the above copyright notice appear in all
COMMENT  copies and that both that copyright notice and this permission
COMMENT  notice appear in supporting documentation, and that the name of
COMMENT  Bitstream not be used in advertising or publicity pertaining to
COMMENT  distribution of the software without specific, written prior
COMMENT  permission.  Bitstream makes no representations about the
COMMENT  suitability of this software for any purpose.  It is provided "as
COMMENT  is" without express or implied warranty.
COMMENT  
COMMENT  BITSTREAM DISCLAIMS ALL WARRANTIES WITH REGARD TO THIS SOFTWARE,
COMMENT  INCLUDING ALL IMPLIED WARRANTIES OF MERCHANTABILITY AND FITNESS, IN
COMMENT  NO EVENT SHALL BITSTREAM BE LIABLE FOR ANY SPECIAL, INDIRECT OR
COMMENT  CONSEQUENTIAL DAMAGES OR ANY DAMAGES WHATSOEVER RESULTING FROM LOSS
COMMENT  OF USE, DATA OR PROFITS, WHETHER IN AN ACTION OF CONTRACT,
COMMENT  NEGLIGENCE OR OTHER TORTIOUS ACTION, ARISING OUT OF OR IN
COMMENT  CONNECTION WITH THE USE OR PERFORMANCE OF THIS SOFTWARE.
COMMENT  
COMMENT  
COMMENT Fontware CVTBDF v1.0
FONT -Bitstream-Charter-Medium-R-Normal--11-80-100-100-P-61-ISO8859-1
SIZE 8 100 100
FONTBOUNDINGBOX 11 14 -1 -3
STARTPROPERTIES 22
COMMENT Begin LogicalFontDescription
FONTNAME_REGISTRY ""
FAMILY_NAME "Charter"
FOUNDRY "Bitstream"
WEIGHT_NAME "Medium"
SETWIDTH_NAME "Normal"
SLANT "R"
ADD_STYLE_NAME ""
PIXEL_SIZE 11
POINT_SIZE 80
RESOLUTION_X 100
RESOLUTION_Y 100
SPACING "P"
AVERAGE_WIDTH 61
CHARSET_REGISTRY "ISO8859"
CHARSET_ENCODING "1"
COMMENT END LogicalFontDescription
FONT_DESCENT 3
FONT_ASCENT 11
CAP_HEIGHT 8
X_HEIGHT 5
CHARSET_COLLECTIONS "ASCII ISOLATIN1"
FACE_NAME "Bitstream Charter Roman"
COPYRIGHT "Copyright 1987 by Bitstream Inc. Charter Registered trademark of Bitstream Inc."
COMMENT ****** end of font properties
ENDPROPERTIES
CHARS 191
STARTCHAR space
ENCODING 32
SWIDTH 278 0
DWIDTH 3 0
BBX 1 1 0 0
BITMAP
00
ENDCHAR
STARTCHAR exclam
ENCODING 33
SWIDTH 338 0
DWIDTH 4 0
BBX 1 8 2 0
BITMAP
80
80
80
80
80
80
00
80
ENDCHAR
STARTCHAR quotedbl
ENCODING 34
SWIDTH 331 0
DWIDTH 5 0
BBX 3 3 1 4
BITMAP
a0
a0
a0
ENDCHAR
STARTCHAR numbersign
ENCODING 35
SWIDTH 745 0
DWIDTH 8 0
BBX 7 8 0 -1
BITMAP
14
14
7e
28
fe
48
50
50
ENDCHAR
STARTCHAR dollar
ENCODING 36
SWIDTH 556 0
DWIDTH 6 0
BBX 5 9 1 -1
BITMAP
78
a8
a0
60
38
a8
a8
f0
20
ENDCHAR
STARTCHAR percent
ENCODING 37
SWIDTH 852 0
DWIDTH 9 0
BBX 8 8 1 0
BITMAP
4200
a400
a800
aa00
5500
1500
2500
4200
ENDCHAR
STARTCHAR ampersand
ENCODING 38
SWIDTH 704 0
DWIDTH 8 0
BBX 7 8 1 0
BITMAP
60
90
90
60
6e
94
98
66
ENDCHAR
STARTCHAR quoteright
ENCODING 39
SWIDTH 201 0
DWIDTH 2 0
BBX 1 3 1 4
BITMAP
80
80
80
ENDCHAR
STARTCHAR parenleft
ENCODING 40
SWIDTH 417 0
DWIDTH 5 0
BBX 3 10 2 -2
BITMAP
20
40
80
80
80
80
80
80
40
20
ENDCHAR
STARTCHAR parenright
ENCODING 41
SWIDTH 417 0
DWIDTH 5 0
BBX 3 10 0 -2
BITMAP
80
40
20
20
20
20
20
20
40
80
ENDCHAR
STARTCHAR asterisk
ENCODING 42
SWIDTH 500 0
DWIDTH 6 0
BBX 5 4 1 4
BITMAP
20
f8
20
50
ENDCHAR
STARTCHAR plus
ENCODING 43
SWIDTH 833 0
DWIDTH 9 0
BBX 7 7 1 0
BITMAP
10
10
10
fe
10
10
10
ENDCHAR
STARTCHAR comma
ENCODING 44
SWIDTH 278 0
DWIDTH 3 0
BBX 1 3 1 -2
BITMAP
80
80
80
ENDCHAR
STARTCHAR hyphen
ENCODING 45
SWIDTH 319 0
DWIDTH 4 0
BBX 3 1 1 2
BITMAP
e0
ENDCHAR
STARTCHAR period
ENCODING 46
SWIDTH 278 0
DWIDTH 3 0
BBX 1 1 1 0
BITMAP
80
ENDCHAR
STARTCHAR slash
ENCODING 47
SWIDTH 481 0
DWIDTH 6 0
BBX 6 9 0 -1
BITMAP
04
08
08
10
10
20
40
40
80
ENDCHAR
STARTCHAR zero
ENCODING 48
SWIDTH 556 0
DWIDTH 6 0
BBX 5 8 1 0
BITMAP
20
50
88
88
88
88
50
20
ENDCHAR
STARTCHAR one
ENCODING 49
SWIDTH 556 0
DWIDTH 6 0
BBX 3 8 2 0
BITMAP
40
c0
40
40
40
40
40
e0
ENDCHAR
STARTCHAR two
ENCODING 50
SWIDTH 556 0
DWIDTH 6 0
BBX 5 8 1 0
BITMAP
70
98
88
08
10
20
48
f8
ENDCHAR
STARTCHAR three
ENCODING 51
SWIDTH 556 0
DWIDTH 6 0
BBX 5 8 1 0
BITMAP
70
88
10
30
08
08
88
70
ENDCHAR
STARTCHAR four
ENCODING 52
SWIDTH 556 0
DWIDTH 6 0
BBX 6 8 0 0
BITMAP
08
18
28
48
88
fc
08
08
ENDCHAR
STARTCHAR five
ENCODING 53
SWIDTH 556 0
DWIDTH 6 0
BBX 6 8 0 0
BITMAP
7c
40
40
78
04
04
48
70
ENDCHAR
STARTCHAR six
ENCODING 54
SWIDTH 556 0
DWIDTH 6 0
BBX 5 8 1 0
BITMAP
10
60
80
f0
88
88
88
70
ENDCHAR
STARTCHAR seven
ENCODING 55
SWIDTH 556 0
DWIDTH 6 0
BBX 5 8 1 0
BITMAP
f8
88
10
10
20
20
40
40
ENDCHAR
STARTCHAR eight
ENCODING 56
SWIDTH 556 0
DWIDTH 6 0
BBX 5 8 1 0
BITMAP
30
50
88
70
d8
88
88
70
ENDCHAR
STARTCHAR nine
ENCODING 57
SWIDTH 556 0
DWIDTH 6 0
BBX 5 8 1 0
BITMAP
70
88
88
88
78
10
20
40
ENDCHAR
STARTCHAR colon
ENCODING 58
SWIDTH 319 0
DWIDTH 4 0
BBX 1 5 2 0
BITMAP
80
00
00
00
80
ENDCHAR
STARTCHAR semicolon
ENCODING 59
SWIDTH 319 0
DWIDTH 4 0
BBX 2 7 1 -2
BITMAP
40
00
00
00
40
40
c0
ENDCHAR
STARTCHAR less
ENCODING 60
SWIDTH 833 0
DWIDTH 9 0
BBX 6 6 1 0
BITMAP
04
38
c0
c0
38
04
ENDCHAR
STARTCHAR equal
ENCODING 61
SWIDTH 833 0
DWIDTH 9 0
BBX 6 3 2 1
BITMAP
fc
00
fc
ENDCHAR
STARTCHAR greater
ENCODING 62
SWIDTH 833 0
DWIDTH 9 0
BBX 6 6 2 0
BITMAP
80
70
0c
0c
70
80
ENDCHAR
STARTCHAR question
ENCODING 63
SWIDTH 486 0
DWIDTH 5 0
BBX 4 8 0 0
BITMAP
60
90
10
30
40
40
00
40
ENDCHAR
STARTCHAR at
ENCODING 64
SWIDTH 942 0
DWIDTH 10 0
BBX 9 9 1 -2
BITMAP
1e00
6100
4e80
9480
a480
a500
9e00
4300
3c00
ENDCHAR
STARTCHAR A
ENCODING 65
SWIDTH 639 0
DWIDTH 7 0
BBX 7 8 0 0
BITMAP
10
38
28
28
7c
44
44
c6
ENDCHAR
STARTCHAR B
ENCODING 66
SWIDTH 604 0
DWIDTH 7 0
BBX 6 8 1 0
BITMAP
f8
4c
48
78
44
44
44
f8
ENDCHAR
STARTCHAR C
ENCODING 67
SWIDTH 632 0
DWIDTH 7 0
BBX 6 8 1 0
BITMAP
38
44
80
80
80
80
44
3c
ENDCHAR
STARTCHAR D
ENCODING 68
SWIDTH 694 0
DWIDTH 8 0
BBX 7 8 1 0
BITMAP
f8
44
42
42
42
42
44
f8
ENDCHAR
STARTCHAR E
ENCODING 69
SWIDTH 576 0
DWIDTH 6 0
BBX 5 8 1 0
BITMAP
f8
40
48
78
48
40
40
f8
ENDCHAR
STARTCHAR F
ENCODING 70
SWIDTH 537 0
DWIDTH 6 0
BBX 5 8 1 0
BITMAP
f8
48
50
70
50
40
40
c0
ENDCHAR
STARTCHAR G
ENCODING 71
SWIDTH 694 0
DWIDTH 8 0
BBX 7 8 1 0
BITMAP
3c
44
80
80
8e
84
44
3c
ENDCHAR
STARTCHAR H
ENCODING 72
SWIDTH 738 0
DWIDTH 8 0
BBX 7 8 1 0
BITMAP
ee
44
44
7c
44
44
44
ee
ENDCHAR
STARTCHAR I
ENCODING 73
SWIDTH 324 0
DWIDTH 4 0
BBX 3 8 1 0
BITMAP
e0
40
40
40
40
40
40
e0
ENDCHAR
STARTCHAR J
ENCODING 74
SWIDTH 444 0
DWIDTH 5 0
BBX 5 8 0 0
BITMAP
38
10
10
10
10
10
90
e0
ENDCHAR
STARTCHAR K
ENCODING 75
SWIDTH 611 0
DWIDTH 7 0
BBX 6 8 1 0
BITMAP
ec
48
50
50
70
48
48
e4
ENDCHAR
STARTCHAR L
ENCODING 76
SWIDTH 520 0
DWIDTH 6 0
BBX 5 8 1 0
BITMAP
e0
40
40
40
40
40
48
f8
ENDCHAR
STARTCHAR M
ENCODING 77
SWIDTH 866 0
DWIDTH 10 0
BBX 9 8 1 0
BITMAP
e180
6300
6300
5500
5500
5500
4900
eb80
ENDCHAR
STARTCHAR N
ENCODING 78
SWIDTH 713 0
DWIDTH 8 0
BBX 7 8 1 0
BITMAP
ce
64
64
54
54
4c
4c
e4
ENDCHAR
STARTCHAR O
ENCODING 79
SWIDTH 731 0
DWIDTH 8 0
BBX 7 8 1 0
BITMAP
38
44
82
82
82
82
44
38
ENDCHAR
STARTCHAR P
ENCODING 80
SWIDTH 558 0
DWIDTH 6 0
BBX 5 8 1 0
BITMAP
f0
48
48
48
70
40
40
e0
ENDCHAR
STARTCHAR Q
ENCODING 81
SWIDTH 731 0
DWIDTH 8 0
BBX 7 10 1 -2
BITMAP
38
44
82
82
82
82
44
38
10
1e
ENDCHAR
STARTCHAR R
ENCODING 82
SWIDTH 646 0
DWIDTH 7 0
BBX 6 8 1 0
BITMAP
f0
48
48
48
70
48
48
e4
ENDCHAR
STARTCHAR S
ENCODING 83
SWIDTH 556 0
DWIDTH 6 0
BBX 5 8 1 0
BITMAP
78
88
80
e0
18
88
88
f0
ENDCHAR
STARTCHAR T
ENCODING 84
SWIDTH 597 0
DWIDTH 7 0
BBX 7 8 0 0
BITMAP
fe
92
10
10
10
10
10
38
ENDCHAR
STARTCHAR U
ENCODING 85
SWIDTH 694 0
DWIDTH 8 0
BBX 7 8 1 0
BITMAP
ee
44
44
44
44
44
6c
30
ENDCHAR
STARTCHAR V
ENCODING 86
SWIDTH 618 0
DWIDTH 7 0
BBX 7 8 0 0
BITMAP
c6
44
44
64
28
28
38
10
ENDCHAR
STARTCHAR W
ENCODING 87
SWIDTH 928 0
DWIDTH 10 0
BBX 10 8 0 0
BITMAP
c4c0
4c40
4c80
4a80
5280
7280
3100
2100
ENDCHAR
STARTCHAR X
ENCODING 88
SWIDTH 600 0
DWIDTH 7 0
BBX 7 8 0 0
BITMAP
e6
44
28
10
38
28
44
ce
ENDCHAR
STARTCHAR Y
ENCODING 89
SWIDTH 586 0
DWIDTH 7 0
BBX 7 8 0 0
BITMAP
e6
44
24
28
10
10
10
38
ENDCHAR
STARTCHAR Z
ENCODING 90
SWIDTH 586 0
DWIDTH 6 0
BBX 5 8 0 0
BITMAP
f8
88
10
20
20
40
88
f8
ENDCHAR
STARTCHAR bracketleft
ENCODING 91
SWIDTH 421 0
DWIDTH 5 0
BBX 3 9 2 -2
BITMAP
e0
80
80
80
80
80
80
80
e0
ENDCHAR
STARTCHAR backslash
ENCODING 92
SWIDTH 481 0
DWIDTH 6 0
BBX 6 9 0 -1
BITMAP
80
40
40
20
10
10
08
08
04
ENDCHAR
STARTCHAR bracketright
ENCODING 93
SWIDTH 421 0
DWIDTH 5 0
BBX 3 9 0 -2
BITMAP
e0
20
20
20
20
20
20
20
e0
ENDCHAR
STARTCHAR asciicircum
ENCODING 94
SWIDTH 1000 0
DWIDTH 11 0
BBX 7 3 2 4
BITMAP
38
44
82
ENDCHAR
STARTCHAR underscore
ENCODING 95
SWIDTH 500 0
DWIDTH 6 0
BBX 6 1 0 -3
BITMAP
fc
ENDCHAR
STARTCHAR quoteleft
ENCODING 96
SWIDTH 201 0
DWIDTH 2 0
BBX 1 3 1 4
BITMAP
80
80
80
ENDCHAR
STARTCHAR a
ENCODING 97
SWIDTH 507 0
DWIDTH 6 0
BBX 5 5 1 0
BITMAP
60
30
d0
90
78
ENDCHAR
STARTCHAR b
ENCODING 98
SWIDTH 539 0
DWIDTH 6 0
BBX 5 8 1 0
BITMAP
80
80
80
f0
88
88
98
e0
ENDCHAR
STARTCHAR c
ENCODING 99
SWIDTH 446 0
DWIDTH 5 0
BBX 4 5 1 0
BITMAP
60
90
80
80
70
ENDCHAR
STARTCHAR d
ENCODING 100
SWIDTH 565 0
DWIDTH 7 0
BBX 5 8 1 0
BITMAP
18
08
08
38
48
88
c8
78
ENDCHAR
STARTCHAR e
ENCODING 101
SWIDTH 491 0
DWIDTH 5 0
BBX 4 5 1 0
BITMAP
60
90
f0
80
70
ENDCHAR
STARTCHAR f
ENCODING 102
SWIDTH 321 0
DWIDTH 3 0
BBX 3 8 1 0
BITMAP
60
a0
80
c0
80
80
80
c0
ENDCHAR
STARTCHAR g
ENCODING 103
SWIDTH 523 0
DWIDTH 6 0
BBX 5 8 1 -3
BITMAP
60
98
90
60
40
70
98
60
ENDCHAR
STARTCHAR h
ENCODING 104
SWIDTH 564 0
DWIDTH 7 0
BBX 5 8 1 0
BITMAP
80
80
80
f0
88
88
88
d8
ENDCHAR
STARTCHAR i
ENCODING 105
SWIDTH 280 0
DWIDTH 3 0
BBX 1 8 1 0
BITMAP
80
80
00
80
80
80
80
80
ENDCHAR
STARTCHAR j
ENCODING 106
SWIDTH 266 0
DWIDTH 3 0
BBX 3 11 -1 -3
BITMAP
20
20
00
20
20
20
20
20
20
a0
c0
ENDCHAR
STARTCHAR k
ENCODING 107
SWIDTH 518 0
DWIDTH 6 0
BBX 5 8 1 0
BITMAP
80
80
80
98
90
e0
90
c8
ENDCHAR
STARTCHAR l
ENCODING 108
SWIDTH 282 0
DWIDTH 3 0
BBX 1 8 1 0
BITMAP
80
80
80
80
80
80
80
80
ENDCHAR
STARTCHAR m
ENCODING 109
SWIDTH 843 0
DWIDTH 9 0
BBX 7 5 1 0
BITMAP
fe
92
92
92
da
ENDCHAR
STARTCHAR n
ENCODING 110
SWIDTH 569 0
DWIDTH 6 0
BBX 5 5 1 0
BITMAP
f8
88
88
88
d8
ENDCHAR
STARTCHAR o
ENCODING 111
SWIDTH 539 0
DWIDTH 6 0
BBX 5 5 1 0
BITMAP
70
88
88
88
70
ENDCHAR
STARTCHAR p
ENCODING 112
SWIDTH 551 0
DWIDTH 6 0
BBX 5 8 1 -3
BITMAP
f0
88
88
98
e0
80
80
c0
ENDCHAR
STARTCHAR q
ENCODING 113
SWIDTH 531 0
DWIDTH 6 0
BBX 5 8 1 -3
BITMAP
38
c8
88
88
78
08
08
18
ENDCHAR
STARTCHAR r
ENCODING 114
SWIDTH 382 0
DWIDTH 4 0
BBX 3 5 1 0
BITMAP
e0
80
80
80
c0
ENDCHAR
STARTCHAR s
ENCODING 115
SWIDTH 400 0
DWIDTH 4 0
BBX 3 5 1 0
BITMAP
60
a0
40
a0
c0
ENDCHAR
STARTCHAR t
ENCODING 116
SWIDTH 335 0
DWIDTH 4 0
BBX 3 6 1 0
BITMAP
80
e0
80
80
80
e0
ENDCHAR
STARTCHAR u
ENCODING 117
SWIDTH 569 0
DWIDTH 7 0
BBX 5 5 1 0
BITMAP
98
88
88
88
78
ENDCHAR
STARTCHAR v
ENCODING 118
SWIDTH 494 0
DWIDTH 6 0
BBX 6 5 0 0
BITMAP
cc
48
48
70
20
ENDCHAR
STARTCHAR w
ENCODING 119
SWIDTH 771 0
DWIDTH 9 0
BBX 9 5 0 0
BITMAP
c980
4c80
5500
7500
2200
ENDCHAR
STARTCHAR x
ENCODING 120
SWIDTH 504 0
DWIDTH 6 0
BBX 6 5 0 0
BITMAP
ec
48
30
48
dc
ENDCHAR
STARTCHAR y
ENCODING 121
SWIDTH 495 0
DWIDTH 6 0
BBX 6 8 0 -3
BITMAP
ec
48
48
30
30
20
20
c0
ENDCHAR
STARTCHAR z
ENCODING 122
SWIDTH 468 0
DWIDTH 5 0
BBX 4 5 1 0
BITMAP
f0
a0
40
90
f0
ENDCHAR
STARTCHAR braceleft
ENCODING 123
SWIDTH 486 0
DWIDTH 5 0
BBX 4 9 0 -2
BITMAP
10
20
20
20
c0
20
20
20
10
ENDCHAR
STARTCHAR bar
ENCODING 124
SWIDTH 500 0
DWIDTH 6 0
BBX 1 11 3 -3
BITMAP
80
80
80
80
80
80
80
80
80
80
80
ENDCHAR
STARTCHAR braceright
ENCODING 125
SWIDTH 486 0
DWIDTH 5 0
BBX 4 9 0 -2
BITMAP
80
40
40
40
30
40
40
40
80
ENDCHAR
STARTCHAR c0126
ENCODING 126
SWIDTH 1000 0
DWIDTH 11 0
BBX 7 2 2 5
BITMAP
72
9c
ENDCHAR
STARTCHAR space
ENCODING 160
SWIDTH 278 0
DWIDTH 3 0
BBX 1 1 0 0
BITMAP
00
ENDCHAR
STARTCHAR exclamdown
ENCODING 161
SWIDTH 338 0
DWIDTH 4 0
BBX 1 8 2 0
BITMAP
80
00
80
80
80
80
80
80
ENDCHAR
STARTCHAR cent
ENCODING 162
SWIDTH 556 0
DWIDTH 6 0
BBX 5 7 1 -1
BITMAP
20
38
68
a0
68
38
20
ENDCHAR
STARTCHAR sterling
ENCODING 163
SWIDTH 556 0
DWIDTH 6 0
BBX 5 8 1 0
BITMAP
30
48
40
40
f0
40
40
f8
ENDCHAR
STARTCHAR currency
ENCODING 164
SWIDTH 606 0
DWIDTH 7 0
BBX 7 7 0 0
BITMAP
82
54
28
44
2c
54
82
ENDCHAR
STARTCHAR yen
ENCODING 165
SWIDTH 556 0
DWIDTH 6 0
BBX 6 8 0 0
BITMAP
cc
48
48
dc
20
fc
20
70
ENDCHAR
STARTCHAR brokenbar
ENCODING 166
SWIDTH 500 0
DWIDTH 6 0
BBX 1 9 3 -2
BITMAP
80
80
80
80
00
80
80
80
80
ENDCHAR
STARTCHAR section
ENCODING 167
SWIDTH 500 0
DWIDTH 6 0
BBX 5 10 1 -2
BITMAP
70
88
c0
70
88
88
70
18
88
70
ENDCHAR
STARTCHAR dieresis
ENCODING 168
SWIDTH 500 0
DWIDTH 6 0
BBX 3 1 1 6
BITMAP
a0
ENDCHAR
STARTCHAR copyright
ENCODING 169
SWIDTH 900 0
DWIDTH 10 0
BBX 9 8 1 0
BITMAP
1c00
2200
5d00
a480
a480
5d00
2200
1c00
ENDCHAR
STARTCHAR ordfeminine
ENCODING 170
SWIDTH 380 0
DWIDTH 4 0
BBX 3 4 1 4
BITMAP
40
60
a0
60
ENDCHAR
STARTCHAR guillemotleft
ENCODING 171
SWIDTH 442 0
DWIDTH 5 0
BBX 4 4 0 0
BITMAP
50
a0
a0
50
ENDCHAR
STARTCHAR logicalnot
ENCODING 172
SWIDTH 833 0
DWIDTH 9 0
BBX 6 3 2 2
BITMAP
fc
04
04
ENDCHAR
STARTCHAR hyphen
ENCODING 173
SWIDTH 319 0
DWIDTH 4 0
BBX 3 1 1 2
BITMAP
e0
ENDCHAR
STARTCHAR registered
ENCODING 174
SWIDTH 900 0
DWIDTH 10 0
BBX 9 8 1 0
BITMAP
1c00
2200
7900
9480
9880
7700
2200
1c00
ENDCHAR
STARTCHAR macron
ENCODING 175
SWIDTH 500 0
DWIDTH 6 0
BBX 4 1 1 6
BITMAP
f0
ENDCHAR
STARTCHAR degree
ENCODING 176
SWIDTH 329 0
DWIDTH 4 0
BBX 3 3 1 4
BITMAP
40
a0
40
ENDCHAR
STARTCHAR plusminus
ENCODING 177
SWIDTH 833 0
DWIDTH 9 0
BBX 7 7 1 -1
BITMAP
10
10
fe
10
10
00
fe
ENDCHAR
STARTCHAR twosuperior
ENCODING 178
SWIDTH 367 0
DWIDTH 4 0
BBX 4 5 0 3
BITMAP
60
90
30
40
f0
ENDCHAR
STARTCHAR threesuperior
ENCODING 179
SWIDTH 367 0
DWIDTH 4 0
BBX 4 5 0 3
BITMAP
e0
30
60
10
e0
ENDCHAR
STARTCHAR acute
ENCODING 180
SWIDTH 500 0
DWIDTH 6 0
BBX 2 2 3 6
BITMAP
40
80
ENDCHAR
STARTCHAR mu
ENCODING 181
SWIDTH 548 0
DWIDTH 6 0
BBX 6 8 0 -3
BITMAP
48
48
48
54
a8
80
80
80
ENDCHAR
STARTCHAR paragraph
ENCODING 182
SWIDTH 484 0
DWIDTH 5 0
BBX 5 9 0 -1
BITMAP
78
d0
d0
d0
50
10
10
10
10
ENDCHAR
STARTCHAR periodcentered
ENCODING 183
SWIDTH 278 0
DWIDTH 3 0
BBX 1 1 1 3
BITMAP
80
ENDCHAR
STARTCHAR cedilla
ENCODING 184
SWIDTH 500 0
DWIDTH 6 0
BBX 3 3 2 -3
BITMAP
60
20
c0
ENDCHAR
STARTCHAR onesuperior
ENCODING 185
SWIDTH 367 0
DWIDTH 4 0
BBX 1 5 2 3
BITMAP
80
80
80
80
80
ENDCHAR
STARTCHAR ordmasculine
ENCODING 186
SWIDTH 405 0
DWIDTH 4 0
BBX 3 4 1 4
BITMAP
40
a0
a0
40
ENDCHAR
STARTCHAR guillemotright
ENCODING 187
SWIDTH 442 0
DWIDTH 5 0
BBX 4 4 1 0
BITMAP
a0
50
50
a0
ENDCHAR
STARTCHAR onequarter
ENCODING 188
SWIDTH 867 0
DWIDTH 10 0
BBX 9 8 1 0
BITMAP
8400
8800
8800
9100
9300
2500
2780
4100
ENDCHAR
STARTCHAR onehalf
ENCODING 189
SWIDTH 867 0
DWIDTH 10 0
BBX 9 8 1 0
BITMAP
8400
8800
8800
9300
9480
2180
2200
4780
ENDCHAR
STARTCHAR threequarters
ENCODING 190
SWIDTH 867 0
DWIDTH 10 0
BBX 10 8 0 0
BITMAP
e200
3400
6400
1880
e980
1280
13c0
2080
ENDCHAR
STARTCHAR questiondown
ENCODING 191
SWIDTH 486 0
DWIDTH 5 0
BBX 4 8 0 0
BITMAP
20
00
20
20
c0
80
d0
60
ENDCHAR
STARTCHAR Agrave
ENCODING 192
SWIDTH 639 0
DWIDTH 7 0
BBX 7 11 0 0
BITMAP
20
10
00
10
38
28
28
7c
44
44
c6
ENDCHAR
STARTCHAR Aacute
ENCODING 193
SWIDTH 639 0
DWIDTH 7 0
BBX 7 11 0 0
BITMAP
04
08
00
10
38
28
28
7c
44
44
c6
ENDCHAR
STARTCHAR Acircumflex
ENCODING 194
SWIDTH 639 0
DWIDTH 7 0
BBX 7 11 0 0
BITMAP
08
14
00
10
38
28
28
7c
44
44
c6
ENDCHAR
STARTCHAR Atilde
ENCODING 195
SWIDTH 639 0
DWIDTH 7 0
BBX 7 10 0 0
BITMAP
3c
00
10
38
28
28
7c
44
44
c6
ENDCHAR
STARTCHAR Adieresis
ENCODING 196
SWIDTH 639 0
DWIDTH 7 0
BBX 7 10 0 0
BITMAP
28
00
10
38
28
28
7c
44
44
c6
ENDCHAR
STARTCHAR Aring
ENCODING 197
SWIDTH 639 0
DWIDTH 7 0
BBX 7 10 0 0
BITMAP
38
00
10
38
28
28
7c
44
44
c6
ENDCHAR
STARTCHAR AE
ENCODING 198
SWIDTH 866 0
DWIDTH 9 0
BBX 10 8 -1 0
BITMAP
0fc0
0c40
1480
2780
3c80
4400
4440
cfc0
ENDCHAR
STARTCHAR Ccedilla
ENCODING 199
SWIDTH 632 0
DWIDTH 7 0
BBX 6 11 1 -3
BITMAP
38
44
80
80
80
80
44
3c
0c
04
18
ENDCHAR
STARTCHAR Egrave
ENCODING 200
SWIDTH 576 0
DWIDTH 6 0
BBX 5 11 1 0
BITMAP
40
20
00
f8
40
48
78
48
40
40
f8
ENDCHAR
STARTCHAR Eacute
ENCODING 201
SWIDTH 576 0
DWIDTH 6 0
BBX 5 11 1 0
BITMAP
08
10
00
f8
40
48
78
48
40
40
f8
ENDCHAR
STARTCHAR Ecircumflex
ENCODING 202
SWIDTH 576 0
DWIDTH 6 0
BBX 5 11 1 0
BITMAP
10
28
00
f8
40
48
78
48
40
40
f8
ENDCHAR
STARTCHAR Edieresis
ENCODING 203
SWIDTH 576 0
DWIDTH 6 0
BBX 5 10 1 0
BITMAP
50
00
f8
40
48
78
48
40
40
f8
ENDCHAR
STARTCHAR Igrave
ENCODING 204
SWIDTH 324 0
DWIDTH 4 0
BBX 4 11 0 0
BITMAP
80
40
00
70
20
20
20
20
20
20
70
ENDCHAR
STARTCHAR Iacute
ENCODING 205
SWIDTH 324 0
DWIDTH 4 0
BBX 3 11 1 0
BITMAP
20
40
00
e0
40
40
40
40
40
40
e0
ENDCHAR
STARTCHAR Icircumflex
ENCODING 206
SWIDTH 324 0
DWIDTH 4 0
BBX 3 11 1 0
BITMAP
40
a0
00
e0
40
40
40
40
40
40
e0
ENDCHAR
STARTCHAR Idieresis
ENCODING 207
SWIDTH 324 0
DWIDTH 4 0
BBX 4 10 0 0
BITMAP
a0
00
70
20
20
20
20
20
20
70
ENDCHAR
STARTCHAR Eth
ENCODING 208
SWIDTH 694 0
DWIDTH 8 0
BBX 8 8 0 0
BITMAP
7c00
2200
2100
f900
2100
2100
2200
7c00
ENDCHAR
STARTCHAR Ntilde
ENCODING 209
SWIDTH 713 0
DWIDTH 8 0
BBX 7 10 1 0
BITMAP
3c
00
ce
64
64
54
54
4c
4c
e4
ENDCHAR
STARTCHAR Ograve
ENCODING 210
SWIDTH 731 0
DWIDTH 8 0
BBX 7 11 1 0
BITMAP
20
10
00
38
44
82
82
82
82
44
38
ENDCHAR
STARTCHAR Oacute
ENCODING 211
SWIDTH 731 0
DWIDTH 8 0
BBX 7 11 1 0
BITMAP
04
08
00
38
44
82
82
82
82
44
38
ENDCHAR
STARTCHAR Ocircumflex
ENCODING 212
SWIDTH 731 0
DWIDTH 8 0
BBX 7 11 1 0
BITMAP
08
14
00
38
44
82
82
82
82
44
38
ENDCHAR
STARTCHAR Otilde
ENCODING 213
SWIDTH 731 0
DWIDTH 8 0
BBX 7 10 1 0
BITMAP
3c
00
38
44
82
82
82
82
44
38
ENDCHAR
STARTCHAR Odieresis
ENCODING 214
SWIDTH 731 0
DWIDTH 8 0
BBX 7 10 1 0
BITMAP
28
00
38
44
82
82
82
82
44
38
ENDCHAR
STARTCHAR multiply
ENCODING 215
SWIDTH 833 0
DWIDTH 9 0
BBX 6 6 2 0
BITMAP
84
48
30
30
48
84
ENDCHAR
STARTCHAR Oslash
ENCODING 216
SWIDTH 731 0
DWIDTH 8 0
BBX 7 9 1 -1
BITMAP
3c
44
8a
92
92
a2
44
78
80
ENDCHAR
STARTCHAR Ugrave
ENCODING 217
SWIDTH 694 0
DWIDTH 8 0
BBX 7 11 1 0
BITMAP
20
10
00
ee
44
44
44
44
44
6c
30
ENDCHAR
STARTCHAR Uacute
ENCODING 218
SWIDTH 694 0
DWIDTH 8 0
BBX 7 11 1 0
BITMAP
04
08
00
ee
44
44
44
44
44
6c
30
ENDCHAR
STARTCHAR Ucircumflex
ENCODING 219
SWIDTH 694 0
DWIDTH 8 0
BBX 7 11 1 0
BITMAP
08
14
00
ee
44
44
44
44
44
6c
30
ENDCHAR
STARTCHAR Udieresis
ENCODING 220
SWIDTH 694 0
DWIDTH 8 0
BBX 7 10 1 0
BITMAP
28
00
ee
44
44
44
44
44
6c
30
ENDCHAR
STARTCHAR Yacute
ENCODING 221
SWIDTH 586 0
DWIDTH 7 0
BBX 7 11 0 0
BITMAP
08
10
00
e6
44
24
28
10
10
10
38
ENDCHAR
STARTCHAR Thorn
ENCODING 222
SWIDTH 558 0
DWIDTH 6 0
BBX 5 8 1 0
BITMAP
e0
70
48
48
48
48
70
e0
ENDCHAR
STARTCHAR germandbls
ENCODING 223
SWIDTH 609 0
DWIDTH 7 0
BBX 6 8 1 0
BITMAP
30
48
88
90
b0
8c
a4
d8
ENDCHAR
STARTCHAR agrave
ENCODING 224
SWIDTH 507 0
DWIDTH 6 0
BBX 5 8 1 0
BITMAP
80
40
00
60
30
d0
90
78
ENDCHAR
STARTCHAR aacute
ENCODING 225
SWIDTH 507 0
DWIDTH 6 0
BBX 5 8 1 0
BITMAP
10
20
00
60
30
d0
90
78
ENDCHAR
STARTCHAR acircumflex
ENCODING 226
SWIDTH 507 0
DWIDTH 6 0
BBX 5 8 1 0
BITMAP
20
50
00
60
30
d0
90
78
ENDCHAR
STARTCHAR atilde
ENCODING 227
SWIDTH 507 0
DWIDTH 6 0
BBX 5 7 1 0
BITMAP
f0
00
60
30
d0
90
78
ENDCHAR
STARTCHAR adieresis
ENCODING 228
SWIDTH 507 0
DWIDTH 6 0
BBX 5 7 1 0
BITMAP
a0
00
60
30
d0
90
78
ENDCHAR
STARTCHAR aring
ENCODING 229
SWIDTH 507 0
DWIDTH 6 0
BBX 5 8 1 0
BITMAP
70
70
00
60
30
d0
90
78
ENDCHAR
STARTCHAR ae
ENCODING 230
SWIDTH 725 0
DWIDTH 8 0
BBX 7 5 1 0
BITMAP
6c
92
3e
d0
6e
ENDCHAR
STARTCHAR ccedilla
ENCODING 231
SWIDTH 446 0
DWIDTH 5 0
BBX 4 8 1 -3
BITMAP
60
90
80
80
70
30
10
60
ENDCHAR
STARTCHAR egrave
ENCODING 232
SWIDTH 491 0
DWIDTH 5 0
BBX 4 8 1 0
BITMAP
80
40
00
60
90
f0
80
70
ENDCHAR
STARTCHAR eacute
ENCODING 233
SWIDTH 491 0
DWIDTH 5 0
BBX 4 8 1 0
BITMAP
10
20
00
60
90
f0
80
70
ENDCHAR
STARTCHAR ecircumflex
ENCODING 234
SWIDTH 491 0
DWIDTH 5 0
BBX 4 8 1 0
BITMAP
20
50
00
60
90
f0
80
70
ENDCHAR
STARTCHAR edieresis
ENCODING 235
SWIDTH 491 0
DWIDTH 5 0
BBX 4 7 1 0
BITMAP
a0
00
60
90
f0
80
70
ENDCHAR
STARTCHAR igrave
ENCODING 236
SWIDTH 280 0
DWIDTH 3 0
BBX 2 8 0 0
BITMAP
80
40
00
40
40
40
40
40
ENDCHAR
STARTCHAR iacute
ENCODING 237
SWIDTH 280 0
DWIDTH 3 0
BBX 3 8 1 0
BITMAP
20
40
00
80
80
80
80
80
ENDCHAR
STARTCHAR icircumflex
ENCODING 238
SWIDTH 280 0
DWIDTH 3 0
BBX 3 8 1 0
BITMAP
40
a0
00
80
80
80
80
80
ENDCHAR
STARTCHAR idieresis
ENCODING 239
SWIDTH 280 0
DWIDTH 3 0
BBX 3 7 0 0
BITMAP
a0
00
40
40
40
40
40
ENDCHAR
STARTCHAR eth
ENCODING 240
SWIDTH 528 0
DWIDTH 6 0
BBX 5 8 1 0
BITMAP
50
20
50
70
88
88
98
60
ENDCHAR
STARTCHAR ntilde
ENCODING 241
SWIDTH 569 0
DWIDTH 6 0
BBX 5 7 1 0
BITMAP
78
00
f8
88
88
88
d8
ENDCHAR
STARTCHAR ograve
ENCODING 242
SWIDTH 539 0
DWIDTH 6 0
BBX 5 8 1 0
BITMAP
40
20
00
70
88
88
88
70
ENDCHAR
STARTCHAR oacute
ENCODING 243
SWIDTH 539 0
DWIDTH 6 0
BBX 5 8 1 0
BITMAP
08
10
00
70
88
88
88
70
ENDCHAR
STARTCHAR ocircumflex
ENCODING 244
SWIDTH 539 0
DWIDTH 6 0
BBX 5 8 1 0
BITMAP
10
28
00
70
88
88
88
70
ENDCHAR
STARTCHAR otilde
ENCODING 245
SWIDTH 539 0
DWIDTH 6 0
BBX 5 7 1 0
BITMAP
78
00
70
88
88
88
70
ENDCHAR
STARTCHAR odieresis
ENCODING 246
SWIDTH 539 0
DWIDTH 6 0
BBX 5 7 1 0
BITMAP
50
00
70
88
88
88
70
ENDCHAR
STARTCHAR divide
ENCODING 247
SWIDTH 833 0
DWIDTH 9 0
BBX 7 5 1 0
BITMAP
10
00
fe
00
10
ENDCHAR
STARTCHAR oslash
ENCODING 248
SWIDTH 539 0
DWIDTH 6 0
BBX 5 7 1 -1
BITMAP
08
70
98
a8
c8
f0
80
ENDCHAR
STARTCHAR ugrave
ENCODING 249
SWIDTH 569 0
DWIDTH 7 0
BBX 5 8 1 0
BITMAP
40
20
00
98
88
88
88
78
ENDCHAR
STARTCHAR uacute
ENCODING 250
SWIDTH 569 0
DWIDTH 7 0
BBX 5 8 1 0
BITMAP
08
10
00
98
88
88
88
78
ENDCHAR
STARTCHAR ucircumflex
ENCODING 251
SWIDTH 569 0
DWIDTH 7 0
BBX 5 8 1 0
BITMAP
10
28
00
98
88
88
88
78
ENDCHAR
STARTCHAR udieresis
ENCODING 252
SWIDTH 569 0
DWIDTH 7 0
BBX 5 7 1 0
BITMAP
50
00
98
88
88
88
78
ENDCHAR
STARTCHAR yacute
ENCODING 253
SWIDTH 495 0
DWIDTH 6 0
BBX 6 11 0 -3
BITMAP
08
10
00
ec
48
48
30
30
20
20
c0
ENDCHAR
STARTCHAR thorn
ENCODING 254
SWIDTH 551 0
DWIDTH 6 0
BBX 5 11 1 -3
BITMAP
80
80
80
f0
88
88
98
e0
80
80
c0
ENDCHAR
STARTCHAR ydieresis
ENCODING 255
SWIDTH 495 0
DWIDTH 6 0
BBX 6 10 0 -3
BITMAP
50
00
ec
48
48
30
30
20
20
c0
ENDCHAR
ENDFONT
