STARTFONT 2.1
COMMENT $Xorg: charR24.bdf,v 1.3 2000/08/17 19:42:55 cpqbld Exp $
COMMENT  
COMMENT  Copyright 1988 Bitstream, Inc., Cambridge, Massachusetts, USA
COMMENT  Bitstream and Charter are registered trademarks of Bitstream, Inc.
COMMENT  
COMMENT  The names "Bitstream" and "Charter" are registered trademarks of
COMMENT  Bitstream, Inc.  Permission to use these trademarks is hereby
COMMENT  granted only in association with the images described in this file.
COMMENT  
COMMENT  Permission to use, copy, modify, and distribute this software and
COMMENT  its documentation for any purpose and without fee is hereby
COMMENT  granted, provided that the above copyright notice appear in all
COMMENT  copies and that both that copyright notice and this permission
COMMENT  notice appear in supporting documentation, and that the name of
COMMENT  Bitstream not be used in advertising or publicity pertaining to
COMMENT  distribution of the software without specific, written prior
COMMENT  permission.  Bitstream makes no representations about the
COMMENT  suitability of this software for any purpose.  It is provided "as
COMMENT  is" without express or implied warranty.
COMMENT  
COMMENT  BITSTREAM DISCLAIMS ALL WARRANTIES WITH REGARD TO THIS SOFTWARE,
COMMENT  INCLUDING ALL IMPLIED WARRANTIES OF MERCHANTABILITY AND FITNESS, IN
COMMENT  NO EVENT SHALL BITSTREAM BE LIABLE FOR ANY SPECIAL, INDIRECT OR
COMMENT  CONSEQUENTIAL DAMAGES OR ANY DAMAGES WHATSOEVER RESULTING FROM LOSS
COMMENT  OF USE, DATA OR PROFITS, WHETHER IN AN ACTION OF CONTRACT,
COMMENT  NEGLIGENCE OR OTHER TORTIOUS ACTION, ARISING OUT OF OR IN
COMMENT  CONNECTION WITH THE USE OR PERFORMANCE OF THIS SOFTWARE.
COMMENT  
COMMENT  
COMMENT Fontware CVTBDF v1.0
FONT -Bitstream-Charter-Medium-R-Normal--33-240-100-100-P-183-ISO8859-1
SIZE 24 100 100
FONTBOUNDINGBOX 33 40 -2 -8
STARTPROPERTIES 22
COMMENT Begin LogicalFontDescription
FONTNAME_REGISTRY ""
FAMILY_NAME "Charter"
FOUNDRY "Bitstream"
WEIGHT_NAME "Medium"
SETWIDTH_NAME "Normal"
SLANT "R"
ADD_STYLE_NAME ""
PIXEL_SIZE 33
POINT_SIZE 240
RESOLUTION_X 100
RESOLUTION_Y 100
SPACING "P"
AVERAGE_WIDTH 183
CHARSET_REGISTRY "ISO8859"
CHARSET_ENCODING "1"
COMMENT END LogicalFontDescription
FONT_DESCENT 8
FONT_ASCENT 32
CAP_HEIGHT 22
X_HEIGHT 16
CHARSET_COLLECTIONS "ASCII ISOLATIN1"
FACE_NAME "Bitstream Charter Roman"
COPYRIGHT "Copyright 1987 by Bitstream Inc. Charter Registered trademark of Bitstream Inc."
COMMENT ****** end of font properties
ENDPROPERTIES
CHARS 191
STARTCHAR space
ENCODING 32
SWIDTH 278 0
DWIDTH 9 0
BBX 1 1 0 0
BITMAP
00
ENDCHAR
STARTCHAR exclam
ENCODING 33
SWIDTH 338 0
DWIDTH 11 0
BBX 4 22 4 0
BITMAP
60
f0
f0
f0
f0
f0
f0
f0
60
60
60
60
60
60
60
60
00
00
60
f0
f0
60
ENDCHAR
STARTCHAR quotedbl
ENCODING 34
SWIDTH 331 0
DWIDTH 11 0
BBX 9 10 1 13
BITMAP
e380
e380
e380
e380
e380
4100
4100
4100
4100
4100
ENDCHAR
STARTCHAR numbersign
ENCODING 35
SWIDTH 745 0
DWIDTH 25 0
BBX 21 25 2 -2
BITMAP
003060
003060
0020c0
0060c0
0060c0
004180
00c180
00c100
3ffff8
3ffff8
018300
010600
030600
030600
020c00
fffff0
fffff0
040800
0c1800
0c1800
081000
183000
183000
106000
306000
ENDCHAR
STARTCHAR dollar
ENCODING 36
SWIDTH 556 0
DWIDTH 18 0
BBX 15 27 2 -3
BITMAP
0100
0100
07f0
1ffc
3d1c
710c
e10c
e10c
e100
f100
7900
7f00
1fe0
07f8
017c
011e
011e
810e
810e
810e
c11c
e138
fff0
7fc0
0100
0100
0100
ENDCHAR
STARTCHAR percent
ENCODING 37
SWIDTH 852 0
DWIDTH 28 0
BBX 25 22 2 0
BITMAP
3e003000
63003000
63006000
c180c000
c180c000
c1818000
c1810000
c1830000
c1860000
c1843e00
630c6300
63186300
3e18c180
0030c180
0060c180
0060c180
00c0c180
0180c180
0180c180
03006300
06006300
06003e00
ENDCHAR
STARTCHAR ampersand
ENCODING 38
SWIDTH 704 0
DWIDTH 23 0
BBX 21 22 1 0
BITMAP
0fc000
187000
387000
303800
303800
303800
303800
387000
1c6000
1fc000
0f8000
1f87f8
73c0c0
61e0c0
e0f180
e07980
e03f00
e01e00
f00f00
701f80
3c7380
1fc1f8
ENDCHAR
STARTCHAR quoteright
ENCODING 39
SWIDTH 201 0
DWIDTH 7 0
BBX 5 9 1 14
BITMAP
70
f8
f8
18
18
10
30
60
c0
ENDCHAR
STARTCHAR parenleft
ENCODING 40
SWIDTH 417 0
DWIDTH 14 0
BBX 9 29 4 -5
BITMAP
0180
0780
0e00
1c00
3800
3000
7000
7000
6000
e000
e000
e000
e000
e000
e000
e000
e000
e000
e000
e000
6000
7000
7000
3000
3800
1c00
0e00
0780
0180
ENDCHAR
STARTCHAR parenright
ENCODING 41
SWIDTH 417 0
DWIDTH 14 0
BBX 9 29 1 -5
BITMAP
c000
f000
3800
1c00
0e00
0600
0700
0700
0300
0380
0380
0380
0380
0380
0380
0380
0380
0380
0380
0380
0300
0700
0700
0600
0e00
1c00
3800
f000
c000
ENDCHAR
STARTCHAR asterisk
ENCODING 42
SWIDTH 500 0
DWIDTH 17 0
BBX 13 13 2 11
BITMAP
0200
0700
0700
0700
2220
f278
7df0
0000
0500
0d80
18c0
18c0
3060
ENDCHAR
STARTCHAR plus
ENCODING 43
SWIDTH 833 0
DWIDTH 28 0
BBX 20 20 4 0
BITMAP
006000
006000
006000
006000
006000
006000
006000
006000
006000
fffff0
fffff0
006000
006000
006000
006000
006000
006000
006000
006000
006000
ENDCHAR
STARTCHAR comma
ENCODING 44
SWIDTH 278 0
DWIDTH 9 0
BBX 5 10 1 -6
BITMAP
30
78
78
78
18
18
10
30
60
c0
ENDCHAR
STARTCHAR hyphen
ENCODING 45
SWIDTH 319 0
DWIDTH 11 0
BBX 8 2 2 7
BITMAP
ff00
ff00
ENDCHAR
STARTCHAR period
ENCODING 46
SWIDTH 278 0
DWIDTH 9 0
BBX 4 4 3 0
BITMAP
60
f0
f0
60
ENDCHAR
STARTCHAR slash
ENCODING 47
SWIDTH 481 0
DWIDTH 16 0
BBX 16 25 -1 -3
BITMAP
000300
000600
000600
000c00
000800
001800
003000
003000
006000
006000
00c000
00c000
018000
030000
030000
060000
060000
0c0000
0c0000
180000
180000
300000
600000
600000
c00000
ENDCHAR
STARTCHAR zero
ENCODING 48
SWIDTH 556 0
DWIDTH 18 0
BBX 15 22 2 0
BITMAP
07c0
0fe0
1c70
3838
701c
701c
600c
e00e
e00e
e00e
e00e
e00e
e00e
e00e
e00e
600c
701c
701c
3838
1c70
0fe0
07c0
ENDCHAR
STARTCHAR one
ENCODING 49
SWIDTH 556 0
DWIDTH 18 0
BBX 11 22 3 0
BITMAP
0700
3f00
f700
0700
0700
0700
0700
0700
0700
0700
0700
0700
0700
0700
0700
0700
0700
0700
0700
0700
0700
7fe0
ENDCHAR
STARTCHAR two
ENCODING 50
SWIDTH 556 0
DWIDTH 18 0
BBX 16 22 1 0
BITMAP
07e000
1ff800
303c00
701c00
700e00
700e00
000e00
000e00
001c00
001c00
003800
003000
007000
01c000
038000
070000
0e0300
180300
300300
ffff00
ffff00
ffff00
ENDCHAR
STARTCHAR three
ENCODING 51
SWIDTH 556 0
DWIDTH 18 0
BBX 14 22 2 0
BITMAP
0f80
3fe0
70f0
6078
e038
6038
0038
0038
0070
00e0
0f80
0fe0
0078
0038
001c
001c
001c
c01c
e038
70f0
3fe0
1f80
ENDCHAR
STARTCHAR four
ENCODING 52
SWIDTH 556 0
DWIDTH 18 0
BBX 17 23 1 -1
BITMAP
003800
003800
007800
00f800
01b800
01b800
033800
063800
0c3800
1c3800
183800
303800
603800
e03800
ffff80
ffff80
003800
003800
003800
003800
003800
003800
003800
ENDCHAR
STARTCHAR five
ENCODING 53
SWIDTH 556 0
DWIDTH 18 0
BBX 15 22 1 0
BITMAP
3ffc
3ffc
3ffc
3800
3800
3800
3800
3800
3800
3fe0
3ff8
007c
001c
000e
000e
000e
000e
700c
f01c
7838
3fe0
0f80
ENDCHAR
STARTCHAR six
ENCODING 54
SWIDTH 556 0
DWIDTH 18 0
BBX 15 23 2 0
BITMAP
0070
01f0
0780
0e00
1c00
3800
3000
7000
63e0
eff0
f838
e01c
e01e
e00e
e00e
e00e
e00e
700e
701c
3818
1c38
0fe0
07c0
ENDCHAR
STARTCHAR seven
ENCODING 55
SWIDTH 556 0
DWIDTH 18 0
BBX 15 23 2 -1
BITMAP
fffe
fffe
fffe
c00c
c018
c018
0030
0030
0060
0060
00c0
00c0
0180
0180
0300
0700
0600
0e00
0c00
1c00
1800
3800
7000
ENDCHAR
STARTCHAR eight
ENCODING 56
SWIDTH 556 0
DWIDTH 18 0
BBX 15 22 2 0
BITMAP
03c0
0ff0
1c38
3818
301c
701c
701c
3818
3c18
1f30
07c0
1df0
307c
601c
e00e
e00e
e00e
e00e
701c
3838
1ff0
07c0
ENDCHAR
STARTCHAR nine
ENCODING 57
SWIDTH 556 0
DWIDTH 18 0
BBX 15 24 2 -2
BITMAP
07c0
1ff0
3c78
701c
701c
e00e
e00e
e00e
e00e
e00e
f00e
700e
3c3c
1ffc
0f9c
0038
0030
0070
00e0
01c0
0380
0e00
3c00
3000
ENDCHAR
STARTCHAR colon
ENCODING 58
SWIDTH 319 0
DWIDTH 11 0
BBX 4 16 4 0
BITMAP
60
f0
f0
60
00
00
00
00
00
00
00
00
60
f0
f0
60
ENDCHAR
STARTCHAR semicolon
ENCODING 59
SWIDTH 319 0
DWIDTH 11 0
BBX 6 22 2 -6
BITMAP
38
7c
7c
38
00
00
00
00
00
00
00
00
38
78
7c
7c
0c
0c
08
18
70
c0
ENDCHAR
STARTCHAR less
ENCODING 60
SWIDTH 833 0
DWIDTH 28 0
BBX 19 17 4 1
BITMAP
000020
0001e0
0007c0
003e00
00f800
07c000
1f0000
f80000
e00000
f80000
1f0000
07c000
00f800
003e00
0007c0
0001e0
000020
ENDCHAR
STARTCHAR equal
ENCODING 61
SWIDTH 833 0
DWIDTH 28 0
BBX 20 8 4 6
BITMAP
fffff0
fffff0
000000
000000
000000
000000
fffff0
fffff0
ENDCHAR
STARTCHAR greater
ENCODING 62
SWIDTH 833 0
DWIDTH 28 0
BBX 19 17 5 1
BITMAP
800000
f00000
7c0000
0f8000
03e000
007c00
001f00
0003e0
0000e0
0003e0
001f00
007c00
03e000
0f8000
7c0000
f00000
800000
ENDCHAR
STARTCHAR question
ENCODING 63
SWIDTH 486 0
DWIDTH 16 0
BBX 12 22 2 0
BITMAP
3f80
f1c0
e0e0
6070
0070
0070
0070
0070
00e0
01c0
0380
0e00
0c00
0c00
0c00
0c00
0000
0000
0c00
1e00
1e00
0c00
ENDCHAR
STARTCHAR at
ENCODING 64
SWIDTH 942 0
DWIDTH 31 0
BBX 26 28 3 -5
BITMAP
003fe000
01e03800
07000e00
0e000600
18000300
38000180
300fb180
6039e0c0
6060e0c0
60c0e0c0
c1c0e0c0
c1c0e0c0
c380c0c0
c380c180
c380c180
c381c180
c381c300
c383c200
e1c7c600
61fdf800
6070f000
70000000
38000000
1c000000
0e000600
07c03800
01ffe000
007f0000
ENDCHAR
STARTCHAR A
ENCODING 65
SWIDTH 639 0
DWIDTH 21 0
BBX 22 22 0 0
BITMAP
003000
007800
007800
007800
00dc00
00dc00
019e00
018e00
018e00
030700
030700
030700
060380
07ff80
0c01c0
0c01c0
0c01c0
1800e0
1800e0
3000f0
300070
fe03fc
ENDCHAR
STARTCHAR B
ENCODING 66
SWIDTH 604 0
DWIDTH 20 0
BBX 18 22 1 0
BITMAP
fffc00
1c1e00
1c0700
1c0780
1c0780
1c0380
1c0780
1c0700
1c0f00
1c1c00
1ffe00
1c0f80
1c0380
1c01c0
1c01c0
1c01c0
1c01c0
1c01c0
1c03c0
1c0780
1c1f00
fffc00
ENDCHAR
STARTCHAR C
ENCODING 67
SWIDTH 632 0
DWIDTH 21 0
BBX 19 22 1 0
BITMAP
01ffc0
0f81e0
1e00e0
3c0060
780060
700060
700000
e00000
e00000
e00000
e00000
e00000
e00000
e00000
f00000
700000
700060
380060
3c0060
1e00e0
0f80e0
01ffc0
ENDCHAR
STARTCHAR D
ENCODING 68
SWIDTH 694 0
DWIDTH 23 0
BBX 21 22 1 0
BITMAP
fffc00
1c0f80
1c03c0
1c00e0
1c00e0
1c0070
1c0070
1c0038
1c0038
1c0038
1c0038
1c0038
1c0038
1c0038
1c0038
1c0070
1c0070
1c00f0
1c00e0
1c03c0
1c0f80
fffc00
ENDCHAR
STARTCHAR E
ENCODING 69
SWIDTH 576 0
DWIDTH 19 0
BBX 17 22 1 0
BITMAP
ffff00
1c0700
1c0300
1c0300
1c0300
1c0000
1c0000
1c0800
1c0800
1c0800
1ff800
1c0800
1c0800
1c0800
1c0000
1c0000
1c0000
1c0180
1c0180
1c0180
1c0380
ffff80
ENDCHAR
STARTCHAR F
ENCODING 70
SWIDTH 537 0
DWIDTH 18 0
BBX 16 22 1 0
BITMAP
ffff00
1c0700
1c0700
1c0300
1c0300
1c0000
1c0000
1c0800
1c0800
1c0800
1ff800
1c0800
1c0800
1c0800
1c0000
1c0000
1c0000
1c0000
1c0000
1c0000
1c0000
ff8000
ENDCHAR
STARTCHAR G
ENCODING 71
SWIDTH 694 0
DWIDTH 23 0
BBX 21 22 1 0
BITMAP
01ffc0
0f83c0
1e00c0
3c00c0
3800c0
7000c0
700000
700000
e00000
e00000
e00000
e00000
e00ff8
e001c0
e001c0
7001c0
7001c0
3801c0
3c01c0
1e01c0
0f81c0
01ff80
ENDCHAR
STARTCHAR H
ENCODING 72
SWIDTH 738 0
DWIDTH 25 0
BBX 23 22 1 0
BITMAP
ff83fe
1c0070
1c0070
1c0070
1c0070
1c0070
1c0070
1c0070
1c0070
1c0070
1ffff0
1c0070
1c0070
1c0070
1c0070
1c0070
1c0070
1c0070
1c0070
1c0070
1c0070
ff83fe
ENDCHAR
STARTCHAR I
ENCODING 73
SWIDTH 324 0
DWIDTH 11 0
BBX 9 22 1 0
BITMAP
ff80
1c00
1c00
1c00
1c00
1c00
1c00
1c00
1c00
1c00
1c00
1c00
1c00
1c00
1c00
1c00
1c00
1c00
1c00
1c00
1c00
ff80
ENDCHAR
STARTCHAR J
ENCODING 74
SWIDTH 444 0
DWIDTH 15 0
BBX 15 22 0 0
BITMAP
03fe
0070
0070
0070
0070
0070
0070
0070
0070
0070
0070
0070
0070
0070
0070
0070
c070
c070
c0e0
e0e0
e3c0
ff00
ENDCHAR
STARTCHAR K
ENCODING 75
SWIDTH 611 0
DWIDTH 20 0
BBX 20 22 1 0
BITMAP
ff87e0
1c0180
1c0300
1c0600
1c0e00
1c0c00
1c1800
1c3000
1c7000
1c6000
1ce000
1ff000
1c7000
1c3800
1c3c00
1c1c00
1c0e00
1c0f00
1c0700
1c0380
1c0380
ff81f0
ENDCHAR
STARTCHAR L
ENCODING 76
SWIDTH 520 0
DWIDTH 17 0
BBX 16 22 1 0
BITMAP
ff8000
1c0000
1c0000
1c0000
1c0000
1c0000
1c0000
1c0000
1c0000
1c0000
1c0000
1c0000
1c0000
1c0000
1c0000
1c0000
1c0300
1c0300
1c0300
1c0300
1c0300
ffff00
ENDCHAR
STARTCHAR M
ENCODING 77
SWIDTH 866 0
DWIDTH 29 0
BBX 27 22 1 0
BITMAP
fe001fe0
1f001f00
1f001f00
1b003700
1b803700
1b802700
19c06700
19c06700
19c04700
18e0c700
18e0c700
18608700
18718700
18718700
18310700
183b0700
183b0700
181e0700
181e0700
181c0700
180c0700
fe0c1fe0
ENDCHAR
STARTCHAR N
ENCODING 78
SWIDTH 713 0
DWIDTH 24 0
BBX 22 22 1 0
BITMAP
fe01fc
1e0060
1f0060
1f0060
1b8060
1bc060
19c060
18e060
18e060
187060
183860
183860
181c60
181c60
180e60
180760
180760
1803e0
1803e0
1801e0
1800e0
fe00e0
ENDCHAR
STARTCHAR O
ENCODING 79
SWIDTH 731 0
DWIDTH 24 0
BBX 22 22 1 0
BITMAP
03ff00
0f03c0
1e01e0
380070
780078
700038
700038
e0001c
e0001c
e0001c
e0001c
e0001c
e0001c
e0001c
e0001c
700038
700038
780078
380070
1e01e0
0f03c0
03ff00
ENDCHAR
STARTCHAR P
ENCODING 80
SWIDTH 558 0
DWIDTH 19 0
BBX 17 22 1 0
BITMAP
fff800
1c1e00
1c0700
1c0780
1c0380
1c0380
1c0380
1c0380
1c0380
1c0700
1c0700
1c1e00
1ff800
1c0000
1c0000
1c0000
1c0000
1c0000
1c0000
1c0000
1c0000
ff8000
ENDCHAR
STARTCHAR Q
ENCODING 81
SWIDTH 731 0
DWIDTH 24 0
BBX 22 28 1 -6
BITMAP
03ff00
0f03c0
1e01e0
380070
780078
700038
700038
e0001c
e0001c
e0001c
e0001c
e0001c
e0001c
e0001c
e0001c
700038
700038
780078
380070
1e01e0
0f03c0
03ff00
007800
007800
003c00
003e00
001ff8
0007f0
ENDCHAR
STARTCHAR R
ENCODING 82
SWIDTH 646 0
DWIDTH 22 0
BBX 21 22 1 0
BITMAP
fffc00
1c1f00
1c0700
1c0780
1c0380
1c0380
1c0380
1c0380
1c0300
1c0700
1c0e00
1ff000
1c1e00
1c0e00
1c0700
1c0700
1c0700
1c0300
1c0380
1c0380
1c01c0
ff81f8
ENDCHAR
STARTCHAR S
ENCODING 83
SWIDTH 556 0
DWIDTH 18 0
BBX 15 22 2 0
BITMAP
0ffc
381c
700c
e00c
e00c
e000
e000
f000
7c00
7f00
1fe0
07f8
01fc
007c
001e
000e
c00e
c00e
c00c
c01c
e078
ffe0
ENDCHAR
STARTCHAR T
ENCODING 84
SWIDTH 597 0
DWIDTH 20 0
BBX 19 22 1 0
BITMAP
ffffe0
c0e060
c0e060
c0e060
c0e060
00e000
00e000
00e000
00e000
00e000
00e000
00e000
00e000
00e000
00e000
00e000
00e000
00e000
00e000
00e000
00e000
07fc00
ENDCHAR
STARTCHAR U
ENCODING 85
SWIDTH 694 0
DWIDTH 23 0
BBX 21 22 1 0
BITMAP
ff03f8
1c00c0
1c00c0
1c00c0
1c00c0
1c00c0
1c00c0
1c00c0
1c00c0
1c00c0
1c00c0
1c00c0
1c00c0
1c00c0
1c00c0
1c00c0
1c00c0
1e01c0
0e0180
0f0300
07fe00
01fc00
ENDCHAR
STARTCHAR V
ENCODING 86
SWIDTH 618 0
DWIDTH 21 0
BBX 22 22 -1 0
BITMAP
ff01fc
3c0030
1c0060
1c0060
1e0060
0e00c0
0e00c0
0f00c0
070180
070180
038300
038300
038300
01c600
01c600
00e400
00ec00
00ec00
007800
007800
007800
003000
ENDCHAR
STARTCHAR W
ENCODING 87
SWIDTH 928 0
DWIDTH 31 0
BBX 31 22 0 0
BITMAP
ff0180fe
38038038
3c03c030
1c03c030
1c06c030
1c06e070
0e06e060
0e0c6060
0e0c7060
0e0c70c0
070830c0
071830c0
071838c0
03983980
03b01980
03b01d80
03b01d80
01e00f00
01e00f00
01e00f00
00c00600
00c00600
ENDCHAR
STARTCHAR X
ENCODING 88
SWIDTH 600 0
DWIDTH 20 0
BBX 21 22 0 0
BITMAP
7f83f8
1e00c0
0e01c0
0f0180
070300
038600
03ce00
01cc00
01f800
00f800
007000
007800
00fc00
019c00
019e00
030e00
060700
0e0780
0c0380
1803c0
3801e0
fe0ff8
ENDCHAR
STARTCHAR Y
ENCODING 89
SWIDTH 586 0
DWIDTH 20 0
BBX 21 22 0 0
BITMAP
ff03f8
3c00e0
1c00c0
1e00c0
0e0180
070300
070300
038600
03ce00
01cc00
01f800
00f800
007000
007000
007000
007000
007000
007000
007000
007000
007000
03fe00
ENDCHAR
STARTCHAR Z
ENCODING 90
SWIDTH 586 0
DWIDTH 19 0
BBX 16 22 1 0
BITMAP
7fff00
600e00
601e00
601c00
603c00
003800
007000
00f000
00e000
01e000
01c000
038000
078000
070000
0f0000
1e0000
1c0300
3c0300
380300
700300
f00300
ffff00
ENDCHAR
STARTCHAR bracketleft
ENCODING 91
SWIDTH 421 0
DWIDTH 14 0
BBX 8 28 5 -5
BITMAP
ff00
e000
e000
e000
e000
e000
e000
e000
e000
e000
e000
e000
e000
e000
e000
e000
e000
e000
e000
e000
e000
e000
e000
e000
e000
e000
e000
ff00
ENDCHAR
STARTCHAR backslash
ENCODING 92
SWIDTH 481 0
DWIDTH 16 0
BBX 17 25 0 -3
BITMAP
e00000
600000
300000
380000
180000
0c0000
0c0000
060000
060000
030000
018000
018000
00c000
00c000
006000
006000
003000
001800
001800
000c00
000c00
000600
000700
000300
000180
ENDCHAR
STARTCHAR bracketright
ENCODING 93
SWIDTH 421 0
DWIDTH 14 0
BBX 8 28 1 -5
BITMAP
ff00
0700
0700
0700
0700
0700
0700
0700
0700
0700
0700
0700
0700
0700
0700
0700
0700
0700
0700
0700
0700
0700
0700
0700
0700
0700
0700
ff00
ENDCHAR
STARTCHAR asciicircum
ENCODING 94
SWIDTH 1000 0
DWIDTH 33 0
BBX 20 9 6 14
BITMAP
00f000
01f800
039c00
070e00
0e0700
1c0380
3801c0
600060
c00030
ENDCHAR
STARTCHAR underscore
ENCODING 95
SWIDTH 500 0
DWIDTH 17 0
BBX 17 2 0 -8
BITMAP
ffff80
ffff80
ENDCHAR
STARTCHAR quoteleft
ENCODING 96
SWIDTH 201 0
DWIDTH 7 0
BBX 5 9 1 14
BITMAP
18
30
60
40
c0
c0
f8
f8
70
ENDCHAR
STARTCHAR a
ENCODING 97
SWIDTH 507 0
DWIDTH 17 0
BBX 15 16 1 0
BITMAP
0fe0
3070
7038
7038
0038
0038
00f8
0f38
3c38
7038
e038
e038
e038
f078
79f8
3f3e
ENDCHAR
STARTCHAR b
ENCODING 98
SWIDTH 539 0
DWIDTH 18 0
BBX 16 24 1 0
BITMAP
380000
f80000
380000
380000
380000
380000
380000
380000
3ff800
383c00
381e00
380e00
380f00
380700
380700
380700
380700
380700
380700
380e00
380e00
381c00
383800
3fe000
ENDCHAR
STARTCHAR c
ENCODING 99
SWIDTH 446 0
DWIDTH 15 0
BBX 13 16 1 0
BITMAP
07e0
1c38
3838
7038
7030
e000
e000
e000
e000
e000
e000
7000
7800
3c18
1ff8
07e0
ENDCHAR
STARTCHAR d
ENCODING 100
SWIDTH 565 0
DWIDTH 18 0
BBX 16 24 1 0
BITMAP
001c00
007c00
001c00
001c00
001c00
001c00
001c00
001c00
07fc00
1c1c00
381c00
701c00
701c00
e01c00
e01c00
e01c00
e01c00
e01c00
e01c00
f01c00
701c00
783c00
3ffc00
1f9f00
ENDCHAR
STARTCHAR e
ENCODING 101
SWIDTH 491 0
DWIDTH 16 0
BBX 14 16 1 0
BITMAP
0fe0
1c78
3038
701c
601c
e01c
fffc
e000
e000
e000
e000
7000
7000
7804
3e1c
0ff0
ENDCHAR
STARTCHAR f
ENCODING 102
SWIDTH 321 0
DWIDTH 11 0
BBX 12 24 1 0
BITMAP
03f0
0ef0
0c20
1800
3800
3800
3800
3800
ffc0
3800
3800
3800
3800
3800
3800
3800
3800
3800
3800
3800
3800
3800
3800
ff00
ENDCHAR
STARTCHAR g
ENCODING 103
SWIDTH 523 0
DWIDTH 17 0
BBX 16 23 1 -7
BITMAP
0fc000
1cff00
387000
703800
703800
703800
703800
703800
387000
1ce000
0fc000
040000
0c0000
0f8000
0ff800
38fc00
701e00
e00e00
e00e00
e00c00
f01800
783000
1fc000
ENDCHAR
STARTCHAR h
ENCODING 104
SWIDTH 564 0
DWIDTH 19 0
BBX 17 24 1 0
BITMAP
380000
f80000
380000
380000
380000
380000
380000
380000
38f800
3bfc00
3c1e00
380e00
380e00
380e00
380e00
380e00
380e00
380e00
380e00
380e00
380e00
380e00
380e00
fe3f80
ENDCHAR
STARTCHAR i
ENCODING 105
SWIDTH 280 0
DWIDTH 9 0
BBX 7 24 1 0
BITMAP
38
3c
3c
38
00
00
00
00
38
f8
38
38
38
38
38
38
38
38
38
38
38
38
38
fe
ENDCHAR
STARTCHAR j
ENCODING 106
SWIDTH 266 0
DWIDTH 9 0
BBX 8 31 -2 -7
BITMAP
0700
0700
0f00
0700
0000
0000
0000
0000
0700
1f00
0700
0700
0700
0700
0700
0700
0700
0700
0700
0700
0700
0700
0700
0700
0700
0700
0700
0600
c600
ec00
f000
ENDCHAR
STARTCHAR k
ENCODING 107
SWIDTH 518 0
DWIDTH 18 0
BBX 17 24 1 0
BITMAP
380000
f80000
380000
380000
380000
380000
380000
380000
387f00
381800
383000
386000
38c000
398000
3b8000
3f8000
39c000
38e000
38f000
387000
383800
383c00
381e00
fe0f80
ENDCHAR
STARTCHAR l
ENCODING 108
SWIDTH 282 0
DWIDTH 9 0
BBX 7 24 1 0
BITMAP
38
f8
38
38
38
38
38
38
38
38
38
38
38
38
38
38
38
38
38
38
38
38
38
fe
ENDCHAR
STARTCHAR m
ENCODING 109
SWIDTH 843 0
DWIDTH 27 0
BBX 25 16 1 0
BITMAP
39f0f800
fffbfc00
3c3e1e00
381c0e00
381c0e00
381c0e00
381c0e00
381c0e00
381c0e00
381c0e00
381c0e00
381c0e00
381c0e00
381c0e00
381c0e00
fe7f3f80
ENDCHAR
STARTCHAR n
ENCODING 110
SWIDTH 569 0
DWIDTH 19 0
BBX 17 16 1 0
BITMAP
39f800
fffc00
3c1e00
380e00
380e00
380e00
380e00
380e00
380e00
380e00
380e00
380e00
380e00
380e00
380e00
fe3f80
ENDCHAR
STARTCHAR o
ENCODING 111
SWIDTH 539 0
DWIDTH 18 0
BBX 16 16 1 0
BITMAP
07f000
1c3c00
381c00
700e00
700e00
e00700
e00700
e00700
e00700
e00700
e00700
700e00
700e00
381c00
1c3800
0fe000
ENDCHAR
STARTCHAR p
ENCODING 112
SWIDTH 551 0
DWIDTH 18 0
BBX 16 23 1 -7
BITMAP
39f000
fffc00
3c1e00
380e00
380e00
380700
380700
380700
380700
380700
380700
380e00
380e00
381c00
383800
3fe000
380000
380000
380000
380000
380000
380000
ff0000
ENDCHAR
STARTCHAR q
ENCODING 113
SWIDTH 531 0
DWIDTH 18 0
BBX 16 23 1 -7
BITMAP
07fc00
1c1c00
381c00
701c00
701c00
e01c00
e01c00
e01c00
e01c00
e01c00
e01c00
e01c00
701c00
781c00
3c3c00
1fdc00
001c00
001c00
001c00
001c00
001c00
001c00
00ff00
ENDCHAR
STARTCHAR r
ENCODING 114
SWIDTH 382 0
DWIDTH 13 0
BBX 12 16 1 0
BITMAP
38f0
f9f0
3f30
3c00
3800
3800
3800
3800
3800
3800
3800
3800
3800
3800
3800
ff00
ENDCHAR
STARTCHAR s
ENCODING 115
SWIDTH 400 0
DWIDTH 13 0
BBX 11 16 1 0
BITMAP
1fc0
70c0
e0c0
e0c0
e000
f000
7c00
3f00
0fc0
03c0
01e0
c0e0
c0e0
c0c0
e1c0
ff00
ENDCHAR
STARTCHAR t
ENCODING 116
SWIDTH 335 0
DWIDTH 11 0
BBX 10 19 1 0
BITMAP
1800
1800
3800
ffc0
3800
3800
3800
3800
3800
3800
3800
3800
3800
3800
3800
3800
3800
3c00
1fc0
ENDCHAR
STARTCHAR u
ENCODING 117
SWIDTH 569 0
DWIDTH 19 0
BBX 17 16 1 0
BITMAP
380e00
f83e00
380e00
380e00
380e00
380e00
380e00
380e00
380e00
380e00
380e00
380e00
380e00
3c1e00
1fee00
0fcf80
ENDCHAR
STARTCHAR v
ENCODING 118
SWIDTH 494 0
DWIDTH 16 0
BBX 17 16 0 0
BITMAP
fe1f80
380600
380600
180c00
1c0c00
1c0800
0c1800
0e1000
0e3000
073000
072000
076000
03c000
03c000
03c000
018000
ENDCHAR
STARTCHAR w
ENCODING 119
SWIDTH 771 0
DWIDTH 26 0
BBX 26 16 0 0
BITMAP
ff060fc0
3c0e0300
1c0e0300
1c0f0600
1c1b0600
0e130600
0e138c00
0e338c00
06218c00
07219800
0761d800
0340d800
03c0f000
03c0f000
01c07000
01806000
ENDCHAR
STARTCHAR x
ENCODING 120
SWIDTH 504 0
DWIDTH 17 0
BBX 16 16 1 0
BITMAP
fe7e00
3c1800
1c1800
0e3000
0e6000
076000
03c000
038000
03c000
02e000
06e000
0c7000
187800
183800
301c00
fc7f00
ENDCHAR
STARTCHAR y
ENCODING 121
SWIDTH 495 0
DWIDTH 16 0
BBX 17 23 0 -7
BITMAP
fe1f80
380600
180600
1c0c00
1c0c00
0c0800
0e1800
0e1800
071000
073000
032000
03e000
03e000
01c000
01c000
018000
018000
018000
030000
030000
760000
7c0000
380000
ENDCHAR
STARTCHAR z
ENCODING 122
SWIDTH 468 0
DWIDTH 16 0
BBX 13 16 2 0
BITMAP
fff8
c070
c0e0
c1e0
01c0
0380
0780
0700
0e00
0e00
1c00
3818
3818
7018
f018
fff8
ENDCHAR
STARTCHAR braceleft
ENCODING 123
SWIDTH 486 0
DWIDTH 16 0
BBX 12 28 2 -5
BITMAP
00f0
03c0
0300
0700
0700
0700
0700
0700
0700
0700
0700
0e00
1c00
e000
1c00
0e00
0700
0700
0700
0700
0700
0700
0700
0700
0700
0700
0380
00f0
ENDCHAR
STARTCHAR bar
ENCODING 124
SWIDTH 500 0
DWIDTH 17 0
BBX 2 33 8 -8
BITMAP
c0
c0
c0
c0
c0
c0
c0
c0
c0
c0
c0
c0
c0
c0
c0
c0
c0
c0
c0
c0
c0
c0
c0
c0
c0
c0
c0
c0
c0
c0
c0
c0
c0
ENDCHAR
STARTCHAR braceright
ENCODING 125
SWIDTH 486 0
DWIDTH 16 0
BBX 12 28 2 -5
BITMAP
f000
3c00
0c00
0e00
0e00
0e00
0e00
0e00
0e00
0e00
0e00
0700
0380
0070
0380
0700
0e00
0e00
0e00
0e00
0e00
0e00
0e00
0e00
0e00
0e00
1c00
f800
ENDCHAR
STARTCHAR c0126
ENCODING 126
SWIDTH 1000 0
DWIDTH 33 0
BBX 19 4 7 17
BITMAP
1f0060
3fe0c0
60ff80
c01f00
ENDCHAR
STARTCHAR space
ENCODING 160
SWIDTH 278 0
DWIDTH 9 0
BBX 1 1 0 0
BITMAP
00
ENDCHAR
STARTCHAR exclamdown
ENCODING 161
SWIDTH 338 0
DWIDTH 11 0
BBX 4 22 4 0
BITMAP
60
f0
f0
60
00
00
60
60
60
60
60
60
60
60
f0
f0
f0
f0
f0
f0
f0
60
ENDCHAR
STARTCHAR cent
ENCODING 162
SWIDTH 556 0
DWIDTH 18 0
BBX 13 22 2 -3
BITMAP
0180
0180
0180
07f8
1d98
3988
7188
7188
e180
e180
e180
e180
e180
e180
7188
7188
3988
1d98
07f8
0180
0180
0180
ENDCHAR
STARTCHAR sterling
ENCODING 163
SWIDTH 556 0
DWIDTH 18 0
BBX 15 22 2 0
BITMAP
00f0
03fc
070e
0e0e
0e0e
1c00
1c00
1c00
1c00
1c00
1c00
7ff0
1c00
1c00
1c00
1c00
1800
1800
3000
2000
fffe
fffe
ENDCHAR
STARTCHAR currency
ENCODING 164
SWIDTH 606 0
DWIDTH 20 0
BBX 18 18 1 5
BITMAP
400080
e001c0
71e380
3fff00
1e1e00
1c0600
180600
300300
300300
300300
300300
180600
180e00
1e1e00
3fff00
71e380
e001c0
400080
ENDCHAR
STARTCHAR yen
ENCODING 165
SWIDTH 556 0
DWIDTH 19 0
BBX 19 22 0 0
BITMAP
fe07e0
380180
1c0180
1c0300
0e0300
0e0600
070c00
070c00
7f9fc0
039800
01f000
01f000
00e000
7fffc0
00e000
00e000
00e000
00e000
00e000
00e000
00e000
07fc00
ENDCHAR
STARTCHAR brokenbar
ENCODING 166
SWIDTH 500 0
DWIDTH 17 0
BBX 2 29 8 -6
BITMAP
c0
c0
c0
c0
c0
c0
c0
c0
c0
c0
c0
c0
00
00
00
00
00
c0
c0
c0
c0
c0
c0
c0
c0
c0
c0
c0
c0
ENDCHAR
STARTCHAR section
ENCODING 167
SWIDTH 500 0
DWIDTH 17 0
BBX 15 29 1 -5
BITMAP
0ff8
3c3c
700c
700c
700c
7000
7c00
3f00
0fc0
0ff0
38f8
703c
601e
e00e
e00e
e00e
f01c
7c18
3f70
1fc0
07f0
00f8
003c
001c
601c
601c
601c
7838
3fe0
ENDCHAR
STARTCHAR dieresis
ENCODING 168
SWIDTH 500 0
DWIDTH 17 0
BBX 9 3 4 20
BITMAP
e380
e380
e380
ENDCHAR
STARTCHAR copyright
ENCODING 169
SWIDTH 900 0
DWIDTH 30 0
BBX 26 25 2 -1
BITMAP
007f8000
03c0f000
07001c00
0c000e00
18000200
301f8300
207fe180
60e0e180
41c06080
c38060c0
87800040
87000040
87000040
87000040
87000040
87800040
c38060c0
41c06080
60e0e180
207fe180
301f8300
18000600
0e000c00
03807800
007fc000
ENDCHAR
STARTCHAR ordfeminine
ENCODING 170
SWIDTH 380 0
DWIDTH 13 0
BBX 12 11 1 11
BITMAP
1f80
61c0
60c0
00c0
03c0
3cc0
60c0
c0c0
c0c0
e3c0
7cf0
ENDCHAR
STARTCHAR guillemotleft
ENCODING 171
SWIDTH 442 0
DWIDTH 15 0
BBX 12 11 1 2
BITMAP
0410
0830
3870
70c0
e180
c100
e180
70c0
3870
0830
0410
ENDCHAR
STARTCHAR logicalnot
ENCODING 172
SWIDTH 833 0
DWIDTH 28 0
BBX 20 8 4 6
BITMAP
fffff0
fffff0
000030
000030
000030
000030
000030
000030
ENDCHAR
STARTCHAR hyphen
ENCODING 173
SWIDTH 319 0
DWIDTH 11 0
BBX 8 2 2 7
BITMAP
ff00
ff00
ENDCHAR
STARTCHAR registered
ENCODING 174
SWIDTH 900 0
DWIDTH 30 0
BBX 26 25 2 -1
BITMAP
007f8000
03c0f000
0e001800
18000e00
30000300
23ff8100
60e3c180
40e1e080
c0e0e0c0
80e0e040
80e0c040
80e18040
80fe0040
80e38040
80e1c040
80e1c040
c0e0e0c0
40e0e080
60e0f180
23f87d00
30000300
18000e00
0e001c00
03c07000
007f8000
ENDCHAR
STARTCHAR macron
ENCODING 175
SWIDTH 500 0
DWIDTH 17 0
BBX 10 2 4 20
BITMAP
ffc0
ffc0
ENDCHAR
STARTCHAR degree
ENCODING 176
SWIDTH 329 0
DWIDTH 11 0
BBX 9 9 1 14
BITMAP
3e00
6300
c180
8080
8080
8080
c180
6300
3e00
ENDCHAR
STARTCHAR plusminus
ENCODING 177
SWIDTH 833 0
DWIDTH 28 0
BBX 20 19 4 0
BITMAP
006000
006000
006000
006000
006000
006000
fffff0
fffff0
006000
006000
006000
006000
006000
006000
000000
000000
000000
fffff0
fffff0
ENDCHAR
STARTCHAR twosuperior
ENCODING 178
SWIDTH 367 0
DWIDTH 12 0
BBX 10 14 1 9
BITMAP
3f00
4180
c0c0
c0c0
00c0
00c0
0180
0300
0600
1800
3040
4040
ffc0
ffc0
ENDCHAR
STARTCHAR threesuperior
ENCODING 179
SWIDTH 367 0
DWIDTH 12 0
BBX 10 14 1 9
BITMAP
3e00
4380
c180
c180
0180
0300
1e00
0180
00c0
00c0
c0c0
c180
c380
7e00
ENDCHAR
STARTCHAR acute
ENCODING 180
SWIDTH 500 0
DWIDTH 17 0
BBX 7 6 7 18
BITMAP
1e
1c
38
70
60
c0
ENDCHAR
STARTCHAR mu
ENCODING 181
SWIDTH 548 0
DWIDTH 18 0
BBX 18 21 -1 -7
BITMAP
0e0700
0c0600
0c0600
0c0e00
1c0e00
1c0c00
180c00
180c00
181c00
381c40
383c40
3c6cc0
3fef80
678700
600000
600000
600000
e00000
e00000
e00000
c00000
ENDCHAR
STARTCHAR paragraph
ENCODING 182
SWIDTH 484 0
DWIDTH 16 0
BBX 14 25 1 -3
BITMAP
1ffc
3f30
7f30
ff30
ff30
ff30
ff30
ff30
ff30
7f30
7f30
3f30
0f30
0030
0030
0030
0030
0030
0030
0030
0030
0030
0030
0030
0030
ENDCHAR
STARTCHAR periodcentered
ENCODING 183
SWIDTH 278 0
DWIDTH 9 0
BBX 4 4 3 9
BITMAP
60
f0
f0
60
ENDCHAR
STARTCHAR cedilla
ENCODING 184
SWIDTH 500 0
DWIDTH 17 0
BBX 6 7 6 -7
BITMAP
20
20
38
0c
0c
0c
f8
ENDCHAR
STARTCHAR onesuperior
ENCODING 185
SWIDTH 367 0
DWIDTH 12 0
BBX 8 14 2 9
BITMAP
3800
d800
1800
1800
1800
1800
1800
1800
1800
1800
1800
1800
1800
7f00
ENDCHAR
STARTCHAR ordmasculine
ENCODING 186
SWIDTH 405 0
DWIDTH 13 0
BBX 11 11 1 11
BITMAP
1f00
7180
60c0
c060
c060
c060
c060
c060
60c0
71c0
1f00
ENDCHAR
STARTCHAR guillemotright
ENCODING 187
SWIDTH 442 0
DWIDTH 15 0
BBX 12 11 2 2
BITMAP
8200
c100
e1c0
38e0
1870
0830
1870
38e0
61c0
c180
8200
ENDCHAR
STARTCHAR onequarter
ENCODING 188
SWIDTH 867 0
DWIDTH 29 0
BBX 28 23 1 -1
BITMAP
00000c00
38001800
d8003000
18003000
18006000
18006000
1800c000
18018000
18018000
18030000
180600c0
180601c0
7f0c03c0
001806c0
00180cc0
003018c0
003030c0
006060c0
00c07ff0
00c000c0
018000c0
030000c0
000000c0
ENDCHAR
STARTCHAR onehalf
ENCODING 189
SWIDTH 867 0
DWIDTH 29 0
BBX 27 22 1 0
BITMAP
00000c00
38001800
d8003000
18003000
18006000
18006000
1800c000
18018000
18018000
18030000
18061f80
180620c0
7f0c6060
00186060
00180060
00300060
003000c0
00600380
00c00600
00c01800
01802020
03007fe0
ENDCHAR
STARTCHAR threequarters
ENCODING 190
SWIDTH 867 0
DWIDTH 29 0
BBX 28 23 1 -1
BITMAP
00000c00
3e001800
41803000
c1803000
01806000
03006000
1e00c000
01818000
00c18000
00c30000
c0c600c0
c38601c0
7e0c03c0
001806c0
00180cc0
003018c0
003030c0
006060c0
00c07ff0
00c000c0
018000c0
030000c0
000000c0
ENDCHAR
STARTCHAR questiondown
ENCODING 191
SWIDTH 486 0
DWIDTH 16 0
BBX 12 22 2 0
BITMAP
0300
0780
0780
0300
0000
0000
0300
0300
0300
0300
0700
1c00
3800
7000
e000
e000
e000
e000
e060
7070
38f0
1fc0
ENDCHAR
STARTCHAR Agrave
ENCODING 192
SWIDTH 639 0
DWIDTH 21 0
BBX 22 31 0 0
BITMAP
078000
038000
01c000
00e000
006000
003000
000000
000000
000000
003000
007800
007800
007800
00dc00
00dc00
019e00
018e00
018e00
030700
030700
030700
060380
07ff80
0c01c0
0c01c0
0c01c0
1800e0
1800e0
3000f0
300070
fe03fc
ENDCHAR
STARTCHAR Aacute
ENCODING 193
SWIDTH 639 0
DWIDTH 21 0
BBX 22 31 0 0
BITMAP
000f00
000e00
001c00
003800
003000
006000
000000
000000
000000
003000
007800
007800
007800
00dc00
00dc00
019e00
018e00
018e00
030700
030700
030700
060380
07ff80
0c01c0
0c01c0
0c01c0
1800e0
1800e0
3000f0
300070
fe03fc
ENDCHAR
STARTCHAR Acircumflex
ENCODING 194
SWIDTH 639 0
DWIDTH 21 0
BBX 22 31 0 0
BITMAP
003000
007800
00cc00
00cc00
018600
030300
000000
000000
000000
003000
007800
007800
007800
00dc00
00dc00
019e00
018e00
018e00
030700
030700
030700
060380
07ff80
0c01c0
0c01c0
0c01c0
1800e0
1800e0
3000f0
300070
fe03fc
ENDCHAR
STARTCHAR Atilde
ENCODING 195
SWIDTH 639 0
DWIDTH 21 0
BBX 22 30 0 0
BITMAP
008100
01f300
033e00
020400
000000
000000
000000
000000
003000
007800
007800
007800
00dc00
00dc00
019e00
018e00
018e00
030700
030700
030700
060380
07ff80
0c01c0
0c01c0
0c01c0
1800e0
1800e0
3000f0
300070
fe03fc
ENDCHAR
STARTCHAR Adieresis
ENCODING 196
SWIDTH 639 0
DWIDTH 21 0
BBX 22 30 0 0
BITMAP
038e00
038e00
038e00
000000
000000
000000
000000
000000
003000
007800
007800
007800
00dc00
00dc00
019e00
018e00
018e00
030700
030700
030700
060380
07ff80
0c01c0
0c01c0
0c01c0
1800e0
1800e0
3000f0
300070
fe03fc
ENDCHAR
STARTCHAR Aring
ENCODING 197
SWIDTH 639 0
DWIDTH 21 0
BBX 22 32 0 0
BITMAP
007000
00f800
018c00
010400
010400
018c00
00f800
007000
000000
000000
003000
007800
007800
007800
00dc00
00dc00
019e00
018e00
018e00
030700
030700
030700
060380
07ff80
0c01c0
0c01c0
0c01c0
1800e0
1800e0
3000f0
300070
fe03fc
ENDCHAR
STARTCHAR AE
ENCODING 198
SWIDTH 866 0
DWIDTH 29 0
BBX 30 22 -2 0
BITMAP
001ffff8
0007e038
0006e018
000ee018
000ce018
0018e000
0018e000
0030e040
0060e040
0060e040
00c0ffc0
0180e040
01ffe040
0300e000
0200e000
0600e000
0c00e00c
0c00e00c
1800e00c
1800e00c
3000e01c
fe03fffc
ENDCHAR
STARTCHAR Ccedilla
ENCODING 199
SWIDTH 632 0
DWIDTH 21 0
BBX 19 29 1 -7
BITMAP
01ffc0
0f81e0
1e00e0
3c0060
780060
700060
700000
e00000
e00000
e00000
e00000
e00000
e00000
e00000
f00000
700000
700060
380060
3c0060
1e00e0
0f80e0
01ffc0
002000
002000
003800
000c00
000c00
000c00
00f800
ENDCHAR
STARTCHAR Egrave
ENCODING 200
SWIDTH 576 0
DWIDTH 19 0
BBX 17 31 1 0
BITMAP
1e0000
0e0000
070000
038000
018000
00c000
000000
000000
000000
ffff00
1c0700
1c0300
1c0300
1c0300
1c0000
1c0000
1c0800
1c0800
1c0800
1ff800
1c0800
1c0800
1c0800
1c0000
1c0000
1c0000
1c0180
1c0180
1c0180
1c0380
ffff80
ENDCHAR
STARTCHAR Eacute
ENCODING 201
SWIDTH 576 0
DWIDTH 19 0
BBX 17 31 1 0
BITMAP
003c00
003800
007000
00e000
00c000
018000
000000
000000
000000
ffff00
1c0700
1c0300
1c0300
1c0300
1c0000
1c0000
1c0800
1c0800
1c0800
1ff800
1c0800
1c0800
1c0800
1c0000
1c0000
1c0000
1c0180
1c0180
1c0180
1c0380
ffff80
ENDCHAR
STARTCHAR Ecircumflex
ENCODING 202
SWIDTH 576 0
DWIDTH 19 0
BBX 17 31 1 0
BITMAP
00c000
01e000
033000
033000
061800
0c0c00
000000
000000
000000
ffff00
1c0700
1c0300
1c0300
1c0300
1c0000
1c0000
1c0800
1c0800
1c0800
1ff800
1c0800
1c0800
1c0800
1c0000
1c0000
1c0000
1c0180
1c0180
1c0180
1c0380
ffff80
ENDCHAR
STARTCHAR Edieresis
ENCODING 203
SWIDTH 576 0
DWIDTH 19 0
BBX 17 30 1 0
BITMAP
0e3800
0e3800
0e3800
000000
000000
000000
000000
000000
ffff00
1c0700
1c0300
1c0300
1c0300
1c0000
1c0000
1c0800
1c0800
1c0800
1ff800
1c0800
1c0800
1c0800
1c0000
1c0000
1c0000
1c0180
1c0180
1c0180
1c0380
ffff80
ENDCHAR
STARTCHAR Igrave
ENCODING 204
SWIDTH 324 0
DWIDTH 11 0
BBX 10 31 0 0
BITMAP
f000
7000
3800
1c00
0c00
0600
0000
0000
0000
7fc0
0e00
0e00
0e00
0e00
0e00
0e00
0e00
0e00
0e00
0e00
0e00
0e00
0e00
0e00
0e00
0e00
0e00
0e00
0e00
0e00
7fc0
ENDCHAR
STARTCHAR Iacute
ENCODING 205
SWIDTH 324 0
DWIDTH 11 0
BBX 10 31 1 0
BITMAP
03c0
0380
0700
0e00
0c00
1800
0000
0000
0000
ff80
1c00
1c00
1c00
1c00
1c00
1c00
1c00
1c00
1c00
1c00
1c00
1c00
1c00
1c00
1c00
1c00
1c00
1c00
1c00
1c00
ff80
ENDCHAR
STARTCHAR Icircumflex
ENCODING 206
SWIDTH 324 0
DWIDTH 11 0
BBX 10 31 1 0
BITMAP
0c00
1e00
3300
3300
6180
c0c0
0000
0000
0000
ff80
1c00
1c00
1c00
1c00
1c00
1c00
1c00
1c00
1c00
1c00
1c00
1c00
1c00
1c00
1c00
1c00
1c00
1c00
1c00
1c00
ff80
ENDCHAR
STARTCHAR Idieresis
ENCODING 207
SWIDTH 324 0
DWIDTH 11 0
BBX 9 30 1 0
BITMAP
e380
e380
e380
0000
0000
0000
0000
0000
ff80
1c00
1c00
1c00
1c00
1c00
1c00
1c00
1c00
1c00
1c00
1c00
1c00
1c00
1c00
1c00
1c00
1c00
1c00
1c00
1c00
ff80
ENDCHAR
STARTCHAR Eth
ENCODING 208
SWIDTH 694 0
DWIDTH 23 0
BBX 22 22 0 0
BITMAP
7ffe00
0e07c0
0e01e0
0e00f0
0e0070
0e0038
0e0038
0e001c
0e001c
0e001c
fff81c
0e001c
0e001c
0e001c
0e001c
0e0038
0e0038
0e0070
0e00f0
0e01e0
0e07c0
7ffe00
ENDCHAR
STARTCHAR Ntilde
ENCODING 209
SWIDTH 713 0
DWIDTH 24 0
BBX 22 30 1 0
BITMAP
004080
00f980
019f00
010200
000000
000000
000000
000000
fe01fc
1e0060
1f0060
1f0060
1b8060
1bc060
19c060
18e060
18e060
187060
183860
183860
181c60
181c60
180e60
180760
180760
1803e0
1803e0
1801e0
1800e0
fe00e0
ENDCHAR
STARTCHAR Ograve
ENCODING 210
SWIDTH 731 0
DWIDTH 24 0
BBX 22 31 1 0
BITMAP
078000
038000
01c000
00e000
006000
003000
000000
000000
000000
03ff00
0f03c0
1e01e0
380070
780078
700038
700038
e0001c
e0001c
e0001c
e0001c
e0001c
e0001c
e0001c
e0001c
700038
700038
780078
380070
1e01e0
0f03c0
03ff00
ENDCHAR
STARTCHAR Oacute
ENCODING 211
SWIDTH 731 0
DWIDTH 24 0
BBX 22 31 1 0
BITMAP
000f00
000e00
001c00
003800
003000
006000
000000
000000
000000
03ff00
0f03c0
1e01e0
380070
780078
700038
700038
e0001c
e0001c
e0001c
e0001c
e0001c
e0001c
e0001c
e0001c
700038
700038
780078
380070
1e01e0
0f03c0
03ff00
ENDCHAR
STARTCHAR Ocircumflex
ENCODING 212
SWIDTH 731 0
DWIDTH 24 0
BBX 22 31 1 0
BITMAP
003000
007800
00cc00
00cc00
018600
030300
000000
000000
000000
03ff00
0f03c0
1e01e0
380070
780078
700038
700038
e0001c
e0001c
e0001c
e0001c
e0001c
e0001c
e0001c
e0001c
700038
700038
780078
380070
1e01e0
0f03c0
03ff00
ENDCHAR
STARTCHAR Otilde
ENCODING 213
SWIDTH 731 0
DWIDTH 24 0
BBX 22 30 1 0
BITMAP
008100
01f300
033e00
020400
000000
000000
000000
000000
03ff00
0f03c0
1e01e0
380070
780078
700038
700038
e0001c
e0001c
e0001c
e0001c
e0001c
e0001c
e0001c
e0001c
700038
700038
780078
380070
1e01e0
0f03c0
03ff00
ENDCHAR
STARTCHAR Odieresis
ENCODING 214
SWIDTH 731 0
DWIDTH 24 0
BBX 22 30 1 0
BITMAP
038e00
038e00
038e00
000000
000000
000000
000000
000000
03ff00
0f03c0
1e01e0
380070
780078
700038
700038
e0001c
e0001c
e0001c
e0001c
e0001c
e0001c
e0001c
e0001c
700038
700038
780078
380070
1e01e0
0f03c0
03ff00
ENDCHAR
STARTCHAR multiply
ENCODING 215
SWIDTH 833 0
DWIDTH 28 0
BBX 18 18 5 1
BITMAP
400080
e001c0
700380
380700
1c0e00
0e1c00
073800
03f000
01e000
01e000
03f000
073800
0e1c00
1c0e00
380700
700380
e001c0
400080
ENDCHAR
STARTCHAR Oslash
ENCODING 216
SWIDTH 731 0
DWIDTH 24 0
BBX 22 26 1 -2
BITMAP
000030
000060
01ff60
0f03c0
1e01e0
3801f0
780378
700638
700638
e00c1c
e0181c
e0181c
e0301c
e0601c
e0601c
e0c01c
e1801c
718038
730038
7b0078
3e0070
1c01e0
0f03c0
1bfe00
300000
200000
ENDCHAR
STARTCHAR Ugrave
ENCODING 217
SWIDTH 694 0
DWIDTH 23 0
BBX 21 31 1 0
BITMAP
03c000
01c000
00e000
007000
003000
001800
000000
000000
000000
ff03f8
1c00c0
1c00c0
1c00c0
1c00c0
1c00c0
1c00c0
1c00c0
1c00c0
1c00c0
1c00c0
1c00c0
1c00c0
1c00c0
1c00c0
1c00c0
1c00c0
1e01c0
0e0180
0f0300
07fe00
01fc00
ENDCHAR
STARTCHAR Uacute
ENCODING 218
SWIDTH 694 0
DWIDTH 23 0
BBX 21 31 1 0
BITMAP
000780
000700
000e00
001c00
001800
003000
000000
000000
000000
ff03f8
1c00c0
1c00c0
1c00c0
1c00c0
1c00c0
1c00c0
1c00c0
1c00c0
1c00c0
1c00c0
1c00c0
1c00c0
1c00c0
1c00c0
1c00c0
1c00c0
1e01c0
0e0180
0f0300
07fe00
01fc00
ENDCHAR
STARTCHAR Ucircumflex
ENCODING 219
SWIDTH 694 0
DWIDTH 23 0
BBX 21 31 1 0
BITMAP
001800
003c00
006600
006600
00c300
018180
000000
000000
000000
ff03f8
1c00c0
1c00c0
1c00c0
1c00c0
1c00c0
1c00c0
1c00c0
1c00c0
1c00c0
1c00c0
1c00c0
1c00c0
1c00c0
1c00c0
1c00c0
1c00c0
1e01c0
0e0180
0f0300
07fe00
01fc00
ENDCHAR
STARTCHAR Udieresis
ENCODING 220
SWIDTH 694 0
DWIDTH 23 0
BBX 21 30 1 0
BITMAP
01c700
01c700
01c700
000000
000000
000000
000000
000000
ff03f8
1c00c0
1c00c0
1c00c0
1c00c0
1c00c0
1c00c0
1c00c0
1c00c0
1c00c0
1c00c0
1c00c0
1c00c0
1c00c0
1c00c0
1c00c0
1c00c0
1e01c0
0e0180
0f0300
07fe00
01fc00
ENDCHAR
STARTCHAR Yacute
ENCODING 221
SWIDTH 586 0
DWIDTH 20 0
BBX 21 31 0 0
BITMAP
001e00
001c00
003800
007000
006000
00c000
000000
000000
000000
ff03f8
3c00e0
1c00c0
1e00c0
0e0180
070300
070300
038600
03ce00
01cc00
01f800
00f800
007000
007000
007000
007000
007000
007000
007000
007000
007000
03fe00
ENDCHAR
STARTCHAR Thorn
ENCODING 222
SWIDTH 558 0
DWIDTH 19 0
BBX 17 22 1 0
BITMAP
ff8000
1c0000
1c0000
1c0000
1ffc00
1c1e00
1c0700
1c0780
1c0380
1c0380
1c0380
1c0380
1c0380
1c0700
1c0700
1c1e00
1ff800
1c0000
1c0000
1c0000
1c0000
ff8000
ENDCHAR
STARTCHAR germandbls
ENCODING 223
SWIDTH 609 0
DWIDTH 20 0
BBX 18 24 1 0
BITMAP
01f800
071c00
0e0c00
1c0e00
1c0e00
180e00
380e00
380e00
383c00
387000
386000
386000
386000
387000
387c00
383e00
380f80
3807c0
3803c0
3841c0
3841c0
384180
386380
fe7e00
ENDCHAR
STARTCHAR agrave
ENCODING 224
SWIDTH 507 0
DWIDTH 17 0
BBX 15 24 1 0
BITMAP
3c00
1c00
0e00
0700
0300
0180
0000
0000
0fe0
3070
7038
7038
0038
0038
00f8
0f38
3c38
7038
e038
e038
e038
f078
79f8
3f3e
ENDCHAR
STARTCHAR aacute
ENCODING 225
SWIDTH 507 0
DWIDTH 17 0
BBX 15 24 1 0
BITMAP
0078
0070
00e0
01c0
0180
0300
0000
0000
0fe0
3070
7038
7038
0038
0038
00f8
0f38
3c38
7038
e038
e038
e038
f078
79f8
3f3e
ENDCHAR
STARTCHAR acircumflex
ENCODING 226
SWIDTH 507 0
DWIDTH 17 0
BBX 15 24 1 0
BITMAP
0180
03c0
0660
0660
0c30
1818
0000
0000
0fe0
3070
7038
7038
0038
0038
00f8
0f38
3c38
7038
e038
e038
e038
f078
79f8
3f3e
ENDCHAR
STARTCHAR atilde
ENCODING 227
SWIDTH 507 0
DWIDTH 17 0
BBX 15 23 1 0
BITMAP
0408
0f98
19f0
1020
0000
0000
0000
0fe0
3070
7038
7038
0038
0038
00f8
0f38
3c38
7038
e038
e038
e038
f078
79f8
3f3e
ENDCHAR
STARTCHAR adieresis
ENCODING 228
SWIDTH 507 0
DWIDTH 17 0
BBX 15 23 1 0
BITMAP
1c70
1c70
1c70
0000
0000
0000
0000
0fe0
3070
7038
7038
0038
0038
00f8
0f38
3c38
7038
e038
e038
e038
f078
79f8
3f3e
ENDCHAR
STARTCHAR aring
ENCODING 229
SWIDTH 507 0
DWIDTH 17 0
BBX 15 26 1 0
BITMAP
0780
0fc0
0c60
1820
1820
0c60
0fc0
0780
0000
0000
0fe0
3070
7038
7038
0038
0038
00f8
0f38
3c38
7038
e038
e038
e038
f078
79f8
3f3e
ENDCHAR
STARTCHAR ae
ENCODING 230
SWIDTH 725 0
DWIDTH 24 0
BBX 22 16 1 0
BITMAP
0fe3e0
387e38
703c18
70381c
00381c
00381c
01fffc
1f3800
783800
703800
e03800
e03800
e03c04
f0fe0c
7f8ff8
3e03e0
ENDCHAR
STARTCHAR ccedilla
ENCODING 231
SWIDTH 446 0
DWIDTH 15 0
BBX 13 23 1 -7
BITMAP
07e0
1c38
3838
7038
7030
e000
e000
e000
e000
e000
e000
7000
7800
3c18
1ff8
07e0
0100
0100
01c0
0060
0060
0060
07c0
ENDCHAR
STARTCHAR egrave
ENCODING 232
SWIDTH 491 0
DWIDTH 16 0
BBX 14 24 1 0
BITMAP
3c00
1c00
0e00
0700
0300
0180
0000
0000
0fe0
1c78
3038
701c
601c
e01c
fffc
e000
e000
e000
e000
7000
7000
7804
3e1c
0ff0
ENDCHAR
STARTCHAR eacute
ENCODING 233
SWIDTH 491 0
DWIDTH 16 0
BBX 14 24 1 0
BITMAP
0078
0070
00e0
01c0
0180
0300
0000
0000
0fe0
1c78
3038
701c
601c
e01c
fffc
e000
e000
e000
e000
7000
7000
7804
3e1c
0ff0
ENDCHAR
STARTCHAR ecircumflex
ENCODING 234
SWIDTH 491 0
DWIDTH 16 0
BBX 14 24 1 0
BITMAP
0180
03c0
0660
0660
0c30
1818
0000
0000
0fe0
1c78
3038
701c
601c
e01c
fffc
e000
e000
e000
e000
7000
7000
7804
3e1c
0ff0
ENDCHAR
STARTCHAR edieresis
ENCODING 235
SWIDTH 491 0
DWIDTH 16 0
BBX 14 23 1 0
BITMAP
1c70
1c70
1c70
0000
0000
0000
0000
0fe0
1c78
3038
701c
601c
e01c
fffc
e000
e000
e000
e000
7000
7000
7804
3e1c
0ff0
ENDCHAR
STARTCHAR igrave
ENCODING 236
SWIDTH 280 0
DWIDTH 9 0
BBX 9 24 -1 0
BITMAP
f000
7000
3800
1c00
0c00
0600
0000
0000
0e00
3e00
0e00
0e00
0e00
0e00
0e00
0e00
0e00
0e00
0e00
0e00
0e00
0e00
0e00
3f80
ENDCHAR
STARTCHAR iacute
ENCODING 237
SWIDTH 280 0
DWIDTH 9 0
BBX 9 24 1 0
BITMAP
0780
0700
0e00
1c00
1800
3000
0000
0000
3800
f800
3800
3800
3800
3800
3800
3800
3800
3800
3800
3800
3800
3800
3800
fe00
ENDCHAR
STARTCHAR icircumflex
ENCODING 238
SWIDTH 280 0
DWIDTH 9 0
BBX 10 24 0 0
BITMAP
0c00
1e00
3300
3300
6180
c0c0
0000
0000
1c00
7c00
1c00
1c00
1c00
1c00
1c00
1c00
1c00
1c00
1c00
1c00
1c00
1c00
1c00
7f00
ENDCHAR
STARTCHAR idieresis
ENCODING 239
SWIDTH 280 0
DWIDTH 9 0
BBX 9 23 0 0
BITMAP
e380
e380
e380
0000
0000
0000
0000
1c00
7c00
1c00
1c00
1c00
1c00
1c00
1c00
1c00
1c00
1c00
1c00
1c00
1c00
1c00
7f00
ENDCHAR
STARTCHAR eth
ENCODING 240
SWIDTH 528 0
DWIDTH 18 0
BBX 16 24 1 0
BITMAP
060800
1f1c00
03f000
01c000
07e000
1c7000
107800
003800
07fc00
1c0e00
380e00
700e00
700700
e00700
e00700
e00700
e00700
e00700
e00600
700e00
700e00
381c00
1c3800
0fe000
ENDCHAR
STARTCHAR ntilde
ENCODING 241
SWIDTH 569 0
DWIDTH 19 0
BBX 17 23 1 0
BITMAP
020400
07cc00
0cf800
081000
000000
000000
000000
39f800
fffc00
3c1e00
380e00
380e00
380e00
380e00
380e00
380e00
380e00
380e00
380e00
380e00
380e00
380e00
fe3f80
ENDCHAR
STARTCHAR ograve
ENCODING 242
SWIDTH 539 0
DWIDTH 18 0
BBX 16 24 1 0
BITMAP
1e0000
0e0000
070000
038000
018000
00c000
000000
000000
07f000
1c3c00
381c00
700e00
700e00
e00700
e00700
e00700
e00700
e00700
e00700
700e00
700e00
381c00
1c3800
0fe000
ENDCHAR
STARTCHAR oacute
ENCODING 243
SWIDTH 539 0
DWIDTH 18 0
BBX 16 24 1 0
BITMAP
003c00
003800
007000
00e000
00c000
018000
000000
000000
07f000
1c3c00
381c00
700e00
700e00
e00700
e00700
e00700
e00700
e00700
e00700
700e00
700e00
381c00
1c3800
0fe000
ENDCHAR
STARTCHAR ocircumflex
ENCODING 244
SWIDTH 539 0
DWIDTH 18 0
BBX 16 24 1 0
BITMAP
00c000
01e000
033000
033000
061800
0c0c00
000000
000000
07f000
1c3c00
381c00
700e00
700e00
e00700
e00700
e00700
e00700
e00700
e00700
700e00
700e00
381c00
1c3800
0fe000
ENDCHAR
STARTCHAR otilde
ENCODING 245
SWIDTH 539 0
DWIDTH 18 0
BBX 16 23 1 0
BITMAP
020400
07cc00
0cf800
081000
000000
000000
000000
07f000
1c3c00
381c00
700e00
700e00
e00700
e00700
e00700
e00700
e00700
e00700
700e00
700e00
381c00
1c3800
0fe000
ENDCHAR
STARTCHAR odieresis
ENCODING 246
SWIDTH 539 0
DWIDTH 18 0
BBX 16 23 1 0
BITMAP
0e3800
0e3800
0e3800
000000
000000
000000
000000
07f000
1c3c00
381c00
700e00
700e00
e00700
e00700
e00700
e00700
e00700
e00700
700e00
700e00
381c00
1c3800
0fe000
ENDCHAR
STARTCHAR divide
ENCODING 247
SWIDTH 833 0
DWIDTH 28 0
BBX 20 16 4 2
BITMAP
006000
00f000
00f000
006000
000000
000000
000000
fffff0
fffff0
000000
000000
000000
006000
00f000
00f000
006000
ENDCHAR
STARTCHAR oslash
ENCODING 248
SWIDTH 539 0
DWIDTH 18 0
BBX 16 20 1 -2
BITMAP
000600
000c00
07f800
1c3800
383c00
702e00
706e00
e0c700
e08700
e18700
e10700
e30700
e60700
740e00
7c0e00
381c00
1c3800
3fe000
200000
600000
ENDCHAR
STARTCHAR ugrave
ENCODING 249
SWIDTH 569 0
DWIDTH 19 0
BBX 17 24 1 0
BITMAP
1e0000
0e0000
070000
038000
018000
00c000
000000
000000
380e00
f83e00
380e00
380e00
380e00
380e00
380e00
380e00
380e00
380e00
380e00
380e00
380e00
3c1e00
1fee00
0fcf80
ENDCHAR
STARTCHAR uacute
ENCODING 250
SWIDTH 569 0
DWIDTH 19 0
BBX 17 24 1 0
BITMAP
003c00
003800
007000
00e000
00c000
018000
000000
000000
380e00
f83e00
380e00
380e00
380e00
380e00
380e00
380e00
380e00
380e00
380e00
380e00
380e00
3c1e00
1fee00
0fcf80
ENDCHAR
STARTCHAR ucircumflex
ENCODING 251
SWIDTH 569 0
DWIDTH 19 0
BBX 17 24 1 0
BITMAP
00c000
01e000
033000
033000
061800
0c0c00
000000
000000
380e00
f83e00
380e00
380e00
380e00
380e00
380e00
380e00
380e00
380e00
380e00
380e00
380e00
3c1e00
1fee00
0fcf80
ENDCHAR
STARTCHAR udieresis
ENCODING 252
SWIDTH 569 0
DWIDTH 19 0
BBX 17 23 1 0
BITMAP
0e3800
0e3800
0e3800
000000
000000
000000
000000
380e00
f83e00
380e00
380e00
380e00
380e00
380e00
380e00
380e00
380e00
380e00
380e00
380e00
3c1e00
1fee00
0fcf80
ENDCHAR
STARTCHAR yacute
ENCODING 253
SWIDTH 495 0
DWIDTH 16 0
BBX 17 31 0 -7
BITMAP
003c00
003800
007000
00e000
00c000
018000
000000
000000
fe1f80
380600
180600
1c0c00
1c0c00
0c0800
0e1800
0e1800
071000
073000
032000
03e000
03e000
01c000
01c000
018000
018000
018000
030000
030000
760000
7c0000
380000
ENDCHAR
STARTCHAR thorn
ENCODING 254
SWIDTH 551 0
DWIDTH 18 0
BBX 16 31 1 -7
BITMAP
380000
f80000
380000
380000
380000
380000
380000
380000
39f000
3bfc00
3c3c00
380e00
380e00
380700
380700
380700
380700
380700
380700
380e00
380e00
381c00
383800
3fe000
380000
380000
380000
380000
380000
380000
ff0000
ENDCHAR
STARTCHAR ydieresis
ENCODING 255
SWIDTH 495 0
DWIDTH 16 0
BBX 17 30 0 -7
BITMAP
0e3800
0e3800
0e3800
000000
000000
000000
000000
fe1f80
380600
180600
1c0c00
1c0c00
0c0800
0e1800
0e1800
071000
073000
032000
03e000
03e000
01c000
01c000
018000
018000
018000
030000
030000
760000
7c0000
380000
ENDCHAR
ENDFONT
