STARTFONT 2.1
COMMENT  
COMMENT  Copyright 1988 Bitstream, Inc., Cambridge, Massachusetts, USA
COMMENT  Bitstream and Charter are registered trademarks of Bitstream, Inc.
COMMENT  
COMMENT  The names "Bitstream" and "Charter" are registered trademarks of
COMMENT  Bitstream, Inc.  Permission to use these trademarks is hereby
COMMENT  granted only in association with the images described in this file.
COMMENT  
COMMENT  Permission to use, copy, modify, and distribute this software and
COMMENT  its documentation for any purpose and without fee is hereby
COMMENT  granted, provided that the above copyright notice appear in all
COMMENT  copies and that both that copyright notice and this permission
COMMENT  notice appear in supporting documentation, and that the name of
COMMENT  Bitstream not be used in advertising or publicity pertaining to
COMMENT  distribution of the software without specific, written prior
COMMENT  permission.  Bitstream makes no representations about the
COMMENT  suitability of this software for any purpose.  It is provided "as
COMMENT  is" without express or implied warranty.
COMMENT  
COMMENT  BITSTREAM DISCLAIMS ALL WARRANTIES WITH REGARD TO THIS SOFTWARE,
COMMENT  INCLUDING ALL IMPLIED WARRANTIES OF MERCHANTABILITY AND FITNESS, IN
COMMENT  NO EVENT SHALL BITSTREAM BE LIABLE FOR ANY SPECIAL, INDIRECT OR
COMMENT  CONSEQUENTIAL DAMAGES OR ANY DAMAGES WHATSOEVER RESULTING FROM LOSS
COMMENT  OF USE, DATA OR PROFITS, WHETHER IN AN ACTION OF CONTRACT,
COMMENT  NEGLIGENCE OR OTHER TORTIOUS ACTION, ARISING OUT OF OR IN
COMMENT  CONNECTION WITH THE USE OR PERFORMANCE OF THIS SOFTWARE.
COMMENT  
COMMENT  
COMMENT Fontware CVTBDF v1.0
FONT -Bitstream-Charter-Bold-R-Normal--17-120-100-100-P-107-ISO8859-1
SIZE 12 100 100
FONTBOUNDINGBOX 18 20 -1 -4
STARTPROPERTIES 22
COMMENT Begin LogicalFontDescription
FONTNAME_REGISTRY ""
FAMILY_NAME "Charter"
FOUNDRY "Bitstream"
WEIGHT_NAME "Bold"
SETWIDTH_NAME "Normal"
SLANT "R"
ADD_STYLE_NAME ""
PIXEL_SIZE 17
POINT_SIZE 120
RESOLUTION_X 100
RESOLUTION_Y 100
SPACING "P"
AVERAGE_WIDTH 107
CHARSET_REGISTRY "ISO8859"
CHARSET_ENCODING "1"
COMMENT END LogicalFontDescription
FONT_DESCENT 4
FONT_ASCENT 16
CAP_HEIGHT 11
X_HEIGHT 8
CHARSET_COLLECTIONS "ASCII ISOLATIN1"
FULL_NAME "Bitstream Charter Black"
COPYRIGHT "Copyright 1987 by Bitstream Inc. Charter Registered trademark of Bitstream Inc."
COMMENT ****** end of font properties
ENDPROPERTIES
CHARS 191
STARTCHAR space
ENCODING 32
SWIDTH 322 0
DWIDTH 5 0
BBX 1 1 0 0
BITMAP
00
ENDCHAR
STARTCHAR exclam
ENCODING 33
SWIDTH 343 0
DWIDTH 6 0
BBX 3 11 1 0
BITMAP
e0
e0
e0
e0
40
40
40
00
e0
e0
e0
ENDCHAR
STARTCHAR quotedbl
ENCODING 34
SWIDTH 339 0
DWIDTH 7 0
BBX 5 5 1 7
BITMAP
d8
d8
d8
c8
48
ENDCHAR
STARTCHAR numbersign
ENCODING 35
SWIDTH 769 0
DWIDTH 13 0
BBX 11 12 1 0
BITMAP
06c0
04c0
0c80
0880
7fe0
1900
1300
ffc0
3200
2600
6400
6c00
ENDCHAR
STARTCHAR dollar
ENCODING 36
SWIDTH 644 0
DWIDTH 11 0
BBX 10 15 1 -2
BITMAP
0800
0800
3f80
6980
e980
e800
fe00
7f80
1fc0
0bc0
c9c0
cb80
ff00
0800
0800
ENDCHAR
STARTCHAR percent
ENCODING 37
SWIDTH 972 0
DWIDTH 16 0
BBX 14 11 1 0
BITMAP
7860
4c40
cc80
cc80
cd78
5b68
7acc
04cc
0ccc
08cc
1078
ENDCHAR
STARTCHAR ampersand
ENCODING 38
SWIDTH 822 0
DWIDTH 14 0
BBX 13 11 1 0
BITMAP
1e00
7380
7380
7b00
3e78
3e20
ef60
e7c0
f3c0
7fe0
3cf8
ENDCHAR
STARTCHAR quoteright
ENCODING 39
SWIDTH 331 0
DWIDTH 5 0
BBX 3 6 1 6
BITMAP
c0
e0
e0
60
40
80
ENDCHAR
STARTCHAR parenleft
ENCODING 40
SWIDTH 440 0
DWIDTH 7 0
BBX 5 14 1 -2
BITMAP
18
30
70
60
e0
e0
e0
e0
e0
e0
60
70
30
18
ENDCHAR
STARTCHAR parenright
ENCODING 41
SWIDTH 440 0
DWIDTH 7 0
BBX 5 14 1 -2
BITMAP
c0
60
70
30
38
38
38
38
38
38
30
30
60
c0
ENDCHAR
STARTCHAR asterisk
ENCODING 42
SWIDTH 500 0
DWIDTH 8 0
BBX 6 6 1 6
BITMAP
30
30
dc
30
78
48
ENDCHAR
STARTCHAR plus
ENCODING 43
SWIDTH 833 0
DWIDTH 14 0
BBX 9 11 3 0
BITMAP
0800
0800
0800
0800
0800
ff80
0800
0800
0800
0800
0800
ENDCHAR
STARTCHAR comma
ENCODING 44
SWIDTH 322 0
DWIDTH 5 0
BBX 3 6 1 -3
BITMAP
c0
e0
e0
60
40
80
ENDCHAR
STARTCHAR hyphen
ENCODING 45
SWIDTH 333 0
DWIDTH 6 0
BBX 5 2 1 3
BITMAP
f8
f8
ENDCHAR
STARTCHAR period
ENCODING 46
SWIDTH 322 0
DWIDTH 5 0
BBX 3 3 1 0
BITMAP
e0
e0
e0
ENDCHAR
STARTCHAR slash
ENCODING 47
SWIDTH 500 0
DWIDTH 9 0
BBX 9 13 0 -2
BITMAP
0180
0100
0300
0600
0400
0c00
0800
1800
1000
3000
6000
4000
c000
ENDCHAR
STARTCHAR zero
ENCODING 48
SWIDTH 644 0
DWIDTH 11 0
BBX 10 11 1 0
BITMAP
1e00
7380
6180
e1c0
e1c0
e1c0
e1c0
e1c0
6180
7380
3f00
ENDCHAR
STARTCHAR one
ENCODING 49
SWIDTH 644 0
DWIDTH 11 0
BBX 6 11 3 0
BITMAP
38
f8
38
38
38
38
38
38
38
38
fc
ENDCHAR
STARTCHAR two
ENCODING 50
SWIDTH 644 0
DWIDTH 11 0
BBX 9 11 1 0
BITMAP
3e00
e780
e380
e380
0380
0700
0e00
1c00
7080
ff80
ff80
ENDCHAR
STARTCHAR three
ENCODING 51
SWIDTH 644 0
DWIDTH 11 0
BBX 9 11 1 0
BITMAP
3e00
6700
e780
6300
0700
3e00
0700
0380
e380
e700
7e00
ENDCHAR
STARTCHAR four
ENCODING 52
SWIDTH 644 0
DWIDTH 11 0
BBX 10 12 1 -1
BITMAP
0700
0f00
1f00
1700
3700
6700
c700
ffc0
0700
0700
0700
0700
ENDCHAR
STARTCHAR five
ENCODING 53
SWIDTH 644 0
DWIDTH 11 0
BBX 9 11 1 0
BITMAP
ff00
ff00
c000
c000
ff00
0780
0380
c380
c380
e700
fe00
ENDCHAR
STARTCHAR six
ENCODING 54
SWIDTH 644 0
DWIDTH 11 0
BBX 10 11 1 0
BITMAP
0f00
3c00
7000
7000
ff80
e3c0
e1c0
e1c0
e1c0
7380
3f00
ENDCHAR
STARTCHAR seven
ENCODING 55
SWIDTH 644 0
DWIDTH 11 0
BBX 10 12 1 -1
BITMAP
ffc0
ffc0
c180
c380
0300
0600
0600
0c00
1800
1800
3000
7000
ENDCHAR
STARTCHAR eight
ENCODING 56
SWIDTH 644 0
DWIDTH 11 0
BBX 10 11 1 0
BITMAP
1f00
7380
71c0
7180
7f00
3f00
67c0
e3c0
e1c0
7180
3f00
ENDCHAR
STARTCHAR nine
ENCODING 57
SWIDTH 644 0
DWIDTH 11 0
BBX 10 11 1 0
BITMAP
3f00
7380
e1c0
e1c0
e1c0
f1c0
7f80
0380
0700
1c00
6000
ENDCHAR
STARTCHAR colon
ENCODING 58
SWIDTH 387 0
DWIDTH 6 0
BBX 3 8 2 0
BITMAP
e0
e0
e0
00
00
e0
e0
e0
ENDCHAR
STARTCHAR semicolon
ENCODING 59
SWIDTH 387 0
DWIDTH 6 0
BBX 4 11 1 -3
BITMAP
70
70
60
00
00
60
70
70
30
20
40
ENDCHAR
STARTCHAR less
ENCODING 60
SWIDTH 833 0
DWIDTH 14 0
BBX 10 9 2 1
BITMAP
0040
03c0
0e00
7800
c000
7800
0e00
03c0
0040
ENDCHAR
STARTCHAR equal
ENCODING 61
SWIDTH 833 0
DWIDTH 14 0
BBX 10 4 2 3
BITMAP
ffc0
0000
0000
ffc0
ENDCHAR
STARTCHAR greater
ENCODING 62
SWIDTH 833 0
DWIDTH 14 0
BBX 10 9 2 1
BITMAP
8000
f000
1c00
0780
00c0
0780
1c00
f000
8000
ENDCHAR
STARTCHAR question
ENCODING 63
SWIDTH 519 0
DWIDTH 9 0
BBX 8 11 0 0
BITMAP
7c00
e700
e700
0700
0e00
1c00
1000
0000
3800
3800
3800
ENDCHAR
STARTCHAR at
ENCODING 64
SWIDTH 942 0
DWIDTH 16 0
BBX 13 14 2 -2
BITMAP
07c0
1820
6010
47c8
ccc8
88c8
98c8
9890
9990
cee0
4000
6000
3860
0f80
ENDCHAR
STARTCHAR A
ENCODING 65
SWIDTH 701 0
DWIDTH 11 0
BBX 12 11 0 0
BITMAP
0600
0f00
0f00
0b00
1b80
1380
3fc0
31c0
21c0
60e0
f1f0
ENDCHAR
STARTCHAR B
ENCODING 66
SWIDTH 690 0
DWIDTH 11 0
BBX 10 11 1 0
BITMAP
ff00
7380
7380
7380
7380
7f00
73c0
71c0
71c0
73c0
ff00
ENDCHAR
STARTCHAR C
ENCODING 67
SWIDTH 683 0
DWIDTH 11 0
BBX 10 11 1 0
BITMAP
1fc0
3840
7040
e000
e000
e000
e000
e000
7040
3840
1fc0
ENDCHAR
STARTCHAR D
ENCODING 68
SWIDTH 780 0
DWIDTH 13 0
BBX 12 11 1 0
BITMAP
ff80
71c0
70e0
7070
7070
7070
7070
7070
70e0
71e0
ff80
ENDCHAR
STARTCHAR E
ENCODING 69
SWIDTH 653 0
DWIDTH 11 0
BBX 10 11 1 0
BITMAP
ff80
7180
7180
7200
7200
7e00
7200
7000
70c0
70c0
ffc0
ENDCHAR
STARTCHAR F
ENCODING 70
SWIDTH 602 0
DWIDTH 10 0
BBX 9 11 1 0
BITMAP
ff80
7080
7080
7000
7100
7f00
7100
7000
7000
7000
fc00
ENDCHAR
STARTCHAR G
ENCODING 71
SWIDTH 766 0
DWIDTH 13 0
BBX 12 11 1 0
BITMAP
1fe0
7860
7060
e000
e000
e3f0
e0e0
f0e0
70e0
38e0
1fc0
ENDCHAR
STARTCHAR H
ENCODING 72
SWIDTH 824 0
DWIDTH 14 0
BBX 13 11 1 0
BITMAP
f8f8
7070
7070
7070
7070
7ff0
7070
7070
7070
7070
f8f8
ENDCHAR
STARTCHAR I
ENCODING 73
SWIDTH 410 0
DWIDTH 6 0
BBX 5 11 1 0
BITMAP
f8
70
70
70
70
70
70
70
70
70
f8
ENDCHAR
STARTCHAR J
ENCODING 74
SWIDTH 516 0
DWIDTH 9 0
BBX 9 11 0 0
BITMAP
1f80
0700
0700
0700
0700
0700
0700
0700
c700
ce00
fc00
ENDCHAR
STARTCHAR K
ENCODING 75
SWIDTH 727 0
DWIDTH 12 0
BBX 11 11 1 0
BITMAP
f9e0
7180
7100
7200
7600
7e00
7700
7700
7380
73c0
f9e0
ENDCHAR
STARTCHAR L
ENCODING 76
SWIDTH 600 0
DWIDTH 10 0
BBX 9 11 1 0
BITMAP
f800
7000
7000
7000
7000
7000
7000
7000
7180
7180
ff80
ENDCHAR
STARTCHAR M
ENCODING 77
SWIDTH 961 0
DWIDTH 16 0
BBX 15 11 1 0
BITMAP
f83e
787c
787c
5c5c
5cdc
4e9c
4e9c
4f9c
471c
471c
e73e
ENDCHAR
STARTCHAR N
ENCODING 78
SWIDTH 782 0
DWIDTH 13 0
BBX 12 11 1 0
BITMAP
f8f0
7860
7c60
6c60
6e60
6760
6760
63e0
61e0
61e0
f0e0
ENDCHAR
STARTCHAR O
ENCODING 79
SWIDTH 815 0
DWIDTH 14 0
BBX 13 11 1 0
BITMAP
1fc0
78f0
7070
e038
e038
e038
e038
e038
7070
38e0
1fc0
ENDCHAR
STARTCHAR P
ENCODING 80
SWIDTH 653 0
DWIDTH 11 0
BBX 10 11 1 0
BITMAP
ff00
7780
71c0
71c0
71c0
7380
7f00
7000
7000
7000
f800
ENDCHAR
STARTCHAR Q
ENCODING 81
SWIDTH 815 0
DWIDTH 14 0
BBX 13 14 1 -3
BITMAP
1fc0
78f0
7070
e038
e038
e038
e038
e038
7070
38e0
1fc0
0780
07c0
03f0
ENDCHAR
STARTCHAR R
ENCODING 82
SWIDTH 736 0
DWIDTH 13 0
BBX 12 11 1 0
BITMAP
ff80
73c0
71c0
71c0
7380
7e00
7780
7380
71c0
71c0
f8f0
ENDCHAR
STARTCHAR S
ENCODING 83
SWIDTH 616 0
DWIDTH 10 0
BBX 9 11 1 0
BITMAP
3f80
7180
e180
f000
fc00
7f00
1f80
0780
c380
c700
fe00
ENDCHAR
STARTCHAR T
ENCODING 84
SWIDTH 646 0
DWIDTH 11 0
BBX 11 11 0 0
BITMAP
ffe0
ce60
ce60
0e00
0e00
0e00
0e00
0e00
0e00
0e00
3f80
ENDCHAR
STARTCHAR U
ENCODING 85
SWIDTH 757 0
DWIDTH 13 0
BBX 12 11 1 0
BITMAP
f8f0
7060
7060
7060
7060
7060
7060
7060
7060
78c0
1f80
ENDCHAR
STARTCHAR V
ENCODING 86
SWIDTH 690 0
DWIDTH 11 0
BBX 12 11 0 0
BITMAP
f8f0
7060
3840
38c0
38c0
1c80
1d80
0d00
0f00
0f00
0600
ENDCHAR
STARTCHAR W
ENCODING 87
SWIDTH 1014 0
DWIDTH 17 0
BBX 17 11 0 0
BITMAP
f8c780
71e300
31e200
396200
397600
3b7600
1a3400
1e3400
1e3c00
0c1800
0c1800
ENDCHAR
STARTCHAR X
ENCODING 88
SWIDTH 713 0
DWIDTH 12 0
BBX 12 11 0 0
BITMAP
fcf0
38c0
38c0
1d80
0f00
0f00
0f00
1b80
31c0
21e0
f3f0
ENDCHAR
STARTCHAR Y
ENCODING 89
SWIDTH 671 0
DWIDTH 11 0
BBX 11 11 0 0
BITMAP
f9e0
70c0
3880
3980
1f00
1e00
0e00
0e00
0e00
0e00
1f00
ENDCHAR
STARTCHAR Z
ENCODING 90
SWIDTH 634 0
DWIDTH 11 0
BBX 9 11 1 0
BITMAP
ff80
c780
c700
0e00
1e00
1c00
3800
3800
7180
f180
ff80
ENDCHAR
STARTCHAR bracketleft
ENCODING 91
SWIDTH 495 0
DWIDTH 8 0
BBX 5 14 2 -2
BITMAP
f8
e0
e0
e0
e0
e0
e0
e0
e0
e0
e0
e0
e0
f8
ENDCHAR
STARTCHAR backslash
ENCODING 92
SWIDTH 500 0
DWIDTH 9 0
BBX 9 13 0 -2
BITMAP
c000
4000
6000
3000
1000
1800
0800
0c00
0400
0600
0200
0300
0180
ENDCHAR
STARTCHAR bracketright
ENCODING 93
SWIDTH 495 0
DWIDTH 8 0
BBX 5 14 1 -2
BITMAP
f8
38
38
38
38
38
38
38
38
38
38
38
38
f8
ENDCHAR
STARTCHAR asciicircum
ENCODING 94
SWIDTH 1000 0
DWIDTH 17 0
BBX 10 5 3 7
BITMAP
0c00
1e00
3300
6180
8040
ENDCHAR
STARTCHAR underscore
ENCODING 95
SWIDTH 500 0
DWIDTH 8 0
BBX 8 1 0 -4
BITMAP
ff00
ENDCHAR
STARTCHAR quoteleft
ENCODING 96
SWIDTH 331 0
DWIDTH 5 0
BBX 3 6 1 6
BITMAP
20
40
c0
e0
e0
60
ENDCHAR
STARTCHAR a
ENCODING 97
SWIDTH 616 0
DWIDTH 10 0
BBX 9 8 1 0
BITMAP
3e00
e700
6700
1f00
6700
e700
ff00
7780
ENDCHAR
STARTCHAR b
ENCODING 98
SWIDTH 650 0
DWIDTH 11 0
BBX 10 13 1 0
BITMAP
7000
f000
7000
7000
7000
7f80
73c0
71c0
71c0
71c0
71c0
7380
7f00
ENDCHAR
STARTCHAR c
ENCODING 99
SWIDTH 537 0
DWIDTH 9 0
BBX 8 8 1 0
BITMAP
1e00
7700
6700
e700
e000
e000
7100
3f00
ENDCHAR
STARTCHAR d
ENCODING 100
SWIDTH 664 0
DWIDTH 11 0
BBX 10 13 1 0
BITMAP
0380
0780
0380
0380
0380
3f80
7380
e380
e380
e380
e380
7f80
3bc0
ENDCHAR
STARTCHAR e
ENCODING 101
SWIDTH 590 0
DWIDTH 10 0
BBX 9 8 1 0
BITMAP
3e00
6300
e380
ff80
e000
e000
7080
3f80
ENDCHAR
STARTCHAR f
ENCODING 102
SWIDTH 387 0
DWIDTH 7 0
BBX 7 13 1 0
BITMAP
0e
36
36
70
70
fc
70
70
70
70
70
70
f8
ENDCHAR
STARTCHAR g
ENCODING 103
SWIDTH 613 0
DWIDTH 10 0
BBX 9 12 1 -4
BITMAP
3c00
e780
e700
e700
3c00
2000
7c00
7f00
c700
c300
e700
7c00
ENDCHAR
STARTCHAR h
ENCODING 104
SWIDTH 667 0
DWIDTH 11 0
BBX 10 13 1 0
BITMAP
7000
f000
7000
7000
7000
7700
7f80
7380
7380
7380
7380
7380
fbc0
ENDCHAR
STARTCHAR i
ENCODING 105
SWIDTH 354 0
DWIDTH 6 0
BBX 5 13 1 0
BITMAP
70
70
70
70
00
30
f0
70
70
70
70
70
f8
ENDCHAR
STARTCHAR j
ENCODING 106
SWIDTH 352 0
DWIDTH 6 0
BBX 6 17 -1 -4
BITMAP
1c
1c
1c
1c
00
0c
3c
1c
1c
1c
1c
1c
1c
1c
d8
d8
60
ENDCHAR
STARTCHAR k
ENCODING 107
SWIDTH 623 0
DWIDTH 11 0
BBX 10 13 1 0
BITMAP
3000
f000
7000
7000
7000
7380
7100
7200
7e00
7700
7700
7380
fbc0
ENDCHAR
STARTCHAR l
ENCODING 108
SWIDTH 350 0
DWIDTH 6 0
BBX 5 13 1 0
BITMAP
30
f0
70
70
70
70
70
70
70
70
70
70
f8
ENDCHAR
STARTCHAR m
ENCODING 109
SWIDTH 991 0
DWIDTH 16 0
BBX 15 8 1 0
BITMAP
3738
fffc
739c
739c
739c
739c
739c
fbde
ENDCHAR
STARTCHAR n
ENCODING 110
SWIDTH 678 0
DWIDTH 11 0
BBX 10 8 1 0
BITMAP
7700
ff80
7380
7380
7380
7380
7380
fbc0
ENDCHAR
STARTCHAR o
ENCODING 111
SWIDTH 650 0
DWIDTH 11 0
BBX 10 8 1 0
BITMAP
3f00
7380
e1c0
e1c0
e1c0
e1c0
7380
3f00
ENDCHAR
STARTCHAR p
ENCODING 112
SWIDTH 667 0
DWIDTH 11 0
BBX 10 12 1 -4
BITMAP
3700
ff80
73c0
71c0
71c0
71c0
7380
7f00
7000
7000
7000
f800
ENDCHAR
STARTCHAR q
ENCODING 113
SWIDTH 655 0
DWIDTH 11 0
BBX 10 12 1 -4
BITMAP
1f80
7380
e380
e380
e380
e380
f380
7f80
0380
0380
0380
07c0
ENDCHAR
STARTCHAR r
ENCODING 114
SWIDTH 488 0
DWIDTH 8 0
BBX 7 8 1 0
BITMAP
76
fe
7e
72
70
70
70
f8
ENDCHAR
STARTCHAR s
ENCODING 115
SWIDTH 523 0
DWIDTH 9 0
BBX 8 8 1 0
BITMAP
7f00
e300
e300
fc00
3f00
8700
8700
fc00
ENDCHAR
STARTCHAR t
ENCODING 116
SWIDTH 407 0
DWIDTH 7 0
BBX 6 11 1 0
BITMAP
30
30
70
fc
70
70
70
70
70
70
7c
ENDCHAR
STARTCHAR u
ENCODING 117
SWIDTH 667 0
DWIDTH 10 0
BBX 10 8 0 0
BITMAP
7180
f780
7380
7380
7380
7380
7f80
3bc0
ENDCHAR
STARTCHAR v
ENCODING 118
SWIDTH 565 0
DWIDTH 10 0
BBX 10 8 0 0
BITMAP
fbc0
7180
3900
3b00
1b00
1e00
1e00
0c00
ENDCHAR
STARTCHAR w
ENCODING 119
SWIDTH 873 0
DWIDTH 15 0
BBX 15 8 0 0
BITMAP
f99e
798c
3bc8
3ad8
1ad0
1ef0
1c70
0c60
ENDCHAR
STARTCHAR x
ENCODING 120
SWIDTH 593 0
DWIDTH 10 0
BBX 10 8 0 0
BITMAP
fbc0
7100
3a00
1c00
1e00
3700
6380
f7c0
ENDCHAR
STARTCHAR y
ENCODING 121
SWIDTH 567 0
DWIDTH 10 0
BBX 10 12 0 -4
BITMAP
fbc0
7180
3980
3900
3b00
1e00
1e00
0e00
0c00
0c00
e800
f000
ENDCHAR
STARTCHAR z
ENCODING 122
SWIDTH 556 0
DWIDTH 9 0
BBX 8 8 1 0
BITMAP
ff00
ce00
de00
1c00
3800
7300
f300
ff00
ENDCHAR
STARTCHAR braceleft
ENCODING 123
SWIDTH 500 0
DWIDTH 8 0
BBX 6 14 1 -2
BITMAP
1c
30
30
30
30
30
c0
20
30
30
30
30
30
1c
ENDCHAR
STARTCHAR bar
ENCODING 124
SWIDTH 500 0
DWIDTH 8 0
BBX 1 17 4 -4
BITMAP
80
80
80
80
80
80
80
80
80
80
80
80
80
80
80
80
80
ENDCHAR
STARTCHAR braceright
ENCODING 125
SWIDTH 500 0
DWIDTH 8 0
BBX 6 14 1 -2
BITMAP
e0
30
30
30
30
30
0c
30
30
30
30
30
30
e0
ENDCHAR
STARTCHAR c0126
ENCODING 126
SWIDTH 1000 0
DWIDTH 17 0
BBX 11 2 3 9
BITMAP
3c60
c780
ENDCHAR
STARTCHAR space
ENCODING 160
SWIDTH 322 0
DWIDTH 5 0
BBX 1 1 0 0
BITMAP
00
ENDCHAR
STARTCHAR exclamdown
ENCODING 161
SWIDTH 343 0
DWIDTH 6 0
BBX 3 11 1 0
BITMAP
60
e0
e0
00
40
40
40
e0
e0
e0
e0
ENDCHAR
STARTCHAR cent
ENCODING 162
SWIDTH 644 0
DWIDTH 11 0
BBX 9 12 1 -2
BITMAP
0600
0600
1f80
7680
f680
e600
e600
7680
7680
1f80
0600
0600
ENDCHAR
STARTCHAR sterling
ENCODING 163
SWIDTH 644 0
DWIDTH 11 0
BBX 10 11 1 0
BITMAP
0f80
1dc0
39c0
3800
3800
7f00
3800
3800
3000
ffc0
ffc0
ENDCHAR
STARTCHAR currency
ENCODING 164
SWIDTH 606 0
DWIDTH 10 0
BBX 9 9 1 3
BITMAP
8080
5d00
2200
4100
4100
4100
2200
5d00
8080
ENDCHAR
STARTCHAR yen
ENCODING 165
SWIDTH 671 0
DWIDTH 11 0
BBX 11 11 0 0
BITMAP
f9e0
70c0
3880
3980
7fc0
1e00
7fc0
0e00
0e00
0e00
1f00
ENDCHAR
STARTCHAR brokenbar
ENCODING 166
SWIDTH 500 0
DWIDTH 8 0
BBX 1 15 4 -3
BITMAP
80
80
80
80
80
80
00
00
00
80
80
80
80
80
80
ENDCHAR
STARTCHAR section
ENCODING 167
SWIDTH 500 0
DWIDTH 8 0
BBX 7 14 1 -2
BITMAP
3c
64
e4
70
38
4e
c6
c6
7c
38
0c
4e
4c
78
ENDCHAR
STARTCHAR dieresis
ENCODING 168
SWIDTH 500 0
DWIDTH 8 0
BBX 6 3 1 9
BITMAP
cc
cc
cc
ENDCHAR
STARTCHAR copyright
ENCODING 169
SWIDTH 900 0
DWIDTH 15 0
BBX 13 13 1 -1
BITMAP
0700
18c0
2020
4790
4c90
9808
9808
9808
4c90
4790
2020
18c0
0780
ENDCHAR
STARTCHAR ordfeminine
ENCODING 170
SWIDTH 462 0
DWIDTH 8 0
BBX 7 6 1 6
BITMAP
78
cc
3c
cc
dc
ee
ENDCHAR
STARTCHAR guillemotleft
ENCODING 171
SWIDTH 458 0
DWIDTH 8 0
BBX 7 7 0 1
BITMAP
12
26
ec
c8
ec
66
12
ENDCHAR
STARTCHAR logicalnot
ENCODING 172
SWIDTH 833 0
DWIDTH 14 0
BBX 10 4 2 3
BITMAP
ffc0
0040
0040
0040
ENDCHAR
STARTCHAR hyphen
ENCODING 173
SWIDTH 333 0
DWIDTH 6 0
BBX 5 2 1 3
BITMAP
f8
f8
ENDCHAR
STARTCHAR registered
ENCODING 174
SWIDTH 900 0
DWIDTH 15 0
BBX 13 13 1 -1
BITMAP
0f80
1060
2010
5f90
4cc8
8cc8
8f08
8d88
4cc8
5ef0
2010
1060
0f80
ENDCHAR
STARTCHAR macron
ENCODING 175
SWIDTH 500 0
DWIDTH 8 0
BBX 6 1 1 11
BITMAP
fc
ENDCHAR
STARTCHAR degree
ENCODING 176
SWIDTH 329 0
DWIDTH 5 0
BBX 5 5 0 7
BITMAP
70
88
88
88
70
ENDCHAR
STARTCHAR plusminus
ENCODING 177
SWIDTH 833 0
DWIDTH 14 0
BBX 9 10 3 0
BITMAP
0800
0800
0800
ff80
0800
0800
0800
0000
0000
ff80
ENDCHAR
STARTCHAR twosuperior
ENCODING 178
SWIDTH 425 0
DWIDTH 7 0
BBX 6 7 1 4
BITMAP
78
cc
cc
0c
18
64
fc
ENDCHAR
STARTCHAR threesuperior
ENCODING 179
SWIDTH 425 0
DWIDTH 7 0
BBX 6 7 1 4
BITMAP
78
cc
18
30
0c
cc
78
ENDCHAR
STARTCHAR acute
ENCODING 180
SWIDTH 500 0
DWIDTH 8 0
BBX 4 3 3 10
BITMAP
70
60
c0
ENDCHAR
STARTCHAR mu
ENCODING 181
SWIDTH 578 0
DWIDTH 9 0
BBX 9 10 -1 -3
BITMAP
3300
3300
2300
2200
6200
6680
5b80
c000
c000
8000
ENDCHAR
STARTCHAR paragraph
ENCODING 182
SWIDTH 500 0
DWIDTH 8 0
BBX 8 12 0 -1
BITMAP
3f00
7a00
fa00
fa00
fa00
7a00
3a00
0200
0200
0200
0200
0200
ENDCHAR
STARTCHAR periodcentered
ENCODING 183
SWIDTH 322 0
DWIDTH 5 0
BBX 3 3 1 4
BITMAP
e0
e0
e0
ENDCHAR
STARTCHAR cedilla
ENCODING 184
SWIDTH 500 0
DWIDTH 8 0
BBX 4 4 2 -4
BITMAP
40
70
30
e0
ENDCHAR
STARTCHAR onesuperior
ENCODING 185
SWIDTH 425 0
DWIDTH 7 0
BBX 4 7 2 4
BITMAP
60
e0
60
60
60
60
f0
ENDCHAR
STARTCHAR ordmasculine
ENCODING 186
SWIDTH 488 0
DWIDTH 8 0
BBX 7 6 1 6
BITMAP
7c
c6
c6
c6
c6
7c
ENDCHAR
STARTCHAR guillemotright
ENCODING 187
SWIDTH 458 0
DWIDTH 8 0
BBX 7 7 0 1
BITMAP
90
cc
6e
26
6e
cc
90
ENDCHAR
STARTCHAR onequarter
ENCODING 188
SWIDTH 977 0
DWIDTH 16 0
BBX 14 12 2 0
BITMAP
6000
e0c0
6080
6100
6100
6218
f638
0458
0898
08fc
1018
3018
ENDCHAR
STARTCHAR onehalf
ENCODING 189
SWIDTH 977 0
DWIDTH 16 0
BBX 14 12 2 0
BITMAP
6000
e0c0
6080
6100
6100
6278
f6cc
04cc
080c
0818
1064
30fc
ENDCHAR
STARTCHAR threequarters
ENCODING 190
SWIDTH 977 0
DWIDTH 17 0
BBX 16 12 1 0
BITMAP
780000
cc6000
184000
308000
0c8000
cd0600
7b0e00
021600
042600
043f00
080600
180600
ENDCHAR
STARTCHAR questiondown
ENCODING 191
SWIDTH 519 0
DWIDTH 9 0
BBX 8 11 0 0
BITMAP
1c00
1c00
1c00
0000
0800
3800
7000
e000
e700
e700
3e00
ENDCHAR
STARTCHAR Agrave
ENCODING 192
SWIDTH 701 0
DWIDTH 11 0
BBX 12 16 0 0
BITMAP
1c00
0c00
0600
0000
0000
0600
0f00
0f00
0b00
1b80
1380
3fc0
31c0
21c0
60e0
f1f0
ENDCHAR
STARTCHAR Aacute
ENCODING 193
SWIDTH 701 0
DWIDTH 11 0
BBX 12 16 0 0
BITMAP
0380
0300
0600
0000
0000
0600
0f00
0f00
0b00
1b80
1380
3fc0
31c0
21c0
60e0
f1f0
ENDCHAR
STARTCHAR Acircumflex
ENCODING 194
SWIDTH 701 0
DWIDTH 11 0
BBX 12 16 0 0
BITMAP
0700
0500
0d80
0000
0000
0600
0f00
0f00
0b00
1b80
1380
3fc0
31c0
21c0
60e0
f1f0
ENDCHAR
STARTCHAR Atilde
ENCODING 195
SWIDTH 701 0
DWIDTH 11 0
BBX 12 16 0 0
BITMAP
0900
1f00
1200
0000
0000
0600
0f00
0f00
0b00
1b80
1380
3fc0
31c0
21c0
60e0
f1f0
ENDCHAR
STARTCHAR Adieresis
ENCODING 196
SWIDTH 701 0
DWIDTH 11 0
BBX 12 15 0 0
BITMAP
1980
1980
1980
0000
0600
0f00
0f00
0b00
1b80
1380
3fc0
31c0
21c0
60e0
f1f0
ENDCHAR
STARTCHAR Aring
ENCODING 197
SWIDTH 701 0
DWIDTH 11 0
BBX 12 16 0 0
BITMAP
0600
0900
0900
0600
0000
0600
0f00
0f00
0b00
1b80
1380
3fc0
31c0
21c0
60e0
f1f0
ENDCHAR
STARTCHAR AE
ENCODING 198
SWIDTH 963 0
DWIDTH 16 0
BBX 17 11 -1 0
BITMAP
07ff00
03e300
02e300
06e000
0ce400
08fc00
1fe400
10e000
30e180
60e180
f1ff80
ENDCHAR
STARTCHAR Ccedilla
ENCODING 199
SWIDTH 683 0
DWIDTH 11 0
BBX 10 15 1 -4
BITMAP
1fc0
3840
7040
e000
e000
e000
e000
e000
7040
3840
1fc0
0400
0700
0300
0e00
ENDCHAR
STARTCHAR Egrave
ENCODING 200
SWIDTH 653 0
DWIDTH 11 0
BBX 10 16 1 0
BITMAP
3800
1800
0c00
0000
0000
ff80
7180
7180
7200
7200
7e00
7200
7000
70c0
70c0
ffc0
ENDCHAR
STARTCHAR Eacute
ENCODING 201
SWIDTH 653 0
DWIDTH 11 0
BBX 10 16 1 0
BITMAP
0700
0600
0c00
0000
0000
ff80
7180
7180
7200
7200
7e00
7200
7000
70c0
70c0
ffc0
ENDCHAR
STARTCHAR Ecircumflex
ENCODING 202
SWIDTH 653 0
DWIDTH 11 0
BBX 10 16 1 0
BITMAP
0e00
0a00
1b00
0000
0000
ff80
7180
7180
7200
7200
7e00
7200
7000
70c0
70c0
ffc0
ENDCHAR
STARTCHAR Edieresis
ENCODING 203
SWIDTH 653 0
DWIDTH 11 0
BBX 10 15 1 0
BITMAP
3300
3300
3300
0000
ff80
7180
7180
7200
7200
7e00
7200
7000
70c0
70c0
ffc0
ENDCHAR
STARTCHAR Igrave
ENCODING 204
SWIDTH 410 0
DWIDTH 6 0
BBX 6 16 0 0
BITMAP
e0
60
30
00
00
7c
38
38
38
38
38
38
38
38
38
7c
ENDCHAR
STARTCHAR Iacute
ENCODING 205
SWIDTH 410 0
DWIDTH 6 0
BBX 5 16 1 0
BITMAP
38
30
60
00
00
f8
70
70
70
70
70
70
70
70
70
f8
ENDCHAR
STARTCHAR Icircumflex
ENCODING 206
SWIDTH 410 0
DWIDTH 6 0
BBX 5 16 1 0
BITMAP
70
50
d8
00
00
f8
70
70
70
70
70
70
70
70
70
f8
ENDCHAR
STARTCHAR Idieresis
ENCODING 207
SWIDTH 410 0
DWIDTH 6 0
BBX 6 15 0 0
BITMAP
cc
cc
cc
00
7c
38
38
38
38
38
38
38
38
38
7c
ENDCHAR
STARTCHAR Eth
ENCODING 208
SWIDTH 780 0
DWIDTH 13 0
BBX 12 11 1 0
BITMAP
ff80
71c0
70e0
7070
7070
fc70
7070
7070
70e0
71e0
ff80
ENDCHAR
STARTCHAR Ntilde
ENCODING 209
SWIDTH 782 0
DWIDTH 13 0
BBX 12 16 1 0
BITMAP
0900
1f00
1200
0000
0000
f8f0
7860
7c60
6c60
6e60
6760
6760
63e0
61e0
61e0
f0e0
ENDCHAR
STARTCHAR Ograve
ENCODING 210
SWIDTH 815 0
DWIDTH 14 0
BBX 13 16 1 0
BITMAP
1c00
0c00
0600
0000
0000
1fc0
78f0
7070
e038
e038
e038
e038
e038
7070
38e0
1fc0
ENDCHAR
STARTCHAR Oacute
ENCODING 211
SWIDTH 815 0
DWIDTH 14 0
BBX 13 16 1 0
BITMAP
0380
0300
0600
0000
0000
1fc0
78f0
7070
e038
e038
e038
e038
e038
7070
38e0
1fc0
ENDCHAR
STARTCHAR Ocircumflex
ENCODING 212
SWIDTH 815 0
DWIDTH 14 0
BBX 13 16 1 0
BITMAP
0700
0500
0d80
0000
0000
1fc0
78f0
7070
e038
e038
e038
e038
e038
7070
38e0
1fc0
ENDCHAR
STARTCHAR Otilde
ENCODING 213
SWIDTH 815 0
DWIDTH 14 0
BBX 13 16 1 0
BITMAP
0900
1f00
1200
0000
0000
1fc0
78f0
7070
e038
e038
e038
e038
e038
7070
38e0
1fc0
ENDCHAR
STARTCHAR Odieresis
ENCODING 214
SWIDTH 815 0
DWIDTH 14 0
BBX 13 15 1 0
BITMAP
1980
1980
1980
0000
1fc0
78f0
7070
e038
e038
e038
e038
e038
7070
38e0
1fc0
ENDCHAR
STARTCHAR multiply
ENCODING 215
SWIDTH 833 0
DWIDTH 14 0
BBX 9 10 3 0
BITMAP
8080
c180
6300
3600
1c00
1c00
3600
6300
c180
8080
ENDCHAR
STARTCHAR Oslash
ENCODING 216
SWIDTH 815 0
DWIDTH 14 0
BBX 13 14 1 -1
BITMAP
0020
0020
1fe0
78e0
70f0
e1b8
e338
e238
e438
ec38
7870
38e0
3fc0
2000
ENDCHAR
STARTCHAR Ugrave
ENCODING 217
SWIDTH 757 0
DWIDTH 13 0
BBX 12 16 1 0
BITMAP
3800
1800
0c00
0000
0000
f8f0
7060
7060
7060
7060
7060
7060
7060
7060
78c0
1f80
ENDCHAR
STARTCHAR Uacute
ENCODING 218
SWIDTH 757 0
DWIDTH 13 0
BBX 12 16 1 0
BITMAP
0700
0600
0c00
0000
0000
f8f0
7060
7060
7060
7060
7060
7060
7060
7060
78c0
1f80
ENDCHAR
STARTCHAR Ucircumflex
ENCODING 219
SWIDTH 757 0
DWIDTH 13 0
BBX 12 16 1 0
BITMAP
0e00
0a00
1b00
0000
0000
f8f0
7060
7060
7060
7060
7060
7060
7060
7060
78c0
1f80
ENDCHAR
STARTCHAR Udieresis
ENCODING 220
SWIDTH 757 0
DWIDTH 13 0
BBX 12 15 1 0
BITMAP
3300
3300
3300
0000
f8f0
7060
7060
7060
7060
7060
7060
7060
7060
78c0
1f80
ENDCHAR
STARTCHAR Yacute
ENCODING 221
SWIDTH 671 0
DWIDTH 11 0
BBX 11 16 0 0
BITMAP
0700
0600
0c00
0000
0000
f9e0
70c0
3880
3980
1f00
1e00
0e00
0e00
0e00
0e00
1f00
ENDCHAR
STARTCHAR Thorn
ENCODING 222
SWIDTH 653 0
DWIDTH 11 0
BBX 10 11 1 0
BITMAP
f800
7000
7f80
73c0
71c0
71c0
71c0
7380
7f00
7000
f800
ENDCHAR
STARTCHAR germandbls
ENCODING 223
SWIDTH 713 0
DWIDTH 12 0
BBX 11 13 1 0
BITMAP
0f00
3b80
31c0
71c0
7300
7600
7700
7780
73c0
71e0
74e0
74e0
f7c0
ENDCHAR
STARTCHAR agrave
ENCODING 224
SWIDTH 616 0
DWIDTH 10 0
BBX 9 13 1 0
BITMAP
7000
3000
1800
0000
0000
3e00
e700
6700
1f00
6700
e700
ff00
7780
ENDCHAR
STARTCHAR aacute
ENCODING 225
SWIDTH 616 0
DWIDTH 10 0
BBX 9 13 1 0
BITMAP
0e00
0c00
1800
0000
0000
3e00
e700
6700
1f00
6700
e700
ff00
7780
ENDCHAR
STARTCHAR acircumflex
ENCODING 226
SWIDTH 616 0
DWIDTH 10 0
BBX 9 13 1 0
BITMAP
1c00
1400
3600
0000
0000
3e00
e700
6700
1f00
6700
e700
ff00
7780
ENDCHAR
STARTCHAR atilde
ENCODING 227
SWIDTH 616 0
DWIDTH 10 0
BBX 9 13 1 0
BITMAP
2400
7c00
4800
0000
0000
3e00
e700
6700
1f00
6700
e700
ff00
7780
ENDCHAR
STARTCHAR adieresis
ENCODING 228
SWIDTH 616 0
DWIDTH 10 0
BBX 9 12 1 0
BITMAP
6600
6600
6600
0000
3e00
e700
6700
1f00
6700
e700
ff00
7780
ENDCHAR
STARTCHAR aring
ENCODING 229
SWIDTH 616 0
DWIDTH 10 0
BBX 9 13 1 0
BITMAP
1800
1400
1400
1800
0000
3e00
e700
6700
1f00
6700
e700
ff00
7780
ENDCHAR
STARTCHAR ae
ENCODING 230
SWIDTH 854 0
DWIDTH 14 0
BBX 13 8 1 0
BITMAP
3ee0
e730
0738
3ff8
7700
e700
e788
f9f8
ENDCHAR
STARTCHAR ccedilla
ENCODING 231
SWIDTH 537 0
DWIDTH 9 0
BBX 8 12 1 -4
BITMAP
1e00
7700
6700
e700
e000
e000
7100
3f00
1000
1c00
0c00
3800
ENDCHAR
STARTCHAR egrave
ENCODING 232
SWIDTH 590 0
DWIDTH 10 0
BBX 9 13 1 0
BITMAP
7000
3000
1800
0000
0000
3e00
6300
e380
ff80
e000
e000
7080
3f80
ENDCHAR
STARTCHAR eacute
ENCODING 233
SWIDTH 590 0
DWIDTH 10 0
BBX 9 13 1 0
BITMAP
0e00
0c00
1800
0000
0000
3e00
6300
e380
ff80
e000
e000
7080
3f80
ENDCHAR
STARTCHAR ecircumflex
ENCODING 234
SWIDTH 590 0
DWIDTH 10 0
BBX 9 13 1 0
BITMAP
1c00
1400
3600
0000
0000
3e00
6300
e380
ff80
e000
e000
7080
3f80
ENDCHAR
STARTCHAR edieresis
ENCODING 235
SWIDTH 590 0
DWIDTH 10 0
BBX 9 12 1 0
BITMAP
6600
6600
6600
0000
3e00
6300
e380
ff80
e000
e000
7080
3f80
ENDCHAR
STARTCHAR igrave
ENCODING 236
SWIDTH 354 0
DWIDTH 6 0
BBX 6 13 0 0
BITMAP
e0
60
30
00
00
18
78
38
38
38
38
38
7c
ENDCHAR
STARTCHAR iacute
ENCODING 237
SWIDTH 354 0
DWIDTH 6 0
BBX 5 13 1 0
BITMAP
38
30
60
00
00
30
f0
70
70
70
70
70
f8
ENDCHAR
STARTCHAR icircumflex
ENCODING 238
SWIDTH 354 0
DWIDTH 6 0
BBX 5 13 1 0
BITMAP
70
50
d8
00
00
30
f0
70
70
70
70
70
f8
ENDCHAR
STARTCHAR idieresis
ENCODING 239
SWIDTH 354 0
DWIDTH 6 0
BBX 6 12 0 0
BITMAP
cc
cc
cc
00
18
78
38
38
38
38
38
7c
ENDCHAR
STARTCHAR eth
ENCODING 240
SWIDTH 645 0
DWIDTH 11 0
BBX 10 13 1 0
BITMAP
1c80
3f00
0f00
3700
2780
3f80
71c0
e1c0
e1c0
e1c0
e1c0
7380
3f00
ENDCHAR
STARTCHAR ntilde
ENCODING 241
SWIDTH 678 0
DWIDTH 11 0
BBX 10 13 1 0
BITMAP
1200
3e00
2400
0000
0000
7700
ff80
7380
7380
7380
7380
7380
fbc0
ENDCHAR
STARTCHAR ograve
ENCODING 242
SWIDTH 650 0
DWIDTH 11 0
BBX 10 13 1 0
BITMAP
3800
1800
0c00
0000
0000
3f00
7380
e1c0
e1c0
e1c0
e1c0
7380
3f00
ENDCHAR
STARTCHAR oacute
ENCODING 243
SWIDTH 650 0
DWIDTH 11 0
BBX 10 13 1 0
BITMAP
0700
0600
0c00
0000
0000
3f00
7380
e1c0
e1c0
e1c0
e1c0
7380
3f00
ENDCHAR
STARTCHAR ocircumflex
ENCODING 244
SWIDTH 650 0
DWIDTH 11 0
BBX 10 13 1 0
BITMAP
0e00
0a00
1b00
0000
0000
3f00
7380
e1c0
e1c0
e1c0
e1c0
7380
3f00
ENDCHAR
STARTCHAR otilde
ENCODING 245
SWIDTH 650 0
DWIDTH 11 0
BBX 10 13 1 0
BITMAP
1200
3e00
2400
0000
0000
3f00
7380
e1c0
e1c0
e1c0
e1c0
7380
3f00
ENDCHAR
STARTCHAR odieresis
ENCODING 246
SWIDTH 650 0
DWIDTH 11 0
BBX 10 12 1 0
BITMAP
3300
3300
3300
0000
3f00
7380
e1c0
e1c0
e1c0
e1c0
7380
3f00
ENDCHAR
STARTCHAR divide
ENCODING 247
SWIDTH 833 0
DWIDTH 14 0
BBX 10 7 2 2
BITMAP
0c00
0c00
0000
ffc0
0000
0c00
0c00
ENDCHAR
STARTCHAR oslash
ENCODING 248
SWIDTH 650 0
DWIDTH 11 0
BBX 10 10 1 -1
BITMAP
0100
3f00
7380
e5c0
e5c0
e9c0
f1c0
7380
3f00
6000
ENDCHAR
STARTCHAR ugrave
ENCODING 249
SWIDTH 667 0
DWIDTH 10 0
BBX 10 13 0 0
BITMAP
3800
1800
0c00
0000
0000
7180
f780
7380
7380
7380
7380
7f80
3bc0
ENDCHAR
STARTCHAR uacute
ENCODING 250
SWIDTH 667 0
DWIDTH 10 0
BBX 10 13 0 0
BITMAP
0700
0600
0c00
0000
0000
7180
f780
7380
7380
7380
7380
7f80
3bc0
ENDCHAR
STARTCHAR ucircumflex
ENCODING 251
SWIDTH 667 0
DWIDTH 10 0
BBX 10 13 0 0
BITMAP
0e00
0a00
1b00
0000
0000
7180
f780
7380
7380
7380
7380
7f80
3bc0
ENDCHAR
STARTCHAR udieresis
ENCODING 252
SWIDTH 667 0
DWIDTH 10 0
BBX 10 12 0 0
BITMAP
3300
3300
3300
0000
7180
f780
7380
7380
7380
7380
7f80
3bc0
ENDCHAR
STARTCHAR yacute
ENCODING 253
SWIDTH 567 0
DWIDTH 10 0
BBX 10 17 0 -4
BITMAP
0700
0600
0c00
0000
0000
fbc0
7180
3980
3900
3b00
1e00
1e00
0e00
0c00
0c00
e800
f000
ENDCHAR
STARTCHAR thorn
ENCODING 254
SWIDTH 667 0
DWIDTH 11 0
BBX 10 17 1 -4
BITMAP
3000
f000
7000
7000
7000
7f80
73c0
71c0
71c0
71c0
71c0
7380
7f00
7000
7000
7000
f800
ENDCHAR
STARTCHAR ydieresis
ENCODING 255
SWIDTH 567 0
DWIDTH 10 0
BBX 10 16 0 -4
BITMAP
3300
3300
3300
0000
fbc0
7180
3980
3900
3b00
1e00
1e00
0e00
0c00
0c00
e800
f000
ENDCHAR
ENDFONT
