STARTFONT 2.1
COMMENT  
COMMENT  Copyright 1988 Bitstream, Inc., Cambridge, Massachusetts, USA
COMMENT  Bitstream and Charter are registered trademarks of Bitstream, Inc.
COMMENT  
COMMENT  The names "Bitstream" and "Charter" are registered trademarks of
COMMENT  Bitstream, Inc.  Permission to use these trademarks is hereby
COMMENT  granted only in association with the images described in this file.
COMMENT  
COMMENT  Permission to use, copy, modify, and distribute this software and
COMMENT  its documentation for any purpose and without fee is hereby
COMMENT  granted, provided that the above copyright notice appear in all
COMMENT  copies and that both that copyright notice and this permission
COMMENT  notice appear in supporting documentation, and that the name of
COMMENT  Bitstream not be used in advertising or publicity pertaining to
COMMENT  distribution of the software without specific, written prior
COMMENT  permission.  Bitstream makes no representations about the
COMMENT  suitability of this software for any purpose.  It is provided "as
COMMENT  is" without express or implied warranty.
COMMENT  
COMMENT  BITSTREAM DISCLAIMS ALL WARRANTIES WITH REGARD TO THIS SOFTWARE,
COMMENT  INCLUDING ALL IMPLIED WARRANTIES OF MERCHANTABILITY AND FITNESS, IN
COMMENT  NO EVENT SHALL BITSTREAM BE LIABLE FOR ANY SPECIAL, INDIRECT OR
COMMENT  CONSEQUENTIAL DAMAGES OR ANY DAMAGES WHATSOEVER RESULTING FROM LOSS
COMMENT  OF USE, DATA OR PROFITS, WHETHER IN AN ACTION OF CONTRACT,
COMMENT  NEGLIGENCE OR OTHER TORTIOUS ACTION, ARISING OUT OF OR IN
COMMENT  CONNECTION WITH THE USE OR PERFORMANCE OF THIS SOFTWARE.
COMMENT  
COMMENT  
COMMENT Fontware CVTBDF v1.0
FONT -Bitstream-Charter-Bold-I-Normal--14-100-100-100-P-86-ISO8859-1
SIZE 10 100 100
FONTBOUNDINGBOX 16 17 -2 -3
STARTPROPERTIES 22
COMMENT Begin LogicalFontDescription
FONTNAME_REGISTRY ""
FAMILY_NAME "Charter"
FOUNDRY "Bitstream"
WEIGHT_NAME "Bold"
SETWIDTH_NAME "Normal"
SLANT "I"
ADD_STYLE_NAME ""
PIXEL_SIZE 14
POINT_SIZE 100
RESOLUTION_X 100
RESOLUTION_Y 100
SPACING "P"
AVERAGE_WIDTH 86
CHARSET_REGISTRY "ISO8859"
CHARSET_ENCODING "1"
COMMENT END LogicalFontDescription
FONT_DESCENT 3
FONT_ASCENT 14
CAP_HEIGHT 9
X_HEIGHT 7
CHARSET_COLLECTIONS "ASCII ISOLATIN1"
FULL_NAME "Bitstream Charter Black Italic"
COPYRIGHT "Copyright 1987 by Bitstream Inc. Charter Registered trademark of Bitstream Inc."
COMMENT ****** end of font properties
ENDPROPERTIES
CHARS 191
STARTCHAR space
ENCODING 32
SWIDTH 319 0
DWIDTH 4 0
BBX 1 1 0 0
BITMAP
00
ENDCHAR
STARTCHAR exclam
ENCODING 33
SWIDTH 343 0
DWIDTH 5 0
BBX 4 9 0 0
BITMAP
70
70
60
60
40
00
c0
e0
c0
ENDCHAR
STARTCHAR quotedbl
ENCODING 34
SWIDTH 339 0
DWIDTH 5 0
BBX 3 4 1 6
BITMAP
a0
a0
a0
a0
ENDCHAR
STARTCHAR numbersign
ENCODING 35
SWIDTH 769 0
DWIDTH 11 0
BBX 9 10 1 0
BITMAP
0900
0900
1a00
7f80
1600
3400
ff00
2c00
6800
4800
ENDCHAR
STARTCHAR dollar
ENCODING 36
SWIDTH 639 0
DWIDTH 9 0
BBX 8 12 0 -1
BITMAP
0400
0400
1f00
2b00
6b00
7800
3e00
1e00
d600
d600
fc00
1000
ENDCHAR
STARTCHAR percent
ENCODING 37
SWIDTH 981 0
DWIDTH 14 0
BBX 13 10 1 0
BITMAP
3820
6c40
cc80
cd00
cb70
7698
0598
0998
11b0
20e0
ENDCHAR
STARTCHAR ampersand
ENCODING 38
SWIDTH 787 0
DWIDTH 11 0
BBX 10 9 0 0
BITMAP
3e00
6700
6700
7600
39c0
5c80
cf00
ef00
73c0
ENDCHAR
STARTCHAR quoteright
ENCODING 39
SWIDTH 331 0
DWIDTH 5 0
BBX 4 5 1 5
BITMAP
70
70
30
60
c0
ENDCHAR
STARTCHAR parenleft
ENCODING 40
SWIDTH 440 0
DWIDTH 6 0
BBX 6 12 1 -2
BITMAP
0c
30
60
60
60
c0
c0
c0
c0
c0
40
30
ENDCHAR
STARTCHAR parenright
ENCODING 41
SWIDTH 440 0
DWIDTH 6 0
BBX 6 12 -1 -2
BITMAP
30
08
0c
0c
0c
0c
0c
18
18
18
30
c0
ENDCHAR
STARTCHAR asterisk
ENCODING 42
SWIDTH 500 0
DWIDTH 7 0
BBX 6 5 1 5
BITMAP
30
58
fc
78
50
ENDCHAR
STARTCHAR plus
ENCODING 43
SWIDTH 833 0
DWIDTH 12 0
BBX 9 9 2 0
BITMAP
0800
0800
0800
0800
ff80
0800
0800
0800
0800
ENDCHAR
STARTCHAR comma
ENCODING 44
SWIDTH 322 0
DWIDTH 4 0
BBX 3 4 -1 -2
BITMAP
60
60
20
c0
ENDCHAR
STARTCHAR hyphen
ENCODING 45
SWIDTH 333 0
DWIDTH 5 0
BBX 5 1 0 3
BITMAP
f8
ENDCHAR
STARTCHAR period
ENCODING 46
SWIDTH 322 0
DWIDTH 4 0
BBX 2 3 0 0
BITMAP
c0
c0
c0
ENDCHAR
STARTCHAR slash
ENCODING 47
SWIDTH 481 0
DWIDTH 6 0
BBX 9 10 -2 -1
BITMAP
0180
0300
0200
0400
0c00
1800
1000
2000
6000
c000
ENDCHAR
STARTCHAR zero
ENCODING 48
SWIDTH 639 0
DWIDTH 9 0
BBX 8 9 1 0
BITMAP
1e00
7300
6300
e300
c300
c700
c600
ce00
7800
ENDCHAR
STARTCHAR one
ENCODING 49
SWIDTH 639 0
DWIDTH 9 0
BBX 6 9 1 0
BITMAP
1c
7c
18
18
18
38
38
30
fc
ENDCHAR
STARTCHAR two
ENCODING 50
SWIDTH 639 0
DWIDTH 9 0
BBX 8 9 0 0
BITMAP
1e00
7300
7300
0700
0600
1c00
3100
ff00
fe00
ENDCHAR
STARTCHAR three
ENCODING 51
SWIDTH 639 0
DWIDTH 9 0
BBX 8 9 0 0
BITMAP
1e00
3300
7300
0600
1e00
0700
c700
c600
7c00
ENDCHAR
STARTCHAR four
ENCODING 52
SWIDTH 639 0
DWIDTH 9 0
BBX 8 9 0 0
BITMAP
0300
0700
0f00
1600
2600
4600
ff00
0c00
0c00
ENDCHAR
STARTCHAR five
ENCODING 53
SWIDTH 639 0
DWIDTH 9 0
BBX 9 9 0 0
BITMAP
3f80
3f00
2000
7e00
0700
0300
e300
e600
7c00
ENDCHAR
STARTCHAR six
ENCODING 54
SWIDTH 639 0
DWIDTH 9 0
BBX 8 10 0 0
BITMAP
0300
1e00
3800
6000
7e00
c700
c300
c300
c600
7c00
ENDCHAR
STARTCHAR seven
ENCODING 55
SWIDTH 639 0
DWIDTH 9 0
BBX 8 9 1 0
BITMAP
7f00
ff00
c600
0400
0c00
1800
3000
6000
e000
ENDCHAR
STARTCHAR eight
ENCODING 56
SWIDTH 639 0
DWIDTH 9 0
BBX 8 9 0 0
BITMAP
1e00
6300
6300
7600
3e00
cf00
c700
c600
7c00
ENDCHAR
STARTCHAR nine
ENCODING 57
SWIDTH 639 0
DWIDTH 9 0
BBX 8 9 1 0
BITMAP
3e00
6300
c300
c300
e300
7e00
0e00
3800
c000
ENDCHAR
STARTCHAR colon
ENCODING 58
SWIDTH 387 0
DWIDTH 5 0
BBX 3 7 1 0
BITMAP
60
60
60
00
c0
c0
c0
ENDCHAR
STARTCHAR semicolon
ENCODING 59
SWIDTH 387 0
DWIDTH 6 0
BBX 5 9 0 -2
BITMAP
38
38
38
00
00
70
70
20
c0
ENDCHAR
STARTCHAR less
ENCODING 60
SWIDTH 833 0
DWIDTH 12 0
BBX 8 8 2 0
BITMAP
0100
0700
3800
e000
e000
3800
0700
0100
ENDCHAR
STARTCHAR equal
ENCODING 61
SWIDTH 833 0
DWIDTH 12 0
BBX 8 4 2 2
BITMAP
ff00
0000
0000
ff00
ENDCHAR
STARTCHAR greater
ENCODING 62
SWIDTH 833 0
DWIDTH 12 0
BBX 8 8 2 0
BITMAP
8000
e000
1c00
0700
0700
1c00
f000
8000
ENDCHAR
STARTCHAR question
ENCODING 63
SWIDTH 519 0
DWIDTH 7 0
BBX 6 9 1 0
BITMAP
78
cc
0c
38
40
00
c0
e0
c0
ENDCHAR
STARTCHAR at
ENCODING 64
SWIDTH 942 0
DWIDTH 13 0
BBX 11 12 1 -2
BITMAP
0f00
30c0
4040
4fa0
9b20
b320
b320
b340
9f80
4000
20c0
1f00
ENDCHAR
STARTCHAR A
ENCODING 65
SWIDTH 688 0
DWIDTH 9 0
BBX 10 9 -1 0
BITMAP
0700
0700
0b00
0b00
1300
3f80
2180
4180
e3c0
ENDCHAR
STARTCHAR B
ENCODING 66
SWIDTH 694 0
DWIDTH 10 0
BBX 9 9 0 0
BITMAP
3f00
1980
3980
3b00
3f00
3380
7180
7300
fe00
ENDCHAR
STARTCHAR C
ENCODING 67
SWIDTH 671 0
DWIDTH 9 0
BBX 9 9 0 0
BITMAP
1f80
7180
6180
c000
c000
c000
c300
6300
3e00
ENDCHAR
STARTCHAR D
ENCODING 68
SWIDTH 762 0
DWIDTH 11 0
BBX 10 9 0 0
BITMAP
3f00
1980
38c0
38c0
30c0
30c0
7180
7380
fe00
ENDCHAR
STARTCHAR E
ENCODING 69
SWIDTH 639 0
DWIDTH 9 0
BBX 9 9 0 0
BITMAP
7f80
3980
3800
3200
3e00
3200
7100
6100
ff00
ENDCHAR
STARTCHAR F
ENCODING 70
SWIDTH 590 0
DWIDTH 8 0
BBX 9 9 0 0
BITMAP
7f80
3980
3800
3200
3e00
3200
7000
7000
f800
ENDCHAR
STARTCHAR G
ENCODING 71
SWIDTH 750 0
DWIDTH 10 0
BBX 9 9 1 0
BITMAP
1f80
7180
6100
c000
cf80
c300
c700
6600
3e00
ENDCHAR
STARTCHAR H
ENCODING 72
SWIDTH 813 0
DWIDTH 11 0
BBX 12 9 0 0
BITMAP
3df0
18e0
38e0
38c0
3fc0
30c0
71c0
71c0
fbe0
ENDCHAR
STARTCHAR I
ENCODING 73
SWIDTH 407 0
DWIDTH 6 0
BBX 6 9 0 0
BITMAP
7c
18
38
30
30
30
70
70
f8
ENDCHAR
STARTCHAR J
ENCODING 74
SWIDTH 521 0
DWIDTH 7 0
BBX 8 9 -1 0
BITMAP
0f00
0600
0600
0e00
0c00
0c00
cc00
d800
f000
ENDCHAR
STARTCHAR K
ENCODING 75
SWIDTH 708 0
DWIDTH 10 0
BBX 11 9 0 0
BITMAP
3de0
1880
3900
3200
3e00
3700
7300
7380
f9e0
ENDCHAR
STARTCHAR L
ENCODING 76
SWIDTH 583 0
DWIDTH 8 0
BBX 7 9 0 0
BITMAP
78
30
30
30
30
70
62
66
fe
ENDCHAR
STARTCHAR M
ENCODING 77
SWIDTH 986 0
DWIDTH 14 0
BBX 14 9 0 0
BITMAP
3c3c
1c78
3c78
2cb0
2eb0
2730
6730
4670
e6f8
ENDCHAR
STARTCHAR N
ENCODING 78
SWIDTH 771 0
DWIDTH 10 0
BBX 11 9 0 0
BITMAP
78e0
3c40
2cc0
2c80
2e80
2680
6780
4380
e300
ENDCHAR
STARTCHAR O
ENCODING 79
SWIDTH 780 0
DWIDTH 11 0
BBX 9 9 1 0
BITMAP
1f00
7300
6180
c180
c180
c180
c300
6700
3c00
ENDCHAR
STARTCHAR P
ENCODING 80
SWIDTH 644 0
DWIDTH 9 0
BBX 9 9 0 0
BITMAP
3f00
1980
3980
3980
3300
3e00
7000
7000
f800
ENDCHAR
STARTCHAR Q
ENCODING 81
SWIDTH 780 0
DWIDTH 11 0
BBX 9 11 1 -2
BITMAP
1f00
7300
6180
c180
c180
c180
c300
6700
3c00
0e00
0780
ENDCHAR
STARTCHAR R
ENCODING 82
SWIDTH 715 0
DWIDTH 10 0
BBX 10 9 0 0
BITMAP
3f00
1980
3980
3300
3e00
3300
7300
7300
f9c0
ENDCHAR
STARTCHAR S
ENCODING 83
SWIDTH 593 0
DWIDTH 8 0
BBX 8 9 0 0
BITMAP
1f00
7200
6200
7000
3c00
0e00
c600
cc00
f800
ENDCHAR
STARTCHAR T
ENCODING 84
SWIDTH 627 0
DWIDTH 8 0
BBX 8 9 1 0
BITMAP
ff00
9900
9900
1800
3000
3000
3000
3000
7800
ENDCHAR
STARTCHAR U
ENCODING 85
SWIDTH 766 0
DWIDTH 11 0
BBX 10 9 1 0
BITMAP
f3c0
6180
6180
6100
c100
c100
c300
c200
7c00
ENDCHAR
STARTCHAR V
ENCODING 86
SWIDTH 669 0
DWIDTH 9 0
BBX 10 9 0 0
BITMAP
f9c0
6180
7100
7300
3200
3400
3c00
3800
3800
ENDCHAR
STARTCHAR W
ENCODING 87
SWIDTH 981 0
DWIDTH 13 0
BBX 13 9 1 0
BITMAP
f338
6310
6720
6720
6b60
69c0
71c0
7180
6180
ENDCHAR
STARTCHAR X
ENCODING 88
SWIDTH 671 0
DWIDTH 10 0
BBX 11 9 -1 0
BITMAP
7de0
18c0
1d80
0e00
0e00
1e00
3700
6300
f7c0
ENDCHAR
STARTCHAR Y
ENCODING 89
SWIDTH 634 0
DWIDTH 9 0
BBX 10 9 0 0
BITMAP
fbc0
7180
3300
3a00
3c00
1800
1800
3800
7c00
ENDCHAR
STARTCHAR Z
ENCODING 90
SWIDTH 611 0
DWIDTH 9 0
BBX 9 9 0 0
BITMAP
3f80
6300
6700
0e00
1c00
3800
7100
6300
ff00
ENDCHAR
STARTCHAR bracketleft
ENCODING 91
SWIDTH 495 0
DWIDTH 7 0
BBX 6 12 1 -2
BITMAP
3c
30
30
60
60
60
60
60
60
c0
c0
f0
ENDCHAR
STARTCHAR backslash
ENCODING 92
SWIDTH 481 0
DWIDTH 6 0
BBX 7 10 0 -1
BITMAP
c0
40
60
20
10
18
08
0c
04
06
ENDCHAR
STARTCHAR bracketright
ENCODING 93
SWIDTH 495 0
DWIDTH 6 0
BBX 6 12 -1 -2
BITMAP
3c
0c
0c
18
18
18
18
18
18
30
30
f0
ENDCHAR
STARTCHAR asciicircum
ENCODING 94
SWIDTH 1000 0
DWIDTH 14 0
BBX 8 4 3 6
BITMAP
1800
3c00
4200
8100
ENDCHAR
STARTCHAR underscore
ENCODING 95
SWIDTH 500 0
DWIDTH 7 0
BBX 7 1 0 -3
BITMAP
fe
ENDCHAR
STARTCHAR quoteleft
ENCODING 96
SWIDTH 331 0
DWIDTH 5 0
BBX 4 5 1 5
BITMAP
10
60
c0
e0
e0
ENDCHAR
STARTCHAR a
ENCODING 97
SWIDTH 650 0
DWIDTH 9 0
BBX 9 7 0 0
BITMAP
3f00
6700
c600
c600
c600
ce00
7f80
ENDCHAR
STARTCHAR b
ENCODING 98
SWIDTH 627 0
DWIDTH 9 0
BBX 8 11 0 0
BITMAP
f800
3000
3000
7000
7e00
7300
7300
6300
e200
e600
7c00
ENDCHAR
STARTCHAR c
ENCODING 99
SWIDTH 498 0
DWIDTH 7 0
BBX 6 7 0 0
BITMAP
3c
6c
e4
c0
c0
e4
78
ENDCHAR
STARTCHAR d
ENCODING 100
SWIDTH 660 0
DWIDTH 9 0
BBX 8 11 0 0
BITMAP
0f00
0300
0700
0600
3e00
6600
e600
c600
c600
ce00
7f00
ENDCHAR
STARTCHAR e
ENCODING 101
SWIDTH 523 0
DWIDTH 7 0
BBX 6 7 0 0
BITMAP
38
6c
dc
f0
c0
c4
78
ENDCHAR
STARTCHAR f
ENCODING 102
SWIDTH 373 0
DWIDTH 5 0
BBX 9 14 -2 -3
BITMAP
0380
0780
0c80
0c00
1f00
0c00
0c00
1800
1800
1800
1800
1000
d000
e000
ENDCHAR
STARTCHAR g
ENCODING 103
SWIDTH 574 0
DWIDTH 8 0
BBX 9 10 0 -3
BITMAP
1c00
7780
6600
6e00
3800
3800
5e00
c600
c600
7800
ENDCHAR
STARTCHAR h
ENCODING 104
SWIDTH 664 0
DWIDTH 9 0
BBX 9 11 0 0
BITMAP
7800
3000
3000
3000
7f00
7300
6300
6700
6600
6600
e780
ENDCHAR
STARTCHAR i
ENCODING 105
SWIDTH 361 0
DWIDTH 5 0
BBX 4 11 1 0
BITMAP
30
70
30
00
e0
60
60
e0
e0
e0
f0
ENDCHAR
STARTCHAR j
ENCODING 106
SWIDTH 338 0
DWIDTH 5 0
BBX 7 14 -2 -3
BITMAP
06
0e
06
00
1c
0c
0c
0c
0c
1c
18
18
d0
e0
ENDCHAR
STARTCHAR k
ENCODING 107
SWIDTH 627 0
DWIDTH 9 0
BBX 9 11 0 0
BITMAP
7000
3000
3000
3000
7300
6700
6b00
7c00
6c00
6e00
e780
ENDCHAR
STARTCHAR l
ENCODING 108
SWIDTH 352 0
DWIDTH 5 0
BBX 4 11 1 0
BITMAP
f0
70
70
60
60
60
60
e0
c0
c0
f0
ENDCHAR
STARTCHAR m
ENCODING 109
SWIDTH 988 0
DWIDTH 14 0
BBX 13 7 1 0
BITMAP
eff0
7730
6630
6670
6660
e660
ce78
ENDCHAR
STARTCHAR n
ENCODING 110
SWIDTH 669 0
DWIDTH 9 0
BBX 8 7 0 0
BITMAP
fe00
7600
6600
6600
e400
cc00
cf00
ENDCHAR
STARTCHAR o
ENCODING 111
SWIDTH 620 0
DWIDTH 9 0
BBX 8 7 0 0
BITMAP
3e00
6300
c300
c300
c300
c600
7c00
ENDCHAR
STARTCHAR p
ENCODING 112
SWIDTH 637 0
DWIDTH 9 0
BBX 9 10 -1 -3
BITMAP
7f80
3980
3980
3180
3180
3300
3e00
7000
7000
f800
ENDCHAR
STARTCHAR q
ENCODING 113
SWIDTH 637 0
DWIDTH 9 0
BBX 8 10 0 -3
BITMAP
3f00
6700
4600
c600
c600
ce00
7e00
0c00
0c00
1e00
ENDCHAR
STARTCHAR r
ENCODING 114
SWIDTH 519 0
DWIDTH 7 0
BBX 7 7 0 0
BITMAP
fe
76
64
60
60
e0
e0
ENDCHAR
STARTCHAR s
ENCODING 115
SWIDTH 488 0
DWIDTH 7 0
BBX 6 7 0 0
BITMAP
38
6c
60
78
5c
c8
70
ENDCHAR
STARTCHAR t
ENCODING 116
SWIDTH 414 0
DWIDTH 6 0
BBX 5 9 1 0
BITMAP
20
60
f8
60
60
e0
c0
c0
f0
ENDCHAR
STARTCHAR u
ENCODING 117
SWIDTH 669 0
DWIDTH 9 0
BBX 9 7 0 0
BITMAP
f300
3300
6300
6600
6600
6600
7f80
ENDCHAR
STARTCHAR v
ENCODING 118
SWIDTH 551 0
DWIDTH 8 0
BBX 8 7 0 0
BITMAP
f300
7300
7200
3600
3400
3800
3000
ENDCHAR
STARTCHAR w
ENCODING 119
SWIDTH 856 0
DWIDTH 12 0
BBX 12 7 0 0
BITMAP
f330
7730
7720
3b20
3b40
3380
3300
ENDCHAR
STARTCHAR x
ENCODING 120
SWIDTH 565 0
DWIDTH 7 0
BBX 8 7 -1 0
BITMAP
7700
3f00
1800
1800
5c00
ec00
cf00
ENDCHAR
STARTCHAR y
ENCODING 121
SWIDTH 535 0
DWIDTH 8 0
BBX 9 10 -1 -3
BITMAP
7180
3100
3200
3a00
1c00
1c00
1800
0800
d000
e000
ENDCHAR
STARTCHAR z
ENCODING 122
SWIDTH 509 0
DWIDTH 7 0
BBX 7 7 0 0
BITMAP
7e
5c
58
54
26
74
fc
ENDCHAR
STARTCHAR braceleft
ENCODING 123
SWIDTH 500 0
DWIDTH 7 0
BBX 6 12 0 -2
BITMAP
1c
30
30
30
30
c0
30
30
30
30
30
1c
ENDCHAR
STARTCHAR bar
ENCODING 124
SWIDTH 500 0
DWIDTH 7 0
BBX 1 14 3 -3
BITMAP
80
80
80
80
80
80
80
80
80
80
80
80
80
80
ENDCHAR
STARTCHAR braceright
ENCODING 125
SWIDTH 500 0
DWIDTH 7 0
BBX 6 12 1 -2
BITMAP
e0
30
30
30
30
0c
30
30
30
30
30
e0
ENDCHAR
STARTCHAR c0126
ENCODING 126
SWIDTH 1000 0
DWIDTH 14 0
BBX 9 2 3 7
BITMAP
7880
8f00
ENDCHAR
STARTCHAR space
ENCODING 160
SWIDTH 319 0
DWIDTH 4 0
BBX 1 1 0 0
BITMAP
00
ENDCHAR
STARTCHAR exclamdown
ENCODING 161
SWIDTH 343 0
DWIDTH 5 0
BBX 4 9 0 0
BITMAP
30
70
30
00
20
60
60
e0
e0
ENDCHAR
STARTCHAR cent
ENCODING 162
SWIDTH 639 0
DWIDTH 9 0
BBX 8 10 1 -1
BITMAP
0400
0400
3f00
6b00
cb00
c800
ca00
d200
3e00
1000
ENDCHAR
STARTCHAR sterling
ENCODING 163
SWIDTH 639 0
DWIDTH 9 0
BBX 9 9 0 0
BITMAP
0f00
1980
3980
3800
7e00
3000
2000
ff00
ff00
ENDCHAR
STARTCHAR currency
ENCODING 164
SWIDTH 606 0
DWIDTH 8 0
BBX 8 8 0 2
BITMAP
8100
7e00
6600
4200
4200
6600
7a00
8100
ENDCHAR
STARTCHAR yen
ENCODING 165
SWIDTH 671 0
DWIDTH 9 0
BBX 10 9 0 0
BITMAP
79c0
3180
3900
7b80
1c00
ff80
1c00
1800
3c00
ENDCHAR
STARTCHAR brokenbar
ENCODING 166
SWIDTH 500 0
DWIDTH 7 0
BBX 1 12 3 -2
BITMAP
80
80
80
80
80
00
00
80
80
80
80
80
ENDCHAR
STARTCHAR section
ENCODING 167
SWIDTH 500 0
DWIDTH 6 0
BBX 7 12 -1 -2
BITMAP
1e
32
30
3c
2e
42
62
7c
3c
4c
8c
f8
ENDCHAR
STARTCHAR dieresis
ENCODING 168
SWIDTH 500 0
DWIDTH 7 0
BBX 5 2 2 9
BITMAP
d8
d8
ENDCHAR
STARTCHAR copyright
ENCODING 169
SWIDTH 900 0
DWIDTH 12 0
BBX 10 11 1 0
BITMAP
1e00
2100
4e80
9a40
b040
b040
b040
9a40
4e80
2100
1e00
ENDCHAR
STARTCHAR ordfeminine
ENCODING 170
SWIDTH 488 0
DWIDTH 7 0
BBX 7 5 0 4
BITMAP
3c
6c
c8
c8
7e
ENDCHAR
STARTCHAR guillemotleft
ENCODING 171
SWIDTH 458 0
DWIDTH 6 0
BBX 6 6 0 1
BITMAP
24
6c
d8
d0
48
28
ENDCHAR
STARTCHAR logicalnot
ENCODING 172
SWIDTH 833 0
DWIDTH 12 0
BBX 8 3 2 3
BITMAP
ff00
0100
0100
ENDCHAR
STARTCHAR hyphen
ENCODING 173
SWIDTH 333 0
DWIDTH 5 0
BBX 5 1 0 3
BITMAP
f8
ENDCHAR
STARTCHAR registered
ENCODING 174
SWIDTH 900 0
DWIDTH 12 0
BBX 10 11 1 0
BITMAP
1e00
2100
7e80
9240
9240
9c40
9640
9240
7b80
2100
1e00
ENDCHAR
STARTCHAR macron
ENCODING 175
SWIDTH 500 0
DWIDTH 7 0
BBX 5 1 2 9
BITMAP
f8
ENDCHAR
STARTCHAR degree
ENCODING 176
SWIDTH 329 0
DWIDTH 5 0
BBX 4 4 1 6
BITMAP
60
90
90
60
ENDCHAR
STARTCHAR plusminus
ENCODING 177
SWIDTH 833 0
DWIDTH 12 0
BBX 9 7 2 1
BITMAP
0800
0800
ff80
0800
0800
0000
ff80
ENDCHAR
STARTCHAR twosuperior
ENCODING 178
SWIDTH 422 0
DWIDTH 6 0
BBX 6 6 0 4
BITMAP
38
6c
0c
10
24
fc
ENDCHAR
STARTCHAR threesuperior
ENCODING 179
SWIDTH 422 0
DWIDTH 6 0
BBX 5 6 0 4
BITMAP
30
58
10
70
18
e0
ENDCHAR
STARTCHAR acute
ENCODING 180
SWIDTH 500 0
DWIDTH 7 0
BBX 4 3 3 8
BITMAP
30
60
c0
ENDCHAR
STARTCHAR mu
ENCODING 181
SWIDTH 578 0
DWIDTH 8 0
BBX 9 9 -1 -3
BITMAP
2200
2200
6600
6680
6480
7b00
c000
c000
8000
ENDCHAR
STARTCHAR paragraph
ENCODING 182
SWIDTH 500 0
DWIDTH 7 0
BBX 7 10 0 -1
BITMAP
3e
74
f4
f4
f4
74
04
04
04
04
ENDCHAR
STARTCHAR periodcentered
ENCODING 183
SWIDTH 322 0
DWIDTH 4 0
BBX 2 3 1 3
BITMAP
c0
c0
c0
ENDCHAR
STARTCHAR cedilla
ENCODING 184
SWIDTH 500 0
DWIDTH 7 0
BBX 3 3 1 -3
BITMAP
60
20
e0
ENDCHAR
STARTCHAR onesuperior
ENCODING 185
SWIDTH 422 0
DWIDTH 5 0
BBX 3 6 1 4
BITMAP
60
60
20
40
40
e0
ENDCHAR
STARTCHAR ordmasculine
ENCODING 186
SWIDTH 465 0
DWIDTH 6 0
BBX 6 5 0 4
BITMAP
38
4c
cc
c8
70
ENDCHAR
STARTCHAR guillemotright
ENCODING 187
SWIDTH 458 0
DWIDTH 7 0
BBX 6 6 0 1
BITMAP
50
48
2c
6c
d8
90
ENDCHAR
STARTCHAR onequarter
ENCODING 188
SWIDTH 972 0
DWIDTH 14 0
BBX 13 10 1 0
BITMAP
6000
6080
2100
4200
4210
e430
0870
08b0
11f8
2020
ENDCHAR
STARTCHAR onehalf
ENCODING 189
SWIDTH 972 0
DWIDTH 14 0
BBX 13 10 1 0
BITMAP
6000
6080
2100
4200
4270
e4d8
0818
0820
1048
21f8
ENDCHAR
STARTCHAR threequarters
ENCODING 190
SWIDTH 972 0
DWIDTH 14 0
BBX 14 10 0 0
BITMAP
3000
5820
1040
7080
1888
e118
0238
0258
04fc
0810
ENDCHAR
STARTCHAR questiondown
ENCODING 191
SWIDTH 519 0
DWIDTH 7 0
BBX 6 9 0 0
BITMAP
0c
1c
0c
00
08
70
c0
cc
78
ENDCHAR
STARTCHAR Agrave
ENCODING 192
SWIDTH 688 0
DWIDTH 9 0
BBX 10 13 -1 0
BITMAP
0600
0300
0300
0000
0700
0700
0b00
0b00
1300
3f80
2180
4180
e3c0
ENDCHAR
STARTCHAR Aacute
ENCODING 193
SWIDTH 688 0
DWIDTH 9 0
BBX 10 13 -1 0
BITMAP
00c0
0180
0300
0000
0700
0700
0b00
0b00
1300
3f80
2180
4180
e3c0
ENDCHAR
STARTCHAR Acircumflex
ENCODING 194
SWIDTH 688 0
DWIDTH 9 0
BBX 10 13 -1 0
BITMAP
0180
0380
06c0
0000
0700
0700
0b00
0b00
1300
3f80
2180
4180
e3c0
ENDCHAR
STARTCHAR Atilde
ENCODING 195
SWIDTH 688 0
DWIDTH 9 0
BBX 10 13 -1 0
BITMAP
0340
0580
0000
0000
0700
0700
0b00
0b00
1300
3f80
2180
4180
e3c0
ENDCHAR
STARTCHAR Adieresis
ENCODING 196
SWIDTH 688 0
DWIDTH 9 0
BBX 10 13 -1 0
BITMAP
06c0
06c0
0000
0000
0700
0700
0b00
0b00
1300
3f80
2180
4180
e3c0
ENDCHAR
STARTCHAR Aring
ENCODING 197
SWIDTH 688 0
DWIDTH 9 0
BBX 10 14 -1 0
BITMAP
0300
0500
0500
0300
0000
0700
0700
0b00
0b00
1300
3f80
2180
4180
e3c0
ENDCHAR
STARTCHAR AE
ENCODING 198
SWIDTH 951 0
DWIDTH 13 0
BBX 14 9 -1 0
BITMAP
07fc
02cc
06c0
05d0
09f0
1f90
3180
6188
e7f8
ENDCHAR
STARTCHAR Ccedilla
ENCODING 199
SWIDTH 671 0
DWIDTH 9 0
BBX 9 12 0 -3
BITMAP
1f80
7180
6180
c000
c000
c000
c300
6300
3e00
1800
0800
3800
ENDCHAR
STARTCHAR Egrave
ENCODING 200
SWIDTH 639 0
DWIDTH 9 0
BBX 9 13 0 0
BITMAP
1800
0c00
0c00
0000
7f80
3980
3800
3200
3e00
3200
7100
6100
ff00
ENDCHAR
STARTCHAR Eacute
ENCODING 201
SWIDTH 639 0
DWIDTH 9 0
BBX 9 13 0 0
BITMAP
0300
0600
0c00
0000
7f80
3980
3800
3200
3e00
3200
7100
6100
ff00
ENDCHAR
STARTCHAR Ecircumflex
ENCODING 202
SWIDTH 639 0
DWIDTH 9 0
BBX 9 13 0 0
BITMAP
0600
0e00
1b00
0000
7f80
3980
3800
3200
3e00
3200
7100
6100
ff00
ENDCHAR
STARTCHAR Edieresis
ENCODING 203
SWIDTH 639 0
DWIDTH 9 0
BBX 9 13 0 0
BITMAP
1b00
1b00
0000
0000
7f80
3980
3800
3200
3e00
3200
7100
6100
ff00
ENDCHAR
STARTCHAR Igrave
ENCODING 204
SWIDTH 407 0
DWIDTH 6 0
BBX 6 13 0 0
BITMAP
30
18
18
00
7c
18
38
30
30
30
70
70
f8
ENDCHAR
STARTCHAR Iacute
ENCODING 205
SWIDTH 407 0
DWIDTH 6 0
BBX 7 13 0 0
BITMAP
06
0c
18
00
7c
18
38
30
30
30
70
70
f8
ENDCHAR
STARTCHAR Icircumflex
ENCODING 206
SWIDTH 407 0
DWIDTH 6 0
BBX 7 13 0 0
BITMAP
0c
1c
36
00
7c
18
38
30
30
30
70
70
f8
ENDCHAR
STARTCHAR Idieresis
ENCODING 207
SWIDTH 407 0
DWIDTH 6 0
BBX 7 13 0 0
BITMAP
36
36
00
00
7c
18
38
30
30
30
70
70
f8
ENDCHAR
STARTCHAR Eth
ENCODING 208
SWIDTH 762 0
DWIDTH 11 0
BBX 10 9 0 0
BITMAP
3f00
1980
38c0
38c0
7cc0
30c0
3180
7380
fe00
ENDCHAR
STARTCHAR Ntilde
ENCODING 209
SWIDTH 771 0
DWIDTH 10 0
BBX 11 13 0 0
BITMAP
0680
0b00
0000
0000
78e0
3c40
2cc0
2c80
2e80
2680
6780
4380
e300
ENDCHAR
STARTCHAR Ograve
ENCODING 210
SWIDTH 780 0
DWIDTH 11 0
BBX 9 13 1 0
BITMAP
1800
0c00
0c00
0000
1f00
7300
6180
c180
c180
c180
c300
6700
3c00
ENDCHAR
STARTCHAR Oacute
ENCODING 211
SWIDTH 780 0
DWIDTH 11 0
BBX 9 13 1 0
BITMAP
0300
0600
0c00
0000
1f00
7300
6180
c180
c180
c180
c300
6700
3c00
ENDCHAR
STARTCHAR Ocircumflex
ENCODING 212
SWIDTH 780 0
DWIDTH 11 0
BBX 9 13 1 0
BITMAP
0600
0e00
1b00
0000
1f00
7300
6180
c180
c180
c180
c300
6700
3c00
ENDCHAR
STARTCHAR Otilde
ENCODING 213
SWIDTH 780 0
DWIDTH 11 0
BBX 9 13 1 0
BITMAP
0d00
1600
0000
0000
1f00
7300
6180
c180
c180
c180
c300
6700
3c00
ENDCHAR
STARTCHAR Odieresis
ENCODING 214
SWIDTH 780 0
DWIDTH 11 0
BBX 9 13 1 0
BITMAP
1b00
1b00
0000
0000
1f00
7300
6180
c180
c180
c180
c300
6700
3c00
ENDCHAR
STARTCHAR multiply
ENCODING 215
SWIDTH 833 0
DWIDTH 12 0
BBX 8 8 2 0
BITMAP
8100
4200
2400
1800
1800
2400
4200
8100
ENDCHAR
STARTCHAR Oslash
ENCODING 216
SWIDTH 780 0
DWIDTH 11 0
BBX 9 12 1 -1
BITMAP
0080
0180
1f00
7300
6380
c580
c980
d180
e300
6700
7c00
8000
ENDCHAR
STARTCHAR Ugrave
ENCODING 217
SWIDTH 766 0
DWIDTH 11 0
BBX 10 13 1 0
BITMAP
1800
0c00
0c00
0000
f3c0
6180
6180
6100
c100
c100
c300
c200
7c00
ENDCHAR
STARTCHAR Uacute
ENCODING 218
SWIDTH 766 0
DWIDTH 11 0
BBX 10 13 1 0
BITMAP
0300
0600
0c00
0000
f3c0
6180
6180
6100
c100
c100
c300
c200
7c00
ENDCHAR
STARTCHAR Ucircumflex
ENCODING 219
SWIDTH 766 0
DWIDTH 11 0
BBX 10 13 1 0
BITMAP
0600
0e00
1b00
0000
f3c0
6180
6180
6100
c100
c100
c300
c200
7c00
ENDCHAR
STARTCHAR Udieresis
ENCODING 220
SWIDTH 766 0
DWIDTH 11 0
BBX 10 13 1 0
BITMAP
1b00
1b00
0000
0000
f3c0
6180
6180
6100
c100
c100
c300
c200
7c00
ENDCHAR
STARTCHAR Yacute
ENCODING 221
SWIDTH 634 0
DWIDTH 9 0
BBX 10 13 0 0
BITMAP
0300
0600
0c00
0000
fbc0
7180
3300
3a00
3c00
1800
1800
3800
7c00
ENDCHAR
STARTCHAR Thorn
ENCODING 222
SWIDTH 644 0
DWIDTH 9 0
BBX 9 9 0 0
BITMAP
3e00
1f00
3980
3980
3180
3300
3e00
7000
f800
ENDCHAR
STARTCHAR germandbls
ENCODING 223
SWIDTH 697 0
DWIDTH 10 0
BBX 11 14 -2 -3
BITMAP
03c0
0660
0660
0c60
0d80
0d80
0dc0
1ce0
1b60
1b60
19c0
1800
d000
e000
ENDCHAR
STARTCHAR agrave
ENCODING 224
SWIDTH 650 0
DWIDTH 9 0
BBX 9 11 0 0
BITMAP
1800
0c00
0c00
0000
3f00
6700
c600
c600
c600
ce00
7f80
ENDCHAR
STARTCHAR aacute
ENCODING 225
SWIDTH 650 0
DWIDTH 9 0
BBX 9 11 0 0
BITMAP
0300
0600
0c00
0000
3f00
6700
c600
c600
c600
ce00
7f80
ENDCHAR
STARTCHAR acircumflex
ENCODING 226
SWIDTH 650 0
DWIDTH 9 0
BBX 9 11 0 0
BITMAP
0600
0e00
1b00
0000
3f00
6700
c600
c600
c600
ce00
7f80
ENDCHAR
STARTCHAR atilde
ENCODING 227
SWIDTH 650 0
DWIDTH 9 0
BBX 9 11 0 0
BITMAP
0d00
1600
0000
0000
3f00
6700
c600
c600
c600
ce00
7f80
ENDCHAR
STARTCHAR adieresis
ENCODING 228
SWIDTH 650 0
DWIDTH 9 0
BBX 9 11 0 0
BITMAP
1b00
1b00
0000
0000
3f00
6700
c600
c600
c600
ce00
7f80
ENDCHAR
STARTCHAR aring
ENCODING 229
SWIDTH 650 0
DWIDTH 9 0
BBX 9 11 0 0
BITMAP
1800
1400
1400
1800
3f00
6700
c600
c600
c600
ce00
7f80
ENDCHAR
STARTCHAR ae
ENCODING 230
SWIDTH 796 0
DWIDTH 11 0
BBX 10 7 0 0
BITMAP
3b80
6ec0
6cc0
3f80
cc00
cc40
f780
ENDCHAR
STARTCHAR ccedilla
ENCODING 231
SWIDTH 498 0
DWIDTH 7 0
BBX 6 10 0 -3
BITMAP
3c
6c
e4
c0
c0
e4
78
30
10
70
ENDCHAR
STARTCHAR egrave
ENCODING 232
SWIDTH 523 0
DWIDTH 7 0
BBX 6 11 0 0
BITMAP
30
18
18
00
38
6c
dc
f0
c0
c4
78
ENDCHAR
STARTCHAR eacute
ENCODING 233
SWIDTH 523 0
DWIDTH 7 0
BBX 7 11 0 0
BITMAP
06
0c
18
00
38
6c
dc
f0
c0
c4
78
ENDCHAR
STARTCHAR ecircumflex
ENCODING 234
SWIDTH 523 0
DWIDTH 7 0
BBX 7 11 0 0
BITMAP
0c
1c
36
00
38
6c
dc
f0
c0
c4
78
ENDCHAR
STARTCHAR edieresis
ENCODING 235
SWIDTH 523 0
DWIDTH 7 0
BBX 7 11 0 0
BITMAP
36
36
00
00
38
6c
dc
f0
c0
c4
78
ENDCHAR
STARTCHAR igrave
ENCODING 236
SWIDTH 361 0
DWIDTH 5 0
BBX 4 11 1 0
BITMAP
c0
60
60
00
e0
60
60
c0
c0
c0
f0
ENDCHAR
STARTCHAR iacute
ENCODING 237
SWIDTH 361 0
DWIDTH 5 0
BBX 5 11 1 0
BITMAP
18
30
60
00
e0
60
60
c0
c0
c0
f0
ENDCHAR
STARTCHAR icircumflex
ENCODING 238
SWIDTH 361 0
DWIDTH 5 0
BBX 5 11 1 0
BITMAP
30
70
d8
00
e0
60
60
c0
c0
c0
f0
ENDCHAR
STARTCHAR idieresis
ENCODING 239
SWIDTH 361 0
DWIDTH 5 0
BBX 5 11 1 0
BITMAP
d8
d8
00
00
e0
60
60
c0
c0
c0
f0
ENDCHAR
STARTCHAR eth
ENCODING 240
SWIDTH 645 0
DWIDTH 9 0
BBX 8 11 0 0
BITMAP
3d00
0f00
3e00
0600
3f00
6300
c300
c300
c300
c600
7c00
ENDCHAR
STARTCHAR ntilde
ENCODING 241
SWIDTH 669 0
DWIDTH 9 0
BBX 8 11 0 0
BITMAP
0d00
1600
0000
0000
fe00
7600
6600
6600
e400
cc00
cf00
ENDCHAR
STARTCHAR ograve
ENCODING 242
SWIDTH 620 0
DWIDTH 9 0
BBX 8 11 0 0
BITMAP
3000
1800
1800
0000
3e00
6300
c300
c300
c300
c600
7c00
ENDCHAR
STARTCHAR oacute
ENCODING 243
SWIDTH 620 0
DWIDTH 9 0
BBX 8 11 0 0
BITMAP
0600
0c00
1800
0000
3e00
6300
c300
c300
c300
c600
7c00
ENDCHAR
STARTCHAR ocircumflex
ENCODING 244
SWIDTH 620 0
DWIDTH 9 0
BBX 8 11 0 0
BITMAP
0c00
1c00
3600
0000
3e00
6300
c300
c300
c300
c600
7c00
ENDCHAR
STARTCHAR otilde
ENCODING 245
SWIDTH 620 0
DWIDTH 9 0
BBX 8 11 0 0
BITMAP
1a00
2c00
0000
0000
3e00
6300
c300
c300
c300
c600
7c00
ENDCHAR
STARTCHAR odieresis
ENCODING 246
SWIDTH 620 0
DWIDTH 9 0
BBX 8 11 0 0
BITMAP
3600
3600
0000
0000
3e00
6300
c300
c300
c300
c600
7c00
ENDCHAR
STARTCHAR divide
ENCODING 247
SWIDTH 833 0
DWIDTH 12 0
BBX 8 7 2 1
BITMAP
1800
1800
0000
ff00
0000
1800
1800
ENDCHAR
STARTCHAR oslash
ENCODING 248
SWIDTH 620 0
DWIDTH 9 0
BBX 8 9 0 -1
BITMAP
0200
3e00
6700
cb00
db00
d300
e600
7c00
4000
ENDCHAR
STARTCHAR ugrave
ENCODING 249
SWIDTH 669 0
DWIDTH 9 0
BBX 9 11 0 0
BITMAP
1800
0c00
0c00
0000
f300
3300
6300
6600
6600
6600
7f80
ENDCHAR
STARTCHAR uacute
ENCODING 250
SWIDTH 669 0
DWIDTH 9 0
BBX 9 11 0 0
BITMAP
0300
0600
0c00
0000
f300
3300
6300
6600
6600
6600
7f80
ENDCHAR
STARTCHAR ucircumflex
ENCODING 251
SWIDTH 669 0
DWIDTH 9 0
BBX 9 11 0 0
BITMAP
0600
0e00
1b00
0000
f300
3300
6300
6600
6600
6600
7f80
ENDCHAR
STARTCHAR udieresis
ENCODING 252
SWIDTH 669 0
DWIDTH 9 0
BBX 9 11 0 0
BITMAP
1b00
1b00
0000
0000
f300
3300
6300
6600
6600
6600
7f80
ENDCHAR
STARTCHAR yacute
ENCODING 253
SWIDTH 535 0
DWIDTH 8 0
BBX 9 14 -1 -3
BITMAP
0300
0600
0c00
0000
7180
3100
3200
3a00
1c00
1c00
1800
0800
d000
e000
ENDCHAR
STARTCHAR thorn
ENCODING 254
SWIDTH 637 0
DWIDTH 9 0
BBX 9 14 -1 -3
BITMAP
3c00
1800
1800
1800
1f00
3980
3980
3180
3180
3300
3e00
7000
7000
f800
ENDCHAR
STARTCHAR ydieresis
ENCODING 255
SWIDTH 535 0
DWIDTH 8 0
BBX 9 14 -1 -3
BITMAP
1b00
1b00
0000
0000
7180
3100
3200
3a00
1c00
1c00
1800
0800
d000
e000
ENDCHAR
ENDFONT
