STARTFONT 2.1
COMMENT  
COMMENT  Copyright 1988 Bitstream, Inc., Cambridge, Massachusetts, USA
COMMENT  Bitstream and Charter are registered trademarks of Bitstream, Inc.
COMMENT  
COMMENT  The names "Bitstream" and "Charter" are registered trademarks of
COMMENT  Bitstream, Inc.  Permission to use these trademarks is hereby
COMMENT  granted only in association with the images described in this file.
COMMENT  
COMMENT  Permission to use, copy, modify, and distribute this software and
COMMENT  its documentation for any purpose and without fee is hereby
COMMENT  granted, provided that the above copyright notice appear in all
COMMENT  copies and that both that copyright notice and this permission
COMMENT  notice appear in supporting documentation, and that the name of
COMMENT  Bitstream not be used in advertising or publicity pertaining to
COMMENT  distribution of the software without specific, written prior
COMMENT  permission.  Bitstream makes no representations about the
COMMENT  suitability of this software for any purpose.  It is provided "as
COMMENT  is" without express or implied warranty.
COMMENT  
COMMENT  BITSTREAM DISCLAIMS ALL WARRANTIES WITH REGARD TO THIS SOFTWARE,
COMMENT  INCLUDING ALL IMPLIED WARRANTIES OF MERCHANTABILITY AND FITNESS, IN
COMMENT  NO EVENT SHALL BITSTREAM BE LIABLE FOR ANY SPECIAL, INDIRECT OR
COMMENT  CONSEQUENTIAL DAMAGES OR ANY DAMAGES WHATSOEVER RESULTING FROM LOSS
COMMENT  OF USE, DATA OR PROFITS, WHETHER IN AN ACTION OF CONTRACT,
COMMENT  NEGLIGENCE OR OTHER TORTIOUS ACTION, ARISING OUT OF OR IN
COMMENT  CONNECTION WITH THE USE OR PERFORMANCE OF THIS SOFTWARE.
COMMENT  
COMMENT  
COMMENT Fontware CVTBDF v1.0
FONT -Bitstream-Charter-Bold-I-Normal--33-240-100-100-P-203-ISO8859-1
SIZE 24 100 100
FONTBOUNDINGBOX 40 40 -6 -8
STARTPROPERTIES 22
COMMENT Begin LogicalFontDescription
FONTNAME_REGISTRY ""
FAMILY_NAME "Charter"
FOUNDRY "Bitstream"
WEIGHT_NAME "Bold"
SETWIDTH_NAME "Normal"
SLANT "I"
ADD_STYLE_NAME ""
PIXEL_SIZE 33
POINT_SIZE 240
RESOLUTION_X 100
RESOLUTION_Y 100
SPACING "P"
AVERAGE_WIDTH 203
CHARSET_REGISTRY "ISO8859"
CHARSET_ENCODING "1"
COMMENT END LogicalFontDescription
FONT_DESCENT 8
FONT_ASCENT 32
CAP_HEIGHT 22
X_HEIGHT 17
CHARSET_COLLECTIONS "ASCII ISOLATIN1"
FULL_NAME "Bitstream Charter Black Italic"
COPYRIGHT "Copyright 1987 by Bitstream Inc. Charter Registered trademark of Bitstream Inc."
COMMENT ****** end of font properties
ENDPROPERTIES
CHARS 191
STARTCHAR space
ENCODING 32
SWIDTH 319 0
DWIDTH 11 0
BBX 1 1 0 0
BITMAP
00
ENDCHAR
STARTCHAR exclam
ENCODING 33
SWIDTH 343 0
DWIDTH 11 0
BBX 9 22 1 0
BITMAP
0f00
1f80
1f80
1f80
1f80
1f00
1f00
1e00
1e00
1e00
1c00
1c00
1800
1800
1800
0000
7800
fc00
fc00
fc00
fc00
7800
ENDCHAR
STARTCHAR quotedbl
ENCODING 34
SWIDTH 339 0
DWIDTH 11 0
BBX 9 10 1 13
BITMAP
e380
e380
e380
e380
e380
6100
4100
4100
4100
4100
ENDCHAR
STARTCHAR numbersign
ENCODING 35
SWIDTH 769 0
DWIDTH 26 0
BBX 22 24 2 -1
BITMAP
003870
003870
0070e0
0070e0
0070c0
00e1c0
00e1c0
3ffffc
3ffffc
3ffffc
01c300
038700
038700
030e00
fffff8
fffff8
fffff8
0e1c00
0e1c00
0e3800
1c3800
1c3800
387000
387000
ENDCHAR
STARTCHAR dollar
ENCODING 36
SWIDTH 639 0
DWIDTH 21 0
BBX 19 28 1 -4
BITMAP
000c00
001c00
00ff80
03ffe0
0f99e0
0f19c0
1f31c0
1f31c0
1f31c0
1fb000
1ff000
1ffc00
0fff00
07ff80
01ff80
00ffc0
00cfc0
70c7c0
70c780
71c780
718f00
f99f00
fffc00
1ff000
038000
030000
030000
030000
ENDCHAR
STARTCHAR percent
ENCODING 37
SWIDTH 981 0
DWIDTH 33 0
BBX 29 23 2 0
BITMAP
07c00380
0ff00700
3cf00f00
38780e00
78781c00
78783800
f0787000
f078e000
f0f1e000
f0f1c7c0
f0f38ff0
71e73c70
3fce3878
1f1c7878
003c7878
0038f078
0070f078
00e0f0f0
01c0f0f0
0380f0f0
078079e0
07003fc0
0e001f00
ENDCHAR
STARTCHAR ampersand
ENCODING 38
SWIDTH 787 0
DWIDTH 26 0
BBX 25 22 0 0
BITMAP
007f0000
03ffc000
07c7c000
0f83e000
1f83e000
1f83e000
1fc7c000
1fc7c000
0fff0000
07fc3f80
07f83f80
1ffc1e00
3cfe1c00
7c7f3800
f83f7000
f81fe000
fc0fc000
fc07e000
ff0ff000
7ffff800
3ff9ff00
1fc07f00
ENDCHAR
STARTCHAR quoteright
ENCODING 39
SWIDTH 331 0
DWIDTH 11 0
BBX 9 11 2 11
BITMAP
0f00
0f80
1f80
1f80
1f80
0700
0700
0e00
1c00
f800
e000
ENDCHAR
STARTCHAR parenleft
ENCODING 40
SWIDTH 440 0
DWIDTH 15 0
BBX 14 29 2 -5
BITMAP
001c
00fc
01f0
03c0
0780
0f80
1f00
1f00
3e00
3e00
3e00
7c00
7c00
7c00
7c00
fc00
f800
f800
f800
f800
f800
f800
f800
7800
7c00
3c00
3e00
1f80
0780
ENDCHAR
STARTCHAR parenright
ENCODING 41
SWIDTH 440 0
DWIDTH 15 0
BBX 14 29 -2 -5
BITMAP
0780
07e0
01f0
00f0
00f8
0078
007c
007c
007c
007c
007c
007c
007c
00fc
00f8
00f8
00f8
00f8
01f0
01f0
01f0
03e0
03e0
07c0
0780
0f00
3e00
fc00
e000
ENDCHAR
STARTCHAR asterisk
ENCODING 42
SWIDTH 500 0
DWIDTH 17 0
BBX 13 13 4 11
BITMAP
0100
0300
0780
0700
6330
f2f8
7df0
0000
0f00
1b80
7bc0
7380
7180
ENDCHAR
STARTCHAR plus
ENCODING 43
SWIDTH 833 0
DWIDTH 28 0
BBX 19 19 5 0
BITMAP
00e000
00e000
00e000
00e000
00e000
00e000
00e000
00e000
ffffe0
ffffe0
ffffe0
00e000
00e000
00e000
00e000
00e000
00e000
00e000
00e000
ENDCHAR
STARTCHAR comma
ENCODING 44
SWIDTH 322 0
DWIDTH 10 0
BBX 8 11 -2 -6
BITMAP
0e00
1f00
3f00
3f00
3f00
0e00
0e00
1c00
3800
f000
c000
ENDCHAR
STARTCHAR hyphen
ENCODING 45
SWIDTH 333 0
DWIDTH 11 0
BBX 10 4 0 6
BITMAP
7fc0
ffc0
ffc0
ff80
ENDCHAR
STARTCHAR period
ENCODING 46
SWIDTH 322 0
DWIDTH 10 0
BBX 6 6 1 0
BITMAP
78
fc
fc
fc
fc
78
ENDCHAR
STARTCHAR slash
ENCODING 47
SWIDTH 481 0
DWIDTH 16 0
BBX 23 25 -5 -3
BITMAP
00001e
00003c
000078
000070
0000f0
0001e0
0003c0
000380
000700
000f00
001e00
003c00
003800
007800
00f000
01e000
01c000
038000
078000
0f0000
0e0000
1c0000
3c0000
780000
f00000
ENDCHAR
STARTCHAR zero
ENCODING 48
SWIDTH 639 0
DWIDTH 21 0
BBX 19 22 1 0
BITMAP
00fc00
03ff00
07cf80
0f87c0
1f07c0
3f07e0
3f07e0
7e07e0
7e07e0
7e07e0
fe07e0
fc0fe0
fc0fc0
fc0fc0
fc0fc0
fc1f80
fc1f80
7c1f00
7c3e00
3e7c00
1ff800
07e000
ENDCHAR
STARTCHAR one
ENCODING 49
SWIDTH 639 0
DWIDTH 21 0
BBX 14 22 2 0
BITMAP
007c
0ffc
3ffc
3ef8
00f8
01f8
01f8
01f0
01f0
01f0
03f0
03f0
03e0
03e0
03e0
07e0
07e0
07c0
07c0
0fc0
fffc
fffc
ENDCHAR
STARTCHAR two
ENCODING 50
SWIDTH 639 0
DWIDTH 21 0
BBX 18 22 1 0
BITMAP
01fc00
07ff00
1f3f80
1f1fc0
3f0fc0
3e0fc0
3e0fc0
1e0fc0
001f80
001f80
003f00
007e00
007c00
01f000
03e000
07c3c0
0f0380
3c0380
7fff80
ffff80
ffff80
ffff00
ENDCHAR
STARTCHAR three
ENCODING 51
SWIDTH 639 0
DWIDTH 21 0
BBX 19 22 0 0
BITMAP
00fe00
07ff80
0f9fc0
1f07e0
1f07e0
1f07e0
0f07c0
000fc0
003f00
03f800
03fe00
03ff80
001f80
000fc0
000fc0
780fc0
f80fc0
f81f80
f81f80
f87f00
7ffc00
0fe000
ENDCHAR
STARTCHAR four
ENCODING 52
SWIDTH 639 0
DWIDTH 21 0
BBX 20 23 0 -1
BITMAP
0003e0
0007c0
000fc0
001fc0
003fc0
0077c0
00ef80
01cf80
03cf80
078f80
0f0f80
1e1f00
3c1f00
781f00
fffff0
ffffe0
003e00
003e00
003e00
003e00
007e00
007c00
007c00
ENDCHAR
STARTCHAR five
ENCODING 53
SWIDTH 639 0
DWIDTH 21 0
BBX 19 22 1 0
BITMAP
07ffe0
07ffe0
0fffe0
0fffe0
0e0000
0e0000
0e0000
1c0000
1dfc00
1fff00
1fff80
003fc0
001fc0
000fc0
000fc0
780fc0
f80f80
f81f80
f81f00
f87e00
7ffc00
1fe000
ENDCHAR
STARTCHAR six
ENCODING 54
SWIDTH 639 0
DWIDTH 21 0
BBX 18 24 1 0
BITMAP
000380
001f80
007f80
01f800
03e000
07c000
0f8000
1f0000
1f0000
3e7c00
3fff00
7fff80
7e3f80
fc1fc0
fc0fc0
fc0fc0
fc0fc0
fc0fc0
fc0f80
7c1f80
7e1f00
3e3e00
1ffc00
07e000
ENDCHAR
STARTCHAR seven
ENCODING 55
SWIDTH 639 0
DWIDTH 21 0
BBX 19 23 3 -1
BITMAP
3fffe0
7fffe0
7fffc0
7fffc0
7fff80
700700
f00f00
e01e00
001c00
003c00
007800
007000
00e000
01e000
03c000
038000
078000
0f0000
0e0000
1e0000
3c0000
780000
f80000
ENDCHAR
STARTCHAR eight
ENCODING 56
SWIDTH 639 0
DWIDTH 21 0
BBX 19 22 1 0
BITMAP
00ff00
07ffc0
0f87c0
1f03e0
1f03e0
1f03e0
3f03e0
3f87c0
1fe780
1ffe00
0ffe00
07ff00
3eff80
7c3fc0
781fc0
f80fc0
f807c0
f807c0
fc0f80
7e1f00
3ffe00
0ff000
ENDCHAR
STARTCHAR nine
ENCODING 57
SWIDTH 639 0
DWIDTH 21 0
BBX 19 24 1 -2
BITMAP
01fc00
0fff00
1f8f80
3e0fc0
7e07e0
7c07e0
fc07e0
fc07e0
fc07e0
fc07e0
fe07c0
7f0fc0
7fffc0
3fff80
0f9f80
001f00
003e00
007c00
00f800
01f000
07e000
7f8000
7e0000
300000
ENDCHAR
STARTCHAR colon
ENCODING 58
SWIDTH 387 0
DWIDTH 13 0
BBX 8 16 2 0
BITMAP
1e00
3f00
3f00
3f00
3f00
1e00
0000
0000
0000
0000
3800
fc00
fc00
fc00
fc00
7800
ENDCHAR
STARTCHAR semicolon
ENCODING 59
SWIDTH 387 0
DWIDTH 12 0
BBX 10 22 -1 -6
BITMAP
0780
0fc0
0fc0
0fc0
0fc0
0780
0000
0000
0000
0000
0000
0e00
1f00
3f00
3f00
3f00
0e00
0e00
1c00
3800
f000
c000
ENDCHAR
STARTCHAR less
ENCODING 60
SWIDTH 833 0
DWIDTH 28 0
BBX 19 18 4 1
BITMAP
000020
0001e0
0007e0
003fc0
00fe00
07f800
1fc000
7f0000
f80000
f80000
7f0000
1fc000
03f800
00fe00
003fc0
0007e0
0001e0
000020
ENDCHAR
STARTCHAR equal
ENCODING 61
SWIDTH 833 0
DWIDTH 28 0
BBX 20 10 4 5
BITMAP
fffff0
fffff0
fffff0
000000
000000
000000
000000
fffff0
fffff0
fffff0
ENDCHAR
STARTCHAR greater
ENCODING 62
SWIDTH 833 0
DWIDTH 28 0
BBX 19 18 5 1
BITMAP
800000
f00000
fc0000
7f8000
0fe000
03fc00
007f00
001fc0
0003e0
0003e0
001fc0
007f00
03fc00
0fe000
7f8000
fc0000
f00000
800000
ENDCHAR
STARTCHAR question
ENCODING 63
SWIDTH 519 0
DWIDTH 17 0
BBX 15 22 2 0
BITMAP
0fe0
3ffc
f8fc
f87e
f07e
f07e
007e
00fc
01fc
03f8
0fe0
1f80
1c00
1800
3800
0000
7800
fc00
fc00
fc00
fc00
7800
ENDCHAR
STARTCHAR at
ENCODING 64
SWIDTH 942 0
DWIDTH 31 0
BBX 26 28 3 -5
BITMAP
001fc000
00fff800
01e03c00
07800e00
0e000700
0c000380
1c000180
380f3980
303ff0c0
7079f0c0
70f0f0c0
61e0f0c0
e1c0e0c0
e3c1e0c0
e3c1e180
e3c1e180
e3c1c300
e3e3c600
71fffe00
71f9f800
7070f000
38000000
1c000000
1e000000
0f000e00
07c03c00
01fff000
007f8000
ENDCHAR
STARTCHAR A
ENCODING 65
SWIDTH 688 0
DWIDTH 23 0
BBX 24 22 -2 0
BITMAP
0007c000
0007c000
000fe000
001fe000
001fe000
003be000
003be000
0073f000
0073f000
00e3f000
01e1f000
01c1f000
03c1f000
03fff800
07fff800
0f01f800
0e00f800
1e00f800
1c00f800
3c00fc00
ff03ff00
ff03ff00
ENDCHAR
STARTCHAR B
ENCODING 66
SWIDTH 694 0
DWIDTH 23 0
BBX 22 22 -1 0
BITMAP
1fffe0
1ffff8
03f3fc
03e0fc
03e0fc
07e0fc
07e0fc
07e0f8
07e1f0
07c3e0
0fff00
0ffff0
0fc3f8
0fc1f8
0f81f8
1f81f8
1f81f8
1f81f8
1f03f0
1f0fe0
ffffc0
ffff00
ENDCHAR
STARTCHAR C
ENCODING 67
SWIDTH 671 0
DWIDTH 22 0
BBX 21 22 1 0
BITMAP
003fe0
01fff8
07f078
0fc078
1f8070
3f0070
3f0070
7e0000
7e0000
7c0000
fc0000
fc0000
fc0000
fc0000
fc0000
fc01e0
7e01c0
7e01c0
3f03c0
1f83c0
0fffc0
03fe00
ENDCHAR
STARTCHAR D
ENCODING 68
SWIDTH 762 0
DWIDTH 25 0
BBX 25 22 -1 0
BITMAP
0fffe000
0ffff800
03f1fe00
03f07f00
03f03f00
03e01f80
07e01f80
07e01f80
07e01f80
07e01f80
07c01f80
0fc01f80
0fc03f00
0fc03f00
0fc03f00
0f807e00
1f807e00
1f80fc00
1f81f800
1f8ff000
ffffc000
fffe0000
ENDCHAR
STARTCHAR E
ENCODING 69
SWIDTH 639 0
DWIDTH 21 0
BBX 22 22 -1 0
BITMAP
0ffffc
0ffff8
03f038
03e038
03e038
07e038
07e000
07e180
07e380
07c380
07ff80
0fff00
0fc300
0fc300
0f8300
0f8000
1f8070
1f80f0
1f80e0
1f00e0
ffffe0
ffffe0
ENDCHAR
STARTCHAR F
ENCODING 70
SWIDTH 590 0
DWIDTH 19 0
BBX 21 22 -1 0
BITMAP
1ffff8
1ffff8
03e070
03e070
03e070
07e070
07e000
07c180
07c380
07c380
0fff80
0fff00
0f8700
0f8700
0f8700
1f8000
1f8000
1f0000
1f0000
3f0000
ffe000
ffe000
ENDCHAR
STARTCHAR G
ENCODING 71
SWIDTH 750 0
DWIDTH 25 0
BBX 23 22 1 0
BITMAP
003ff0
01fffc
07f83c
0fe03c
1fc03c
3f803c
3f0038
7e0000
7e0000
7c0000
fc0000
fc0ffe
fc0ffe
fc01f0
fc03f0
fc03f0
7e03f0
7e03e0
3f03e0
3fc7e0
0fffe0
03fe00
ENDCHAR
STARTCHAR H
ENCODING 72
SWIDTH 813 0
DWIDTH 27 0
BBX 28 22 -1 0
BITMAP
0ffc7ff0
0ffc7ff0
03f00f80
03e00f80
03e01f80
07e01f80
07e01f80
07e01f00
07c01f00
07ffff00
0fffff00
0fc03f00
0fc03e00
0f803e00
0f807e00
1f807e00
1f807e00
1f807c00
1f007c00
3f00fc00
ffe3ff80
ffe3ff80
ENDCHAR
STARTCHAR I
ENCODING 73
SWIDTH 407 0
DWIDTH 14 0
BBX 15 22 -1 0
BITMAP
0ffe
0ffe
03f0
03f0
03f0
03e0
03e0
07e0
07e0
07e0
07c0
07c0
0fc0
0fc0
0fc0
0f80
0f80
1f80
1f80
1f80
ffe0
ffe0
ENDCHAR
STARTCHAR J
ENCODING 74
SWIDTH 521 0
DWIDTH 18 0
BBX 20 22 -2 0
BITMAP
007ff0
007ff0
001f80
001f80
001f80
001f80
001f00
003f00
003f00
003f00
003f00
003f00
003e00
007e00
007e00
707e00
707c00
70fc00
70f800
f3f000
ffe000
3f8000
ENDCHAR
STARTCHAR K
ENCODING 75
SWIDTH 708 0
DWIDTH 24 0
BBX 26 22 -1 0
BITMAP
0ffc7fc0
0ffc7fc0
03f01e00
03f03c00
03e07800
07e0f000
07e1e000
07e3c000
07e78000
07cf0000
0fdf8000
0fff8000
0fffc000
0fcfc000
0f87e000
1f87e000
1f83f000
1f83f000
1f81f800
1f81fc00
ffe0ff80
ffe07f80
ENDCHAR
STARTCHAR L
ENCODING 76
SWIDTH 583 0
DWIDTH 19 0
BBX 19 22 -1 0
BITMAP
0ffc00
0ffc00
03f000
03f000
03e000
03e000
07e000
07e000
07e000
07c000
07c000
0fc000
0fc000
0fc000
0f8000
0f80e0
1f81e0
1f81e0
1f81c0
1f03c0
ffffc0
ffffc0
ENDCHAR
STARTCHAR M
ENCODING 77
SWIDTH 986 0
DWIDTH 33 0
BBX 34 22 -1 0
BITMAP
0ffc00ffc0
0ffc00ffc0
03fe01fe00
03be03be00
03be03be00
03be077e00
03be077e00
073e0e7c00
073f0e7c00
073f1c7c00
071f1c7c00
071f38fc00
0e1f38f800
0e1f70f800
0e1f70f800
0e1fe0f800
1c0fe1f800
1c0fc1f800
1c0fc1f000
3c0f81f000
ff0f8ffe00
ff0f0ffe00
ENDCHAR
STARTCHAR N
ENCODING 78
SWIDTH 771 0
DWIDTH 25 0
BBX 27 22 -1 0
BITMAP
0ff81fe0
0ff81fe0
03f80700
03fc0700
03fc0700
037c0700
077e0600
073e0e00
073f0e00
071f0e00
061f0e00
0e1f8e00
0e0f9c00
0e0fdc00
0e07dc00
0c07dc00
1c07fc00
1c03f800
1c03f800
1c01f800
ff01f800
ff01f800
ENDCHAR
STARTCHAR O
ENCODING 79
SWIDTH 780 0
DWIDTH 26 0
BBX 24 22 1 0
BITMAP
003fc000
03fff800
07e1fc00
0fc07e00
1f807e00
3f003f00
3f003f00
7e003f00
7e003f00
fe003f00
fc003f00
fc003f00
fc007f00
fc007e00
fc007e00
fc00fc00
7c00fc00
7e01f800
7e03f000
3f87e000
1fff8000
03fc0000
ENDCHAR
STARTCHAR P
ENCODING 80
SWIDTH 644 0
DWIDTH 21 0
BBX 22 22 -1 0
BITMAP
0fffc0
0ffff0
03f7f8
03e1fc
03e0fc
07e0fc
07e0fc
07e0fc
07c0fc
07c1f8
0fc3f8
0fc7f0
0fffc0
0fff00
0f8000
1f8000
1f8000
1f8000
1f0000
1f0000
ffe000
ffe000
ENDCHAR
STARTCHAR Q
ENCODING 81
SWIDTH 780 0
DWIDTH 26 0
BBX 24 27 1 -5
BITMAP
003fc000
03fff800
07e0fc00
0fc07e00
1f807e00
3f003f00
3f003f00
7e003f00
7e003f00
7e003f00
fc003f00
fc003f00
fc007f00
fc007e00
fc007e00
fc00fc00
7c00fc00
7e01f800
3e03f000
3f87e000
0fff8000
03ff8000
001fc000
001fe100
000fff00
0007ff00
0001f000
ENDCHAR
STARTCHAR R
ENCODING 82
SWIDTH 715 0
DWIDTH 23 0
BBX 23 22 -1 0
BITMAP
0fffe0
0ffff0
03e3f8
03e1fc
03e0fc
07e0fc
07e0fc
07c1f8
07c1f0
07c7e0
0fff00
0fff80
0f8fc0
0f87c0
0f87e0
1f87e0
1f83e0
1f83f0
1f03f0
3f03f8
ffe1fe
ffe0fe
ENDCHAR
STARTCHAR S
ENCODING 83
SWIDTH 593 0
DWIDTH 20 0
BBX 19 22 0 0
BITMAP
007f80
01ffe0
07e1e0
0fc1e0
0f81e0
1f81c0
1f81c0
1fc000
1fe000
0ff800
07fe00
03ff80
00ff80
003fc0
001fc0
380fc0
780fc0
780f80
781f80
783f00
fffc00
1fe000
ENDCHAR
STARTCHAR T
ENCODING 84
SWIDTH 627 0
DWIDTH 21 0
BBX 22 22 1 0
BITMAP
7ffffc
7ffffc
70fc3c
70fc38
f0fc38
e0f838
01f800
01f800
01f800
01f800
01f000
03f000
03f000
03f000
03f000
03e000
07e000
07e000
07e000
07e000
3ffc00
3ffc00
ENDCHAR
STARTCHAR U
ENCODING 85
SWIDTH 766 0
DWIDTH 25 0
BBX 24 22 2 0
BITMAP
ffe0ff00
ffe0ff00
1f003c00
1f003800
3f003800
3f003800
3f003800
3e007000
7e007000
7e007000
7e007000
7e007000
7c00e000
fc00e000
fc00e000
fc00e000
fc01c000
fe03c000
7f078000
7fff0000
3ffe0000
07f00000
ENDCHAR
STARTCHAR V
ENCODING 86
SWIDTH 669 0
DWIDTH 22 0
BBX 23 22 1 0
BITMAP
ffe1fe
ffe1fe
3f0078
3f0070
1f00f0
1f00e0
1f81e0
1f81c0
1f8380
0f8380
0f8700
0f8700
0fce00
0fde00
0fdc00
07fc00
07f800
07f800
07f000
07e000
07e000
03c000
ENDCHAR
STARTCHAR W
ENCODING 87
SWIDTH 981 0
DWIDTH 32 0
BBX 33 22 1 0
BITMAP
ffc0f07f80
ffc1f07f80
3f01f01e00
3f03f81c00
3f03f81c00
3f07f83800
1f07f83800
1f0ef87000
1f0ef87000
1f1cf8e000
1f1cf8e000
1f38f9e000
1fb8fdc000
1ff07dc000
1ff07f8000
1fe07f8000
1fe07f0000
1fc07f0000
0fc07e0000
0f807e0000
0f807e0000
0f003c0000
ENDCHAR
STARTCHAR X
ENCODING 88
SWIDTH 671 0
DWIDTH 23 0
BBX 26 22 -2 0
BITMAP
1ffc3fc0
1ffc3fc0
03f00f00
01f81e00
01f83c00
00f87800
00fcf000
00fde000
007fc000
007f8000
003f0000
003f0000
007f8000
00ff8000
01efc000
03cfc000
0787e000
0f07e000
1e03f000
3c03f000
ff8ffe00
ff8ffe00
ENDCHAR
STARTCHAR Y
ENCODING 89
SWIDTH 634 0
DWIDTH 21 0
BBX 22 22 1 0
BITMAP
ffc3fc
ffc3fc
3f00f0
1f00e0
1f81c0
1f83c0
0f8380
0fc700
0fce00
07de00
07fc00
07f800
03f000
03f000
03f000
03e000
03e000
03e000
07e000
07e000
3ff800
3ff800
ENDCHAR
STARTCHAR Z
ENCODING 90
SWIDTH 611 0
DWIDTH 20 0
BBX 21 22 0 0
BITMAP
0ffff8
0ffff8
0e03f0
1e07f0
1e0fe0
1c1fc0
001f80
003f80
007f00
00fe00
00fc00
01f800
03f800
07f000
0fe000
0fc0e0
1fc1e0
3f81e0
7f01c0
7e01c0
ffffc0
ffffc0
ENDCHAR
STARTCHAR bracketleft
ENCODING 91
SWIDTH 495 0
DWIDTH 16 0
BBX 15 28 2 -5
BITMAP
07fe
07fe
0f80
0f80
0f80
0f80
0f80
0f80
1f00
1f00
1f00
1f00
1f00
1f00
3e00
3e00
3e00
3e00
3e00
7e00
7c00
7c00
7c00
7c00
7c00
fc00
ffe0
ffc0
ENDCHAR
STARTCHAR backslash
ENCODING 92
SWIDTH 481 0
DWIDTH 16 0
BBX 17 25 0 -3
BITMAP
f00000
700000
380000
3c0000
1c0000
1e0000
0e0000
0f0000
070000
078000
038000
03c000
01c000
01e000
00e000
007000
007000
003800
003c00
001c00
001e00
000e00
000f00
000700
000780
ENDCHAR
STARTCHAR bracketright
ENCODING 93
SWIDTH 495 0
DWIDTH 17 0
BBX 15 28 -1 -5
BITMAP
07fe
0ffe
007e
007c
007c
007c
007c
007c
00fc
00f8
00f8
00f8
00f8
00f8
01f8
01f0
01f0
01f0
01f0
01f0
03e0
03e0
03e0
03e0
03e0
03e0
ffc0
ffc0
ENDCHAR
STARTCHAR asciicircum
ENCODING 94
SWIDTH 1000 0
DWIDTH 33 0
BBX 20 9 6 14
BITMAP
00f000
01f800
03fc00
079e00
0f0f00
1c0380
3801c0
7000e0
c00030
ENDCHAR
STARTCHAR underscore
ENCODING 95
SWIDTH 500 0
DWIDTH 17 0
BBX 17 3 0 -8
BITMAP
ffff80
ffff80
ffff80
ENDCHAR
STARTCHAR quoteleft
ENCODING 96
SWIDTH 331 0
DWIDTH 11 0
BBX 8 11 3 11
BITMAP
0300
0f00
1c00
3800
7000
7000
fc00
fc00
fc00
f800
7000
ENDCHAR
STARTCHAR a
ENCODING 97
SWIDTH 650 0
DWIDTH 22 0
BBX 21 17 1 0
BITMAP
01f8e0
07ffe0
0f8fe0
1f07c0
3e07c0
7e07c0
7e07c0
7c0fc0
fc0f80
fc0f80
fc0f80
fc0f80
fc0f80
fe3f80
7fff88
3fdff8
1f0fc0
ENDCHAR
STARTCHAR b
ENCODING 98
SWIDTH 627 0
DWIDTH 21 0
BBX 19 24 1 0
BITMAP
03c000
3f8000
7f8000
0f8000
0f8000
1f8000
1f0000
1f1f00
1f7f80
1fffc0
3f0fe0
3f07e0
3e07e0
3e07e0
3e07e0
7e07e0
7e07c0
7e0fc0
7c0f80
7c1f80
fc1f00
fe7e00
fff800
1fe000
ENDCHAR
STARTCHAR c
ENCODING 99
SWIDTH 498 0
DWIDTH 17 0
BBX 15 17 1 0
BITMAP
00f8
07fe
0f7e
1f3e
3e3e
7e1c
7c00
fc00
fc00
fc00
fc00
fc00
fe04
7f1c
7ffc
3ff0
0fc0
ENDCHAR
STARTCHAR d
ENCODING 100
SWIDTH 660 0
DWIDTH 22 0
BBX 20 24 1 0
BITMAP
0000f0
0007f0
001ff0
0003e0
0003e0
0003e0
0003e0
01fbe0
07ffe0
0f8fc0
1f07c0
3f07c0
3e07c0
7e07c0
7c0f80
fc0f80
fc0f80
fc0f80
fc0f80
fc0f80
fe1f80
7fffd0
3fcff0
1f07c0
ENDCHAR
STARTCHAR e
ENCODING 101
SWIDTH 523 0
DWIDTH 17 0
BBX 15 17 1 0
BITMAP
00f8
03fc
0f1e
1e1e
3e1e
7e3e
7cfc
fff0
ffc0
fc00
fc00
fc00
fe04
7f1c
7ffc
3ff0
0fc0
ENDCHAR
STARTCHAR f
ENCODING 102
SWIDTH 373 0
DWIDTH 13 0
BBX 23 31 -6 -7
BITMAP
0000f8
0003fc
0007be
000f9e
001f0c
001f00
003e00
003e00
00fff0
01fff0
007e00
007c00
007c00
007c00
007c00
007c00
00fc00
00fc00
00f800
00f800
00f800
00f800
00f000
01f000
01f000
01e000
61c000
fbc000
ff8000
fe0000
7c0000
ENDCHAR
STARTCHAR g
ENCODING 103
SWIDTH 574 0
DWIDTH 19 0
BBX 21 24 -1 -7
BITMAP
00fe00
03fff8
07c7f8
0f87f8
0f87c0
1f07c0
1f07c0
1f0fc0
1f0f80
0f9f00
0ffe00
03f800
018000
03e000
03f800
0fff00
3dff80
783fc0
f80fc0
f807c0
fc0f80
7e1f00
3ffe00
0ff000
ENDCHAR
STARTCHAR h
ENCODING 104
SWIDTH 664 0
DWIDTH 22 0
BBX 20 24 1 0
BITMAP
03c000
1fc000
7f8000
0f8000
0f8000
0f8000
1f0000
1f0f00
1f3f80
1fffc0
3f8fc0
3f0fc0
3e0fc0
3e0f80
3e0f80
7e0f80
7c0f80
7c1f80
7c1f00
7c1f00
fc1f80
fc1ff0
f81ff0
f80fc0
ENDCHAR
STARTCHAR i
ENCODING 105
SWIDTH 361 0
DWIDTH 12 0
BBX 10 24 1 0
BITMAP
0780
0fc0
0fc0
0fc0
0780
0000
0000
0780
3f00
ff00
1f00
1f00
1f00
3e00
3e00
3e00
3e00
3e00
7e00
7c00
7e00
7fc0
7fc0
3e00
ENDCHAR
STARTCHAR j
ENCODING 106
SWIDTH 338 0
DWIDTH 11 0
BBX 17 31 -6 -7
BITMAP
000f00
001f80
001f80
001f80
000f00
000000
000000
000f00
00fe00
01fe00
003e00
003e00
007e00
007e00
007e00
007c00
007c00
007c00
007c00
00fc00
00fc00
00f800
00f800
00f800
00f000
01f000
01e000
61e000
fbc000
ff0000
7c0000
ENDCHAR
STARTCHAR k
ENCODING 107
SWIDTH 627 0
DWIDTH 21 0
BBX 20 24 1 0
BITMAP
03c000
1fc000
7f8000
0f8000
0f8000
1f8000
1f8000
1f01c0
1f07e0
1f0fe0
3f1fe0
3f3be0
3e7180
3ef000
3ff800
7ef800
7efc00
7c7c00
7c7e00
7c3f00
fc3f80
fc3ff0
f81ff0
f80fc0
ENDCHAR
STARTCHAR l
ENCODING 108
SWIDTH 352 0
DWIDTH 12 0
BBX 10 24 1 0
BITMAP
03c0
3fc0
7f80
0f80
1f80
1f80
1f80
1f00
1f00
3f00
3f00
3f00
3e00
7e00
7e00
7e00
7e00
fc00
fc00
fc00
fc00
ffc0
7f80
3c00
ENDCHAR
STARTCHAR m
ENCODING 109
SWIDTH 988 0
DWIDTH 33 0
BBX 31 17 1 0
BITMAP
070701e0
3f1fc7f0
ff7fcff8
1feffff8
1f07e1f8
3f07c1f8
3e07c1f0
3e07c1f0
3e0fc1f0
3e0f81f0
7e0f83f0
7e0f83e0
7c0f83e0
7c1f83f0
7c1f83fe
fc1f03fe
fc1f01f8
ENDCHAR
STARTCHAR n
ENCODING 110
SWIDTH 669 0
DWIDTH 22 0
BBX 20 17 1 0
BITMAP
070f00
3f1f80
ff7fc0
1fffc0
3f0fc0
3e07c0
3e0fc0
3e0f80
3e0f80
7e0f80
7e0f80
7c1f00
7c1f00
7c1f80
fc1ff0
fc1ff0
fc0fc0
ENDCHAR
STARTCHAR o
ENCODING 111
SWIDTH 620 0
DWIDTH 21 0
BBX 19 17 1 0
BITMAP
01fc00
07ff00
1f8f80
3f07c0
3e07e0
7e07e0
7e07e0
fc07e0
fc07e0
fc07e0
fc07c0
fc0fc0
7c0f80
7c1f80
3e3f00
1ffc00
07f000
ENDCHAR
STARTCHAR p
ENCODING 112
SWIDTH 637 0
DWIDTH 21 0
BBX 22 24 -2 -7
BITMAP
00f1e0
07e7f0
1ffff8
03f1fc
07e0fc
07e0fc
07c0fc
07c0fc
07c0fc
07c0fc
0fc1f8
0fc1f8
0f81f0
0f83e0
0f87c0
0fff80
1ffe00
1f8000
1f0000
1f0000
1f0000
1f0000
3f0000
ffe000
ENDCHAR
STARTCHAR q
ENCODING 113
SWIDTH 637 0
DWIDTH 21 0
BBX 19 24 1 -7
BITMAP
01f8e0
07ffe0
0f8fe0
1f07c0
3f07c0
7e07c0
7e07c0
7c0fc0
fc0fc0
fc0f80
fc0f80
fc0f80
fc0f80
7e1f80
7fff00
3fdf00
1f1f00
001f00
003f00
003f00
003e00
003e00
007e00
01ffc0
ENDCHAR
STARTCHAR r
ENCODING 114
SWIDTH 519 0
DWIDTH 17 0
BBX 16 17 1 0
BITMAP
030e00
3f3f00
ff7f00
1edf00
1f9f00
3f1e00
3f0800
3e0000
3e0000
3e0000
7e0000
7c0000
7c0000
7c0000
7c0000
7c0000
fc0000
ENDCHAR
STARTCHAR s
ENCODING 115
SWIDTH 488 0
DWIDTH 16 0
BBX 15 17 0 0
BITMAP
03f8
0ffc
1f3e
3e1e
3e1e
3f08
3fc0
3ff0
1ff8
07fc
01fc
787c
f87c
f87c
f0f8
7ff0
1f80
ENDCHAR
STARTCHAR t
ENCODING 116
SWIDTH 414 0
DWIDTH 14 0
BBX 13 21 1 0
BITMAP
0380
0380
0780
0f80
1f80
7ff8
fff8
1f00
1f00
3f00
3e00
3e00
3e00
3e00
7e00
7e00
7e00
7e20
7fe0
3fe0
1f00
ENDCHAR
STARTCHAR u
ENCODING 117
SWIDTH 669 0
DWIDTH 22 0
BBX 21 17 1 0
BITMAP
0701e0
3f07e0
ff07e0
1f07c0
3f07c0
3e07c0
3e07c0
3e0fc0
3e0fc0
3e0f80
7e0f80
7c0f80
7c0f80
7e3f80
7fff80
7f8ff8
3e0fc0
ENDCHAR
STARTCHAR v
ENCODING 118
SWIDTH 551 0
DWIDTH 19 0
BBX 18 17 0 0
BITMAP
060380
3f07c0
ff07c0
1f07c0
1f07c0
1f0780
1f0780
1f8700
1f8600
0f8e00
0f9c00
0fb800
0ff000
0fe000
0fc000
0fc000
0f8000
ENDCHAR
STARTCHAR w
ENCODING 119
SWIDTH 856 0
DWIDTH 29 0
BBX 28 17 0 0
BITMAP
070000e0
3f03e1f0
ff03e1f0
1f07e1f0
1f0fe1f0
1f8fe1e0
1f9fe0e0
1f9be0c0
0fb3e180
0fb3e380
0fe3e700
0fe3e600
0fc3ec00
0fc1fc00
0f81f800
0f81f000
0f01e000
ENDCHAR
STARTCHAR x
ENCODING 120
SWIDTH 565 0
DWIDTH 19 0
BBX 20 17 -1 0
BITMAP
01c0e0
0fc1f0
3fe3f0
03e7f0
03ece0
03f840
01f800
01f800
00f800
01f800
01fc00
737c00
fe7e00
fe7e00
fc3fe0
f83fe0
701f80
ENDCHAR
STARTCHAR y
ENCODING 121
SWIDTH 535 0
DWIDTH 17 0
BBX 20 24 -2 -7
BITMAP
0780c0
1f81f0
7f81f0
0fc1c0
0fc380
07c380
07c700
07c700
07ce00
07ce00
03ec00
03fc00
03f800
03f800
03f000
03f000
006000
00e000
00c000
618000
f38000
ff0000
fe0000
780000
ENDCHAR
STARTCHAR z
ENCODING 122
SWIDTH 509 0
DWIDTH 17 0
BBX 18 17 -1 0
BITMAP
07c100
0ff3c0
1fff80
3fff00
31fe00
38bc00
7c7800
38f000
11e700
03cf00
070780
0e4380
1fe100
3fff00
7ffe00
fffc00
60f800
ENDCHAR
STARTCHAR braceleft
ENCODING 123
SWIDTH 500 0
DWIDTH 17 0
BBX 14 28 1 -5
BITMAP
00fc
03fc
03f0
07e0
07c0
07c0
07c0
07c0
07c0
07c0
07c0
0f80
1f00
fe00
fe00
1f00
0f80
07c0
07c0
07c0
07c0
07c0
07c0
07c0
07e0
03f0
03fc
00fc
ENDCHAR
STARTCHAR bar
ENCODING 124
SWIDTH 500 0
DWIDTH 17 0
BBX 3 33 7 -8
BITMAP
e0
e0
e0
e0
e0
e0
e0
e0
e0
e0
e0
e0
e0
e0
e0
e0
e0
e0
e0
e0
e0
e0
e0
e0
e0
e0
e0
e0
e0
e0
e0
e0
e0
ENDCHAR
STARTCHAR braceright
ENCODING 125
SWIDTH 500 0
DWIDTH 17 0
BBX 14 28 2 -5
BITMAP
fc00
ff00
3f00
1f80
0f80
0f80
0f80
0f80
0f80
0f80
0f80
07c0
03e0
01fc
01fc
03e0
07c0
0f80
0f80
0f80
0f80
0f80
0f80
0f80
1f80
3f00
ff00
fc00
ENDCHAR
STARTCHAR c0126
ENCODING 126
SWIDTH 1000 0
DWIDTH 33 0
BBX 19 5 7 16
BITMAP
1f0020
3ff0e0
7fffc0
61ff80
c01f00
ENDCHAR
STARTCHAR space
ENCODING 160
SWIDTH 319 0
DWIDTH 11 0
BBX 1 1 0 0
BITMAP
00
ENDCHAR
STARTCHAR exclamdown
ENCODING 161
SWIDTH 343 0
DWIDTH 11 0
BBX 9 22 1 0
BITMAP
0f00
1f80
1f80
1f80
1f80
0f00
0000
0c00
0c00
0c00
1c00
1c00
3c00
3c00
3c00
7c00
7c00
7c00
fc00
fc00
fc00
7800
ENDCHAR
STARTCHAR cent
ENCODING 162
SWIDTH 639 0
DWIDTH 21 0
BBX 18 24 2 -4
BITMAP
000c00
000c00
000c00
00ff00
03ffc0
0fd9c0
1f19c0
3f1980
7e1180
7e3000
fc3000
fc3000
fc3000
fc3000
fc6300
7c6700
7e6700
3f6700
0ffe00
03fc00
00c000
00c000
00c000
00c000
ENDCHAR
STARTCHAR sterling
ENCODING 163
SWIDTH 639 0
DWIDTH 21 0
BBX 20 22 0 0
BITMAP
001f80
007fe0
01f9f0
01f1f0
03e1f0
03e1f0
07e0e0
07c000
07c000
07c000
1fff00
3fff00
07c000
0fc000
0f8000
0f8000
0f0000
1c0000
3fffc0
7fffc0
ffffc0
ffff80
ENDCHAR
STARTCHAR currency
ENCODING 164
SWIDTH 606 0
DWIDTH 20 0
BBX 18 18 1 5
BITMAP
400080
e001c0
73f380
3fff00
1e1e00
180e00
380700
300300
300300
300300
300300
380700
180600
1e1e00
3fff00
73f380
e001c0
400080
ENDCHAR
STARTCHAR yen
ENCODING 165
SWIDTH 671 0
DWIDTH 23 0
BBX 23 22 1 0
BITMAP
7fe1fe
7fe1fe
1f8078
1f8070
1f80e0
0fc1c0
0fc1c0
07e380
7fe7f8
7feff8
03fe00
03fc00
03f800
fffff0
fffff0
01f000
01f000
03f000
03f000
03f000
1ffc00
1ffc00
ENDCHAR
STARTCHAR brokenbar
ENCODING 166
SWIDTH 500 0
DWIDTH 17 0
BBX 3 29 7 -6
BITMAP
e0
e0
e0
e0
e0
e0
e0
e0
e0
e0
e0
e0
00
00
00
00
00
e0
e0
e0
e0
e0
e0
e0
e0
e0
e0
e0
e0
ENDCHAR
STARTCHAR section
ENCODING 167
SWIDTH 500 0
DWIDTH 17 0
BBX 18 29 -1 -5
BITMAP
007f00
01ffc0
03e1c0
07c1c0
078180
07c180
07c000
07f000
03f800
01fe00
07ff00
0e1f80
1c0f80
3c0780
3c0780
3e0700
3f0f00
1f9e00
1ff800
07f000
03f800
00fc00
007c00
703c00
703c00
707c00
f8f800
fff000
1fc000
ENDCHAR
STARTCHAR dieresis
ENCODING 168
SWIDTH 500 0
DWIDTH 17 0
BBX 13 5 4 19
BITMAP
7070
f8f8
f8f8
f8f8
7070
ENDCHAR
STARTCHAR copyright
ENCODING 169
SWIDTH 900 0
DWIDTH 30 0
BBX 26 26 2 -2
BITMAP
003f0000
01ffc000
0380f000
0e001800
18000e00
103f8600
30ffc300
61f1c180
63c0c180
63c0c180
c78000c0
c78000c0
c78000c0
c78000c0
c78000c0
c78000c0
63c0c180
63e0c180
61f1c300
30ffc300
183f0600
18000c00
0e001800
0380f000
01ffc000
003f0000
ENDCHAR
STARTCHAR ordfeminine
ENCODING 170
SWIDTH 488 0
DWIDTH 16 0
BBX 16 11 0 10
BITMAP
0ffc00
3cfc00
787800
787800
f07800
f0f800
f0f000
f0f000
f8f000
7fff00
3cfc00
ENDCHAR
STARTCHAR guillemotleft
ENCODING 171
SWIDTH 458 0
DWIDTH 15 0
BBX 14 13 0 1
BITMAP
0104
060c
0e1c
1e78
78f0
f1e0
e1c0
f1c0
79e0
3cf0
1c70
0830
0810
ENDCHAR
STARTCHAR logicalnot
ENCODING 172
SWIDTH 833 0
DWIDTH 28 0
BBX 20 8 4 6
BITMAP
fffff0
fffff0
fffff0
000070
000070
000070
000070
000070
ENDCHAR
STARTCHAR hyphen
ENCODING 173
SWIDTH 333 0
DWIDTH 11 0
BBX 10 4 0 6
BITMAP
7fc0
ffc0
ffc0
ff80
ENDCHAR
STARTCHAR registered
ENCODING 174
SWIDTH 900 0
DWIDTH 30 0
BBX 26 26 2 -2
BITMAP
003f0000
00ffc000
03c0f000
07001800
0c000c00
18000600
33ff8300
20f3c100
60f1e180
60f1e180
c0f1e0c0
c0f1c0c0
c0f3c0c0
c0ff00c0
c0f380c0
c0f3c0c0
60f3e180
60f1e180
60f1f100
33f8fb00
18000600
0c000c00
07001800
03c0f000
00ffc000
003f0000
ENDCHAR
STARTCHAR macron
ENCODING 175
SWIDTH 500 0
DWIDTH 17 0
BBX 13 3 4 19
BITMAP
fff8
fff8
fff8
ENDCHAR
STARTCHAR degree
ENCODING 176
SWIDTH 329 0
DWIDTH 11 0
BBX 10 10 1 13
BITMAP
1e00
3f00
6180
c0c0
c0c0
c0c0
c0c0
6180
3f00
1e00
ENDCHAR
STARTCHAR plusminus
ENCODING 177
SWIDTH 833 0
DWIDTH 28 0
BBX 19 19 5 0
BITMAP
00e000
00e000
00e000
00e000
00e000
ffffe0
ffffe0
ffffe0
00e000
00e000
00e000
00e000
00e000
000000
000000
000000
ffffe0
ffffe0
ffffe0
ENDCHAR
STARTCHAR twosuperior
ENCODING 178
SWIDTH 422 0
DWIDTH 14 0
BBX 13 14 0 9
BITMAP
0fe0
1cf8
3c78
3c78
3878
00f0
00f0
01c0
0780
0e18
1830
7ff0
fff0
fff0
ENDCHAR
STARTCHAR threesuperior
ENCODING 179
SWIDTH 422 0
DWIDTH 14 0
BBX 13 14 0 9
BITMAP
0fe0
1cf8
3c78
3878
00f0
01e0
0f80
0fe0
00f0
00f0
70f0
f0f0
f1e0
3f80
ENDCHAR
STARTCHAR acute
ENCODING 180
SWIDTH 500 0
DWIDTH 16 0
BBX 9 6 8 18
BITMAP
0f80
1e00
1c00
3800
7000
e000
ENDCHAR
STARTCHAR mu
ENCODING 181
SWIDTH 578 0
DWIDTH 19 0
BBX 20 21 -2 -7
BITMAP
070380
0f0780
0e0700
0e0700
0e0700
1e0f00
1e0f00
1c0e00
1c0e00
1c1e10
3c1e30
363620
37f7e0
73c3c0
700000
700000
700000
f00000
e00000
e00000
e00000
ENDCHAR
STARTCHAR paragraph
ENCODING 182
SWIDTH 500 0
DWIDTH 17 0
BBX 16 25 0 -3
BITMAP
0fff00
3fcc00
7fcc00
7fcc00
ffcc00
ffcc00
ffcc00
ffcc00
ffcc00
ffcc00
7fcc00
3fcc00
1fcc00
07cc00
000c00
000c00
000c00
000c00
000c00
000c00
000c00
000c00
000c00
000c00
000c00
ENDCHAR
STARTCHAR periodcentered
ENCODING 183
SWIDTH 322 0
DWIDTH 10 0
BBX 6 6 2 8
BITMAP
78
fc
fc
fc
fc
78
ENDCHAR
STARTCHAR cedilla
ENCODING 184
SWIDTH 500 0
DWIDTH 17 0
BBX 8 7 2 -7
BITMAP
0c00
1e00
1f00
0700
0700
fe00
fc00
ENDCHAR
STARTCHAR onesuperior
ENCODING 185
SWIDTH 422 0
DWIDTH 14 0
BBX 9 14 2 9
BITMAP
0380
1f80
3f80
0700
0700
0f00
0f00
0e00
0e00
0e00
1e00
1e00
1c00
ff80
ENDCHAR
STARTCHAR ordmasculine
ENCODING 186
SWIDTH 465 0
DWIDTH 15 0
BBX 13 11 1 10
BITMAP
0fe0
3cf0
7878
7878
f078
f078
f078
f0f0
f0f0
79e0
3f80
ENDCHAR
STARTCHAR guillemotright
ENCODING 187
SWIDTH 458 0
DWIDTH 15 0
BBX 15 13 -1 1
BITMAP
2040
3060
3870
3c78
1e3c
0f1e
070e
1e1e
3e7c
78f0
f0e0
c180
8100
ENDCHAR
STARTCHAR onequarter
ENCODING 188
SWIDTH 972 0
DWIDTH 32 0
BBX 29 23 2 -1
BITMAP
00001c00
0f003800
7f003000
0e007000
0e00e000
0e00c000
0e01c000
1e038000
1c030000
1c070000
1c0e0078
1c0e00f0
ff1c01f0
00180370
00380670
00700ce0
006018e0
00e030e0
01c07ff8
018001c0
038001c0
070001c0
000001c0
ENDCHAR
STARTCHAR onehalf
ENCODING 189
SWIDTH 972 0
DWIDTH 32 0
BBX 29 22 2 0
BITMAP
00001c00
0f003800
7f003000
0e007000
0e00e000
0e00c000
0e01c000
1e038000
1c030000
1c070000
1c0e07e0
1c0e0e78
ff1c1e78
00181c78
00380070
007000f0
006001c0
00e00380
01c00718
01801c30
03803ff0
07007ff0
ENDCHAR
STARTCHAR threequarters
ENCODING 190
SWIDTH 972 0
DWIDTH 32 0
BBX 31 23 0 -1
BITMAP
00000700
0fc00e00
39f00c00
38f01c00
38f03800
01e03000
0f007000
1fc0e000
01e0c000
61e1c000
e1e3801e
e3c3803c
7f07007c
000600dc
000e019c
001c0338
00180638
00380c38
00701ffe
00600070
00e00070
01c00070
00000070
ENDCHAR
STARTCHAR questiondown
ENCODING 191
SWIDTH 519 0
DWIDTH 17 0
BBX 15 22 -1 0
BITMAP
0038
007c
007e
007e
007c
0038
0000
0030
0030
00f0
07f0
0fc0
3f00
7e00
7c00
fc00
fc1e
fc1e
fc3e
7e3c
7ff8
1fe0
ENDCHAR
STARTCHAR Agrave
ENCODING 192
SWIDTH 688 0
DWIDTH 23 0
BBX 24 30 -2 0
BITMAP
001f0000
000f0000
00078000
00078000
00038000
0001c000
00000000
00000000
0007c000
0007c000
000fe000
001fe000
001fe000
003be000
003be000
0073f000
0073f000
00e3f000
01e1f000
01c1f000
03c1f000
03fff800
07fff800
0f01f800
0e00f800
1e00f800
1c00f800
3c00fc00
ff03ff00
ff03ff00
ENDCHAR
STARTCHAR Aacute
ENCODING 193
SWIDTH 688 0
DWIDTH 23 0
BBX 24 30 -2 0
BITMAP
00003e00
00007800
00007000
0000e000
0001c000
00038000
00000000
00000000
0007c000
0007c000
000fe000
001fe000
001fe000
003be000
003be000
0073f000
0073f000
00e3f000
01e1f000
01c1f000
03c1f000
03fff800
07fff800
0f01f800
0e00f800
1e00f800
1c00f800
3c00fc00
ff03ff00
ff03ff00
ENDCHAR
STARTCHAR Acircumflex
ENCODING 194
SWIDTH 688 0
DWIDTH 23 0
BBX 24 30 -2 0
BITMAP
0001f000
0001f000
0003f800
00073800
000f3800
001e3c00
00000000
00000000
0007c000
0007c000
000fe000
001fe000
001fe000
003be000
003be000
0073f000
0073f000
00e3f000
01e1f000
01c1f000
03c1f000
03fff800
07fff800
0f01f800
0e00f800
1e00f800
1c00f800
3c00fc00
ff03ff00
ff03ff00
ENDCHAR
STARTCHAR Atilde
ENCODING 195
SWIDTH 688 0
DWIDTH 23 0
BBX 24 30 -2 0
BITMAP
00000600
000f8e00
001ffc00
001ffc00
0038f800
00300000
00000000
00000000
0007c000
0007c000
000fe000
001fe000
001fe000
003be000
003be000
0073f000
0073f000
00e3f000
01e1f000
01c1f000
03c1f000
03fff800
07fff800
0f01f800
0e00f800
1e00f800
1c00f800
3c00fc00
ff03ff00
ff03ff00
ENDCHAR
STARTCHAR Adieresis
ENCODING 196
SWIDTH 688 0
DWIDTH 23 0
BBX 24 30 -2 0
BITMAP
001c1c00
003e3e00
003e3e00
003e3e00
001c1c00
00000000
00000000
00000000
0007c000
0007c000
000fe000
001fe000
001fe000
003be000
003be000
0073f000
0073f000
00e3f000
01e1f000
01c1f000
03c1f000
03fff800
07fff800
0f01f800
0e00f800
1e00f800
1c00f800
3c00fc00
ff03ff00
ff03ff00
ENDCHAR
STARTCHAR Aring
ENCODING 197
SWIDTH 688 0
DWIDTH 23 0
BBX 24 32 -2 0
BITMAP
0003c000
0007e000
000e7000
000c3000
000c3000
000e7000
0007e000
0003c000
00000000
00000000
0007c000
0007c000
000fe000
001fe000
001fe000
003be000
003be000
0073f000
0073f000
00e3f000
01e1f000
01c1f000
03c1f000
03fff800
07fff800
0f01f800
0e00f800
1e00f800
1c00f800
3c00fc00
ff03ff00
ff03ff00
ENDCHAR
STARTCHAR AE
ENCODING 198
SWIDTH 951 0
DWIDTH 32 0
BBX 35 22 -3 0
BITMAP
0007ffffe0
0007ffffe0
0000ef81c0
0001df81c0
0003df81c0
00039f01c0
00071f0000
000e1f0c00
001e3f0c00
001c3f1c00
00383ffc00
00703ff800
00fffe1800
01fffe1800
01c07e1800
03807c0000
07807c0380
0f007c0780
0e00fc0700
1c00fc0700
ff83ffff00
ff83ffff00
ENDCHAR
STARTCHAR Ccedilla
ENCODING 199
SWIDTH 671 0
DWIDTH 22 0
BBX 21 29 1 -7
BITMAP
003fe0
01fff8
07f078
0fc078
1f8070
3f0070
3f0070
7e0000
7e0000
7c0000
fc0000
fc0000
fc0000
fc0000
fc0000
fc01e0
7e01c0
7e01c0
3f03c0
1f83c0
0fffc0
03fe00
003000
007800
007c00
001c00
001c00
03f800
03f000
ENDCHAR
STARTCHAR Egrave
ENCODING 200
SWIDTH 639 0
DWIDTH 21 0
BBX 22 30 -1 0
BITMAP
007c00
003c00
001e00
001e00
000e00
000700
000000
000000
0ffffc
0ffff8
03f038
03e038
03e038
07e038
07e000
07e180
07e380
07c380
07ff80
0fff00
0fc300
0fc300
0f8300
0f8000
1f8070
1f80f0
1f80e0
1f00e0
ffffe0
ffffe0
ENDCHAR
STARTCHAR Eacute
ENCODING 201
SWIDTH 639 0
DWIDTH 21 0
BBX 22 30 -1 0
BITMAP
0000f8
0001e0
0001c0
000380
000700
000e00
000000
000000
0ffffc
0ffff8
03f038
03e038
03e038
07e038
07e000
07e180
07e380
07c380
07ff80
0fff00
0fc300
0fc300
0f8300
0f8000
1f8070
1f80f0
1f80e0
1f00e0
ffffe0
ffffe0
ENDCHAR
STARTCHAR Ecircumflex
ENCODING 202
SWIDTH 639 0
DWIDTH 21 0
BBX 22 30 -1 0
BITMAP
0007c0
0007c0
000fe0
001ce0
003ce0
0078f0
000000
000000
0ffffc
0ffff8
03f038
03e038
03e038
07e038
07e000
07e180
07e380
07c380
07ff80
0fff00
0fc300
0fc300
0f8300
0f8000
1f8070
1f80f0
1f80e0
1f00e0
ffffe0
ffffe0
ENDCHAR
STARTCHAR Edieresis
ENCODING 203
SWIDTH 639 0
DWIDTH 21 0
BBX 22 30 -1 0
BITMAP
007070
00f8f8
00f8f8
00f8f8
007070
000000
000000
000000
0ffffc
0ffff8
03f038
03e038
03e038
07e038
07e000
07e180
07e380
07c380
07ff80
0fff00
0fc300
0fc300
0f8300
0f8000
1f8070
1f80f0
1f80e0
1f00e0
ffffe0
ffffe0
ENDCHAR
STARTCHAR Igrave
ENCODING 204
SWIDTH 407 0
DWIDTH 14 0
BBX 15 30 -1 0
BITMAP
07c0
03c0
01e0
01e0
00e0
0070
0000
0000
0ffe
0ffe
03f0
03f0
03f0
03e0
03e0
07e0
07e0
07e0
07c0
07c0
0fc0
0fc0
0fc0
0f80
0f80
1f80
1f80
1f80
ffe0
ffe0
ENDCHAR
STARTCHAR Iacute
ENCODING 205
SWIDTH 407 0
DWIDTH 14 0
BBX 17 30 -1 0
BITMAP
000f80
001e00
001c00
003800
007000
00e000
000000
000000
0ffe00
0ffe00
03f000
03f000
03f000
03e000
03e000
07e000
07e000
07e000
07c000
07c000
0fc000
0fc000
0fc000
0f8000
0f8000
1f8000
1f8000
1f8000
ffe000
ffe000
ENDCHAR
STARTCHAR Icircumflex
ENCODING 206
SWIDTH 407 0
DWIDTH 14 0
BBX 16 30 -1 0
BITMAP
007c00
007c00
00fe00
01ce00
03ce00
078f00
000000
000000
0ffe00
0ffe00
03f000
03f000
03f000
03e000
03e000
07e000
07e000
07e000
07c000
07c000
0fc000
0fc000
0fc000
0f8000
0f8000
1f8000
1f8000
1f8000
ffe000
ffe000
ENDCHAR
STARTCHAR Idieresis
ENCODING 207
SWIDTH 407 0
DWIDTH 14 0
BBX 17 30 -1 0
BITMAP
070700
0f8f80
0f8f80
0f8f80
070700
000000
000000
000000
0ffe00
0ffe00
03f000
03f000
03f000
03e000
03e000
07e000
07e000
07e000
07c000
07c000
0fc000
0fc000
0fc000
0f8000
0f8000
1f8000
1f8000
1f8000
ffe000
ffe000
ENDCHAR
STARTCHAR Eth
ENCODING 208
SWIDTH 762 0
DWIDTH 25 0
BBX 25 22 -1 0
BITMAP
0fffe000
0ffff800
03f1fe00
03f07f00
03f03f00
03e01f80
07e01f80
07e01f80
07e01f80
3ffc1f80
3ffc1f80
0fc03f80
0fc03f00
0fc03f00
0f807e00
0f807e00
1f80fc00
1f80fc00
1f83f800
1f8ff000
ffffc000
fffe0000
ENDCHAR
STARTCHAR Ntilde
ENCODING 209
SWIDTH 771 0
DWIDTH 25 0
BBX 27 30 -1 0
BITMAP
00000600
000f8e00
001ffc00
001ffc00
0038f800
00300000
00000000
00000000
0ff81fe0
0ff81fe0
03f80700
03fc0700
03fc0700
037c0700
077e0600
073e0e00
073f0e00
071f0e00
061f0e00
0e1f8e00
0e0f9c00
0e0fdc00
0e07dc00
0c07dc00
1c07fc00
1c03f800
1c03f800
1c01f800
ff01f800
ff01f800
ENDCHAR
STARTCHAR Ograve
ENCODING 210
SWIDTH 780 0
DWIDTH 26 0
BBX 24 30 1 0
BITMAP
007c0000
003c0000
001e0000
001e0000
000e0000
00070000
00000000
00000000
003fc000
03fff800
07e1fc00
0fc07e00
1f807e00
3f003f00
3f003f00
7e003f00
7e003f00
fe003f00
fc003f00
fc003f00
fc007f00
fc007e00
fc007e00
fc00fc00
7c00fc00
7e01f800
7e03f000
3f87e000
1fff8000
03fc0000
ENDCHAR
STARTCHAR Oacute
ENCODING 211
SWIDTH 780 0
DWIDTH 26 0
BBX 24 30 1 0
BITMAP
0000f800
0001e000
0001c000
00038000
00070000
000e0000
00000000
00000000
003fc000
03fff800
07e1fc00
0fc07e00
1f807e00
3f003f00
3f003f00
7e003f00
7e003f00
fe003f00
fc003f00
fc003f00
fc007f00
fc007e00
fc007e00
fc00fc00
7c00fc00
7e01f800
7e03f000
3f87e000
1fff8000
03fc0000
ENDCHAR
STARTCHAR Ocircumflex
ENCODING 212
SWIDTH 780 0
DWIDTH 26 0
BBX 24 30 1 0
BITMAP
0007c000
0007c000
000fe000
001ce000
003ce000
0078f000
00000000
00000000
003fc000
03fff800
07e1fc00
0fc07e00
1f807e00
3f003f00
3f003f00
7e003f00
7e003f00
fe003f00
fc003f00
fc003f00
fc007f00
fc007e00
fc007e00
fc00fc00
7c00fc00
7e01f800
7e03f000
3f87e000
1fff8000
03fc0000
ENDCHAR
STARTCHAR Otilde
ENCODING 213
SWIDTH 780 0
DWIDTH 26 0
BBX 24 30 1 0
BITMAP
00001800
003e3800
007ff000
007ff000
00e3e000
00c00000
00000000
00000000
003fc000
03fff800
07e1fc00
0fc07e00
1f807e00
3f003f00
3f003f00
7e003f00
7e003f00
fe003f00
fc003f00
fc003f00
fc007f00
fc007e00
fc007e00
fc00fc00
7c00fc00
7e01f800
7e03f000
3f87e000
1fff8000
03fc0000
ENDCHAR
STARTCHAR Odieresis
ENCODING 214
SWIDTH 780 0
DWIDTH 26 0
BBX 24 30 1 0
BITMAP
00707000
00f8f800
00f8f800
00f8f800
00707000
00000000
00000000
00000000
003fc000
03fff800
07e1fc00
0fc07e00
1f807e00
3f003f00
3f003f00
7e003f00
7e003f00
fe003f00
fc003f00
fc003f00
fc007f00
fc007e00
fc007e00
fc00fc00
7c00fc00
7e01f800
7e03f000
3f87e000
1fff8000
03fc0000
ENDCHAR
STARTCHAR multiply
ENCODING 215
SWIDTH 833 0
DWIDTH 28 0
BBX 19 19 5 0
BITMAP
400040
e000e0
7001c0
380380
1c0700
0e0e00
071c00
03b800
01f000
00e000
01f000
03b800
071c00
0e0e00
1c0700
380380
7001c0
e000e0
400040
ENDCHAR
STARTCHAR Oslash
ENCODING 216
SWIDTH 780 0
DWIDTH 26 0
BBX 24 28 1 -3
BITMAP
00000400
00000e00
00001c00
003f9800
01fff000
07e0fc00
0fc0fc00
1f80fe00
3f01be00
3f033f00
7e073f00
7e063f00
7e0c3f00
fc183f00
fc383f00
fc707f00
fc607e00
fcc07e00
fdc0fc00
7f80fc00
7f01f800
3e03f000
3f87e000
1fff8000
3bfc0000
30000000
60000000
20000000
ENDCHAR
STARTCHAR Ugrave
ENCODING 217
SWIDTH 766 0
DWIDTH 25 0
BBX 24 30 2 0
BITMAP
00f80000
00780000
003c0000
003c0000
001c0000
000e0000
00000000
00000000
ffe0ff00
ffe0ff00
1f003c00
1f003800
3f003800
3f003800
3f003800
3e007000
7e007000
7e007000
7e007000
7e007000
7c00e000
fc00e000
fc00e000
fc00e000
fc01c000
fe03c000
7f078000
7fff0000
3ffe0000
07f00000
ENDCHAR
STARTCHAR Uacute
ENCODING 218
SWIDTH 766 0
DWIDTH 25 0
BBX 24 30 2 0
BITMAP
0001f000
0003c000
00038000
00070000
000e0000
001c0000
00000000
00000000
ffe0ff00
ffe0ff00
1f003c00
1f003800
3f003800
3f003800
3f003800
3e007000
7e007000
7e007000
7e007000
7e007000
7c00e000
fc00e000
fc00e000
fc00e000
fc01c000
fe03c000
7f078000
7fff0000
3ffe0000
07f00000
ENDCHAR
STARTCHAR Ucircumflex
ENCODING 219
SWIDTH 766 0
DWIDTH 25 0
BBX 24 30 2 0
BITMAP
000f8000
000f8000
001fc000
0039c000
0079c000
00f1e000
00000000
00000000
ffe0ff00
ffe0ff00
1f003c00
1f003800
3f003800
3f003800
3f003800
3e007000
7e007000
7e007000
7e007000
7e007000
7c00e000
fc00e000
fc00e000
fc00e000
fc01c000
fe03c000
7f078000
7fff0000
3ffe0000
07f00000
ENDCHAR
STARTCHAR Udieresis
ENCODING 220
SWIDTH 766 0
DWIDTH 25 0
BBX 24 30 2 0
BITMAP
00e0e000
01f1f000
01f1f000
01f1f000
00e0e000
00000000
00000000
00000000
ffe0ff00
ffe0ff00
1f003c00
1f003800
3f003800
3f003800
3f003800
3e007000
7e007000
7e007000
7e007000
7e007000
7c00e000
fc00e000
fc00e000
fc00e000
fc01c000
fe03c000
7f078000
7fff0000
3ffe0000
07f00000
ENDCHAR
STARTCHAR Yacute
ENCODING 221
SWIDTH 634 0
DWIDTH 21 0
BBX 22 30 1 0
BITMAP
0003e0
000780
000700
000e00
001c00
003800
000000
000000
ffc3fc
ffc3fc
3f00f0
1f00e0
1f81c0
1f83c0
0f8380
0fc700
0fce00
07de00
07fc00
07f800
03f000
03f000
03f000
03e000
03e000
03e000
07e000
07e000
3ff800
3ff800
ENDCHAR
STARTCHAR Thorn
ENCODING 222
SWIDTH 644 0
DWIDTH 21 0
BBX 21 22 -1 0
BITMAP
1ffc00
1ffc00
03f000
03e000
03ffc0
07ffe0
07e3f0
07c1f8
07c1f8
07c1f8
0fc1f8
0fc1f8
0f81f8
0f83f0
0f87e0
1f8fe0
1fff80
1ffe00
1f0000
1f0000
ffe000
ffe000
ENDCHAR
STARTCHAR germandbls
ENCODING 223
SWIDTH 697 0
DWIDTH 23 0
BBX 27 31 -6 -7
BITMAP
0000fe00
0003ffc0
00078fc0
000f07e0
001f07e0
003e07e0
003e07e0
003e0fc0
007c1f00
007c7c00
007c7c00
007c7c00
007c7e00
007c7f00
00f87f80
00f83fc0
00f81fe0
00f807e0
00f9e7e0
00fbc3e0
01f3c3e0
01f3c7c0
01f1ff80
01e07c00
01e00000
41c00000
63c00000
fb800000
ff000000
fe000000
78000000
ENDCHAR
STARTCHAR agrave
ENCODING 224
SWIDTH 650 0
DWIDTH 22 0
BBX 21 24 1 0
BITMAP
01f000
00f000
007800
007800
003800
001c00
000000
01f8e0
07ffe0
0f8fe0
1f07c0
3e07c0
7e07c0
7e07c0
7c0fc0
fc0f80
fc0f80
fc0f80
fc0f80
fc0f80
fe3f80
7fff88
3fdff8
1f0fc0
ENDCHAR
STARTCHAR aacute
ENCODING 225
SWIDTH 650 0
DWIDTH 22 0
BBX 21 24 1 0
BITMAP
0003e0
000780
000700
000e00
001c00
003800
000000
01f8e0
07ffe0
0f8fe0
1f07c0
3e07c0
7e07c0
7e07c0
7c0fc0
fc0f80
fc0f80
fc0f80
fc0f80
fc0f80
fe3f80
7fff88
3fdff8
1f0fc0
ENDCHAR
STARTCHAR acircumflex
ENCODING 226
SWIDTH 650 0
DWIDTH 22 0
BBX 21 24 1 0
BITMAP
001f00
001f00
003f80
007380
00f380
01e3c0
000000
01f8e0
07ffe0
0f8fe0
1f07c0
3e07c0
7e07c0
7e07c0
7c0fc0
fc0f80
fc0f80
fc0f80
fc0f80
fc0f80
fe3f80
7fff88
3fdff8
1f0fc0
ENDCHAR
STARTCHAR atilde
ENCODING 227
SWIDTH 650 0
DWIDTH 22 0
BBX 21 24 1 0
BITMAP
000060
00f8e0
01ffc0
01ffc0
038f80
030000
000000
01f8e0
07ffe0
0f8fe0
1f07c0
3e07c0
7e07c0
7e07c0
7c0fc0
fc0f80
fc0f80
fc0f80
fc0f80
fc0f80
fe3f80
7fff88
3fdff8
1f0fc0
ENDCHAR
STARTCHAR adieresis
ENCODING 228
SWIDTH 650 0
DWIDTH 22 0
BBX 21 24 1 0
BITMAP
01c1c0
03e3e0
03e3e0
03e3e0
01c1c0
000000
000000
01f8e0
07ffe0
0f8fe0
1f07c0
3e07c0
7e07c0
7e07c0
7c0fc0
fc0f80
fc0f80
fc0f80
fc0f80
fc0f80
fe3f80
7fff88
3fdff8
1f0fc0
ENDCHAR
STARTCHAR aring
ENCODING 229
SWIDTH 650 0
DWIDTH 22 0
BBX 21 26 1 0
BITMAP
007800
00fc00
00ce00
018600
018600
00ce00
00fc00
007800
000000
01f8e0
07ffe0
0f8fe0
1f07c0
3e07c0
7e07c0
7e07c0
7c0fc0
fc0f80
fc0f80
fc0f80
fc0f80
fc0f80
fe3f80
7fff88
3fdff8
1f0fc0
ENDCHAR
STARTCHAR ae
ENCODING 230
SWIDTH 796 0
DWIDTH 26 0
BBX 25 17 0 0
BITMAP
03f03e00
0ffdff00
1e3fc780
3e1f8780
3e1f0780
3e1f0f80
001f1f00
01fefe00
1ffff000
3e3e0000
7c3e0000
f83e0000
f83f0100
fc7f8700
ffffff00
7f8ffc00
3e03f000
ENDCHAR
STARTCHAR ccedilla
ENCODING 231
SWIDTH 498 0
DWIDTH 17 0
BBX 15 24 1 -7
BITMAP
00f8
07fe
0f7e
1f3e
3e3e
7e1c
7c00
fc00
fc00
fc00
fc00
fc00
fe04
7f1c
7ffc
3ff0
0fc0
0600
0f00
0f80
0380
0380
7f00
7e00
ENDCHAR
STARTCHAR egrave
ENCODING 232
SWIDTH 523 0
DWIDTH 17 0
BBX 15 24 1 0
BITMAP
07c0
03c0
01e0
01e0
00e0
0070
0000
00f8
03fc
0f1e
1e1e
3e1e
7e3e
7cfc
fff0
ffc0
fc00
fc00
fc00
fe04
7f1c
7ffc
3ff0
0fc0
ENDCHAR
STARTCHAR eacute
ENCODING 233
SWIDTH 523 0
DWIDTH 17 0
BBX 17 24 1 0
BITMAP
000f80
001e00
001c00
003800
007000
00e000
000000
00f800
03fc00
0f1e00
1e1e00
3e1e00
7e3e00
7cfc00
fff000
ffc000
fc0000
fc0000
fc0000
fe0400
7f1c00
7ffc00
3ff000
0fc000
ENDCHAR
STARTCHAR ecircumflex
ENCODING 234
SWIDTH 523 0
DWIDTH 17 0
BBX 16 24 1 0
BITMAP
007c00
007c00
00fe00
01ce00
03ce00
078f00
000000
00f800
03fc00
0f1e00
1e1e00
3e1e00
7e3e00
7cfc00
fff000
ffc000
fc0000
fc0000
fc0000
fe0400
7f1c00
7ffc00
3ff000
0fc000
ENDCHAR
STARTCHAR edieresis
ENCODING 235
SWIDTH 523 0
DWIDTH 17 0
BBX 17 24 1 0
BITMAP
070700
0f8f80
0f8f80
0f8f80
070700
000000
000000
00f800
03fc00
0f1e00
1e1e00
3e1e00
7e3e00
7cfc00
fff000
ffc000
fc0000
fc0000
fc0000
fe0400
7f1c00
7ffc00
3ff000
0fc000
ENDCHAR
STARTCHAR igrave
ENCODING 236
SWIDTH 361 0
DWIDTH 12 0
BBX 11 24 1 0
BITMAP
7c00
3c00
1e00
1e00
0e00
0700
0000
0780
3f80
ff80
1f00
1f00
1f00
3f00
3f00
3e00
3e00
3e00
7e00
7e00
7e00
7fe0
7fc0
3e00
ENDCHAR
STARTCHAR iacute
ENCODING 237
SWIDTH 361 0
DWIDTH 12 0
BBX 13 24 1 0
BITMAP
00f8
01e0
01c0
0380
0700
0e00
0000
0780
3f80
ff80
1f00
1f00
1f00
3f00
3f00
3e00
3e00
3e00
7e00
7e00
7e00
7fe0
7fc0
3e00
ENDCHAR
STARTCHAR icircumflex
ENCODING 238
SWIDTH 361 0
DWIDTH 12 0
BBX 12 24 1 0
BITMAP
07c0
07c0
0fe0
1ce0
3ce0
78f0
0000
0780
3f80
ff80
1f00
1f00
1f00
3f00
3f00
3e00
3e00
3e00
7e00
7e00
7e00
7fe0
7fc0
3e00
ENDCHAR
STARTCHAR idieresis
ENCODING 239
SWIDTH 361 0
DWIDTH 12 0
BBX 13 24 1 0
BITMAP
7070
f8f8
f8f8
f8f8
7070
0000
0000
0780
3f80
ff80
1f00
1f00
1f00
3f00
3f00
3e00
3e00
3e00
7e00
7e00
7e00
7fe0
7fc0
3e00
ENDCHAR
STARTCHAR eth
ENCODING 240
SWIDTH 645 0
DWIDTH 21 0
BBX 19 24 1 0
BITMAP
007800
03fce0
007fc0
003f00
03ff80
031f80
000fc0
01ffc0
07ffc0
1f87e0
3f07e0
3e07e0
7e07e0
7e07e0
fc07e0
fc07e0
fc07c0
fc07c0
fc0fc0
7c0f80
7c1f00
3e3e00
1ffc00
07e000
ENDCHAR
STARTCHAR ntilde
ENCODING 241
SWIDTH 669 0
DWIDTH 22 0
BBX 20 24 1 0
BITMAP
000060
00f8e0
01ffc0
01ffc0
038f80
030000
000000
070f00
3f1f80
ff7fc0
1fffc0
3f0fc0
3e07c0
3e0fc0
3e0f80
3e0f80
7e0f80
7e0f80
7c1f00
7c1f00
7c1f80
fc1ff0
fc1ff0
fc0fc0
ENDCHAR
STARTCHAR ograve
ENCODING 242
SWIDTH 620 0
DWIDTH 21 0
BBX 19 24 1 0
BITMAP
03e000
01e000
00f000
00f000
007000
003800
000000
01fc00
07ff00
1f8f80
3f07c0
3e07e0
7e07e0
7e07e0
fc07e0
fc07e0
fc07e0
fc07c0
fc0fc0
7c0f80
7c1f80
3e3f00
1ffc00
07f000
ENDCHAR
STARTCHAR oacute
ENCODING 243
SWIDTH 620 0
DWIDTH 21 0
BBX 19 24 1 0
BITMAP
0007c0
000f00
000e00
001c00
003800
007000
000000
01fc00
07ff00
1f8f80
3f07c0
3e07e0
7e07e0
7e07e0
fc07e0
fc07e0
fc07e0
fc07c0
fc0fc0
7c0f80
7c1f80
3e3f00
1ffc00
07f000
ENDCHAR
STARTCHAR ocircumflex
ENCODING 244
SWIDTH 620 0
DWIDTH 21 0
BBX 19 24 1 0
BITMAP
003e00
003e00
007f00
00e700
01e700
03c780
000000
01fc00
07ff00
1f8f80
3f07c0
3e07e0
7e07e0
7e07e0
fc07e0
fc07e0
fc07e0
fc07c0
fc0fc0
7c0f80
7c1f80
3e3f00
1ffc00
07f000
ENDCHAR
STARTCHAR otilde
ENCODING 245
SWIDTH 620 0
DWIDTH 21 0
BBX 19 24 1 0
BITMAP
0000c0
01f1c0
03ff80
03ff80
071f00
060000
000000
01fc00
07ff00
1f8f80
3f07c0
3e07e0
7e07e0
7e07e0
fc07e0
fc07e0
fc07e0
fc07c0
fc0fc0
7c0f80
7c1f80
3e3f00
1ffc00
07f000
ENDCHAR
STARTCHAR odieresis
ENCODING 246
SWIDTH 620 0
DWIDTH 21 0
BBX 19 24 1 0
BITMAP
038380
07c7c0
07c7c0
07c7c0
038380
000000
000000
01fc00
07ff00
1f8f80
3f07c0
3e07e0
7e07e0
7e07e0
fc07e0
fc07e0
fc07e0
fc07c0
fc0fc0
7c0f80
7c1f80
3e3f00
1ffc00
07f000
ENDCHAR
STARTCHAR divide
ENCODING 247
SWIDTH 833 0
DWIDTH 28 0
BBX 20 17 4 1
BITMAP
006000
00f000
00f000
006000
000000
000000
000000
fffff0
fffff0
fffff0
000000
000000
000000
006000
00f000
00f000
006000
ENDCHAR
STARTCHAR oslash
ENCODING 248
SWIDTH 620 0
DWIDTH 21 0
BBX 19 23 1 -3
BITMAP
000100
000180
000300
00ff00
07ff00
0f8f80
1f0fc0
3e1fc0
7e37e0
7c37e0
fc67e0
fc47e0
fcc7e0
fd87c0
fd8fc0
7f0f80
7e1f00
3e3e00
1ffc00
1fe000
180000
300000
100000
ENDCHAR
STARTCHAR ugrave
ENCODING 249
SWIDTH 669 0
DWIDTH 22 0
BBX 21 24 1 0
BITMAP
01f000
00f000
007800
007800
003800
001c00
000000
0701e0
3f07e0
ff07e0
1f07c0
3f07c0
3e07c0
3e07c0
3e0fc0
3e0fc0
3e0f80
7e0f80
7c0f80
7c0f80
7e3f80
7fff80
7f8ff8
3e0fc0
ENDCHAR
STARTCHAR uacute
ENCODING 250
SWIDTH 669 0
DWIDTH 22 0
BBX 21 24 1 0
BITMAP
0003e0
000780
000700
000e00
001c00
003800
000000
0701e0
3f07e0
ff07e0
1f07c0
3f07c0
3e07c0
3e07c0
3e0fc0
3e0fc0
3e0f80
7e0f80
7c0f80
7c0f80
7e3f80
7fff80
7f8ff8
3e0fc0
ENDCHAR
STARTCHAR ucircumflex
ENCODING 251
SWIDTH 669 0
DWIDTH 22 0
BBX 21 24 1 0
BITMAP
001f00
001f00
003f80
007380
00f380
01e3c0
000000
0701e0
3f07e0
ff07e0
1f07c0
3f07c0
3e07c0
3e07c0
3e0fc0
3e0fc0
3e0f80
7e0f80
7c0f80
7c0f80
7e3f80
7fff80
7f8ff8
3e0fc0
ENDCHAR
STARTCHAR udieresis
ENCODING 252
SWIDTH 669 0
DWIDTH 22 0
BBX 21 24 1 0
BITMAP
01c1c0
03e3e0
03e3e0
03e3e0
01c1c0
000000
000000
0701e0
3f07e0
ff07e0
1f07c0
3f07c0
3e07c0
3e07c0
3e0fc0
3e0fc0
3e0f80
7e0f80
7c0f80
7c0f80
7e3f80
7fff80
7f8ff8
3e0fc0
ENDCHAR
STARTCHAR yacute
ENCODING 253
SWIDTH 535 0
DWIDTH 17 0
BBX 20 31 -2 -7
BITMAP
0001f0
0003c0
000380
000700
000e00
001c00
000000
0780c0
1f81f0
7f81f0
0fc1c0
0fc380
07c380
07c700
07c700
07ce00
07ce00
03ec00
03fc00
03f800
03f800
03f000
03f000
006000
00e000
00c000
618000
f38000
ff0000
fe0000
780000
ENDCHAR
STARTCHAR thorn
ENCODING 254
SWIDTH 637 0
DWIDTH 21 0
BBX 22 31 -2 -7
BITMAP
007800
03f800
0ff000
01f000
01f000
01f000
01f000
03e3e0
03eff0
03fff8
03f1fc
03e0fc
07e0fc
07c0fc
07c0fc
07c0fc
07c0fc
07c1f8
0fc1f8
0f83f0
0f83e0
0f87c0
0fff80
0ffe00
1f8000
1f0000
1f0000
1f0000
1f0000
3f0000
ffe000
ENDCHAR
STARTCHAR ydieresis
ENCODING 255
SWIDTH 535 0
DWIDTH 17 0
BBX 20 31 -2 -7
BITMAP
00e0e0
01f1f0
01f1f0
01f1f0
00e0e0
000000
000000
0780c0
1f81f0
7f81f0
0fc1c0
0fc380
07c380
07c700
07c700
07ce00
07ce00
03ec00
03fc00
03f800
03f800
03f000
03f000
006000
00e000
00c000
618000
f38000
ff0000
fe0000
780000
ENDCHAR
ENDFONT
