STARTFONT 2.1
COMMENT $Xorg: charI12.bdf,v 1.3 2000/08/17 19:42:53 cpqbld Exp $
COMMENT  
COMMENT  Copyright 1988 Bitstream, Inc., Cambridge, Massachusetts, USA
COMMENT  Bitstream and Charter are registered trademarks of Bitstream, Inc.
COMMENT  
COMMENT  The names "Bitstream" and "Charter" are registered trademarks of
COMMENT  Bitstream, Inc.  Permission to use these trademarks is hereby
COMMENT  granted only in association with the images described in this file.
COMMENT  
COMMENT  Permission to use, copy, modify, and distribute this software and
COMMENT  its documentation for any purpose and without fee is hereby
COMMENT  granted, provided that the above copyright notice appear in all
COMMENT  copies and that both that copyright notice and this permission
COMMENT  notice appear in supporting documentation, and that the name of
COMMENT  Bitstream not be used in advertising or publicity pertaining to
COMMENT  distribution of the software without specific, written prior
COMMENT  permission.  Bitstream makes no representations about the
COMMENT  suitability of this software for any purpose.  It is provided "as
COMMENT  is" without express or implied warranty.
COMMENT  
COMMENT  BITSTREAM DISCLAIMS ALL WARRANTIES WITH REGARD TO THIS SOFTWARE,
COMMENT  INCLUDING ALL IMPLIED WARRANTIES OF MERCHANTABILITY AND FITNESS, IN
COMMENT  NO EVENT SHALL BITSTREAM BE LIABLE FOR ANY SPECIAL, INDIRECT OR
COMMENT  CONSEQUENTIAL DAMAGES OR ANY DAMAGES WHATSOEVER RESULTING FROM LOSS
COMMENT  OF USE, DATA OR PROFITS, WHETHER IN AN ACTION OF CONTRACT,
COMMENT  NEGLIGENCE OR OTHER TORTIOUS ACTION, ARISING OUT OF OR IN
COMMENT  CONNECTION WITH THE USE OR PERFORMANCE OF THIS SOFTWARE.
COMMENT  
COMMENT  
COMMENT Fontware CVTBDF v1.0
FONT -Bitstream-Charter-Medium-I-Normal--17-120-100-100-P-92-ISO8859-1
SIZE 12 100 100
FONTBOUNDINGBOX 18 20 -2 -4
STARTPROPERTIES 22
COMMENT Begin LogicalFontDescription
FONTNAME_REGISTRY ""
FAMILY_NAME "Charter"
FOUNDRY "Bitstream"
WEIGHT_NAME "Medium"
SETWIDTH_NAME "Normal"
SLANT "I"
ADD_STYLE_NAME ""
PIXEL_SIZE 17
POINT_SIZE 120
RESOLUTION_X 100
RESOLUTION_Y 100
SPACING "P"
AVERAGE_WIDTH 92
CHARSET_REGISTRY "ISO8859"
CHARSET_ENCODING "1"
COMMENT END LogicalFontDescription
FONT_DESCENT 4
FONT_ASCENT 16
CAP_HEIGHT 11
X_HEIGHT 8
CHARSET_COLLECTIONS "ASCII ISOLATIN1"
FACE_NAME "Bitstream Charter Italic"
COPYRIGHT "Copyright 1987 by Bitstream Inc. Charter Registered trademark of Bitstream Inc."
COMMENT ****** end of font properties
ENDPROPERTIES
CHARS 191
STARTCHAR space
ENCODING 32
SWIDTH 278 0
DWIDTH 5 0
BBX 1 1 0 0
BITMAP
00
ENDCHAR
STARTCHAR exclam
ENCODING 33
SWIDTH 338 0
DWIDTH 6 0
BBX 4 11 1 0
BITMAP
30
30
30
20
60
60
40
40
00
c0
c0
ENDCHAR
STARTCHAR quotedbl
ENCODING 34
SWIDTH 331 0
DWIDTH 7 0
BBX 5 5 1 7
BITMAP
d8
d8
d8
48
48
ENDCHAR
STARTCHAR numbersign
ENCODING 35
SWIDTH 745 0
DWIDTH 12 0
BBX 10 12 1 0
BITMAP
0480
0880
0900
0900
7fc0
1200
1200
ff80
2400
2400
4400
4800
ENDCHAR
STARTCHAR dollar
ENCODING 36
SWIDTH 556 0
DWIDTH 9 0
BBX 8 15 0 -2
BITMAP
0400
0400
1f00
3500
2900
6800
3800
1c00
0e00
1200
9200
9400
7800
1000
2000
ENDCHAR
STARTCHAR percent
ENCODING 37
SWIDTH 852 0
DWIDTH 14 0
BBX 12 11 1 0
BITMAP
3020
4840
8880
8900
9a60
9690
6490
0910
1110
2120
40c0
ENDCHAR
STARTCHAR ampersand
ENCODING 38
SWIDTH 704 0
DWIDTH 12 0
BBX 11 11 0 0
BITMAP
0e00
1300
2100
2200
3c00
39e0
4c80
c480
c300
c700
79c0
ENDCHAR
STARTCHAR quoteright
ENCODING 39
SWIDTH 201 0
DWIDTH 4 0
BBX 3 5 1 7
BITMAP
60
60
20
40
c0
ENDCHAR
STARTCHAR parenleft
ENCODING 40
SWIDTH 419 0
DWIDTH 7 0
BBX 7 14 1 -2
BITMAP
06
18
30
60
40
40
c0
80
80
80
80
80
40
30
ENDCHAR
STARTCHAR parenright
ENCODING 41
SWIDTH 419 0
DWIDTH 7 0
BBX 6 14 -1 -2
BITMAP
10
08
04
04
04
04
04
04
0c
08
08
10
20
c0
ENDCHAR
STARTCHAR asterisk
ENCODING 42
SWIDTH 500 0
DWIDTH 8 0
BBX 6 6 2 6
BITMAP
10
10
ec
30
50
d0
ENDCHAR
STARTCHAR plus
ENCODING 43
SWIDTH 833 0
DWIDTH 14 0
BBX 9 11 3 0
BITMAP
0800
0800
0800
0800
0800
ff80
0800
0800
0800
0800
0800
ENDCHAR
STARTCHAR comma
ENCODING 44
SWIDTH 278 0
DWIDTH 4 0
BBX 3 5 -1 -3
BITMAP
60
60
20
40
80
ENDCHAR
STARTCHAR hyphen
ENCODING 45
SWIDTH 319 0
DWIDTH 5 0
BBX 4 1 0 4
BITMAP
f0
ENDCHAR
STARTCHAR period
ENCODING 46
SWIDTH 278 0
DWIDTH 4 0
BBX 2 2 0 0
BITMAP
c0
c0
ENDCHAR
STARTCHAR slash
ENCODING 47
SWIDTH 481 0
DWIDTH 8 0
BBX 11 13 -2 -2
BITMAP
0020
0040
0080
0100
0100
0200
0400
0800
1800
1000
2000
4000
8000
ENDCHAR
STARTCHAR zero
ENCODING 48
SWIDTH 556 0
DWIDTH 9 0
BBX 8 11 1 0
BITMAP
1e00
3300
6100
4100
c100
8100
8300
8200
8600
cc00
7800
ENDCHAR
STARTCHAR one
ENCODING 49
SWIDTH 556 0
DWIDTH 9 0
BBX 6 11 1 0
BITMAP
1c
7c
08
08
08
18
18
10
10
30
fc
ENDCHAR
STARTCHAR two
ENCODING 50
SWIDTH 556 0
DWIDTH 9 0
BBX 9 11 -1 0
BITMAP
0f00
1180
3080
0080
0180
0300
0600
0800
1080
6080
ff00
ENDCHAR
STARTCHAR three
ENCODING 51
SWIDTH 556 0
DWIDTH 9 0
BBX 8 11 0 0
BITMAP
0e00
3100
2100
0100
0600
1c00
0200
0300
c200
c600
7800
ENDCHAR
STARTCHAR four
ENCODING 52
SWIDTH 556 0
DWIDTH 9 0
BBX 8 12 0 -1
BITMAP
0100
0300
0700
0a00
1200
2200
4200
ff00
0400
0400
0400
0400
ENDCHAR
STARTCHAR five
ENCODING 53
SWIDTH 556 0
DWIDTH 9 0
BBX 8 11 0 0
BITMAP
1f00
2000
2000
2000
3c00
0600
0200
0200
8200
cc00
7000
ENDCHAR
STARTCHAR six
ENCODING 54
SWIDTH 556 0
DWIDTH 9 0
BBX 7 12 1 0
BITMAP
06
18
20
40
7c
c6
82
82
82
86
c4
78
ENDCHAR
STARTCHAR seven
ENCODING 55
SWIDTH 556 0
DWIDTH 9 0
BBX 9 12 1 -1
BITMAP
7f80
4100
4200
0600
0400
0800
1800
1000
2000
2000
4000
8000
ENDCHAR
STARTCHAR eight
ENCODING 56
SWIDTH 556 0
DWIDTH 9 0
BBX 8 11 0 0
BITMAP
1e00
2100
6100
6100
7200
3c00
4600
8300
8200
c600
7800
ENDCHAR
STARTCHAR nine
ENCODING 57
SWIDTH 556 0
DWIDTH 9 0
BBX 8 11 1 0
BITMAP
1e00
6300
c100
8100
8100
c700
7a00
0600
0800
7000
8000
ENDCHAR
STARTCHAR colon
ENCODING 58
SWIDTH 319 0
DWIDTH 5 0
BBX 3 8 1 0
BITMAP
60
60
00
00
00
00
c0
c0
ENDCHAR
STARTCHAR semicolon
ENCODING 59
SWIDTH 319 0
DWIDTH 5 0
BBX 5 11 -1 -3
BITMAP
18
18
00
00
00
00
30
70
10
20
c0
ENDCHAR
STARTCHAR less
ENCODING 60
SWIDTH 833 0
DWIDTH 14 0
BBX 10 9 2 1
BITMAP
0040
0380
0c00
7000
c000
7000
0e00
0380
0040
ENDCHAR
STARTCHAR equal
ENCODING 61
SWIDTH 833 0
DWIDTH 14 0
BBX 10 4 2 3
BITMAP
ffc0
0000
0000
ffc0
ENDCHAR
STARTCHAR greater
ENCODING 62
SWIDTH 833 0
DWIDTH 14 0
BBX 10 9 2 1
BITMAP
8000
7000
0c00
0380
00c0
0380
0c00
7000
8000
ENDCHAR
STARTCHAR question
ENCODING 63
SWIDTH 486 0
DWIDTH 8 0
BBX 6 11 1 0
BITMAP
70
cc
0c
08
18
60
40
40
00
c0
c0
ENDCHAR
STARTCHAR at
ENCODING 64
SWIDTH 942 0
DWIDTH 16 0
BBX 13 14 2 -2
BITMAP
0fc0
1020
2010
4748
8888
9888
9088
9190
93b0
cdc0
4000
6000
3060
0f80
ENDCHAR
STARTCHAR A
ENCODING 65
SWIDTH 606 0
DWIDTH 10 0
BBX 11 11 -1 0
BITMAP
0100
0300
0580
0580
0880
0880
1f80
3080
20c0
40c0
e1e0
ENDCHAR
STARTCHAR B
ENCODING 66
SWIDTH 588 0
DWIDTH 10 0
BBX 9 11 0 0
BITMAP
3f00
1880
1080
1080
3100
3f00
3180
2080
2180
6300
fe00
ENDCHAR
STARTCHAR C
ENCODING 67
SWIDTH 604 0
DWIDTH 10 0
BBX 9 11 1 0
BITMAP
0f00
3080
6080
4000
8000
8000
8000
8000
8100
4200
3c00
ENDCHAR
STARTCHAR D
ENCODING 68
SWIDTH 671 0
DWIDTH 11 0
BBX 11 11 -1 0
BITMAP
3f80
18c0
1820
1020
1020
3020
3020
3040
20c0
2380
fe00
ENDCHAR
STARTCHAR E
ENCODING 69
SWIDTH 546 0
DWIDTH 9 0
BBX 10 11 0 0
BITMAP
3fc0
1840
1040
1000
1100
3f00
3100
2000
2080
6080
ff80
ENDCHAR
STARTCHAR F
ENCODING 70
SWIDTH 509 0
DWIDTH 8 0
BBX 9 11 0 0
BITMAP
3f80
1080
1080
1000
3200
3e00
2200
2000
2000
6000
f000
ENDCHAR
STARTCHAR G
ENCODING 71
SWIDTH 664 0
DWIDTH 11 0
BBX 10 11 1 0
BITMAP
0fc0
30c0
6080
4000
8000
83c0
8180
8100
c100
6300
3e00
ENDCHAR
STARTCHAR H
ENCODING 72
SWIDTH 712 0
DWIDTH 12 0
BBX 13 11 0 0
BITMAP
3c78
1830
1020
1020
3060
3fe0
3060
2040
2040
60c0
f1e0
ENDCHAR
STARTCHAR I
ENCODING 73
SWIDTH 313 0
DWIDTH 5 0
BBX 6 11 0 0
BITMAP
3c
18
10
10
30
30
30
20
20
60
f0
ENDCHAR
STARTCHAR J
ENCODING 74
SWIDTH 447 0
DWIDTH 8 0
BBX 9 11 -1 0
BITMAP
0f80
0200
0200
0600
0600
0600
0400
0c00
8c00
9800
f000
ENDCHAR
STARTCHAR K
ENCODING 75
SWIDTH 625 0
DWIDTH 10 0
BBX 11 11 0 0
BITMAP
3de0
1080
1100
1200
3400
3c00
2400
2600
2200
6300
f1c0
ENDCHAR
STARTCHAR L
ENCODING 76
SWIDTH 498 0
DWIDTH 9 0
BBX 8 11 0 0
BITMAP
3c00
1800
1000
1000
3000
3000
2000
2000
2100
6100
ff00
ENDCHAR
STARTCHAR M
ENCODING 77
SWIDTH 839 0
DWIDTH 14 0
BBX 15 11 0 0
BITMAP
380e
181c
1c18
1c28
2448
2458
2498
2790
2710
4210
f278
ENDCHAR
STARTCHAR N
ENCODING 78
SWIDTH 683 0
DWIDTH 11 0
BBX 12 11 0 0
BITMAP
3870
1820
1820
1c40
2440
2640
2240
2340
4180
4180
e080
ENDCHAR
STARTCHAR O
ENCODING 79
SWIDTH 708 0
DWIDTH 12 0
BBX 10 11 1 0
BITMAP
0f00
3080
6040
4040
c040
8040
8040
80c0
8180
4300
3c00
ENDCHAR
STARTCHAR P
ENCODING 80
SWIDTH 542 0
DWIDTH 9 0
BBX 9 11 0 0
BITMAP
3f00
1980
1080
1080
3080
3300
3e00
2000
2000
6000
f000
ENDCHAR
STARTCHAR Q
ENCODING 81
SWIDTH 708 0
DWIDTH 12 0
BBX 11 14 1 -3
BITMAP
0f00
3080
6040
4040
c040
8040
8040
80c0
c180
4300
3e00
0600
0320
01c0
ENDCHAR
STARTCHAR R
ENCODING 82
SWIDTH 602 0
DWIDTH 10 0
BBX 10 11 0 0
BITMAP
3f00
1980
1080
1080
3100
3e00
3300
2100
2100
6180
f0c0
ENDCHAR
STARTCHAR S
ENCODING 83
SWIDTH 537 0
DWIDTH 9 0
BBX 9 11 0 0
BITMAP
0f00
1080
2080
2000
3000
1e00
0300
0100
4100
c200
7c00
ENDCHAR
STARTCHAR T
ENCODING 84
SWIDTH 565 0
DWIDTH 9 0
BBX 9 11 1 0
BITMAP
ff80
8880
8880
1800
1800
1000
1000
1000
3000
3000
7800
ENDCHAR
STARTCHAR U
ENCODING 85
SWIDTH 664 0
DWIDTH 11 0
BBX 11 11 1 0
BITMAP
f1e0
4040
4080
4080
c080
c080
8100
8100
8100
c200
7c00
ENDCHAR
STARTCHAR V
ENCODING 86
SWIDTH 590 0
DWIDTH 10 0
BBX 10 11 1 0
BITMAP
e1c0
4080
6100
6100
2200
2200
2400
2400
2800
3000
1000
ENDCHAR
STARTCHAR W
ENCODING 87
SWIDTH 898 0
DWIDTH 15 0
BBX 15 11 1 0
BITMAP
f10e
6104
6388
6388
6590
6490
28a0
28a0
30c0
30c0
2080
ENDCHAR
STARTCHAR X
ENCODING 88
SWIDTH 569 0
DWIDTH 10 0
BBX 12 11 -1 0
BITMAP
3c70
0840
0c80
0500
0700
0200
0700
0900
1180
2080
f3c0
ENDCHAR
STARTCHAR Y
ENCODING 89
SWIDTH 563 0
DWIDTH 10 0
BBX 10 11 1 0
BITMAP
f3c0
6180
2100
2200
3400
1800
1000
1000
1000
3000
7800
ENDCHAR
STARTCHAR Z
ENCODING 90
SWIDTH 556 0
DWIDTH 9 0
BBX 10 11 0 0
BITMAP
3fc0
2080
2100
0300
0600
0c00
1800
3000
2100
4100
ff00
ENDCHAR
STARTCHAR bracketleft
ENCODING 91
SWIDTH 421 0
DWIDTH 7 0
BBX 6 14 1 -2
BITMAP
3c
20
20
20
20
60
60
40
40
40
40
c0
80
f0
ENDCHAR
STARTCHAR backslash
ENCODING 92
SWIDTH 481 0
DWIDTH 8 0
BBX 7 13 1 -2
BITMAP
80
40
40
20
20
10
10
10
08
08
04
04
02
ENDCHAR
STARTCHAR bracketright
ENCODING 93
SWIDTH 421 0
DWIDTH 7 0
BBX 7 14 -1 -2
BITMAP
1e
06
06
04
04
04
0c
08
08
08
18
18
10
f0
ENDCHAR
STARTCHAR asciicircum
ENCODING 94
SWIDTH 1000 0
DWIDTH 17 0
BBX 10 5 3 7
BITMAP
0c00
1e00
3300
4080
8040
ENDCHAR
STARTCHAR underscore
ENCODING 95
SWIDTH 500 0
DWIDTH 8 0
BBX 8 1 0 -4
BITMAP
ff00
ENDCHAR
STARTCHAR quoteleft
ENCODING 96
SWIDTH 201 0
DWIDTH 3 0
BBX 3 5 1 7
BITMAP
60
40
80
c0
c0
ENDCHAR
STARTCHAR a
ENCODING 97
SWIDTH 525 0
DWIDTH 9 0
BBX 8 8 0 0
BITMAP
1f00
6300
4200
8200
8600
8600
cc00
7700
ENDCHAR
STARTCHAR b
ENCODING 98
SWIDTH 507 0
DWIDTH 8 0
BBX 7 13 0 0
BITMAP
e0
20
60
60
60
5c
62
42
42
82
84
8c
70
ENDCHAR
STARTCHAR c
ENCODING 99
SWIDTH 394 0
DWIDTH 7 0
BBX 6 8 0 0
BITMAP
1c
6c
40
80
80
80
cc
70
ENDCHAR
STARTCHAR d
ENCODING 100
SWIDTH 523 0
DWIDTH 9 0
BBX 8 13 0 0
BITMAP
0700
0100
0100
0300
0200
1e00
6200
4200
8200
8600
8600
8c00
7700
ENDCHAR
STARTCHAR e
ENCODING 101
SWIDTH 424 0
DWIDTH 7 0
BBX 6 8 0 0
BITMAP
18
64
44
98
e0
80
c4
78
ENDCHAR
STARTCHAR f
ENCODING 102
SWIDTH 292 0
DWIDTH 5 0
BBX 9 17 -2 -4
BITMAP
0380
0580
0400
0400
0c00
1f00
0800
0800
0800
0800
1800
1800
1000
1000
1000
a000
c000
ENDCHAR
STARTCHAR g
ENCODING 103
SWIDTH 481 0
DWIDTH 8 0
BBX 8 12 0 -4
BITMAP
1800
6700
4400
4c00
3000
2000
3000
5c00
8400
8400
cc00
7000
ENDCHAR
STARTCHAR h
ENCODING 104
SWIDTH 551 0
DWIDTH 9 0
BBX 8 13 0 0
BITMAP
7000
3000
2000
2000
2000
2e00
3200
6200
4600
4400
4400
4400
c700
ENDCHAR
STARTCHAR i
ENCODING 105
SWIDTH 287 0
DWIDTH 5 0
BBX 4 13 1 0
BITMAP
30
30
00
00
00
e0
60
60
40
c0
c0
c0
f0
ENDCHAR
STARTCHAR j
ENCODING 106
SWIDTH 269 0
DWIDTH 5 0
BBX 7 17 -2 -4
BITMAP
06
06
00
00
00
1c
04
04
0c
0c
08
08
08
18
10
10
e0
ENDCHAR
STARTCHAR k
ENCODING 107
SWIDTH 514 0
DWIDTH 9 0
BBX 8 13 0 0
BITMAP
7000
1000
3000
3000
2000
2300
2500
6800
7800
6800
4c00
4400
c700
ENDCHAR
STARTCHAR l
ENCODING 108
SWIDTH 275 0
DWIDTH 5 0
BBX 4 13 0 0
BITMAP
f0
30
20
20
20
60
60
40
40
c0
c0
c0
f0
ENDCHAR
STARTCHAR m
ENCODING 109
SWIDTH 815 0
DWIDTH 14 0
BBX 13 8 1 0
BITMAP
ee70
73b0
6230
4230
4220
4620
c620
c438
ENDCHAR
STARTCHAR n
ENCODING 110
SWIDTH 556 0
DWIDTH 9 0
BBX 8 8 1 0
BITMAP
ee00
7200
4200
4600
4400
4400
c400
8700
ENDCHAR
STARTCHAR o
ENCODING 111
SWIDTH 502 0
DWIDTH 8 0
BBX 7 8 0 0
BITMAP
1c
66
c2
82
82
84
cc
70
ENDCHAR
STARTCHAR p
ENCODING 112
SWIDTH 516 0
DWIDTH 9 0
BBX 9 12 -1 -4
BITMAP
3780
1880
1080
3080
2080
2100
2300
3c00
2000
6000
4000
f000
ENDCHAR
STARTCHAR q
ENCODING 113
SWIDTH 512 0
DWIDTH 8 0
BBX 7 12 0 -4
BITMAP
1e
62
42
82
84
84
8c
74
04
0c
0c
1e
ENDCHAR
STARTCHAR r
ENCODING 114
SWIDTH 398 0
DWIDTH 7 0
BBX 7 8 0 0
BITMAP
ee
36
60
60
40
40
c0
c0
ENDCHAR
STARTCHAR s
ENCODING 115
SWIDTH 370 0
DWIDTH 6 0
BBX 5 8 0 0
BITMAP
38
48
40
60
10
98
90
60
ENDCHAR
STARTCHAR t
ENCODING 116
SWIDTH 333 0
DWIDTH 6 0
BBX 5 10 1 0
BITMAP
20
60
f8
40
40
40
c0
80
c0
f0
ENDCHAR
STARTCHAR u
ENCODING 117
SWIDTH 553 0
DWIDTH 9 0
BBX 7 8 1 0
BITMAP
c2
46
44
44
c4
84
9c
e6
ENDCHAR
STARTCHAR v
ENCODING 118
SWIDTH 454 0
DWIDTH 8 0
BBX 8 8 0 0
BITMAP
e300
2300
2200
2200
3400
3800
3000
3000
ENDCHAR
STARTCHAR w
ENCODING 119
SWIDTH 713 0
DWIDTH 12 0
BBX 12 8 0 0
BITMAP
e230
6230
6630
6620
2b40
3340
3380
2300
ENDCHAR
STARTCHAR x
ENCODING 120
SWIDTH 477 0
DWIDTH 8 0
BBX 9 8 -1 0
BITMAP
7180
1280
1c00
0800
0800
1c00
a400
c700
ENDCHAR
STARTCHAR y
ENCODING 121
SWIDTH 475 0
DWIDTH 8 0
BBX 10 12 -2 -4
BITMAP
30c0
1880
0900
0900
0900
0a00
0e00
0400
0800
0800
9000
e000
ENDCHAR
STARTCHAR z
ENCODING 122
SWIDTH 440 0
DWIDTH 8 0
BBX 8 8 0 0
BITMAP
3d00
4200
6400
0800
1000
2200
5200
fc00
ENDCHAR
STARTCHAR braceleft
ENCODING 123
SWIDTH 486 0
DWIDTH 8 0
BBX 6 14 1 -2
BITMAP
0c
10
10
10
10
30
c0
30
10
10
10
10
10
0c
ENDCHAR
STARTCHAR bar
ENCODING 124
SWIDTH 500 0
DWIDTH 8 0
BBX 1 17 4 -4
BITMAP
80
80
80
80
80
80
80
80
80
80
80
80
80
80
80
80
80
ENDCHAR
STARTCHAR braceright
ENCODING 125
SWIDTH 486 0
DWIDTH 8 0
BBX 6 14 1 -2
BITMAP
c0
20
20
20
20
30
0c
30
20
20
20
20
20
c0
ENDCHAR
STARTCHAR c0126
ENCODING 126
SWIDTH 1000 0
DWIDTH 17 0
BBX 11 2 3 9
BITMAP
3c60
c780
ENDCHAR
STARTCHAR space
ENCODING 160
SWIDTH 278 0
DWIDTH 5 0
BBX 1 1 0 0
BITMAP
00
ENDCHAR
STARTCHAR exclamdown
ENCODING 161
SWIDTH 338 0
DWIDTH 6 0
BBX 4 11 1 0
BITMAP
30
30
00
20
20
60
60
40
c0
c0
c0
ENDCHAR
STARTCHAR cent
ENCODING 162
SWIDTH 556 0
DWIDTH 9 0
BBX 7 13 1 -2
BITMAP
08
08
1e
6a
52
90
90
90
94
e4
7c
20
20
ENDCHAR
STARTCHAR sterling
ENCODING 163
SWIDTH 556 0
DWIDTH 9 0
BBX 10 11 -1 0
BITMAP
0380
04c0
0c00
0800
0800
3f00
1800
1000
1000
2000
ff00
ENDCHAR
STARTCHAR currency
ENCODING 164
SWIDTH 606 0
DWIDTH 10 0
BBX 9 9 1 3
BITMAP
8080
5d00
2200
4100
4100
4100
2200
5d00
8080
ENDCHAR
STARTCHAR yen
ENCODING 165
SWIDTH 556 0
DWIDTH 9 0
BBX 10 11 0 0
BITMAP
71c0
2080
3100
1200
7380
1c00
1800
ff00
1800
1000
7c00
ENDCHAR
STARTCHAR brokenbar
ENCODING 166
SWIDTH 500 0
DWIDTH 8 0
BBX 1 15 4 -3
BITMAP
80
80
80
80
80
80
00
00
00
80
80
80
80
80
80
ENDCHAR
STARTCHAR section
ENCODING 167
SWIDTH 500 0
DWIDTH 8 0
BBX 8 14 0 -2
BITMAP
0f00
1100
2200
3000
1c00
2600
4200
4200
6400
3800
0c00
8400
8800
7000
ENDCHAR
STARTCHAR dieresis
ENCODING 168
SWIDTH 500 0
DWIDTH 8 0
BBX 5 2 2 10
BITMAP
d8
d8
ENDCHAR
STARTCHAR copyright
ENCODING 169
SWIDTH 900 0
DWIDTH 15 0
BBX 13 13 1 -1
BITMAP
0f00
10c0
2020
4790
4890
9008
9008
9008
4890
4790
2020
10c0
0f00
ENDCHAR
STARTCHAR ordfeminine
ENCODING 170
SWIDTH 394 0
DWIDTH 7 0
BBX 6 5 0 6
BITMAP
3c
48
88
90
7c
ENDCHAR
STARTCHAR guillemotleft
ENCODING 171
SWIDTH 442 0
DWIDTH 7 0
BBX 6 6 0 1
BITMAP
24
48
90
90
48
48
ENDCHAR
STARTCHAR logicalnot
ENCODING 172
SWIDTH 833 0
DWIDTH 14 0
BBX 10 4 2 3
BITMAP
ffc0
0040
0040
0040
ENDCHAR
STARTCHAR hyphen
ENCODING 173
SWIDTH 319 0
DWIDTH 5 0
BBX 4 1 0 4
BITMAP
f0
ENDCHAR
STARTCHAR registered
ENCODING 174
SWIDTH 900 0
DWIDTH 15 0
BBX 13 13 1 -1
BITMAP
0f00
10c0
2020
5f10
4890
8988
8f08
8988
4890
5cf0
2020
10c0
0f00
ENDCHAR
STARTCHAR macron
ENCODING 175
SWIDTH 500 0
DWIDTH 8 0
BBX 5 1 2 10
BITMAP
f8
ENDCHAR
STARTCHAR degree
ENCODING 176
SWIDTH 329 0
DWIDTH 5 0
BBX 5 5 0 7
BITMAP
70
88
88
88
70
ENDCHAR
STARTCHAR plusminus
ENCODING 177
SWIDTH 833 0
DWIDTH 14 0
BBX 9 10 3 0
BITMAP
0800
0800
0800
ff80
0800
0800
0800
0000
0000
ff80
ENDCHAR
STARTCHAR twosuperior
ENCODING 178
SWIDTH 367 0
DWIDTH 6 0
BBX 5 7 0 4
BITMAP
30
48
08
10
20
48
f0
ENDCHAR
STARTCHAR threesuperior
ENCODING 179
SWIDTH 367 0
DWIDTH 6 0
BBX 6 7 0 4
BITMAP
38
44
0c
30
0c
88
70
ENDCHAR
STARTCHAR acute
ENCODING 180
SWIDTH 500 0
DWIDTH 8 0
BBX 4 3 4 10
BITMAP
30
40
80
ENDCHAR
STARTCHAR mu
ENCODING 181
SWIDTH 548 0
DWIDTH 9 0
BBX 10 10 -1 -3
BITMAP
3100
2100
2300
2200
6240
6640
5980
c000
c000
8000
ENDCHAR
STARTCHAR paragraph
ENCODING 182
SWIDTH 484 0
DWIDTH 8 0
BBX 8 13 0 -2
BITMAP
3f00
7a00
fa00
fa00
fa00
7a00
3a00
0200
0200
0200
0200
0200
0200
ENDCHAR
STARTCHAR periodcentered
ENCODING 183
SWIDTH 278 0
DWIDTH 4 0
BBX 2 2 1 5
BITMAP
c0
c0
ENDCHAR
STARTCHAR cedilla
ENCODING 184
SWIDTH 500 0
DWIDTH 8 0
BBX 3 4 1 -4
BITMAP
40
60
20
c0
ENDCHAR
STARTCHAR onesuperior
ENCODING 185
SWIDTH 367 0
DWIDTH 7 0
BBX 4 7 1 4
BITMAP
30
70
20
20
20
20
f0
ENDCHAR
STARTCHAR ordmasculine
ENCODING 186
SWIDTH 377 0
DWIDTH 6 0
BBX 5 5 0 6
BITMAP
30
48
88
90
60
ENDCHAR
STARTCHAR guillemotright
ENCODING 187
SWIDTH 442 0
DWIDTH 7 0
BBX 6 6 0 1
BITMAP
48
48
24
24
48
90
ENDCHAR
STARTCHAR onequarter
ENCODING 188
SWIDTH 867 0
DWIDTH 14 0
BBX 13 12 1 0
BITMAP
2000
6020
2040
2080
4100
4210
e230
0450
0890
11f8
2020
4020
ENDCHAR
STARTCHAR onehalf
ENCODING 189
SWIDTH 867 0
DWIDTH 14 0
BBX 12 12 1 0
BITMAP
2000
6020
2040
2080
4100
4260
e290
0410
0820
1040
2090
41e0
ENDCHAR
STARTCHAR threequarters
ENCODING 190
SWIDTH 867 0
DWIDTH 15 0
BBX 15 12 0 0
BITMAP
3800
4410
0c20
3040
0c80
8904
710c
0214
0424
087e
1008
2008
ENDCHAR
STARTCHAR questiondown
ENCODING 191
SWIDTH 486 0
DWIDTH 8 0
BBX 6 11 0 0
BITMAP
0c
0c
00
08
08
10
60
c0
c0
cc
78
ENDCHAR
STARTCHAR Agrave
ENCODING 192
SWIDTH 606 0
DWIDTH 10 0
BBX 11 16 -1 0
BITMAP
0600
0200
0100
0000
0000
0100
0300
0580
0580
0880
0880
1f80
3080
20c0
40c0
e1e0
ENDCHAR
STARTCHAR Aacute
ENCODING 193
SWIDTH 606 0
DWIDTH 10 0
BBX 11 16 -1 0
BITMAP
00c0
0100
0200
0000
0000
0100
0300
0580
0580
0880
0880
1f80
3080
20c0
40c0
e1e0
ENDCHAR
STARTCHAR Acircumflex
ENCODING 194
SWIDTH 606 0
DWIDTH 10 0
BBX 11 16 -1 0
BITMAP
0300
0500
0880
0000
0000
0100
0300
0580
0580
0880
0880
1f80
3080
20c0
40c0
e1e0
ENDCHAR
STARTCHAR Atilde
ENCODING 195
SWIDTH 606 0
DWIDTH 10 0
BBX 11 15 -1 0
BITMAP
0340
0580
0000
0000
0100
0300
0580
0580
0880
0880
1f80
3080
20c0
40c0
e1e0
ENDCHAR
STARTCHAR Adieresis
ENCODING 196
SWIDTH 606 0
DWIDTH 10 0
BBX 11 15 -1 0
BITMAP
0d80
0d80
0000
0000
0100
0300
0580
0580
0880
0880
1f80
3080
20c0
40c0
e1e0
ENDCHAR
STARTCHAR Aring
ENCODING 197
SWIDTH 606 0
DWIDTH 10 0
BBX 11 16 -1 0
BITMAP
0180
0240
0240
0180
0000
0100
0300
0580
0580
0880
0880
1f80
3080
20c0
40c0
e1e0
ENDCHAR
STARTCHAR AE
ENCODING 198
SWIDTH 873 0
DWIDTH 14 0
BBX 16 11 -2 0
BITMAP
01ff00
00a100
016100
026000
024400
047c00
0fc400
104000
20c200
408200
e1fe00
ENDCHAR
STARTCHAR Ccedilla
ENCODING 199
SWIDTH 604 0
DWIDTH 10 0
BBX 9 15 1 -4
BITMAP
0f00
3080
6080
4000
8000
8000
8000
8000
8100
4200
3c00
1000
1800
0800
3000
ENDCHAR
STARTCHAR Egrave
ENCODING 200
SWIDTH 546 0
DWIDTH 9 0
BBX 10 16 0 0
BITMAP
0c00
0400
0200
0000
0000
3fc0
1840
1040
1000
1100
3f00
3100
2000
2080
6080
ff80
ENDCHAR
STARTCHAR Eacute
ENCODING 201
SWIDTH 546 0
DWIDTH 9 0
BBX 10 16 0 0
BITMAP
0180
0200
0400
0000
0000
3fc0
1840
1040
1000
1100
3f00
3100
2000
2080
6080
ff80
ENDCHAR
STARTCHAR Ecircumflex
ENCODING 202
SWIDTH 546 0
DWIDTH 9 0
BBX 10 16 0 0
BITMAP
0600
0a00
1100
0000
0000
3fc0
1840
1040
1000
1100
3f00
3100
2000
2080
6080
ff80
ENDCHAR
STARTCHAR Edieresis
ENCODING 203
SWIDTH 546 0
DWIDTH 9 0
BBX 10 15 0 0
BITMAP
1b00
1b00
0000
0000
3fc0
1840
1040
1000
1100
3f00
3100
2000
2080
6080
ff80
ENDCHAR
STARTCHAR Igrave
ENCODING 204
SWIDTH 313 0
DWIDTH 5 0
BBX 6 16 0 0
BITMAP
30
10
08
00
00
3c
18
10
10
30
30
30
20
20
60
f0
ENDCHAR
STARTCHAR Iacute
ENCODING 205
SWIDTH 313 0
DWIDTH 5 0
BBX 7 16 0 0
BITMAP
06
08
10
00
00
3c
18
10
10
30
30
30
20
20
60
f0
ENDCHAR
STARTCHAR Icircumflex
ENCODING 206
SWIDTH 313 0
DWIDTH 5 0
BBX 6 16 0 0
BITMAP
18
28
44
00
00
3c
18
10
10
30
30
30
20
20
60
f0
ENDCHAR
STARTCHAR Idieresis
ENCODING 207
SWIDTH 313 0
DWIDTH 5 0
BBX 6 15 0 0
BITMAP
6c
6c
00
00
3c
18
10
10
30
30
30
20
20
60
f0
ENDCHAR
STARTCHAR Eth
ENCODING 208
SWIDTH 671 0
DWIDTH 12 0
BBX 11 11 0 0
BITMAP
3f80
18c0
1820
1020
1020
7e20
3020
3060
20c0
2180
fe00
ENDCHAR
STARTCHAR Ntilde
ENCODING 209
SWIDTH 683 0
DWIDTH 11 0
BBX 12 15 0 0
BITMAP
0340
0580
0000
0000
3870
1820
1820
1c40
2440
2640
2240
2340
4180
4180
e080
ENDCHAR
STARTCHAR Ograve
ENCODING 210
SWIDTH 708 0
DWIDTH 12 0
BBX 10 16 1 0
BITMAP
0c00
0400
0200
0000
0000
0f00
3080
6040
4040
c040
8040
8040
80c0
8180
4300
3c00
ENDCHAR
STARTCHAR Oacute
ENCODING 211
SWIDTH 708 0
DWIDTH 12 0
BBX 10 16 1 0
BITMAP
0180
0200
0400
0000
0000
0f00
3080
6040
4040
c040
8040
8040
80c0
8180
4300
3c00
ENDCHAR
STARTCHAR Ocircumflex
ENCODING 212
SWIDTH 708 0
DWIDTH 12 0
BBX 10 16 1 0
BITMAP
0600
0a00
1100
0000
0000
0f00
3080
6040
4040
c040
8040
8040
80c0
8180
4300
3c00
ENDCHAR
STARTCHAR Otilde
ENCODING 213
SWIDTH 708 0
DWIDTH 12 0
BBX 10 15 1 0
BITMAP
0680
0b00
0000
0000
0f00
3080
6040
4040
c040
8040
8040
80c0
8180
4300
3c00
ENDCHAR
STARTCHAR Odieresis
ENCODING 214
SWIDTH 708 0
DWIDTH 12 0
BBX 10 15 1 0
BITMAP
1b00
1b00
0000
0000
0f00
3080
6040
4040
c040
8040
8040
80c0
8180
4300
3c00
ENDCHAR
STARTCHAR multiply
ENCODING 215
SWIDTH 833 0
DWIDTH 14 0
BBX 9 9 3 1
BITMAP
8080
4100
2200
1400
0800
1400
2200
4100
8080
ENDCHAR
STARTCHAR Oslash
ENCODING 216
SWIDTH 708 0
DWIDTH 12 0
BBX 10 14 1 -1
BITMAP
0000
0080
0f80
3180
6140
4240
8440
8840
9040
9080
a180
6300
7c00
8000
ENDCHAR
STARTCHAR Ugrave
ENCODING 217
SWIDTH 664 0
DWIDTH 11 0
BBX 11 16 1 0
BITMAP
1800
0800
0400
0000
0000
f1e0
4040
4080
4080
c080
c080
8100
8100
8100
c200
7c00
ENDCHAR
STARTCHAR Uacute
ENCODING 218
SWIDTH 664 0
DWIDTH 11 0
BBX 11 16 1 0
BITMAP
0300
0400
0800
0000
0000
f1e0
4040
4080
4080
c080
c080
8100
8100
8100
c200
7c00
ENDCHAR
STARTCHAR Ucircumflex
ENCODING 219
SWIDTH 664 0
DWIDTH 11 0
BBX 11 16 1 0
BITMAP
0c00
1400
2200
0000
0000
f1e0
4040
4080
4080
c080
c080
8100
8100
8100
c200
7c00
ENDCHAR
STARTCHAR Udieresis
ENCODING 220
SWIDTH 664 0
DWIDTH 11 0
BBX 11 15 1 0
BITMAP
3600
3600
0000
0000
f1e0
4040
4080
4080
c080
c080
8100
8100
8100
c200
7c00
ENDCHAR
STARTCHAR Yacute
ENCODING 221
SWIDTH 563 0
DWIDTH 10 0
BBX 10 16 1 0
BITMAP
0300
0400
0800
0000
0000
f3c0
6180
2100
2200
3400
1800
1000
1000
1000
3000
7800
ENDCHAR
STARTCHAR Thorn
ENCODING 222
SWIDTH 532 0
DWIDTH 8 0
BBX 9 11 -1 0
BITMAP
3c00
1800
1f00
1180
1080
3080
3080
2300
3e00
6000
f000
ENDCHAR
STARTCHAR germandbls
ENCODING 223
SWIDTH 574 0
DWIDTH 10 0
BBX 11 17 -2 -4
BITMAP
01c0
0220
0420
0420
0c60
0880
0900
0980
08c0
0860
1a20
1a40
1180
1000
1000
a000
c000
ENDCHAR
STARTCHAR agrave
ENCODING 224
SWIDTH 525 0
DWIDTH 9 0
BBX 8 13 0 0
BITMAP
1800
0800
0400
0000
0000
1f00
6300
4200
8200
8600
8600
cc00
7700
ENDCHAR
STARTCHAR aacute
ENCODING 225
SWIDTH 525 0
DWIDTH 9 0
BBX 8 13 0 0
BITMAP
0300
0400
0800
0000
0000
1f00
6300
4200
8200
8600
8600
cc00
7700
ENDCHAR
STARTCHAR acircumflex
ENCODING 226
SWIDTH 525 0
DWIDTH 9 0
BBX 8 13 0 0
BITMAP
0c00
1400
2200
0000
0000
1f00
6300
4200
8200
8600
8600
cc00
7700
ENDCHAR
STARTCHAR atilde
ENCODING 227
SWIDTH 525 0
DWIDTH 9 0
BBX 8 12 0 0
BITMAP
0d00
1600
0000
0000
1f00
6300
4200
8200
8600
8600
cc00
7700
ENDCHAR
STARTCHAR adieresis
ENCODING 228
SWIDTH 525 0
DWIDTH 9 0
BBX 8 12 0 0
BITMAP
3600
3600
0000
0000
1f00
6300
4200
8200
8600
8600
cc00
7700
ENDCHAR
STARTCHAR aring
ENCODING 229
SWIDTH 525 0
DWIDTH 9 0
BBX 8 13 0 0
BITMAP
0c00
1200
1200
0c00
0000
1f00
6300
4200
8200
8600
8600
cc00
7700
ENDCHAR
STARTCHAR ae
ENCODING 230
SWIDTH 671 0
DWIDTH 11 0
BBX 10 8 0 0
BITMAP
3980
4640
4440
0c80
3f00
c800
8c40
f780
ENDCHAR
STARTCHAR ccedilla
ENCODING 231
SWIDTH 394 0
DWIDTH 7 0
BBX 6 12 0 -4
BITMAP
1c
6c
40
80
80
80
cc
70
40
60
20
c0
ENDCHAR
STARTCHAR egrave
ENCODING 232
SWIDTH 424 0
DWIDTH 7 0
BBX 6 13 0 0
BITMAP
18
08
04
00
00
18
64
44
98
e0
80
c4
78
ENDCHAR
STARTCHAR eacute
ENCODING 233
SWIDTH 424 0
DWIDTH 7 0
BBX 8 13 0 0
BITMAP
0300
0400
0800
0000
0000
1800
6400
4400
9800
e000
8000
c400
7800
ENDCHAR
STARTCHAR ecircumflex
ENCODING 234
SWIDTH 424 0
DWIDTH 7 0
BBX 7 13 0 0
BITMAP
0c
14
22
00
00
18
64
44
98
e0
80
c4
78
ENDCHAR
STARTCHAR edieresis
ENCODING 235
SWIDTH 424 0
DWIDTH 7 0
BBX 7 12 0 0
BITMAP
36
36
00
00
18
64
44
98
e0
80
c4
78
ENDCHAR
STARTCHAR igrave
ENCODING 236
SWIDTH 287 0
DWIDTH 5 0
BBX 4 13 1 0
BITMAP
c0
40
20
00
00
e0
60
40
40
c0
c0
c0
f0
ENDCHAR
STARTCHAR iacute
ENCODING 237
SWIDTH 287 0
DWIDTH 5 0
BBX 5 13 1 0
BITMAP
18
20
40
00
00
e0
60
40
40
c0
c0
c0
f0
ENDCHAR
STARTCHAR icircumflex
ENCODING 238
SWIDTH 287 0
DWIDTH 5 0
BBX 5 13 0 0
BITMAP
30
50
88
00
00
70
30
20
20
60
60
60
78
ENDCHAR
STARTCHAR idieresis
ENCODING 239
SWIDTH 287 0
DWIDTH 5 0
BBX 5 12 0 0
BITMAP
d8
d8
00
00
70
30
20
20
60
60
60
78
ENDCHAR
STARTCHAR eth
ENCODING 240
SWIDTH 500 0
DWIDTH 8 0
BBX 7 13 0 0
BITMAP
38
0a
0c
74
04
1e
62
42
82
82
86
cc
70
ENDCHAR
STARTCHAR ntilde
ENCODING 241
SWIDTH 556 0
DWIDTH 9 0
BBX 8 12 1 0
BITMAP
1a00
2c00
0000
0000
ee00
7200
4200
4600
4400
4400
c400
8700
ENDCHAR
STARTCHAR ograve
ENCODING 242
SWIDTH 502 0
DWIDTH 8 0
BBX 7 13 0 0
BITMAP
18
08
04
00
00
1c
66
c2
82
82
84
cc
70
ENDCHAR
STARTCHAR oacute
ENCODING 243
SWIDTH 502 0
DWIDTH 8 0
BBX 8 13 0 0
BITMAP
0300
0400
0800
0000
0000
1c00
6600
c200
8200
8200
8400
cc00
7000
ENDCHAR
STARTCHAR ocircumflex
ENCODING 244
SWIDTH 502 0
DWIDTH 8 0
BBX 7 13 0 0
BITMAP
0c
14
22
00
00
1c
66
c2
82
82
84
cc
70
ENDCHAR
STARTCHAR otilde
ENCODING 245
SWIDTH 502 0
DWIDTH 8 0
BBX 8 12 0 0
BITMAP
0d00
1600
0000
0000
1c00
6600
c200
8200
8200
8400
cc00
7000
ENDCHAR
STARTCHAR odieresis
ENCODING 246
SWIDTH 502 0
DWIDTH 8 0
BBX 7 12 0 0
BITMAP
36
36
00
00
1c
66
c2
82
82
84
cc
70
ENDCHAR
STARTCHAR divide
ENCODING 247
SWIDTH 833 0
DWIDTH 14 0
BBX 10 9 2 1
BITMAP
0c00
0c00
0000
0000
ffc0
0000
0000
0c00
0c00
ENDCHAR
STARTCHAR oslash
ENCODING 248
SWIDTH 502 0
DWIDTH 8 0
BBX 7 10 0 -1
BITMAP
02
1c
66
4a
92
92
a4
cc
70
80
ENDCHAR
STARTCHAR ugrave
ENCODING 249
SWIDTH 553 0
DWIDTH 9 0
BBX 7 13 1 0
BITMAP
30
10
08
00
00
c2
46
44
44
c4
84
9c
e6
ENDCHAR
STARTCHAR uacute
ENCODING 250
SWIDTH 553 0
DWIDTH 9 0
BBX 7 13 1 0
BITMAP
06
08
10
00
00
c2
46
44
44
c4
84
9c
e6
ENDCHAR
STARTCHAR ucircumflex
ENCODING 251
SWIDTH 553 0
DWIDTH 9 0
BBX 7 13 1 0
BITMAP
18
28
44
00
00
c2
46
44
44
c4
84
9c
e6
ENDCHAR
STARTCHAR udieresis
ENCODING 252
SWIDTH 553 0
DWIDTH 9 0
BBX 7 12 1 0
BITMAP
6c
6c
00
00
c2
46
44
44
c4
84
9c
e6
ENDCHAR
STARTCHAR yacute
ENCODING 253
SWIDTH 475 0
DWIDTH 8 0
BBX 10 17 -2 -4
BITMAP
00c0
0100
0200
0000
0000
30c0
1880
0900
0900
0900
0a00
0e00
0400
0800
0800
9000
e000
ENDCHAR
STARTCHAR thorn
ENCODING 254
SWIDTH 516 0
DWIDTH 9 0
BBX 9 17 -1 -4
BITMAP
3800
0800
1800
1800
1800
1700
1980
1080
3080
2080
2100
2300
3c00
6000
6000
4000
f000
ENDCHAR
STARTCHAR ydieresis
ENCODING 255
SWIDTH 475 0
DWIDTH 8 0
BBX 10 16 -2 -4
BITMAP
0d80
0d80
0000
0000
30c0
1880
0900
0900
0900
0a00
0e00
0400
0800
0800
9000
e000
ENDCHAR
ENDFONT
