STARTFONT 2.1
COMMENT  
COMMENT  Copyright 1988 Bitstream, Inc., Cambridge, Massachusetts, USA
COMMENT  Bitstream and Charter are registered trademarks of Bitstream, Inc.
COMMENT  
COMMENT  The names "Bitstream" and "Charter" are registered trademarks of
COMMENT  Bitstream, Inc.  Permission to use these trademarks is hereby
COMMENT  granted only in association with the images described in this file.
COMMENT  
COMMENT  Permission to use, copy, modify, and distribute this software and
COMMENT  its documentation for any purpose and without fee is hereby
COMMENT  granted, provided that the above copyright notice appear in all
COMMENT  copies and that both that copyright notice and this permission
COMMENT  notice appear in supporting documentation, and that the name of
COMMENT  Bitstream not be used in advertising or publicity pertaining to
COMMENT  distribution of the software without specific, written prior
COMMENT  permission.  Bitstream makes no representations about the
COMMENT  suitability of this software for any purpose.  It is provided "as
COMMENT  is" without express or implied warranty.
COMMENT  
COMMENT  BITSTREAM DISCLAIMS ALL WARRANTIES WITH REGARD TO THIS SOFTWARE,
COMMENT  INCLUDING ALL IMPLIED WARRANTIES OF MERCHANTABILITY AND FITNESS, IN
COMMENT  NO EVENT SHALL BITSTREAM BE LIABLE FOR ANY SPECIAL, INDIRECT OR
COMMENT  CONSEQUENTIAL DAMAGES OR ANY DAMAGES WHATSOEVER RESULTING FROM LOSS
COMMENT  OF USE, DATA OR PROFITS, WHETHER IN AN ACTION OF CONTRACT,
COMMENT  NEGLIGENCE OR OTHER TORTIOUS ACTION, ARISING OUT OF OR IN
COMMENT  CONNECTION WITH THE USE OR PERFORMANCE OF THIS SOFTWARE.
COMMENT  
COMMENT  
COMMENT Fontware CVTBDF v1.0
FONT -Bitstream-Charter-Bold-R-Normal--25-180-100-100-P-157-ISO8859-1
SIZE 18 100 100
FONTBOUNDINGBOX 28 30 -3 -6
STARTPROPERTIES 22
COMMENT Begin LogicalFontDescription
FONTNAME_REGISTRY ""
FAMILY_NAME "Charter"
FOUNDRY "Bitstream"
WEIGHT_NAME "Bold"
SETWIDTH_NAME "Normal"
SLANT "R"
ADD_STYLE_NAME ""
PIXEL_SIZE 25
POINT_SIZE 180
RESOLUTION_X 100
RESOLUTION_Y 100
SPACING "P"
AVERAGE_WIDTH 157
CHARSET_REGISTRY "ISO8859"
CHARSET_ENCODING "1"
COMMENT END LogicalFontDescription
FONT_DESCENT 6
FONT_ASCENT 24
CAP_HEIGHT 17
X_HEIGHT 12
CHARSET_COLLECTIONS "ASCII ISOLATIN1"
FULL_NAME "Bitstream Charter Black"
COPYRIGHT "Copyright 1987 by Bitstream Inc. Charter Registered trademark of Bitstream Inc."
COMMENT ****** end of font properties
ENDPROPERTIES
CHARS 191
STARTCHAR space
ENCODING 32
SWIDTH 322 0
DWIDTH 8 0
BBX 1 1 0 0
BITMAP
00
ENDCHAR
STARTCHAR exclam
ENCODING 33
SWIDTH 343 0
DWIDTH 9 0
BBX 5 17 2 0
BITMAP
70
f8
f8
f8
f8
70
70
70
70
70
20
00
70
f8
f8
f8
70
ENDCHAR
STARTCHAR quotedbl
ENCODING 34
SWIDTH 339 0
DWIDTH 8 0
BBX 6 7 1 11
BITMAP
cc
cc
cc
cc
cc
44
44
ENDCHAR
STARTCHAR numbersign
ENCODING 35
SWIDTH 769 0
DWIDTH 19 0
BBX 16 19 1 -1
BITMAP
018c00
018c00
018c00
039c00
031800
031800
7fff00
7fff00
063000
0e7000
0c6000
fffe00
fffe00
18c000
18c000
19c000
318000
318000
738000
ENDCHAR
STARTCHAR dollar
ENCODING 36
SWIDTH 644 0
DWIDTH 16 0
BBX 14 22 1 -3
BITMAP
0300
0300
0fe0
3ff8
7b38
f338
f318
fb00
ff00
7fe0
3ff0
0ff8
03fc
033c
e33c
e33c
e378
fff0
3fc0
0300
0300
0300
ENDCHAR
STARTCHAR percent
ENCODING 37
SWIDTH 972 0
DWIDTH 24 0
BBX 22 17 1 0
BITMAP
3e0180
770180
e38300
e38600
e38600
e38c00
e39800
e399f0
7733b8
3e671c
00671c
00c71c
01871c
01871c
03071c
0603b8
0601f0
ENDCHAR
STARTCHAR ampersand
ENCODING 38
SWIDTH 822 0
DWIDTH 20 0
BBX 18 17 1 0
BITMAP
0fc000
1ff000
3cf000
787800
787800
7c7800
3ef000
1fc7c0
1fc300
77e300
f3f200
f1fe00
f0fc00
f87c00
fc3e00
7fff00
3f8fc0
ENDCHAR
STARTCHAR quoteright
ENCODING 39
SWIDTH 331 0
DWIDTH 8 0
BBX 6 8 1 9
BITMAP
78
7c
7c
1c
18
38
f0
c0
ENDCHAR
STARTCHAR parenleft
ENCODING 40
SWIDTH 440 0
DWIDTH 11 0
BBX 8 22 2 -4
BITMAP
0700
0f00
1c00
3800
7800
7000
7000
f000
f000
f000
f000
f000
f000
f000
f000
7000
7800
7800
3800
1c00
0f00
0700
ENDCHAR
STARTCHAR parenright
ENCODING 41
SWIDTH 440 0
DWIDTH 11 0
BBX 8 22 1 -4
BITMAP
e000
f000
3c00
1c00
1e00
0e00
0f00
0f00
0f00
0f00
0f00
0f00
0f00
0f00
0f00
0f00
0e00
1e00
1c00
3c00
f000
e000
ENDCHAR
STARTCHAR asterisk
ENCODING 42
SWIDTH 500 0
DWIDTH 12 0
BBX 9 10 1 8
BITMAP
0800
1c00
1c00
4900
eb80
7700
1400
3600
7700
2600
ENDCHAR
STARTCHAR plus
ENCODING 43
SWIDTH 833 0
DWIDTH 21 0
BBX 14 14 4 0
BITMAP
0300
0300
0300
0300
0300
0300
fffc
fffc
0300
0300
0300
0300
0300
0300
ENDCHAR
STARTCHAR comma
ENCODING 44
SWIDTH 322 0
DWIDTH 8 0
BBX 5 9 1 -5
BITMAP
70
f8
f8
f8
38
30
70
e0
80
ENDCHAR
STARTCHAR hyphen
ENCODING 45
SWIDTH 333 0
DWIDTH 8 0
BBX 7 3 1 4
BITMAP
fe
fe
fe
ENDCHAR
STARTCHAR period
ENCODING 46
SWIDTH 322 0
DWIDTH 8 0
BBX 5 5 2 0
BITMAP
70
f8
f8
f8
70
ENDCHAR
STARTCHAR slash
ENCODING 47
SWIDTH 500 0
DWIDTH 12 0
BBX 13 19 -1 -2
BITMAP
0038
0030
0070
0060
00c0
00c0
0180
0180
0300
0700
0600
0e00
0c00
1800
1800
3000
7000
6000
e000
ENDCHAR
STARTCHAR zero
ENCODING 48
SWIDTH 644 0
DWIDTH 16 0
BBX 14 17 1 0
BITMAP
0780
1fe0
3cf0
7cf8
7878
f87c
f87c
f87c
f87c
f87c
f87c
f87c
7878
7c78
3cf0
1fe0
0780
ENDCHAR
STARTCHAR one
ENCODING 49
SWIDTH 644 0
DWIDTH 16 0
BBX 10 17 4 0
BITMAP
0f00
7f00
ff00
0f00
0f00
0f00
0f00
0f00
0f00
0f00
0f00
0f00
0f00
0f00
0f00
0f00
7fc0
ENDCHAR
STARTCHAR two
ENCODING 50
SWIDTH 644 0
DWIDTH 16 0
BBX 14 17 1 0
BITMAP
0fc0
3ff0
78f8
f87c
f87c
787c
007c
00f8
00f8
01f0
03c0
0780
1e0c
380c
fffc
fffc
fffc
ENDCHAR
STARTCHAR three
ENCODING 51
SWIDTH 644 0
DWIDTH 16 0
BBX 14 17 1 0
BITMAP
0fc0
3ff0
79f8
78f8
78f8
78f8
00f8
01e0
0f80
0ff0
00f8
007c
707c
f07c
f8f8
7ff0
1f80
ENDCHAR
STARTCHAR four
ENCODING 52
SWIDTH 644 0
DWIDTH 16 0
BBX 15 18 1 -1
BITMAP
00f0
01f0
01f0
03f0
07f0
0ef0
1cf0
1cf0
38f0
70f0
e0f0
fffe
fffe
00f0
00f0
00f0
00f0
00f0
ENDCHAR
STARTCHAR five
ENCODING 53
SWIDTH 644 0
DWIDTH 16 0
BBX 14 17 1 0
BITMAP
7ff8
7ff8
7ff8
6000
6000
6000
7fe0
7ff8
41f8
00fc
007c
607c
f07c
f0f8
f1f0
7fe0
3f80
ENDCHAR
STARTCHAR six
ENCODING 54
SWIDTH 644 0
DWIDTH 16 0
BBX 14 17 1 0
BITMAP
01e0
07e0
0f00
1e00
3c00
7c00
7be0
fff0
f8f8
f87c
f87c
f87c
787c
7c78
3cf8
1fe0
0780
ENDCHAR
STARTCHAR seven
ENCODING 55
SWIDTH 644 0
DWIDTH 16 0
BBX 13 18 2 -1
BITMAP
fff8
fff8
fff8
fff0
c070
c060
00e0
00c0
01c0
0380
0300
0700
0600
0e00
1c00
1c00
3800
7800
ENDCHAR
STARTCHAR eight
ENCODING 56
SWIDTH 644 0
DWIDTH 16 0
BBX 14 17 1 0
BITMAP
0fc0
1fe0
38f0
78f8
7878
7878
7ef0
3fc0
1fe0
7ff8
f1fc
f0fc
f07c
f87c
78f8
3ff0
0f80
ENDCHAR
STARTCHAR nine
ENCODING 57
SWIDTH 644 0
DWIDTH 16 0
BBX 14 17 1 0
BITMAP
0780
1fe0
3cf0
7878
f87c
f87c
f87c
f87c
7c7c
3ff8
1ff8
00f0
01e0
03c0
0780
3e00
3800
ENDCHAR
STARTCHAR colon
ENCODING 58
SWIDTH 387 0
DWIDTH 10 0
BBX 5 12 3 0
BITMAP
70
f8
f8
f8
70
00
00
70
f8
f8
f8
70
ENDCHAR
STARTCHAR semicolon
ENCODING 59
SWIDTH 387 0
DWIDTH 10 0
BBX 6 17 2 -5
BITMAP
38
7c
7c
7c
38
00
00
00
38
7c
7c
7c
1c
18
38
f0
c0
ENDCHAR
STARTCHAR less
ENCODING 60
SWIDTH 833 0
DWIDTH 21 0
BBX 14 14 3 0
BITMAP
0004
001c
00fc
03e0
0f80
7c00
f000
f000
7c00
0f80
03e0
00f8
001c
0004
ENDCHAR
STARTCHAR equal
ENCODING 61
SWIDTH 833 0
DWIDTH 21 0
BBX 15 7 3 4
BITMAP
fffe
fffe
0000
0000
0000
fffe
fffe
ENDCHAR
STARTCHAR greater
ENCODING 62
SWIDTH 833 0
DWIDTH 21 0
BBX 14 14 4 0
BITMAP
8000
f000
7c00
1f00
07e0
00f8
003c
003c
00f8
07c0
1f00
7c00
f000
8000
ENDCHAR
STARTCHAR question
ENCODING 63
SWIDTH 519 0
DWIDTH 13 0
BBX 12 17 0 0
BITMAP
7f80
f3e0
e1f0
e1f0
01f0
01f0
03e0
0fc0
1f00
1800
1800
0000
1c00
3e00
3e00
3e00
1c00
ENDCHAR
STARTCHAR at
ENCODING 64
SWIDTH 942 0
DWIDTH 23 0
BBX 19 21 2 -4
BITMAP
00fe00
078380
0e00c0
1c0040
380060
707f20
61ce20
e38e20
c30e20
c70c20
c70c60
c70c40
c79cc0
e3ff80
61ce00
700000
380000
1c0080
0f0380
03fe00
01f800
ENDCHAR
STARTCHAR A
ENCODING 65
SWIDTH 701 0
DWIDTH 17 0
BBX 18 17 0 0
BITMAP
01e000
03f000
03f000
03f000
07f800
06f800
067800
0e7c00
0c7c00
0c3c00
1ffe00
181e00
181e00
380f00
300f00
300f00
fc3fc0
ENDCHAR
STARTCHAR B
ENCODING 66
SWIDTH 690 0
DWIDTH 17 0
BBX 15 17 1 0
BITMAP
fff0
3cf8
3c7c
3c7c
3c7c
3c7c
3c78
3cf0
3ff0
3c7c
3c3e
3c3e
3c3e
3c3e
3c3e
3cfc
fff0
ENDCHAR
STARTCHAR C
ENCODING 67
SWIDTH 683 0
DWIDTH 17 0
BBX 15 17 1 0
BITMAP
03fc
0ffe
1f0e
3e06
7c06
7c00
f800
f800
f800
f800
f800
7c06
7c06
3e06
1f0e
0ffe
03f8
ENDCHAR
STARTCHAR D
ENCODING 68
SWIDTH 780 0
DWIDTH 19 0
BBX 17 17 1 0
BITMAP
fff000
3c7c00
3c3e00
3c1f00
3c1f00
3c0f80
3c0f80
3c0f80
3c0f80
3c0f80
3c0f80
3c0f80
3c1f00
3c1f00
3c3e00
3c7c00
fff000
ENDCHAR
STARTCHAR E
ENCODING 69
SWIDTH 653 0
DWIDTH 16 0
BBX 14 17 1 0
BITMAP
fff8
3c18
3c18
3c18
3c00
3c60
3c60
3c60
3fe0
3c60
3c60
3c00
3c0c
3c0c
3c0c
3c0c
fffc
ENDCHAR
STARTCHAR F
ENCODING 70
SWIDTH 602 0
DWIDTH 15 0
BBX 13 17 1 0
BITMAP
fff8
3c38
3c18
3c18
3c00
3c60
3c60
3c60
3fe0
3c60
3c60
3c60
3c00
3c00
3c00
3c00
ff00
ENDCHAR
STARTCHAR G
ENCODING 71
SWIDTH 766 0
DWIDTH 19 0
BBX 17 17 1 0
BITMAP
03f800
0ffe00
1f0e00
3e0e00
7c0600
7c0600
f80000
f80000
f80000
f87f80
f81e00
781e00
7c1e00
3e1e00
1f1e00
0ffe00
03f800
ENDCHAR
STARTCHAR H
ENCODING 72
SWIDTH 824 0
DWIDTH 21 0
BBX 19 17 1 0
BITMAP
ff1fe0
3c0780
3c0780
3c0780
3c0780
3c0780
3c0780
3c0780
3fff80
3c0780
3c0780
3c0780
3c0780
3c0780
3c0780
3c0780
ff1fe0
ENDCHAR
STARTCHAR I
ENCODING 73
SWIDTH 410 0
DWIDTH 10 0
BBX 8 17 1 0
BITMAP
ff00
3c00
3c00
3c00
3c00
3c00
3c00
3c00
3c00
3c00
3c00
3c00
3c00
3c00
3c00
3c00
ff00
ENDCHAR
STARTCHAR J
ENCODING 74
SWIDTH 516 0
DWIDTH 13 0
BBX 12 17 0 0
BITMAP
0ff0
03c0
03c0
03c0
03c0
03c0
03c0
03c0
03c0
03c0
03c0
c3c0
c3c0
c780
e780
ff00
7e00
ENDCHAR
STARTCHAR K
ENCODING 75
SWIDTH 727 0
DWIDTH 19 0
BBX 18 17 1 0
BITMAP
ff1f80
3c0e00
3c0c00
3c1800
3c3000
3c7000
3ce000
3de000
3ff000
3ff000
3cf800
3cf800
3c7c00
3c3e00
3c3e00
3c1f00
ff1fc0
ENDCHAR
STARTCHAR L
ENCODING 76
SWIDTH 600 0
DWIDTH 15 0
BBX 14 17 1 0
BITMAP
ff00
3c00
3c00
3c00
3c00
3c00
3c00
3c00
3c00
3c00
3c00
3c00
3c1c
3c1c
3c1c
3c1c
fffc
ENDCHAR
STARTCHAR M
ENCODING 77
SWIDTH 961 0
DWIDTH 24 0
BBX 22 17 1 0
BITMAP
ff03fc
3f03f0
3f03f0
3786f0
3786f0
3786f0
3384f0
33ccf0
33ccf0
33ccf0
31f8f0
31f8f0
31f8f0
30f0f0
30f0f0
30f0f0
fc63fc
ENDCHAR
STARTCHAR N
ENCODING 78
SWIDTH 782 0
DWIDTH 19 0
BBX 17 17 1 0
BITMAP
fe1f80
3e0600
3f0600
3f0600
3f8600
378600
33c600
33c600
31e600
31f600
30f600
30fe00
307e00
303e00
303e00
301e00
fc1e00
ENDCHAR
STARTCHAR O
ENCODING 79
SWIDTH 815 0
DWIDTH 20 0
BBX 18 17 1 0
BITMAP
03f000
0ffc00
1e1e00
3c0f00
7c0f80
f80780
f807c0
f807c0
f807c0
f807c0
f807c0
780780
7c0f80
3c0f00
1e1e00
0ffc00
03f000
ENDCHAR
STARTCHAR P
ENCODING 80
SWIDTH 653 0
DWIDTH 16 0
BBX 14 17 1 0
BITMAP
ffe0
3cf8
3c78
3c7c
3c7c
3c7c
3c7c
3c78
3cf8
3fe0
3c00
3c00
3c00
3c00
3c00
3c00
ff00
ENDCHAR
STARTCHAR Q
ENCODING 81
SWIDTH 815 0
DWIDTH 20 0
BBX 18 22 1 -5
BITMAP
03f000
0ffc00
1e1e00
3c0f00
7c0f80
f80780
f807c0
f807c0
f807c0
f807c0
f807c0
780780
7c0f80
3c0f00
1e1e00
0ffc00
07f000
01f000
01f000
01f800
00ff80
007f00
ENDCHAR
STARTCHAR R
ENCODING 82
SWIDTH 736 0
DWIDTH 19 0
BBX 18 17 1 0
BITMAP
fff800
3cfc00
3c7e00
3c3e00
3c3e00
3c3e00
3c3c00
3c7800
3fe000
3cf800
3c7c00
3c7c00
3c7c00
3c3e00
3c3e00
3c3f00
ff1fc0
ENDCHAR
STARTCHAR S
ENCODING 83
SWIDTH 616 0
DWIDTH 15 0
BBX 13 17 1 0
BITMAP
1fe0
3ff8
7838
f038
f038
f800
fe00
7fc0
3ff0
1ff0
03f8
00f8
c078
c078
e0f0
ffe0
3f80
ENDCHAR
STARTCHAR T
ENCODING 84
SWIDTH 646 0
DWIDTH 16 0
BBX 16 17 0 0
BITMAP
ffff00
e3c700
e3c700
e3c300
c3c300
03c000
03c000
03c000
03c000
03c000
03c000
03c000
03c000
03c000
03c000
03c000
0ff000
ENDCHAR
STARTCHAR U
ENCODING 85
SWIDTH 757 0
DWIDTH 19 0
BBX 17 17 1 0
BITMAP
ff1f80
3c0600
3c0600
3c0600
3c0600
3c0600
3c0600
3c0600
3c0600
3c0600
3c0600
3c0600
3c0600
3e0e00
1f0c00
1ffc00
07f000
ENDCHAR
STARTCHAR V
ENCODING 86
SWIDTH 690 0
DWIDTH 18 0
BBX 19 17 -1 0
BITMAP
ff8fe0
3e0380
3e0380
1e0300
1f0700
0f0600
0f0600
0f8e00
078c00
079c00
07dc00
03d800
03f800
01f000
01f000
01f000
00e000
ENDCHAR
STARTCHAR W
ENCODING 87
SWIDTH 1014 0
DWIDTH 25 0
BBX 25 17 0 0
BITMAP
ff0e1f80
3c1e0e00
3c1f0e00
3e1f0c00
1e3f0c00
1e370c00
1e379c00
1f379800
0f639800
0f63d800
0f63f800
07e3f000
07c1f000
07c1f000
07c1f000
0380e000
0380e000
ENDCHAR
STARTCHAR X
ENCODING 88
SWIDTH 713 0
DWIDTH 18 0
BBX 18 17 0 0
BITMAP
ff9fc0
3e0700
1f0e00
1f0c00
0f9c00
07b800
07f000
03e000
03f000
03f000
03f800
077800
0e7c00
0c3e00
1c3e00
381f00
fe7fc0
ENDCHAR
STARTCHAR Y
ENCODING 89
SWIDTH 671 0
DWIDTH 17 0
BBX 17 17 0 0
BITMAP
ff1f80
3e0600
3e0e00
1f0c00
0f1c00
0f9800
07b800
07f000
03f000
03e000
01e000
01e000
01e000
01e000
01e000
01e000
07f800
ENDCHAR
STARTCHAR Z
ENCODING 90
SWIDTH 634 0
DWIDTH 16 0
BBX 14 17 1 0
BITMAP
fffc
e0fc
e0f8
e1f0
e1f0
03e0
03e0
07c0
0f80
0f80
1f00
1f00
3e0c
7e1c
7c1c
f81c
fffc
ENDCHAR
STARTCHAR bracketleft
ENCODING 91
SWIDTH 495 0
DWIDTH 12 0
BBX 8 21 3 -3
BITMAP
ff00
f000
f000
f000
f000
f000
f000
f000
f000
f000
f000
f000
f000
f000
f000
f000
f000
f000
f000
f000
ff00
ENDCHAR
STARTCHAR backslash
ENCODING 92
SWIDTH 500 0
DWIDTH 12 0
BBX 13 19 -1 -2
BITMAP
c000
6000
7000
3000
3800
1800
0c00
0c00
0600
0600
0300
0380
0180
01c0
00c0
0060
0060
0030
0038
ENDCHAR
STARTCHAR bracketright
ENCODING 93
SWIDTH 495 0
DWIDTH 12 0
BBX 8 21 1 -3
BITMAP
ff00
0f00
0f00
0f00
0f00
0f00
0f00
0f00
0f00
0f00
0f00
0f00
0f00
0f00
0f00
0f00
0f00
0f00
0f00
0f00
ff00
ENDCHAR
STARTCHAR asciicircum
ENCODING 94
SWIDTH 1000 0
DWIDTH 25 0
BBX 15 7 5 11
BITMAP
0380
07c0
0ee0
1c70
3018
600c
c006
ENDCHAR
STARTCHAR underscore
ENCODING 95
SWIDTH 500 0
DWIDTH 12 0
BBX 12 2 0 -6
BITMAP
fff0
fff0
ENDCHAR
STARTCHAR quoteleft
ENCODING 96
SWIDTH 331 0
DWIDTH 8 0
BBX 6 8 1 9
BITMAP
0c
3c
70
60
e0
f8
f8
70
ENDCHAR
STARTCHAR a
ENCODING 97
SWIDTH 616 0
DWIDTH 15 0
BBX 14 12 1 0
BITMAP
1fc0
79e0
78f0
78f0
00f0
0ff0
7cf0
f0f0
f0f0
f0f0
fff0
7efc
ENDCHAR
STARTCHAR b
ENCODING 98
SWIDTH 650 0
DWIDTH 17 0
BBX 15 18 1 0
BITMAP
1800
7800
f800
7800
7800
7800
79f8
7ffc
787c
783e
781e
781e
781e
781e
781c
783c
7878
7ff0
ENDCHAR
STARTCHAR c
ENCODING 99
SWIDTH 537 0
DWIDTH 13 0
BBX 11 12 1 0
BITMAP
0f80
3de0
79e0
71e0
f1c0
f000
f000
f000
f800
7c20
3fe0
1f80
ENDCHAR
STARTCHAR d
ENCODING 100
SWIDTH 664 0
DWIDTH 17 0
BBX 15 18 1 0
BITMAP
001c
007c
00fc
003c
003c
003c
1ffc
7c3c
783c
f03c
f03c
f03c
f03c
f03c
f83c
7c3c
7ffc
3f3e
ENDCHAR
STARTCHAR e
ENCODING 101
SWIDTH 590 0
DWIDTH 15 0
BBX 13 12 1 0
BITMAP
1fe0
38f0
7870
7078
f078
fff8
f000
f000
f800
7c18
3ff8
1fe0
ENDCHAR
STARTCHAR f
ENCODING 102
SWIDTH 387 0
DWIDTH 10 0
BBX 11 18 1 0
BITMAP
07c0
1be0
39e0
7880
7800
7800
ff80
7800
7800
7800
7800
7800
7800
7800
7800
7800
7800
ff00
ENDCHAR
STARTCHAR g
ENCODING 103
SWIDTH 613 0
DWIDTH 15 0
BBX 14 18 1 -6
BITMAP
1fc0
3dfc
78f0
78f0
78f0
78f0
3de0
1fc0
1800
1800
1f80
1fe0
1ff8
71f8
f078
f078
78f0
3fc0
ENDCHAR
STARTCHAR h
ENCODING 104
SWIDTH 667 0
DWIDTH 17 0
BBX 15 18 1 0
BITMAP
1800
7800
f800
7800
7800
7800
78f0
7bf8
7ffc
787c
783c
783c
783c
783c
783c
783c
783c
fcfe
ENDCHAR
STARTCHAR i
ENCODING 105
SWIDTH 354 0
DWIDTH 9 0
BBX 7 18 1 0
BITMAP
30
78
78
78
30
00
18
78
f8
78
78
78
78
78
78
78
78
fe
ENDCHAR
STARTCHAR j
ENCODING 106
SWIDTH 352 0
DWIDTH 8 0
BBX 9 24 -3 -6
BITMAP
0300
0780
0780
0780
0300
0000
0180
0780
0f80
0780
0780
0780
0780
0780
0780
0780
0780
0780
0780
2780
e700
f700
f600
7c00
ENDCHAR
STARTCHAR k
ENCODING 107
SWIDTH 623 0
DWIDTH 16 0
BBX 15 18 1 0
BITMAP
1800
7800
f800
7800
7800
7800
79fc
78e0
78c0
7980
7b80
7fc0
7bc0
7be0
79f0
79f0
78f8
fcfe
ENDCHAR
STARTCHAR l
ENCODING 108
SWIDTH 350 0
DWIDTH 9 0
BBX 7 18 1 0
BITMAP
18
78
f8
78
78
78
78
78
78
78
78
78
78
78
78
78
78
fe
ENDCHAR
STARTCHAR m
ENCODING 109
SWIDTH 991 0
DWIDTH 24 0
BBX 22 12 1 0
BITMAP
19e1e0
7bf3f0
fffff8
78f8f8
787878
787878
787878
787878
787878
787878
787878
fdfdfc
ENDCHAR
STARTCHAR n
ENCODING 110
SWIDTH 678 0
DWIDTH 17 0
BBX 15 12 1 0
BITMAP
18f0
7bf8
fffc
787c
783c
783c
783c
783c
783c
783c
783c
fcfe
ENDCHAR
STARTCHAR o
ENCODING 111
SWIDTH 650 0
DWIDTH 16 0
BBX 14 12 1 0
BITMAP
1fe0
7c78
7878
f03c
f03c
f03c
f03c
f03c
f03c
7878
7c78
1fe0
ENDCHAR
STARTCHAR p
ENCODING 112
SWIDTH 667 0
DWIDTH 17 0
BBX 15 18 1 -6
BITMAP
18f0
7bf8
fffc
787e
783e
781e
781e
781e
781e
783c
7878
7ff0
7800
7800
7800
7800
7800
ff00
ENDCHAR
STARTCHAR q
ENCODING 113
SWIDTH 655 0
DWIDTH 17 0
BBX 15 18 1 -6
BITMAP
1ffc
3c3c
783c
703c
f03c
f03c
f03c
f03c
f83c
7c3c
7ffc
3f3c
003c
003c
003c
003c
003c
01fe
ENDCHAR
STARTCHAR r
ENCODING 114
SWIDTH 488 0
DWIDTH 12 0
BBX 11 12 1 0
BITMAP
18e0
79e0
fbe0
7fc0
79c0
7800
7800
7800
7800
7800
7800
fe00
ENDCHAR
STARTCHAR s
ENCODING 115
SWIDTH 523 0
DWIDTH 13 0
BBX 11 12 1 0
BITMAP
3fc0
f8c0
f040
f840
fe00
7f80
3fc0
0fe0
c3e0
c1e0
c1c0
ff80
ENDCHAR
STARTCHAR t
ENCODING 116
SWIDTH 407 0
DWIDTH 10 0
BBX 9 16 1 0
BITMAP
1800
3800
3800
7800
ff80
7800
7800
7800
7800
7800
7800
7800
7800
7c00
7f80
3e00
ENDCHAR
STARTCHAR u
ENCODING 117
SWIDTH 667 0
DWIDTH 17 0
BBX 15 12 1 0
BITMAP
180c
787c
f8fc
783c
783c
783c
783c
783c
783c
7c3c
7ffc
3f3e
ENDCHAR
STARTCHAR v
ENCODING 118
SWIDTH 565 0
DWIDTH 14 0
BBX 15 12 0 0
BITMAP
ff3e
3c18
3e18
1e30
1e30
1f30
0f60
0f60
07c0
07c0
07c0
0380
ENDCHAR
STARTCHAR w
ENCODING 119
SWIDTH 873 0
DWIDTH 22 0
BBX 22 12 0 0
BITMAP
fe387c
3c7c30
3c7c30
3c5c30
1ede60
1ede60
1edf60
0e8fc0
0f8fc0
0f8fc0
070780
070780
ENDCHAR
STARTCHAR x
ENCODING 120
SWIDTH 593 0
DWIDTH 15 0
BBX 15 12 0 0
BITMAP
fe7c
3c38
3e30
1f60
0fc0
07c0
07e0
0fe0
0df0
18f8
387c
f8fe
ENDCHAR
STARTCHAR y
ENCODING 121
SWIDTH 567 0
DWIDTH 14 0
BBX 15 18 0 -6
BITMAP
ff3e
3c1c
3e18
1e38
1e30
1f30
0f60
0fe0
07c0
07c0
03c0
0380
0380
6300
f600
fe00
7c00
3800
ENDCHAR
STARTCHAR z
ENCODING 122
SWIDTH 556 0
DWIDTH 14 0
BBX 12 12 1 0
BITMAP
fff0
e3e0
c3e0
c7c0
0f80
0f80
1f00
3e00
3e30
7c30
f830
fff0
ENDCHAR
STARTCHAR braceleft
ENCODING 123
SWIDTH 500 0
DWIDTH 12 0
BBX 10 21 1 -3
BITMAP
03c0
0fc0
1f00
1e00
1e00
1e00
1e00
1e00
3c00
f000
f000
3c00
1e00
1e00
1e00
1e00
1e00
1e00
1f00
0fc0
03c0
ENDCHAR
STARTCHAR bar
ENCODING 124
SWIDTH 500 0
DWIDTH 12 0
BBX 2 25 5 -6
BITMAP
c0
c0
c0
c0
c0
c0
c0
c0
c0
c0
c0
c0
c0
c0
c0
c0
c0
c0
c0
c0
c0
c0
c0
c0
c0
ENDCHAR
STARTCHAR braceright
ENCODING 125
SWIDTH 500 0
DWIDTH 12 0
BBX 10 21 1 -3
BITMAP
f000
fc00
3e00
1e00
1e00
1e00
1e00
1e00
0f00
03c0
03c0
0f00
1e00
1e00
1e00
1e00
1e00
1e00
3e00
fc00
f000
ENDCHAR
STARTCHAR c0126
ENCODING 126
SWIDTH 1000 0
DWIDTH 25 0
BBX 15 4 5 12
BITMAP
1e02
7f86
43fc
80f8
ENDCHAR
STARTCHAR space
ENCODING 160
SWIDTH 322 0
DWIDTH 8 0
BBX 1 1 0 0
BITMAP
00
ENDCHAR
STARTCHAR exclamdown
ENCODING 161
SWIDTH 343 0
DWIDTH 9 0
BBX 5 17 2 0
BITMAP
70
f8
f8
f8
70
00
20
70
70
70
70
70
f8
f8
f8
f8
70
ENDCHAR
STARTCHAR cent
ENCODING 162
SWIDTH 644 0
DWIDTH 16 0
BBX 13 18 1 -3
BITMAP
0180
0180
0180
1ff8
3d98
7998
7998
f180
f180
f180
f180
7998
7998
3d98
1ff8
0180
0180
0180
ENDCHAR
STARTCHAR sterling
ENCODING 163
SWIDTH 644 0
DWIDTH 16 0
BBX 14 17 1 0
BITMAP
03e0
07f8
0f3c
1e3c
3e3c
3e38
3e00
3e00
3e00
7fe0
3e00
3e00
3c00
3800
7ffc
fffc
fffc
ENDCHAR
STARTCHAR currency
ENCODING 164
SWIDTH 606 0
DWIDTH 15 0
BBX 14 14 1 3
BITMAP
4008
e01c
77b8
3ff0
1860
3830
3030
3030
3030
1860
3ff0
77b8
e01c
4008
ENDCHAR
STARTCHAR yen
ENCODING 165
SWIDTH 671 0
DWIDTH 17 0
BBX 17 17 0 0
BITMAP
ff1f80
3e0600
3e0e00
1f0e00
1f0c00
0f9c00
0f9800
7fbf00
03f000
03e000
7fff00
01e000
01e000
01e000
01e000
01e000
07f800
ENDCHAR
STARTCHAR brokenbar
ENCODING 166
SWIDTH 500 0
DWIDTH 12 0
BBX 2 21 5 -4
BITMAP
c0
c0
c0
c0
c0
c0
c0
c0
c0
00
00
00
c0
c0
c0
c0
c0
c0
c0
c0
c0
ENDCHAR
STARTCHAR section
ENCODING 167
SWIDTH 500 0
DWIDTH 12 0
BBX 10 22 1 -4
BITMAP
3f80
7180
6180
e180
7000
7800
3e00
3f00
6780
c3c0
c1c0
c1c0
e180
7b80
7e00
3e00
0f80
0780
4380
4380
4780
7e00
ENDCHAR
STARTCHAR dieresis
ENCODING 168
SWIDTH 500 0
DWIDTH 12 0
BBX 10 4 1 14
BITMAP
6180
f3c0
f3c0
6180
ENDCHAR
STARTCHAR copyright
ENCODING 169
SWIDTH 900 0
DWIDTH 22 0
BBX 19 20 2 -2
BITMAP
01f800
060e00
180300
300080
61fcc0
438c40
c70c60
860c20
8e0020
8e0020
8e0020
8e0020
8e0c20
c70c60
438c40
61fcc0
300180
180300
0e0e00
03f800
ENDCHAR
STARTCHAR ordfeminine
ENCODING 170
SWIDTH 462 0
DWIDTH 11 0
BBX 10 9 1 8
BITMAP
3e00
e700
6700
1f00
7700
e700
e700
ff00
77c0
ENDCHAR
STARTCHAR guillemotleft
ENCODING 171
SWIDTH 458 0
DWIDTH 11 0
BBX 9 10 1 1
BITMAP
0880
1180
3380
e700
c600
c600
e700
3380
1180
0880
ENDCHAR
STARTCHAR logicalnot
ENCODING 172
SWIDTH 833 0
DWIDTH 21 0
BBX 15 6 3 4
BITMAP
fffe
fffe
0006
0006
0006
0006
ENDCHAR
STARTCHAR hyphen
ENCODING 173
SWIDTH 333 0
DWIDTH 8 0
BBX 7 3 1 4
BITMAP
fe
fe
fe
ENDCHAR
STARTCHAR registered
ENCODING 174
SWIDTH 900 0
DWIDTH 22 0
BBX 19 20 2 -2
BITMAP
01f800
0e0e00
180300
300080
67f8c0
43bc40
439c60
839c20
839c20
83b820
83e020
83b820
839820
c39c60
439c40
67cfc0
300180
180300
0e0e00
03f800
ENDCHAR
STARTCHAR macron
ENCODING 175
SWIDTH 500 0
DWIDTH 12 0
BBX 9 2 2 15
BITMAP
ff80
ff80
ENDCHAR
STARTCHAR degree
ENCODING 176
SWIDTH 329 0
DWIDTH 8 0
BBX 7 7 1 11
BITMAP
7c
c6
82
82
82
c6
7c
ENDCHAR
STARTCHAR plusminus
ENCODING 177
SWIDTH 833 0
DWIDTH 21 0
BBX 14 14 4 0
BITMAP
0300
0300
0300
0300
fffc
fffc
0300
0300
0300
0300
0000
0000
fffc
fffc
ENDCHAR
STARTCHAR twosuperior
ENCODING 178
SWIDTH 425 0
DWIDTH 11 0
BBX 9 11 1 7
BITMAP
7e00
e780
e380
e380
0380
0700
0e00
1c00
7080
ff80
ff80
ENDCHAR
STARTCHAR threesuperior
ENCODING 179
SWIDTH 425 0
DWIDTH 11 0
BBX 9 11 1 7
BITMAP
3e00
6700
e780
6300
0700
3e00
0700
0380
e380
e700
7e00
ENDCHAR
STARTCHAR acute
ENCODING 180
SWIDTH 500 0
DWIDTH 12 0
BBX 6 5 5 14
BITMAP
3c
38
70
60
c0
ENDCHAR
STARTCHAR mu
ENCODING 181
SWIDTH 578 0
DWIDTH 15 0
BBX 15 16 -1 -5
BITMAP
1c38
1c38
1c30
1830
1870
3870
3870
3862
28e2
6fbc
6738
6000
e000
e000
e000
c000
ENDCHAR
STARTCHAR paragraph
ENCODING 182
SWIDTH 500 0
DWIDTH 12 0
BBX 11 19 0 -2
BITMAP
3fe0
7cc0
7cc0
fcc0
fcc0
fcc0
fcc0
fcc0
7cc0
7cc0
1cc0
00c0
00c0
00c0
00c0
00c0
00c0
00c0
00c0
ENDCHAR
STARTCHAR periodcentered
ENCODING 183
SWIDTH 322 0
DWIDTH 8 0
BBX 5 5 2 6
BITMAP
70
f8
f8
f8
70
ENDCHAR
STARTCHAR cedilla
ENCODING 184
SWIDTH 500 0
DWIDTH 12 0
BBX 4 6 5 -6
BITMAP
40
60
70
30
f0
e0
ENDCHAR
STARTCHAR onesuperior
ENCODING 185
SWIDTH 425 0
DWIDTH 10 0
BBX 6 11 3 7
BITMAP
38
f8
38
38
38
38
38
38
38
38
fc
ENDCHAR
STARTCHAR ordmasculine
ENCODING 186
SWIDTH 488 0
DWIDTH 12 0
BBX 10 9 1 8
BITMAP
3f00
7380
e1c0
e1c0
e1c0
e1c0
e1c0
7380
3f00
ENDCHAR
STARTCHAR guillemotright
ENCODING 187
SWIDTH 458 0
DWIDTH 11 0
BBX 9 10 1 1
BITMAP
8800
c400
e600
7380
3180
3180
7380
e700
c400
8400
ENDCHAR
STARTCHAR onequarter
ENCODING 188
SWIDTH 977 0
DWIDTH 25 0
BBX 22 17 3 0
BITMAP
000300
380600
f80c00
380c00
381800
383000
383000
386000
38e070
fcc0f0
0180f0
018170
030270
060670
0607fc
0c0070
180070
ENDCHAR
STARTCHAR onehalf
ENCODING 189
SWIDTH 977 0
DWIDTH 25 0
BBX 21 17 3 0
BITMAP
000300
380600
f80c00
380c00
381800
383000
383000
386000
38e3e0
fcc738
018738
018038
030070
0600c0
060188
0c07f8
1807f8
ENDCHAR
STARTCHAR threequarters
ENCODING 190
SWIDTH 977 0
DWIDTH 24 0
BBX 23 17 1 0
BITMAP
0000c0
3e0180
e70300
638300
070600
3e0c00
038c00
e39800
e73838
7e3078
006078
0060b8
00c138
018338
0183fe
030038
060038
ENDCHAR
STARTCHAR questiondown
ENCODING 191
SWIDTH 519 0
DWIDTH 13 0
BBX 11 17 1 0
BITMAP
0700
0f80
0f80
0f80
0700
0000
0300
0300
1f00
3e00
7800
f000
f000
f0e0
f0e0
79e0
3fc0
ENDCHAR
STARTCHAR Agrave
ENCODING 192
SWIDTH 701 0
DWIDTH 17 0
BBX 18 23 0 0
BITMAP
0f0000
070000
038000
018000
00c000
000000
01e000
03f000
03f000
03f000
07f800
06f800
067800
0e7c00
0c7c00
0c3c00
1ffe00
181e00
181e00
380f00
300f00
300f00
fc3fc0
ENDCHAR
STARTCHAR Aacute
ENCODING 193
SWIDTH 701 0
DWIDTH 17 0
BBX 18 23 0 0
BITMAP
007800
007000
00e000
00c000
018000
000000
01e000
03f000
03f000
03f000
07f800
06f800
067800
0e7c00
0c7c00
0c3c00
1ffe00
181e00
181e00
380f00
300f00
300f00
fc3fc0
ENDCHAR
STARTCHAR Acircumflex
ENCODING 194
SWIDTH 701 0
DWIDTH 17 0
BBX 18 23 0 0
BITMAP
03c000
03c000
07e000
066000
0e7000
000000
01e000
03f000
03f000
03f000
07f800
06f800
067800
0e7c00
0c7c00
0c3c00
1ffe00
181e00
181e00
380f00
300f00
300f00
fc3fc0
ENDCHAR
STARTCHAR Atilde
ENCODING 195
SWIDTH 701 0
DWIDTH 17 0
BBX 18 22 0 0
BITMAP
023000
0ff000
0ff000
0c6000
000000
01e000
03f000
03f000
03f000
07f800
06f800
067800
0e7c00
0c7c00
0c3c00
1ffe00
181e00
181e00
380f00
300f00
300f00
fc3fc0
ENDCHAR
STARTCHAR Adieresis
ENCODING 196
SWIDTH 701 0
DWIDTH 17 0
BBX 18 22 0 0
BITMAP
0c3000
1e7800
1e7800
0c3000
000000
01e000
03f000
03f000
03f000
07f800
06f800
067800
0e7c00
0c7c00
0c3c00
1ffe00
181e00
181e00
380f00
300f00
300f00
fc3fc0
ENDCHAR
STARTCHAR Aring
ENCODING 197
SWIDTH 701 0
DWIDTH 17 0
BBX 18 24 0 0
BITMAP
01e000
033000
023000
023000
033000
01e000
000000
01e000
03f000
03f000
03f000
07f800
06f800
067800
0e7c00
0c7c00
0c3c00
1ffe00
181e00
181e00
380f00
300f00
300f00
fc3fc0
ENDCHAR
STARTCHAR AE
ENCODING 198
SWIDTH 963 0
DWIDTH 24 0
BBX 25 17 -2 0
BITMAP
00ffff00
003f8300
00378300
00778300
00678000
00c78c00
01c78c00
01878c00
0387fc00
03ff8c00
06078c00
0c078000
0c078180
18078180
18078180
38078180
fc1fff80
ENDCHAR
STARTCHAR Ccedilla
ENCODING 199
SWIDTH 683 0
DWIDTH 17 0
BBX 15 23 1 -6
BITMAP
03fc
0ffe
1f0e
3e06
7c06
7c00
f800
f800
f800
f800
f800
7c06
7c06
3e06
1f0e
0ffe
03f8
0020
0030
0038
0018
0078
0070
ENDCHAR
STARTCHAR Egrave
ENCODING 200
SWIDTH 653 0
DWIDTH 16 0
BBX 14 23 1 0
BITMAP
1e00
0e00
0700
0300
0180
0000
fff8
3c18
3c18
3c18
3c00
3c60
3c60
3c60
3fe0
3c60
3c60
3c00
3c0c
3c0c
3c0c
3c0c
fffc
ENDCHAR
STARTCHAR Eacute
ENCODING 201
SWIDTH 653 0
DWIDTH 16 0
BBX 14 23 1 0
BITMAP
00f0
00e0
01c0
0180
0300
0000
fff8
3c18
3c18
3c18
3c00
3c60
3c60
3c60
3fe0
3c60
3c60
3c00
3c0c
3c0c
3c0c
3c0c
fffc
ENDCHAR
STARTCHAR Ecircumflex
ENCODING 202
SWIDTH 653 0
DWIDTH 16 0
BBX 14 23 1 0
BITMAP
0780
0780
0fc0
0cc0
1ce0
0000
fff8
3c18
3c18
3c18
3c00
3c60
3c60
3c60
3fe0
3c60
3c60
3c00
3c0c
3c0c
3c0c
3c0c
fffc
ENDCHAR
STARTCHAR Edieresis
ENCODING 203
SWIDTH 653 0
DWIDTH 16 0
BBX 14 22 1 0
BITMAP
1860
3cf0
3cf0
1860
0000
fff8
3c18
3c18
3c18
3c00
3c60
3c60
3c60
3fe0
3c60
3c60
3c00
3c0c
3c0c
3c0c
3c0c
fffc
ENDCHAR
STARTCHAR Igrave
ENCODING 204
SWIDTH 410 0
DWIDTH 10 0
BBX 8 23 1 0
BITMAP
f000
7000
3800
1800
0c00
0000
ff00
3c00
3c00
3c00
3c00
3c00
3c00
3c00
3c00
3c00
3c00
3c00
3c00
3c00
3c00
3c00
ff00
ENDCHAR
STARTCHAR Iacute
ENCODING 205
SWIDTH 410 0
DWIDTH 10 0
BBX 9 23 1 0
BITMAP
0780
0700
0e00
0c00
1800
0000
ff00
3c00
3c00
3c00
3c00
3c00
3c00
3c00
3c00
3c00
3c00
3c00
3c00
3c00
3c00
3c00
ff00
ENDCHAR
STARTCHAR Icircumflex
ENCODING 206
SWIDTH 410 0
DWIDTH 10 0
BBX 8 23 1 0
BITMAP
3c00
3c00
7e00
6600
e700
0000
ff00
3c00
3c00
3c00
3c00
3c00
3c00
3c00
3c00
3c00
3c00
3c00
3c00
3c00
3c00
3c00
ff00
ENDCHAR
STARTCHAR Idieresis
ENCODING 207
SWIDTH 410 0
DWIDTH 10 0
BBX 10 22 0 0
BITMAP
6180
f3c0
f3c0
6180
0000
7f80
1e00
1e00
1e00
1e00
1e00
1e00
1e00
1e00
1e00
1e00
1e00
1e00
1e00
1e00
1e00
7f80
ENDCHAR
STARTCHAR Eth
ENCODING 208
SWIDTH 780 0
DWIDTH 19 0
BBX 17 17 1 0
BITMAP
fff000
3cfc00
3c3e00
3c1f00
3c1f00
3c0f00
3c0f80
3c0f80
ff8f80
3c0f80
3c0f80
3c0f80
3c1f00
3c1f00
3c3e00
3c7c00
fff000
ENDCHAR
STARTCHAR Ntilde
ENCODING 209
SWIDTH 782 0
DWIDTH 19 0
BBX 17 22 1 0
BITMAP
011800
07f800
07f800
063000
000000
fe1f80
3e0600
3f0600
3f0600
3f8600
378600
33c600
33c600
31e600
31f600
30f600
30fe00
307e00
303e00
303e00
301e00
fc1e00
ENDCHAR
STARTCHAR Ograve
ENCODING 210
SWIDTH 815 0
DWIDTH 20 0
BBX 18 23 1 0
BITMAP
078000
038000
01c000
00c000
006000
000000
03f000
0ffc00
1e1e00
3c0f00
7c0f80
f80780
f807c0
f807c0
f807c0
f807c0
f807c0
780780
7c0f80
3c0f00
1e1e00
0ffc00
03f000
ENDCHAR
STARTCHAR Oacute
ENCODING 211
SWIDTH 815 0
DWIDTH 20 0
BBX 18 23 1 0
BITMAP
003c00
003800
007000
006000
00c000
000000
03f000
0ffc00
1e1e00
3c0f00
7c0f80
f80780
f807c0
f807c0
f807c0
f807c0
f807c0
780780
7c0f80
3c0f00
1e1e00
0ffc00
03f000
ENDCHAR
STARTCHAR Ocircumflex
ENCODING 212
SWIDTH 815 0
DWIDTH 20 0
BBX 18 23 1 0
BITMAP
01e000
01e000
03f000
033000
073800
000000
03f000
0ffc00
1e1e00
3c0f00
7c0f80
f80780
f807c0
f807c0
f807c0
f807c0
f807c0
780780
7c0f80
3c0f00
1e1e00
0ffc00
03f000
ENDCHAR
STARTCHAR Otilde
ENCODING 213
SWIDTH 815 0
DWIDTH 20 0
BBX 18 22 1 0
BITMAP
011800
07f800
07f800
063000
000000
03f000
0ffc00
1e1e00
3c0f00
7c0f80
f80780
f807c0
f807c0
f807c0
f807c0
f807c0
780780
7c0f80
3c0f00
1e1e00
0ffc00
03f000
ENDCHAR
STARTCHAR Odieresis
ENCODING 214
SWIDTH 815 0
DWIDTH 20 0
BBX 18 22 1 0
BITMAP
061800
0f3c00
0f3c00
061800
000000
03f000
0ffc00
1e1e00
3c0f00
7c0f80
f80780
f807c0
f807c0
f807c0
f807c0
f807c0
780780
7c0f80
3c0f00
1e1e00
0ffc00
03f000
ENDCHAR
STARTCHAR multiply
ENCODING 215
SWIDTH 833 0
DWIDTH 21 0
BBX 14 14 4 0
BITMAP
4008
e01c
7038
3870
1ce0
0fc0
0780
0780
0fc0
1ce0
3870
7038
e01c
4008
ENDCHAR
STARTCHAR Oslash
ENCODING 216
SWIDTH 815 0
DWIDTH 20 0
BBX 18 21 1 -2
BITMAP
000200
000600
03fc00
0ffc00
1e1e00
3c1f00
7c3f80
782780
f867c0
f847c0
f8c7c0
f987c0
f987c0
7b0780
7e0f80
3e0f00
1e1e00
0ffc00
1bf000
180000
100000
ENDCHAR
STARTCHAR Ugrave
ENCODING 217
SWIDTH 757 0
DWIDTH 19 0
BBX 17 23 1 0
BITMAP
078000
038000
01c000
00c000
006000
000000
ff1f80
3c0600
3c0600
3c0600
3c0600
3c0600
3c0600
3c0600
3c0600
3c0600
3c0600
3c0600
3c0600
3e0e00
1f0c00
1ffc00
07f000
ENDCHAR
STARTCHAR Uacute
ENCODING 218
SWIDTH 757 0
DWIDTH 19 0
BBX 17 23 1 0
BITMAP
003c00
003800
007000
006000
00c000
000000
ff1f80
3c0600
3c0600
3c0600
3c0600
3c0600
3c0600
3c0600
3c0600
3c0600
3c0600
3c0600
3c0600
3e0e00
1f0c00
1ffc00
07f000
ENDCHAR
STARTCHAR Ucircumflex
ENCODING 219
SWIDTH 757 0
DWIDTH 19 0
BBX 17 23 1 0
BITMAP
01e000
01e000
03f000
033000
073800
000000
ff1f80
3c0600
3c0600
3c0600
3c0600
3c0600
3c0600
3c0600
3c0600
3c0600
3c0600
3c0600
3c0600
3e0e00
1f0c00
1ffc00
07f000
ENDCHAR
STARTCHAR Udieresis
ENCODING 220
SWIDTH 757 0
DWIDTH 19 0
BBX 17 22 1 0
BITMAP
061800
0f3c00
0f3c00
061800
000000
ff1f80
3c0600
3c0600
3c0600
3c0600
3c0600
3c0600
3c0600
3c0600
3c0600
3c0600
3c0600
3c0600
3e0e00
1f0c00
1ffc00
07f000
ENDCHAR
STARTCHAR Yacute
ENCODING 221
SWIDTH 671 0
DWIDTH 17 0
BBX 17 23 0 0
BITMAP
007800
007000
00e000
00c000
018000
000000
ff1f80
3e0600
3e0e00
1f0c00
0f1c00
0f9800
07b800
07f000
03f000
03e000
01e000
01e000
01e000
01e000
01e000
01e000
07f800
ENDCHAR
STARTCHAR Thorn
ENCODING 222
SWIDTH 653 0
DWIDTH 16 0
BBX 14 17 1 0
BITMAP
ff00
3c00
3c00
3c00
3ff0
3cf8
3c7c
3c7c
3c7c
3c7c
3c7c
3c78
3cf8
3fe0
3c00
3c00
ff00
ENDCHAR
STARTCHAR germandbls
ENCODING 223
SWIDTH 713 0
DWIDTH 18 0
BBX 16 18 1 0
BITMAP
07f000
1c7800
3c3c00
383c00
783c00
783c00
78f000
79e000
79e000
79f000
79fc00
78fe00
787f00
781f00
790f00
798f00
799e00
f9fc00
ENDCHAR
STARTCHAR agrave
ENCODING 224
SWIDTH 616 0
DWIDTH 15 0
BBX 14 19 1 0
BITMAP
3c00
1c00
0e00
0600
0300
0000
0000
1fc0
79e0
78f0
78f0
00f0
0ff0
7cf0
f0f0
f0f0
f0f0
fff0
7efc
ENDCHAR
STARTCHAR aacute
ENCODING 225
SWIDTH 616 0
DWIDTH 15 0
BBX 14 19 1 0
BITMAP
01e0
01c0
0380
0300
0600
0000
0000
1fc0
79e0
78f0
78f0
00f0
0ff0
7cf0
f0f0
f0f0
f0f0
fff0
7efc
ENDCHAR
STARTCHAR acircumflex
ENCODING 226
SWIDTH 616 0
DWIDTH 15 0
BBX 14 19 1 0
BITMAP
0f00
0f00
1f80
1980
39c0
0000
0000
1fc0
79e0
78f0
78f0
00f0
0ff0
7cf0
f0f0
f0f0
f0f0
fff0
7efc
ENDCHAR
STARTCHAR atilde
ENCODING 227
SWIDTH 616 0
DWIDTH 15 0
BBX 14 18 1 0
BITMAP
08c0
3fc0
3fc0
3180
0000
0000
1fc0
79e0
78f0
78f0
00f0
0ff0
7cf0
f0f0
f0f0
f0f0
fff0
7efc
ENDCHAR
STARTCHAR adieresis
ENCODING 228
SWIDTH 616 0
DWIDTH 15 0
BBX 14 18 1 0
BITMAP
30c0
79e0
79e0
30c0
0000
0000
1fc0
79e0
78f0
78f0
00f0
0ff0
7cf0
f0f0
f0f0
f0f0
fff0
7efc
ENDCHAR
STARTCHAR aring
ENCODING 229
SWIDTH 616 0
DWIDTH 15 0
BBX 14 19 1 0
BITMAP
0780
0880
18c0
0880
0f80
0700
0000
1fc0
79e0
78f0
78f0
00f0
0ff0
7cf0
f0f0
f0f0
f0f0
fff0
7efc
ENDCHAR
STARTCHAR ae
ENCODING 230
SWIDTH 854 0
DWIDTH 21 0
BBX 19 12 1 0
BITMAP
3f9f80
73f3c0
71e1c0
71e1e0
01e1e0
1fffe0
79e000
f1e000
f1e000
f1f860
ffffe0
7c1f80
ENDCHAR
STARTCHAR ccedilla
ENCODING 231
SWIDTH 537 0
DWIDTH 13 0
BBX 11 18 1 -6
BITMAP
0f80
3de0
79e0
71e0
f1c0
f000
f000
f000
f800
7c20
3fe0
1f80
0200
0300
0380
0180
0780
0700
ENDCHAR
STARTCHAR egrave
ENCODING 232
SWIDTH 590 0
DWIDTH 15 0
BBX 13 19 1 0
BITMAP
3c00
1c00
0e00
0600
0300
0000
0000
1fe0
38f0
7870
7078
f078
fff8
f000
f000
f800
7c18
3ff8
1fe0
ENDCHAR
STARTCHAR eacute
ENCODING 233
SWIDTH 590 0
DWIDTH 15 0
BBX 13 19 1 0
BITMAP
01e0
01c0
0380
0300
0600
0000
0000
1fe0
38f0
7870
7078
f078
fff8
f000
f000
f800
7c18
3ff8
1fe0
ENDCHAR
STARTCHAR ecircumflex
ENCODING 234
SWIDTH 590 0
DWIDTH 15 0
BBX 13 19 1 0
BITMAP
0f00
0f00
1f80
1980
39c0
0000
0000
1fe0
38f0
7870
7078
f078
fff8
f000
f000
f800
7c18
3ff8
1fe0
ENDCHAR
STARTCHAR edieresis
ENCODING 235
SWIDTH 590 0
DWIDTH 15 0
BBX 13 18 1 0
BITMAP
30c0
79e0
79e0
30c0
0000
0000
1fe0
38f0
7870
7078
f078
fff8
f000
f000
f800
7c18
3ff8
1fe0
ENDCHAR
STARTCHAR igrave
ENCODING 236
SWIDTH 354 0
DWIDTH 9 0
BBX 8 19 0 0
BITMAP
f000
7000
3800
1800
0c00
0000
0000
0c00
3c00
7c00
3c00
3c00
3c00
3c00
3c00
3c00
3c00
3c00
7f00
ENDCHAR
STARTCHAR iacute
ENCODING 237
SWIDTH 354 0
DWIDTH 9 0
BBX 8 19 1 0
BITMAP
0f00
0e00
1c00
1800
3000
0000
0000
1800
7800
f800
7800
7800
7800
7800
7800
7800
7800
7800
fe00
ENDCHAR
STARTCHAR icircumflex
ENCODING 238
SWIDTH 354 0
DWIDTH 9 0
BBX 8 19 0 0
BITMAP
3c00
3c00
7e00
6600
e700
0000
0000
0c00
3c00
7c00
3c00
3c00
3c00
3c00
3c00
3c00
3c00
3c00
7f00
ENDCHAR
STARTCHAR idieresis
ENCODING 239
SWIDTH 354 0
DWIDTH 9 0
BBX 10 18 -1 0
BITMAP
6180
f3c0
f3c0
6180
0000
0000
0600
1e00
3e00
1e00
1e00
1e00
1e00
1e00
1e00
1e00
1e00
3f80
ENDCHAR
STARTCHAR eth
ENCODING 240
SWIDTH 645 0
DWIDTH 16 0
BBX 14 18 1 0
BITMAP
0710
3fb8
0fe0
07e0
19f0
10f0
1ff8
7c78
783c
f03c
f03c
f03c
f03c
f03c
f03c
7878
7878
1fe0
ENDCHAR
STARTCHAR ntilde
ENCODING 241
SWIDTH 678 0
DWIDTH 17 0
BBX 15 18 1 0
BITMAP
0460
1fe0
1fe0
18c0
0000
0000
18f0
7bf8
fffc
787c
783c
783c
783c
783c
783c
783c
783c
fcfe
ENDCHAR
STARTCHAR ograve
ENCODING 242
SWIDTH 650 0
DWIDTH 16 0
BBX 14 19 1 0
BITMAP
1e00
0e00
0700
0300
0180
0000
0000
1fe0
7c78
7878
f03c
f03c
f03c
f03c
f03c
f03c
7878
7c78
1fe0
ENDCHAR
STARTCHAR oacute
ENCODING 243
SWIDTH 650 0
DWIDTH 16 0
BBX 14 19 1 0
BITMAP
00f0
00e0
01c0
0180
0300
0000
0000
1fe0
7c78
7878
f03c
f03c
f03c
f03c
f03c
f03c
7878
7c78
1fe0
ENDCHAR
STARTCHAR ocircumflex
ENCODING 244
SWIDTH 650 0
DWIDTH 16 0
BBX 14 19 1 0
BITMAP
0780
0780
0fc0
0cc0
1ce0
0000
0000
1fe0
7c78
7878
f03c
f03c
f03c
f03c
f03c
f03c
7878
7c78
1fe0
ENDCHAR
STARTCHAR otilde
ENCODING 245
SWIDTH 650 0
DWIDTH 16 0
BBX 14 18 1 0
BITMAP
0460
1fe0
1fe0
18c0
0000
0000
1fe0
7c78
7878
f03c
f03c
f03c
f03c
f03c
f03c
7878
7c78
1fe0
ENDCHAR
STARTCHAR odieresis
ENCODING 246
SWIDTH 650 0
DWIDTH 16 0
BBX 14 18 1 0
BITMAP
1860
3cf0
3cf0
1860
0000
0000
1fe0
7c78
7878
f03c
f03c
f03c
f03c
f03c
f03c
7878
7c78
1fe0
ENDCHAR
STARTCHAR divide
ENCODING 247
SWIDTH 833 0
DWIDTH 21 0
BBX 15 12 3 1
BITMAP
0380
0380
0380
0000
0000
fffe
fffe
0000
0000
0380
0380
0380
ENDCHAR
STARTCHAR oslash
ENCODING 248
SWIDTH 650 0
DWIDTH 16 0
BBX 14 16 1 -2
BITMAP
0010
0030
1fe0
3c78
78f8
f1bc
f1bc
f33c
f23c
f63c
fc3c
7c78
3878
1fe0
3000
2000
ENDCHAR
STARTCHAR ugrave
ENCODING 249
SWIDTH 667 0
DWIDTH 17 0
BBX 15 19 1 0
BITMAP
1e00
0e00
0700
0300
0180
0000
0000
180c
787c
f8fc
783c
783c
783c
783c
783c
783c
7c3c
7ffc
3f3e
ENDCHAR
STARTCHAR uacute
ENCODING 250
SWIDTH 667 0
DWIDTH 17 0
BBX 15 19 1 0
BITMAP
00f0
00e0
01c0
0180
0300
0000
0000
180c
787c
f8fc
783c
783c
783c
783c
783c
783c
7c3c
7ffc
3f3e
ENDCHAR
STARTCHAR ucircumflex
ENCODING 251
SWIDTH 667 0
DWIDTH 17 0
BBX 15 19 1 0
BITMAP
0780
0780
0fc0
0cc0
1ce0
0000
0000
180c
787c
f8fc
783c
783c
783c
783c
783c
783c
7c3c
7ffc
3f3e
ENDCHAR
STARTCHAR udieresis
ENCODING 252
SWIDTH 667 0
DWIDTH 17 0
BBX 15 18 1 0
BITMAP
1860
3cf0
3cf0
1860
0000
0000
180c
787c
f8fc
783c
783c
783c
783c
783c
783c
7c3c
7ffc
3f3e
ENDCHAR
STARTCHAR yacute
ENCODING 253
SWIDTH 567 0
DWIDTH 14 0
BBX 15 25 0 -6
BITMAP
00f0
00e0
01c0
0180
0300
0000
0000
ff3e
3c1c
3e18
1e38
1e30
1f30
0f60
0fe0
07c0
07c0
03c0
0380
0380
6300
f600
fe00
7c00
3800
ENDCHAR
STARTCHAR thorn
ENCODING 254
SWIDTH 667 0
DWIDTH 17 0
BBX 15 24 1 -6
BITMAP
1800
7800
f800
7800
7800
7800
78f0
7bf8
7ffc
787e
783e
781e
781e
781e
781e
783c
7878
7ff0
7800
7800
7800
7800
7800
ff00
ENDCHAR
STARTCHAR ydieresis
ENCODING 255
SWIDTH 567 0
DWIDTH 14 0
BBX 15 24 0 -6
BITMAP
1860
3cf0
3cf0
1860
0000
0000
ff3e
3c1c
3e18
1e38
1e30
1f30
0f60
0fe0
07c0
07c0
03c0
0380
0380
6300
f600
fe00
7c00
3800
ENDCHAR
ENDFONT
