STARTFONT 2.1
COMMENT  
COMMENT  Copyright 1988 Bitstream, Inc., Cambridge, Massachusetts, USA
COMMENT  Bitstream and Charter are registered trademarks of Bitstream, Inc.
COMMENT  
COMMENT  The names "Bitstream" and "Charter" are registered trademarks of
COMMENT  Bitstream, Inc.  Permission to use these trademarks is hereby
COMMENT  granted only in association with the images described in this file.
COMMENT  
COMMENT  Permission to use, copy, modify, and distribute this software and
COMMENT  its documentation for any purpose and without fee is hereby
COMMENT  granted, provided that the above copyright notice appear in all
COMMENT  copies and that both that copyright notice and this permission
COMMENT  notice appear in supporting documentation, and that the name of
COMMENT  Bitstream not be used in advertising or publicity pertaining to
COMMENT  distribution of the software without specific, written prior
COMMENT  permission.  Bitstream makes no representations about the
COMMENT  suitability of this software for any purpose.  It is provided "as
COMMENT  is" without express or implied warranty.
COMMENT  
COMMENT  BITSTREAM DISCLAIMS ALL WARRANTIES WITH REGARD TO THIS SOFTWARE,
COMMENT  INCLUDING ALL IMPLIED WARRANTIES OF MERCHANTABILITY AND FITNESS, IN
COMMENT  NO EVENT SHALL BITSTREAM BE LIABLE FOR ANY SPECIAL, INDIRECT OR
COMMENT  CONSEQUENTIAL DAMAGES OR ANY DAMAGES WHATSOEVER RESULTING FROM LOSS
COMMENT  OF USE, DATA OR PROFITS, WHETHER IN AN ACTION OF CONTRACT,
COMMENT  NEGLIGENCE OR OTHER TORTIOUS ACTION, ARISING OUT OF OR IN
COMMENT  CONNECTION WITH THE USE OR PERFORMANCE OF THIS SOFTWARE.
COMMENT  
COMMENT  
COMMENT Fontware CVTBDF v1.0
FONT -Bitstream-Charter-Bold-I-Normal--17-120-100-100-P-105-ISO8859-1
SIZE 12 100 100
FONTBOUNDINGBOX 20 20 -3 -4
STARTPROPERTIES 22
COMMENT Begin LogicalFontDescription
FONTNAME_REGISTRY ""
FAMILY_NAME "Charter"
FOUNDRY "Bitstream"
WEIGHT_NAME "Bold"
SETWIDTH_NAME "Normal"
SLANT "I"
ADD_STYLE_NAME ""
PIXEL_SIZE 17
POINT_SIZE 120
RESOLUTION_X 100
RESOLUTION_Y 100
SPACING "P"
AVERAGE_WIDTH 105
CHARSET_REGISTRY "ISO8859"
CHARSET_ENCODING "1"
COMMENT END LogicalFontDescription
FONT_DESCENT 4
FONT_ASCENT 16
CAP_HEIGHT 11
X_HEIGHT 8
CHARSET_COLLECTIONS "ASCII ISOLATIN1"
FULL_NAME "Bitstream Charter Black Italic"
COPYRIGHT "Copyright 1987 by Bitstream Inc. Charter Registered trademark of Bitstream Inc."
COMMENT ****** end of font properties
ENDPROPERTIES
CHARS 191
STARTCHAR space
ENCODING 32
SWIDTH 319 0
DWIDTH 5 0
BBX 1 1 0 0
BITMAP
00
ENDCHAR
STARTCHAR exclam
ENCODING 33
SWIDTH 343 0
DWIDTH 6 0
BBX 5 11 0 0
BITMAP
38
38
78
70
70
60
60
00
e0
e0
60
ENDCHAR
STARTCHAR quotedbl
ENCODING 34
SWIDTH 339 0
DWIDTH 7 0
BBX 5 5 1 7
BITMAP
d8
d8
d8
c8
48
ENDCHAR
STARTCHAR numbersign
ENCODING 35
SWIDTH 769 0
DWIDTH 13 0
BBX 11 12 1 0
BITMAP
06c0
04c0
0c80
0880
7fe0
1900
1300
ffc0
3200
2600
6400
6c00
ENDCHAR
STARTCHAR dollar
ENCODING 36
SWIDTH 639 0
DWIDTH 11 0
BBX 10 15 0 -2
BITMAP
0200
0200
0fc0
3ac0
36c0
7400
3e00
3f80
0f80
0980
c980
cb00
fe00
1000
1000
ENDCHAR
STARTCHAR percent
ENCODING 37
SWIDTH 981 0
DWIDTH 16 0
BBX 15 11 1 0
BITMAP
3c18
6630
c660
c6c0
ccbc
cd66
7b66
06c6
0cc6
18cc
3078
ENDCHAR
STARTCHAR ampersand
ENCODING 38
SWIDTH 787 0
DWIDTH 13 0
BBX 12 11 0 0
BITMAP
0f80
19c0
39c0
39c0
3f80
1e70
7f20
e7c0
e3c0
fbe0
3cf0
ENDCHAR
STARTCHAR quoteright
ENCODING 39
SWIDTH 331 0
DWIDTH 5 0
BBX 4 6 1 6
BITMAP
30
70
70
30
60
c0
ENDCHAR
STARTCHAR parenleft
ENCODING 40
SWIDTH 440 0
DWIDTH 7 0
BBX 7 14 1 -2
BITMAP
0e
18
30
70
60
60
e0
c0
c0
c0
c0
c0
60
30
ENDCHAR
STARTCHAR parenright
ENCODING 41
SWIDTH 440 0
DWIDTH 7 0
BBX 7 14 -1 -2
BITMAP
18
0c
06
06
06
06
06
0e
0c
0c
1c
18
30
e0
ENDCHAR
STARTCHAR asterisk
ENCODING 42
SWIDTH 500 0
DWIDTH 8 0
BBX 6 6 2 6
BITMAP
10
30
ec
30
58
50
ENDCHAR
STARTCHAR plus
ENCODING 43
SWIDTH 833 0
DWIDTH 14 0
BBX 9 11 3 0
BITMAP
0800
0800
0800
0800
0800
ff80
0800
0800
0800
0800
0800
ENDCHAR
STARTCHAR comma
ENCODING 44
SWIDTH 322 0
DWIDTH 5 0
BBX 4 6 -1 -3
BITMAP
30
70
70
30
60
c0
ENDCHAR
STARTCHAR hyphen
ENCODING 45
SWIDTH 333 0
DWIDTH 6 0
BBX 5 2 0 3
BITMAP
f8
f8
ENDCHAR
STARTCHAR period
ENCODING 46
SWIDTH 322 0
DWIDTH 5 0
BBX 3 3 0 0
BITMAP
e0
e0
e0
ENDCHAR
STARTCHAR slash
ENCODING 47
SWIDTH 481 0
DWIDTH 8 0
BBX 11 13 -2 -2
BITMAP
0060
00c0
0180
0180
0300
0600
0400
0c00
1800
1000
3000
6000
c000
ENDCHAR
STARTCHAR zero
ENCODING 48
SWIDTH 639 0
DWIDTH 11 0
BBX 10 11 1 0
BITMAP
0f00
3980
71c0
71c0
f1c0
e1c0
e3c0
e380
e380
6700
3c00
ENDCHAR
STARTCHAR one
ENCODING 49
SWIDTH 639 0
DWIDTH 11 0
BBX 7 11 1 0
BITMAP
1e
7e
0e
0c
1c
1c
1c
18
18
38
fe
ENDCHAR
STARTCHAR two
ENCODING 50
SWIDTH 639 0
DWIDTH 11 0
BBX 10 11 0 0
BITMAP
0f80
39c0
39c0
39c0
0180
0380
0700
0cc0
38c0
7f80
ff80
ENDCHAR
STARTCHAR three
ENCODING 51
SWIDTH 639 0
DWIDTH 11 0
BBX 10 11 0 0
BITMAP
0f80
3bc0
31c0
31c0
0380
1e00
1f80
0380
e380
e380
7e00
ENDCHAR
STARTCHAR four
ENCODING 52
SWIDTH 639 0
DWIDTH 11 0
BBX 10 12 0 -1
BITMAP
01c0
0380
0780
0f80
1b80
3380
6300
ffc0
0700
0700
0700
0600
ENDCHAR
STARTCHAR five
ENCODING 53
SWIDTH 639 0
DWIDTH 11 0
BBX 10 11 0 0
BITMAP
3fc0
3fc0
2000
2000
7f00
0780
0380
6380
e300
e700
7c00
ENDCHAR
STARTCHAR six
ENCODING 54
SWIDTH 639 0
DWIDTH 11 0
BBX 10 12 0 0
BITMAP
0180
07c0
1e00
3800
7000
7f80
e3c0
e1c0
e1c0
e180
7380
3e00
ENDCHAR
STARTCHAR seven
ENCODING 55
SWIDTH 639 0
DWIDTH 11 0
BBX 9 12 2 -1
BITMAP
7f80
ff80
c300
c200
0600
0c00
0800
1800
3000
2000
6000
c000
ENDCHAR
STARTCHAR eight
ENCODING 56
SWIDTH 639 0
DWIDTH 11 0
BBX 10 11 0 0
BITMAP
0f80
39c0
31c0
79c0
3f00
1f00
7780
e380
e380
f380
3e00
ENDCHAR
STARTCHAR nine
ENCODING 57
SWIDTH 639 0
DWIDTH 11 0
BBX 10 11 1 0
BITMAP
1f00
7380
61c0
e1c0
e1c0
f1c0
7f80
0700
0e00
b800
6000
ENDCHAR
STARTCHAR colon
ENCODING 58
SWIDTH 387 0
DWIDTH 6 0
BBX 4 8 1 0
BITMAP
70
70
70
00
00
e0
e0
e0
ENDCHAR
STARTCHAR semicolon
ENCODING 59
SWIDTH 387 0
DWIDTH 7 0
BBX 5 11 0 -3
BITMAP
38
38
38
00
00
30
70
70
30
60
c0
ENDCHAR
STARTCHAR less
ENCODING 60
SWIDTH 833 0
DWIDTH 14 0
BBX 10 9 2 1
BITMAP
0040
03c0
0e00
7800
c000
7800
0e00
03c0
0040
ENDCHAR
STARTCHAR equal
ENCODING 61
SWIDTH 833 0
DWIDTH 14 0
BBX 10 4 2 3
BITMAP
ffc0
0000
0000
ffc0
ENDCHAR
STARTCHAR greater
ENCODING 62
SWIDTH 833 0
DWIDTH 14 0
BBX 10 9 2 1
BITMAP
8000
f000
1c00
0780
00c0
0780
1c00
f000
8000
ENDCHAR
STARTCHAR question
ENCODING 63
SWIDTH 519 0
DWIDTH 9 0
BBX 8 11 1 0
BITMAP
7e00
e700
c700
0700
1e00
3800
6000
0000
e000
e000
6000
ENDCHAR
STARTCHAR at
ENCODING 64
SWIDTH 942 0
DWIDTH 16 0
BBX 13 14 2 -2
BITMAP
07c0
1820
6010
47c8
ccc8
88c8
98c8
9890
9990
cee0
4000
6000
3860
0f80
ENDCHAR
STARTCHAR A
ENCODING 65
SWIDTH 688 0
DWIDTH 11 0
BBX 12 11 -1 0
BITMAP
0380
0380
07c0
05c0
0dc0
09c0
1fc0
30c0
20e0
60e0
f1f0
ENDCHAR
STARTCHAR B
ENCODING 66
SWIDTH 694 0
DWIDTH 12 0
BBX 11 11 0 0
BITMAP
3fc0
1ce0
1ce0
18e0
39c0
3f80
39c0
38e0
31c0
71c0
ff80
ENDCHAR
STARTCHAR C
ENCODING 67
SWIDTH 671 0
DWIDTH 11 0
BBX 10 11 1 0
BITMAP
0fc0
38c0
70c0
7000
e000
e000
e000
e000
e180
7180
3f00
ENDCHAR
STARTCHAR D
ENCODING 68
SWIDTH 762 0
DWIDTH 13 0
BBX 12 11 0 0
BITMAP
3fc0
1ce0
1870
1870
3870
3870
3870
30e0
30e0
73c0
ff00
ENDCHAR
STARTCHAR E
ENCODING 69
SWIDTH 639 0
DWIDTH 11 0
BBX 11 11 0 0
BITMAP
3fe0
1c60
1c40
1880
3900
3f00
3900
3800
30c0
70c0
ff80
ENDCHAR
STARTCHAR F
ENCODING 70
SWIDTH 590 0
DWIDTH 10 0
BBX 11 11 0 0
BITMAP
3fe0
1c60
1c40
1c00
3980
3f80
3900
3900
3800
7000
fc00
ENDCHAR
STARTCHAR G
ENCODING 71
SWIDTH 750 0
DWIDTH 12 0
BBX 11 11 1 0
BITMAP
0fe0
3860
7040
7000
e000
e3e0
e1c0
e1c0
f180
7980
3f00
ENDCHAR
STARTCHAR H
ENCODING 72
SWIDTH 813 0
DWIDTH 13 0
BBX 14 11 0 0
BITMAP
3e7c
1c38
1c30
1830
3870
3ff0
3870
3860
3060
70e0
f9f0
ENDCHAR
STARTCHAR I
ENCODING 73
SWIDTH 407 0
DWIDTH 6 0
BBX 7 11 0 0
BITMAP
3e
1c
18
18
38
38
38
30
30
70
f8
ENDCHAR
STARTCHAR J
ENCODING 74
SWIDTH 521 0
DWIDTH 9 0
BBX 10 11 -1 0
BITMAP
0fc0
0380
0300
0700
0700
0700
0700
0700
ce00
cc00
f800
ENDCHAR
STARTCHAR K
ENCODING 75
SWIDTH 708 0
DWIDTH 12 0
BBX 13 11 0 0
BITMAP
3e78
1c60
1cc0
1880
3900
3f00
3b80
3bc0
31c0
71e0
f8f8
ENDCHAR
STARTCHAR L
ENCODING 76
SWIDTH 583 0
DWIDTH 10 0
BBX 9 11 0 0
BITMAP
3e00
1c00
1800
3800
3800
3800
3800
3000
3180
7180
ff00
ENDCHAR
STARTCHAR M
ENCODING 77
SWIDTH 986 0
DWIDTH 16 0
BBX 17 11 0 0
BITMAP
3e0f80
1e1f00
171600
173600
172e00
376e00
334e00
23ce00
238c00
638c00
f33e00
ENDCHAR
STARTCHAR N
ENCODING 78
SWIDTH 771 0
DWIDTH 13 0
BBX 14 11 0 0
BITMAP
3e3c
1e18
1610
1710
1730
33b0
33b0
21a0
21e0
61e0
f0e0
ENDCHAR
STARTCHAR O
ENCODING 79
SWIDTH 780 0
DWIDTH 13 0
BBX 11 11 1 0
BITMAP
0f80
39c0
70e0
70e0
e0e0
e0e0
e0e0
e1c0
e1c0
7380
3e00
ENDCHAR
STARTCHAR P
ENCODING 80
SWIDTH 644 0
DWIDTH 11 0
BBX 11 11 0 0
BITMAP
3fc0
1de0
1ce0
18e0
38e0
39c0
3f80
3800
3000
7000
f800
ENDCHAR
STARTCHAR Q
ENCODING 81
SWIDTH 780 0
DWIDTH 13 0
BBX 11 14 1 -3
BITMAP
0f80
39c0
70e0
70e0
e0e0
e0e0
e0e0
e1c0
e1c0
7380
3e00
0700
03e0
03c0
ENDCHAR
STARTCHAR R
ENCODING 82
SWIDTH 715 0
DWIDTH 12 0
BBX 12 11 0 0
BITMAP
3fc0
1de0
18e0
18e0
39c0
3f00
3b80
3980
31c0
71c0
f8f0
ENDCHAR
STARTCHAR S
ENCODING 83
SWIDTH 593 0
DWIDTH 10 0
BBX 10 11 0 0
BITMAP
1fc0
3980
7180
7000
7c00
3f00
0f80
4380
c380
c700
fc00
ENDCHAR
STARTCHAR T
ENCODING 84
SWIDTH 627 0
DWIDTH 10 0
BBX 10 11 1 0
BITMAP
7fc0
ccc0
dcc0
1c00
1c00
1c00
1800
1800
3800
3800
7c00
ENDCHAR
STARTCHAR U
ENCODING 85
SWIDTH 766 0
DWIDTH 13 0
BBX 12 11 1 0
BITMAP
fcf0
7060
7040
7040
7040
60c0
e0c0
e080
e080
f180
7e00
ENDCHAR
STARTCHAR V
ENCODING 86
SWIDTH 669 0
DWIDTH 11 0
BBX 12 11 0 0
BITMAP
fcf0
7060
70c0
38c0
3980
3900
3b00
3a00
1e00
1c00
1c00
ENDCHAR
STARTCHAR W
ENCODING 87
SWIDTH 981 0
DWIDTH 16 0
BBX 16 11 1 0
BITMAP
f9cf00
71c600
71c400
72cc00
72c800
76d800
74d800
3cf000
38f000
38e000
30e000
ENDCHAR
STARTCHAR X
ENCODING 88
SWIDTH 671 0
DWIDTH 11 0
BBX 13 11 -1 0
BITMAP
3e78
1c30
0e60
0ec0
0780
0700
0f80
1b80
31c0
61c0
f3e0
ENDCHAR
STARTCHAR Y
ENCODING 89
SWIDTH 634 0
DWIDTH 11 0
BBX 12 11 0 0
BITMAP
fcf0
7060
38c0
3980
1f00
1e00
1c00
1c00
1c00
1c00
7e00
ENDCHAR
STARTCHAR Z
ENCODING 90
SWIDTH 611 0
DWIDTH 10 0
BBX 10 11 0 0
BITMAP
3fc0
23c0
6380
0700
0e00
1e00
1c00
3800
7180
f180
ff80
ENDCHAR
STARTCHAR bracketleft
ENCODING 91
SWIDTH 495 0
DWIDTH 9 0
BBX 8 14 1 -2
BITMAP
1f00
3800
3800
3800
3000
3000
7000
7000
7000
7000
6000
e000
e000
fc00
ENDCHAR
STARTCHAR backslash
ENCODING 92
SWIDTH 481 0
DWIDTH 8 0
BBX 9 13 0 -2
BITMAP
c000
6000
2000
3000
1000
1800
0800
0c00
0600
0600
0300
0300
0180
ENDCHAR
STARTCHAR bracketright
ENCODING 93
SWIDTH 495 0
DWIDTH 8 0
BBX 8 14 -1 -2
BITMAP
3f00
0700
0700
0600
0e00
0e00
0e00
0e00
0c00
0c00
1c00
1c00
1c00
fc00
ENDCHAR
STARTCHAR asciicircum
ENCODING 94
SWIDTH 1000 0
DWIDTH 17 0
BBX 10 5 3 7
BITMAP
0c00
1e00
3300
6180
8040
ENDCHAR
STARTCHAR underscore
ENCODING 95
SWIDTH 500 0
DWIDTH 8 0
BBX 8 1 0 -4
BITMAP
ff00
ENDCHAR
STARTCHAR quoteleft
ENCODING 96
SWIDTH 331 0
DWIDTH 6 0
BBX 4 6 2 6
BITMAP
30
60
c0
e0
e0
c0
ENDCHAR
STARTCHAR a
ENCODING 97
SWIDTH 650 0
DWIDTH 11 0
BBX 11 8 0 0
BITMAP
1fc0
31c0
7180
e180
e380
e380
ffa0
73c0
ENDCHAR
STARTCHAR b
ENCODING 98
SWIDTH 627 0
DWIDTH 10 0
BBX 9 13 0 0
BITMAP
3000
f000
7000
7000
6000
6700
7f00
6380
6380
c380
c700
ce00
7800
ENDCHAR
STARTCHAR c
ENCODING 99
SWIDTH 498 0
DWIDTH 8 0
BBX 7 8 0 0
BITMAP
1e
3e
64
e0
e0
e2
7c
38
ENDCHAR
STARTCHAR d
ENCODING 100
SWIDTH 660 0
DWIDTH 11 0
BBX 10 13 0 0
BITMAP
00c0
03c0
00c0
01c0
0180
1f80
3180
7180
e180
e380
e380
7fc0
7180
ENDCHAR
STARTCHAR e
ENCODING 101
SWIDTH 523 0
DWIDTH 9 0
BBX 8 8 0 0
BITMAP
1e00
3700
6e00
f800
e000
e200
7e00
3800
ENDCHAR
STARTCHAR f
ENCODING 102
SWIDTH 373 0
DWIDTH 6 0
BBX 11 17 -3 -4
BITMAP
01c0
0360
0760
0600
0600
1f80
0e00
0e00
0e00
0e00
0c00
0c00
0c00
1800
d800
f000
e000
ENDCHAR
STARTCHAR g
ENCODING 103
SWIDTH 574 0
DWIDTH 9 0
BBX 10 12 0 -4
BITMAP
1e00
3bc0
7300
7300
7600
3c00
1800
3e00
6f00
c300
e300
7c00
ENDCHAR
STARTCHAR h
ENCODING 104
SWIDTH 664 0
DWIDTH 11 0
BBX 11 13 0 0
BITMAP
1c00
7800
1800
3800
3800
3980
3fc0
39c0
71c0
7180
7380
73e0
e1c0
ENDCHAR
STARTCHAR i
ENCODING 105
SWIDTH 361 0
DWIDTH 6 0
BBX 5 13 1 0
BITMAP
38
38
38
30
00
70
f0
70
60
e0
e0
f8
70
ENDCHAR
STARTCHAR j
ENCODING 106
SWIDTH 338 0
DWIDTH 6 0
BBX 9 17 -3 -4
BITMAP
0380
0380
0380
0300
0000
0700
1f00
0700
0700
0700
0600
0e00
0e00
0e00
0c00
c800
f000
ENDCHAR
STARTCHAR k
ENCODING 107
SWIDTH 627 0
DWIDTH 10 0
BBX 10 13 0 0
BITMAP
3800
7800
3800
3000
3000
3180
7380
7500
7c00
6e00
6700
67c0
e380
ENDCHAR
STARTCHAR l
ENCODING 108
SWIDTH 352 0
DWIDTH 6 0
BBX 5 13 1 0
BITMAP
38
f8
38
30
70
70
70
70
e0
e0
e0
f8
70
ENDCHAR
STARTCHAR m
ENCODING 109
SWIDTH 988 0
DWIDTH 16 0
BBX 15 8 1 0
BITMAP
3318
fffc
739c
739c
6318
6338
e71e
e71c
ENDCHAR
STARTCHAR n
ENCODING 110
SWIDTH 669 0
DWIDTH 11 0
BBX 10 8 0 0
BITMAP
3300
ff80
7380
7380
6300
6300
e3c0
e380
ENDCHAR
STARTCHAR o
ENCODING 111
SWIDTH 620 0
DWIDTH 10 0
BBX 9 8 0 0
BITMAP
1e00
7300
6380
e380
e380
e300
6700
3c00
ENDCHAR
STARTCHAR p
ENCODING 112
SWIDTH 637 0
DWIDTH 11 0
BBX 11 12 -1 -4
BITMAP
19c0
7fc0
38e0
38e0
38e0
31c0
31c0
3f00
7000
7000
6000
f800
ENDCHAR
STARTCHAR q
ENCODING 113
SWIDTH 637 0
DWIDTH 11 0
BBX 10 12 0 -4
BITMAP
1fc0
39c0
71c0
e180
e380
e380
7f80
7380
0300
0700
0700
0f80
ENDCHAR
STARTCHAR r
ENCODING 114
SWIDTH 519 0
DWIDTH 9 0
BBX 9 8 0 0
BITMAP
3b80
f780
7b80
7200
7000
7000
6000
e000
ENDCHAR
STARTCHAR s
ENCODING 115
SWIDTH 488 0
DWIDTH 8 0
BBX 7 8 0 0
BITMAP
3c
66
64
78
3c
ce
cc
78
ENDCHAR
STARTCHAR t
ENCODING 116
SWIDTH 414 0
DWIDTH 7 0
BBX 6 11 1 0
BITMAP
10
30
70
fc
60
60
e0
e0
e0
f8
70
ENDCHAR
STARTCHAR u
ENCODING 117
SWIDTH 669 0
DWIDTH 11 0
BBX 11 8 0 0
BITMAP
39c0
f1c0
31c0
3180
7380
7380
7fa0
31c0
ENDCHAR
STARTCHAR v
ENCODING 118
SWIDTH 551 0
DWIDTH 9 0
BBX 9 8 0 0
BITMAP
3180
f380
3180
3100
3300
3600
3c00
3800
ENDCHAR
STARTCHAR w
ENCODING 119
SWIDTH 856 0
DWIDTH 14 0
BBX 14 8 0 0
BITMAP
308c
f19c
338c
33c8
35d8
39f0
39e0
31c0
ENDCHAR
STARTCHAR x
ENCODING 120
SWIDTH 565 0
DWIDTH 9 0
BBX 10 8 -1 0
BITMAP
18c0
79c0
1ec0
0c00
0e00
f600
e7c0
c380
ENDCHAR
STARTCHAR y
ENCODING 121
SWIDTH 535 0
DWIDTH 9 0
BBX 10 12 -1 -4
BITMAP
30c0
79c0
3980
3900
1b00
1a00
1a00
1c00
1c00
0800
d800
e000
ENDCHAR
STARTCHAR z
ENCODING 122
SWIDTH 509 0
DWIDTH 9 0
BBX 9 8 0 0
BITMAP
3f80
4f00
6600
4c00
1b00
3100
7900
fe00
ENDCHAR
STARTCHAR braceleft
ENCODING 123
SWIDTH 500 0
DWIDTH 8 0
BBX 6 14 1 -2
BITMAP
1c
30
30
30
30
30
c0
20
30
30
30
30
30
1c
ENDCHAR
STARTCHAR bar
ENCODING 124
SWIDTH 500 0
DWIDTH 8 0
BBX 1 17 4 -4
BITMAP
80
80
80
80
80
80
80
80
80
80
80
80
80
80
80
80
80
ENDCHAR
STARTCHAR braceright
ENCODING 125
SWIDTH 500 0
DWIDTH 8 0
BBX 6 14 1 -2
BITMAP
e0
30
30
30
30
30
0c
30
30
30
30
30
30
e0
ENDCHAR
STARTCHAR c0126
ENCODING 126
SWIDTH 1000 0
DWIDTH 17 0
BBX 11 2 3 9
BITMAP
3c60
c780
ENDCHAR
STARTCHAR space
ENCODING 160
SWIDTH 319 0
DWIDTH 5 0
BBX 1 1 0 0
BITMAP
00
ENDCHAR
STARTCHAR exclamdown
ENCODING 161
SWIDTH 343 0
DWIDTH 6 0
BBX 5 11 0 0
BITMAP
38
38
38
00
30
30
70
70
f0
f0
e0
ENDCHAR
STARTCHAR cent
ENCODING 162
SWIDTH 639 0
DWIDTH 11 0
BBX 9 13 1 -2
BITMAP
0200
0200
1f80
3d80
7580
e400
e400
e400
e500
7b00
3f00
0800
0800
ENDCHAR
STARTCHAR sterling
ENCODING 163
SWIDTH 639 0
DWIDTH 11 0
BBX 10 11 0 0
BITMAP
0780
0dc0
18c0
1800
3800
7f00
3800
3000
3000
ff80
ff80
ENDCHAR
STARTCHAR currency
ENCODING 164
SWIDTH 606 0
DWIDTH 10 0
BBX 9 9 1 3
BITMAP
8080
5d00
2200
4100
4100
4100
2200
5d00
8080
ENDCHAR
STARTCHAR yen
ENCODING 165
SWIDTH 671 0
DWIDTH 11 0
BBX 12 11 0 0
BITMAP
7cf0
3860
38c0
1c80
7de0
0e00
ffc0
0e00
0e00
0c00
3f00
ENDCHAR
STARTCHAR brokenbar
ENCODING 166
SWIDTH 500 0
DWIDTH 8 0
BBX 1 15 4 -3
BITMAP
80
80
80
80
80
80
00
00
00
80
80
80
80
80
80
ENDCHAR
STARTCHAR section
ENCODING 167
SWIDTH 500 0
DWIDTH 8 0
BBX 9 14 -1 -2
BITMAP
0f80
1880
3880
1c00
0f00
3780
6180
6180
7b00
3e00
0f00
4700
c600
fc00
ENDCHAR
STARTCHAR dieresis
ENCODING 168
SWIDTH 500 0
DWIDTH 8 0
BBX 6 3 2 9
BITMAP
cc
cc
cc
ENDCHAR
STARTCHAR copyright
ENCODING 169
SWIDTH 900 0
DWIDTH 15 0
BBX 13 13 1 -1
BITMAP
0700
18c0
2020
4790
4c90
9808
9808
9808
4c90
4790
2020
18c0
0780
ENDCHAR
STARTCHAR ordfeminine
ENCODING 170
SWIDTH 488 0
DWIDTH 8 0
BBX 8 6 0 6
BITMAP
3e00
6600
c600
c400
cc00
7f00
ENDCHAR
STARTCHAR guillemotleft
ENCODING 171
SWIDTH 458 0
DWIDTH 8 0
BBX 8 7 0 1
BITMAP
1100
3300
6e00
c800
ec00
6600
2200
ENDCHAR
STARTCHAR logicalnot
ENCODING 172
SWIDTH 833 0
DWIDTH 14 0
BBX 10 4 2 3
BITMAP
ffc0
0040
0040
0040
ENDCHAR
STARTCHAR hyphen
ENCODING 173
SWIDTH 333 0
DWIDTH 6 0
BBX 5 2 0 3
BITMAP
f8
f8
ENDCHAR
STARTCHAR registered
ENCODING 174
SWIDTH 900 0
DWIDTH 15 0
BBX 13 13 1 -1
BITMAP
0f80
1060
2010
5f90
4cc8
8cc8
8f08
8d88
4cc8
5ef0
2010
1060
0f80
ENDCHAR
STARTCHAR macron
ENCODING 175
SWIDTH 500 0
DWIDTH 8 0
BBX 6 1 2 11
BITMAP
fc
ENDCHAR
STARTCHAR degree
ENCODING 176
SWIDTH 329 0
DWIDTH 5 0
BBX 5 5 0 7
BITMAP
70
88
88
88
70
ENDCHAR
STARTCHAR plusminus
ENCODING 177
SWIDTH 833 0
DWIDTH 14 0
BBX 9 10 3 0
BITMAP
0800
0800
0800
ff80
0800
0800
0800
0000
0000
ff80
ENDCHAR
STARTCHAR twosuperior
ENCODING 178
SWIDTH 422 0
DWIDTH 7 0
BBX 6 7 0 4
BITMAP
38
6c
6c
0c
10
24
fc
ENDCHAR
STARTCHAR threesuperior
ENCODING 179
SWIDTH 422 0
DWIDTH 7 0
BBX 6 7 0 4
BITMAP
38
6c
08
38
0c
d8
70
ENDCHAR
STARTCHAR acute
ENCODING 180
SWIDTH 500 0
DWIDTH 9 0
BBX 5 3 4 10
BITMAP
38
60
c0
ENDCHAR
STARTCHAR mu
ENCODING 181
SWIDTH 578 0
DWIDTH 9 0
BBX 9 10 -1 -3
BITMAP
3300
3300
2300
2200
6200
6680
5b80
c000
c000
8000
ENDCHAR
STARTCHAR paragraph
ENCODING 182
SWIDTH 500 0
DWIDTH 8 0
BBX 8 12 0 -1
BITMAP
3f00
7a00
fa00
fa00
fa00
7a00
3a00
0200
0200
0200
0200
0200
ENDCHAR
STARTCHAR periodcentered
ENCODING 183
SWIDTH 322 0
DWIDTH 5 0
BBX 3 3 1 4
BITMAP
e0
e0
e0
ENDCHAR
STARTCHAR cedilla
ENCODING 184
SWIDTH 500 0
DWIDTH 8 0
BBX 4 4 1 -4
BITMAP
40
70
30
e0
ENDCHAR
STARTCHAR onesuperior
ENCODING 185
SWIDTH 422 0
DWIDTH 7 0
BBX 4 7 1 4
BITMAP
30
70
30
20
20
60
f0
ENDCHAR
STARTCHAR ordmasculine
ENCODING 186
SWIDTH 465 0
DWIDTH 8 0
BBX 7 6 0 6
BITMAP
3c
66
c6
c6
cc
78
ENDCHAR
STARTCHAR guillemotright
ENCODING 187
SWIDTH 458 0
DWIDTH 8 0
BBX 7 7 0 1
BITMAP
48
6c
66
32
6e
c8
90
ENDCHAR
STARTCHAR onequarter
ENCODING 188
SWIDTH 972 0
DWIDTH 16 0
BBX 15 12 1 0
BITMAP
3000
7060
3040
2080
2080
610c
f31c
022c
0448
04fe
0818
1818
ENDCHAR
STARTCHAR onehalf
ENCODING 189
SWIDTH 972 0
DWIDTH 16 0
BBX 14 12 1 0
BITMAP
3000
7060
3040
2080
2080
6138
f36c
026c
040c
0410
0824
18fc
ENDCHAR
STARTCHAR threequarters
ENCODING 190
SWIDTH 972 0
DWIDTH 17 0
BBX 17 12 0 0
BITMAP
380000
6c3000
082000
384000
0c4000
d88300
718700
010b00
021200
023f80
040600
0c0600
ENDCHAR
STARTCHAR questiondown
ENCODING 191
SWIDTH 519 0
DWIDTH 9 0
BBX 8 11 0 0
BITMAP
0600
0700
0600
0000
0600
1c00
7800
e000
e300
e700
7e00
ENDCHAR
STARTCHAR Agrave
ENCODING 192
SWIDTH 688 0
DWIDTH 11 0
BBX 12 16 -1 0
BITMAP
0300
0180
0180
0000
0000
0380
0380
07c0
05c0
0dc0
09c0
1fc0
30c0
20e0
60e0
f1f0
ENDCHAR
STARTCHAR Aacute
ENCODING 193
SWIDTH 688 0
DWIDTH 11 0
BBX 12 16 -1 0
BITMAP
0070
00c0
0180
0000
0000
0380
0380
07c0
05c0
0dc0
09c0
1fc0
30c0
20e0
60e0
f1f0
ENDCHAR
STARTCHAR Acircumflex
ENCODING 194
SWIDTH 688 0
DWIDTH 11 0
BBX 12 16 -1 0
BITMAP
0180
0380
06c0
0000
0000
0380
0380
07c0
05c0
0dc0
09c0
1fc0
30c0
20e0
60e0
f1f0
ENDCHAR
STARTCHAR Atilde
ENCODING 195
SWIDTH 688 0
DWIDTH 11 0
BBX 12 16 -1 0
BITMAP
0320
07e0
04c0
0000
0000
0380
0380
07c0
05c0
0dc0
09c0
1fc0
30c0
20e0
60e0
f1f0
ENDCHAR
STARTCHAR Adieresis
ENCODING 196
SWIDTH 688 0
DWIDTH 11 0
BBX 12 15 -1 0
BITMAP
0660
0660
0660
0000
0380
0380
07c0
05c0
0dc0
09c0
1fc0
30c0
20e0
60e0
f1f0
ENDCHAR
STARTCHAR Aring
ENCODING 197
SWIDTH 688 0
DWIDTH 11 0
BBX 12 16 -1 0
BITMAP
0180
0240
0240
0180
0000
0380
0380
07c0
05c0
0dc0
09c0
1fc0
30c0
20e0
60e0
f1f0
ENDCHAR
STARTCHAR AE
ENCODING 198
SWIDTH 951 0
DWIDTH 15 0
BBX 17 11 -2 0
BITMAP
03ff80
00f180
017100
037200
067600
047c00
0fe400
18e000
30e300
20e300
f1fe00
ENDCHAR
STARTCHAR Ccedilla
ENCODING 199
SWIDTH 671 0
DWIDTH 11 0
BBX 10 15 1 -4
BITMAP
0fc0
38c0
70c0
7000
e000
e000
e000
e000
e180
7180
3f00
0800
0e00
0600
1c00
ENDCHAR
STARTCHAR Egrave
ENCODING 200
SWIDTH 639 0
DWIDTH 11 0
BBX 11 16 0 0
BITMAP
0600
0300
0300
0000
0000
3fe0
1c60
1c40
1880
3900
3f00
3900
3800
30c0
70c0
ff80
ENDCHAR
STARTCHAR Eacute
ENCODING 201
SWIDTH 639 0
DWIDTH 11 0
BBX 11 16 0 0
BITMAP
00e0
0180
0300
0000
0000
3fe0
1c60
1c40
1880
3900
3f00
3900
3800
30c0
70c0
ff80
ENDCHAR
STARTCHAR Ecircumflex
ENCODING 202
SWIDTH 639 0
DWIDTH 11 0
BBX 11 16 0 0
BITMAP
0300
0700
0d80
0000
0000
3fe0
1c60
1c40
1880
3900
3f00
3900
3800
30c0
70c0
ff80
ENDCHAR
STARTCHAR Edieresis
ENCODING 203
SWIDTH 639 0
DWIDTH 11 0
BBX 11 15 0 0
BITMAP
0cc0
0cc0
0cc0
0000
3fe0
1c60
1c40
1880
3900
3f00
3900
3800
30c0
70c0
ff80
ENDCHAR
STARTCHAR Igrave
ENCODING 204
SWIDTH 407 0
DWIDTH 6 0
BBX 7 16 0 0
BITMAP
18
0c
0c
00
00
3e
1c
18
18
38
38
38
30
30
70
f8
ENDCHAR
STARTCHAR Iacute
ENCODING 205
SWIDTH 407 0
DWIDTH 6 0
BBX 9 16 0 0
BITMAP
0380
0600
0c00
0000
0000
3e00
1c00
1800
1800
3800
3800
3800
3000
3000
7000
f800
ENDCHAR
STARTCHAR Icircumflex
ENCODING 206
SWIDTH 407 0
DWIDTH 6 0
BBX 7 16 0 0
BITMAP
0c
1c
36
00
00
3e
1c
18
18
38
38
38
30
30
70
f8
ENDCHAR
STARTCHAR Idieresis
ENCODING 207
SWIDTH 407 0
DWIDTH 6 0
BBX 8 15 0 0
BITMAP
3300
3300
3300
0000
3e00
1c00
1800
1800
3800
3800
3800
3000
3000
7000
f800
ENDCHAR
STARTCHAR Eth
ENCODING 208
SWIDTH 762 0
DWIDTH 13 0
BBX 12 11 0 0
BITMAP
3fc0
1ce0
1870
1870
3870
7e70
3870
38e0
30e0
71c0
ff00
ENDCHAR
STARTCHAR Ntilde
ENCODING 209
SWIDTH 771 0
DWIDTH 13 0
BBX 14 16 0 0
BITMAP
0320
07e0
04c0
0000
0000
3e3c
1e18
1610
1710
1730
33b0
33b0
21a0
21e0
61e0
f0e0
ENDCHAR
STARTCHAR Ograve
ENCODING 210
SWIDTH 780 0
DWIDTH 13 0
BBX 11 16 1 0
BITMAP
0600
0300
0300
0000
0000
0f80
39c0
70e0
70e0
e0e0
e0e0
e0e0
e1c0
e1c0
7380
3e00
ENDCHAR
STARTCHAR Oacute
ENCODING 211
SWIDTH 780 0
DWIDTH 13 0
BBX 11 16 1 0
BITMAP
00e0
0180
0300
0000
0000
0f80
39c0
70e0
70e0
e0e0
e0e0
e0e0
e1c0
e1c0
7380
3e00
ENDCHAR
STARTCHAR Ocircumflex
ENCODING 212
SWIDTH 780 0
DWIDTH 13 0
BBX 11 16 1 0
BITMAP
0300
0700
0d80
0000
0000
0f80
39c0
70e0
70e0
e0e0
e0e0
e0e0
e1c0
e1c0
7380
3e00
ENDCHAR
STARTCHAR Otilde
ENCODING 213
SWIDTH 780 0
DWIDTH 13 0
BBX 11 16 1 0
BITMAP
0640
0fc0
0980
0000
0000
0f80
39c0
70e0
70e0
e0e0
e0e0
e0e0
e1c0
e1c0
7380
3e00
ENDCHAR
STARTCHAR Odieresis
ENCODING 214
SWIDTH 780 0
DWIDTH 13 0
BBX 11 15 1 0
BITMAP
0cc0
0cc0
0cc0
0000
0f80
39c0
70e0
70e0
e0e0
e0e0
e0e0
e1c0
e1c0
7380
3e00
ENDCHAR
STARTCHAR multiply
ENCODING 215
SWIDTH 833 0
DWIDTH 14 0
BBX 9 10 3 0
BITMAP
8080
c180
6300
3600
1c00
1c00
3600
6300
c180
8080
ENDCHAR
STARTCHAR Oslash
ENCODING 216
SWIDTH 780 0
DWIDTH 13 0
BBX 11 14 1 -1
BITMAP
0040
0040
0f80
39c0
71e0
72e0
e2e0
e4e0
e8e0
e9c0
f1c0
7380
7e00
4000
ENDCHAR
STARTCHAR Ugrave
ENCODING 217
SWIDTH 766 0
DWIDTH 13 0
BBX 12 16 1 0
BITMAP
0c00
0600
0600
0000
0000
fcf0
7060
7040
7040
7040
60c0
e0c0
e080
e080
f180
7e00
ENDCHAR
STARTCHAR Uacute
ENCODING 218
SWIDTH 766 0
DWIDTH 13 0
BBX 12 16 1 0
BITMAP
01c0
0300
0600
0000
0000
fcf0
7060
7040
7040
7040
60c0
e0c0
e080
e080
f180
7e00
ENDCHAR
STARTCHAR Ucircumflex
ENCODING 219
SWIDTH 766 0
DWIDTH 13 0
BBX 12 16 1 0
BITMAP
0600
0e00
1b00
0000
0000
fcf0
7060
7040
7040
7040
60c0
e0c0
e080
e080
f180
7e00
ENDCHAR
STARTCHAR Udieresis
ENCODING 220
SWIDTH 766 0
DWIDTH 13 0
BBX 12 15 1 0
BITMAP
1980
1980
1980
0000
fcf0
7060
7040
7040
7040
60c0
e0c0
e080
e080
f180
7e00
ENDCHAR
STARTCHAR Yacute
ENCODING 221
SWIDTH 634 0
DWIDTH 11 0
BBX 12 16 0 0
BITMAP
01c0
0300
0600
0000
0000
fcf0
7060
38c0
3980
1f00
1e00
1c00
1c00
1c00
1c00
7e00
ENDCHAR
STARTCHAR Thorn
ENCODING 222
SWIDTH 644 0
DWIDTH 11 0
BBX 11 11 0 0
BITMAP
3e00
1c00
1fc0
1ce0
18e0
38e0
38e0
39c0
3f80
7000
fc00
ENDCHAR
STARTCHAR germandbls
ENCODING 223
SWIDTH 697 0
DWIDTH 12 0
BBX 14 17 -3 -4
BITMAP
00f8
039c
031c
071c
073c
0670
0670
0e78
0e3c
0e1c
0fdc
0cdc
0cf0
0c00
d800
f000
6000
ENDCHAR
STARTCHAR agrave
ENCODING 224
SWIDTH 650 0
DWIDTH 11 0
BBX 11 13 0 0
BITMAP
0c00
0600
0600
0000
0000
1fc0
31c0
7180
e180
e380
e380
ffa0
73c0
ENDCHAR
STARTCHAR aacute
ENCODING 225
SWIDTH 650 0
DWIDTH 11 0
BBX 11 13 0 0
BITMAP
01c0
0300
0600
0000
0000
1fc0
31c0
7180
e180
e380
e380
ffa0
73c0
ENDCHAR
STARTCHAR acircumflex
ENCODING 226
SWIDTH 650 0
DWIDTH 11 0
BBX 11 13 0 0
BITMAP
0600
0e00
1b00
0000
0000
1fc0
31c0
7180
e180
e380
e380
ffa0
73c0
ENDCHAR
STARTCHAR atilde
ENCODING 227
SWIDTH 650 0
DWIDTH 11 0
BBX 11 13 0 0
BITMAP
0c80
1f80
1300
0000
0000
1fc0
31c0
7180
e180
e380
e380
ffa0
73c0
ENDCHAR
STARTCHAR adieresis
ENCODING 228
SWIDTH 650 0
DWIDTH 11 0
BBX 11 12 0 0
BITMAP
1980
1980
1980
0000
1fc0
31c0
7180
e180
e380
e380
ffa0
73c0
ENDCHAR
STARTCHAR aring
ENCODING 229
SWIDTH 650 0
DWIDTH 11 0
BBX 11 13 0 0
BITMAP
0600
0900
0900
0600
0000
1fc0
31c0
7180
e180
e380
e380
ffa0
73c0
ENDCHAR
STARTCHAR ae
ENCODING 230
SWIDTH 796 0
DWIDTH 13 0
BBX 12 8 0 0
BITMAP
1de0
7770
7670
1fc0
6600
e600
e620
7bc0
ENDCHAR
STARTCHAR ccedilla
ENCODING 231
SWIDTH 498 0
DWIDTH 8 0
BBX 7 12 0 -4
BITMAP
1e
3e
64
e0
e0
e2
7c
38
20
38
18
70
ENDCHAR
STARTCHAR egrave
ENCODING 232
SWIDTH 523 0
DWIDTH 9 0
BBX 8 13 0 0
BITMAP
1800
0c00
0c00
0000
0000
1e00
3700
6e00
f800
e000
e200
7e00
3800
ENDCHAR
STARTCHAR eacute
ENCODING 233
SWIDTH 523 0
DWIDTH 9 0
BBX 9 13 0 0
BITMAP
0380
0600
0c00
0000
0000
1e00
3700
6e00
f800
e000
e200
7e00
3800
ENDCHAR
STARTCHAR ecircumflex
ENCODING 234
SWIDTH 523 0
DWIDTH 9 0
BBX 8 13 0 0
BITMAP
0c00
1c00
3600
0000
0000
1e00
3700
6e00
f800
e000
e200
7e00
3800
ENDCHAR
STARTCHAR edieresis
ENCODING 235
SWIDTH 523 0
DWIDTH 9 0
BBX 8 12 0 0
BITMAP
3300
3300
3300
0000
1e00
3700
6e00
f800
e000
e200
7e00
3800
ENDCHAR
STARTCHAR igrave
ENCODING 236
SWIDTH 361 0
DWIDTH 6 0
BBX 5 13 1 0
BITMAP
c0
60
60
00
00
70
f0
60
60
e0
e0
f8
70
ENDCHAR
STARTCHAR iacute
ENCODING 237
SWIDTH 361 0
DWIDTH 6 0
BBX 6 13 1 0
BITMAP
1c
30
60
00
00
70
f0
60
60
e0
e0
f8
70
ENDCHAR
STARTCHAR icircumflex
ENCODING 238
SWIDTH 361 0
DWIDTH 6 0
BBX 6 13 0 0
BITMAP
30
70
d8
00
00
38
78
30
30
70
70
7c
38
ENDCHAR
STARTCHAR idieresis
ENCODING 239
SWIDTH 361 0
DWIDTH 6 0
BBX 6 12 0 0
BITMAP
cc
cc
cc
00
38
78
30
30
70
70
7c
38
ENDCHAR
STARTCHAR eth
ENCODING 240
SWIDTH 645 0
DWIDTH 11 0
BBX 10 13 0 0
BITMAP
0e00
1fc0
0700
1b80
0380
1fc0
71c0
71c0
e1c0
e1c0
e180
6300
3e00
ENDCHAR
STARTCHAR ntilde
ENCODING 241
SWIDTH 669 0
DWIDTH 11 0
BBX 10 13 0 0
BITMAP
0c80
1f80
1300
0000
0000
3300
ff80
7380
7380
6300
6300
e3c0
e380
ENDCHAR
STARTCHAR ograve
ENCODING 242
SWIDTH 620 0
DWIDTH 10 0
BBX 9 13 0 0
BITMAP
0c00
0600
0600
0000
0000
1e00
7300
6380
e380
e380
e300
6700
3c00
ENDCHAR
STARTCHAR oacute
ENCODING 243
SWIDTH 620 0
DWIDTH 10 0
BBX 10 13 0 0
BITMAP
01c0
0300
0600
0000
0000
1e00
7300
6380
e380
e380
e300
6700
3c00
ENDCHAR
STARTCHAR ocircumflex
ENCODING 244
SWIDTH 620 0
DWIDTH 10 0
BBX 9 13 0 0
BITMAP
0600
0e00
1b00
0000
0000
1e00
7300
6380
e380
e380
e300
6700
3c00
ENDCHAR
STARTCHAR otilde
ENCODING 245
SWIDTH 620 0
DWIDTH 10 0
BBX 9 13 0 0
BITMAP
0c80
1f80
1300
0000
0000
1e00
7300
6380
e380
e380
e300
6700
3c00
ENDCHAR
STARTCHAR odieresis
ENCODING 246
SWIDTH 620 0
DWIDTH 10 0
BBX 9 12 0 0
BITMAP
1980
1980
1980
0000
1e00
7300
6380
e380
e380
e300
6700
3c00
ENDCHAR
STARTCHAR divide
ENCODING 247
SWIDTH 833 0
DWIDTH 14 0
BBX 10 7 2 2
BITMAP
0c00
0c00
0000
ffc0
0000
0c00
0c00
ENDCHAR
STARTCHAR oslash
ENCODING 248
SWIDTH 620 0
DWIDTH 10 0
BBX 9 11 0 -1
BITMAP
0100
0100
1e00
3300
6780
eb80
eb80
f300
6600
3c00
4000
ENDCHAR
STARTCHAR ugrave
ENCODING 249
SWIDTH 669 0
DWIDTH 11 0
BBX 11 13 0 0
BITMAP
0c00
0600
0600
0000
0000
39c0
f1c0
31c0
3180
7380
7380
7fa0
31c0
ENDCHAR
STARTCHAR uacute
ENCODING 250
SWIDTH 669 0
DWIDTH 11 0
BBX 11 13 0 0
BITMAP
01c0
0300
0600
0000
0000
39c0
f1c0
31c0
3180
7380
7380
7fa0
31c0
ENDCHAR
STARTCHAR ucircumflex
ENCODING 251
SWIDTH 669 0
DWIDTH 11 0
BBX 11 13 0 0
BITMAP
0600
0e00
1b00
0000
0000
39c0
f1c0
31c0
3180
7380
7380
7fa0
31c0
ENDCHAR
STARTCHAR udieresis
ENCODING 252
SWIDTH 669 0
DWIDTH 11 0
BBX 11 12 0 0
BITMAP
1980
1980
1980
0000
39c0
f1c0
31c0
3180
7380
7380
7fa0
31c0
ENDCHAR
STARTCHAR yacute
ENCODING 253
SWIDTH 535 0
DWIDTH 9 0
BBX 10 17 -1 -4
BITMAP
01c0
0300
0600
0000
0000
30c0
79c0
3980
3900
1b00
1a00
1a00
1c00
1c00
0800
d800
e000
ENDCHAR
STARTCHAR thorn
ENCODING 254
SWIDTH 637 0
DWIDTH 11 0
BBX 11 17 -1 -4
BITMAP
0c00
3c00
1c00
1c00
1800
1fc0
18e0
38e0
38e0
30e0
31c0
3380
3f00
7000
7000
6000
f800
ENDCHAR
STARTCHAR ydieresis
ENCODING 255
SWIDTH 535 0
DWIDTH 9 0
BBX 10 16 -1 -4
BITMAP
1980
1980
1980
0000
30c0
79c0
3980
3900
1b00
1a00
1a00
1c00
1c00
0800
d800
e000
ENDCHAR
ENDFONT
