STARTFONT 2.1
COMMENT  
COMMENT  Copyright 1988 Bitstream, Inc., Cambridge, Massachusetts, USA
COMMENT  Bitstream and Charter are registered trademarks of Bitstream, Inc.
COMMENT  
COMMENT  The names "Bitstream" and "Charter" are registered trademarks of
COMMENT  Bitstream, Inc.  Permission to use these trademarks is hereby
COMMENT  granted only in association with the images described in this file.
COMMENT  
COMMENT  Permission to use, copy, modify, and distribute this software and
COMMENT  its documentation for any purpose and without fee is hereby
COMMENT  granted, provided that the above copyright notice appear in all
COMMENT  copies and that both that copyright notice and this permission
COMMENT  notice appear in supporting documentation, and that the name of
COMMENT  Bitstream not be used in advertising or publicity pertaining to
COMMENT  distribution of the software without specific, written prior
COMMENT  permission.  Bitstream makes no representations about the
COMMENT  suitability of this software for any purpose.  It is provided "as
COMMENT  is" without express or implied warranty.
COMMENT  
COMMENT  BITSTREAM DISCLAIMS ALL WARRANTIES WITH REGARD TO THIS SOFTWARE,
COMMENT  INCLUDING ALL IMPLIED WARRANTIES OF MERCHANTABILITY AND FITNESS, IN
COMMENT  NO EVENT SHALL BITSTREAM BE LIABLE FOR ANY SPECIAL, INDIRECT OR
COMMENT  CONSEQUENTIAL DAMAGES OR ANY DAMAGES WHATSOEVER RESULTING FROM LOSS
COMMENT  OF USE, DATA OR PROFITS, WHETHER IN AN ACTION OF CONTRACT,
COMMENT  NEGLIGENCE OR OTHER TORTIOUS ACTION, ARISING OUT OF OR IN
COMMENT  CONNECTION WITH THE USE OR PERFORMANCE OF THIS SOFTWARE.
COMMENT  
COMMENT  
COMMENT Fontware CVTBDF v1.0
FONT -Bitstream-Charter-Bold-R-Normal--33-240-100-100-P-206-ISO8859-1
SIZE 24 100 100
FONTBOUNDINGBOX 38 40 -4 -8
STARTPROPERTIES 22
COMMENT Begin LogicalFontDescription
FONTNAME_REGISTRY ""
FAMILY_NAME "Charter"
FOUNDRY "Bitstream"
WEIGHT_NAME "Bold"
SETWIDTH_NAME "Normal"
SLANT "R"
ADD_STYLE_NAME ""
PIXEL_SIZE 33
POINT_SIZE 240
RESOLUTION_X 100
RESOLUTION_Y 100
SPACING "P"
AVERAGE_WIDTH 206
CHARSET_REGISTRY "ISO8859"
CHARSET_ENCODING "1"
COMMENT END LogicalFontDescription
FONT_DESCENT 8
FONT_ASCENT 32
CAP_HEIGHT 22
X_HEIGHT 16
CHARSET_COLLECTIONS "ASCII ISOLATIN1"
FULL_NAME "Bitstream Charter Black"
COPYRIGHT "Copyright 1987 by Bitstream Inc. Charter Registered trademark of Bitstream Inc."
COMMENT ****** end of font properties
ENDPROPERTIES
CHARS 191
STARTCHAR space
ENCODING 32
SWIDTH 322 0
DWIDTH 11 0
BBX 1 1 0 0
BITMAP
00
ENDCHAR
STARTCHAR exclam
ENCODING 33
SWIDTH 343 0
DWIDTH 11 0
BBX 6 22 2 0
BITMAP
78
fc
fc
fc
fc
fc
fc
78
78
78
78
78
30
30
30
00
78
fc
fc
fc
fc
78
ENDCHAR
STARTCHAR quotedbl
ENCODING 34
SWIDTH 339 0
DWIDTH 11 0
BBX 9 10 1 13
BITMAP
e380
e380
e380
e380
e380
6100
4100
4100
4100
4100
ENDCHAR
STARTCHAR numbersign
ENCODING 35
SWIDTH 769 0
DWIDTH 26 0
BBX 22 24 2 -1
BITMAP
003870
003870
0070e0
0070e0
0070c0
00e1c0
00e1c0
3ffffc
3ffffc
3ffffc
01c300
038700
038700
030e00
fffff8
fffff8
fffff8
0e1c00
0e1c00
0e3800
1c3800
1c3800
387000
387000
ENDCHAR
STARTCHAR dollar
ENCODING 36
SWIDTH 644 0
DWIDTH 21 0
BBX 18 27 2 -3
BITMAP
018000
018000
07fc00
3fff00
7d8f00
798700
f98700
f98700
f98700
ff8000
ffc000
7ff800
3ffe00
1fff00
07ff80
01ffc0
01bfc0
e18fc0
e18fc0
e18fc0
e18f80
f1bf00
fffe00
3ff000
018000
018000
018000
ENDCHAR
STARTCHAR percent
ENCODING 37
SWIDTH 972 0
DWIDTH 32 0
BBX 29 23 2 0
BITMAP
0f000e00
3fc00c00
79e01800
70e03800
f0f03000
f0f07000
f0f0e000
f0f0c000
f0f1c000
f0f38780
70e31fe0
79e73cf0
3fc63870
0f0c7878
001c7878
00187878
00387878
00707878
00607878
00e03870
01c03cf0
01801fe0
03800780
ENDCHAR
STARTCHAR ampersand
ENCODING 38
SWIDTH 822 0
DWIDTH 27 0
BBX 25 22 1 0
BITMAP
01fc0000
0fff0000
1f8f8000
3f07c000
3f07c000
3f07c000
3f87c000
3fcf8000
1fef8000
0ffe3f80
07f83f80
0ffc1c00
3efe1c00
7c7f1800
fc3fb800
fc1ff000
fe0fe000
fe07f000
7f83f800
7ffffc00
3ffc7f80
0ff87f80
ENDCHAR
STARTCHAR quoteright
ENCODING 39
SWIDTH 331 0
DWIDTH 11 0
BBX 7 11 2 11
BITMAP
3c
7c
7e
7e
3e
0e
0e
1c
38
f0
e0
ENDCHAR
STARTCHAR parenleft
ENCODING 40
SWIDTH 440 0
DWIDTH 15 0
BBX 11 29 3 -5
BITMAP
01e0
07e0
0f80
1f00
3e00
3c00
7c00
7c00
7800
f800
f800
f800
f800
f800
f800
f800
f800
f800
f800
f800
7800
7c00
7c00
3c00
3e00
1f00
0f80
07e0
01e0
ENDCHAR
STARTCHAR parenright
ENCODING 41
SWIDTH 440 0
DWIDTH 15 0
BBX 11 29 1 -5
BITMAP
f000
fc00
3e00
1f00
0f80
0780
07c0
07c0
03c0
03e0
03e0
03e0
03e0
03e0
03e0
03e0
03e0
03e0
03e0
03e0
03c0
07c0
07c0
0780
0f80
1f00
3e00
fc00
f000
ENDCHAR
STARTCHAR asterisk
ENCODING 42
SWIDTH 500 0
DWIDTH 17 0
BBX 14 13 1 11
BITMAP
0200
0300
0780
0300
7338
fb7c
7cf8
0000
0780
0dc0
3cf0
1ce0
1860
ENDCHAR
STARTCHAR plus
ENCODING 43
SWIDTH 833 0
DWIDTH 28 0
BBX 19 19 5 0
BITMAP
00e000
00e000
00e000
00e000
00e000
00e000
00e000
00e000
ffffe0
ffffe0
ffffe0
00e000
00e000
00e000
00e000
00e000
00e000
00e000
00e000
ENDCHAR
STARTCHAR comma
ENCODING 44
SWIDTH 322 0
DWIDTH 10 0
BBX 7 11 1 -6
BITMAP
3c
7c
7e
7e
3e
0e
0e
1c
38
f0
c0
ENDCHAR
STARTCHAR hyphen
ENCODING 45
SWIDTH 333 0
DWIDTH 11 0
BBX 9 4 1 6
BITMAP
ff80
ff80
ff80
ff80
ENDCHAR
STARTCHAR period
ENCODING 46
SWIDTH 322 0
DWIDTH 10 0
BBX 6 6 2 0
BITMAP
78
fc
fc
fc
fc
78
ENDCHAR
STARTCHAR slash
ENCODING 47
SWIDTH 500 0
DWIDTH 17 0
BBX 18 25 -1 -3
BITMAP
0001c0
000380
000780
000700
000e00
000e00
001c00
003c00
003800
007000
007000
00e000
01e000
01c000
038000
038000
070000
0f0000
0e0000
1c0000
1c0000
380000
380000
700000
e00000
ENDCHAR
STARTCHAR zero
ENCODING 48
SWIDTH 644 0
DWIDTH 21 0
BBX 18 22 2 0
BITMAP
03f000
0ffc00
1f3e00
3e1f00
7e1f80
7c0f80
7c0f80
fc0fc0
fc0fc0
fc0fc0
fc0fc0
fc0fc0
fc0fc0
fc0fc0
fc0fc0
7c0f80
7c0f80
7e1f80
3e1f00
1f3e00
0ffc00
03f000
ENDCHAR
STARTCHAR one
ENCODING 49
SWIDTH 644 0
DWIDTH 21 0
BBX 13 22 4 0
BITMAP
03c0
0fc0
7fc0
ffc0
f7c0
07c0
07c0
07c0
07c0
07c0
07c0
07c0
07c0
07c0
07c0
07c0
07c0
07c0
07c0
07c0
7ff8
7ff8
ENDCHAR
STARTCHAR two
ENCODING 50
SWIDTH 644 0
DWIDTH 21 0
BBX 17 22 2 0
BITMAP
0ff000
3ffc00
7cfe00
fc7e00
fc3f00
fc3f00
fc3f00
783f00
003f00
007e00
007e00
00fc00
00f800
01f000
03c000
078380
0f0380
3c0380
7fff80
ffff80
ffff80
ffff80
ENDCHAR
STARTCHAR three
ENCODING 51
SWIDTH 644 0
DWIDTH 21 0
BBX 18 22 2 0
BITMAP
07f800
3ffe00
7c7f00
7c3f80
7c1f80
7c1f80
7c1f80
3c1f80
001f00
007e00
07f000
07fe00
003f80
001f80
000fc0
780fc0
f80fc0
f80fc0
fc1f80
7c3f00
7ffe00
0ff800
ENDCHAR
STARTCHAR four
ENCODING 52
SWIDTH 644 0
DWIDTH 21 0
BBX 19 23 1 -1
BITMAP
003e00
007e00
007e00
00fe00
01fe00
03fe00
03be00
073e00
0f3e00
1e3e00
1c3e00
383e00
783e00
f03e00
ffffe0
ffffe0
003e00
003e00
003e00
003e00
003e00
003e00
003e00
ENDCHAR
STARTCHAR five
ENCODING 53
SWIDTH 644 0
DWIDTH 21 0
BBX 18 22 2 0
BITMAP
7fff00
7fff00
7fff00
7fff00
700000
700000
700000
700000
73f800
7ffe00
7fff80
407f80
001fc0
000fc0
000fc0
700fc0
f80fc0
f81f80
f81f80
f87f00
7ffc00
1ff000
ENDCHAR
STARTCHAR six
ENCODING 54
SWIDTH 644 0
DWIDTH 21 0
BBX 18 22 2 0
BITMAP
007e00
03fe00
07e000
0f8000
1f0000
3e0000
7e0000
7cf800
fffe00
ffff00
fc3f80
fc1f80
fc0fc0
fc0fc0
fc0fc0
fc0fc0
7c0fc0
7e0f80
3e1f80
3f1f00
0ffe00
03f800
ENDCHAR
STARTCHAR seven
ENCODING 55
SWIDTH 644 0
DWIDTH 21 0
BBX 18 23 2 -1
BITMAP
ffffc0
ffffc0
ffffc0
ffffc0
ffff80
e00780
e00f00
e00e00
001e00
001c00
003800
007800
007000
00f000
01e000
01c000
03c000
078000
078000
0f0000
1e0000
1e0000
3e0000
ENDCHAR
STARTCHAR eight
ENCODING 56
SWIDTH 644 0
DWIDTH 21 0
BBX 18 22 2 0
BITMAP
03f800
0ffe00
1f3f00
3e1f80
7e1f80
7e0f80
7e0f80
7f0f00
3fdf00
3ffc00
0ff800
0fff00
3eff80
7c7fc0
fc1fc0
fc0fc0
fc0fc0
fc0fc0
7e0f80
3f1f80
1ffe00
03f000
ENDCHAR
STARTCHAR nine
ENCODING 57
SWIDTH 644 0
DWIDTH 21 0
BBX 18 22 2 0
BITMAP
03f000
1ffc00
3f3f00
7e1f80
7c0f80
fc0fc0
fc0fc0
fc0fc0
fc0fc0
fe0fc0
7f0fc0
3fff80
1fff80
07df00
001f00
003e00
007c00
00f800
03f000
3fc000
1f0000
180000
ENDCHAR
STARTCHAR colon
ENCODING 58
SWIDTH 387 0
DWIDTH 13 0
BBX 6 16 4 0
BITMAP
78
fc
fc
fc
fc
78
00
00
00
00
78
fc
fc
fc
fc
78
ENDCHAR
STARTCHAR semicolon
ENCODING 59
SWIDTH 387 0
DWIDTH 13 0
BBX 7 22 3 -6
BITMAP
1c
3e
7e
7e
7e
1c
00
00
00
00
00
38
7c
7e
7e
3e
0e
0c
1c
38
f0
e0
ENDCHAR
STARTCHAR less
ENCODING 60
SWIDTH 833 0
DWIDTH 28 0
BBX 19 18 4 1
BITMAP
000020
0001e0
0007e0
003fc0
00fe00
07f800
1fc000
7f0000
f80000
f80000
7f0000
1fc000
03f800
00fe00
003fc0
0007e0
0001e0
000020
ENDCHAR
STARTCHAR equal
ENCODING 61
SWIDTH 833 0
DWIDTH 28 0
BBX 20 10 4 5
BITMAP
fffff0
fffff0
fffff0
000000
000000
000000
000000
fffff0
fffff0
fffff0
ENDCHAR
STARTCHAR greater
ENCODING 62
SWIDTH 833 0
DWIDTH 28 0
BBX 19 18 5 1
BITMAP
800000
f00000
fc0000
7f8000
0fe000
03fc00
007f00
001fc0
0003e0
0003e0
001fc0
007f00
03fc00
0fe000
7f8000
fc0000
f00000
800000
ENDCHAR
STARTCHAR question
ENCODING 63
SWIDTH 519 0
DWIDTH 17 0
BBX 15 22 1 0
BITMAP
1fc0
7ff8
f8fc
f87e
f07e
707e
007e
007e
00fc
01f8
03f0
07c0
0700
0600
0600
0000
0f00
1f80
1f80
1f80
1f80
0f00
ENDCHAR
STARTCHAR at
ENCODING 64
SWIDTH 942 0
DWIDTH 31 0
BBX 26 28 3 -5
BITMAP
001fc000
00fff800
01e03c00
07800e00
0e000700
0c000380
1c000180
380f3980
303ff0c0
7079f0c0
70f0f0c0
61e0f0c0
e1c0e0c0
e3c1e0c0
e3c1e180
e3c1e180
e3c1c300
e3e3c600
71fffe00
71f9f800
7070f000
38000000
1c000000
1e000000
0f000e00
07c03c00
01fff000
007f8000
ENDCHAR
STARTCHAR A
ENCODING 65
SWIDTH 701 0
DWIDTH 23 0
BBX 24 22 -1 0
BITMAP
003e0000
007f0000
007f0000
007f0000
00ff8000
00ff8000
01ff8000
01cfc000
01cfc000
038fc000
0387e000
0387e000
0703f000
07fff000
0ffff000
0e01f800
0e01f800
1c00f800
1c00fc00
3c00fc00
ff03ff00
ff03ff00
ENDCHAR
STARTCHAR B
ENCODING 66
SWIDTH 690 0
DWIDTH 23 0
BBX 21 22 1 0
BITMAP
ffff00
ffffc0
1f8fe0
1f87e0
1f83f0
1f83f0
1f83f0
1f83e0
1f87e0
1f8fc0
1ffe00
1fffe0
1f87f0
1f83f8
1f81f8
1f81f8
1f81f8
1f81f8
1f83f0
1f8ff0
ffffe0
ffff00
ENDCHAR
STARTCHAR C
ENCODING 67
SWIDTH 683 0
DWIDTH 23 0
BBX 21 22 1 0
BITMAP
00ffe0
07fff8
0fe078
1f8078
3f0078
7f0038
7e0038
7e0000
fc0000
fc0000
fc0000
fc0000
fc0000
fc0000
7e0000
7e0038
7f0038
3f0078
1f8078
0ff078
07fff8
00ffe0
ENDCHAR
STARTCHAR D
ENCODING 68
SWIDTH 780 0
DWIDTH 26 0
BBX 24 22 1 0
BITMAP
ffff8000
ffffe000
1f87f800
1f81fc00
1f80fc00
1f807e00
1f807e00
1f803f00
1f803f00
1f803f00
1f803f00
1f803f00
1f803f00
1f803f00
1f803f00
1f807e00
1f807e00
1f80fc00
1f81fc00
1f87f800
ffffe000
ffff8000
ENDCHAR
STARTCHAR E
ENCODING 69
SWIDTH 653 0
DWIDTH 22 0
BBX 20 22 1 0
BITMAP
ffffe0
ffffe0
1f80e0
1f80e0
1f80e0
1f80e0
1f8000
1f8700
1f8700
1f8700
1fff00
1fff00
1f8700
1f8700
1f8700
1f8000
1f8070
1f8070
1f8070
1f8070
fffff0
fffff0
ENDCHAR
STARTCHAR F
ENCODING 70
SWIDTH 602 0
DWIDTH 20 0
BBX 18 22 1 0
BITMAP
ffffc0
ffffc0
1f81c0
1f80c0
1f80c0
1f80c0
1f8000
1f8300
1f8300
1f8300
1fff00
1fff00
1f8300
1f8300
1f8300
1f8000
1f8000
1f8000
1f8000
1f8000
fff000
fff000
ENDCHAR
STARTCHAR G
ENCODING 71
SWIDTH 766 0
DWIDTH 25 0
BBX 23 22 1 0
BITMAP
00ff80
07fff0
0fe0f0
1f80f0
3f00f0
7e0070
7e0070
7e0000
fc0000
fc0000
fc0000
fc1ffe
fc1ffe
fc03f0
fc03f0
7e03f0
7e03f0
3f03f0
1f83f0
0fe3f0
07fff0
00ff80
ENDCHAR
STARTCHAR H
ENCODING 72
SWIDTH 824 0
DWIDTH 27 0
BBX 25 22 1 0
BITMAP
fff7ff80
fff7ff80
1f80fc00
1f80fc00
1f80fc00
1f80fc00
1f80fc00
1f80fc00
1f80fc00
1ffffc00
1ffffc00
1f80fc00
1f80fc00
1f80fc00
1f80fc00
1f80fc00
1f80fc00
1f80fc00
1f80fc00
1f80fc00
fff7ff80
fff7ff80
ENDCHAR
STARTCHAR I
ENCODING 73
SWIDTH 410 0
DWIDTH 14 0
BBX 12 22 1 0
BITMAP
fff0
fff0
1f80
1f80
1f80
1f80
1f80
1f80
1f80
1f80
1f80
1f80
1f80
1f80
1f80
1f80
1f80
1f80
1f80
1f80
fff0
fff0
ENDCHAR
STARTCHAR J
ENCODING 74
SWIDTH 516 0
DWIDTH 17 0
BBX 16 22 0 0
BITMAP
07ff00
07ff00
01f800
01f800
01f800
01f800
01f800
01f800
01f800
01f800
01f800
01f800
01f800
01f800
01f800
e1f800
e1f800
e1f000
e3f000
f7e000
ffc000
7f0000
ENDCHAR
STARTCHAR K
ENCODING 75
SWIDTH 727 0
DWIDTH 24 0
BBX 24 22 1 0
BITMAP
fff1fe00
fff1fe00
1f807000
1f80f000
1f80e000
1f81c000
1f838000
1f870000
1f8e0000
1f9f0000
1fbf0000
1fff8000
1f9f8000
1f9fc000
1f8fe000
1f87e000
1f87f000
1f83f000
1f81f800
1f81fc00
fff0ff00
fff0ff00
ENDCHAR
STARTCHAR L
ENCODING 76
SWIDTH 600 0
DWIDTH 20 0
BBX 18 22 1 0
BITMAP
fff000
fff000
1f8000
1f8000
1f8000
1f8000
1f8000
1f8000
1f8000
1f8000
1f8000
1f8000
1f8000
1f8000
1f8000
1f81c0
1f81c0
1f81c0
1f81c0
1f81c0
ffffc0
ffffc0
ENDCHAR
STARTCHAR M
ENCODING 77
SWIDTH 961 0
DWIDTH 32 0
BBX 30 22 1 0
BITMAP
ffe01ffc
ffe01ffc
1fe03fe0
1fe03fe0
1df037e0
1df037e0
1df077e0
1cf867e0
1cf867e0
1cf8e7e0
1cf8e7e0
1c7cc7e0
1c7dc7e0
1c7dc7e0
1c3f87e0
1c3f87e0
1c3f87e0
1c1f07e0
1c1f07e0
1c1f07e0
ff0f1ffc
ff0e1ffc
ENDCHAR
STARTCHAR N
ENCODING 78
SWIDTH 782 0
DWIDTH 26 0
BBX 24 22 1 0
BITMAP
ff80ff00
ffc0ff00
1fc03800
1fe03800
1fe03800
1ff03800
1df83800
1df83800
1cfc3800
1c7c3800
1c7e3800
1c3f3800
1c3f3800
1c1fb800
1c1fb800
1c0ff800
1c07f800
1c07f800
1c03f800
1c03f800
ff01f800
ff00f800
ENDCHAR
STARTCHAR O
ENCODING 79
SWIDTH 815 0
DWIDTH 27 0
BBX 25 22 1 0
BITMAP
00ff8000
07fff000
1fc1fc00
3f80fe00
3f007e00
7e003f00
7e003f00
fc001f80
fc001f80
fc001f80
fc001f80
fc001f80
fc001f80
fc001f80
7c001f00
7e003f00
7e003f00
3f007e00
1f80fc00
0fc1f800
07fff000
00ff8000
ENDCHAR
STARTCHAR P
ENCODING 80
SWIDTH 653 0
DWIDTH 22 0
BBX 20 22 1 0
BITMAP
fffe00
ffff80
1f9fe0
1f87e0
1f83f0
1f83f0
1f83f0
1f83f0
1f83f0
1f83f0
1f87e0
1f8fc0
1fff80
1ffe00
1f8000
1f8000
1f8000
1f8000
1f8000
1f8000
fff000
fff000
ENDCHAR
STARTCHAR Q
ENCODING 81
SWIDTH 815 0
DWIDTH 27 0
BBX 25 28 1 -6
BITMAP
00ff8000
07fff000
1fc1fc00
3f80fe00
3f007e00
7e003f00
7e003f00
fc001f80
fc001f80
fc001f80
fc001f80
fc001f80
fc001f80
fc001f80
fc003f00
7e003f00
7e003f00
3f007e00
3f80fc00
1fc1f800
07fff000
01ffc000
007f8000
007f8000
007f8000
003fe000
001fff00
0007fe00
ENDCHAR
STARTCHAR R
ENCODING 82
SWIDTH 736 0
DWIDTH 24 0
BBX 24 22 1 0
BITMAP
ffff0000
ffffc000
1f8fe000
1f87f000
1f83f000
1f83f000
1f83f000
1f83f000
1f87e000
1f87c000
1ffe0000
1fff0000
1f8f8000
1f87c000
1f87e000
1f87e000
1f87e000
1f83f000
1f83f000
1f83f800
fff1ff00
fff0ff00
ENDCHAR
STARTCHAR S
ENCODING 83
SWIDTH 616 0
DWIDTH 20 0
BBX 18 22 1 0
BITMAP
07fe00
1fff80
7f0780
7e0780
fc0380
fc0380
fe0000
ff0000
ffe000
7ff800
3ffe00
1fff00
07ff80
00ffc0
003fc0
e01fc0
e00fc0
f00fc0
f01f80
f03f80
fffe00
3ff800
ENDCHAR
STARTCHAR T
ENCODING 84
SWIDTH 646 0
DWIDTH 21 0
BBX 20 22 1 0
BITMAP
fffff0
fffff0
e1f870
e1f870
e1f870
e1f870
01f800
01f800
01f800
01f800
01f800
01f800
01f800
01f800
01f800
01f800
01f800
01f800
01f800
01f800
0fff00
0fff00
ENDCHAR
STARTCHAR U
ENCODING 85
SWIDTH 757 0
DWIDTH 25 0
BBX 23 22 1 0
BITMAP
ffe3fe
ffe3fe
1f8070
1f8070
1f8070
1f8070
1f8070
1f8070
1f8070
1f8070
1f8070
1f8070
1f8070
1f8070
1f8070
1f8070
1f8070
0fc0e0
0fe1e0
07ffc0
03ff80
00fe00
ENDCHAR
STARTCHAR V
ENCODING 86
SWIDTH 690 0
DWIDTH 23 0
BBX 24 22 -1 0
BITMAP
ffe0ff00
ffe0ff00
3f803c00
1f803800
1f803800
0f807000
0fc07000
0fc0f000
07e0e000
07e0e000
03e1c000
03f1c000
03f1c000
01f38000
01fb8000
01ff8000
00ff0000
00ff0000
007e0000
007e0000
007e0000
003c0000
ENDCHAR
STARTCHAR W
ENCODING 87
SWIDTH 1014 0
DWIDTH 34 0
BBX 34 22 0 0
BITMAP
ffc0f87fc0
ffc1f87fc0
3f01f80e00
1f01f80e00
1f81fc0e00
1f83fc1e00
0f83fc1c00
0f83fe1c00
0fc73e1c00
0fc73e3800
07c73f3800
07ee1f3800
07ee1f3800
03ee1f7000
03fc0ff000
03fc0ff000
03fc0ff000
01f807e000
01f807e000
01f807e000
00f003c000
00f003c000
ENDCHAR
STARTCHAR X
ENCODING 88
SWIDTH 713 0
DWIDTH 24 0
BBX 24 22 0 0
BITMAP
7ff1fe00
7ff1fe00
1f807800
0fc07000
0fe0e000
07e1e000
03f3c000
03ff8000
01ff0000
00fe0000
00fe0000
007f0000
00ff0000
00ff8000
01dfc000
03cfe000
0787e000
0f07f000
0e03f800
1e01f800
ff8fff00
ff8fff00
ENDCHAR
STARTCHAR Y
ENCODING 89
SWIDTH 671 0
DWIDTH 23 0
BBX 23 22 0 0
BITMAP
ffe1fe
ffe1fe
3f8078
1f8070
0fc0f0
0fc0e0
07e1e0
07f1c0
03f380
01fb80
01ff00
00ff00
00fe00
007e00
007e00
007e00
007e00
007e00
007e00
007e00
03ffc0
03ffc0
ENDCHAR
STARTCHAR Z
ENCODING 90
SWIDTH 634 0
DWIDTH 21 0
BBX 18 22 1 0
BITMAP
ffffc0
ffffc0
f01fc0
f03f80
f03f00
f07f00
00fe00
00fc00
01fc00
01f800
03f000
07f000
07e000
0fe000
1fc000
1f81c0
3f81c0
3f01c0
7e01c0
fe03c0
ffffc0
ffffc0
ENDCHAR
STARTCHAR bracketleft
ENCODING 91
SWIDTH 495 0
DWIDTH 16 0
BBX 10 28 5 -5
BITMAP
ffc0
ffc0
f800
f800
f800
f800
f800
f800
f800
f800
f800
f800
f800
f800
f800
f800
f800
f800
f800
f800
f800
f800
f800
f800
f800
f800
ffc0
ffc0
ENDCHAR
STARTCHAR backslash
ENCODING 92
SWIDTH 500 0
DWIDTH 17 0
BBX 18 25 -1 -3
BITMAP
e00000
700000
780000
380000
1c0000
1c0000
0e0000
0e0000
070000
038000
038000
01c000
01c000
00e000
00f000
007000
003800
003800
001c00
001c00
000e00
000700
000700
000380
0003c0
ENDCHAR
STARTCHAR bracketright
ENCODING 93
SWIDTH 495 0
DWIDTH 16 0
BBX 10 28 1 -5
BITMAP
ffc0
ffc0
07c0
07c0
07c0
07c0
07c0
07c0
07c0
07c0
07c0
07c0
07c0
07c0
07c0
07c0
07c0
07c0
07c0
07c0
07c0
07c0
07c0
07c0
07c0
07c0
ffc0
ffc0
ENDCHAR
STARTCHAR asciicircum
ENCODING 94
SWIDTH 1000 0
DWIDTH 33 0
BBX 20 9 6 14
BITMAP
00f000
01f800
03fc00
079e00
0f0f00
1c0380
3801c0
7000e0
c00030
ENDCHAR
STARTCHAR underscore
ENCODING 95
SWIDTH 500 0
DWIDTH 17 0
BBX 17 3 0 -8
BITMAP
ffff80
ffff80
ffff80
ENDCHAR
STARTCHAR quoteleft
ENCODING 96
SWIDTH 331 0
DWIDTH 11 0
BBX 7 11 2 11
BITMAP
06
1e
38
70
e0
e0
fc
fc
fc
7c
38
ENDCHAR
STARTCHAR a
ENCODING 97
SWIDTH 616 0
DWIDTH 20 0
BBX 18 16 1 0
BITMAP
03f800
1ffc00
3e3e00
7e1f00
7e1f00
001f00
00ff00
0fff00
3f1f00
7e1f00
fc1f00
fc1f00
fe1f00
ffff00
7fdfc0
3f1fc0
ENDCHAR
STARTCHAR b
ENCODING 98
SWIDTH 650 0
DWIDTH 22 0
BBX 20 24 1 0
BITMAP
1e0000
fe0000
fe0000
3e0000
3e0000
3e0000
3e0000
3e0000
3e3f00
3effc0
3fffe0
3e1fe0
3e07f0
3e03f0
3e03f0
3e03f0
3e03f0
3e03f0
3e03e0
3e07e0
3e0fc0
3e1f80
3fff00
3ffc00
ENDCHAR
STARTCHAR c
ENCODING 99
SWIDTH 537 0
DWIDTH 18 0
BBX 16 16 1 0
BITMAP
01f000
0ffc00
1fbe00
3e3f00
7e3f00
7c3f00
fc1e00
fc0000
fc0000
fc0000
fe0000
7e0000
7f8300
3fff00
1ffe00
07f000
ENDCHAR
STARTCHAR d
ENCODING 100
SWIDTH 664 0
DWIDTH 22 0
BBX 20 24 1 0
BITMAP
0007c0
003fc0
003fc0
0007c0
0007c0
0007c0
0007c0
0007c0
03ffc0
1fffc0
3f07c0
7e07c0
7e07c0
fc07c0
fc07c0
fc07c0
fc07c0
fc07c0
fe07c0
7e07c0
7fcfc0
3fffc0
1ff7f0
0fc7f0
ENDCHAR
STARTCHAR e
ENCODING 101
SWIDTH 590 0
DWIDTH 20 0
BBX 18 16 1 0
BITMAP
03f800
0ffe00
3f1f00
7e0f80
7c0fc0
fc0fc0
ffffc0
ffffc0
fc0000
fc0000
fe0000
7e0040
7f81c0
3fffc0
0fff80
03fc00
ENDCHAR
STARTCHAR f
ENCODING 102
SWIDTH 387 0
DWIDTH 12 0
BBX 14 24 1 0
BITMAP
01f0
03f8
0efc
1e7c
1e38
3e00
3e00
3e00
fff0
fff0
3e00
3e00
3e00
3e00
3e00
3e00
3e00
3e00
3e00
3e00
3e00
3e00
ffc0
ffc0
ENDCHAR
STARTCHAR g
ENCODING 103
SWIDTH 613 0
DWIDTH 21 0
BBX 20 23 1 -7
BITMAP
07f000
1ffff0
3e3ff0
7c1f00
7c1f00
7c1f00
7c1f00
7c1e00
3e3e00
1ffc00
0ff000
0e0000
1e0000
1ff000
1ffe00
1fff80
787fc0
f80fc0
f80fc0
fc0f80
7e1f00
3ffc00
0ff000
ENDCHAR
STARTCHAR h
ENCODING 104
SWIDTH 667 0
DWIDTH 23 0
BBX 21 24 1 0
BITMAP
1e0000
fe0000
fe0000
3e0000
3e0000
3e0000
3e0000
3e0000
3e1f80
3effc0
3fffe0
3e07e0
3e03e0
3e03e0
3e03e0
3e03e0
3e03e0
3e03e0
3e03e0
3e03e0
3e03e0
3e03e0
ff8ff8
ff8ff8
ENDCHAR
STARTCHAR i
ENCODING 105
SWIDTH 354 0
DWIDTH 12 0
BBX 10 24 1 0
BITMAP
1c00
3e00
3e00
3e00
3e00
1c00
0000
0000
1e00
fe00
fe00
3e00
3e00
3e00
3e00
3e00
3e00
3e00
3e00
3e00
3e00
3e00
ffc0
ffc0
ENDCHAR
STARTCHAR j
ENCODING 106
SWIDTH 352 0
DWIDTH 11 0
BBX 12 31 -4 -7
BITMAP
00e0
01f0
01f0
01f0
01f0
00e0
0000
0000
00f0
07f0
07f0
01f0
01f0
01f0
01f0
01f0
01f0
01f0
01f0
01f0
01f0
01f0
01f0
01f0
01f0
21e0
71e0
f9c0
fd80
7f00
3e00
ENDCHAR
STARTCHAR k
ENCODING 107
SWIDTH 623 0
DWIDTH 21 0
BBX 20 24 1 0
BITMAP
1e0000
fe0000
fe0000
3e0000
3e0000
3e0000
3e0000
3e0000
3e1fe0
3e1fe0
3e0700
3e0e00
3e1c00
3e3800
3e7c00
3ffc00
3ffe00
3e7e00
3e3f00
3e3f80
3e1f80
3e0fc0
ff8ff0
ff8ff0
ENDCHAR
STARTCHAR l
ENCODING 108
SWIDTH 350 0
DWIDTH 12 0
BBX 10 24 1 0
BITMAP
1e00
fe00
fe00
3e00
3e00
3e00
3e00
3e00
3e00
3e00
3e00
3e00
3e00
3e00
3e00
3e00
3e00
3e00
3e00
3e00
3e00
3e00
ffc0
ffc0
ENDCHAR
STARTCHAR m
ENCODING 109
SWIDTH 991 0
DWIDTH 33 0
BBX 31 16 1 0
BITMAP
1e3f07e0
fffffff0
fffffff8
3e1fc3f8
3e07c0f8
3e07c0f8
3e07c0f8
3e07c0f8
3e07c0f8
3e07c0f8
3e07c0f8
3e07c0f8
3e07c0f8
3e07c0f8
ff9ff3fe
ff9ff3fe
ENDCHAR
STARTCHAR n
ENCODING 110
SWIDTH 678 0
DWIDTH 23 0
BBX 21 16 1 0
BITMAP
1e3f80
ffffc0
ffffe0
3e0fe0
3e03e0
3e03e0
3e03e0
3e03e0
3e03e0
3e03e0
3e03e0
3e03e0
3e03e0
3e03e0
ff8ff8
ff8ff8
ENDCHAR
STARTCHAR o
ENCODING 111
SWIDTH 650 0
DWIDTH 22 0
BBX 20 16 1 0
BITMAP
03fe00
1fff80
3f0fc0
7e07e0
7c07e0
fc03f0
fc03f0
fc03f0
fc03f0
fc03f0
fc03f0
7c03e0
7e07e0
3f0fc0
1fff80
07fc00
ENDCHAR
STARTCHAR p
ENCODING 112
SWIDTH 667 0
DWIDTH 22 0
BBX 20 23 1 -7
BITMAP
1e3f80
ffffc0
ffffe0
3e0fe0
3e07f0
3e03f0
3e03f0
3e03f0
3e03f0
3e03f0
3e03e0
3e07e0
3e0fc0
3e1fc0
3fff00
3ffc00
3e0000
3e0000
3e0000
3e0000
3e0000
ffc000
ffc000
ENDCHAR
STARTCHAR q
ENCODING 113
SWIDTH 655 0
DWIDTH 22 0
BBX 20 23 1 -7
BITMAP
03ffc0
0fffc0
1f87c0
3f07c0
7e07c0
7c07c0
fc07c0
fc07c0
fc07c0
fc07c0
fc07c0
fe07c0
7f87c0
7fffc0
1fffc0
0fc7c0
0007c0
0007c0
0007c0
0007c0
0007c0
003ff0
003ff0
ENDCHAR
STARTCHAR r
ENCODING 114
SWIDTH 488 0
DWIDTH 16 0
BBX 15 16 1 0
BITMAP
1e3e
fefe
fffc
3ffc
3e7c
3e1c
3e00
3e00
3e00
3e00
3e00
3e00
3e00
3e00
ffc0
ffc0
ENDCHAR
STARTCHAR s
ENCODING 115
SWIDTH 523 0
DWIDTH 17 0
BBX 15 16 1 0
BITMAP
0ff8
3ffc
7c1c
fc1c
fe1c
ff00
7fe0
3ff8
1ffc
03fe
c0fe
e07e
e07e
f0fc
fff8
3fc0
ENDCHAR
STARTCHAR t
ENCODING 116
SWIDTH 407 0
DWIDTH 14 0
BBX 13 21 1 0
BITMAP
0e00
0e00
1e00
1e00
3e00
fff8
fff8
3e00
3e00
3e00
3e00
3e00
3e00
3e00
3e00
3e00
3e00
3f00
3ff8
1ff8
0fc0
ENDCHAR
STARTCHAR u
ENCODING 117
SWIDTH 667 0
DWIDTH 23 0
BBX 21 16 1 0
BITMAP
1e03e0
fe1fe0
fe1fe0
3e03e0
3e03e0
3e03e0
3e03e0
3e03e0
3e03e0
3e03e0
3e03e0
3e03e0
3f83e0
3fffe0
1ffbf8
0fc3f8
ENDCHAR
STARTCHAR v
ENCODING 118
SWIDTH 565 0
DWIDTH 19 0
BBX 20 16 0 0
BITMAP
ffc7f0
ffc7f0
3f01c0
1f8380
1f8380
0f8380
0fc700
0fc700
07ce00
07ee00
03fc00
03fc00
01fc00
01f800
01f800
00f000
ENDCHAR
STARTCHAR w
ENCODING 119
SWIDTH 873 0
DWIDTH 29 0
BBX 29 16 0 0
BITMAP
ff87c1f8
ff87e1f8
3e07e0e0
3f0fe0e0
1f0ff0e0
1f0df0c0
1f9df1c0
0f9df9c0
0f98f980
0fd8fb80
0ff8ff80
07f07f00
07f07f00
07f07f00
03e03e00
03e03e00
ENDCHAR
STARTCHAR x
ENCODING 120
SWIDTH 593 0
DWIDTH 20 0
BBX 19 16 1 0
BITMAP
ff8fc0
ff8fc0
3f0700
1f8e00
0fcc00
0fd800
07f800
03f800
01f800
03fc00
077e00
0e3f00
1c3f00
3c1f80
fe3fe0
fe3fe0
ENDCHAR
STARTCHAR y
ENCODING 121
SWIDTH 567 0
DWIDTH 19 0
BBX 20 23 0 -7
BITMAP
ffc7f0
ffc7f0
3f01c0
1f81c0
1f8380
0f8380
0fc700
0fc700
07e600
07ee00
03ec00
03fc00
01fc00
01f800
00f800
00f000
007000
10e000
70e000
7dc000
ff8000
7f0000
3c0000
ENDCHAR
STARTCHAR z
ENCODING 122
SWIDTH 556 0
DWIDTH 18 0
BBX 15 16 2 0
BITMAP
fffc
fffc
e0fc
e1fc
e1f8
03f0
07e0
0fe0
0fc0
1f80
3f8e
3f0e
7e0e
fc0e
fffe
fffe
ENDCHAR
STARTCHAR braceleft
ENCODING 123
SWIDTH 500 0
DWIDTH 17 0
BBX 14 28 1 -5
BITMAP
00fc
03fc
03f0
07e0
07c0
07c0
07c0
07c0
07c0
07c0
07c0
0f80
1f00
fe00
fe00
1f00
0f80
07c0
07c0
07c0
07c0
07c0
07c0
07c0
07e0
03f0
03fc
00fc
ENDCHAR
STARTCHAR bar
ENCODING 124
SWIDTH 500 0
DWIDTH 17 0
BBX 3 33 7 -8
BITMAP
e0
e0
e0
e0
e0
e0
e0
e0
e0
e0
e0
e0
e0
e0
e0
e0
e0
e0
e0
e0
e0
e0
e0
e0
e0
e0
e0
e0
e0
e0
e0
e0
e0
ENDCHAR
STARTCHAR braceright
ENCODING 125
SWIDTH 500 0
DWIDTH 17 0
BBX 14 28 2 -5
BITMAP
fc00
ff00
3f00
1f80
0f80
0f80
0f80
0f80
0f80
0f80
0f80
07c0
03e0
01fc
01fc
03e0
07c0
0f80
0f80
0f80
0f80
0f80
0f80
0f80
1f80
3f00
ff00
fc00
ENDCHAR
STARTCHAR c0126
ENCODING 126
SWIDTH 1000 0
DWIDTH 33 0
BBX 19 5 7 16
BITMAP
1f0020
3ff0e0
7fffc0
61ff80
c01f00
ENDCHAR
STARTCHAR space
ENCODING 160
SWIDTH 322 0
DWIDTH 11 0
BBX 1 1 0 0
BITMAP
00
ENDCHAR
STARTCHAR exclamdown
ENCODING 161
SWIDTH 343 0
DWIDTH 11 0
BBX 6 22 2 0
BITMAP
78
7c
fc
fc
78
38
00
30
30
30
30
78
78
78
78
78
fc
fc
fc
fc
fc
78
ENDCHAR
STARTCHAR cent
ENCODING 162
SWIDTH 644 0
DWIDTH 21 0
BBX 16 24 2 -4
BITMAP
003000
003000
003000
003000
03fe00
0fff00
3f3300
7e3300
7e3300
fc3000
fc3000
fc3000
fc3000
fc3000
7e3300
7e3300
3f3300
1fb300
0fff00
03fe00
003000
003000
003000
003000
ENDCHAR
STARTCHAR sterling
ENCODING 163
SWIDTH 644 0
DWIDTH 21 0
BBX 18 22 2 0
BITMAP
00fe00
03ff80
07e780
0fc7c0
0f87c0
1f87c0
1f8780
1f8000
1f8000
1f8000
7ffe00
7ffe00
1f8000
1f8000
1f8000
1f0000
1e0000
3c0000
7fffc0
ffffc0
ffffc0
ffffc0
ENDCHAR
STARTCHAR currency
ENCODING 164
SWIDTH 606 0
DWIDTH 20 0
BBX 18 18 1 5
BITMAP
400080
e001c0
73f380
3fff00
1e1e00
180e00
380700
300300
300300
300300
300300
380700
180600
1e1e00
3fff00
73f380
e001c0
400080
ENDCHAR
STARTCHAR yen
ENCODING 165
SWIDTH 671 0
DWIDTH 23 0
BBX 23 22 0 0
BITMAP
ffe1fe
ffe1fe
3f8078
1f8070
0fc0f0
0fc0e0
07e1e0
07e1c0
7ff3fc
7ffbfc
01ff00
00ff00
00fe00
7ffffc
7ffffc
007e00
007e00
007e00
007e00
007e00
03ffc0
03ffc0
ENDCHAR
STARTCHAR brokenbar
ENCODING 166
SWIDTH 500 0
DWIDTH 17 0
BBX 3 29 7 -6
BITMAP
e0
e0
e0
e0
e0
e0
e0
e0
e0
e0
e0
e0
00
00
00
00
00
e0
e0
e0
e0
e0
e0
e0
e0
e0
e0
e0
e0
ENDCHAR
STARTCHAR section
ENCODING 167
SWIDTH 500 0
DWIDTH 17 0
BBX 15 29 1 -5
BITMAP
0ff0
3ffc
7c3c
781c
781c
781c
7c00
3f00
3fc0
1ff0
3ff8
70fc
e07e
e03e
e01e
f01e
f81c
7e78
3ff0
1fe0
0ff0
01f8
00fc
607c
607c
607c
70f8
7ff0
1fc0
ENDCHAR
STARTCHAR dieresis
ENCODING 168
SWIDTH 500 0
DWIDTH 17 0
BBX 13 5 2 19
BITMAP
7070
f8f8
f8f8
f8f8
7070
ENDCHAR
STARTCHAR copyright
ENCODING 169
SWIDTH 900 0
DWIDTH 30 0
BBX 26 26 2 -2
BITMAP
003f0000
01ffc000
0380f000
0e001800
18000e00
103f8600
30ffc300
61f1c180
63c0c180
63c0c180
c78000c0
c78000c0
c78000c0
c78000c0
c78000c0
c78000c0
63c0c180
63e0c180
61f1c300
30ffc300
183f0600
18000c00
0e001800
0380f000
01ffc000
003f0000
ENDCHAR
STARTCHAR ordfeminine
ENCODING 170
SWIDTH 462 0
DWIDTH 15 0
BBX 14 11 1 10
BITMAP
1fc0
79e0
78f0
00f0
0ff0
7cf0
f0f0
f0f0
f0f0
fff0
7efc
ENDCHAR
STARTCHAR guillemotleft
ENCODING 171
SWIDTH 458 0
DWIDTH 15 0
BBX 13 13 1 1
BITMAP
0408
0c18
1c38
3c78
79f0
f1e0
e1c0
f1e0
79f0
3c78
1c38
0c18
0408
ENDCHAR
STARTCHAR logicalnot
ENCODING 172
SWIDTH 833 0
DWIDTH 28 0
BBX 20 8 4 6
BITMAP
fffff0
fffff0
fffff0
000070
000070
000070
000070
000070
ENDCHAR
STARTCHAR hyphen
ENCODING 173
SWIDTH 333 0
DWIDTH 11 0
BBX 9 4 1 6
BITMAP
ff80
ff80
ff80
ff80
ENDCHAR
STARTCHAR registered
ENCODING 174
SWIDTH 900 0
DWIDTH 30 0
BBX 26 26 2 -2
BITMAP
003f0000
00ffc000
03c0f000
07001800
0c000c00
18000600
33ff8300
20f3c100
60f1e180
60f1e180
c0f1e0c0
c0f1c0c0
c0f3c0c0
c0ff00c0
c0f380c0
c0f3c0c0
60f3e180
60f1e180
60f1f100
33f8fb00
18000600
0c000c00
07001800
03c0f000
00ffc000
003f0000
ENDCHAR
STARTCHAR macron
ENCODING 175
SWIDTH 500 0
DWIDTH 17 0
BBX 12 3 3 19
BITMAP
fff0
fff0
fff0
ENDCHAR
STARTCHAR degree
ENCODING 176
SWIDTH 329 0
DWIDTH 11 0
BBX 10 10 1 13
BITMAP
1e00
3f00
6180
c0c0
c0c0
c0c0
c0c0
6180
3f00
1e00
ENDCHAR
STARTCHAR plusminus
ENCODING 177
SWIDTH 833 0
DWIDTH 28 0
BBX 19 19 5 0
BITMAP
00e000
00e000
00e000
00e000
00e000
ffffe0
ffffe0
ffffe0
00e000
00e000
00e000
00e000
00e000
000000
000000
000000
ffffe0
ffffe0
ffffe0
ENDCHAR
STARTCHAR twosuperior
ENCODING 178
SWIDTH 425 0
DWIDTH 14 0
BBX 12 13 1 9
BITMAP
3fc0
f1e0
f0f0
f0f0
00f0
01e0
03c0
0780
1e10
3830
fff0
fff0
fff0
ENDCHAR
STARTCHAR threesuperior
ENCODING 179
SWIDTH 425 0
DWIDTH 14 0
BBX 12 13 1 9
BITMAP
3fc0
73e0
f1e0
71e0
01e0
03c0
1f80
01e0
00f0
60f0
f0f0
f1e0
3f80
ENDCHAR
STARTCHAR acute
ENCODING 180
SWIDTH 500 0
DWIDTH 17 0
BBX 8 6 7 18
BITMAP
1f00
3e00
3c00
7800
7000
e000
ENDCHAR
STARTCHAR mu
ENCODING 181
SWIDTH 578 0
DWIDTH 19 0
BBX 20 21 -2 -7
BITMAP
070380
0f0780
0e0700
0e0700
0e0700
1e0f00
1e0f00
1c0e00
1c0e00
1c1e10
3c1e30
363620
37f7e0
73c3c0
700000
700000
700000
f00000
e00000
e00000
e00000
ENDCHAR
STARTCHAR paragraph
ENCODING 182
SWIDTH 500 0
DWIDTH 17 0
BBX 16 25 0 -3
BITMAP
07ff00
1fff00
3fcc00
7fcc00
ffcc00
ffcc00
ffcc00
ffcc00
ffcc00
ffcc00
7fcc00
7fcc00
1fcc00
07cc00
000c00
000c00
000c00
000c00
000c00
000c00
000c00
000c00
000c00
000c00
000c00
ENDCHAR
STARTCHAR periodcentered
ENCODING 183
SWIDTH 322 0
DWIDTH 10 0
BBX 6 6 2 8
BITMAP
78
fc
fc
fc
fc
78
ENDCHAR
STARTCHAR cedilla
ENCODING 184
SWIDTH 500 0
DWIDTH 17 0
BBX 7 8 6 -8
BITMAP
30
30
3c
3e
0e
0e
fe
f8
ENDCHAR
STARTCHAR onesuperior
ENCODING 185
SWIDTH 425 0
DWIDTH 14 0
BBX 10 13 3 9
BITMAP
0e00
7e00
fe00
1e00
1e00
1e00
1e00
1e00
1e00
1e00
1e00
1e00
7fc0
ENDCHAR
STARTCHAR ordmasculine
ENCODING 186
SWIDTH 488 0
DWIDTH 16 0
BBX 14 11 1 10
BITMAP
1fe0
7878
7838
f03c
f03c
f03c
f03c
f03c
7878
7878
1fe0
ENDCHAR
STARTCHAR guillemotright
ENCODING 187
SWIDTH 458 0
DWIDTH 15 0
BBX 13 13 1 1
BITMAP
8100
c180
e1c0
f1e0
7cf0
3c78
1c38
3c78
7cf0
f1e0
e1c0
c180
8100
ENDCHAR
STARTCHAR onequarter
ENCODING 188
SWIDTH 977 0
DWIDTH 32 0
BBX 29 23 3 -1
BITMAP
00003800
3c007000
fc006000
1c00e000
1c01c000
1c018000
1c038000
1c070000
1c060000
1c0e0000
1c1c00e0
1c1c01e0
7fb803e0
003007e0
00700ee0
00e01ce0
00c038e0
01c070e0
03807ff8
030000e0
070000e0
0e0000e0
000000e0
ENDCHAR
STARTCHAR onehalf
ENCODING 189
SWIDTH 977 0
DWIDTH 32 0
BBX 28 22 3 0
BITMAP
00003800
3c007000
fc006000
1c00e000
1c01c000
1c018000
1c038000
1c070000
1c060000
1c0e0000
1c1c1fc0
1c1c79e0
7fb878f0
003078f0
007000f0
00e001e0
00c003c0
01c00780
03800e10
03001c30
07007ff0
0e007ff0
ENDCHAR
STARTCHAR threequarters
ENCODING 190
SWIDTH 977 0
DWIDTH 32 0
BBX 31 23 1 -1
BITMAP
00000e00
3f801c00
73c01800
f3c03800
71c07000
03806000
1f00e000
03c1c000
01e18000
61e38000
f1e70038
f3c70078
3f0e00f8
000c01f8
001c03b8
00380738
00300e38
00701c38
00e01ffe
00c00038
01c00038
03800038
00000038
ENDCHAR
STARTCHAR questiondown
ENCODING 191
SWIDTH 519 0
DWIDTH 17 0
BBX 15 22 1 0
BITMAP
01e0
03f0
03f0
03f0
03f0
01e0
0000
00c0
00c0
01c0
07c0
1f80
3f00
7e00
fc00
fc00
fc1c
fc1e
fc3e
7e3e
3ffc
07f0
ENDCHAR
STARTCHAR Agrave
ENCODING 192
SWIDTH 701 0
DWIDTH 23 0
BBX 24 30 -1 0
BITMAP
03e00000
01f00000
00f00000
00780000
00380000
001c0000
00000000
00000000
003e0000
007f0000
007f0000
007f0000
00ff8000
00ff8000
01ff8000
01cfc000
01cfc000
038fc000
0387e000
0387e000
0703f000
07fff000
0ffff000
0e01f800
0e01f800
1c00f800
1c00fc00
3c00fc00
ff03ff00
ff03ff00
ENDCHAR
STARTCHAR Aacute
ENCODING 193
SWIDTH 701 0
DWIDTH 23 0
BBX 24 30 -1 0
BITMAP
0003e000
0007c000
00078000
000f0000
000e0000
001c0000
00000000
00000000
003e0000
007f0000
007f0000
007f0000
00ff8000
00ff8000
01ff8000
01cfc000
01cfc000
038fc000
0387e000
0387e000
0703f000
07fff000
0ffff000
0e01f800
0e01f800
1c00f800
1c00fc00
3c00fc00
ff03ff00
ff03ff00
ENDCHAR
STARTCHAR Acircumflex
ENCODING 194
SWIDTH 701 0
DWIDTH 23 0
BBX 24 30 -1 0
BITMAP
003e0000
003e0000
007f0000
00770000
00e38000
01e3c000
00000000
00000000
003e0000
007f0000
007f0000
007f0000
00ff8000
00ff8000
01ff8000
01cfc000
01cfc000
038fc000
0387e000
0387e000
0703f000
07fff000
0ffff000
0e01f800
0e01f800
1c00f800
1c00fc00
3c00fc00
ff03ff00
ff03ff00
ENDCHAR
STARTCHAR Atilde
ENCODING 195
SWIDTH 701 0
DWIDTH 23 0
BBX 24 30 -1 0
BITMAP
0000c000
01f1c000
03ffc000
03ffc000
039f8000
03000000
00000000
00000000
003e0000
007f0000
007f0000
007f0000
00ff8000
00ff8000
01ff8000
01cfc000
01cfc000
038fc000
0387e000
0387e000
0703f000
07fff000
0ffff000
0e01f800
0e01f800
1c00f800
1c00fc00
3c00fc00
ff03ff00
ff03ff00
ENDCHAR
STARTCHAR Adieresis
ENCODING 196
SWIDTH 701 0
DWIDTH 23 0
BBX 24 30 -1 0
BITMAP
01c1c000
03e3e000
03e3e000
03e3e000
01c1c000
00000000
00000000
00000000
003e0000
007f0000
007f0000
007f0000
00ff8000
00ff8000
01ff8000
01cfc000
01cfc000
038fc000
0387e000
0387e000
0703f000
07fff000
0ffff000
0e01f800
0e01f800
1c00f800
1c00fc00
3c00fc00
ff03ff00
ff03ff00
ENDCHAR
STARTCHAR Aring
ENCODING 197
SWIDTH 701 0
DWIDTH 23 0
BBX 24 32 -1 0
BITMAP
003c0000
007e0000
00e70000
00c30000
00c30000
00e70000
007e0000
003c0000
00000000
00000000
003e0000
007f0000
007f0000
007f0000
00ff8000
00ff8000
01ff8000
01cfc000
01cfc000
038fc000
0387e000
0387e000
0703f000
07fff000
0ffff000
0e01f800
0e01f800
1c00f800
1c00fc00
3c00fc00
ff03ff00
ff03ff00
ENDCHAR
STARTCHAR AE
ENCODING 198
SWIDTH 963 0
DWIDTH 32 0
BBX 33 22 -2 0
BITMAP
003fffff00
003fffff00
0007fc0f00
000efc0700
000efc0700
001cfc0700
0038fc0000
0038fc3800
0070fc3800
0070fc3800
00e0fff800
01c0fff800
01fffc3800
03fffc3800
0300fc3800
0700fc0000
0e00fc0380
0e00fc0380
1c00fc0380
3c00fc0380
ff07ffff80
ff07ffff80
ENDCHAR
STARTCHAR Ccedilla
ENCODING 199
SWIDTH 683 0
DWIDTH 23 0
BBX 21 30 1 -8
BITMAP
00ffe0
07fff8
0fe078
1f8078
3f0078
7f0038
7e0038
7e0000
fc0000
fc0000
fc0000
fc0000
fc0000
fc0000
7e0000
7e0038
7f0038
3f0078
1f8078
0ff078
07fff8
00ffe0
000c00
000c00
000f00
000f80
000380
000380
003f80
003e00
ENDCHAR
STARTCHAR Egrave
ENCODING 200
SWIDTH 653 0
DWIDTH 22 0
BBX 20 30 1 0
BITMAP
0f8000
07c000
03c000
01e000
00e000
007000
000000
000000
ffffe0
ffffe0
1f80e0
1f80e0
1f80e0
1f80e0
1f8000
1f8700
1f8700
1f8700
1fff00
1fff00
1f8700
1f8700
1f8700
1f8000
1f8070
1f8070
1f8070
1f8070
fffff0
fffff0
ENDCHAR
STARTCHAR Eacute
ENCODING 201
SWIDTH 653 0
DWIDTH 22 0
BBX 20 30 1 0
BITMAP
000f80
001f00
001e00
003c00
003800
007000
000000
000000
ffffe0
ffffe0
1f80e0
1f80e0
1f80e0
1f80e0
1f8000
1f8700
1f8700
1f8700
1fff00
1fff00
1f8700
1f8700
1f8700
1f8000
1f8070
1f8070
1f8070
1f8070
fffff0
fffff0
ENDCHAR
STARTCHAR Ecircumflex
ENCODING 202
SWIDTH 653 0
DWIDTH 22 0
BBX 20 30 1 0
BITMAP
00f800
00f800
01fc00
01dc00
038e00
078f00
000000
000000
ffffe0
ffffe0
1f80e0
1f80e0
1f80e0
1f80e0
1f8000
1f8700
1f8700
1f8700
1fff00
1fff00
1f8700
1f8700
1f8700
1f8000
1f8070
1f8070
1f8070
1f8070
fffff0
fffff0
ENDCHAR
STARTCHAR Edieresis
ENCODING 203
SWIDTH 653 0
DWIDTH 22 0
BBX 20 30 1 0
BITMAP
070700
0f8f80
0f8f80
0f8f80
070700
000000
000000
000000
ffffe0
ffffe0
1f80e0
1f80e0
1f80e0
1f80e0
1f8000
1f8700
1f8700
1f8700
1fff00
1fff00
1f8700
1f8700
1f8700
1f8000
1f8070
1f8070
1f8070
1f8070
fffff0
fffff0
ENDCHAR
STARTCHAR Igrave
ENCODING 204
SWIDTH 410 0
DWIDTH 14 0
BBX 12 30 1 0
BITMAP
f800
7c00
3c00
1e00
0e00
0700
0000
0000
fff0
fff0
1f80
1f80
1f80
1f80
1f80
1f80
1f80
1f80
1f80
1f80
1f80
1f80
1f80
1f80
1f80
1f80
1f80
1f80
fff0
fff0
ENDCHAR
STARTCHAR Iacute
ENCODING 205
SWIDTH 410 0
DWIDTH 14 0
BBX 13 30 1 0
BITMAP
00f8
01f0
01e0
03c0
0380
0700
0000
0000
fff0
fff0
1f80
1f80
1f80
1f80
1f80
1f80
1f80
1f80
1f80
1f80
1f80
1f80
1f80
1f80
1f80
1f80
1f80
1f80
fff0
fff0
ENDCHAR
STARTCHAR Icircumflex
ENCODING 206
SWIDTH 410 0
DWIDTH 14 0
BBX 12 30 1 0
BITMAP
0f80
0f80
1fc0
1dc0
38e0
78f0
0000
0000
fff0
fff0
1f80
1f80
1f80
1f80
1f80
1f80
1f80
1f80
1f80
1f80
1f80
1f80
1f80
1f80
1f80
1f80
1f80
1f80
fff0
fff0
ENDCHAR
STARTCHAR Idieresis
ENCODING 207
SWIDTH 410 0
DWIDTH 14 0
BBX 13 30 1 0
BITMAP
7070
f8f8
f8f8
f8f8
7070
0000
0000
0000
fff0
fff0
1f80
1f80
1f80
1f80
1f80
1f80
1f80
1f80
1f80
1f80
1f80
1f80
1f80
1f80
1f80
1f80
1f80
1f80
fff0
fff0
ENDCHAR
STARTCHAR Eth
ENCODING 208
SWIDTH 780 0
DWIDTH 26 0
BBX 24 22 1 0
BITMAP
ffff8000
ffffe000
1f87f800
1f81fc00
1f80fc00
1f807e00
1f807e00
1f803f00
1f803f00
fff83f00
fff83f00
1f803f00
1f803f00
1f803f00
1f803e00
1f807e00
1f807e00
1f80fc00
1f81f800
1f87f800
ffffe000
ffff8000
ENDCHAR
STARTCHAR Ntilde
ENCODING 209
SWIDTH 782 0
DWIDTH 26 0
BBX 24 30 1 0
BITMAP
0000c000
01f1c000
03ffc000
03ffc000
039f8000
03000000
00000000
00000000
ff80ff00
ffc0ff00
1fc03800
1fe03800
1fe03800
1ff03800
1df83800
1df83800
1cfc3800
1c7c3800
1c7e3800
1c3f3800
1c3f3800
1c1fb800
1c1fb800
1c0ff800
1c07f800
1c07f800
1c03f800
1c03f800
ff01f800
ff00f800
ENDCHAR
STARTCHAR Ograve
ENCODING 210
SWIDTH 815 0
DWIDTH 27 0
BBX 25 30 1 0
BITMAP
03e00000
01f00000
00f00000
00780000
00380000
001c0000
00000000
00000000
00ff8000
07fff000
1fc1fc00
3f80fe00
3f007e00
7e003f00
7e003f00
fc001f80
fc001f80
fc001f80
fc001f80
fc001f80
fc001f80
fc001f80
7c001f00
7e003f00
7e003f00
3f007e00
1f80fc00
0fc1f800
07fff000
00ff8000
ENDCHAR
STARTCHAR Oacute
ENCODING 211
SWIDTH 815 0
DWIDTH 27 0
BBX 25 30 1 0
BITMAP
0003e000
0007c000
00078000
000f0000
000e0000
001c0000
00000000
00000000
00ff8000
07fff000
1fc1fc00
3f80fe00
3f007e00
7e003f00
7e003f00
fc001f80
fc001f80
fc001f80
fc001f80
fc001f80
fc001f80
fc001f80
7c001f00
7e003f00
7e003f00
3f007e00
1f80fc00
0fc1f800
07fff000
00ff8000
ENDCHAR
STARTCHAR Ocircumflex
ENCODING 212
SWIDTH 815 0
DWIDTH 27 0
BBX 25 30 1 0
BITMAP
003e0000
003e0000
007f0000
00770000
00e38000
01e3c000
00000000
00000000
00ff8000
07fff000
1fc1fc00
3f80fe00
3f007e00
7e003f00
7e003f00
fc001f80
fc001f80
fc001f80
fc001f80
fc001f80
fc001f80
fc001f80
7c001f00
7e003f00
7e003f00
3f007e00
1f80fc00
0fc1f800
07fff000
00ff8000
ENDCHAR
STARTCHAR Otilde
ENCODING 213
SWIDTH 815 0
DWIDTH 27 0
BBX 25 30 1 0
BITMAP
0000c000
01f1c000
03ffc000
03ffc000
039f8000
03000000
00000000
00000000
00ff8000
07fff000
1fc1fc00
3f80fe00
3f007e00
7e003f00
7e003f00
fc001f80
fc001f80
fc001f80
fc001f80
fc001f80
fc001f80
fc001f80
7c001f00
7e003f00
7e003f00
3f007e00
1f80fc00
0fc1f800
07fff000
00ff8000
ENDCHAR
STARTCHAR Odieresis
ENCODING 214
SWIDTH 815 0
DWIDTH 27 0
BBX 25 30 1 0
BITMAP
01c1c000
03e3e000
03e3e000
03e3e000
01c1c000
00000000
00000000
00000000
00ff8000
07fff000
1fc1fc00
3f80fe00
3f007e00
7e003f00
7e003f00
fc001f80
fc001f80
fc001f80
fc001f80
fc001f80
fc001f80
fc001f80
7c001f00
7e003f00
7e003f00
3f007e00
1f80fc00
0fc1f800
07fff000
00ff8000
ENDCHAR
STARTCHAR multiply
ENCODING 215
SWIDTH 833 0
DWIDTH 28 0
BBX 19 19 5 0
BITMAP
400040
e000e0
7001c0
380380
1c0700
0e0e00
071c00
03b800
01f000
00e000
01f000
03b800
071c00
0e0e00
1c0700
380380
7001c0
e000e0
400040
ENDCHAR
STARTCHAR Oslash
ENCODING 216
SWIDTH 815 0
DWIDTH 27 0
BBX 25 28 1 -3
BITMAP
00000800
00001c00
00001800
00ffb800
07fff000
1fc1f800
1f80fc00
3f01fe00
7e01bf00
7e03bf00
fc071f80
fc061f80
fc0e1f80
fc1c1f80
fc181f80
fc381f80
fc701f80
7c601f00
7ee03f00
7fc03f00
3f807e00
1f80fc00
0fc1f800
07fff000
0eff8000
0c000000
18000000
08000000
ENDCHAR
STARTCHAR Ugrave
ENCODING 217
SWIDTH 757 0
DWIDTH 25 0
BBX 23 30 1 0
BITMAP
03e000
01f000
00f000
007800
003800
001c00
000000
000000
ffe3fe
ffe3fe
1f8070
1f8070
1f8070
1f8070
1f8070
1f8070
1f8070
1f8070
1f8070
1f8070
1f8070
1f8070
1f8070
1f8070
1f8070
0fc0e0
0fe1e0
07ffc0
03ff80
00fe00
ENDCHAR
STARTCHAR Uacute
ENCODING 218
SWIDTH 757 0
DWIDTH 25 0
BBX 23 30 1 0
BITMAP
0003e0
0007c0
000780
000f00
000e00
001c00
000000
000000
ffe3fe
ffe3fe
1f8070
1f8070
1f8070
1f8070
1f8070
1f8070
1f8070
1f8070
1f8070
1f8070
1f8070
1f8070
1f8070
1f8070
1f8070
0fc0e0
0fe1e0
07ffc0
03ff80
00fe00
ENDCHAR
STARTCHAR Ucircumflex
ENCODING 219
SWIDTH 757 0
DWIDTH 25 0
BBX 23 30 1 0
BITMAP
003e00
003e00
007f00
007700
00e380
01e3c0
000000
000000
ffe3fe
ffe3fe
1f8070
1f8070
1f8070
1f8070
1f8070
1f8070
1f8070
1f8070
1f8070
1f8070
1f8070
1f8070
1f8070
1f8070
1f8070
0fc0e0
0fe1e0
07ffc0
03ff80
00fe00
ENDCHAR
STARTCHAR Udieresis
ENCODING 220
SWIDTH 757 0
DWIDTH 25 0
BBX 23 30 1 0
BITMAP
01c1c0
03e3e0
03e3e0
03e3e0
01c1c0
000000
000000
000000
ffe3fe
ffe3fe
1f8070
1f8070
1f8070
1f8070
1f8070
1f8070
1f8070
1f8070
1f8070
1f8070
1f8070
1f8070
1f8070
1f8070
1f8070
0fc0e0
0fe1e0
07ffc0
03ff80
00fe00
ENDCHAR
STARTCHAR Yacute
ENCODING 221
SWIDTH 671 0
DWIDTH 23 0
BBX 23 30 0 0
BITMAP
0007c0
000f80
000f00
001e00
001c00
003800
000000
000000
ffe1fe
ffe1fe
3f8078
1f8070
0fc0f0
0fc0e0
07e1e0
07f1c0
03f380
01fb80
01ff00
00ff00
00fe00
007e00
007e00
007e00
007e00
007e00
007e00
007e00
03ffc0
03ffc0
ENDCHAR
STARTCHAR Thorn
ENCODING 222
SWIDTH 653 0
DWIDTH 22 0
BBX 20 22 1 0
BITMAP
fff000
fff000
1f8000
1f8000
1fff00
1fffc0
1f8fe0
1f87e0
1f83f0
1f83f0
1f83f0
1f83f0
1f83f0
1f83f0
1f87e0
1f8fc0
1fff80
1ffe00
1f8000
1f8000
fff000
fff000
ENDCHAR
STARTCHAR germandbls
ENCODING 223
SWIDTH 713 0
DWIDTH 24 0
BBX 22 24 1 0
BITMAP
00fe00
03ff80
0f8fc0
0f07e0
1f07e0
1e07e0
3e07e0
3e07e0
3e0f00
3e3e00
3e3e00
3e7e00
3e7f00
3e3fc0
3e3fe0
3e1ff8
3e07f8
3e01fc
3e60fc
3e60fc
3e70fc
3e71f8
fe7ff0
fe7fc0
ENDCHAR
STARTCHAR agrave
ENCODING 224
SWIDTH 616 0
DWIDTH 20 0
BBX 18 24 1 0
BITMAP
1f0000
0f8000
078000
03c000
01c000
00e000
000000
000000
03f800
1ffc00
3e3e00
7e1f00
7e1f00
001f00
00ff00
0fff00
3f1f00
7e1f00
fc1f00
fc1f00
fe1f00
ffff00
7fdfc0
3f1fc0
ENDCHAR
STARTCHAR aacute
ENCODING 225
SWIDTH 616 0
DWIDTH 20 0
BBX 18 24 1 0
BITMAP
001f00
003e00
003c00
007800
007000
00e000
000000
000000
03f800
1ffc00
3e3e00
7e1f00
7e1f00
001f00
00ff00
0fff00
3f1f00
7e1f00
fc1f00
fc1f00
fe1f00
ffff00
7fdfc0
3f1fc0
ENDCHAR
STARTCHAR acircumflex
ENCODING 226
SWIDTH 616 0
DWIDTH 20 0
BBX 18 24 1 0
BITMAP
01f000
01f000
03f800
03b800
071c00
0f1e00
000000
000000
03f800
1ffc00
3e3e00
7e1f00
7e1f00
001f00
00ff00
0fff00
3f1f00
7e1f00
fc1f00
fc1f00
fe1f00
ffff00
7fdfc0
3f1fc0
ENDCHAR
STARTCHAR atilde
ENCODING 227
SWIDTH 616 0
DWIDTH 20 0
BBX 18 24 1 0
BITMAP
000600
0f8e00
1ffe00
1ffe00
1cfc00
180000
000000
000000
03f800
1ffc00
3e3e00
7e1f00
7e1f00
001f00
00ff00
0fff00
3f1f00
7e1f00
fc1f00
fc1f00
fe1f00
ffff00
7fdfc0
3f1fc0
ENDCHAR
STARTCHAR adieresis
ENCODING 228
SWIDTH 616 0
DWIDTH 20 0
BBX 18 24 1 0
BITMAP
0e0e00
1f1f00
1f1f00
1f1f00
0e0e00
000000
000000
000000
03f800
1ffc00
3e3e00
7e1f00
7e1f00
001f00
00ff00
0fff00
3f1f00
7e1f00
fc1f00
fc1f00
fe1f00
ffff00
7fdfc0
3f1fc0
ENDCHAR
STARTCHAR aring
ENCODING 229
SWIDTH 616 0
DWIDTH 20 0
BBX 18 26 1 0
BITMAP
01e000
03f000
033800
061800
061800
061800
033800
03f000
01e000
000000
03f800
1ffc00
3e3e00
7e1f00
7e1f00
001f00
00ff00
0fff00
3f1f00
7e1f00
fc1f00
fc1f00
fe1f00
ffff00
7fdfc0
3f1fc0
ENDCHAR
STARTCHAR ae
ENCODING 230
SWIDTH 854 0
DWIDTH 28 0
BBX 26 16 1 0
BITMAP
07f07800
3ffffe00
7c7f9f80
7c3f0f80
7c3f0fc0
003f0fc0
01ffffc0
1fffffc0
3f3f0000
7c3f0000
fc3f0000
fc3f0040
fe3fc1c0
ffffffc0
7fc7ff80
3f00fc00
ENDCHAR
STARTCHAR ccedilla
ENCODING 231
SWIDTH 537 0
DWIDTH 18 0
BBX 16 24 1 -8
BITMAP
01f000
0ffc00
1fbe00
3e3f00
7e3f00
7c3f00
fc1e00
fc0000
fc0000
fc0000
fe0000
7e0000
7f8300
3fff00
1ffe00
07f000
006000
006000
007800
007c00
001c00
001c00
01fc00
01f000
ENDCHAR
STARTCHAR egrave
ENCODING 232
SWIDTH 590 0
DWIDTH 20 0
BBX 18 24 1 0
BITMAP
3e0000
1f0000
0f0000
078000
038000
01c000
000000
000000
03f800
0ffe00
3f1f00
7e0f80
7c0fc0
fc0fc0
ffffc0
ffffc0
fc0000
fc0000
fe0000
7e0040
7f81c0
3fffc0
0fff80
03fc00
ENDCHAR
STARTCHAR eacute
ENCODING 233
SWIDTH 590 0
DWIDTH 20 0
BBX 18 24 1 0
BITMAP
003e00
007c00
007800
00f000
00e000
01c000
000000
000000
03f800
0ffe00
3f1f00
7e0f80
7c0fc0
fc0fc0
ffffc0
ffffc0
fc0000
fc0000
fe0000
7e0040
7f81c0
3fffc0
0fff80
03fc00
ENDCHAR
STARTCHAR ecircumflex
ENCODING 234
SWIDTH 590 0
DWIDTH 20 0
BBX 18 24 1 0
BITMAP
03e000
03e000
07f000
077000
0e3800
1e3c00
000000
000000
03f800
0ffe00
3f1f00
7e0f80
7c0fc0
fc0fc0
ffffc0
ffffc0
fc0000
fc0000
fe0000
7e0040
7f81c0
3fffc0
0fff80
03fc00
ENDCHAR
STARTCHAR edieresis
ENCODING 235
SWIDTH 590 0
DWIDTH 20 0
BBX 18 24 1 0
BITMAP
1c1c00
3e3e00
3e3e00
3e3e00
1c1c00
000000
000000
000000
03f800
0ffe00
3f1f00
7e0f80
7c0fc0
fc0fc0
ffffc0
ffffc0
fc0000
fc0000
fe0000
7e0040
7f81c0
3fffc0
0fff80
03fc00
ENDCHAR
STARTCHAR igrave
ENCODING 236
SWIDTH 354 0
DWIDTH 12 0
BBX 11 24 0 0
BITMAP
f800
7c00
3c00
1e00
0e00
0700
0000
0000
0f00
7f00
7f00
1f00
1f00
1f00
1f00
1f00
1f00
1f00
1f00
1f00
1f00
1f00
7fe0
7fe0
ENDCHAR
STARTCHAR iacute
ENCODING 237
SWIDTH 354 0
DWIDTH 12 0
BBX 12 24 1 0
BITMAP
01f0
03e0
03c0
0780
0700
0e00
0000
0000
1e00
fe00
fe00
3e00
3e00
3e00
3e00
3e00
3e00
3e00
3e00
3e00
3e00
3e00
ffc0
ffc0
ENDCHAR
STARTCHAR icircumflex
ENCODING 238
SWIDTH 354 0
DWIDTH 12 0
BBX 11 24 1 0
BITMAP
1f00
1f00
3f80
3b80
71c0
f1e0
0000
0000
1e00
fe00
fe00
3e00
3e00
3e00
3e00
3e00
3e00
3e00
3e00
3e00
3e00
3e00
ffc0
ffc0
ENDCHAR
STARTCHAR idieresis
ENCODING 239
SWIDTH 354 0
DWIDTH 12 0
BBX 13 24 0 0
BITMAP
7070
f8f8
f8f8
f8f8
7070
0000
0000
0000
0f00
7f00
7f00
1f00
1f00
1f00
1f00
1f00
1f00
1f00
1f00
1f00
1f00
1f00
7fe0
7fe0
ENDCHAR
STARTCHAR eth
ENCODING 240
SWIDTH 645 0
DWIDTH 21 0
BBX 19 24 1 0
BITMAP
01e100
07f380
1ffe00
01fc00
01fc00
07fe00
0e3f00
003f80
07ff80
1fffc0
3f0fc0
7e0fc0
7e07e0
fc07e0
fc07e0
fc07e0
fc07e0
fc07e0
fc07e0
7c07c0
7e0fc0
3f1f80
1fff00
03f800
ENDCHAR
STARTCHAR ntilde
ENCODING 241
SWIDTH 678 0
DWIDTH 23 0
BBX 21 24 1 0
BITMAP
000300
07c700
0fff00
0fff00
0e7e00
0c0000
000000
000000
1e3f80
ffffc0
ffffe0
3e0fe0
3e03e0
3e03e0
3e03e0
3e03e0
3e03e0
3e03e0
3e03e0
3e03e0
3e03e0
3e03e0
ff8ff8
ff8ff8
ENDCHAR
STARTCHAR ograve
ENCODING 242
SWIDTH 650 0
DWIDTH 22 0
BBX 20 24 1 0
BITMAP
1f0000
0f8000
078000
03c000
01c000
00e000
000000
000000
03fe00
1fff80
3f0fc0
7e07e0
7c07e0
fc03f0
fc03f0
fc03f0
fc03f0
fc03f0
fc03f0
7c03e0
7e07e0
3f0fc0
1fff80
07fc00
ENDCHAR
STARTCHAR oacute
ENCODING 243
SWIDTH 650 0
DWIDTH 22 0
BBX 20 24 1 0
BITMAP
001f00
003e00
003c00
007800
007000
00e000
000000
000000
03fe00
1fff80
3f0fc0
7e07e0
7c07e0
fc03f0
fc03f0
fc03f0
fc03f0
fc03f0
fc03f0
7c03e0
7e07e0
3f0fc0
1fff80
07fc00
ENDCHAR
STARTCHAR ocircumflex
ENCODING 244
SWIDTH 650 0
DWIDTH 22 0
BBX 20 24 1 0
BITMAP
01f000
01f000
03f800
03b800
071c00
0f1e00
000000
000000
03fe00
1fff80
3f0fc0
7e07e0
7c07e0
fc03f0
fc03f0
fc03f0
fc03f0
fc03f0
fc03f0
7c03e0
7e07e0
3f0fc0
1fff80
07fc00
ENDCHAR
STARTCHAR otilde
ENCODING 245
SWIDTH 650 0
DWIDTH 22 0
BBX 20 24 1 0
BITMAP
000600
0f8e00
1ffe00
1ffe00
1cfc00
180000
000000
000000
03fe00
1fff80
3f0fc0
7e07e0
7c07e0
fc03f0
fc03f0
fc03f0
fc03f0
fc03f0
fc03f0
7c03e0
7e07e0
3f0fc0
1fff80
07fc00
ENDCHAR
STARTCHAR odieresis
ENCODING 246
SWIDTH 650 0
DWIDTH 22 0
BBX 20 24 1 0
BITMAP
0e0e00
1f1f00
1f1f00
1f1f00
0e0e00
000000
000000
000000
03fe00
1fff80
3f0fc0
7e07e0
7c07e0
fc03f0
fc03f0
fc03f0
fc03f0
fc03f0
fc03f0
7c03e0
7e07e0
3f0fc0
1fff80
07fc00
ENDCHAR
STARTCHAR divide
ENCODING 247
SWIDTH 833 0
DWIDTH 28 0
BBX 20 17 4 1
BITMAP
006000
00f000
00f000
006000
000000
000000
000000
fffff0
fffff0
fffff0
000000
000000
000000
006000
00f000
00f000
006000
ENDCHAR
STARTCHAR oslash
ENCODING 248
SWIDTH 650 0
DWIDTH 22 0
BBX 20 22 1 -3
BITMAP
000100
000180
000300
03ff00
0fff80
3f0fc0
7e1fe0
7e1fe0
fc3bf0
fc73f0
fc63f0
fce3f0
fdc3f0
fd83f0
7f03e0
7f07e0
3f0fc0
1fff80
0ffc00
180000
380000
100000
ENDCHAR
STARTCHAR ugrave
ENCODING 249
SWIDTH 667 0
DWIDTH 23 0
BBX 21 24 1 0
BITMAP
0f8000
07c000
03c000
01e000
00e000
007000
000000
000000
1e03e0
fe1fe0
fe1fe0
3e03e0
3e03e0
3e03e0
3e03e0
3e03e0
3e03e0
3e03e0
3e03e0
3e03e0
3f83e0
3fffe0
1ffbf8
0fc3f8
ENDCHAR
STARTCHAR uacute
ENCODING 250
SWIDTH 667 0
DWIDTH 23 0
BBX 21 24 1 0
BITMAP
000f80
001f00
001e00
003c00
003800
007000
000000
000000
1e03e0
fe1fe0
fe1fe0
3e03e0
3e03e0
3e03e0
3e03e0
3e03e0
3e03e0
3e03e0
3e03e0
3e03e0
3f83e0
3fffe0
1ffbf8
0fc3f8
ENDCHAR
STARTCHAR ucircumflex
ENCODING 251
SWIDTH 667 0
DWIDTH 23 0
BBX 21 24 1 0
BITMAP
00f800
00f800
01fc00
01dc00
038e00
078f00
000000
000000
1e03e0
fe1fe0
fe1fe0
3e03e0
3e03e0
3e03e0
3e03e0
3e03e0
3e03e0
3e03e0
3e03e0
3e03e0
3f83e0
3fffe0
1ffbf8
0fc3f8
ENDCHAR
STARTCHAR udieresis
ENCODING 252
SWIDTH 667 0
DWIDTH 23 0
BBX 21 24 1 0
BITMAP
070700
0f8f80
0f8f80
0f8f80
070700
000000
000000
000000
1e03e0
fe1fe0
fe1fe0
3e03e0
3e03e0
3e03e0
3e03e0
3e03e0
3e03e0
3e03e0
3e03e0
3e03e0
3f83e0
3fffe0
1ffbf8
0fc3f8
ENDCHAR
STARTCHAR yacute
ENCODING 253
SWIDTH 567 0
DWIDTH 19 0
BBX 20 31 0 -7
BITMAP
001f00
003e00
003c00
007800
007000
00e000
000000
000000
ffc7f0
ffc7f0
3f01c0
1f81c0
1f8380
0f8380
0fc700
0fc700
07e600
07ee00
03ec00
03fc00
01fc00
01f800
00f800
00f000
007000
10e000
70e000
7dc000
ff8000
7f0000
3c0000
ENDCHAR
STARTCHAR thorn
ENCODING 254
SWIDTH 667 0
DWIDTH 22 0
BBX 20 31 1 -7
BITMAP
1e0000
fe0000
fe0000
3e0000
3e0000
3e0000
3e0000
3e0000
3e1f00
3effc0
3fffe0
3e0fe0
3e07f0
3e03f0
3e03f0
3e03f0
3e03f0
3e03f0
3e03e0
3e07e0
3e0fc0
3e1fc0
3fff00
3ffc00
3e0000
3e0000
3e0000
3e0000
3e0000
ffc000
ffc000
ENDCHAR
STARTCHAR ydieresis
ENCODING 255
SWIDTH 567 0
DWIDTH 19 0
BBX 20 31 0 -7
BITMAP
0e0e00
1f1f00
1f1f00
1f1f00
0e0e00
000000
000000
000000
ffc7f0
ffc7f0
3f01c0
1f81c0
1f8380
0f8380
0fc700
0fc700
07e600
07ee00
03ec00
03fc00
01fc00
01f800
00f800
00f000
007000
10e000
70e000
7dc000
ff8000
7f0000
3c0000
ENDCHAR
ENDFONT
