STARTFONT 2.1
COMMENT $Xorg: charR14.bdf,v 1.3 2000/08/17 19:42:54 cpqbld Exp $
COMMENT  
COMMENT  Copyright 1988 Bitstream, Inc., Cambridge, Massachusetts, USA
COMMENT  Bitstream and Charter are registered trademarks of Bitstream, Inc.
COMMENT  
COMMENT  The names "Bitstream" and "Charter" are registered trademarks of
COMMENT  Bitstream, Inc.  Permission to use these trademarks is hereby
COMMENT  granted only in association with the images described in this file.
COMMENT  
COMMENT  Permission to use, copy, modify, and distribute this software and
COMMENT  its documentation for any purpose and without fee is hereby
COMMENT  granted, provided that the above copyright notice appear in all
COMMENT  copies and that both that copyright notice and this permission
COMMENT  notice appear in supporting documentation, and that the name of
COMMENT  Bitstream not be used in advertising or publicity pertaining to
COMMENT  distribution of the software without specific, written prior
COMMENT  permission.  Bitstream makes no representations about the
COMMENT  suitability of this software for any purpose.  It is provided "as
COMMENT  is" without express or implied warranty.
COMMENT  
COMMENT  BITSTREAM DISCLAIMS ALL WARRANTIES WITH REGARD TO THIS SOFTWARE,
COMMENT  INCLUDING ALL IMPLIED WARRANTIES OF MERCHANTABILITY AND FITNESS, IN
COMMENT  NO EVENT SHALL BITSTREAM BE LIABLE FOR ANY SPECIAL, INDIRECT OR
COMMENT  CONSEQUENTIAL DAMAGES OR ANY DAMAGES WHATSOEVER RESULTING FROM LOSS
COMMENT  OF USE, DATA OR PROFITS, WHETHER IN AN ACTION OF CONTRACT,
COMMENT  NEGLIGENCE OR OTHER TORTIOUS ACTION, ARISING OUT OF OR IN
COMMENT  CONNECTION WITH THE USE OR PERFORMANCE OF THIS SOFTWARE.
COMMENT  
COMMENT  
COMMENT Fontware CVTBDF v1.0
FONT -Bitstream-Charter-Medium-R-Normal--19-140-100-100-P-106-ISO8859-1
SIZE 14 100 100
FONTBOUNDINGBOX 19 23 -1 -5
STARTPROPERTIES 22
COMMENT Begin LogicalFontDescription
FONTNAME_REGISTRY ""
FAMILY_NAME "Charter"
FOUNDRY "Bitstream"
WEIGHT_NAME "Medium"
SETWIDTH_NAME "Normal"
SLANT "R"
ADD_STYLE_NAME ""
PIXEL_SIZE 19
POINT_SIZE 140
RESOLUTION_X 100
RESOLUTION_Y 100
SPACING "P"
AVERAGE_WIDTH 106
CHARSET_REGISTRY "ISO8859"
CHARSET_ENCODING "1"
COMMENT END LogicalFontDescription
FONT_DESCENT 5
FONT_ASCENT 18
CAP_HEIGHT 13
X_HEIGHT 9
CHARSET_COLLECTIONS "ASCII ISOLATIN1"
FACE_NAME "Bitstream Charter Roman"
COPYRIGHT "Copyright 1987 by Bitstream Inc. Charter Registered trademark of Bitstream Inc."
COMMENT ****** end of font properties
ENDPROPERTIES
CHARS 191
STARTCHAR space
ENCODING 32
SWIDTH 278 0
DWIDTH 5 0
BBX 1 1 0 0
BITMAP
00
ENDCHAR
STARTCHAR exclam
ENCODING 33
SWIDTH 338 0
DWIDTH 7 0
BBX 2 13 3 0
BITMAP
c0
c0
c0
c0
c0
c0
c0
c0
c0
40
00
c0
c0
ENDCHAR
STARTCHAR quotedbl
ENCODING 34
SWIDTH 331 0
DWIDTH 7 0
BBX 5 6 1 7
BITMAP
d8
d8
d8
d8
48
48
ENDCHAR
STARTCHAR numbersign
ENCODING 35
SWIDTH 745 0
DWIDTH 14 0
BBX 12 14 1 -1
BITMAP
0220
0440
0440
0440
7ff0
0880
0880
1100
ffe0
1100
2200
2200
2200
4400
ENDCHAR
STARTCHAR dollar
ENCODING 36
SWIDTH 556 0
DWIDTH 11 0
BBX 9 16 1 -2
BITMAP
0800
1f00
6900
c900
c800
c800
7800
3e00
0f00
0980
8980
8980
8b00
fc00
0800
0800
ENDCHAR
STARTCHAR percent
ENCODING 37
SWIDTH 852 0
DWIDTH 16 0
BBX 14 13 1 0
BITMAP
7020
5820
8840
88c0
8880
8938
8b44
7244
0444
0444
0844
102c
1038
ENDCHAR
STARTCHAR ampersand
ENCODING 38
SWIDTH 704 0
DWIDTH 14 0
BBX 13 13 1 0
BITMAP
1e00
3300
6180
6180
3300
1e00
3c78
6620
c320
c1a0
e0c0
71e0
3e38
ENDCHAR
STARTCHAR quoteright
ENCODING 39
SWIDTH 201 0
DWIDTH 4 0
BBX 2 5 1 8
BITMAP
c0
c0
40
40
80
ENDCHAR
STARTCHAR parenleft
ENCODING 40
SWIDTH 417 0
DWIDTH 8 0
BBX 6 16 2 -3
BITMAP
0c
10
20
60
40
c0
c0
c0
c0
c0
c0
40
60
20
10
0c
ENDCHAR
STARTCHAR parenright
ENCODING 41
SWIDTH 417 0
DWIDTH 8 0
BBX 6 16 0 -3
BITMAP
c0
20
10
18
08
0c
0c
0c
0c
0c
0c
08
18
10
20
c0
ENDCHAR
STARTCHAR asterisk
ENCODING 42
SWIDTH 500 0
DWIDTH 10 0
BBX 8 7 1 6
BITMAP
0800
1800
db00
7e00
1800
2400
2600
ENDCHAR
STARTCHAR plus
ENCODING 43
SWIDTH 833 0
DWIDTH 16 0
BBX 11 11 3 0
BITMAP
0400
0400
0400
0400
0400
ffe0
0400
0400
0400
0400
0400
ENDCHAR
STARTCHAR comma
ENCODING 44
SWIDTH 278 0
DWIDTH 5 0
BBX 2 6 1 -4
BITMAP
c0
c0
40
40
80
80
ENDCHAR
STARTCHAR hyphen
ENCODING 45
SWIDTH 319 0
DWIDTH 6 0
BBX 4 1 1 4
BITMAP
f0
ENDCHAR
STARTCHAR period
ENCODING 46
SWIDTH 278 0
DWIDTH 5 0
BBX 2 2 2 0
BITMAP
c0
c0
ENDCHAR
STARTCHAR slash
ENCODING 47
SWIDTH 481 0
DWIDTH 9 0
BBX 10 15 -1 -2
BITMAP
00c0
0080
0180
0100
0200
0200
0400
0c00
0800
1000
1000
2000
6000
4000
c000
ENDCHAR
STARTCHAR zero
ENCODING 48
SWIDTH 556 0
DWIDTH 11 0
BBX 9 13 1 0
BITMAP
1c00
2200
6300
4180
c180
c180
c180
c180
c180
4180
6300
2200
1c00
ENDCHAR
STARTCHAR one
ENCODING 49
SWIDTH 556 0
DWIDTH 11 0
BBX 6 13 2 0
BITMAP
38
d8
18
18
18
18
18
18
18
18
18
18
7c
ENDCHAR
STARTCHAR two
ENCODING 50
SWIDTH 556 0
DWIDTH 11 0
BBX 9 13 1 0
BITMAP
3e00
4300
c180
c180
0180
0180
0300
0600
0c00
1800
3080
4080
ff80
ENDCHAR
STARTCHAR three
ENCODING 51
SWIDTH 556 0
DWIDTH 11 0
BBX 9 13 1 0
BITMAP
3e00
4700
c300
4300
0300
0600
1c00
0300
0180
0180
c180
c300
7c00
ENDCHAR
STARTCHAR four
ENCODING 52
SWIDTH 556 0
DWIDTH 11 0
BBX 10 14 1 -1
BITMAP
0300
0700
0f00
0b00
1300
2300
6300
c300
ffc0
0300
0300
0300
0300
0300
ENDCHAR
STARTCHAR five
ENCODING 53
SWIDTH 556 0
DWIDTH 11 0
BBX 10 13 0 0
BITMAP
7f80
6000
6000
6000
6000
7f00
0380
00c0
00c0
00c0
4180
e380
3e00
ENDCHAR
STARTCHAR six
ENCODING 54
SWIDTH 556 0
DWIDTH 11 0
BBX 9 13 1 0
BITMAP
0600
1800
3000
6000
4000
de00
e300
c180
c180
c180
4100
2300
1c00
ENDCHAR
STARTCHAR seven
ENCODING 55
SWIDTH 556 0
DWIDTH 11 0
BBX 9 14 1 -1
BITMAP
ff80
8180
8100
0300
0200
0600
0400
0c00
0800
1000
1000
2000
2000
6000
ENDCHAR
STARTCHAR eight
ENCODING 56
SWIDTH 556 0
DWIDTH 11 0
BBX 9 13 1 0
BITMAP
1e00
2300
6100
6100
6300
3200
1e00
6300
c180
c180
c180
6300
1e00
ENDCHAR
STARTCHAR nine
ENCODING 57
SWIDTH 556 0
DWIDTH 11 0
BBX 9 14 1 -1
BITMAP
1c00
6300
4100
c180
c180
c180
c180
6380
3f00
0200
0600
0c00
1800
6000
ENDCHAR
STARTCHAR colon
ENCODING 58
SWIDTH 319 0
DWIDTH 6 0
BBX 2 9 2 0
BITMAP
c0
c0
00
00
00
00
00
c0
c0
ENDCHAR
STARTCHAR semicolon
ENCODING 59
SWIDTH 319 0
DWIDTH 6 0
BBX 3 13 1 -4
BITMAP
60
60
00
00
00
00
00
60
60
20
20
40
c0
ENDCHAR
STARTCHAR less
ENCODING 60
SWIDTH 833 0
DWIDTH 16 0
BBX 11 10 2 0
BITMAP
0020
01c0
0700
3800
e000
e000
3800
0700
01c0
0020
ENDCHAR
STARTCHAR equal
ENCODING 61
SWIDTH 833 0
DWIDTH 16 0
BBX 11 5 3 3
BITMAP
ffe0
0000
0000
0000
ffe0
ENDCHAR
STARTCHAR greater
ENCODING 62
SWIDTH 833 0
DWIDTH 16 0
BBX 11 10 3 0
BITMAP
8000
7000
1c00
0380
00e0
00e0
0380
1c00
7000
8000
ENDCHAR
STARTCHAR question
ENCODING 63
SWIDTH 486 0
DWIDTH 9 0
BBX 7 13 1 0
BITMAP
78
cc
c6
06
06
04
08
10
20
20
00
30
30
ENDCHAR
STARTCHAR at
ENCODING 64
SWIDTH 942 0
DWIDTH 18 0
BBX 15 16 2 -3
BITMAP
03e0
0c18
1004
6004
41d2
4332
8622
8c22
8c22
8c64
8ce8
c770
6000
3000
1c18
07e0
ENDCHAR
STARTCHAR A
ENCODING 65
SWIDTH 639 0
DWIDTH 13 0
BBX 13 13 0 0
BITMAP
0200
0700
0700
0500
0980
0880
10c0
1fc0
1040
2060
2060
6030
f0f8
ENDCHAR
STARTCHAR B
ENCODING 66
SWIDTH 604 0
DWIDTH 12 0
BBX 10 13 1 0
BITMAP
fe00
6380
6180
6180
6180
6300
7f00
6180
60c0
60c0
60c0
6180
fe00
ENDCHAR
STARTCHAR C
ENCODING 67
SWIDTH 632 0
DWIDTH 12 0
BBX 10 13 1 0
BITMAP
0f80
30c0
6040
6040
c000
c000
c000
c000
c000
6040
6040
3840
0f80
ENDCHAR
STARTCHAR D
ENCODING 68
SWIDTH 694 0
DWIDTH 13 0
BBX 11 13 1 0
BITMAP
fe00
6180
60c0
60c0
6060
6060
6060
6060
6060
60c0
60c0
6380
fe00
ENDCHAR
STARTCHAR E
ENCODING 69
SWIDTH 576 0
DWIDTH 11 0
BBX 9 13 1 0
BITMAP
ff00
6100
6100
6000
6200
6200
7e00
6200
6200
6000
6080
6080
ff80
ENDCHAR
STARTCHAR F
ENCODING 70
SWIDTH 537 0
DWIDTH 10 0
BBX 8 13 1 0
BITMAP
ff00
6100
6100
6000
6200
6200
7e00
6200
6200
6000
6000
6000
f000
ENDCHAR
STARTCHAR G
ENCODING 71
SWIDTH 694 0
DWIDTH 13 0
BBX 11 13 1 0
BITMAP
0fc0
30c0
60c0
6040
c000
c000
c000
c1e0
c0c0
60c0
60c0
30c0
0f80
ENDCHAR
STARTCHAR H
ENCODING 72
SWIDTH 738 0
DWIDTH 14 0
BBX 12 13 1 0
BITMAP
f0f0
6060
6060
6060
6060
6060
7fe0
6060
6060
6060
6060
6060
f0f0
ENDCHAR
STARTCHAR I
ENCODING 73
SWIDTH 324 0
DWIDTH 6 0
BBX 4 13 1 0
BITMAP
f0
60
60
60
60
60
60
60
60
60
60
60
f0
ENDCHAR
STARTCHAR J
ENCODING 74
SWIDTH 444 0
DWIDTH 9 0
BBX 8 13 0 0
BITMAP
1f00
0600
0600
0600
0600
0600
0600
0600
0600
8600
8600
8c00
f800
ENDCHAR
STARTCHAR K
ENCODING 75
SWIDTH 611 0
DWIDTH 12 0
BBX 11 13 1 0
BITMAP
f3e0
6080
6100
6200
6400
6800
7c00
6c00
6600
6300
6380
6180
f0e0
ENDCHAR
STARTCHAR L
ENCODING 76
SWIDTH 520 0
DWIDTH 10 0
BBX 9 13 1 0
BITMAP
f000
6000
6000
6000
6000
6000
6000
6000
6000
6080
6080
6080
ff80
ENDCHAR
STARTCHAR M
ENCODING 77
SWIDTH 866 0
DWIDTH 17 0
BBX 15 13 1 0
BITMAP
f01e
701c
702c
582c
582c
484c
4c4c
4ccc
468c
468c
430c
430c
f31e
ENDCHAR
STARTCHAR N
ENCODING 78
SWIDTH 713 0
DWIDTH 14 0
BBX 12 13 1 0
BITMAP
e0f0
7020
7020
5820
4c20
4e20
4620
4320
41a0
41a0
40e0
4060
f060
ENDCHAR
STARTCHAR O
ENCODING 79
SWIDTH 731 0
DWIDTH 14 0
BBX 12 13 1 0
BITMAP
0f00
30c0
6060
6060
c030
c030
c030
c030
c030
6060
6060
30c0
0f00
ENDCHAR
STARTCHAR P
ENCODING 80
SWIDTH 558 0
DWIDTH 11 0
BBX 9 13 1 0
BITMAP
fe00
6300
6180
6180
6180
6180
6300
7c00
6000
6000
6000
6000
f000
ENDCHAR
STARTCHAR Q
ENCODING 81
SWIDTH 731 0
DWIDTH 14 0
BBX 12 17 1 -4
BITMAP
0f00
30c0
6060
6060
c030
c030
c030
c030
c030
6060
6060
30c0
0f80
0600
0600
0300
03e0
ENDCHAR
STARTCHAR R
ENCODING 82
SWIDTH 646 0
DWIDTH 13 0
BBX 12 13 1 0
BITMAP
ff00
6380
60c0
60c0
60c0
6180
7e00
6380
6180
6080
60c0
60c0
f070
ENDCHAR
STARTCHAR S
ENCODING 83
SWIDTH 556 0
DWIDTH 11 0
BBX 9 13 1 0
BITMAP
3f00
6100
c100
c000
e000
7000
3e00
0700
0180
8180
8180
c300
fc00
ENDCHAR
STARTCHAR T
ENCODING 84
SWIDTH 597 0
DWIDTH 12 0
BBX 12 13 0 0
BITMAP
fff0
8610
8610
0600
0600
0600
0600
0600
0600
0600
0600
0600
1f80
ENDCHAR
STARTCHAR U
ENCODING 85
SWIDTH 694 0
DWIDTH 13 0
BBX 11 13 1 0
BITMAP
f1e0
60c0
60c0
60c0
60c0
60c0
60c0
60c0
60c0
60c0
60c0
3180
1e00
ENDCHAR
STARTCHAR V
ENCODING 86
SWIDTH 618 0
DWIDTH 12 0
BBX 13 13 0 0
BITMAP
f878
6030
3020
3020
1040
1840
18c0
0c80
0c80
0500
0700
0700
0200
ENDCHAR
STARTCHAR W
ENCODING 87
SWIDTH 928 0
DWIDTH 18 0
BBX 18 13 0 0
BITMAP
f8c7c0
60c100
30e100
30e100
312300
112200
193200
193600
0a1400
0e1400
0e1c00
040800
040800
ENDCHAR
STARTCHAR X
ENCODING 88
SWIDTH 600 0
DWIDTH 12 0
BBX 12 13 0 0
BITMAP
f8f0
3040
18c0
1880
0d00
0600
0600
0f00
0980
1180
20c0
60c0
f1f0
ENDCHAR
STARTCHAR Y
ENCODING 89
SWIDTH 586 0
DWIDTH 11 0
BBX 12 13 0 0
BITMAP
f0f0
6020
3040
1080
1880
0d00
0f00
0600
0600
0600
0600
0600
1f80
ENDCHAR
STARTCHAR Z
ENCODING 90
SWIDTH 586 0
DWIDTH 11 0
BBX 9 13 1 0
BITMAP
ff80
c180
8300
0600
0600
0c00
0800
1800
3000
3080
6080
c080
ff80
ENDCHAR
STARTCHAR bracketleft
ENCODING 91
SWIDTH 421 0
DWIDTH 8 0
BBX 5 16 2 -3
BITMAP
f8
c0
c0
c0
c0
c0
c0
c0
c0
c0
c0
c0
c0
c0
c0
f8
ENDCHAR
STARTCHAR backslash
ENCODING 92
SWIDTH 481 0
DWIDTH 10 0
BBX 10 15 0 -2
BITMAP
c000
4000
2000
2000
1000
1800
0800
0400
0400
0200
0200
0100
0180
0080
00c0
ENDCHAR
STARTCHAR bracketright
ENCODING 93
SWIDTH 421 0
DWIDTH 8 0
BBX 5 16 1 -3
BITMAP
f8
18
18
18
18
18
18
18
18
18
18
18
18
18
18
f8
ENDCHAR
STARTCHAR asciicircum
ENCODING 94
SWIDTH 1000 0
DWIDTH 19 0
BBX 11 5 4 8
BITMAP
0e00
1b00
3180
60c0
8020
ENDCHAR
STARTCHAR underscore
ENCODING 95
SWIDTH 500 0
DWIDTH 10 0
BBX 10 1 0 -5
BITMAP
ffc0
ENDCHAR
STARTCHAR quoteleft
ENCODING 96
SWIDTH 201 0
DWIDTH 4 0
BBX 2 5 1 8
BITMAP
40
80
80
c0
c0
ENDCHAR
STARTCHAR a
ENCODING 97
SWIDTH 507 0
DWIDTH 10 0
BBX 9 9 1 0
BITMAP
3c00
6600
0600
0e00
3600
c600
c600
ce00
7780
ENDCHAR
STARTCHAR b
ENCODING 98
SWIDTH 539 0
DWIDTH 11 0
BBX 9 13 1 0
BITMAP
e000
6000
6000
6000
7e00
6300
6180
6180
6180
6180
6100
6200
7c00
ENDCHAR
STARTCHAR c
ENCODING 99
SWIDTH 446 0
DWIDTH 9 0
BBX 7 9 1 0
BITMAP
1c
26
46
c0
c0
c0
c0
62
3c
ENDCHAR
STARTCHAR d
ENCODING 100
SWIDTH 565 0
DWIDTH 11 0
BBX 9 13 1 0
BITMAP
0700
0300
0300
0300
1f00
2300
4300
c300
c300
c300
c300
6700
3b80
ENDCHAR
STARTCHAR e
ENCODING 101
SWIDTH 491 0
DWIDTH 10 0
BBX 8 9 1 0
BITMAP
1c00
6200
c300
ff00
c000
c000
4000
6100
3e00
ENDCHAR
STARTCHAR f
ENCODING 102
SWIDTH 321 0
DWIDTH 6 0
BBX 6 13 1 0
BITMAP
1c
24
60
60
f8
60
60
60
60
60
60
60
f0
ENDCHAR
STARTCHAR g
ENCODING 103
SWIDTH 523 0
DWIDTH 10 0
BBX 9 14 1 -5
BITMAP
3c00
6780
c300
c300
6600
3c00
2000
2000
3e00
c380
8180
c180
c300
7c00
ENDCHAR
STARTCHAR h
ENCODING 104
SWIDTH 564 0
DWIDTH 11 0
BBX 9 13 1 0
BITMAP
e000
6000
6000
6000
7e00
6300
6300
6300
6300
6300
6300
6300
f780
ENDCHAR
STARTCHAR i
ENCODING 105
SWIDTH 280 0
DWIDTH 5 0
BBX 4 13 1 0
BITMAP
60
60
00
00
e0
60
60
60
60
60
60
60
f0
ENDCHAR
STARTCHAR j
ENCODING 106
SWIDTH 266 0
DWIDTH 6 0
BBX 5 18 -1 -5
BITMAP
18
18
00
00
38
18
18
18
18
18
18
18
18
18
18
10
d0
e0
ENDCHAR
STARTCHAR k
ENCODING 107
SWIDTH 518 0
DWIDTH 10 0
BBX 9 13 1 0
BITMAP
e000
6000
6000
6000
6700
6200
6400
6800
7800
6c00
6600
6300
f380
ENDCHAR
STARTCHAR l
ENCODING 108
SWIDTH 282 0
DWIDTH 5 0
BBX 4 13 1 0
BITMAP
e0
60
60
60
60
60
60
60
60
60
60
60
f0
ENDCHAR
STARTCHAR m
ENCODING 109
SWIDTH 843 0
DWIDTH 16 0
BBX 14 9 1 0
BITMAP
fef0
6318
6318
6318
6318
6318
6318
6318
f7bc
ENDCHAR
STARTCHAR n
ENCODING 110
SWIDTH 569 0
DWIDTH 11 0
BBX 9 9 1 0
BITMAP
ff00
6300
6300
6300
6300
6300
6300
6300
f780
ENDCHAR
STARTCHAR o
ENCODING 111
SWIDTH 539 0
DWIDTH 10 0
BBX 8 9 1 0
BITMAP
1800
6600
4200
c300
c300
c300
4200
6600
1800
ENDCHAR
STARTCHAR p
ENCODING 112
SWIDTH 551 0
DWIDTH 11 0
BBX 9 14 1 -5
BITMAP
ff00
6300
6180
6180
6180
6180
6100
6200
7c00
6000
6000
6000
6000
f000
ENDCHAR
STARTCHAR q
ENCODING 113
SWIDTH 531 0
DWIDTH 10 0
BBX 9 14 1 -5
BITMAP
1f00
2300
4300
c300
c300
c300
c300
6300
3f00
0300
0300
0300
0300
0780
ENDCHAR
STARTCHAR r
ENCODING 114
SWIDTH 382 0
DWIDTH 7 0
BBX 6 9 1 0
BITMAP
ec
70
60
60
60
60
60
60
f0
ENDCHAR
STARTCHAR s
ENCODING 115
SWIDTH 400 0
DWIDTH 8 0
BBX 6 9 1 0
BITMAP
3c
4c
cc
e0
38
1c
8c
88
f0
ENDCHAR
STARTCHAR t
ENCODING 116
SWIDTH 335 0
DWIDTH 6 0
BBX 5 11 1 0
BITMAP
20
60
f8
60
60
60
60
60
60
60
38
ENDCHAR
STARTCHAR u
ENCODING 117
SWIDTH 569 0
DWIDTH 11 0
BBX 9 9 1 0
BITMAP
e700
6300
6300
6300
6300
6300
6300
6300
3f80
ENDCHAR
STARTCHAR v
ENCODING 118
SWIDTH 494 0
DWIDTH 10 0
BBX 10 9 0 0
BITMAP
f3c0
6080
2100
2100
3200
1200
1c00
1c00
0800
ENDCHAR
STARTCHAR w
ENCODING 119
SWIDTH 771 0
DWIDTH 15 0
BBX 15 9 0 0
BITMAP
f19e
6184
2388
32c8
32c8
1450
1c50
1c70
0820
ENDCHAR
STARTCHAR x
ENCODING 120
SWIDTH 504 0
DWIDTH 10 0
BBX 10 9 0 0
BITMAP
fbc0
3100
3200
1c00
0c00
1600
3300
6300
f3c0
ENDCHAR
STARTCHAR y
ENCODING 121
SWIDTH 495 0
DWIDTH 10 0
BBX 10 14 0 -5
BITMAP
f1c0
6080
2100
3100
3100
1200
1a00
0c00
0c00
0c00
0800
0800
5000
6000
ENDCHAR
STARTCHAR z
ENCODING 122
SWIDTH 468 0
DWIDTH 9 0
BBX 7 9 1 0
BITMAP
fe
84
8c
18
30
20
62
c2
fe
ENDCHAR
STARTCHAR braceleft
ENCODING 123
SWIDTH 486 0
DWIDTH 9 0
BBX 7 16 1 -3
BITMAP
0e
18
10
10
10
10
30
c0
30
10
10
10
10
10
18
0e
ENDCHAR
STARTCHAR bar
ENCODING 124
SWIDTH 500 0
DWIDTH 10 0
BBX 1 19 5 -5
BITMAP
80
80
80
80
80
80
80
80
80
80
80
80
80
80
80
80
80
80
80
ENDCHAR
STARTCHAR braceright
ENCODING 125
SWIDTH 486 0
DWIDTH 9 0
BBX 7 16 1 -3
BITMAP
e0
30
10
10
10
10
18
06
18
10
10
10
10
10
30
e0
ENDCHAR
STARTCHAR c0126
ENCODING 126
SWIDTH 1000 0
DWIDTH 19 0
BBX 11 2 4 10
BITMAP
3c60
c780
ENDCHAR
STARTCHAR space
ENCODING 160
SWIDTH 278 0
DWIDTH 5 0
BBX 1 1 0 0
BITMAP
00
ENDCHAR
STARTCHAR exclamdown
ENCODING 161
SWIDTH 338 0
DWIDTH 7 0
BBX 2 13 3 0
BITMAP
c0
c0
00
40
c0
c0
c0
c0
c0
c0
c0
c0
c0
ENDCHAR
STARTCHAR cent
ENCODING 162
SWIDTH 556 0
DWIDTH 11 0
BBX 9 13 1 -2
BITMAP
0400
0400
1f80
3480
6480
c400
c400
c400
6480
6480
1f80
0400
0400
ENDCHAR
STARTCHAR sterling
ENCODING 163
SWIDTH 556 0
DWIDTH 11 0
BBX 9 13 1 0
BITMAP
0f00
1980
1180
3000
3000
3000
3000
7e00
3000
3000
2000
6000
ff80
ENDCHAR
STARTCHAR currency
ENCODING 164
SWIDTH 606 0
DWIDTH 12 0
BBX 10 10 1 3
BITMAP
8040
5e80
2100
4080
4080
4080
4080
2100
5e80
8040
ENDCHAR
STARTCHAR yen
ENCODING 165
SWIDTH 556 0
DWIDTH 11 0
BBX 11 13 0 0
BITMAP
f1e0
6040
2080
3180
3100
fbe0
1a00
0c00
ffe0
0c00
0c00
0c00
1f00
ENDCHAR
STARTCHAR brokenbar
ENCODING 166
SWIDTH 500 0
DWIDTH 10 0
BBX 1 17 5 -4
BITMAP
80
80
80
80
80
80
80
00
00
00
80
80
80
80
80
80
80
ENDCHAR
STARTCHAR section
ENCODING 167
SWIDTH 500 0
DWIDTH 10 0
BBX 8 16 1 -3
BITMAP
3e00
6200
c200
6000
3800
3c00
4700
c300
c300
6600
3800
0e00
0600
4300
4600
7c00
ENDCHAR
STARTCHAR dieresis
ENCODING 168
SWIDTH 500 0
DWIDTH 10 0
BBX 6 2 2 11
BITMAP
cc
cc
ENDCHAR
STARTCHAR copyright
ENCODING 169
SWIDTH 900 0
DWIDTH 17 0
BBX 15 15 1 -2
BITMAP
07c0
1830
2008
43e4
4e24
8c22
9802
9802
9802
8c22
4e24
43e4
2008
1830
07c0
ENDCHAR
STARTCHAR ordfeminine
ENCODING 170
SWIDTH 380 0
DWIDTH 7 0
BBX 6 7 1 6
BITMAP
70
c8
18
68
88
98
6c
ENDCHAR
STARTCHAR guillemotleft
ENCODING 171
SWIDTH 442 0
DWIDTH 9 0
BBX 7 7 1 1
BITMAP
22
66
cc
88
cc
66
22
ENDCHAR
STARTCHAR logicalnot
ENCODING 172
SWIDTH 833 0
DWIDTH 16 0
BBX 11 5 3 3
BITMAP
ffe0
0020
0020
0020
0020
ENDCHAR
STARTCHAR hyphen
ENCODING 173
SWIDTH 319 0
DWIDTH 6 0
BBX 4 1 1 4
BITMAP
f0
ENDCHAR
STARTCHAR registered
ENCODING 174
SWIDTH 900 0
DWIDTH 17 0
BBX 15 15 1 -2
BITMAP
07c0
1830
2008
4fc4
44e4
8462
84c2
8782
84c2
8462
4464
4e3c
2008
1830
07c0
ENDCHAR
STARTCHAR macron
ENCODING 175
SWIDTH 500 0
DWIDTH 10 0
BBX 6 1 2 11
BITMAP
fc
ENDCHAR
STARTCHAR degree
ENCODING 176
SWIDTH 329 0
DWIDTH 6 0
BBX 5 5 1 8
BITMAP
70
88
88
88
70
ENDCHAR
STARTCHAR plusminus
ENCODING 177
SWIDTH 833 0
DWIDTH 16 0
BBX 11 10 3 0
BITMAP
0400
0400
0400
ffe0
0400
0400
0400
0000
0000
ffe0
ENDCHAR
STARTCHAR twosuperior
ENCODING 178
SWIDTH 367 0
DWIDTH 7 0
BBX 6 8 1 5
BITMAP
78
8c
84
04
08
30
44
fc
ENDCHAR
STARTCHAR threesuperior
ENCODING 179
SWIDTH 367 0
DWIDTH 7 0
BBX 6 8 1 5
BITMAP
78
8c
08
30
0c
04
8c
70
ENDCHAR
STARTCHAR acute
ENCODING 180
SWIDTH 500 0
DWIDTH 10 0
BBX 4 4 4 9
BITMAP
30
60
40
80
ENDCHAR
STARTCHAR mu
ENCODING 181
SWIDTH 548 0
DWIDTH 10 0
BBX 11 12 -1 -4
BITMAP
3080
3180
2180
2100
2100
6320
6340
5dc0
4000
c000
c000
8000
ENDCHAR
STARTCHAR paragraph
ENCODING 182
SWIDTH 484 0
DWIDTH 9 0
BBX 9 15 0 -2
BITMAP
1f80
7d00
fd00
fd00
fd00
fd00
7d00
3d00
0100
0100
0100
0100
0100
0100
0100
ENDCHAR
STARTCHAR periodcentered
ENCODING 183
SWIDTH 278 0
DWIDTH 5 0
BBX 2 2 2 5
BITMAP
c0
c0
ENDCHAR
STARTCHAR cedilla
ENCODING 184
SWIDTH 500 0
DWIDTH 10 0
BBX 4 5 3 -5
BITMAP
40
70
10
10
e0
ENDCHAR
STARTCHAR onesuperior
ENCODING 185
SWIDTH 367 0
DWIDTH 7 0
BBX 3 8 2 5
BITMAP
40
c0
40
40
40
40
40
e0
ENDCHAR
STARTCHAR ordmasculine
ENCODING 186
SWIDTH 405 0
DWIDTH 8 0
BBX 7 7 1 6
BITMAP
38
44
82
82
82
44
38
ENDCHAR
STARTCHAR guillemotright
ENCODING 187
SWIDTH 442 0
DWIDTH 9 0
BBX 7 7 1 1
BITMAP
88
cc
66
22
66
cc
88
ENDCHAR
STARTCHAR onequarter
ENCODING 188
SWIDTH 867 0
DWIDTH 17 0
BBX 15 14 2 0
BITMAP
4000
c020
4040
40c0
4080
4100
4104
e20c
0414
0424
0844
087e
1004
2004
ENDCHAR
STARTCHAR onehalf
ENCODING 189
SWIDTH 867 0
DWIDTH 17 0
BBX 15 14 2 0
BITMAP
4000
c020
4040
40c0
4080
4100
413c
e246
0442
0402
0804
0818
1022
207e
ENDCHAR
STARTCHAR threequarters
ENCODING 190
SWIDTH 867 0
DWIDTH 17 0
BBX 16 14 1 0
BITMAP
780000
8c1000
082000
306000
0c4000
048000
8c8200
710600
020a00
021200
042200
043f00
080200
100200
ENDCHAR
STARTCHAR questiondown
ENCODING 191
SWIDTH 486 0
DWIDTH 9 0
BBX 7 13 1 0
BITMAP
18
18
00
08
08
10
20
40
c0
c0
c6
66
3c
ENDCHAR
STARTCHAR Agrave
ENCODING 192
SWIDTH 639 0
DWIDTH 13 0
BBX 13 17 0 0
BITMAP
1800
0c00
0400
0200
0200
0700
0700
0500
0980
0880
10c0
1fc0
1040
2060
2060
6030
f0f8
ENDCHAR
STARTCHAR Aacute
ENCODING 193
SWIDTH 639 0
DWIDTH 13 0
BBX 13 17 0 0
BITMAP
0180
0300
0200
0400
0200
0700
0700
0500
0980
0880
10c0
1fc0
1040
2060
2060
6030
f0f8
ENDCHAR
STARTCHAR Acircumflex
ENCODING 194
SWIDTH 639 0
DWIDTH 13 0
BBX 13 17 0 0
BITMAP
0600
0f00
0900
1080
0200
0700
0700
0500
0980
0880
10c0
1fc0
1040
2060
2060
6030
f0f8
ENDCHAR
STARTCHAR Atilde
ENCODING 195
SWIDTH 639 0
DWIDTH 13 0
BBX 13 17 0 0
BITMAP
0880
1f80
1100
0000
0200
0700
0700
0500
0980
0880
10c0
1fc0
1040
2060
2060
6030
f0f8
ENDCHAR
STARTCHAR Adieresis
ENCODING 196
SWIDTH 639 0
DWIDTH 13 0
BBX 13 17 0 0
BITMAP
1980
1980
0000
0000
0200
0700
0700
0500
0980
0880
10c0
1fc0
1040
2060
2060
6030
f0f8
ENDCHAR
STARTCHAR Aring
ENCODING 197
SWIDTH 639 0
DWIDTH 13 0
BBX 13 18 0 0
BITMAP
0600
0900
0900
0600
0000
0200
0700
0700
0500
0980
0880
10c0
1fc0
1040
2060
2060
6030
f0f8
ENDCHAR
STARTCHAR AE
ENCODING 198
SWIDTH 866 0
DWIDTH 17 0
BBX 17 13 -1 0
BITMAP
03ff00
00e100
016100
026000
026200
046200
087e00
0fe200
106000
106000
206080
606080
f0ff80
ENDCHAR
STARTCHAR Ccedilla
ENCODING 199
SWIDTH 632 0
DWIDTH 12 0
BBX 10 18 1 -5
BITMAP
0f80
30c0
6040
6040
c000
c000
c000
c000
c000
6040
6040
3840
0f80
0400
0700
0100
0100
0e00
ENDCHAR
STARTCHAR Egrave
ENCODING 200
SWIDTH 576 0
DWIDTH 11 0
BBX 9 17 1 0
BITMAP
3000
1800
0800
0400
ff00
6100
6100
6000
6200
6200
7e00
6200
6200
6000
6080
6080
ff80
ENDCHAR
STARTCHAR Eacute
ENCODING 201
SWIDTH 576 0
DWIDTH 11 0
BBX 9 17 1 0
BITMAP
0300
0600
0400
0800
ff00
6100
6100
6000
6200
6200
7e00
6200
6200
6000
6080
6080
ff80
ENDCHAR
STARTCHAR Ecircumflex
ENCODING 202
SWIDTH 576 0
DWIDTH 11 0
BBX 9 17 1 0
BITMAP
0c00
1e00
1200
2100
ff00
6100
6100
6000
6200
6200
7e00
6200
6200
6000
6080
6080
ff80
ENDCHAR
STARTCHAR Edieresis
ENCODING 203
SWIDTH 576 0
DWIDTH 11 0
BBX 9 17 1 0
BITMAP
3300
3300
0000
0000
ff00
6100
6100
6000
6200
6200
7e00
6200
6200
6000
6080
6080
ff80
ENDCHAR
STARTCHAR Igrave
ENCODING 204
SWIDTH 324 0
DWIDTH 6 0
BBX 5 17 0 0
BITMAP
c0
60
20
10
78
30
30
30
30
30
30
30
30
30
30
30
78
ENDCHAR
STARTCHAR Iacute
ENCODING 205
SWIDTH 324 0
DWIDTH 6 0
BBX 5 17 1 0
BITMAP
18
30
20
40
f0
60
60
60
60
60
60
60
60
60
60
60
f0
ENDCHAR
STARTCHAR Icircumflex
ENCODING 206
SWIDTH 324 0
DWIDTH 6 0
BBX 6 17 0 0
BITMAP
30
78
48
84
78
30
30
30
30
30
30
30
30
30
30
30
78
ENDCHAR
STARTCHAR Idieresis
ENCODING 207
SWIDTH 324 0
DWIDTH 6 0
BBX 6 17 0 0
BITMAP
cc
cc
00
00
78
30
30
30
30
30
30
30
30
30
30
30
78
ENDCHAR
STARTCHAR Eth
ENCODING 208
SWIDTH 694 0
DWIDTH 13 0
BBX 12 13 0 0
BITMAP
7f00
31c0
3060
3060
3030
3030
fe30
3030
3030
3020
3060
30c0
7f00
ENDCHAR
STARTCHAR Ntilde
ENCODING 209
SWIDTH 713 0
DWIDTH 14 0
BBX 12 17 1 0
BITMAP
0880
1f80
1100
0000
e0f0
7020
7020
5820
4c20
4e20
4620
4320
41a0
41a0
40e0
4060
f060
ENDCHAR
STARTCHAR Ograve
ENCODING 210
SWIDTH 731 0
DWIDTH 14 0
BBX 12 17 1 0
BITMAP
1800
0c00
0400
0200
0f00
30c0
6060
6060
c030
c030
c030
c030
c030
6060
6060
30c0
0f00
ENDCHAR
STARTCHAR Oacute
ENCODING 211
SWIDTH 731 0
DWIDTH 14 0
BBX 12 17 1 0
BITMAP
0180
0300
0200
0400
0f00
30c0
6060
6060
c030
c030
c030
c030
c030
6060
6060
30c0
0f00
ENDCHAR
STARTCHAR Ocircumflex
ENCODING 212
SWIDTH 731 0
DWIDTH 14 0
BBX 12 17 1 0
BITMAP
0600
0f00
0900
1080
0f00
30c0
6060
6060
c030
c030
c030
c030
c030
6060
6060
30c0
0f00
ENDCHAR
STARTCHAR Otilde
ENCODING 213
SWIDTH 731 0
DWIDTH 14 0
BBX 12 17 1 0
BITMAP
0880
1f80
1100
0000
0f00
30c0
6060
6060
c030
c030
c030
c030
c030
6060
6060
30c0
0f00
ENDCHAR
STARTCHAR Odieresis
ENCODING 214
SWIDTH 731 0
DWIDTH 14 0
BBX 12 17 1 0
BITMAP
1980
1980
0000
0000
0f00
30c0
6060
6060
c030
c030
c030
c030
c030
6060
6060
30c0
0f00
ENDCHAR
STARTCHAR multiply
ENCODING 215
SWIDTH 833 0
DWIDTH 16 0
BBX 10 10 3 0
BITMAP
8040
4080
2100
1200
0c00
0c00
1200
2100
4080
8040
ENDCHAR
STARTCHAR Oslash
ENCODING 216
SWIDTH 731 0
DWIDTH 14 0
BBX 12 15 1 -1
BITMAP
0020
0f40
30c0
60e0
6160
c130
c230
c430
c430
c830
6860
7060
30c0
2f00
4000
ENDCHAR
STARTCHAR Ugrave
ENCODING 217
SWIDTH 694 0
DWIDTH 13 0
BBX 11 17 1 0
BITMAP
1800
0c00
0400
0200
f1e0
60c0
60c0
60c0
60c0
60c0
60c0
60c0
60c0
60c0
60c0
3180
1e00
ENDCHAR
STARTCHAR Uacute
ENCODING 218
SWIDTH 694 0
DWIDTH 13 0
BBX 11 17 1 0
BITMAP
0180
0300
0200
0400
f1e0
60c0
60c0
60c0
60c0
60c0
60c0
60c0
60c0
60c0
60c0
3180
1e00
ENDCHAR
STARTCHAR Ucircumflex
ENCODING 219
SWIDTH 694 0
DWIDTH 13 0
BBX 11 17 1 0
BITMAP
0600
0f00
0900
1080
f1e0
60c0
60c0
60c0
60c0
60c0
60c0
60c0
60c0
60c0
60c0
3180
1e00
ENDCHAR
STARTCHAR Udieresis
ENCODING 220
SWIDTH 694 0
DWIDTH 13 0
BBX 11 17 1 0
BITMAP
1980
1980
0000
0000
f1e0
60c0
60c0
60c0
60c0
60c0
60c0
60c0
60c0
60c0
60c0
3180
1e00
ENDCHAR
STARTCHAR Yacute
ENCODING 221
SWIDTH 586 0
DWIDTH 11 0
BBX 12 17 0 0
BITMAP
0180
0300
0200
0400
f0f0
6020
3040
1080
1880
0d00
0f00
0600
0600
0600
0600
0600
1f80
ENDCHAR
STARTCHAR Thorn
ENCODING 222
SWIDTH 558 0
DWIDTH 11 0
BBX 9 13 1 0
BITMAP
f000
6000
7e00
6300
6180
6180
6180
6180
6300
7c00
6000
6000
f000
ENDCHAR
STARTCHAR germandbls
ENCODING 223
SWIDTH 609 0
DWIDTH 12 0
BBX 10 13 1 0
BITMAP
0e00
1300
2100
6100
6300
6400
6400
6600
6380
60c0
64c0
6480
f700
ENDCHAR
STARTCHAR agrave
ENCODING 224
SWIDTH 507 0
DWIDTH 10 0
BBX 9 13 1 0
BITMAP
6000
3000
1000
0800
3c00
6600
0600
0e00
3600
c600
c600
ce00
7780
ENDCHAR
STARTCHAR aacute
ENCODING 225
SWIDTH 507 0
DWIDTH 10 0
BBX 9 13 1 0
BITMAP
0600
0c00
0800
1000
3c00
6600
0600
0e00
3600
c600
c600
ce00
7780
ENDCHAR
STARTCHAR acircumflex
ENCODING 226
SWIDTH 507 0
DWIDTH 10 0
BBX 9 13 1 0
BITMAP
1800
3c00
2400
4200
3c00
6600
0600
0e00
3600
c600
c600
ce00
7780
ENDCHAR
STARTCHAR atilde
ENCODING 227
SWIDTH 507 0
DWIDTH 10 0
BBX 9 13 1 0
BITMAP
2200
7e00
4400
0000
3c00
6600
0600
0e00
3600
c600
c600
ce00
7780
ENDCHAR
STARTCHAR adieresis
ENCODING 228
SWIDTH 507 0
DWIDTH 10 0
BBX 9 13 1 0
BITMAP
6600
6600
0000
0000
3c00
6600
0600
0e00
3600
c600
c600
ce00
7780
ENDCHAR
STARTCHAR aring
ENCODING 229
SWIDTH 507 0
DWIDTH 10 0
BBX 9 15 1 0
BITMAP
1800
2400
2400
2400
1800
0000
3c00
6600
0600
0e00
3600
c600
c600
ce00
7780
ENDCHAR
STARTCHAR ae
ENCODING 230
SWIDTH 725 0
DWIDTH 14 0
BBX 12 9 1 0
BITMAP
3dc0
6760
6630
0630
1ff0
6600
c600
c710
79e0
ENDCHAR
STARTCHAR ccedilla
ENCODING 231
SWIDTH 446 0
DWIDTH 9 0
BBX 7 14 1 -5
BITMAP
1c
26
46
c0
c0
c0
c0
62
3c
10
1c
04
04
38
ENDCHAR
STARTCHAR egrave
ENCODING 232
SWIDTH 491 0
DWIDTH 10 0
BBX 8 13 1 0
BITMAP
6000
3000
1000
0800
1c00
6200
c300
ff00
c000
c000
4000
6100
3e00
ENDCHAR
STARTCHAR eacute
ENCODING 233
SWIDTH 491 0
DWIDTH 10 0
BBX 8 13 1 0
BITMAP
0600
0c00
0800
1000
1c00
6200
c300
ff00
c000
c000
4000
6100
3e00
ENDCHAR
STARTCHAR ecircumflex
ENCODING 234
SWIDTH 491 0
DWIDTH 10 0
BBX 8 13 1 0
BITMAP
1800
3c00
2400
4200
1c00
6200
c300
ff00
c000
c000
4000
6100
3e00
ENDCHAR
STARTCHAR edieresis
ENCODING 235
SWIDTH 491 0
DWIDTH 10 0
BBX 8 13 1 0
BITMAP
6600
6600
0000
0000
1c00
6200
c300
ff00
c000
c000
4000
6100
3e00
ENDCHAR
STARTCHAR igrave
ENCODING 236
SWIDTH 280 0
DWIDTH 5 0
BBX 5 13 0 0
BITMAP
c0
60
20
10
70
30
30
30
30
30
30
30
78
ENDCHAR
STARTCHAR iacute
ENCODING 237
SWIDTH 280 0
DWIDTH 5 0
BBX 5 13 1 0
BITMAP
18
30
20
40
e0
60
60
60
60
60
60
60
f0
ENDCHAR
STARTCHAR icircumflex
ENCODING 238
SWIDTH 280 0
DWIDTH 5 0
BBX 6 13 0 0
BITMAP
30
78
48
84
70
30
30
30
30
30
30
30
78
ENDCHAR
STARTCHAR idieresis
ENCODING 239
SWIDTH 280 0
DWIDTH 5 0
BBX 6 13 0 0
BITMAP
cc
cc
00
00
70
30
30
30
30
30
30
30
78
ENDCHAR
STARTCHAR eth
ENCODING 240
SWIDTH 528 0
DWIDTH 10 0
BBX 8 13 1 0
BITMAP
3400
1800
3800
2400
1e00
6200
4300
c300
c300
c300
4200
6400
1800
ENDCHAR
STARTCHAR ntilde
ENCODING 241
SWIDTH 569 0
DWIDTH 11 0
BBX 9 13 1 0
BITMAP
1100
3f00
2200
0000
ff00
6300
6300
6300
6300
6300
6300
6300
f780
ENDCHAR
STARTCHAR ograve
ENCODING 242
SWIDTH 539 0
DWIDTH 10 0
BBX 8 13 1 0
BITMAP
3000
1800
0800
0400
1800
6600
4200
c300
c300
c300
4200
6600
1800
ENDCHAR
STARTCHAR oacute
ENCODING 243
SWIDTH 539 0
DWIDTH 10 0
BBX 8 13 1 0
BITMAP
0300
0600
0400
0800
1800
6600
4200
c300
c300
c300
4200
6600
1800
ENDCHAR
STARTCHAR ocircumflex
ENCODING 244
SWIDTH 539 0
DWIDTH 10 0
BBX 8 13 1 0
BITMAP
0c00
1e00
1200
2100
1800
6600
4200
c300
c300
c300
4200
6600
1800
ENDCHAR
STARTCHAR otilde
ENCODING 245
SWIDTH 539 0
DWIDTH 10 0
BBX 8 13 1 0
BITMAP
1100
3f00
2200
0000
1800
6600
4200
c300
c300
c300
4200
6600
1800
ENDCHAR
STARTCHAR odieresis
ENCODING 246
SWIDTH 539 0
DWIDTH 10 0
BBX 8 13 1 0
BITMAP
3300
3300
0000
0000
1800
6600
4200
c300
c300
c300
4200
6600
1800
ENDCHAR
STARTCHAR divide
ENCODING 247
SWIDTH 833 0
DWIDTH 16 0
BBX 12 9 2 1
BITMAP
0600
0600
0000
0000
fff0
0000
0000
0600
0600
ENDCHAR
STARTCHAR oslash
ENCODING 248
SWIDTH 539 0
DWIDTH 10 0
BBX 8 12 1 -2
BITMAP
0200
1c00
6600
4a00
cb00
d300
d300
6200
6600
5800
4000
4000
ENDCHAR
STARTCHAR ugrave
ENCODING 249
SWIDTH 569 0
DWIDTH 11 0
BBX 9 13 1 0
BITMAP
3000
1800
0800
0400
e700
6300
6300
6300
6300
6300
6300
6300
3f80
ENDCHAR
STARTCHAR uacute
ENCODING 250
SWIDTH 569 0
DWIDTH 11 0
BBX 9 13 1 0
BITMAP
0300
0600
0400
0800
e700
6300
6300
6300
6300
6300
6300
6300
3f80
ENDCHAR
STARTCHAR ucircumflex
ENCODING 251
SWIDTH 569 0
DWIDTH 11 0
BBX 9 13 1 0
BITMAP
0c00
1e00
1200
2100
e700
6300
6300
6300
6300
6300
6300
6300
3f80
ENDCHAR
STARTCHAR udieresis
ENCODING 252
SWIDTH 569 0
DWIDTH 11 0
BBX 9 13 1 0
BITMAP
3300
3300
0000
0000
e700
6300
6300
6300
6300
6300
6300
6300
3f80
ENDCHAR
STARTCHAR yacute
ENCODING 253
SWIDTH 495 0
DWIDTH 10 0
BBX 10 18 0 -5
BITMAP
0300
0600
0400
0800
f1c0
6080
2100
3100
3100
1200
1a00
0c00
0c00
0c00
0800
0800
5000
6000
ENDCHAR
STARTCHAR thorn
ENCODING 254
SWIDTH 551 0
DWIDTH 11 0
BBX 9 18 1 -5
BITMAP
e000
6000
6000
6000
7e00
6300
6180
6180
6180
6180
6100
6200
7c00
6000
6000
6000
6000
f000
ENDCHAR
STARTCHAR ydieresis
ENCODING 255
SWIDTH 495 0
DWIDTH 10 0
BBX 10 18 0 -5
BITMAP
3300
3300
0000
0000
f1c0
6080
2100
3100
3100
1200
1a00
0c00
0c00
0c00
0800
0800
5000
6000
ENDCHAR
ENDFONT
