STARTFONT 2.1
COMMENT  
COMMENT  Copyright 1988 Bitstream, Inc., Cambridge, Massachusetts, USA
COMMENT  Bitstream and Charter are registered trademarks of Bitstream, Inc.
COMMENT  
COMMENT  The names "Bitstream" and "Charter" are registered trademarks of
COMMENT  Bitstream, Inc.  Permission to use these trademarks is hereby
COMMENT  granted only in association with the images described in this file.
COMMENT  
COMMENT  Permission to use, copy, modify, and distribute this software and
COMMENT  its documentation for any purpose and without fee is hereby
COMMENT  granted, provided that the above copyright notice appear in all
COMMENT  copies and that both that copyright notice and this permission
COMMENT  notice appear in supporting documentation, and that the name of
COMMENT  Bitstream not be used in advertising or publicity pertaining to
COMMENT  distribution of the software without specific, written prior
COMMENT  permission.  Bitstream makes no representations about the
COMMENT  suitability of this software for any purpose.  It is provided "as
COMMENT  is" without express or implied warranty.
COMMENT  
COMMENT  BITSTREAM DISCLAIMS ALL WARRANTIES WITH REGARD TO THIS SOFTWARE,
COMMENT  INCLUDING ALL IMPLIED WARRANTIES OF MERCHANTABILITY AND FITNESS, IN
COMMENT  NO EVENT SHALL BITSTREAM BE LIABLE FOR ANY SPECIAL, INDIRECT OR
COMMENT  CONSEQUENTIAL DAMAGES OR ANY DAMAGES WHATSOEVER RESULTING FROM LOSS
COMMENT  OF USE, DATA OR PROFITS, WHETHER IN AN ACTION OF CONTRACT,
COMMENT  NEGLIGENCE OR OTHER TORTIOUS ACTION, ARISING OUT OF OR IN
COMMENT  CONNECTION WITH THE USE OR PERFORMANCE OF THIS SOFTWARE.
COMMENT  
COMMENT  
COMMENT Fontware CVTBDF v1.0
FONT -Bitstream-Charter-Bold-I-Normal--25-180-100-100-P-154-ISO8859-1
SIZE 18 100 100
FONTBOUNDINGBOX 30 30 -4 -6
STARTPROPERTIES 22
COMMENT Begin LogicalFontDescription
FONTNAME_REGISTRY ""
FAMILY_NAME "Charter"
FOUNDRY "Bitstream"
WEIGHT_NAME "Bold"
SETWIDTH_NAME "Normal"
SLANT "I"
ADD_STYLE_NAME ""
PIXEL_SIZE 25
POINT_SIZE 180
RESOLUTION_X 100
RESOLUTION_Y 100
SPACING "P"
AVERAGE_WIDTH 154
CHARSET_REGISTRY "ISO8859"
CHARSET_ENCODING "1"
COMMENT END LogicalFontDescription
FONT_DESCENT 6
FONT_ASCENT 24
CAP_HEIGHT 17
X_HEIGHT 12
CHARSET_COLLECTIONS "ASCII ISOLATIN1"
FULL_NAME "Bitstream Charter Black Italic"
COPYRIGHT "Copyright 1987 by Bitstream Inc. Charter Registered trademark of Bitstream Inc."
COMMENT ****** end of font properties
ENDPROPERTIES
CHARS 191
STARTCHAR space
ENCODING 32
SWIDTH 319 0
DWIDTH 8 0
BBX 1 1 0 0
BITMAP
00
ENDCHAR
STARTCHAR exclam
ENCODING 33
SWIDTH 343 0
DWIDTH 9 0
BBX 7 17 1 0
BITMAP
1c
3e
3e
3e
3c
3c
38
38
38
30
30
00
70
f8
f8
f0
70
ENDCHAR
STARTCHAR quotedbl
ENCODING 34
SWIDTH 339 0
DWIDTH 8 0
BBX 6 7 1 11
BITMAP
cc
cc
cc
cc
cc
44
44
ENDCHAR
STARTCHAR numbersign
ENCODING 35
SWIDTH 769 0
DWIDTH 19 0
BBX 16 19 1 -1
BITMAP
018c00
018c00
018c00
039c00
031800
031800
7fff00
7fff00
063000
0e7000
0c6000
fffe00
fffe00
18c000
18c000
19c000
318000
318000
738000
ENDCHAR
STARTCHAR dollar
ENCODING 36
SWIDTH 639 0
DWIDTH 16 0
BBX 14 22 1 -3
BITMAP
0040
00c0
03f8
0ffc
1e9c
3c9c
3c98
3d80
3f80
3fe0
1ff0
07f8
03f8
6278
6278
e670
e6f0
ffc0
3f80
0400
0400
0c00
ENDCHAR
STARTCHAR percent
ENCODING 37
SWIDTH 981 0
DWIDTH 24 0
BBX 20 17 2 0
BITMAP
1f0180
330300
738300
738600
e38c00
e39800
e39800
e733e0
666660
3cce70
00dc70
019c70
031c70
061c60
041ce0
0c0cc0
180780
ENDCHAR
STARTCHAR ampersand
ENCODING 38
SWIDTH 787 0
DWIDTH 20 0
BBX 19 17 0 0
BITMAP
01f000
07f800
0f3c00
1e3c00
1e3c00
1e3c00
1f3800
0ff000
0787e0
3fc380
79e300
f8f600
f87c00
fc3c00
7fff00
3fdfe0
1f07e0
ENDCHAR
STARTCHAR quoteright
ENCODING 39
SWIDTH 331 0
DWIDTH 8 0
BBX 6 8 2 9
BITMAP
18
3c
3c
0c
18
18
f0
c0
ENDCHAR
STARTCHAR parenleft
ENCODING 40
SWIDTH 440 0
DWIDTH 11 0
BBX 11 22 1 -4
BITMAP
00e0
03e0
0700
0e00
1e00
3c00
3c00
7800
7800
7800
7800
f000
f000
f000
f000
f000
f000
f000
7000
7800
3e00
0e00
ENDCHAR
STARTCHAR parenright
ENCODING 41
SWIDTH 440 0
DWIDTH 11 0
BBX 10 22 -1 -4
BITMAP
0c00
1f00
0780
0380
03c0
03c0
03c0
03c0
03c0
03c0
03c0
0780
0780
0780
0780
0700
0f00
0e00
1c00
3800
f000
e000
ENDCHAR
STARTCHAR asterisk
ENCODING 42
SWIDTH 500 0
DWIDTH 12 0
BBX 9 10 3 8
BITMAP
0400
0c00
0c00
4900
eb80
7700
1800
7c00
6e00
6c00
ENDCHAR
STARTCHAR plus
ENCODING 43
SWIDTH 833 0
DWIDTH 21 0
BBX 14 14 4 0
BITMAP
0300
0300
0300
0300
0300
0300
fffc
fffc
0300
0300
0300
0300
0300
0300
ENDCHAR
STARTCHAR comma
ENCODING 44
SWIDTH 322 0
DWIDTH 8 0
BBX 6 9 -1 -5
BITMAP
38
7c
7c
7c
1c
18
30
e0
80
ENDCHAR
STARTCHAR hyphen
ENCODING 45
SWIDTH 333 0
DWIDTH 8 0
BBX 7 3 0 4
BITMAP
fe
fe
fe
ENDCHAR
STARTCHAR period
ENCODING 46
SWIDTH 322 0
DWIDTH 8 0
BBX 5 5 0 0
BITMAP
70
f8
f8
f8
70
ENDCHAR
STARTCHAR slash
ENCODING 47
SWIDTH 481 0
DWIDTH 12 0
BBX 17 19 -3 -2
BITMAP
000380
000700
000e00
000c00
001c00
003800
007000
006000
00e000
01c000
038000
030000
070000
0e0000
1c0000
180000
380000
700000
e00000
ENDCHAR
STARTCHAR zero
ENCODING 48
SWIDTH 639 0
DWIDTH 16 0
BBX 14 17 1 0
BITMAP
03e0
0ff0
1e78
3c38
3c3c
783c
783c
f83c
f03c
f07c
f078
f078
f0f0
70f0
79e0
3fc0
1f00
ENDCHAR
STARTCHAR one
ENCODING 49
SWIDTH 639 0
DWIDTH 16 0
BBX 10 17 2 0
BITMAP
03c0
1fc0
3fc0
0780
0780
0780
0780
0780
0f00
0f00
0f00
0f00
0f00
0f00
1e00
1e00
ffc0
ENDCHAR
STARTCHAR two
ENCODING 50
SWIDTH 639 0
DWIDTH 16 0
BBX 14 17 0 0
BITMAP
03e0
0ff8
1e7c
3e3c
3c3c
1c3c
0078
0078
00f0
01e0
03c0
0780
0e1c
3c18
7ff8
fff8
fff8
ENDCHAR
STARTCHAR three
ENCODING 51
SWIDTH 639 0
DWIDTH 16 0
BBX 14 17 0 0
BITMAP
03f0
0ff8
1e7c
3c3c
3c3c
1c3c
0078
00f0
07c0
0ff0
00f8
0078
7078
f078
f0f0
7fe0
1f80
ENDCHAR
STARTCHAR four
ENCODING 52
SWIDTH 639 0
DWIDTH 16 0
BBX 15 18 0 -1
BITMAP
003c
007c
00fc
01fc
03b8
0378
0678
0c78
1c78
3870
70f0
fffe
fffe
00f0
00e0
01e0
01e0
01e0
ENDCHAR
STARTCHAR five
ENCODING 53
SWIDTH 639 0
DWIDTH 16 0
BBX 14 17 1 0
BITMAP
0ffc
1ffc
1ffc
1800
1800
3800
3fe0
3ff0
00f8
0078
0078
7078
f070
f0f0
f1e0
7fc0
3f00
ENDCHAR
STARTCHAR six
ENCODING 54
SWIDTH 639 0
DWIDTH 16 0
BBX 14 18 1 0
BITMAP
0038
01fc
07c0
0f00
1e00
3c00
7bf0
7ff8
f87c
f03c
f03c
f03c
f03c
f038
7078
78f0
3fe0
1f80
ENDCHAR
STARTCHAR seven
ENCODING 55
SWIDTH 639 0
DWIDTH 16 0
BBX 14 18 2 -1
BITMAP
7ffc
7ffc
7ffc
6038
e070
c070
00e0
01c0
01c0
0380
0700
0700
0e00
1c00
1c00
3800
7000
f000
ENDCHAR
STARTCHAR eight
ENCODING 56
SWIDTH 639 0
DWIDTH 16 0
BBX 14 17 1 0
BITMAP
03e0
0ff8
1e7c
3c3c
3c3c
3c3c
3e78
1fe0
0fe0
3bf0
71f8
f078
f078
f078
78f0
3fe0
1f80
ENDCHAR
STARTCHAR nine
ENCODING 57
SWIDTH 639 0
DWIDTH 16 0
BBX 14 19 1 -2
BITMAP
07e0
1ff0
3c78
783c
703c
f03c
f03c
f03c
f03c
f878
7ff8
3e78
00f0
01e0
03c0
0780
1e00
7800
6000
ENDCHAR
STARTCHAR colon
ENCODING 58
SWIDTH 387 0
DWIDTH 10 0
BBX 6 12 2 0
BITMAP
38
3c
7c
3c
38
00
00
70
f0
f8
f0
70
ENDCHAR
STARTCHAR semicolon
ENCODING 59
SWIDTH 387 0
DWIDTH 10 0
BBX 8 17 0 -5
BITMAP
0e00
1f00
1f00
1f00
0e00
0000
0000
0000
1c00
3c00
3c00
3c00
1c00
1800
3800
e000
c000
ENDCHAR
STARTCHAR less
ENCODING 60
SWIDTH 833 0
DWIDTH 21 0
BBX 14 14 3 0
BITMAP
0004
001c
00fc
03e0
0f80
7c00
f000
f000
7c00
0f80
03e0
00f8
001c
0004
ENDCHAR
STARTCHAR equal
ENCODING 61
SWIDTH 833 0
DWIDTH 21 0
BBX 15 7 3 4
BITMAP
fffe
fffe
0000
0000
0000
fffe
fffe
ENDCHAR
STARTCHAR greater
ENCODING 62
SWIDTH 833 0
DWIDTH 21 0
BBX 14 14 4 0
BITMAP
8000
f000
7c00
1f00
07e0
00f8
003c
003c
00f8
07c0
1f00
7c00
f000
8000
ENDCHAR
STARTCHAR question
ENCODING 63
SWIDTH 519 0
DWIDTH 13 0
BBX 11 17 2 0
BITMAP
3fc0
f3e0
e1e0
e1e0
01e0
03c0
07c0
1f80
3e00
3000
3000
0000
7000
f800
f800
f800
7000
ENDCHAR
STARTCHAR at
ENCODING 64
SWIDTH 942 0
DWIDTH 23 0
BBX 19 21 2 -4
BITMAP
00fe00
078380
0e00c0
1c0040
380060
707f20
61ce20
e38e20
c30e20
c70c20
c70c60
c70c40
c79cc0
e3ff80
61ce00
700000
380000
1c0080
0f0380
03fe00
01f800
ENDCHAR
STARTCHAR A
ENCODING 65
SWIDTH 688 0
DWIDTH 17 0
BBX 18 17 -2 0
BITMAP
003c00
007c00
007c00
00fc00
00fc00
019e00
019e00
031e00
071e00
061e00
0ffe00
0c0f00
180f00
180f00
380f00
300f00
fc3fc0
ENDCHAR
STARTCHAR B
ENCODING 66
SWIDTH 694 0
DWIDTH 17 0
BBX 17 17 -1 0
BITMAP
1fff00
078f80
078780
078780
0f8780
0f8780
0f8f00
0f1e00
0ffe00
1f1f00
1f0f00
1f0f80
1e0f80
1e0f00
3e0f00
3e3e00
fffc00
ENDCHAR
STARTCHAR C
ENCODING 67
SWIDTH 671 0
DWIDTH 17 0
BBX 16 17 1 0
BITMAP
01fc00
07ff00
1f8700
3e0600
3c0600
780000
780000
f00000
f00000
f00000
f00000
f00c00
f81c00
781c00
3c3800
1ff800
0fe000
ENDCHAR
STARTCHAR D
ENCODING 68
SWIDTH 762 0
DWIDTH 19 0
BBX 19 17 -1 0
BITMAP
1fff00
078fc0
0783c0
0783e0
0f81e0
0f81e0
0f01e0
0f01e0
0f01e0
1f01e0
1f03c0
1f03c0
1e07c0
1e0780
3e0f00
3e3f00
fff800
ENDCHAR
STARTCHAR E
ENCODING 69
SWIDTH 639 0
DWIDTH 15 0
BBX 16 17 -1 0
BITMAP
1fff00
0f0700
0f0600
0f0600
0f0000
0f1800
0f1000
1f3000
1ff000
1e3000
1e3000
1e3000
1e0c00
3c0c00
3c0c00
3c1c00
fffc00
ENDCHAR
STARTCHAR F
ENCODING 70
SWIDTH 590 0
DWIDTH 15 0
BBX 16 17 -1 0
BITMAP
1fff00
078700
0f0600
0f0600
0f0000
0f1800
0f1800
1f1800
1ff800
1e3000
1e3000
1e3000
1e0000
3e0000
3c0000
3c0000
ff0000
ENDCHAR
STARTCHAR G
ENCODING 71
SWIDTH 750 0
DWIDTH 19 0
BBX 17 17 1 0
BITMAP
01fe00
07ff80
1f8700
3e0700
3c0700
780700
780000
f80000
f00000
f0ff80
f01e00
f03e00
f83c00
783c00
3e3c00
3ffc00
0fe000
ENDCHAR
STARTCHAR H
ENCODING 72
SWIDTH 813 0
DWIDTH 20 0
BBX 21 17 -1 0
BITMAP
1fe7f8
0f81e0
0f81e0
0f01e0
0f03c0
0f03c0
0f03c0
1f03c0
1fffc0
1e07c0
1e0780
1e0780
1e0780
3e0780
3c0780
3c0f80
ff3fc0
ENDCHAR
STARTCHAR I
ENCODING 73
SWIDTH 407 0
DWIDTH 10 0
BBX 11 17 0 0
BITMAP
1fe0
0780
0780
0f00
0f00
0f00
0f00
0f00
1f00
1e00
1e00
1e00
1e00
1e00
3e00
3c00
ff00
ENDCHAR
STARTCHAR J
ENCODING 74
SWIDTH 521 0
DWIDTH 13 0
BBX 15 17 -1 0
BITMAP
03fe
0078
00f8
00f8
00f0
00f0
00f0
01f0
01f0
01e0
01e0
61e0
63e0
e3c0
e780
ff00
7c00
ENDCHAR
STARTCHAR K
ENCODING 75
SWIDTH 708 0
DWIDTH 17 0
BBX 19 17 -1 0
BITMAP
1fcfe0
0f8380
0f0700
0f0e00
0f0c00
0f1800
0f3000
1f7000
1ff000
1ff800
1e7800
1e7c00
1e3c00
3c3e00
3c1e00
3c1f00
ff0fc0
ENDCHAR
STARTCHAR L
ENCODING 76
SWIDTH 583 0
DWIDTH 14 0
BBX 14 17 -1 0
BITMAP
1fe0
0f80
0f00
0f00
0f00
0f00
0f00
1f00
1e00
1e00
1e00
1e00
1e0c
3e1c
3c1c
3c18
fff8
ENDCHAR
STARTCHAR M
ENCODING 77
SWIDTH 986 0
DWIDTH 24 0
BBX 25 17 -1 0
BITMAP
1fe03f80
07e07e00
07e07e00
0fe0de00
0de0de00
0de1bc00
0ce1bc00
0cf33c00
1cf33c00
18f63c00
18f63c00
18fc7800
18fc7800
38787800
30787800
30707800
fc71fe00
ENDCHAR
STARTCHAR N
ENCODING 78
SWIDTH 771 0
DWIDTH 19 0
BBX 20 17 -1 0
BITMAP
1f83f0
07c0c0
0fc0c0
0fc1c0
0de180
0de180
0cf180
1cf180
18f180
187b80
187b00
187b00
183f00
383f00
301f00
301e00
fc1e00
ENDCHAR
STARTCHAR O
ENCODING 79
SWIDTH 780 0
DWIDTH 19 0
BBX 17 17 1 0
BITMAP
01f800
0ffe00
1f1f00
3e0f00
7c0780
780780
780780
f00780
f00780
f00780
f00f00
f00f00
f01e00
781e00
7c7c00
3ff800
0fc000
ENDCHAR
STARTCHAR P
ENCODING 80
SWIDTH 644 0
DWIDTH 16 0
BBX 17 17 -1 0
BITMAP
1ffe00
079f00
078780
078780
0f8780
0f8780
0f0780
0f0f00
0f1e00
1ffc00
1e0000
1e0000
1e0000
1e0000
3e0000
3e0000
ff8000
ENDCHAR
STARTCHAR Q
ENCODING 81
SWIDTH 780 0
DWIDTH 19 0
BBX 17 21 1 -4
BITMAP
01f800
0ffe00
1f1f00
3c0f00
7c0780
780780
780780
f00780
f00780
f00780
f00f00
f00f00
f01e00
781e00
3c7c00
3ff000
0ff000
01f800
00fc80
007f80
003e00
ENDCHAR
STARTCHAR R
ENCODING 82
SWIDTH 715 0
DWIDTH 18 0
BBX 17 17 0 0
BITMAP
1ffe00
0f9f00
0f0f00
0f0f00
0f0f00
0f0f00
0f1e00
1f3c00
1ff000
1e7800
1e3c00
1e3c00
3e3c00
3c3c00
3c3e00
3c1e00
ff1f80
ENDCHAR
STARTCHAR S
ENCODING 83
SWIDTH 593 0
DWIDTH 15 0
BBX 14 17 0 0
BITMAP
03f0
0ffc
1f1c
1c1c
3c18
3c00
3f00
1fc0
1ff0
07f0
01f8
6078
6078
6070
e1f0
ffc0
3f00
ENDCHAR
STARTCHAR T
ENCODING 84
SWIDTH 627 0
DWIDTH 16 0
BBX 16 17 1 0
BITMAP
7fff00
63c700
63c700
e3c600
c7c600
078000
078000
078000
078000
078000
0f8000
0f0000
0f0000
0f0000
0f0000
1f0000
7fc000
ENDCHAR
STARTCHAR U
ENCODING 85
SWIDTH 766 0
DWIDTH 19 0
BBX 18 17 2 0
BITMAP
ff0fc0
3c0300
3c0700
7c0700
780600
780600
780600
780e00
780e00
f00c00
f00c00
f00c00
f01c00
f01800
f87800
7ff000
1fc000
ENDCHAR
STARTCHAR V
ENCODING 86
SWIDTH 669 0
DWIDTH 16 0
BBX 17 17 1 0
BITMAP
ff1f80
3c0600
3c0e00
3c0c00
3c1c00
3c1800
1e3800
1e3000
1e7000
1e6000
1ee000
1ec000
1fc000
0f8000
0f8000
0f0000
0f0000
ENDCHAR
STARTCHAR W
ENCODING 87
SWIDTH 981 0
DWIDTH 25 0
BBX 25 17 1 0
BITMAP
ff0e1f80
3c1e0600
3c1f0e00
3c3f0c00
3c3f1c00
3c6f1800
3c6f1800
3cef3800
3ccf3000
3dcf7000
3f876000
3f87e000
1f07c000
1f07c000
1e07c000
1e078000
1c078000
ENDCHAR
STARTCHAR X
ENCODING 88
SWIDTH 671 0
DWIDTH 17 0
BBX 19 17 -1 0
BITMAP
1fc7e0
0f8380
078700
07c600
03ce00
03dc00
01f800
01f000
01f000
01f000
03f800
077800
0e7c00
0c3c00
183c00
383e00
fc7f80
ENDCHAR
STARTCHAR Y
ENCODING 89
SWIDTH 634 0
DWIDTH 16 0
BBX 17 17 1 0
BITMAP
ff1f80
3c0e00
3c0e00
1e1c00
1e1800
1e3000
1f7000
0f6000
0fc000
0fc000
078000
078000
078000
0f8000
0f0000
0f0000
3fc000
ENDCHAR
STARTCHAR Z
ENCODING 90
SWIDTH 611 0
DWIDTH 16 0
BBX 16 17 0 0
BITMAP
1fff00
183f00
183e00
387c00
38f800
00f800
01f000
03e000
07e000
07c000
0f8000
1f0000
1f0e00
3e0c00
7c1c00
fc1c00
fffc00
ENDCHAR
STARTCHAR bracketleft
ENCODING 91
SWIDTH 495 0
DWIDTH 12 0
BBX 12 21 1 -3
BITMAP
0ff0
0f00
1e00
1e00
1e00
1e00
1e00
3c00
3c00
3c00
3c00
3c00
3c00
7800
7800
7800
7800
7800
f800
f000
ff00
ENDCHAR
STARTCHAR backslash
ENCODING 92
SWIDTH 481 0
DWIDTH 12 0
BBX 13 19 0 -2
BITMAP
e000
7000
3000
3800
1800
1c00
0c00
0e00
0600
0700
0300
0380
0180
01c0
00e0
0060
0070
0030
0038
ENDCHAR
STARTCHAR bracketright
ENCODING 93
SWIDTH 495 0
DWIDTH 12 0
BBX 11 21 -1 -3
BITMAP
1fe0
01e0
01e0
01c0
03c0
03c0
03c0
03c0
03c0
0380
0380
0780
0780
0780
0780
0700
0700
0f00
0f00
0f00
ff00
ENDCHAR
STARTCHAR asciicircum
ENCODING 94
SWIDTH 1000 0
DWIDTH 25 0
BBX 15 7 5 11
BITMAP
0380
07c0
0ee0
1c70
3018
600c
c006
ENDCHAR
STARTCHAR underscore
ENCODING 95
SWIDTH 500 0
DWIDTH 12 0
BBX 12 2 0 -6
BITMAP
fff0
fff0
ENDCHAR
STARTCHAR quoteleft
ENCODING 96
SWIDTH 331 0
DWIDTH 8 0
BBX 6 8 2 9
BITMAP
0c
3c
70
60
c0
f0
f0
60
ENDCHAR
STARTCHAR a
ENCODING 97
SWIDTH 650 0
DWIDTH 16 0
BBX 16 12 0 0
BITMAP
0ffc00
3cfc00
387800
787800
707800
f07800
f0f800
f0f000
f0f000
f9f000
7fff00
3cfc00
ENDCHAR
STARTCHAR b
ENCODING 98
SWIDTH 627 0
DWIDTH 16 0
BBX 14 18 1 0
BITMAP
1f00
7e00
1e00
1e00
1e00
3e00
3cf0
3ff8
3c7c
3c3c
7c3c
7c3c
7c3c
7838
7878
f870
f8e0
7f80
ENDCHAR
STARTCHAR c
ENCODING 99
SWIDTH 498 0
DWIDTH 12 0
BBX 11 12 0 0
BITMAP
0fc0
3de0
38e0
78c0
7000
f000
f000
f000
f020
f860
7fc0
3f00
ENDCHAR
STARTCHAR d
ENCODING 100
SWIDTH 660 0
DWIDTH 16 0
BBX 15 18 0 0
BITMAP
001e
00fe
003e
003c
003c
003c
0ffc
1cfc
3878
7878
7078
f078
f0f8
f0f0
f0f0
f9f0
7ffe
3cfc
ENDCHAR
STARTCHAR e
ENCODING 101
SWIDTH 523 0
DWIDTH 13 0
BBX 12 12 0 0
BITMAP
07e0
1cf0
38f0
79f0
f3e0
ff00
f000
f000
f020
f8e0
7fc0
3e00
ENDCHAR
STARTCHAR f
ENCODING 102
SWIDTH 373 0
DWIDTH 9 0
BBX 17 24 -4 -6
BITMAP
001f00
007f80
007380
00f100
00e000
01e000
07fe00
01e000
01e000
01e000
03c000
03c000
03c000
03c000
03c000
03c000
038000
038000
078000
070000
e60000
f60000
fc0000
700000
ENDCHAR
STARTCHAR g
ENCODING 103
SWIDTH 574 0
DWIDTH 15 0
BBX 16 18 -1 -6
BITMAP
07f000
1e3f00
1e3c00
3c3c00
3c3c00
3c7800
3c7800
0fe000
060000
070000
0fc000
1ff000
73f800
f0fc00
f07c00
f03c00
787800
3fe000
ENDCHAR
STARTCHAR h
ENCODING 104
SWIDTH 664 0
DWIDTH 17 0
BBX 16 18 0 0
BITMAP
0f8000
3f0000
0f0000
0f0000
1f0000
1e0000
1e3c00
1efe00
1f3e00
3c1e00
3c3e00
3c3c00
3c3c00
7c3c00
7c3c00
787c00
787f00
f83e00
ENDCHAR
STARTCHAR i
ENCODING 105
SWIDTH 361 0
DWIDTH 9 0
BBX 7 18 1 0
BITMAP
1c
1e
3e
1c
00
00
3c
fc
38
78
78
78
78
f0
f0
f0
fe
78
ENDCHAR
STARTCHAR j
ENCODING 106
SWIDTH 338 0
DWIDTH 9 0
BBX 13 24 -4 -6
BITMAP
0070
00f8
00f8
0070
0000
0000
00f0
07f0
01f0
01e0
01e0
01e0
01e0
01e0
03e0
03c0
03c0
03c0
03c0
0380
4700
f700
fc00
f000
ENDCHAR
STARTCHAR k
ENCODING 107
SWIDTH 627 0
DWIDTH 16 0
BBX 15 18 1 0
BITMAP
1e00
fe00
1e00
3e00
3c00
3c00
3c18
3c7c
78fc
7998
7b90
7f80
7bc0
f3e0
f1e0
f1f0
f0fe
f0fc
ENDCHAR
STARTCHAR l
ENCODING 108
SWIDTH 352 0
DWIDTH 9 0
BBX 7 18 1 0
BITMAP
1e
fe
1e
3c
3c
3c
3c
3c
78
78
78
78
78
f0
f0
f0
fe
78
ENDCHAR
STARTCHAR m
ENCODING 109
SWIDTH 988 0
DWIDTH 25 0
BBX 24 12 1 0
BITMAP
3c787800
fdfdfc00
3e7f7c00
3c3c3c00
3c3c3c00
78787800
78787800
78787800
78787800
7878f800
f8f87f00
f0f07c00
ENDCHAR
STARTCHAR n
ENCODING 110
SWIDTH 669 0
DWIDTH 17 0
BBX 15 12 1 0
BITMAP
1e78
fdfc
3f7c
3c3c
3c3c
7878
7878
7878
7878
7878
f87e
f07c
ENDCHAR
STARTCHAR o
ENCODING 111
SWIDTH 620 0
DWIDTH 15 0
BBX 13 12 1 0
BITMAP
0fe0
3cf0
7878
7878
f078
f078
f078
f078
f0f0
f0f0
79e0
3f80
ENDCHAR
STARTCHAR p
ENCODING 112
SWIDTH 637 0
DWIDTH 15 0
BBX 16 18 -2 -6
BITMAP
07bc00
3f7e00
0f9f00
0f0f00
0f0f00
0f0f00
0f0f00
1f0e00
1e1e00
1e1c00
1e3c00
1ff000
1e0000
3e0000
3c0000
3c0000
7c0000
ff0000
ENDCHAR
STARTCHAR q
ENCODING 113
SWIDTH 637 0
DWIDTH 16 0
BBX 14 18 1 -6
BITMAP
0ffc
1cfc
387c
7878
7078
f078
f0f8
f0f8
f0f0
f8f0
7ff0
3cf0
01f0
01e0
01e0
01e0
01e0
07f8
ENDCHAR
STARTCHAR r
ENCODING 114
SWIDTH 519 0
DWIDTH 13 0
BBX 12 12 1 0
BITMAP
1ce0
fdf0
3ff0
3c60
3c40
7800
7800
7800
7800
7800
f000
f000
ENDCHAR
STARTCHAR s
ENCODING 115
SWIDTH 488 0
DWIDTH 12 0
BBX 11 12 0 0
BITMAP
0fc0
39e0
38e0
78c0
7e00
3f80
1fc0
07e0
f3c0
e1c0
e380
3f00
ENDCHAR
STARTCHAR t
ENCODING 116
SWIDTH 414 0
DWIDTH 10 0
BBX 9 16 1 0
BITMAP
0c00
1c00
1c00
3c00
ff80
7800
7800
7800
7800
7800
f000
f000
f000
f100
ff00
7c00
ENDCHAR
STARTCHAR u
ENCODING 117
SWIDTH 669 0
DWIDTH 17 0
BBX 17 12 0 0
BITMAP
1e1e00
fe1e00
3c3e00
3c3c00
3c3c00
3c3c00
3c3c00
783c00
787800
78f800
7ffd80
3c3e00
ENDCHAR
STARTCHAR v
ENCODING 118
SWIDTH 551 0
DWIDTH 14 0
BBX 14 12 0 0
BITMAP
3c38
fc3c
3c3c
3c38
1e38
1e30
1e60
1ee0
1ec0
1f80
1f00
1e00
ENDCHAR
STARTCHAR w
ENCODING 119
SWIDTH 856 0
DWIDTH 22 0
BBX 21 12 0 0
BITMAP
3c0c70
fc3c78
3c3c78
1c7c78
1cdc30
1cdc60
1f9c60
1f1cc0
1f1d80
1e1f00
1e1e00
1c1c00
ENDCHAR
STARTCHAR x
ENCODING 120
SWIDTH 565 0
DWIDTH 14 0
BBX 15 12 -1 0
BITMAP
0f1e
3f3e
0f7e
07cc
07c0
07c0
03c0
27c0
6de0
f9e0
f1fc
60f8
ENDCHAR
STARTCHAR y
ENCODING 121
SWIDTH 535 0
DWIDTH 13 0
BBX 15 18 -1 -6
BITMAP
1e0c
7e1e
1e18
1e38
0f30
0f30
0f60
0f60
0fc0
07c0
0780
0180
0300
4600
e600
fc00
f800
7000
ENDCHAR
STARTCHAR z
ENCODING 122
SWIDTH 509 0
DWIDTH 12 0
BBX 13 12 -1 0
BITMAP
0e10
3ff8
3ff0
67c0
7180
7300
0670
0c70
1f30
3fe0
ffe0
4780
ENDCHAR
STARTCHAR braceleft
ENCODING 123
SWIDTH 500 0
DWIDTH 12 0
BBX 10 21 1 -3
BITMAP
03c0
0fc0
1f00
1e00
1e00
1e00
1e00
1e00
3c00
f000
f000
3c00
1e00
1e00
1e00
1e00
1e00
1e00
1f00
0fc0
03c0
ENDCHAR
STARTCHAR bar
ENCODING 124
SWIDTH 500 0
DWIDTH 12 0
BBX 2 25 5 -6
BITMAP
c0
c0
c0
c0
c0
c0
c0
c0
c0
c0
c0
c0
c0
c0
c0
c0
c0
c0
c0
c0
c0
c0
c0
c0
c0
ENDCHAR
STARTCHAR braceright
ENCODING 125
SWIDTH 500 0
DWIDTH 12 0
BBX 10 21 1 -3
BITMAP
f000
fc00
3e00
1e00
1e00
1e00
1e00
1e00
0f00
03c0
03c0
0f00
1e00
1e00
1e00
1e00
1e00
1e00
3e00
fc00
f000
ENDCHAR
STARTCHAR c0126
ENCODING 126
SWIDTH 1000 0
DWIDTH 25 0
BBX 15 4 5 12
BITMAP
1e02
7f86
43fc
80f8
ENDCHAR
STARTCHAR space
ENCODING 160
SWIDTH 319 0
DWIDTH 8 0
BBX 1 1 0 0
BITMAP
00
ENDCHAR
STARTCHAR exclamdown
ENCODING 161
SWIDTH 343 0
DWIDTH 9 0
BBX 7 17 1 0
BITMAP
1c
1e
3e
1e
1c
00
18
18
18
38
38
78
78
78
f8
f8
70
ENDCHAR
STARTCHAR cent
ENCODING 162
SWIDTH 639 0
DWIDTH 16 0
BBX 14 18 1 -3
BITMAP
0060
0040
07fc
3edc
3cdc
7898
7880
f080
f180
f180
f188
f130
7930
7b30
1ff0
0300
0200
0200
ENDCHAR
STARTCHAR sterling
ENCODING 163
SWIDTH 639 0
DWIDTH 16 0
BBX 15 17 0 0
BITMAP
00f8
01fc
039e
079e
0f1e
0f0c
0f00
0f00
0f00
3ff0
1e00
1e00
1c00
1800
7ffc
fff8
fff8
ENDCHAR
STARTCHAR currency
ENCODING 164
SWIDTH 606 0
DWIDTH 15 0
BBX 14 14 1 3
BITMAP
4008
e01c
77b8
3ff0
1860
3830
3030
3030
3030
1860
3ff0
77b8
e01c
4008
ENDCHAR
STARTCHAR yen
ENCODING 165
SWIDTH 671 0
DWIDTH 17 0
BBX 18 17 0 0
BITMAP
7f8fc0
1e0300
1f0700
1f0600
0f0e00
0f9c00
0f9800
7fbf00
07f000
03e000
ffff00
03c000
03c000
03c000
07c000
07c000
1ff000
ENDCHAR
STARTCHAR brokenbar
ENCODING 166
SWIDTH 500 0
DWIDTH 12 0
BBX 2 21 5 -4
BITMAP
c0
c0
c0
c0
c0
c0
c0
c0
c0
00
00
00
c0
c0
c0
c0
c0
c0
c0
c0
c0
ENDCHAR
STARTCHAR section
ENCODING 167
SWIDTH 500 0
DWIDTH 12 0
BBX 13 22 -1 -4
BITMAP
07f8
0e38
1e18
1c10
1e00
0f00
0fc0
0fe0
39f0
30f0
7070
7070
7860
7cc0
3f80
0f80
07c0
03c0
41c0
c1c0
e380
ff00
ENDCHAR
STARTCHAR dieresis
ENCODING 168
SWIDTH 500 0
DWIDTH 12 0
BBX 10 4 2 14
BITMAP
6180
f3c0
f3c0
6180
ENDCHAR
STARTCHAR copyright
ENCODING 169
SWIDTH 900 0
DWIDTH 22 0
BBX 19 20 2 -2
BITMAP
01f800
060e00
180300
300080
61fcc0
438c40
c70c60
860c20
8e0020
8e0020
8e0020
8e0020
8e0c20
c70c60
438c40
61fcc0
300180
180300
0e0e00
03f800
ENDCHAR
STARTCHAR ordfeminine
ENCODING 170
SWIDTH 488 0
DWIDTH 12 0
BBX 12 8 0 8
BITMAP
1fe0
71e0
71c0
e1c0
e3c0
e380
fff0
7be0
ENDCHAR
STARTCHAR guillemotleft
ENCODING 171
SWIDTH 458 0
DWIDTH 11 0
BBX 10 10 0 1
BITMAP
0840
18c0
39c0
7380
e600
c600
e700
7380
3180
1080
ENDCHAR
STARTCHAR logicalnot
ENCODING 172
SWIDTH 833 0
DWIDTH 21 0
BBX 15 6 3 4
BITMAP
fffe
fffe
0006
0006
0006
0006
ENDCHAR
STARTCHAR hyphen
ENCODING 173
SWIDTH 333 0
DWIDTH 8 0
BBX 7 3 0 4
BITMAP
fe
fe
fe
ENDCHAR
STARTCHAR registered
ENCODING 174
SWIDTH 900 0
DWIDTH 22 0
BBX 19 20 2 -2
BITMAP
01f800
0e0e00
180300
300080
67f8c0
43bc40
439c60
839c20
839c20
83b820
83e020
83b820
839820
c39c60
439c40
67cfc0
300180
180300
0e0e00
03f800
ENDCHAR
STARTCHAR macron
ENCODING 175
SWIDTH 500 0
DWIDTH 12 0
BBX 9 2 3 15
BITMAP
ff80
ff80
ENDCHAR
STARTCHAR degree
ENCODING 176
SWIDTH 329 0
DWIDTH 8 0
BBX 7 7 1 11
BITMAP
7c
c6
82
82
82
c6
7c
ENDCHAR
STARTCHAR plusminus
ENCODING 177
SWIDTH 833 0
DWIDTH 21 0
BBX 14 14 4 0
BITMAP
0300
0300
0300
0300
fffc
fffc
0300
0300
0300
0300
0000
0000
fffc
fffc
ENDCHAR
STARTCHAR twosuperior
ENCODING 178
SWIDTH 422 0
DWIDTH 10 0
BBX 9 11 0 7
BITMAP
1f00
7380
7380
7380
0300
0700
0e00
1980
3180
ff00
ff00
ENDCHAR
STARTCHAR threesuperior
ENCODING 179
SWIDTH 422 0
DWIDTH 10 0
BBX 9 11 0 7
BITMAP
1f00
3380
7380
3380
0700
1c00
1f00
0700
c700
c700
7c00
ENDCHAR
STARTCHAR acute
ENCODING 180
SWIDTH 500 0
DWIDTH 12 0
BBX 7 5 6 14
BITMAP
1e
3c
38
70
e0
ENDCHAR
STARTCHAR mu
ENCODING 181
SWIDTH 578 0
DWIDTH 15 0
BBX 15 16 -1 -5
BITMAP
1c38
1c38
1c30
1830
1870
3870
3870
3862
28e2
6fbc
6738
6000
e000
e000
e000
c000
ENDCHAR
STARTCHAR paragraph
ENCODING 182
SWIDTH 500 0
DWIDTH 12 0
BBX 11 19 0 -2
BITMAP
3fe0
7cc0
7cc0
fcc0
fcc0
fcc0
fcc0
fcc0
7cc0
7cc0
1cc0
00c0
00c0
00c0
00c0
00c0
00c0
00c0
00c0
ENDCHAR
STARTCHAR periodcentered
ENCODING 183
SWIDTH 322 0
DWIDTH 8 0
BBX 5 5 2 6
BITMAP
70
f8
f8
f8
70
ENDCHAR
STARTCHAR cedilla
ENCODING 184
SWIDTH 500 0
DWIDTH 12 0
BBX 5 6 1 -6
BITMAP
20
38
38
18
f0
f0
ENDCHAR
STARTCHAR onesuperior
ENCODING 185
SWIDTH 422 0
DWIDTH 10 0
BBX 7 11 1 7
BITMAP
1e
7e
0e
0c
1c
1c
1c
18
18
38
fe
ENDCHAR
STARTCHAR ordmasculine
ENCODING 186
SWIDTH 465 0
DWIDTH 12 0
BBX 11 8 0 8
BITMAP
1f80
78c0
70e0
e0e0
e0e0
e1c0
61c0
3f00
ENDCHAR
STARTCHAR guillemotright
ENCODING 187
SWIDTH 458 0
DWIDTH 12 0
BBX 11 10 0 1
BITMAP
4100
2180
71c0
39e0
1ce0
1ce0
39c0
f380
c600
8400
ENDCHAR
STARTCHAR onequarter
ENCODING 188
SWIDTH 972 0
DWIDTH 24 0
BBX 22 17 1 0
BITMAP
000180
1e0300
7e0300
0c0600
1c0c00
1c0c00
1c1800
181800
38301c
fe603c
006078
00c0d8
00c198
018338
0307fc
030030
060070
ENDCHAR
STARTCHAR onehalf
ENCODING 189
SWIDTH 972 0
DWIDTH 24 0
BBX 22 17 1 0
BITMAP
000180
1e0300
7e0300
0c0600
1c0c00
1c0c00
1c1800
181800
3830f8
fe639c
00639c
00c038
00c030
0180e0
03018c
0307f8
0607f8
ENDCHAR
STARTCHAR threequarters
ENCODING 190
SWIDTH 972 0
DWIDTH 24 0
BBX 23 17 0 0
BITMAP
0000c0
1f0180
338180
738300
070600
1e0600
070c00
c70c00
c7180e
7c301e
00303c
00606c
0060cc
00c19c
0183fe
018018
030038
ENDCHAR
STARTCHAR questiondown
ENCODING 191
SWIDTH 519 0
DWIDTH 13 0
BBX 11 17 0 0
BITMAP
01c0
01e0
03e0
01e0
01c0
0000
0180
0180
0f80
1f00
7c00
7800
f000
f0e0
f0e0
f9e0
3f80
ENDCHAR
STARTCHAR Agrave
ENCODING 192
SWIDTH 688 0
DWIDTH 17 0
BBX 18 24 -2 0
BITMAP
007800
003800
003800
001c00
000c00
000000
000000
003c00
007c00
007c00
00fc00
00fc00
019e00
019e00
031e00
071e00
061e00
0ffe00
0c0f00
180f00
180f00
380f00
300f00
fc3fc0
ENDCHAR
STARTCHAR Aacute
ENCODING 193
SWIDTH 688 0
DWIDTH 17 0
BBX 18 24 -2 0
BITMAP
0003c0
000780
000700
000e00
001c00
000000
000000
003c00
007c00
007c00
00fc00
00fc00
019e00
019e00
031e00
071e00
061e00
0ffe00
0c0f00
180f00
180f00
380f00
300f00
fc3fc0
ENDCHAR
STARTCHAR Acircumflex
ENCODING 194
SWIDTH 688 0
DWIDTH 17 0
BBX 18 24 -2 0
BITMAP
001c00
003e00
003600
007600
00e700
000000
000000
003c00
007c00
007c00
00fc00
00fc00
019e00
019e00
031e00
071e00
061e00
0ffe00
0c0f00
180f00
180f00
380f00
300f00
fc3fc0
ENDCHAR
STARTCHAR Atilde
ENCODING 195
SWIDTH 688 0
DWIDTH 17 0
BBX 18 23 -2 0
BITMAP
002180
007f80
00ff00
00c200
000000
000000
003c00
007c00
007c00
00fc00
00fc00
019e00
019e00
031e00
071e00
061e00
0ffe00
0c0f00
180f00
180f00
380f00
300f00
fc3fc0
ENDCHAR
STARTCHAR Adieresis
ENCODING 196
SWIDTH 688 0
DWIDTH 17 0
BBX 18 23 -2 0
BITMAP
00c300
01e780
01e780
00c300
000000
000000
003c00
007c00
007c00
00fc00
00fc00
019e00
019e00
031e00
071e00
061e00
0ffe00
0c0f00
180f00
180f00
380f00
300f00
fc3fc0
ENDCHAR
STARTCHAR Aring
ENCODING 197
SWIDTH 688 0
DWIDTH 17 0
BBX 18 24 -2 0
BITMAP
003c00
006600
006200
006200
006600
003c00
000000
003c00
007c00
007c00
00fc00
00fc00
019e00
019e00
031e00
071e00
061e00
0ffe00
0c0f00
180f00
180f00
380f00
300f00
fc3fc0
ENDCHAR
STARTCHAR AE
ENCODING 198
SWIDTH 951 0
DWIDTH 24 0
BBX 26 17 -2 0
BITMAP
003fffc0
000de1c0
001fc180
003bc180
0033c000
0063c600
00e3cc00
00c7cc00
0187fc00
03ff8c00
02078800
06078000
0c0f8300
0c0f0300
180f0300
380f0700
fc3fff00
ENDCHAR
STARTCHAR Ccedilla
ENCODING 199
SWIDTH 671 0
DWIDTH 17 0
BBX 16 23 1 -6
BITMAP
01fc00
07ff00
1f8700
3e0600
3c0600
780000
780000
f00000
f00000
f00000
f00000
f00c00
f81c00
781c00
3c3800
1ff800
0fe000
020000
038000
038000
018000
0f0000
0f0000
ENDCHAR
STARTCHAR Egrave
ENCODING 200
SWIDTH 639 0
DWIDTH 15 0
BBX 16 24 -1 0
BITMAP
01e000
00e000
00e000
007000
003000
000000
000000
1fff00
0f0700
0f0600
0f0600
0f0000
0f1800
0f1000
1f3000
1ff000
1e3000
1e3000
1e3000
1e0c00
3c0c00
3c0c00
3c1c00
fffc00
ENDCHAR
STARTCHAR Eacute
ENCODING 201
SWIDTH 639 0
DWIDTH 15 0
BBX 16 24 -1 0
BITMAP
000f00
001e00
001c00
003800
007000
000000
000000
1fff00
0f0700
0f0600
0f0600
0f0000
0f1800
0f1000
1f3000
1ff000
1e3000
1e3000
1e3000
1e0c00
3c0c00
3c0c00
3c1c00
fffc00
ENDCHAR
STARTCHAR Ecircumflex
ENCODING 202
SWIDTH 639 0
DWIDTH 15 0
BBX 16 24 -1 0
BITMAP
007000
00f800
00d800
01d800
039c00
000000
000000
1fff00
0f0700
0f0600
0f0600
0f0000
0f1800
0f1000
1f3000
1ff000
1e3000
1e3000
1e3000
1e0c00
3c0c00
3c0c00
3c1c00
fffc00
ENDCHAR
STARTCHAR Edieresis
ENCODING 203
SWIDTH 639 0
DWIDTH 15 0
BBX 16 23 -1 0
BITMAP
030c00
079e00
079e00
030c00
000000
000000
1fff00
0f0700
0f0600
0f0600
0f0000
0f1800
0f1000
1f3000
1ff000
1e3000
1e3000
1e3000
1e0c00
3c0c00
3c0c00
3c1c00
fffc00
ENDCHAR
STARTCHAR Igrave
ENCODING 204
SWIDTH 407 0
DWIDTH 10 0
BBX 11 24 0 0
BITMAP
1e00
0e00
0e00
0700
0300
0000
0000
1fe0
0780
0780
0f00
0f00
0f00
0f00
0f00
1f00
1e00
1e00
1e00
1e00
1e00
3e00
3c00
ff00
ENDCHAR
STARTCHAR Iacute
ENCODING 205
SWIDTH 407 0
DWIDTH 10 0
BBX 12 24 0 0
BITMAP
00f0
01e0
01c0
0380
0700
0000
0000
1fe0
0780
0780
0f00
0f00
0f00
0f00
0f00
1f00
1e00
1e00
1e00
1e00
1e00
3e00
3c00
ff00
ENDCHAR
STARTCHAR Icircumflex
ENCODING 206
SWIDTH 407 0
DWIDTH 10 0
BBX 11 24 0 0
BITMAP
0700
0f80
0d80
1d80
39c0
0000
0000
1fe0
0780
0780
0f00
0f00
0f00
0f00
0f00
1f00
1e00
1e00
1e00
1e00
1e00
3e00
3c00
ff00
ENDCHAR
STARTCHAR Idieresis
ENCODING 207
SWIDTH 407 0
DWIDTH 10 0
BBX 11 23 0 0
BITMAP
30c0
79e0
79e0
30c0
0000
0000
1fe0
0780
0780
0f00
0f00
0f00
0f00
0f00
1f00
1e00
1e00
1e00
1e00
1e00
3e00
3c00
ff00
ENDCHAR
STARTCHAR Eth
ENCODING 208
SWIDTH 762 0
DWIDTH 19 0
BBX 19 17 -1 0
BITMAP
1fff00
078f80
0783c0
0783c0
0f81e0
0f81e0
0f81e0
0f01e0
7fe1e0
1f01e0
1f03c0
1f03c0
1e07c0
1e0780
3e0f00
3e3f00
fff800
ENDCHAR
STARTCHAR Ntilde
ENCODING 209
SWIDTH 771 0
DWIDTH 19 0
BBX 20 23 -1 0
BITMAP
002180
007f80
00ff00
00c200
000000
000000
1f83f0
07c0c0
0fc0c0
0fc1c0
0de180
0de180
0cf180
1cf180
18f180
187b80
187b00
187b00
183f00
383f00
301f00
301e00
fc1e00
ENDCHAR
STARTCHAR Ograve
ENCODING 210
SWIDTH 780 0
DWIDTH 19 0
BBX 17 24 1 0
BITMAP
01e000
00e000
00e000
007000
003000
000000
000000
01f800
0ffe00
1f1f00
3e0f00
7c0780
780780
780780
f00780
f00780
f00780
f00f00
f00f00
f01e00
781e00
7c7c00
3ff800
0fc000
ENDCHAR
STARTCHAR Oacute
ENCODING 211
SWIDTH 780 0
DWIDTH 19 0
BBX 17 24 1 0
BITMAP
000f00
001e00
001c00
003800
007000
000000
000000
01f800
0ffe00
1f1f00
3e0f00
7c0780
780780
780780
f00780
f00780
f00780
f00f00
f00f00
f01e00
781e00
7c7c00
3ff800
0fc000
ENDCHAR
STARTCHAR Ocircumflex
ENCODING 212
SWIDTH 780 0
DWIDTH 19 0
BBX 17 24 1 0
BITMAP
007000
00f800
00d800
01d800
039c00
000000
000000
01f800
0ffe00
1f1f00
3e0f00
7c0780
780780
780780
f00780
f00780
f00780
f00f00
f00f00
f01e00
781e00
7c7c00
3ff800
0fc000
ENDCHAR
STARTCHAR Otilde
ENCODING 213
SWIDTH 780 0
DWIDTH 19 0
BBX 17 23 1 0
BITMAP
008600
01fe00
03fc00
030800
000000
000000
01f800
0ffe00
1f1f00
3e0f00
7c0780
780780
780780
f00780
f00780
f00780
f00f00
f00f00
f01e00
781e00
7c7c00
3ff800
0fc000
ENDCHAR
STARTCHAR Odieresis
ENCODING 214
SWIDTH 780 0
DWIDTH 19 0
BBX 17 23 1 0
BITMAP
030c00
079e00
079e00
030c00
000000
000000
01f800
0ffe00
1f1f00
3e0f00
7c0780
780780
780780
f00780
f00780
f00780
f00f00
f00f00
f01e00
781e00
7c7c00
3ff800
0fc000
ENDCHAR
STARTCHAR multiply
ENCODING 215
SWIDTH 833 0
DWIDTH 21 0
BBX 14 14 4 0
BITMAP
4008
e01c
7038
3870
1ce0
0fc0
0780
0780
0fc0
1ce0
3870
7038
e01c
4008
ENDCHAR
STARTCHAR Oslash
ENCODING 216
SWIDTH 780 0
DWIDTH 19 0
BBX 17 21 1 -2
BITMAP
000100
000300
01fa00
07fe00
1f1e00
3e1f00
3c1780
783780
786780
f0c780
f18780
f18780
f30f00
f60f00
fc1e00
781e00
3c7c00
3ff000
2fc000
600000
400000
ENDCHAR
STARTCHAR Ugrave
ENCODING 217
SWIDTH 766 0
DWIDTH 19 0
BBX 18 24 2 0
BITMAP
03c000
01c000
01c000
00e000
006000
000000
000000
ff0fc0
3c0300
3c0700
7c0700
780600
780600
780600
780e00
780e00
f00c00
f00c00
f00c00
f01c00
f01800
f87800
7ff000
1fc000
ENDCHAR
STARTCHAR Uacute
ENCODING 218
SWIDTH 766 0
DWIDTH 19 0
BBX 18 24 2 0
BITMAP
001e00
003c00
003800
007000
00e000
000000
000000
ff0fc0
3c0300
3c0700
7c0700
780600
780600
780600
780e00
780e00
f00c00
f00c00
f00c00
f01c00
f01800
f87800
7ff000
1fc000
ENDCHAR
STARTCHAR Ucircumflex
ENCODING 219
SWIDTH 766 0
DWIDTH 19 0
BBX 18 24 2 0
BITMAP
00e000
01f000
01b000
03b000
073800
000000
000000
ff0fc0
3c0300
3c0700
7c0700
780600
780600
780600
780e00
780e00
f00c00
f00c00
f00c00
f01c00
f01800
f87800
7ff000
1fc000
ENDCHAR
STARTCHAR Udieresis
ENCODING 220
SWIDTH 766 0
DWIDTH 19 0
BBX 18 23 2 0
BITMAP
061800
0f3c00
0f3c00
061800
000000
000000
ff0fc0
3c0300
3c0700
7c0700
780600
780600
780600
780e00
780e00
f00c00
f00c00
f00c00
f01c00
f01800
f87800
7ff000
1fc000
ENDCHAR
STARTCHAR Yacute
ENCODING 221
SWIDTH 634 0
DWIDTH 16 0
BBX 17 24 1 0
BITMAP
001e00
003c00
003800
007000
00e000
000000
000000
ff1f80
3c0e00
3c0e00
1e1c00
1e1800
1e3000
1f7000
0f6000
0fc000
0fc000
078000
078000
078000
0f8000
0f0000
0f0000
3fc000
ENDCHAR
STARTCHAR Thorn
ENCODING 222
SWIDTH 644 0
DWIDTH 16 0
BBX 16 17 -1 0
BITMAP
1fe000
078000
078000
0f8000
0ffc00
0f1f00
0f0f00
0f0f00
1f0f00
1f0f00
1f0f00
1e1e00
1e3c00
3ff800
3e0000
3e0000
ff8000
ENDCHAR
STARTCHAR germandbls
ENCODING 223
SWIDTH 697 0
DWIDTH 18 0
BBX 20 24 -4 -6
BITMAP
001fc0
0038f0
0070f0
00f0f0
00e0f0
01e1f0
01e3c0
01e780
01e780
01c780
03c7c0
03c3e0
03c1f0
03c0f0
03dcf0
03dc70
039ce0
078fc0
070000
470000
e60000
fc0000
f80000
700000
ENDCHAR
STARTCHAR agrave
ENCODING 224
SWIDTH 650 0
DWIDTH 16 0
BBX 16 19 0 0
BITMAP
078000
038000
038000
01c000
00c000
000000
000000
0ffc00
3cfc00
387800
787800
707800
f07800
f0f800
f0f000
f0f000
f9f000
7fff00
3cfc00
ENDCHAR
STARTCHAR aacute
ENCODING 225
SWIDTH 650 0
DWIDTH 16 0
BBX 16 19 0 0
BITMAP
003c00
007800
007000
00e000
01c000
000000
000000
0ffc00
3cfc00
387800
787800
707800
f07800
f0f800
f0f000
f0f000
f9f000
7fff00
3cfc00
ENDCHAR
STARTCHAR acircumflex
ENCODING 226
SWIDTH 650 0
DWIDTH 16 0
BBX 16 19 0 0
BITMAP
01c000
03e000
036000
076000
0e7000
000000
000000
0ffc00
3cfc00
387800
787800
707800
f07800
f0f800
f0f000
f0f000
f9f000
7fff00
3cfc00
ENDCHAR
STARTCHAR atilde
ENCODING 227
SWIDTH 650 0
DWIDTH 16 0
BBX 16 18 0 0
BITMAP
021800
07f800
0ff000
0c2000
000000
000000
0ffc00
3cfc00
387800
787800
707800
f07800
f0f800
f0f000
f0f000
f9f000
7fff00
3cfc00
ENDCHAR
STARTCHAR adieresis
ENCODING 228
SWIDTH 650 0
DWIDTH 16 0
BBX 16 18 0 0
BITMAP
0c3000
1e7800
1e7800
0c3000
000000
000000
0ffc00
3cfc00
387800
787800
707800
f07800
f0f800
f0f000
f0f000
f9f000
7fff00
3cfc00
ENDCHAR
STARTCHAR aring
ENCODING 229
SWIDTH 650 0
DWIDTH 16 0
BBX 16 19 0 0
BITMAP
03c000
066000
046000
066000
03c000
038000
000000
0ffc00
3cfc00
387800
787800
707800
f07800
f0f800
f0f000
f0f000
f9f000
7fff00
3cfc00
ENDCHAR
STARTCHAR ae
ENCODING 230
SWIDTH 796 0
DWIDTH 20 0
BBX 19 12 0 0
BITMAP
0fcfc0
39f9e0
78f1e0
78f1e0
00e3c0
0fff80
79e000
f1e000
f1e040
f1f1c0
ffffc0
7c7e00
ENDCHAR
STARTCHAR ccedilla
ENCODING 231
SWIDTH 498 0
DWIDTH 12 0
BBX 11 18 0 -6
BITMAP
0fc0
3de0
38e0
78c0
7000
f000
f000
f000
f020
f860
7fc0
3f00
1000
1c00
1c00
0c00
7800
7800
ENDCHAR
STARTCHAR egrave
ENCODING 232
SWIDTH 523 0
DWIDTH 13 0
BBX 12 19 0 0
BITMAP
0f00
0700
0700
0380
0180
0000
0000
07e0
1cf0
38f0
79f0
f3e0
ff00
f000
f000
f020
f8e0
7fc0
3e00
ENDCHAR
STARTCHAR eacute
ENCODING 233
SWIDTH 523 0
DWIDTH 13 0
BBX 13 19 0 0
BITMAP
0078
00f0
00e0
01c0
0380
0000
0000
07e0
1cf0
38f0
79f0
f3e0
ff00
f000
f000
f020
f8e0
7fc0
3e00
ENDCHAR
STARTCHAR ecircumflex
ENCODING 234
SWIDTH 523 0
DWIDTH 13 0
BBX 12 19 0 0
BITMAP
0380
07c0
06c0
0ec0
1ce0
0000
0000
07e0
1cf0
38f0
79f0
f3e0
ff00
f000
f000
f020
f8e0
7fc0
3e00
ENDCHAR
STARTCHAR edieresis
ENCODING 235
SWIDTH 523 0
DWIDTH 13 0
BBX 12 18 0 0
BITMAP
1860
3cf0
3cf0
1860
0000
0000
07e0
1cf0
38f0
79f0
f3e0
ff00
f000
f000
f020
f8e0
7fc0
3e00
ENDCHAR
STARTCHAR igrave
ENCODING 236
SWIDTH 361 0
DWIDTH 9 0
BBX 8 19 1 0
BITMAP
7800
3800
3800
1c00
0c00
0000
0000
3c00
fc00
3800
7800
7800
7800
7800
f000
f000
f000
ff00
7800
ENDCHAR
STARTCHAR iacute
ENCODING 237
SWIDTH 361 0
DWIDTH 9 0
BBX 10 19 1 0
BITMAP
03c0
0780
0700
0e00
1c00
0000
0000
3c00
fc00
3800
7800
7800
7800
7800
f000
f000
f000
ff00
7800
ENDCHAR
STARTCHAR icircumflex
ENCODING 238
SWIDTH 361 0
DWIDTH 9 0
BBX 8 19 1 0
BITMAP
1c00
3e00
3600
7600
e700
0000
0000
3c00
fc00
3800
7800
7800
7800
7800
f000
f000
f000
ff00
7800
ENDCHAR
STARTCHAR idieresis
ENCODING 239
SWIDTH 361 0
DWIDTH 9 0
BBX 10 18 0 0
BITMAP
6180
f3c0
f3c0
6180
0000
0000
1e00
7e00
1c00
3c00
3c00
3c00
3c00
7800
7800
7800
7f80
3c00
ENDCHAR
STARTCHAR eth
ENCODING 240
SWIDTH 645 0
DWIDTH 16 0
BBX 14 18 1 0
BITMAP
03c0
0fec
01f0
07f0
0cf8
0078
0ffc
3e3c
7c3c
783c
f83c
f03c
f03c
f038
f078
7070
78e0
3f80
ENDCHAR
STARTCHAR ntilde
ENCODING 241
SWIDTH 669 0
DWIDTH 17 0
BBX 15 18 1 0
BITMAP
0218
07f8
0ff0
0c20
0000
0000
1e78
fdfc
3f7c
3c3c
3c3c
7878
7878
7878
7878
7878
f87e
f07c
ENDCHAR
STARTCHAR ograve
ENCODING 242
SWIDTH 620 0
DWIDTH 15 0
BBX 13 19 1 0
BITMAP
0780
0380
0380
01c0
00c0
0000
0000
0fe0
3cf0
7878
7878
f078
f078
f078
f078
f0f0
f0f0
79e0
3f80
ENDCHAR
STARTCHAR oacute
ENCODING 243
SWIDTH 620 0
DWIDTH 15 0
BBX 14 19 1 0
BITMAP
003c
0078
0070
00e0
01c0
0000
0000
0fe0
3cf0
7878
7878
f078
f078
f078
f078
f0f0
f0f0
79e0
3f80
ENDCHAR
STARTCHAR ocircumflex
ENCODING 244
SWIDTH 620 0
DWIDTH 15 0
BBX 13 19 1 0
BITMAP
01c0
03e0
0360
0760
0e70
0000
0000
0fe0
3cf0
7878
7878
f078
f078
f078
f078
f0f0
f0f0
79e0
3f80
ENDCHAR
STARTCHAR otilde
ENCODING 245
SWIDTH 620 0
DWIDTH 15 0
BBX 13 18 1 0
BITMAP
0218
07f8
0ff0
0c20
0000
0000
0fe0
3cf0
7878
7878
f078
f078
f078
f078
f0f0
f0f0
79e0
3f80
ENDCHAR
STARTCHAR odieresis
ENCODING 246
SWIDTH 620 0
DWIDTH 15 0
BBX 13 18 1 0
BITMAP
0c30
1e78
1e78
0c30
0000
0000
0fe0
3cf0
7878
7878
f078
f078
f078
f078
f0f0
f0f0
79e0
3f80
ENDCHAR
STARTCHAR divide
ENCODING 247
SWIDTH 833 0
DWIDTH 21 0
BBX 15 12 3 1
BITMAP
0380
0380
0380
0000
0000
fffe
fffe
0000
0000
0380
0380
0380
ENDCHAR
STARTCHAR oslash
ENCODING 248
SWIDTH 620 0
DWIDTH 15 0
BBX 13 16 1 -2
BITMAP
0030
0020
0fe0
3cf0
38f8
79f8
f178
f278
f278
f478
fcf0
78f0
79e0
3f80
2000
6000
ENDCHAR
STARTCHAR ugrave
ENCODING 249
SWIDTH 669 0
DWIDTH 17 0
BBX 17 19 0 0
BITMAP
03c000
01c000
01c000
00e000
006000
000000
000000
1e1e00
fe1e00
3c3e00
3c3c00
3c3c00
3c3c00
3c3c00
783c00
787800
78f800
7ffd80
3c3e00
ENDCHAR
STARTCHAR uacute
ENCODING 250
SWIDTH 669 0
DWIDTH 17 0
BBX 17 19 0 0
BITMAP
001e00
003c00
003800
007000
00e000
000000
000000
1e1e00
fe1e00
3c3e00
3c3c00
3c3c00
3c3c00
3c3c00
783c00
787800
78f800
7ffd80
3c3e00
ENDCHAR
STARTCHAR ucircumflex
ENCODING 251
SWIDTH 669 0
DWIDTH 17 0
BBX 17 19 0 0
BITMAP
00e000
01f000
01b000
03b000
073800
000000
000000
1e1e00
fe1e00
3c3e00
3c3c00
3c3c00
3c3c00
3c3c00
783c00
787800
78f800
7ffd80
3c3e00
ENDCHAR
STARTCHAR udieresis
ENCODING 252
SWIDTH 669 0
DWIDTH 17 0
BBX 17 18 0 0
BITMAP
061800
0f3c00
0f3c00
061800
000000
000000
1e1e00
fe1e00
3c3e00
3c3c00
3c3c00
3c3c00
3c3c00
783c00
787800
78f800
7ffd80
3c3e00
ENDCHAR
STARTCHAR yacute
ENCODING 253
SWIDTH 535 0
DWIDTH 13 0
BBX 15 25 -1 -6
BITMAP
003c
0078
0070
00e0
01c0
0000
0000
1e0c
7e1e
1e18
1e38
0f30
0f30
0f60
0f60
0fc0
07c0
0780
0180
0300
4600
e600
fc00
f800
7000
ENDCHAR
STARTCHAR thorn
ENCODING 254
SWIDTH 637 0
DWIDTH 15 0
BBX 16 24 -2 -6
BITMAP
03c000
1fc000
038000
078000
078000
078000
07bc00
077e00
0f9f00
0f0f00
0f0f00
0f0f00
0f0f00
0f0e00
1e1e00
1e1c00
1e3c00
1ff000
1e0000
3e0000
3c0000
3c0000
7c0000
ff0000
ENDCHAR
STARTCHAR ydieresis
ENCODING 255
SWIDTH 535 0
DWIDTH 13 0
BBX 15 24 -1 -6
BITMAP
0c30
1e78
1e78
0c30
0000
0000
1e0c
7e1e
1e18
1e38
0f30
0f30
0f60
0f60
0fc0
07c0
0780
0180
0300
4600
e600
fc00
f800
7000
ENDCHAR
ENDFONT
