STARTFONT 2.1
COMMENT $Xorg: charR12.bdf,v 1.3 2000/08/17 19:42:54 cpqbld Exp $
COMMENT  
COMMENT  Copyright 1988 Bitstream, Inc., Cambridge, Massachusetts, USA
COMMENT  Bitstream and Charter are registered trademarks of Bitstream, Inc.
COMMENT  
COMMENT  The names "Bitstream" and "Charter" are registered trademarks of
COMMENT  Bitstream, Inc.  Permission to use these trademarks is hereby
COMMENT  granted only in association with the images described in this file.
COMMENT  
COMMENT  Permission to use, copy, modify, and distribute this software and
COMMENT  its documentation for any purpose and without fee is hereby
COMMENT  granted, provided that the above copyright notice appear in all
COMMENT  copies and that both that copyright notice and this permission
COMMENT  notice appear in supporting documentation, and that the name of
COMMENT  Bitstream not be used in advertising or publicity pertaining to
COMMENT  distribution of the software without specific, written prior
COMMENT  permission.  Bitstream makes no representations about the
COMMENT  suitability of this software for any purpose.  It is provided "as
COMMENT  is" without express or implied warranty.
COMMENT  
COMMENT  BITSTREAM DISCLAIMS ALL WARRANTIES WITH REGARD TO THIS SOFTWARE,
COMMENT  INCLUDING ALL IMPLIED WARRANTIES OF MERCHANTABILITY AND FITNESS, IN
COMMENT  NO EVENT SHALL BITSTREAM BE LIABLE FOR ANY SPECIAL, INDIRECT OR
COMMENT  CONSEQUENTIAL DAMAGES OR ANY DAMAGES WHATSOEVER RESULTING FROM LOSS
COMMENT  OF USE, DATA OR PROFITS, WHETHER IN AN ACTION OF CONTRACT,
COMMENT  NEGLIGENCE OR OTHER TORTIOUS ACTION, ARISING OUT OF OR IN
COMMENT  CONNECTION WITH THE USE OR PERFORMANCE OF THIS SOFTWARE.
COMMENT  
COMMENT  
COMMENT Fontware CVTBDF v1.0
FONT -Bitstream-Charter-Medium-R-Normal--17-120-100-100-P-95-ISO8859-1
SIZE 12 100 100
FONTBOUNDINGBOX 17 20 -2 -4
STARTPROPERTIES 22
COMMENT Begin LogicalFontDescription
FONTNAME_REGISTRY ""
FAMILY_NAME "Charter"
FOUNDRY "Bitstream"
WEIGHT_NAME "Medium"
SETWIDTH_NAME "Normal"
SLANT "R"
ADD_STYLE_NAME ""
PIXEL_SIZE 17
POINT_SIZE 120
RESOLUTION_X 100
RESOLUTION_Y 100
SPACING "P"
AVERAGE_WIDTH 95
CHARSET_REGISTRY "ISO8859"
CHARSET_ENCODING "1"
COMMENT END LogicalFontDescription
FONT_DESCENT 4
FONT_ASCENT 16
CAP_HEIGHT 11
X_HEIGHT 8
CHARSET_COLLECTIONS "ASCII ISOLATIN1"
FACE_NAME "Bitstream Charter Roman"
COPYRIGHT "Copyright 1987 by Bitstream Inc. Charter Registered trademark of Bitstream Inc."
COMMENT ****** end of font properties
ENDPROPERTIES
CHARS 191
STARTCHAR space
ENCODING 32
SWIDTH 278 0
DWIDTH 5 0
BBX 1 1 0 0
BITMAP
00
ENDCHAR
STARTCHAR exclam
ENCODING 33
SWIDTH 338 0
DWIDTH 6 0
BBX 2 11 2 0
BITMAP
c0
c0
c0
c0
c0
c0
c0
40
00
c0
c0
ENDCHAR
STARTCHAR quotedbl
ENCODING 34
SWIDTH 331 0
DWIDTH 7 0
BBX 5 5 1 7
BITMAP
d8
d8
d8
48
48
ENDCHAR
STARTCHAR numbersign
ENCODING 35
SWIDTH 745 0
DWIDTH 12 0
BBX 10 12 1 0
BITMAP
0480
0880
0900
0900
7fc0
1200
1200
ff80
2400
2400
4400
4800
ENDCHAR
STARTCHAR dollar
ENCODING 36
SWIDTH 556 0
DWIDTH 9 0
BBX 7 15 1 -2
BITMAP
10
10
3e
d2
92
90
f0
7c
16
12
92
94
f8
10
10
ENDCHAR
STARTCHAR percent
ENCODING 37
SWIDTH 852 0
DWIDTH 14 0
BBX 13 11 1 0
BITMAP
7040
8840
8880
8900
8970
8a88
7488
0488
0888
1088
1070
ENDCHAR
STARTCHAR ampersand
ENCODING 38
SWIDTH 704 0
DWIDTH 12 0
BBX 11 11 1 0
BITMAP
3c00
4600
4200
6200
7c00
79e0
cc80
8680
8300
e380
7ce0
ENDCHAR
STARTCHAR quoteright
ENCODING 39
SWIDTH 201 0
DWIDTH 3 0
BBX 2 5 1 7
BITMAP
c0
c0
40
40
80
ENDCHAR
STARTCHAR parenleft
ENCODING 40
SWIDTH 417 0
DWIDTH 7 0
BBX 5 14 2 -2
BITMAP
18
60
40
c0
80
80
80
80
80
80
c0
40
60
18
ENDCHAR
STARTCHAR parenright
ENCODING 41
SWIDTH 417 0
DWIDTH 7 0
BBX 5 14 0 -2
BITMAP
c0
20
10
18
08
08
08
08
08
08
08
10
30
c0
ENDCHAR
STARTCHAR asterisk
ENCODING 42
SWIDTH 500 0
DWIDTH 8 0
BBX 7 6 1 6
BITMAP
10
10
fe
00
28
6c
ENDCHAR
STARTCHAR plus
ENCODING 43
SWIDTH 833 0
DWIDTH 14 0
BBX 9 11 3 0
BITMAP
0800
0800
0800
0800
0800
ff80
0800
0800
0800
0800
0800
ENDCHAR
STARTCHAR comma
ENCODING 44
SWIDTH 278 0
DWIDTH 4 0
BBX 2 5 1 -3
BITMAP
c0
c0
40
40
80
ENDCHAR
STARTCHAR hyphen
ENCODING 45
SWIDTH 319 0
DWIDTH 5 0
BBX 4 1 1 4
BITMAP
f0
ENDCHAR
STARTCHAR period
ENCODING 46
SWIDTH 278 0
DWIDTH 4 0
BBX 2 2 1 0
BITMAP
c0
c0
ENDCHAR
STARTCHAR slash
ENCODING 47
SWIDTH 481 0
DWIDTH 8 0
BBX 8 13 0 -2
BITMAP
0100
0200
0200
0400
0400
0800
0800
1000
2000
2000
4000
4000
8000
ENDCHAR
STARTCHAR zero
ENCODING 48
SWIDTH 556 0
DWIDTH 9 0
BBX 7 11 1 0
BITMAP
38
44
c2
82
82
82
82
82
c6
44
38
ENDCHAR
STARTCHAR one
ENCODING 49
SWIDTH 556 0
DWIDTH 9 0
BBX 5 11 2 0
BITMAP
30
d0
10
10
10
10
10
10
10
10
78
ENDCHAR
STARTCHAR two
ENCODING 50
SWIDTH 556 0
DWIDTH 9 0
BBX 7 11 1 0
BITMAP
7c
86
82
02
02
04
0c
30
60
82
fe
ENDCHAR
STARTCHAR three
ENCODING 51
SWIDTH 556 0
DWIDTH 9 0
BBX 7 11 1 0
BITMAP
7c
84
86
06
0c
38
06
02
82
84
78
ENDCHAR
STARTCHAR four
ENCODING 52
SWIDTH 556 0
DWIDTH 9 0
BBX 8 12 1 -1
BITMAP
0400
0c00
1c00
1400
2400
4400
c400
ff00
0400
0400
0400
0400
ENDCHAR
STARTCHAR five
ENCODING 53
SWIDTH 556 0
DWIDTH 9 0
BBX 8 11 0 0
BITMAP
7f00
4000
4000
4000
7e00
0300
0100
0100
4100
c200
7c00
ENDCHAR
STARTCHAR six
ENCODING 54
SWIDTH 556 0
DWIDTH 9 0
BBX 7 12 1 0
BITMAP
0c
30
40
c0
bc
c6
82
82
82
82
44
38
ENDCHAR
STARTCHAR seven
ENCODING 55
SWIDTH 556 0
DWIDTH 9 0
BBX 7 12 1 -1
BITMAP
fe
86
84
04
08
08
10
10
20
20
40
40
ENDCHAR
STARTCHAR eight
ENCODING 56
SWIDTH 556 0
DWIDTH 9 0
BBX 7 11 1 0
BITMAP
3c
44
42
42
64
3c
c6
82
82
c6
3c
ENDCHAR
STARTCHAR nine
ENCODING 57
SWIDTH 556 0
DWIDTH 9 0
BBX 7 11 1 0
BITMAP
38
44
82
82
82
c6
7e
04
08
30
40
ENDCHAR
STARTCHAR colon
ENCODING 58
SWIDTH 319 0
DWIDTH 5 0
BBX 2 8 2 0
BITMAP
c0
c0
00
00
00
00
c0
c0
ENDCHAR
STARTCHAR semicolon
ENCODING 59
SWIDTH 319 0
DWIDTH 5 0
BBX 3 11 1 -3
BITMAP
60
60
00
00
00
00
60
60
20
20
c0
ENDCHAR
STARTCHAR less
ENCODING 60
SWIDTH 833 0
DWIDTH 14 0
BBX 10 9 2 1
BITMAP
0040
0380
0c00
7000
c000
7000
0e00
0380
0040
ENDCHAR
STARTCHAR equal
ENCODING 61
SWIDTH 833 0
DWIDTH 14 0
BBX 10 4 2 3
BITMAP
ffc0
0000
0000
ffc0
ENDCHAR
STARTCHAR greater
ENCODING 62
SWIDTH 833 0
DWIDTH 14 0
BBX 10 9 2 1
BITMAP
8000
7000
0c00
0380
00c0
0380
0c00
7000
8000
ENDCHAR
STARTCHAR question
ENCODING 63
SWIDTH 486 0
DWIDTH 8 0
BBX 5 11 1 0
BITMAP
70
88
08
08
18
30
40
40
00
60
60
ENDCHAR
STARTCHAR at
ENCODING 64
SWIDTH 942 0
DWIDTH 16 0
BBX 13 14 2 -2
BITMAP
0fc0
1020
2010
4748
8888
9888
9088
9190
93b0
cdc0
4000
6000
3060
0f80
ENDCHAR
STARTCHAR A
ENCODING 65
SWIDTH 639 0
DWIDTH 11 0
BBX 11 11 0 0
BITMAP
0400
0e00
0a00
0a00
1300
1100
3f80
2180
2080
40c0
e1e0
ENDCHAR
STARTCHAR B
ENCODING 66
SWIDTH 604 0
DWIDTH 10 0
BBX 9 11 1 0
BITMAP
fe00
4300
4180
4100
4300
7e00
4180
4080
4080
4180
fe00
ENDCHAR
STARTCHAR C
ENCODING 67
SWIDTH 632 0
DWIDTH 10 0
BBX 9 11 1 0
BITMAP
1f00
6080
4080
8000
8000
8000
8000
8000
4080
6080
1f00
ENDCHAR
STARTCHAR D
ENCODING 68
SWIDTH 694 0
DWIDTH 12 0
BBX 11 11 1 0
BITMAP
fe00
41c0
4040
4020
4020
4020
4020
4020
4040
41c0
ff00
ENDCHAR
STARTCHAR E
ENCODING 69
SWIDTH 576 0
DWIDTH 10 0
BBX 9 11 1 0
BITMAP
ff00
4100
4100
4000
4200
7e00
4200
4000
4080
4080
ff80
ENDCHAR
STARTCHAR F
ENCODING 70
SWIDTH 537 0
DWIDTH 9 0
BBX 8 11 1 0
BITMAP
ff00
4100
4100
4000
4200
7e00
4200
4000
4000
4000
f000
ENDCHAR
STARTCHAR G
ENCODING 71
SWIDTH 694 0
DWIDTH 12 0
BBX 11 11 1 0
BITMAP
1fc0
7040
4040
8000
8000
81e0
8040
c040
4040
7040
1f80
ENDCHAR
STARTCHAR H
ENCODING 72
SWIDTH 738 0
DWIDTH 12 0
BBX 11 11 1 0
BITMAP
e0e0
4040
4040
4040
4040
7fc0
4040
4040
4040
4040
e0e0
ENDCHAR
STARTCHAR I
ENCODING 73
SWIDTH 324 0
DWIDTH 4 0
BBX 3 11 1 0
BITMAP
e0
40
40
40
40
40
40
40
40
40
e0
ENDCHAR
STARTCHAR J
ENCODING 74
SWIDTH 444 0
DWIDTH 7 0
BBX 7 11 0 0
BITMAP
1e
04
04
04
04
04
04
04
84
8c
f8
ENDCHAR
STARTCHAR K
ENCODING 75
SWIDTH 611 0
DWIDTH 10 0
BBX 9 11 1 0
BITMAP
e780
4200
4400
4800
5000
7000
5800
4c00
4600
4200
e380
ENDCHAR
STARTCHAR L
ENCODING 76
SWIDTH 520 0
DWIDTH 9 0
BBX 8 11 1 0
BITMAP
e000
4000
4000
4000
4000
4000
4000
4000
4100
4100
ff00
ENDCHAR
STARTCHAR M
ENCODING 77
SWIDTH 866 0
DWIDTH 14 0
BBX 13 11 1 0
BITMAP
e038
7030
5050
5850
58d0
4890
4c90
4510
4710
4610
e238
ENDCHAR
STARTCHAR N
ENCODING 78
SWIDTH 713 0
DWIDTH 12 0
BBX 11 11 1 0
BITMAP
e0e0
7040
7040
5840
4c40
4640
4640
4340
41c0
40c0
e0c0
ENDCHAR
STARTCHAR O
ENCODING 79
SWIDTH 731 0
DWIDTH 12 0
BBX 11 11 1 0
BITMAP
1f00
60c0
4060
8020
8020
8020
8020
8020
4060
60c0
1f00
ENDCHAR
STARTCHAR P
ENCODING 80
SWIDTH 558 0
DWIDTH 9 0
BBX 8 11 1 0
BITMAP
fe00
4300
4100
4100
4100
4200
7c00
4000
4000
4000
f000
ENDCHAR
STARTCHAR Q
ENCODING 81
SWIDTH 731 0
DWIDTH 12 0
BBX 11 14 1 -3
BITMAP
1f00
60c0
4060
8020
8020
8020
8020
8020
4060
60c0
1f00
0600
0600
03e0
ENDCHAR
STARTCHAR R
ENCODING 82
SWIDTH 646 0
DWIDTH 11 0
BBX 10 11 1 0
BITMAP
fe00
4300
4100
4100
4300
7c00
4600
4300
4100
4100
e0c0
ENDCHAR
STARTCHAR S
ENCODING 83
SWIDTH 556 0
DWIDTH 9 0
BBX 8 11 1 0
BITMAP
7f00
c100
8100
8000
e000
7e00
0700
0100
8100
8300
fc00
ENDCHAR
STARTCHAR T
ENCODING 84
SWIDTH 597 0
DWIDTH 10 0
BBX 9 11 1 0
BITMAP
ff80
8880
8880
0800
0800
0800
0800
0800
0800
0800
1c00
ENDCHAR
STARTCHAR U
ENCODING 85
SWIDTH 694 0
DWIDTH 12 0
BBX 11 11 1 0
BITMAP
e0e0
4040
4040
4040
4040
4040
4040
4040
4040
6080
3f00
ENDCHAR
STARTCHAR V
ENCODING 86
SWIDTH 618 0
DWIDTH 10 0
BBX 11 11 0 0
BITMAP
f0e0
6040
2080
3080
3080
1100
1900
0a00
0a00
0e00
0400
ENDCHAR
STARTCHAR W
ENCODING 87
SWIDTH 928 0
DWIDTH 15 0
BBX 15 11 0 0
BITMAP
f11e
6184
6288
2288
3288
32c8
1450
1450
1c70
0820
0820
ENDCHAR
STARTCHAR X
ENCODING 88
SWIDTH 600 0
DWIDTH 10 0
BBX 10 11 0 0
BITMAP
f3c0
2100
3100
1a00
0c00
0c00
0e00
1200
2300
4180
e3c0
ENDCHAR
STARTCHAR Y
ENCODING 89
SWIDTH 586 0
DWIDTH 9 0
BBX 10 11 0 0
BITMAP
f1c0
6080
3100
1100
0a00
0c00
0400
0400
0400
0400
1e00
ENDCHAR
STARTCHAR Z
ENCODING 90
SWIDTH 586 0
DWIDTH 10 0
BBX 8 11 1 0
BITMAP
ff00
8300
8600
0c00
0800
1800
3000
2000
6100
c100
ff00
ENDCHAR
STARTCHAR bracketleft
ENCODING 91
SWIDTH 421 0
DWIDTH 7 0
BBX 4 14 2 -2
BITMAP
f0
80
80
80
80
80
80
80
80
80
80
80
80
f0
ENDCHAR
STARTCHAR backslash
ENCODING 92
SWIDTH 481 0
DWIDTH 8 0
BBX 8 13 0 -2
BITMAP
8000
4000
2000
2000
1000
1000
0800
0800
0400
0400
0200
0200
0100
ENDCHAR
STARTCHAR bracketright
ENCODING 93
SWIDTH 421 0
DWIDTH 7 0
BBX 4 14 1 -2
BITMAP
f0
10
10
10
10
10
10
10
10
10
10
10
10
f0
ENDCHAR
STARTCHAR asciicircum
ENCODING 94
SWIDTH 1000 0
DWIDTH 17 0
BBX 10 5 3 7
BITMAP
0c00
1e00
3300
4080
8040
ENDCHAR
STARTCHAR underscore
ENCODING 95
SWIDTH 500 0
DWIDTH 8 0
BBX 8 1 0 -4
BITMAP
ff00
ENDCHAR
STARTCHAR quoteleft
ENCODING 96
SWIDTH 201 0
DWIDTH 3 0
BBX 2 5 1 7
BITMAP
40
80
80
c0
c0
ENDCHAR
STARTCHAR a
ENCODING 97
SWIDTH 507 0
DWIDTH 8 0
BBX 7 8 1 0
BITMAP
78
c4
04
1c
64
84
8c
76
ENDCHAR
STARTCHAR b
ENCODING 98
SWIDTH 539 0
DWIDTH 9 0
BBX 7 13 1 0
BITMAP
c0
40
40
40
40
7c
46
42
42
42
42
44
78
ENDCHAR
STARTCHAR c
ENCODING 99
SWIDTH 446 0
DWIDTH 7 0
BBX 5 8 1 0
BITMAP
70
58
98
80
80
80
c8
78
ENDCHAR
STARTCHAR d
ENCODING 100
SWIDTH 565 0
DWIDTH 8 0
BBX 7 13 1 0
BITMAP
0c
04
04
04
04
3c
44
84
84
84
84
4c
76
ENDCHAR
STARTCHAR e
ENCODING 101
SWIDTH 491 0
DWIDTH 8 0
BBX 6 8 1 0
BITMAP
38
44
84
fc
80
80
44
78
ENDCHAR
STARTCHAR f
ENCODING 102
SWIDTH 321 0
DWIDTH 5 0
BBX 5 13 1 0
BITMAP
18
28
40
40
40
f0
40
40
40
40
40
40
e0
ENDCHAR
STARTCHAR g
ENCODING 103
SWIDTH 523 0
DWIDTH 9 0
BBX 8 12 1 -4
BITMAP
7800
cf00
8400
cc00
7800
4000
7c00
8600
8200
8200
8400
7800
ENDCHAR
STARTCHAR h
ENCODING 104
SWIDTH 564 0
DWIDTH 9 0
BBX 8 13 1 0
BITMAP
c000
4000
4000
4000
4000
7c00
4200
4200
4200
4200
4200
4200
e700
ENDCHAR
STARTCHAR i
ENCODING 105
SWIDTH 280 0
DWIDTH 5 0
BBX 3 13 1 0
BITMAP
40
40
40
00
00
c0
40
40
40
40
40
40
e0
ENDCHAR
STARTCHAR j
ENCODING 106
SWIDTH 266 0
DWIDTH 4 0
BBX 5 17 -2 -4
BITMAP
08
08
08
00
00
18
08
08
08
08
08
08
08
08
08
c8
f0
ENDCHAR
STARTCHAR k
ENCODING 107
SWIDTH 518 0
DWIDTH 9 0
BBX 8 13 1 0
BITMAP
c000
4000
4000
4000
4000
4e00
4400
4800
7000
5800
4c00
4600
e700
ENDCHAR
STARTCHAR l
ENCODING 108
SWIDTH 282 0
DWIDTH 5 0
BBX 3 13 1 0
BITMAP
c0
40
40
40
40
40
40
40
40
40
40
40
e0
ENDCHAR
STARTCHAR m
ENCODING 109
SWIDTH 843 0
DWIDTH 14 0
BBX 13 8 1 0
BITMAP
fff0
4210
4210
4210
4210
4210
4210
ef78
ENDCHAR
STARTCHAR n
ENCODING 110
SWIDTH 569 0
DWIDTH 9 0
BBX 8 8 1 0
BITMAP
fe00
4200
4200
4200
4200
4200
4200
e700
ENDCHAR
STARTCHAR o
ENCODING 111
SWIDTH 539 0
DWIDTH 9 0
BBX 7 8 1 0
BITMAP
38
44
82
82
82
82
44
38
ENDCHAR
STARTCHAR p
ENCODING 112
SWIDTH 551 0
DWIDTH 9 0
BBX 7 12 1 -4
BITMAP
fc
46
42
42
42
42
44
78
40
40
40
e0
ENDCHAR
STARTCHAR q
ENCODING 113
SWIDTH 531 0
DWIDTH 8 0
BBX 7 12 1 -4
BITMAP
3c
44
84
84
84
84
c4
7c
04
04
04
0e
ENDCHAR
STARTCHAR r
ENCODING 114
SWIDTH 382 0
DWIDTH 6 0
BBX 5 8 1 0
BITMAP
d8
60
40
40
40
40
40
e0
ENDCHAR
STARTCHAR s
ENCODING 115
SWIDTH 400 0
DWIDTH 7 0
BBX 5 8 1 0
BITMAP
78
88
80
e0
38
88
88
f0
ENDCHAR
STARTCHAR t
ENCODING 116
SWIDTH 335 0
DWIDTH 6 0
BBX 5 10 1 0
BITMAP
40
40
f8
40
40
40
40
40
40
78
ENDCHAR
STARTCHAR u
ENCODING 117
SWIDTH 569 0
DWIDTH 9 0
BBX 8 8 1 0
BITMAP
c600
4200
4200
4200
4200
4200
4600
3b00
ENDCHAR
STARTCHAR v
ENCODING 118
SWIDTH 494 0
DWIDTH 9 0
BBX 9 8 0 0
BITMAP
f380
6100
2200
3200
1200
1400
1c00
0800
ENDCHAR
STARTCHAR w
ENCODING 119
SWIDTH 771 0
DWIDTH 13 0
BBX 13 8 0 0
BITMAP
e338
4310
6510
2590
24a0
38a0
18c0
1040
ENDCHAR
STARTCHAR x
ENCODING 120
SWIDTH 504 0
DWIDTH 8 0
BBX 8 8 0 0
BITMAP
f700
6400
3400
1800
1800
2c00
4600
e700
ENDCHAR
STARTCHAR y
ENCODING 121
SWIDTH 495 0
DWIDTH 9 0
BBX 9 12 0 -4
BITMAP
f380
6100
2200
3200
3200
1400
1c00
0800
0800
1000
5000
e000
ENDCHAR
STARTCHAR z
ENCODING 122
SWIDTH 468 0
DWIDTH 8 0
BBX 7 8 1 0
BITMAP
fe
8c
08
18
30
62
c2
fe
ENDCHAR
STARTCHAR braceleft
ENCODING 123
SWIDTH 486 0
DWIDTH 8 0
BBX 6 14 1 -2
BITMAP
0c
10
10
10
10
30
c0
30
10
10
10
10
10
0c
ENDCHAR
STARTCHAR bar
ENCODING 124
SWIDTH 500 0
DWIDTH 8 0
BBX 1 17 4 -4
BITMAP
80
80
80
80
80
80
80
80
80
80
80
80
80
80
80
80
80
ENDCHAR
STARTCHAR braceright
ENCODING 125
SWIDTH 486 0
DWIDTH 8 0
BBX 6 14 1 -2
BITMAP
c0
20
20
20
20
30
0c
30
20
20
20
20
20
c0
ENDCHAR
STARTCHAR c0126
ENCODING 126
SWIDTH 1000 0
DWIDTH 17 0
BBX 11 2 3 9
BITMAP
3c60
c780
ENDCHAR
STARTCHAR space
ENCODING 160
SWIDTH 278 0
DWIDTH 5 0
BBX 1 1 0 0
BITMAP
00
ENDCHAR
STARTCHAR exclamdown
ENCODING 161
SWIDTH 338 0
DWIDTH 6 0
BBX 2 11 2 0
BITMAP
c0
c0
00
40
c0
c0
c0
c0
c0
c0
c0
ENDCHAR
STARTCHAR cent
ENCODING 162
SWIDTH 556 0
DWIDTH 9 0
BBX 7 12 1 -2
BITMAP
10
10
3e
52
92
90
90
92
52
3e
10
10
ENDCHAR
STARTCHAR sterling
ENCODING 163
SWIDTH 556 0
DWIDTH 9 0
BBX 7 11 1 0
BITMAP
3c
26
44
40
40
f8
40
40
40
80
fe
ENDCHAR
STARTCHAR currency
ENCODING 164
SWIDTH 606 0
DWIDTH 10 0
BBX 9 9 1 3
BITMAP
8080
5d00
2200
4100
4100
4100
2200
5d00
8080
ENDCHAR
STARTCHAR yen
ENCODING 165
SWIDTH 556 0
DWIDTH 9 0
BBX 9 11 0 0
BITMAP
f380
6100
2200
3200
f780
1400
0800
ff80
0800
0800
1c00
ENDCHAR
STARTCHAR brokenbar
ENCODING 166
SWIDTH 500 0
DWIDTH 8 0
BBX 1 15 4 -3
BITMAP
80
80
80
80
80
80
00
00
00
80
80
80
80
80
80
ENDCHAR
STARTCHAR section
ENCODING 167
SWIDTH 500 0
DWIDTH 8 0
BBX 6 14 1 -2
BITMAP
78
c4
84
40
38
4c
84
84
e8
38
0c
84
88
70
ENDCHAR
STARTCHAR dieresis
ENCODING 168
SWIDTH 500 0
DWIDTH 8 0
BBX 5 2 1 10
BITMAP
d8
d8
ENDCHAR
STARTCHAR copyright
ENCODING 169
SWIDTH 900 0
DWIDTH 15 0
BBX 13 13 1 -1
BITMAP
0f00
10c0
2020
4790
4890
9008
9008
9008
4890
4790
2020
10c0
0f00
ENDCHAR
STARTCHAR ordfeminine
ENCODING 170
SWIDTH 380 0
DWIDTH 6 0
BBX 5 6 1 6
BITMAP
60
90
30
d0
90
78
ENDCHAR
STARTCHAR guillemotleft
ENCODING 171
SWIDTH 442 0
DWIDTH 7 0
BBX 6 6 0 1
BITMAP
24
4c
98
98
4c
24
ENDCHAR
STARTCHAR logicalnot
ENCODING 172
SWIDTH 833 0
DWIDTH 14 0
BBX 10 4 2 3
BITMAP
ffc0
0040
0040
0040
ENDCHAR
STARTCHAR hyphen
ENCODING 173
SWIDTH 319 0
DWIDTH 5 0
BBX 4 1 1 4
BITMAP
f0
ENDCHAR
STARTCHAR registered
ENCODING 174
SWIDTH 900 0
DWIDTH 15 0
BBX 13 13 1 -1
BITMAP
0f00
10c0
2020
5f10
4890
8988
8f08
8988
4890
5cf0
2020
10c0
0f00
ENDCHAR
STARTCHAR macron
ENCODING 175
SWIDTH 500 0
DWIDTH 8 0
BBX 5 1 2 10
BITMAP
f8
ENDCHAR
STARTCHAR degree
ENCODING 176
SWIDTH 329 0
DWIDTH 5 0
BBX 5 5 0 7
BITMAP
70
88
88
88
70
ENDCHAR
STARTCHAR plusminus
ENCODING 177
SWIDTH 833 0
DWIDTH 14 0
BBX 9 10 3 0
BITMAP
0800
0800
0800
ff80
0800
0800
0800
0000
0000
ff80
ENDCHAR
STARTCHAR twosuperior
ENCODING 178
SWIDTH 367 0
DWIDTH 6 0
BBX 5 7 1 4
BITMAP
70
88
08
10
20
48
f8
ENDCHAR
STARTCHAR threesuperior
ENCODING 179
SWIDTH 367 0
DWIDTH 6 0
BBX 5 7 1 4
BITMAP
70
88
10
30
08
88
70
ENDCHAR
STARTCHAR acute
ENCODING 180
SWIDTH 500 0
DWIDTH 8 0
BBX 3 3 3 10
BITMAP
60
40
80
ENDCHAR
STARTCHAR mu
ENCODING 181
SWIDTH 548 0
DWIDTH 9 0
BBX 10 10 -1 -3
BITMAP
3100
2100
2300
2200
6240
6640
5980
c000
c000
8000
ENDCHAR
STARTCHAR paragraph
ENCODING 182
SWIDTH 484 0
DWIDTH 8 0
BBX 8 13 0 -2
BITMAP
3f00
7a00
fa00
fa00
fa00
7a00
3a00
0200
0200
0200
0200
0200
0200
ENDCHAR
STARTCHAR periodcentered
ENCODING 183
SWIDTH 278 0
DWIDTH 4 0
BBX 2 2 1 5
BITMAP
c0
c0
ENDCHAR
STARTCHAR cedilla
ENCODING 184
SWIDTH 500 0
DWIDTH 8 0
BBX 4 4 2 -4
BITMAP
40
70
10
e0
ENDCHAR
STARTCHAR onesuperior
ENCODING 185
SWIDTH 367 0
DWIDTH 7 0
BBX 3 7 2 4
BITMAP
40
c0
40
40
40
40
e0
ENDCHAR
STARTCHAR ordmasculine
ENCODING 186
SWIDTH 405 0
DWIDTH 7 0
BBX 6 6 1 6
BITMAP
30
4c
84
84
4c
30
ENDCHAR
STARTCHAR guillemotright
ENCODING 187
SWIDTH 442 0
DWIDTH 7 0
BBX 6 6 1 1
BITMAP
90
c8
64
64
c8
90
ENDCHAR
STARTCHAR onequarter
ENCODING 188
SWIDTH 867 0
DWIDTH 14 0
BBX 13 12 1 0
BITMAP
4000
c040
4080
4100
4100
4210
e230
0450
0890
09f8
1010
2010
ENDCHAR
STARTCHAR onehalf
ENCODING 189
SWIDTH 867 0
DWIDTH 14 0
BBX 13 12 1 0
BITMAP
4000
c040
4080
4100
4100
4270
e288
0408
0810
0820
1048
20f8
ENDCHAR
STARTCHAR threequarters
ENCODING 190
SWIDTH 867 0
DWIDTH 15 0
BBX 14 12 1 0
BITMAP
7000
8840
1080
3100
0900
8a08
7218
0428
0848
08fc
1008
2008
ENDCHAR
STARTCHAR questiondown
ENCODING 191
SWIDTH 486 0
DWIDTH 8 0
BBX 5 11 1 0
BITMAP
30
30
00
10
10
60
c0
80
80
c8
70
ENDCHAR
STARTCHAR Agrave
ENCODING 192
SWIDTH 639 0
DWIDTH 11 0
BBX 11 16 0 0
BITMAP
1800
0800
0400
0000
0000
0400
0e00
0a00
0a00
1300
1100
3f80
2180
2080
40c0
e1e0
ENDCHAR
STARTCHAR Aacute
ENCODING 193
SWIDTH 639 0
DWIDTH 11 0
BBX 11 16 0 0
BITMAP
0600
0400
0800
0000
0000
0400
0e00
0a00
0a00
1300
1100
3f80
2180
2080
40c0
e1e0
ENDCHAR
STARTCHAR Acircumflex
ENCODING 194
SWIDTH 639 0
DWIDTH 11 0
BBX 11 16 0 0
BITMAP
0400
0a00
1100
0000
0000
0400
0e00
0a00
0a00
1300
1100
3f80
2180
2080
40c0
e1e0
ENDCHAR
STARTCHAR Atilde
ENCODING 195
SWIDTH 639 0
DWIDTH 11 0
BBX 11 15 0 0
BITMAP
0900
1600
0000
0000
0400
0e00
0a00
0a00
1300
1100
3f80
2180
2080
40c0
e1e0
ENDCHAR
STARTCHAR Adieresis
ENCODING 196
SWIDTH 639 0
DWIDTH 11 0
BBX 11 15 0 0
BITMAP
3600
3600
0000
0000
0400
0e00
0a00
0a00
1300
1100
3f80
2180
2080
40c0
e1e0
ENDCHAR
STARTCHAR Aring
ENCODING 197
SWIDTH 639 0
DWIDTH 11 0
BBX 11 16 0 0
BITMAP
0c00
1200
1200
0c00
0000
0400
0e00
0a00
0a00
1300
1100
3f80
2180
2080
40c0
e1e0
ENDCHAR
STARTCHAR AE
ENCODING 198
SWIDTH 866 0
DWIDTH 14 0
BBX 15 11 -1 0
BITMAP
03fc
0184
0284
0480
0488
08f8
1f88
1080
2082
4082
e1fe
ENDCHAR
STARTCHAR Ccedilla
ENCODING 199
SWIDTH 632 0
DWIDTH 10 0
BBX 9 15 1 -4
BITMAP
1f00
6080
4080
8000
8000
8000
8000
8000
4080
6080
1f00
0800
0e00
0200
1c00
ENDCHAR
STARTCHAR Egrave
ENCODING 200
SWIDTH 576 0
DWIDTH 10 0
BBX 9 16 1 0
BITMAP
3000
1000
0800
0000
0000
ff00
4100
4100
4000
4200
7e00
4200
4000
4080
4080
ff80
ENDCHAR
STARTCHAR Eacute
ENCODING 201
SWIDTH 576 0
DWIDTH 10 0
BBX 9 16 1 0
BITMAP
0c00
0800
1000
0000
0000
ff00
4100
4100
4000
4200
7e00
4200
4000
4080
4080
ff80
ENDCHAR
STARTCHAR Ecircumflex
ENCODING 202
SWIDTH 576 0
DWIDTH 10 0
BBX 9 16 1 0
BITMAP
0800
1400
2200
0000
0000
ff00
4100
4100
4000
4200
7e00
4200
4000
4080
4080
ff80
ENDCHAR
STARTCHAR Edieresis
ENCODING 203
SWIDTH 576 0
DWIDTH 10 0
BBX 9 15 1 0
BITMAP
6c00
6c00
0000
0000
ff00
4100
4100
4000
4200
7e00
4200
4000
4080
4080
ff80
ENDCHAR
STARTCHAR Igrave
ENCODING 204
SWIDTH 324 0
DWIDTH 4 0
BBX 3 16 1 0
BITMAP
c0
40
20
00
00
e0
40
40
40
40
40
40
40
40
40
e0
ENDCHAR
STARTCHAR Iacute
ENCODING 205
SWIDTH 324 0
DWIDTH 4 0
BBX 4 16 1 0
BITMAP
30
20
40
00
00
e0
40
40
40
40
40
40
40
40
40
e0
ENDCHAR
STARTCHAR Icircumflex
ENCODING 206
SWIDTH 324 0
DWIDTH 4 0
BBX 5 16 1 0
BITMAP
20
50
88
00
00
e0
40
40
40
40
40
40
40
40
40
e0
ENDCHAR
STARTCHAR Idieresis
ENCODING 207
SWIDTH 324 0
DWIDTH 4 0
BBX 5 15 0 0
BITMAP
d8
d8
00
00
70
20
20
20
20
20
20
20
20
20
70
ENDCHAR
STARTCHAR Eth
ENCODING 208
SWIDTH 694 0
DWIDTH 12 0
BBX 12 11 0 0
BITMAP
7f00
20e0
2020
2010
2010
fe10
2010
2010
2030
20e0
7f80
ENDCHAR
STARTCHAR Ntilde
ENCODING 209
SWIDTH 713 0
DWIDTH 12 0
BBX 11 15 1 0
BITMAP
0900
1600
0000
0000
e0e0
7040
7040
5840
4c40
4640
4640
4340
41c0
40c0
e0c0
ENDCHAR
STARTCHAR Ograve
ENCODING 210
SWIDTH 731 0
DWIDTH 12 0
BBX 11 16 1 0
BITMAP
1800
0800
0400
0000
0000
1f00
60c0
4060
8020
8020
8020
8020
8020
4060
60c0
1f00
ENDCHAR
STARTCHAR Oacute
ENCODING 211
SWIDTH 731 0
DWIDTH 12 0
BBX 11 16 1 0
BITMAP
0600
0400
0800
0000
0000
1f00
60c0
4060
8020
8020
8020
8020
8020
4060
60c0
1f00
ENDCHAR
STARTCHAR Ocircumflex
ENCODING 212
SWIDTH 731 0
DWIDTH 12 0
BBX 11 16 1 0
BITMAP
0400
0a00
1100
0000
0000
1f00
60c0
4060
8020
8020
8020
8020
8020
4060
60c0
1f00
ENDCHAR
STARTCHAR Otilde
ENCODING 213
SWIDTH 731 0
DWIDTH 12 0
BBX 11 15 1 0
BITMAP
0900
1600
0000
0000
1f00
60c0
4060
8020
8020
8020
8020
8020
4060
60c0
1f00
ENDCHAR
STARTCHAR Odieresis
ENCODING 214
SWIDTH 731 0
DWIDTH 12 0
BBX 11 15 1 0
BITMAP
3600
3600
0000
0000
1f00
60c0
4060
8020
8020
8020
8020
8020
4060
60c0
1f00
ENDCHAR
STARTCHAR multiply
ENCODING 215
SWIDTH 833 0
DWIDTH 14 0
BBX 9 9 3 1
BITMAP
8080
4100
2200
1400
0800
1400
2200
4100
8080
ENDCHAR
STARTCHAR Oslash
ENCODING 216
SWIDTH 731 0
DWIDTH 12 0
BBX 11 14 1 -1
BITMAP
0040
0040
1f40
60c0
4140
8320
8220
8420
8820
9020
7040
60c0
5f00
8000
ENDCHAR
STARTCHAR Ugrave
ENCODING 217
SWIDTH 694 0
DWIDTH 12 0
BBX 11 16 1 0
BITMAP
1800
0800
0400
0000
0000
e0e0
4040
4040
4040
4040
4040
4040
4040
4040
6080
3f00
ENDCHAR
STARTCHAR Uacute
ENCODING 218
SWIDTH 694 0
DWIDTH 12 0
BBX 11 16 1 0
BITMAP
0600
0400
0800
0000
0000
e0e0
4040
4040
4040
4040
4040
4040
4040
4040
6080
3f00
ENDCHAR
STARTCHAR Ucircumflex
ENCODING 219
SWIDTH 694 0
DWIDTH 12 0
BBX 11 16 1 0
BITMAP
0400
0a00
1100
0000
0000
e0e0
4040
4040
4040
4040
4040
4040
4040
4040
6080
3f00
ENDCHAR
STARTCHAR Udieresis
ENCODING 220
SWIDTH 694 0
DWIDTH 12 0
BBX 11 15 1 0
BITMAP
3600
3600
0000
0000
e0e0
4040
4040
4040
4040
4040
4040
4040
4040
6080
3f00
ENDCHAR
STARTCHAR Yacute
ENCODING 221
SWIDTH 586 0
DWIDTH 9 0
BBX 10 16 0 0
BITMAP
0600
0400
0800
0000
0000
f1c0
6080
3100
1100
0a00
0c00
0400
0400
0400
0400
1e00
ENDCHAR
STARTCHAR Thorn
ENCODING 222
SWIDTH 558 0
DWIDTH 9 0
BBX 8 11 1 0
BITMAP
e000
4000
7c00
4300
4100
4100
4100
4600
7c00
4000
e000
ENDCHAR
STARTCHAR germandbls
ENCODING 223
SWIDTH 609 0
DWIDTH 10 0
BBX 8 13 1 0
BITMAP
1c00
2600
4200
4200
4600
4800
4800
4c00
4600
4100
4900
4900
ee00
ENDCHAR
STARTCHAR agrave
ENCODING 224
SWIDTH 507 0
DWIDTH 8 0
BBX 7 13 1 0
BITMAP
60
20
10
00
00
78
c4
04
1c
64
84
8c
76
ENDCHAR
STARTCHAR aacute
ENCODING 225
SWIDTH 507 0
DWIDTH 8 0
BBX 7 13 1 0
BITMAP
18
10
20
00
00
78
c4
04
1c
64
84
8c
76
ENDCHAR
STARTCHAR acircumflex
ENCODING 226
SWIDTH 507 0
DWIDTH 8 0
BBX 7 13 1 0
BITMAP
10
28
44
00
00
78
c4
04
1c
64
84
8c
76
ENDCHAR
STARTCHAR atilde
ENCODING 227
SWIDTH 507 0
DWIDTH 8 0
BBX 7 12 1 0
BITMAP
24
58
00
00
78
c4
04
1c
64
84
8c
76
ENDCHAR
STARTCHAR adieresis
ENCODING 228
SWIDTH 507 0
DWIDTH 8 0
BBX 7 12 1 0
BITMAP
d8
d8
00
00
78
c4
04
1c
64
84
8c
76
ENDCHAR
STARTCHAR aring
ENCODING 229
SWIDTH 507 0
DWIDTH 8 0
BBX 7 13 1 0
BITMAP
38
48
48
38
00
78
c4
04
1c
64
84
8c
76
ENDCHAR
STARTCHAR ae
ENCODING 230
SWIDTH 725 0
DWIDTH 12 0
BBX 10 8 1 0
BITMAP
7b80
c440
0440
1fc0
6400
8400
8e40
73c0
ENDCHAR
STARTCHAR ccedilla
ENCODING 231
SWIDTH 446 0
DWIDTH 7 0
BBX 5 12 1 -4
BITMAP
70
58
98
80
80
80
c8
78
20
38
08
70
ENDCHAR
STARTCHAR egrave
ENCODING 232
SWIDTH 491 0
DWIDTH 8 0
BBX 6 13 1 0
BITMAP
60
20
10
00
00
38
44
84
fc
80
80
44
78
ENDCHAR
STARTCHAR eacute
ENCODING 233
SWIDTH 491 0
DWIDTH 8 0
BBX 6 13 1 0
BITMAP
18
10
20
00
00
38
44
84
fc
80
80
44
78
ENDCHAR
STARTCHAR ecircumflex
ENCODING 234
SWIDTH 491 0
DWIDTH 8 0
BBX 6 13 1 0
BITMAP
10
28
44
00
00
38
44
84
fc
80
80
44
78
ENDCHAR
STARTCHAR edieresis
ENCODING 235
SWIDTH 491 0
DWIDTH 8 0
BBX 6 12 1 0
BITMAP
d8
d8
00
00
38
44
84
fc
80
80
44
78
ENDCHAR
STARTCHAR igrave
ENCODING 236
SWIDTH 280 0
DWIDTH 5 0
BBX 4 13 0 0
BITMAP
c0
40
20
00
00
60
20
20
20
20
20
20
70
ENDCHAR
STARTCHAR iacute
ENCODING 237
SWIDTH 280 0
DWIDTH 5 0
BBX 3 13 1 0
BITMAP
60
40
80
00
00
c0
40
40
40
40
40
40
e0
ENDCHAR
STARTCHAR icircumflex
ENCODING 238
SWIDTH 280 0
DWIDTH 5 0
BBX 5 13 0 0
BITMAP
20
50
88
00
00
60
20
20
20
20
20
20
70
ENDCHAR
STARTCHAR idieresis
ENCODING 239
SWIDTH 280 0
DWIDTH 5 0
BBX 5 12 -1 0
BITMAP
d8
d8
00
00
30
10
10
10
10
10
10
38
ENDCHAR
STARTCHAR eth
ENCODING 240
SWIDTH 528 0
DWIDTH 9 0
BBX 7 13 1 0
BITMAP
64
38
18
68
0c
3c
46
82
82
82
82
44
38
ENDCHAR
STARTCHAR ntilde
ENCODING 241
SWIDTH 569 0
DWIDTH 9 0
BBX 8 12 1 0
BITMAP
1200
2c00
0000
0000
fe00
4200
4200
4200
4200
4200
4200
e700
ENDCHAR
STARTCHAR ograve
ENCODING 242
SWIDTH 539 0
DWIDTH 9 0
BBX 7 13 1 0
BITMAP
30
10
08
00
00
38
44
82
82
82
82
44
38
ENDCHAR
STARTCHAR oacute
ENCODING 243
SWIDTH 539 0
DWIDTH 9 0
BBX 7 13 1 0
BITMAP
0c
08
10
00
00
38
44
82
82
82
82
44
38
ENDCHAR
STARTCHAR ocircumflex
ENCODING 244
SWIDTH 539 0
DWIDTH 9 0
BBX 7 13 1 0
BITMAP
08
14
22
00
00
38
44
82
82
82
82
44
38
ENDCHAR
STARTCHAR otilde
ENCODING 245
SWIDTH 539 0
DWIDTH 9 0
BBX 7 12 1 0
BITMAP
12
2c
00
00
38
44
82
82
82
82
44
38
ENDCHAR
STARTCHAR odieresis
ENCODING 246
SWIDTH 539 0
DWIDTH 9 0
BBX 7 12 1 0
BITMAP
6c
6c
00
00
38
44
82
82
82
82
44
38
ENDCHAR
STARTCHAR divide
ENCODING 247
SWIDTH 833 0
DWIDTH 14 0
BBX 10 9 2 1
BITMAP
0c00
0c00
0000
0000
ffc0
0000
0000
0c00
0c00
ENDCHAR
STARTCHAR oslash
ENCODING 248
SWIDTH 539 0
DWIDTH 9 0
BBX 7 10 1 -1
BITMAP
02
3c
44
8a
92
92
a2
44
78
80
ENDCHAR
STARTCHAR ugrave
ENCODING 249
SWIDTH 569 0
DWIDTH 9 0
BBX 8 13 1 0
BITMAP
3000
1000
0800
0000
0000
c600
4200
4200
4200
4200
4200
4600
3b00
ENDCHAR
STARTCHAR uacute
ENCODING 250
SWIDTH 569 0
DWIDTH 9 0
BBX 8 13 1 0
BITMAP
0c00
0800
1000
0000
0000
c600
4200
4200
4200
4200
4200
4600
3b00
ENDCHAR
STARTCHAR ucircumflex
ENCODING 251
SWIDTH 569 0
DWIDTH 9 0
BBX 8 13 1 0
BITMAP
0800
1400
2200
0000
0000
c600
4200
4200
4200
4200
4200
4600
3b00
ENDCHAR
STARTCHAR udieresis
ENCODING 252
SWIDTH 569 0
DWIDTH 9 0
BBX 8 12 1 0
BITMAP
6c00
6c00
0000
0000
c600
4200
4200
4200
4200
4200
4600
3b00
ENDCHAR
STARTCHAR yacute
ENCODING 253
SWIDTH 495 0
DWIDTH 9 0
BBX 9 17 0 -4
BITMAP
0c00
0800
1000
0000
0000
f380
6100
2200
3200
3200
1400
1c00
0800
0800
1000
5000
e000
ENDCHAR
STARTCHAR thorn
ENCODING 254
SWIDTH 551 0
DWIDTH 9 0
BBX 7 17 1 -4
BITMAP
c0
40
40
40
40
7c
46
42
42
42
42
44
78
40
40
40
e0
ENDCHAR
STARTCHAR ydieresis
ENCODING 255
SWIDTH 495 0
DWIDTH 9 0
BBX 9 16 0 -4
BITMAP
6c00
6c00
0000
0000
f380
6100
2200
3200
3200
1400
1c00
0800
0800
1000
5000
e000
ENDCHAR
ENDFONT
