STARTFONT 2.1
COMMENT $Xorg: charI24.bdf,v 1.3 2000/08/17 19:42:54 cpqbld Exp $
COMMENT  
COMMENT  Copyright 1988 Bitstream, Inc., Cambridge, Massachusetts, USA
COMMENT  Bitstream and Charter are registered trademarks of Bitstream, Inc.
COMMENT  
COMMENT  The names "Bitstream" and "Charter" are registered trademarks of
COMMENT  Bitstream, Inc.  Permission to use these trademarks is hereby
COMMENT  granted only in association with the images described in this file.
COMMENT  
COMMENT  Permission to use, copy, modify, and distribute this software and
COMMENT  its documentation for any purpose and without fee is hereby
COMMENT  granted, provided that the above copyright notice appear in all
COMMENT  copies and that both that copyright notice and this permission
COMMENT  notice appear in supporting documentation, and that the name of
COMMENT  Bitstream not be used in advertising or publicity pertaining to
COMMENT  distribution of the software without specific, written prior
COMMENT  permission.  Bitstream makes no representations about the
COMMENT  suitability of this software for any purpose.  It is provided "as
COMMENT  is" without express or implied warranty.
COMMENT  
COMMENT  BITSTREAM DISCLAIMS ALL WARRANTIES WITH REGARD TO THIS SOFTWARE,
COMMENT  INCLUDING ALL IMPLIED WARRANTIES OF MERCHANTABILITY AND FITNESS, IN
COMMENT  NO EVENT SHALL BITSTREAM BE LIABLE FOR ANY SPECIAL, INDIRECT OR
COMMENT  CONSEQUENTIAL DAMAGES OR ANY DAMAGES WHATSOEVER RESULTING FROM LOSS
COMMENT  OF USE, DATA OR PROFITS, WHETHER IN AN ACTION OF CONTRACT,
COMMENT  NEGLIGENCE OR OTHER TORTIOUS ACTION, ARISING OUT OF OR IN
COMMENT  CONNECTION WITH THE USE OR PERFORMANCE OF THIS SOFTWARE.
COMMENT  
COMMENT  
COMMENT Fontware CVTBDF v1.0
FONT -Bitstream-Charter-Medium-I-Normal--33-240-100-100-P-179-ISO8859-1
SIZE 24 100 100
FONTBOUNDINGBOX 37 40 -5 -8
STARTPROPERTIES 22
COMMENT Begin LogicalFontDescription
FONTNAME_REGISTRY ""
FAMILY_NAME "Charter"
FOUNDRY "Bitstream"
WEIGHT_NAME "Medium"
SETWIDTH_NAME "Normal"
SLANT "I"
ADD_STYLE_NAME ""
PIXEL_SIZE 33
POINT_SIZE 240
RESOLUTION_X 100
RESOLUTION_Y 100
SPACING "P"
AVERAGE_WIDTH 179
CHARSET_REGISTRY "ISO8859"
CHARSET_ENCODING "1"
COMMENT END LogicalFontDescription
FONT_DESCENT 8
FONT_ASCENT 32
CAP_HEIGHT 22
X_HEIGHT 16
CHARSET_COLLECTIONS "ASCII ISOLATIN1"
FACE_NAME "Bitstream Charter Italic"
COPYRIGHT "Copyright 1987 by Bitstream Inc. Charter Registered trademark of Bitstream Inc."
COMMENT ****** end of font properties
ENDPROPERTIES
CHARS 191
STARTCHAR space
ENCODING 32
SWIDTH 278 0
DWIDTH 9 0
BBX 1 1 0 0
BITMAP
00
ENDCHAR
STARTCHAR exclam
ENCODING 33
SWIDTH 338 0
DWIDTH 11 0
BBX 7 22 2 0
BITMAP
0e
0e
1e
1e
1c
1c
1c
1c
18
38
38
30
30
30
30
20
00
00
60
f0
f0
60
ENDCHAR
STARTCHAR quotedbl
ENCODING 34
SWIDTH 331 0
DWIDTH 11 0
BBX 9 10 1 13
BITMAP
e380
e380
e380
e380
e380
4100
4100
4100
4100
4100
ENDCHAR
STARTCHAR numbersign
ENCODING 35
SWIDTH 745 0
DWIDTH 25 0
BBX 21 25 2 -2
BITMAP
003060
003060
0020c0
0060c0
0060c0
004180
00c180
00c100
3ffff8
3ffff8
018300
010600
030600
030600
020c00
fffff0
fffff0
040800
0c1800
0c1800
081000
183000
183000
106000
306000
ENDCHAR
STARTCHAR dollar
ENCODING 36
SWIDTH 556 0
DWIDTH 18 0
BBX 16 27 1 -3
BITMAP
003000
002000
00fc00
03ff00
076700
0e6300
1c4200
1c4200
1c4000
1cc000
1ec000
0f8000
07e000
01f800
01fc00
019c00
011c00
610c00
610c00
631c00
c31800
f27000
7fe000
1f8000
020000
060000
060000
ENDCHAR
STARTCHAR percent
ENCODING 37
SWIDTH 852 0
DWIDTH 28 0
BBX 24 22 2 0
BITMAP
0f000c00
39801800
30c03000
60c06000
60c0e000
60c0c000
c0c18000
c0c30000
c1860000
c18c3c00
c398e600
6718c300
3c318300
00618300
00c38300
01830300
03030600
07030600
06030600
0c030c00
18019c00
3000f000
ENDCHAR
STARTCHAR ampersand
ENCODING 38
SWIDTH 704 0
DWIDTH 23 0
BBX 21 22 1 0
BITMAP
00fc00
038e00
070700
060700
0e0700
0e0700
0e0600
0f0e00
071c00
07b800
03e000
0fc1f8
1ce060
30f040
7070c0
e03880
e01d00
e01f00
f00e00
f00f00
7c3380
3fe1f0
ENDCHAR
STARTCHAR quoteright
ENCODING 39
SWIDTH 201 0
DWIDTH 7 0
BBX 6 9 2 14
BITMAP
38
7c
7c
0c
18
18
30
60
c0
ENDCHAR
STARTCHAR parenleft
ENCODING 40
SWIDTH 419 0
DWIDTH 14 0
BBX 12 29 3 -5
BITMAP
0030
00e0
0180
0300
0600
0c00
0c00
1c00
1800
3800
3800
3000
7000
7000
7000
7000
e000
e000
e000
e000
e000
e000
e000
6000
7000
3000
1800
0e00
0600
ENDCHAR
STARTCHAR parenright
ENCODING 41
SWIDTH 419 0
DWIDTH 14 0
BBX 13 29 -2 -5
BITMAP
0700
0380
00c0
0060
0070
0030
0038
0038
0038
0038
0038
0038
0038
0078
0070
0070
0070
0070
00e0
00e0
00c0
01c0
0180
0380
0700
0e00
1c00
7000
c000
ENDCHAR
STARTCHAR asterisk
ENCODING 42
SWIDTH 500 0
DWIDTH 17 0
BBX 13 13 4 11
BITMAP
0100
0300
0300
0300
2220
f278
7df0
0000
0e00
1b00
3180
7180
4080
ENDCHAR
STARTCHAR plus
ENCODING 43
SWIDTH 833 0
DWIDTH 28 0
BBX 20 20 4 0
BITMAP
006000
006000
006000
006000
006000
006000
006000
006000
006000
fffff0
fffff0
006000
006000
006000
006000
006000
006000
006000
006000
006000
ENDCHAR
STARTCHAR comma
ENCODING 44
SWIDTH 278 0
DWIDTH 9 0
BBX 6 10 -2 -6
BITMAP
18
3c
3c
3c
0c
08
18
10
20
c0
ENDCHAR
STARTCHAR hyphen
ENCODING 45
SWIDTH 319 0
DWIDTH 11 0
BBX 8 2 1 7
BITMAP
ff00
ff00
ENDCHAR
STARTCHAR period
ENCODING 46
SWIDTH 278 0
DWIDTH 9 0
BBX 4 4 1 0
BITMAP
60
f0
f0
60
ENDCHAR
STARTCHAR slash
ENCODING 47
SWIDTH 481 0
DWIDTH 16 0
BBX 21 25 -4 -3
BITMAP
000018
000030
000060
0000c0
0000c0
000180
000300
000600
000600
000c00
001800
003000
003000
006000
00c000
018000
030000
030000
060000
0c0000
180000
180000
300000
600000
c00000
ENDCHAR
STARTCHAR zero
ENCODING 48
SWIDTH 556 0
DWIDTH 18 0
BBX 16 22 1 0
BITMAP
00f000
03fc00
071c00
0e0e00
1c0600
180700
380700
300700
700700
700700
700700
e00e00
e00e00
e00e00
e00e00
e01c00
e01c00
603800
707000
38e000
3fc000
0f0000
ENDCHAR
STARTCHAR one
ENCODING 49
SWIDTH 556 0
DWIDTH 18 0
BBX 11 22 2 0
BITMAP
00e0
0fe0
1fe0
00c0
01c0
01c0
01c0
01c0
0180
0380
0380
0380
0380
0300
0700
0700
0700
0700
0600
0600
0e00
ffc0
ENDCHAR
STARTCHAR two
ENCODING 50
SWIDTH 556 0
DWIDTH 18 0
BBX 18 22 -1 0
BITMAP
003e00
01ff00
030380
0701c0
0f01c0
0e01c0
0001c0
000380
000380
000700
000e00
001c00
003800
007000
00c000
038000
060180
1c0100
380300
7fff00
ffff00
ffff00
ENDCHAR
STARTCHAR three
ENCODING 51
SWIDTH 556 0
DWIDTH 18 0
BBX 17 22 0 0
BITMAP
007c00
03ff00
070f00
0e0380
0e0380
0e0380
000380
000700
000e00
001c00
01e000
01fc00
001e00
000f00
000700
000700
000e00
e00e00
e01c00
f07800
3fe000
1f8000
ENDCHAR
STARTCHAR four
ENCODING 52
SWIDTH 556 0
DWIDTH 18 0
BBX 17 23 0 -1
BITMAP
000300
000700
000f00
001e00
003600
006e00
00ce00
018e00
030c00
060c00
0c0c00
181c00
301c00
601800
ffff80
ffff80
003800
003800
003000
003000
003000
007000
007000
ENDCHAR
STARTCHAR five
ENCODING 53
SWIDTH 556 0
DWIDTH 18 0
BBX 17 22 0 0
BITMAP
07ff80
07ff80
07ff00
060000
0c0000
0c0000
0c0000
0c0000
0c0000
0bf000
1ff800
003c00
001e00
000e00
000e00
000e00
000c00
601c00
e03800
e0e000
7fc000
3f0000
ENDCHAR
STARTCHAR six
ENCODING 54
SWIDTH 556 0
DWIDTH 18 0
BBX 15 23 1 0
BITMAP
000e
007e
01e0
0380
0600
0c00
1c00
3800
31f0
77f8
7c3c
701e
e00e
e00e
e00e
e00e
e00c
e01c
701c
7038
3870
1fc0
0f80
ENDCHAR
STARTCHAR seven
ENCODING 55
SWIDTH 556 0
DWIDTH 18 0
BBX 19 23 1 -1
BITMAP
1fffe0
1fffe0
1fffc0
300180
300300
300700
000e00
000c00
001800
003800
007000
006000
00c000
01c000
018000
030000
060000
0e0000
0c0000
180000
300000
700000
e00000
ENDCHAR
STARTCHAR eight
ENCODING 56
SWIDTH 556 0
DWIDTH 18 0
BBX 16 22 1 0
BITMAP
00f000
03fc00
070e00
0e0700
0c0700
1c0700
1c0700
1c0e00
1e0c00
0f9800
07e000
0df800
387c00
701e00
600e00
e00e00
e00e00
e01c00
701800
787000
3fe000
0f8000
ENDCHAR
STARTCHAR nine
ENCODING 57
SWIDTH 556 0
DWIDTH 18 0
BBX 16 24 1 -2
BITMAP
01f000
03f800
0e1c00
1c0e00
180700
380700
300700
700700
700700
700700
700600
780e00
3c3e00
1fec00
0f9c00
003800
003000
007000
00e000
018000
070000
1e0000
f80000
400000
ENDCHAR
STARTCHAR colon
ENCODING 58
SWIDTH 319 0
DWIDTH 11 0
BBX 6 15 2 0
BITMAP
18
3c
3c
18
00
00
00
00
00
00
00
60
f0
f0
60
ENDCHAR
STARTCHAR semicolon
ENCODING 59
SWIDTH 319 0
DWIDTH 11 0
BBX 9 21 -1 -6
BITMAP
0300
0780
0780
0300
0000
0000
0000
0000
0000
0000
0000
0000
1c00
1e00
3e00
0600
0400
0c00
1800
3000
c000
ENDCHAR
STARTCHAR less
ENCODING 60
SWIDTH 833 0
DWIDTH 28 0
BBX 19 17 4 1
BITMAP
000020
0001e0
0007c0
003e00
00f800
07c000
1f0000
f80000
e00000
f80000
1f0000
07c000
00f800
003e00
0007c0
0001e0
000020
ENDCHAR
STARTCHAR equal
ENCODING 61
SWIDTH 833 0
DWIDTH 28 0
BBX 20 8 4 6
BITMAP
fffff0
fffff0
000000
000000
000000
000000
fffff0
fffff0
ENDCHAR
STARTCHAR greater
ENCODING 62
SWIDTH 833 0
DWIDTH 28 0
BBX 19 17 5 1
BITMAP
800000
f00000
7c0000
0f8000
03e000
007c00
001f00
0003e0
0000e0
0003e0
001f00
007c00
03e000
0f8000
7c0000
f00000
800000
ENDCHAR
STARTCHAR question
ENCODING 63
SWIDTH 486 0
DWIDTH 16 0
BBX 12 22 3 0
BITMAP
1fc0
71e0
f070
6070
0070
0070
00e0
00e0
01c0
0380
0f00
1c00
3000
3000
3000
3000
0000
0000
6000
f000
f000
6000
ENDCHAR
STARTCHAR at
ENCODING 64
SWIDTH 942 0
DWIDTH 31 0
BBX 26 28 3 -5
BITMAP
003fe000
01e03800
07000e00
0e000600
18000300
38000180
300fb180
6039e0c0
6060e0c0
60c0e0c0
c1c0e0c0
c1c0e0c0
c380c0c0
c380c180
c380c180
c381c180
c381c300
c383c200
e1c7c600
61fdf800
6070f000
70000000
38000000
1c000000
0e000600
07c07800
01ffe000
007f0000
ENDCHAR
STARTCHAR A
ENCODING 65
SWIDTH 606 0
DWIDTH 20 0
BBX 22 22 -3 0
BITMAP
000300
000700
000780
000f80
001b80
001b80
003180
0031c0
0061c0
00e1c0
00c1c0
0181c0
0180c0
03ffe0
0300e0
0600e0
0c00e0
0c00e0
180060
180070
300070
fe01fc
ENDCHAR
STARTCHAR B
ENCODING 66
SWIDTH 588 0
DWIDTH 19 0
BBX 19 22 -1 0
BITMAP
0fff80
0383c0
0381e0
0380e0
0380e0
0380e0
0700c0
0701c0
070380
070f00
07fe00
0e0780
0e01c0
0e01c0
0e01c0
0e01c0
1c01c0
1c01c0
1c03c0
1c0780
1c1f00
fffc00
ENDCHAR
STARTCHAR C
ENCODING 67
SWIDTH 604 0
DWIDTH 20 0
BBX 20 22 1 0
BITMAP
007fe0
03e0f0
070030
0e0020
1c0020
380020
380000
700000
700000
700000
e00000
e00000
e00000
e00000
e00000
e00000
e00180
700180
700180
380300
1e0700
07fe00
ENDCHAR
STARTCHAR D
ENCODING 68
SWIDTH 671 0
DWIDTH 22 0
BBX 21 22 -1 0
BITMAP
0fff00
0387c0
0380e0
038070
030070
070038
070038
070038
070038
070038
0e0038
0e0038
0e0070
0e0070
0e0070
0c00e0
1c00e0
1c01c0
1c0380
1c0700
3c7e00
fff000
ENDCHAR
STARTCHAR E
ENCODING 69
SWIDTH 546 0
DWIDTH 18 0
BBX 19 22 -1 0
BITMAP
0fffe0
0380e0
0380e0
0380c0
0300c0
070000
070000
070200
070600
070600
07fe00
0e0400
0e0400
0e0c00
0e0000
0c0000
1c0000
1c0180
1c0180
1c0100
380300
ffff00
ENDCHAR
STARTCHAR F
ENCODING 70
SWIDTH 509 0
DWIDTH 17 0
BBX 19 22 -1 0
BITMAP
0fffe0
0380e0
0380e0
0380c0
0380c0
030000
070000
070200
070600
070600
07fc00
0e0c00
0e0c00
0e0c00
0e0000
0c0000
1c0000
1c0000
1c0000
1c0000
3c0000
ff0000
ENDCHAR
STARTCHAR G
ENCODING 71
SWIDTH 664 0
DWIDTH 22 0
BBX 21 22 1 0
BITMAP
003ff8
01e070
078030
0f0030
1e0030
3c0030
380000
780000
700000
700000
f00000
e00000
e00ff8
e001c0
e001c0
e001c0
e003c0
700380
700380
3c0380
1e0380
07fe00
ENDCHAR
STARTCHAR H
ENCODING 72
SWIDTH 712 0
DWIDTH 24 0
BBX 26 22 -1 0
BITMAP
0ff03fc0
03800e00
03800e00
03800e00
03800e00
03800e00
07001c00
07001c00
07001c00
07001c00
07fffc00
0e003800
0e003800
0e003800
0e003800
0e003800
1c007000
1c007000
1c007000
1c007000
1c00f000
ff03fc00
ENDCHAR
STARTCHAR I
ENCODING 73
SWIDTH 313 0
DWIDTH 11 0
BBX 12 22 -1 0
BITMAP
0ff0
0380
0380
0380
0380
0380
0700
0700
0700
0700
0700
0e00
0e00
0e00
0e00
0e00
1c00
1c00
1c00
1c00
1c00
ff00
ENDCHAR
STARTCHAR J
ENCODING 74
SWIDTH 447 0
DWIDTH 15 0
BBX 17 22 -2 0
BITMAP
007f80
001e00
001c00
001c00
001c00
001c00
001800
003800
003800
003800
003800
003800
007000
007000
007000
007000
606000
60e000
60e000
e1c000
e3c000
ff0000
ENDCHAR
STARTCHAR K
ENCODING 75
SWIDTH 625 0
DWIDTH 21 0
BBX 23 22 -1 0
BITMAP
0ff1fe
038070
038060
0380c0
038180
030300
070600
070c00
071800
073000
067000
0ff000
0e3800
0e3800
0e1c00
0c1c00
1c0e00
1c0e00
1c0700
1c0700
3c0380
ff03f0
ENDCHAR
STARTCHAR L
ENCODING 76
SWIDTH 498 0
DWIDTH 16 0
BBX 16 22 -1 0
BITMAP
0ff000
038000
038000
038000
038000
070000
070000
070000
070000
070000
060000
0e0000
0e0000
0e0000
0e0000
0c0000
1c0300
1c0300
1c0300
1c0600
3c0600
fffe00
ENDCHAR
STARTCHAR M
ENCODING 77
SWIDTH 839 0
DWIDTH 28 0
BBX 30 22 -1 0
BITMAP
0fe001fc
03e001f0
03e00360
03e003e0
026006e0
02600ce0
06700cc0
067018c0
067019c0
067031c0
043031c0
0c3861c0
0c384180
0c38c380
0c398380
08398380
181b0380
181f0300
181e0700
181e0700
181c0700
fe083fc0
ENDCHAR
STARTCHAR N
ENCODING 78
SWIDTH 683 0
DWIDTH 23 0
BBX 25 22 -1 0
BITMAP
0f803f80
03c00e00
03c00c00
03e00c00
03e00c00
06700c00
06700800
06381800
06381800
061c1800
041c1800
0c0e1000
0c0e3000
0c0e3000
0c073000
08073000
1803b000
1803e000
1801e000
1801e000
3800e000
fe00e000
ENDCHAR
STARTCHAR O
ENCODING 79
SWIDTH 708 0
DWIDTH 24 0
BBX 22 22 1 0
BITMAP
007f80
03c1e0
070070
0e0038
1c0038
3c001c
38001c
70001c
70001c
70001c
e0001c
e0001c
e0003c
e00038
e00038
e00078
e00070
7000e0
7001e0
3803c0
1e0f00
07fc00
ENDCHAR
STARTCHAR P
ENCODING 80
SWIDTH 542 0
DWIDTH 18 0
BBX 19 22 -1 0
BITMAP
0fff00
0387c0
0381c0
0380e0
0380e0
0300e0
0700e0
0700e0
0701c0
0701c0
060380
0e0f00
0ff800
0e0000
0e0000
0c0000
1c0000
1c0000
1c0000
1c0000
3c0000
ff0000
ENDCHAR
STARTCHAR Q
ENCODING 81
SWIDTH 708 0
DWIDTH 24 0
BBX 23 27 1 -5
BITMAP
007f80
03c1e0
070070
0e0038
1c0038
3c001c
38001c
70001c
70001c
70001c
e0001c
e0001c
e0003c
e00038
e00038
e00078
f00070
7000e0
7001e0
3803c0
1e0f00
07fe00
000e00
000f00
0007c2
0003fc
0001f0
ENDCHAR
STARTCHAR R
ENCODING 82
SWIDTH 602 0
DWIDTH 20 0
BBX 21 22 -1 0
BITMAP
0fff00
0387c0
0381e0
0380e0
0380e0
0380e0
0700e0
0700c0
0701c0
070380
070f00
0ff800
0e1e00
0e0e00
0e0700
0e0700
1c0700
1c0380
1c0380
1c0380
1c01c0
ff01f8
ENDCHAR
STARTCHAR S
ENCODING 83
SWIDTH 537 0
DWIDTH 18 0
BBX 17 22 0 0
BITMAP
00ff00
038380
060180
0e0180
1c0180
1c0100
1c0000
1e0000
0f0000
0fc000
03f000
01fc00
007e00
001f00
000f00
000700
600700
600700
600e00
600e00
f03800
3fe000
ENDCHAR
STARTCHAR T
ENCODING 84
SWIDTH 565 0
DWIDTH 18 0
BBX 19 22 1 0
BITMAP
7fffe0
60e0e0
e0e0c0
c0e0c0
c0e0c0
01c000
01c000
01c000
01c000
01c000
038000
038000
038000
038000
038000
030000
070000
070000
070000
070000
0f0000
3fc000
ENDCHAR
STARTCHAR U
ENCODING 85
SWIDTH 664 0
DWIDTH 22 0
BBX 21 22 2 0
BITMAP
ff03f8
1c0060
180040
3800c0
3800c0
3800c0
380080
300080
700180
700180
700180
700100
700100
e00300
e00300
e00300
e00200
e00600
f00c00
783c00
3ff000
0fc000
ENDCHAR
STARTCHAR V
ENCODING 86
SWIDTH 590 0
DWIDTH 20 0
BBX 21 22 1 0
BITMAP
fe01f8
380060
3800e0
3800c0
180180
1c0180
1c0300
1c0300
1c0600
1c0600
0c0c00
0c0800
0e1800
0e3000
0e3000
0e6000
066000
06c000
07c000
078000
070000
070000
ENDCHAR
STARTCHAR W
ENCODING 87
SWIDTH 898 0
DWIDTH 30 0
BBX 30 22 2 0
BITMAP
fe0380fc
38038030
38078060
38078060
380f8060
380d80c0
181980c0
18198180
1c31c180
1c31c300
1c61c300
1c61c600
1c41c600
1cc1cc00
1c80cc00
1d80d800
1d80d800
1f00f000
0f00f000
0e00f000
0e00e000
0c00e000
ENDCHAR
STARTCHAR X
ENCODING 88
SWIDTH 569 0
DWIDTH 19 0
BBX 24 22 -3 0
BITMAP
07f87f00
01c01800
01c03800
00e03000
00e06000
0070c000
00718000
003b0000
003e0000
001c0000
001c0000
001c0000
003e0000
006e0000
00c70000
01870000
03838000
07038000
0e018000
1c01c000
1801c000
ff07f800
ENDCHAR
STARTCHAR Y
ENCODING 89
SWIDTH 563 0
DWIDTH 18 0
BBX 20 22 1 0
BITMAP
ff07f0
3801c0
1c0180
1c0300
1c0600
0c0c00
0e0c00
0e1800
063000
077000
076000
03c000
038000
038000
038000
038000
070000
070000
070000
070000
070000
3fc000
ENDCHAR
STARTCHAR Z
ENCODING 90
SWIDTH 556 0
DWIDTH 19 0
BBX 20 22 -1 0
BITMAP
07fff0
0600e0
0601c0
0c03c0
0c0780
000700
000e00
001e00
003c00
007800
007000
00e000
01e000
03c000
078000
070000
0e0180
1e0180
3c0100
380300
700300
ffff00
ENDCHAR
STARTCHAR bracketleft
ENCODING 91
SWIDTH 421 0
DWIDTH 14 0
BBX 13 28 2 -5
BITMAP
07f8
0700
0600
0600
0e00
0e00
0e00
0c00
0c00
1c00
1c00
1c00
1800
1800
1800
3800
3800
3800
3000
3000
7000
7000
7000
6000
6000
e000
e000
ff00
ENDCHAR
STARTCHAR backslash
ENCODING 92
SWIDTH 481 0
DWIDTH 16 0
BBX 15 25 1 -3
BITMAP
c000
6000
6000
3000
3000
1800
1800
0c00
0c00
0600
0200
0300
0100
0180
00c0
00c0
0060
0060
0030
0030
0018
0018
000c
000c
0006
ENDCHAR
STARTCHAR bracketright
ENCODING 93
SWIDTH 421 0
DWIDTH 14 0
BBX 13 28 -1 -5
BITMAP
07f8
0038
0038
0030
0030
0070
0070
0070
0060
0060
00e0
00e0
00e0
00c0
00c0
00c0
01c0
01c0
01c0
0180
0180
0380
0380
0380
0300
0300
0300
ff00
ENDCHAR
STARTCHAR asciicircum
ENCODING 94
SWIDTH 1000 0
DWIDTH 33 0
BBX 20 9 6 14
BITMAP
00f000
01f800
039c00
070e00
0e0700
1c0380
3801c0
600060
c00030
ENDCHAR
STARTCHAR underscore
ENCODING 95
SWIDTH 500 0
DWIDTH 17 0
BBX 17 2 0 -8
BITMAP
ffff80
ffff80
ENDCHAR
STARTCHAR quoteleft
ENCODING 96
SWIDTH 201 0
DWIDTH 7 0
BBX 5 9 3 14
BITMAP
18
10
20
60
40
c0
f0
f0
60
ENDCHAR
STARTCHAR a
ENCODING 97
SWIDTH 525 0
DWIDTH 17 0
BBX 15 16 1 0
BITMAP
03fc
0e3c
1c18
3818
3018
7018
7038
e030
e030
e030
e030
e070
e070
71f0
7f7e
1e38
ENDCHAR
STARTCHAR b
ENCODING 98
SWIDTH 507 0
DWIDTH 17 0
BBX 14 24 1 0
BITMAP
0e00
7e00
0c00
0c00
0c00
1c00
1c00
1c00
18e0
1bf8
3e38
381c
381c
301c
301c
701c
701c
7018
7038
6030
e070
e060
f1c0
3f00
ENDCHAR
STARTCHAR c
ENCODING 99
SWIDTH 394 0
DWIDTH 13 0
BBX 12 16 0 0
BITMAP
03e0
0e70
1830
3820
7000
7000
6000
e000
e000
e000
e000
e010
f030
7860
3fc0
1f00
ENDCHAR
STARTCHAR d
ENCODING 100
SWIDTH 523 0
DWIDTH 17 0
BBX 16 24 0 0
BITMAP
000f00
003f00
000700
000600
000e00
000e00
000e00
000e00
03fc00
0e3c00
1c1c00
381c00
301c00
701800
703800
e03800
e03800
e03800
e03000
e07000
f07000
71f000
7f7f00
1c3c00
ENDCHAR
STARTCHAR e
ENCODING 101
SWIDTH 424 0
DWIDTH 14 0
BBX 12 16 1 0
BITMAP
03e0
0c70
1870
3070
30e0
70e0
6380
fc00
e000
e000
e000
e010
7030
78c0
3f80
1e00
ENDCHAR
STARTCHAR f
ENCODING 102
SWIDTH 292 0
DWIDTH 9 0
BBX 18 31 -5 -7
BITMAP
000780
000bc0
0019c0
003000
003000
007000
006000
006000
00e000
03fe00
00e000
00c000
00c000
00c000
00c000
01c000
01c000
01c000
018000
018000
018000
018000
038000
038000
030000
030000
060000
060000
ec0000
f80000
f00000
ENDCHAR
STARTCHAR g
ENCODING 103
SWIDTH 481 0
DWIDTH 16 0
BBX 17 23 -1 -7
BITMAP
03e000
063f80
1c1c00
1c1c00
381c00
381c00
381c00
383800
183800
1c7000
07c000
040000
0c0000
0e0000
0fc000
33f000
607c00
c03c00
c01c00
c01c00
e01800
707000
3fc000
ENDCHAR
STARTCHAR h
ENCODING 104
SWIDTH 551 0
DWIDTH 18 0
BBX 16 24 1 0
BITMAP
0e0000
7e0000
0e0000
0e0000
0c0000
0c0000
1c0000
1c0000
187800
19fc00
1b1c00
3c1c00
381c00
301c00
301800
301800
703800
703800
703000
603000
607000
e07800
e07f00
e03c00
ENDCHAR
STARTCHAR i
ENCODING 105
SWIDTH 287 0
DWIDTH 10 0
BBX 8 24 1 0
BITMAP
0600
0f00
0f00
0600
0000
0000
0000
0000
1c00
fc00
1c00
1c00
1800
1800
3800
3800
3800
3000
3000
7000
7000
7000
7f00
3c00
ENDCHAR
STARTCHAR j
ENCODING 106
SWIDTH 269 0
DWIDTH 9 0
BBX 12 31 -4 -7
BITMAP
0060
0070
0070
0060
0000
0000
0000
0000
01e0
07e0
00e0
00c0
00c0
00c0
00c0
01c0
01c0
0180
0180
0180
0180
0380
0380
0300
0300
0300
0600
0600
cc00
f800
f000
ENDCHAR
STARTCHAR k
ENCODING 107
SWIDTH 514 0
DWIDTH 17 0
BBX 15 24 1 0
BITMAP
0f00
7e00
0e00
0e00
0e00
0c00
0c00
1c00
1c1c
183e
186c
38c0
3980
3300
3700
3f80
7380
71c0
71c0
60e0
60e0
e070
e07e
e03c
ENDCHAR
STARTCHAR l
ENCODING 108
SWIDTH 275 0
DWIDTH 9 0
BBX 7 24 1 0
BITMAP
1e
7e
0e
0c
1c
1c
1c
18
18
38
38
38
30
30
70
70
60
60
e0
e0
e0
e0
fe
78
ENDCHAR
STARTCHAR m
ENCODING 109
SWIDTH 815 0
DWIDTH 27 0
BBX 25 16 1 0
BITMAP
1c783c00
fcfcfe00
1b1d8e00
1c1e0e00
381c0e00
381c0e00
381c0c00
301c0c00
30181c00
70381c00
70381800
70381800
60383800
60303c00
e0703f80
e0701e00
ENDCHAR
STARTCHAR n
ENCODING 110
SWIDTH 556 0
DWIDTH 18 0
BBX 16 16 1 0
BITMAP
3c7800
f9fc00
1b1c00
3c1c00
381c00
381c00
301800
301800
703800
703800
703000
703000
603000
607800
e07f00
e03c00
ENDCHAR
STARTCHAR o
ENCODING 111
SWIDTH 502 0
DWIDTH 17 0
BBX 14 16 1 0
BITMAP
07e0
0c70
1838
381c
701c
701c
601c
e01c
e01c
e018
e038
e038
e030
7060
38c0
1f00
ENDCHAR
STARTCHAR p
ENCODING 112
SWIDTH 516 0
DWIDTH 17 0
BBX 17 23 -2 -7
BITMAP
071e00
1f7f00
038700
070380
070380
060380
060380
060380
060380
0e0300
0e0700
0c0700
0c0e00
0c0c00
1e3800
1fe000
1c0000
180000
180000
180000
380000
380000
ff0000
ENDCHAR
STARTCHAR q
ENCODING 113
SWIDTH 512 0
DWIDTH 17 0
BBX 14 23 1 -7
BITMAP
03ec
0e3c
1c18
3818
3018
7018
7038
e038
e038
e030
e030
e030
e070
70f0
3f70
1e60
0060
0060
00e0
00e0
00e0
00e0
03f8
ENDCHAR
STARTCHAR r
ENCODING 114
SWIDTH 398 0
DWIDTH 13 0
BBX 12 16 1 0
BITMAP
38f0
f9f0
1b70
1e60
3400
3800
3000
3000
3000
7000
7000
7000
6000
6000
e000
e000
ENDCHAR
STARTCHAR s
ENCODING 115
SWIDTH 370 0
DWIDTH 12 0
BBX 11 16 -1 0
BITMAP
07c0
08e0
1860
1800
3800
1c00
1e00
0f00
0780
03c0
01c0
40c0
e0c0
e180
e180
3e00
ENDCHAR
STARTCHAR t
ENCODING 116
SWIDTH 333 0
DWIDTH 11 0
BBX 10 19 1 0
BITMAP
0c00
1c00
1800
1800
ffc0
3800
3000
3000
7000
7000
7000
6000
6000
e000
e000
e000
e100
ff00
7800
ENDCHAR
STARTCHAR u
ENCODING 117
SWIDTH 553 0
DWIDTH 18 0
BBX 16 16 1 0
BITMAP
1c0e00
fc0e00
1c0e00
180c00
180c00
381c00
381c00
301800
301800
301800
703800
703800
707000
70f800
7f3f00
3c3c00
ENDCHAR
STARTCHAR v
ENCODING 118
SWIDTH 454 0
DWIDTH 15 0
BBX 14 16 0 0
BITMAP
381c
f81c
1c1c
1c1c
1c18
1c18
0c10
0c30
0c60
0c40
0cc0
0d80
0d00
0e00
0e00
0c00
ENDCHAR
STARTCHAR w
ENCODING 119
SWIDTH 713 0
DWIDTH 24 0
BBX 23 16 0 0
BITMAP
38000e
f80c0e
381c0e
181c0e
183c0c
182c0c
186c18
184c18
18cc30
1c8c20
1d0e40
1d0ec0
1e0e80
1e0f00
1c0e00
1c0e00
ENDCHAR
STARTCHAR x
ENCODING 120
SWIDTH 477 0
DWIDTH 16 0
BBX 18 16 -2 0
BITMAP
0f0380
1f07c0
078fc0
038880
019000
01b000
01e000
00e000
01e000
01e000
036000
027000
447000
fc3800
f83f00
701c00
ENDCHAR
STARTCHAR y
ENCODING 121
SWIDTH 475 0
DWIDTH 16 0
BBX 20 23 -4 -7
BITMAP
070060
1f80f0
0380e0
0181c0
01c180
01c300
00c300
00c200
00e600
00e400
006c00
006800
006800
007000
007000
002000
006000
00c000
008000
418000
e70000
fe0000
780000
ENDCHAR
STARTCHAR z
ENCODING 122
SWIDTH 440 0
DWIDTH 15 0
BBX 16 16 -1 0
BITMAP
078700
0ffe00
10ec00
301800
383000
186000
00e000
01c000
018000
030800
061c00
0c0c00
180400
378c00
7ff800
e0e000
ENDCHAR
STARTCHAR braceleft
ENCODING 123
SWIDTH 486 0
DWIDTH 16 0
BBX 12 28 2 -5
BITMAP
00f0
03c0
0300
0700
0700
0700
0700
0700
0700
0700
0700
0e00
1c00
e000
1c00
0e00
0700
0700
0700
0700
0700
0700
0700
0700
0700
0700
0380
00f0
ENDCHAR
STARTCHAR bar
ENCODING 124
SWIDTH 500 0
DWIDTH 17 0
BBX 2 33 8 -8
BITMAP
c0
c0
c0
c0
c0
c0
c0
c0
c0
c0
c0
c0
c0
c0
c0
c0
c0
c0
c0
c0
c0
c0
c0
c0
c0
c0
c0
c0
c0
c0
c0
c0
c0
ENDCHAR
STARTCHAR braceright
ENCODING 125
SWIDTH 486 0
DWIDTH 16 0
BBX 12 28 2 -5
BITMAP
f000
3c00
0c00
0e00
0e00
0e00
0e00
0e00
0e00
0e00
0e00
0700
0380
0070
0380
0700
0e00
0e00
0e00
0e00
0e00
0e00
0e00
0e00
0e00
0e00
1c00
f800
ENDCHAR
STARTCHAR c0126
ENCODING 126
SWIDTH 1000 0
DWIDTH 33 0
BBX 19 4 7 17
BITMAP
1f0060
3fe0c0
60ff80
c01f00
ENDCHAR
STARTCHAR space
ENCODING 160
SWIDTH 278 0
DWIDTH 9 0
BBX 1 1 0 0
BITMAP
00
ENDCHAR
STARTCHAR exclamdown
ENCODING 161
SWIDTH 338 0
DWIDTH 11 0
BBX 7 22 2 0
BITMAP
0c
1e
1e
0c
00
00
08
18
18
18
18
38
38
30
30
70
70
70
f0
f0
e0
e0
ENDCHAR
STARTCHAR cent
ENCODING 162
SWIDTH 556 0
DWIDTH 18 0
BBX 15 22 1 -3
BITMAP
0060
0060
0040
01fe
0f4e
1cc6
38c4
3880
7080
7080
e180
e180
e180
e100
e100
e318
7318
3b30
1ff0
0200
0600
0600
ENDCHAR
STARTCHAR sterling
ENCODING 163
SWIDTH 556 0
DWIDTH 18 0
BBX 19 22 -1 0
BITMAP
000780
001fe0
0039e0
0060e0
00e080
01c000
01c000
01c000
038000
038000
038000
1ffe00
030000
070000
070000
060000
060000
0c0000
0c0000
100000
ffff00
ffff00
ENDCHAR
STARTCHAR currency
ENCODING 164
SWIDTH 606 0
DWIDTH 20 0
BBX 18 18 1 5
BITMAP
400080
e001c0
71e380
3fff00
1e1e00
1c0600
180600
300300
300300
300300
300300
180600
180e00
1e1e00
3fff00
71e380
e001c0
400080
ENDCHAR
STARTCHAR yen
ENCODING 165
SWIDTH 556 0
DWIDTH 18 0
BBX 20 22 0 0
BITMAP
3f83f0
0e00c0
0e0180
0e0180
0e0300
070600
070c00
070c00
7f9fc0
03b000
03e000
01e000
01c000
ffff80
018000
018000
018000
038000
038000
038000
038000
1fe000
ENDCHAR
STARTCHAR brokenbar
ENCODING 166
SWIDTH 500 0
DWIDTH 17 0
BBX 2 29 8 -6
BITMAP
c0
c0
c0
c0
c0
c0
c0
c0
c0
c0
c0
c0
00
00
00
00
00
c0
c0
c0
c0
c0
c0
c0
c0
c0
c0
c0
c0
ENDCHAR
STARTCHAR section
ENCODING 167
SWIDTH 500 0
DWIDTH 17 0
BBX 16 29 0 -5
BITMAP
00ff00
038700
030300
060300
060300
070000
078000
07c000
03f000
01f800
063c00
0c1e00
1c0e00
180e00
380e00
380c00
3c1c00
3c3800
1f7000
0fc000
03e000
01f000
007000
003000
603000
603000
606000
f0c000
7f8000
ENDCHAR
STARTCHAR dieresis
ENCODING 168
SWIDTH 500 0
DWIDTH 17 0
BBX 9 3 6 20
BITMAP
e380
e380
e380
ENDCHAR
STARTCHAR copyright
ENCODING 169
SWIDTH 900 0
DWIDTH 30 0
BBX 26 25 2 -1
BITMAP
007f8000
03c0f000
07001c00
0c000e00
18000200
301f8300
207fe180
60e0e180
41c06080
c38060c0
87800040
87000040
87000040
87000040
87000040
87800040
c38060c0
41c06080
60e0e180
207fe180
301f8300
18000600
0e000c00
03807800
007fc000
ENDCHAR
STARTCHAR ordfeminine
ENCODING 170
SWIDTH 394 0
DWIDTH 13 0
BBX 12 11 0 11
BITMAP
07e0
18e0
3040
6040
6040
c0c0
c0c0
c0c0
c080
e380
7cf0
ENDCHAR
STARTCHAR guillemotleft
ENCODING 171
SWIDTH 442 0
DWIDTH 15 0
BBX 14 11 0 2
BITMAP
0204
060c
1c38
3870
e1c0
c180
e1c0
70e0
3870
1830
0810
ENDCHAR
STARTCHAR logicalnot
ENCODING 172
SWIDTH 833 0
DWIDTH 28 0
BBX 20 8 4 6
BITMAP
fffff0
fffff0
000030
000030
000030
000030
000030
000030
ENDCHAR
STARTCHAR hyphen
ENCODING 173
SWIDTH 319 0
DWIDTH 11 0
BBX 8 2 1 7
BITMAP
ff00
ff00
ENDCHAR
STARTCHAR registered
ENCODING 174
SWIDTH 900 0
DWIDTH 30 0
BBX 26 25 2 -1
BITMAP
007f8000
03c0f000
0e001800
18000e00
30000300
23ff8100
60e3c180
40e1e080
c0e0e0c0
80e0e040
80e0c040
80e18040
80fe0040
80e38040
80e1c040
80e1c040
c0e0e0c0
40e0e080
60e0f180
23f87d00
30000300
18000e00
0e001c00
03c07000
007f8000
ENDCHAR
STARTCHAR macron
ENCODING 175
SWIDTH 500 0
DWIDTH 17 0
BBX 11 2 5 20
BITMAP
ffe0
ffe0
ENDCHAR
STARTCHAR degree
ENCODING 176
SWIDTH 329 0
DWIDTH 11 0
BBX 9 9 1 14
BITMAP
3e00
6300
c180
8080
8080
8080
c180
6300
3e00
ENDCHAR
STARTCHAR plusminus
ENCODING 177
SWIDTH 833 0
DWIDTH 28 0
BBX 20 19 4 0
BITMAP
006000
006000
006000
006000
006000
006000
fffff0
fffff0
006000
006000
006000
006000
006000
006000
000000
000000
000000
fffff0
fffff0
ENDCHAR
STARTCHAR twosuperior
ENCODING 178
SWIDTH 367 0
DWIDTH 12 0
BBX 12 14 -1 9
BITMAP
07e0
0870
1830
1830
0030
0060
00e0
0180
0300
0400
1820
2020
7fe0
ffe0
ENDCHAR
STARTCHAR threesuperior
ENCODING 179
SWIDTH 367 0
DWIDTH 12 0
BBX 11 14 0 9
BITMAP
07c0
18e0
3060
3060
0040
0180
0f00
00c0
00c0
00c0
c0c0
c180
e300
7e00
ENDCHAR
STARTCHAR acute
ENCODING 180
SWIDTH 500 0
DWIDTH 17 0
BBX 8 6 9 18
BITMAP
0f00
1c00
1800
3000
6000
c000
ENDCHAR
STARTCHAR mu
ENCODING 181
SWIDTH 548 0
DWIDTH 18 0
BBX 18 21 -1 -7
BITMAP
0e0700
0c0600
0c0600
0c0e00
1c0e00
1c0c00
180c00
180c00
181c00
381c40
383c40
3c6cc0
3fef80
678700
600000
600000
600000
e00000
e00000
e00000
c00000
ENDCHAR
STARTCHAR paragraph
ENCODING 182
SWIDTH 484 0
DWIDTH 16 0
BBX 14 25 1 -3
BITMAP
1ffc
3f30
7f30
ff30
ff30
ff30
ff30
ff30
ff30
7f30
7f30
3f30
0f30
0030
0030
0030
0030
0030
0030
0030
0030
0030
0030
0030
0030
ENDCHAR
STARTCHAR periodcentered
ENCODING 183
SWIDTH 278 0
DWIDTH 9 0
BBX 4 4 3 9
BITMAP
60
f0
f0
60
ENDCHAR
STARTCHAR cedilla
ENCODING 184
SWIDTH 500 0
DWIDTH 17 0
BBX 7 7 2 -7
BITMAP
18
10
1e
06
06
0e
f8
ENDCHAR
STARTCHAR onesuperior
ENCODING 185
SWIDTH 367 0
DWIDTH 12 0
BBX 7 14 2 9
BITMAP
0e
3e
06
04
0c
0c
0c
0c
08
18
18
18
18
fe
ENDCHAR
STARTCHAR ordmasculine
ENCODING 186
SWIDTH 377 0
DWIDTH 13 0
BBX 11 11 1 11
BITMAP
0f80
18c0
6060
6060
c060
c060
c060
c0c0
c0c0
6380
3e00
ENDCHAR
STARTCHAR guillemotright
ENCODING 187
SWIDTH 442 0
DWIDTH 15 0
BBX 13 11 0 2
BITMAP
2080
30c0
38e0
1c70
0e38
0418
0c38
3860
71c0
c180
8200
ENDCHAR
STARTCHAR onequarter
ENCODING 188
SWIDTH 867 0
DWIDTH 29 0
BBX 27 23 1 -1
BITMAP
00000300
0e000600
3e000c00
04001800
0c003000
0c003000
0c006000
0c00c000
08018000
18030000
18060060
180600c0
fe0c01c0
001806c0
00300cc0
00601880
00403080
00c04180
0180ffe0
03000180
06000100
0c000300
00000300
ENDCHAR
STARTCHAR onehalf
ENCODING 189
SWIDTH 867 0
DWIDTH 29 0
BBX 27 22 1 0
BITMAP
00000300
0e000600
3e000c00
04001800
0c003000
0c003000
0c006000
0c00c000
08018000
18030000
18060fc0
180610e0
fe0c3060
00183060
00300060
006000c0
00400180
00c00300
01800c00
03001000
06006040
0c00ffc0
ENDCHAR
STARTCHAR threequarters
ENCODING 190
SWIDTH 867 0
DWIDTH 29 0
BBX 28 23 0 -1
BITMAP
00000180
07c00300
18e00600
30600c00
00401800
01801800
0f003000
00c06000
00c0c000
00c18000
c0c30030
c3030060
7e0600e0
000c0360
00180660
00300c40
00201840
006020c0
00c07ff0
018000c0
03000080
06000180
00000180
ENDCHAR
STARTCHAR questiondown
ENCODING 191
SWIDTH 486 0
DWIDTH 16 0
BBX 12 22 1 0
BITMAP
0060
00f0
00f0
0060
0000
0000
00c0
00c0
00c0
00c0
0380
0f00
1c00
3800
7000
7000
e000
e000
e060
f0f0
78e0
1f80
ENDCHAR
STARTCHAR Agrave
ENCODING 192
SWIDTH 606 0
DWIDTH 20 0
BBX 22 31 -3 0
BITMAP
000e00
000700
000700
000300
000180
000180
000000
000000
000000
000300
000700
000780
000f80
001b80
001b80
003180
0031c0
0061c0
00e1c0
00c1c0
0181c0
0180c0
03ffe0
0300e0
0600e0
0c00e0
0c00e0
180060
180070
300070
fe01fc
ENDCHAR
STARTCHAR Aacute
ENCODING 193
SWIDTH 606 0
DWIDTH 20 0
BBX 23 31 -3 0
BITMAP
00001e
000038
000030
000060
0000c0
000180
000000
000000
000000
000300
000700
000780
000f80
001b80
001b80
003180
0031c0
0061c0
00e1c0
00c1c0
0181c0
0180c0
03ffe0
0300e0
0600e0
0c00e0
0c00e0
180060
180070
300070
fe01fc
ENDCHAR
STARTCHAR Acircumflex
ENCODING 194
SWIDTH 606 0
DWIDTH 20 0
BBX 22 31 -3 0
BITMAP
0000e0
0001e0
000360
000630
000c30
001818
000000
000000
000000
000300
000700
000780
000f80
001b80
001b80
003180
0031c0
0061c0
00e1c0
00c1c0
0181c0
0180c0
03ffe0
0300e0
0600e0
0c00e0
0c00e0
180060
180070
300070
fe01fc
ENDCHAR
STARTCHAR Atilde
ENCODING 195
SWIDTH 606 0
DWIDTH 20 0
BBX 22 30 -3 0
BITMAP
000204
000fcc
0009f8
001820
000000
000000
000000
000000
000300
000700
000780
000f80
001b80
001b80
003180
0031c0
0061c0
00e1c0
00c1c0
0181c0
0180c0
03ffe0
0300e0
0600e0
0c00e0
0c00e0
180060
180070
300070
fe01fc
ENDCHAR
STARTCHAR Adieresis
ENCODING 196
SWIDTH 606 0
DWIDTH 20 0
BBX 22 30 -3 0
BITMAP
000e38
000e38
000e38
000000
000000
000000
000000
000000
000300
000700
000780
000f80
001b80
001b80
003180
0031c0
0061c0
00e1c0
00c1c0
0181c0
0180c0
03ffe0
0300e0
0600e0
0c00e0
0c00e0
180060
180070
300070
fe01fc
ENDCHAR
STARTCHAR Aring
ENCODING 197
SWIDTH 606 0
DWIDTH 20 0
BBX 22 32 -3 0
BITMAP
0003c0
000c60
000c20
000830
000830
000c20
000c60
0007c0
000000
000000
000300
000700
000780
000f80
001b80
001b80
003180
0031c0
0061c0
00e1c0
00c1c0
0181c0
0180c0
03ffe0
0300e0
0600e0
0c00e0
0c00e0
180060
180070
300070
fe01fc
ENDCHAR
STARTCHAR AE
ENCODING 198
SWIDTH 873 0
DWIDTH 29 0
BBX 33 22 -4 0
BITMAP
0001ffff80
00007e0380
00006e0380
0000ce0300
00018c0300
00031c0000
00071c0000
00061c0800
000c1c1800
0018181800
00303ff000
0060383000
00fff83000
0080383000
0180300000
0300700000
0600700600
0c00700600
0c00700600
1800600400
3800e00c00
fe03fffc00
ENDCHAR
STARTCHAR Ccedilla
ENCODING 199
SWIDTH 604 0
DWIDTH 20 0
BBX 20 29 1 -7
BITMAP
007fe0
03e0f0
070030
0e0020
1c0020
380020
380000
700000
700000
700000
e00000
e00000
e00000
e00000
e00000
e00000
e00180
700180
700180
380300
1e0700
07fe00
018000
010000
01e000
006000
006000
00e000
0f8000
ENDCHAR
STARTCHAR Egrave
ENCODING 200
SWIDTH 546 0
DWIDTH 18 0
BBX 19 31 -1 0
BITMAP
007000
003800
003800
001800
000c00
000c00
000000
000000
000000
0fffe0
0380e0
0380e0
0380c0
0300c0
070000
070000
070200
070600
070600
07fe00
0e0400
0e0400
0e0c00
0e0000
0c0000
1c0000
1c0180
1c0180
1c0100
380300
ffff00
ENDCHAR
STARTCHAR Eacute
ENCODING 201
SWIDTH 546 0
DWIDTH 18 0
BBX 20 31 -1 0
BITMAP
0000f0
0001c0
000180
000300
000600
000c00
000000
000000
000000
0fffe0
0380e0
0380e0
0380c0
0300c0
070000
070000
070200
070600
070600
07fe00
0e0400
0e0400
0e0c00
0e0000
0c0000
1c0000
1c0180
1c0180
1c0100
380300
ffff00
ENDCHAR
STARTCHAR Ecircumflex
ENCODING 202
SWIDTH 546 0
DWIDTH 18 0
BBX 19 31 -1 0
BITMAP
000700
000f00
001b00
003180
006180
00c0c0
000000
000000
000000
0fffe0
0380e0
0380e0
0380c0
0300c0
070000
070000
070200
070600
070600
07fe00
0e0400
0e0400
0e0c00
0e0000
0c0000
1c0000
1c0180
1c0180
1c0100
380300
ffff00
ENDCHAR
STARTCHAR Edieresis
ENCODING 203
SWIDTH 546 0
DWIDTH 18 0
BBX 19 30 -1 0
BITMAP
0071c0
0071c0
0071c0
000000
000000
000000
000000
000000
0fffe0
0380e0
0380e0
0380c0
0300c0
070000
070000
070200
070600
070600
07fe00
0e0400
0e0400
0e0c00
0e0000
0c0000
1c0000
1c0180
1c0180
1c0100
380300
ffff00
ENDCHAR
STARTCHAR Igrave
ENCODING 204
SWIDTH 313 0
DWIDTH 11 0
BBX 12 31 -1 0
BITMAP
0700
0380
0380
0180
00c0
00c0
0000
0000
0000
0ff0
0380
0380
0380
0380
0380
0700
0700
0700
0700
0700
0e00
0e00
0e00
0e00
0e00
1c00
1c00
1c00
1c00
1c00
ff00
ENDCHAR
STARTCHAR Iacute
ENCODING 205
SWIDTH 313 0
DWIDTH 11 0
BBX 16 31 -1 0
BITMAP
000f00
001c00
001800
003000
006000
00c000
000000
000000
000000
0ff000
038000
038000
038000
038000
038000
070000
070000
070000
070000
070000
0e0000
0e0000
0e0000
0e0000
0e0000
1c0000
1c0000
1c0000
1c0000
1c0000
ff0000
ENDCHAR
STARTCHAR Icircumflex
ENCODING 206
SWIDTH 313 0
DWIDTH 11 0
BBX 14 31 -1 0
BITMAP
0070
00f0
01b0
0318
0618
0c0c
0000
0000
0000
0ff0
0380
0380
0380
0380
0380
0700
0700
0700
0700
0700
0e00
0e00
0e00
0e00
0e00
1c00
1c00
1c00
1c00
1c00
ff00
ENDCHAR
STARTCHAR Idieresis
ENCODING 207
SWIDTH 313 0
DWIDTH 11 0
BBX 14 30 -1 0
BITMAP
071c
071c
071c
0000
0000
0000
0000
0000
0ff0
0380
0380
0380
0380
0380
0700
0700
0700
0700
0700
0e00
0e00
0e00
0e00
0e00
1c00
1c00
1c00
1c00
1c00
ff00
ENDCHAR
STARTCHAR Eth
ENCODING 208
SWIDTH 671 0
DWIDTH 22 0
BBX 21 22 -1 0
BITMAP
0fff00
0387c0
0380e0
038070
030070
070038
070038
070038
070038
070038
3ff038
0e0038
0e0070
0e0070
0e0070
1c00e0
1c00e0
1c01c0
1c0380
1c0f00
3c7e00
fff000
ENDCHAR
STARTCHAR Ntilde
ENCODING 209
SWIDTH 683 0
DWIDTH 23 0
BBX 25 30 -1 0
BITMAP
00040800
001f9800
0013f000
00304000
00000000
00000000
00000000
00000000
0f803f80
03c00e00
03c00c00
03e00c00
03e00c00
06700c00
06700800
06381800
06381800
061c1800
041c1800
0c0e1000
0c0e3000
0c0e3000
0c073000
08073000
1803b000
1803e000
1801e000
1801e000
3800e000
fe00e000
ENDCHAR
STARTCHAR Ograve
ENCODING 210
SWIDTH 708 0
DWIDTH 24 0
BBX 22 31 1 0
BITMAP
007000
003800
003800
001800
000c00
000c00
000000
000000
000000
007f80
03c1e0
070070
0e0038
1c0038
3c001c
38001c
70001c
70001c
70001c
e0001c
e0001c
e0003c
e00038
e00038
e00078
e00070
7000e0
7001e0
3803c0
1e0f00
07fc00
ENDCHAR
STARTCHAR Oacute
ENCODING 211
SWIDTH 708 0
DWIDTH 24 0
BBX 22 31 1 0
BITMAP
0000f0
0001c0
000180
000300
000600
000c00
000000
000000
000000
007f80
03c1e0
070070
0e0038
1c0038
3c001c
38001c
70001c
70001c
70001c
e0001c
e0001c
e0003c
e00038
e00038
e00078
e00070
7000e0
7001e0
3803c0
1e0f00
07fc00
ENDCHAR
STARTCHAR Ocircumflex
ENCODING 212
SWIDTH 708 0
DWIDTH 24 0
BBX 22 31 1 0
BITMAP
000700
000f00
001b00
003180
006180
00c0c0
000000
000000
000000
007f80
03c1e0
070070
0e0038
1c0038
3c001c
38001c
70001c
70001c
70001c
e0001c
e0001c
e0003c
e00038
e00038
e00078
e00070
7000e0
7001e0
3803c0
1e0f00
07fc00
ENDCHAR
STARTCHAR Otilde
ENCODING 213
SWIDTH 708 0
DWIDTH 24 0
BBX 22 30 1 0
BITMAP
001020
007e60
004fc0
00c100
000000
000000
000000
000000
007f80
03c1e0
070070
0e0038
1c0038
3c001c
38001c
70001c
70001c
70001c
e0001c
e0001c
e0003c
e00038
e00038
e00078
e00070
7000e0
7001e0
3803c0
1e0f00
07fc00
ENDCHAR
STARTCHAR Odieresis
ENCODING 214
SWIDTH 708 0
DWIDTH 24 0
BBX 22 30 1 0
BITMAP
0071c0
0071c0
0071c0
000000
000000
000000
000000
000000
007f80
03c1e0
070070
0e0038
1c0038
3c001c
38001c
70001c
70001c
70001c
e0001c
e0001c
e0003c
e00038
e00038
e00078
e00070
7000e0
7001e0
3803c0
1e0f00
07fc00
ENDCHAR
STARTCHAR multiply
ENCODING 215
SWIDTH 833 0
DWIDTH 28 0
BBX 18 18 5 1
BITMAP
400080
e001c0
700380
380700
1c0e00
0e1c00
073800
03f000
01e000
01e000
03f000
073800
0e1c00
1c0e00
380700
700380
e001c0
400080
ENDCHAR
STARTCHAR Oslash
ENCODING 216
SWIDTH 708 0
DWIDTH 24 0
BBX 22 26 1 -2
BITMAP
000010
000030
007fe0
03c1e0
0700f0
0e01b8
1c0338
38061c
38061c
700c1c
70181c
70101c
e0301c
e0601c
e04038
e0c038
e18038
e30070
e30070
7600e0
7c01c0
380380
1e0f00
37f800
600000
400000
ENDCHAR
STARTCHAR Ugrave
ENCODING 217
SWIDTH 664 0
DWIDTH 22 0
BBX 21 31 2 0
BITMAP
01c000
00e000
00e000
006000
003000
003000
000000
000000
000000
ff03f8
1c0060
180040
3800c0
3800c0
3800c0
380080
300080
700180
700180
700180
700100
700100
e00300
e00300
e00300
e00200
e00600
f00c00
783c00
3ff000
0fc000
ENDCHAR
STARTCHAR Uacute
ENCODING 218
SWIDTH 664 0
DWIDTH 22 0
BBX 21 31 2 0
BITMAP
0003c0
000700
000600
000c00
001800
003000
000000
000000
000000
ff03f8
1c0060
180040
3800c0
3800c0
3800c0
380080
300080
700180
700180
700180
700100
700100
e00300
e00300
e00300
e00200
e00600
f00c00
783c00
3ff000
0fc000
ENDCHAR
STARTCHAR Ucircumflex
ENCODING 219
SWIDTH 664 0
DWIDTH 22 0
BBX 21 31 2 0
BITMAP
001c00
003c00
006c00
00c600
018600
030300
000000
000000
000000
ff03f8
1c0060
180040
3800c0
3800c0
3800c0
380080
300080
700180
700180
700180
700100
700100
e00300
e00300
e00300
e00200
e00600
f00c00
783c00
3ff000
0fc000
ENDCHAR
STARTCHAR Udieresis
ENCODING 220
SWIDTH 664 0
DWIDTH 22 0
BBX 21 30 2 0
BITMAP
01c700
01c700
01c700
000000
000000
000000
000000
000000
ff03f8
1c0060
180040
3800c0
3800c0
3800c0
380080
300080
700180
700180
700180
700100
700100
e00300
e00300
e00300
e00200
e00600
f00c00
783c00
3ff000
0fc000
ENDCHAR
STARTCHAR Yacute
ENCODING 221
SWIDTH 563 0
DWIDTH 18 0
BBX 20 31 1 0
BITMAP
0003c0
000700
000600
000c00
001800
003000
000000
000000
000000
ff07f0
3801c0
1c0180
1c0300
1c0600
0c0c00
0e0c00
0e1800
063000
077000
076000
03c000
038000
038000
038000
038000
070000
070000
070000
070000
070000
3fc000
ENDCHAR
STARTCHAR Thorn
ENCODING 222
SWIDTH 532 0
DWIDTH 18 0
BBX 18 22 -1 0
BITMAP
0ff000
038000
038000
038000
03fe00
070780
070380
0701c0
0701c0
0701c0
0601c0
0e01c0
0e0180
0e0380
0e0380
0e0700
1c1e00
1ff800
1c0000
1c0000
3c0000
ff0000
ENDCHAR
STARTCHAR germandbls
ENCODING 223
SWIDTH 574 0
DWIDTH 19 0
BBX 22 31 -5 -7
BITMAP
0007e0
001c38
00181c
00301c
00701c
00601c
00601c
00e038
00e0f8
00c1c0
00c300
00c600
00c600
01c700
01c380
01c3e0
0181f0
018078
018038
018038
039c38
039838
031c60
030fc0
030000
060000
060000
040000
ec0000
f80000
e00000
ENDCHAR
STARTCHAR agrave
ENCODING 224
SWIDTH 525 0
DWIDTH 17 0
BBX 15 24 1 0
BITMAP
0380
01c0
01c0
00c0
0060
0060
0000
0000
03fc
0e3c
1c18
3818
3018
7018
7038
e030
e030
e030
e030
e070
e070
71f0
7f7e
1e38
ENDCHAR
STARTCHAR aacute
ENCODING 225
SWIDTH 525 0
DWIDTH 17 0
BBX 17 24 1 0
BITMAP
000780
000e00
000c00
001800
003000
006000
000000
000000
03fc00
0e3c00
1c1800
381800
301800
701800
703800
e03000
e03000
e03000
e03000
e07000
e07000
71f000
7f7e00
1e3800
ENDCHAR
STARTCHAR acircumflex
ENCODING 226
SWIDTH 525 0
DWIDTH 17 0
BBX 15 24 1 0
BITMAP
0038
0078
00d8
018c
030c
0606
0000
0000
03fc
0e3c
1c18
3818
3018
7018
7038
e030
e030
e030
e030
e070
e070
71f0
7f7e
1e38
ENDCHAR
STARTCHAR atilde
ENCODING 227
SWIDTH 525 0
DWIDTH 17 0
BBX 16 23 1 0
BITMAP
008100
03f300
027e00
060800
000000
000000
000000
03fc00
0e3c00
1c1800
381800
301800
701800
703800
e03000
e03000
e03000
e03000
e07000
e07000
71f000
7f7e00
1e3800
ENDCHAR
STARTCHAR adieresis
ENCODING 228
SWIDTH 525 0
DWIDTH 17 0
BBX 15 23 1 0
BITMAP
038e
038e
038e
0000
0000
0000
0000
03fc
0e3c
1c18
3818
3018
7018
7038
e030
e030
e030
e030
e070
e070
71f0
7f7e
1e38
ENDCHAR
STARTCHAR aring
ENCODING 229
SWIDTH 525 0
DWIDTH 17 0
BBX 15 25 1 0
BITMAP
00f0
0198
0108
0308
0108
0190
00f0
0000
0000
03fc
0e3c
1c18
3818
3018
7018
7038
e030
e030
e030
e030
e070
e070
71f0
7f7e
1e38
ENDCHAR
STARTCHAR ae
ENCODING 230
SWIDTH 671 0
DWIDTH 22 0
BBX 21 16 0 0
BITMAP
07e3f0
1c7638
383c38
383838
003878
003070
0071e0
07ff00
3c6000
706000
e07000
e07008
e07018
f1f870
7f3fc0
3c0f00
ENDCHAR
STARTCHAR ccedilla
ENCODING 231
SWIDTH 394 0
DWIDTH 13 0
BBX 12 23 0 -7
BITMAP
03e0
0e70
1830
3820
7000
7000
6000
e000
e000
e000
e000
e010
f030
7860
3fc0
1f00
1800
1000
1e00
0600
0600
0e00
f800
ENDCHAR
STARTCHAR egrave
ENCODING 232
SWIDTH 424 0
DWIDTH 14 0
BBX 12 24 1 0
BITMAP
0e00
0700
0700
0300
0180
0180
0000
0000
03e0
0c70
1870
3070
30e0
70e0
6380
fc00
e000
e000
e000
e010
7030
78c0
3f80
1e00
ENDCHAR
STARTCHAR eacute
ENCODING 233
SWIDTH 424 0
DWIDTH 14 0
BBX 15 24 1 0
BITMAP
001e
0038
0030
0060
00c0
0180
0000
0000
03e0
0c70
1870
3070
30e0
70e0
6380
fc00
e000
e000
e000
e010
7030
78c0
3f80
1e00
ENDCHAR
STARTCHAR ecircumflex
ENCODING 234
SWIDTH 424 0
DWIDTH 14 0
BBX 13 24 1 0
BITMAP
00e0
01e0
0360
0630
0c30
1818
0000
0000
03e0
0c70
1870
3070
30e0
70e0
6380
fc00
e000
e000
e000
e010
7030
78c0
3f80
1e00
ENDCHAR
STARTCHAR edieresis
ENCODING 235
SWIDTH 424 0
DWIDTH 14 0
BBX 13 23 1 0
BITMAP
0e38
0e38
0e38
0000
0000
0000
0000
03e0
0c70
1870
3070
30e0
70e0
6380
fc00
e000
e000
e000
e010
7030
78c0
3f80
1e00
ENDCHAR
STARTCHAR igrave
ENCODING 236
SWIDTH 287 0
DWIDTH 10 0
BBX 8 24 1 0
BITMAP
7000
3800
3800
1800
0c00
0c00
0000
0000
1e00
fe00
1c00
1c00
1c00
1c00
1c00
3800
3800
3800
3800
7000
7000
7000
7f00
3c00
ENDCHAR
STARTCHAR iacute
ENCODING 237
SWIDTH 287 0
DWIDTH 10 0
BBX 12 24 1 0
BITMAP
00f0
01c0
0180
0300
0600
0c00
0000
0000
1e00
fe00
1c00
1c00
1c00
1c00
1c00
3800
3800
3800
3800
7000
7000
7000
7f00
3c00
ENDCHAR
STARTCHAR icircumflex
ENCODING 238
SWIDTH 287 0
DWIDTH 10 0
BBX 10 24 1 0
BITMAP
0700
0f00
1b00
3180
6180
c0c0
0000
0000
1e00
fe00
1c00
1c00
1c00
1c00
1c00
3800
3800
3800
3800
7000
7000
7000
7f00
3c00
ENDCHAR
STARTCHAR idieresis
ENCODING 239
SWIDTH 287 0
DWIDTH 10 0
BBX 10 23 1 0
BITMAP
71c0
71c0
71c0
0000
0000
0000
0000
1e00
fe00
1c00
1c00
1c00
1c00
1c00
3800
3800
3800
3800
7000
7000
7000
7f00
3c00
ENDCHAR
STARTCHAR eth
ENCODING 240
SWIDTH 500 0
DWIDTH 17 0
BBX 15 24 1 0
BITMAP
0700
0f82
01de
00f0
03e0
0e60
0870
0030
07f8
0c38
181c
381c
701c
701c
701c
e01c
e01c
e018
e038
e038
e030
7060
38c0
1f80
ENDCHAR
STARTCHAR ntilde
ENCODING 241
SWIDTH 556 0
DWIDTH 18 0
BBX 16 23 1 0
BITMAP
010200
07e600
04fc00
0c1000
000000
000000
000000
3c7800
f9fc00
1b1c00
3c1c00
381c00
381c00
301800
301800
703800
703800
703000
703000
603000
607800
e07f00
e03c00
ENDCHAR
STARTCHAR ograve
ENCODING 242
SWIDTH 502 0
DWIDTH 17 0
BBX 14 24 1 0
BITMAP
0700
0380
0380
0180
00c0
00c0
0000
0000
07e0
0c70
1838
381c
701c
701c
601c
e01c
e01c
e018
e038
e038
e030
7060
38c0
1f00
ENDCHAR
STARTCHAR oacute
ENCODING 243
SWIDTH 502 0
DWIDTH 17 0
BBX 16 24 1 0
BITMAP
000f00
001c00
001800
003000
006000
00c000
000000
000000
07e000
0c7000
183800
381c00
701c00
701c00
601c00
e01c00
e01c00
e01800
e03800
e03800
e03000
706000
38c000
1f0000
ENDCHAR
STARTCHAR ocircumflex
ENCODING 244
SWIDTH 502 0
DWIDTH 17 0
BBX 14 24 1 0
BITMAP
0070
00f0
01b0
0318
0618
0c0c
0000
0000
07e0
0c70
1838
381c
701c
701c
601c
e01c
e01c
e018
e038
e038
e030
7060
38c0
1f00
ENDCHAR
STARTCHAR otilde
ENCODING 245
SWIDTH 502 0
DWIDTH 17 0
BBX 15 23 1 0
BITMAP
0102
07e6
04fc
0c10
0000
0000
0000
07e0
0c70
1838
381c
701c
701c
601c
e01c
e01c
e018
e038
e038
e030
7060
38c0
1f00
ENDCHAR
STARTCHAR odieresis
ENCODING 246
SWIDTH 502 0
DWIDTH 17 0
BBX 14 23 1 0
BITMAP
071c
071c
071c
0000
0000
0000
0000
07e0
0c70
1838
381c
701c
701c
601c
e01c
e01c
e018
e038
e038
e030
7060
38c0
1f00
ENDCHAR
STARTCHAR divide
ENCODING 247
SWIDTH 833 0
DWIDTH 28 0
BBX 20 16 4 2
BITMAP
006000
00f000
00f000
006000
000000
000000
000000
fffff0
fffff0
000000
000000
000000
006000
00f000
00f000
006000
ENDCHAR
STARTCHAR oslash
ENCODING 248
SWIDTH 502 0
DWIDTH 17 0
BBX 15 20 1 -2
BITMAP
0006
000c
03f8
0e38
183c
382c
304e
704e
708e
e18e
e10e
e20c
e61c
e41c
e838
7830
38e0
3f80
2000
c000
ENDCHAR
STARTCHAR ugrave
ENCODING 249
SWIDTH 553 0
DWIDTH 18 0
BBX 16 24 1 0
BITMAP
070000
038000
038000
018000
00c000
00c000
000000
000000
1c0e00
fc0e00
1c0e00
180c00
180c00
381c00
381c00
301800
301800
301800
703800
703800
707000
70f800
7f3f00
3c3c00
ENDCHAR
STARTCHAR uacute
ENCODING 250
SWIDTH 553 0
DWIDTH 18 0
BBX 16 24 1 0
BITMAP
000f00
001c00
001800
003000
006000
00c000
000000
000000
1c0e00
fc0e00
1c0e00
180c00
180c00
381c00
381c00
301800
301800
301800
703800
703800
707000
70f800
7f3f00
3c3c00
ENDCHAR
STARTCHAR ucircumflex
ENCODING 251
SWIDTH 553 0
DWIDTH 18 0
BBX 16 24 1 0
BITMAP
007000
00f000
01b000
031800
061800
0c0c00
000000
000000
1c0e00
fc0e00
1c0e00
180c00
180c00
381c00
381c00
301800
301800
301800
703800
703800
707000
70f800
7f3f00
3c3c00
ENDCHAR
STARTCHAR udieresis
ENCODING 252
SWIDTH 553 0
DWIDTH 18 0
BBX 16 23 1 0
BITMAP
071c00
071c00
071c00
000000
000000
000000
000000
1c0e00
fc0e00
1c0e00
180c00
180c00
381c00
381c00
301800
301800
301800
703800
703800
707000
70f800
7f3f00
3c3c00
ENDCHAR
STARTCHAR yacute
ENCODING 253
SWIDTH 475 0
DWIDTH 16 0
BBX 21 31 -4 -7
BITMAP
000078
0000e0
0000c0
000180
000300
000600
000000
000000
070060
1f80f0
0380e0
0181c0
01c180
01c300
00c300
00c200
00e600
00e400
006c00
006800
006800
007000
007000
002000
006000
00c000
008000
418000
e70000
fe0000
780000
ENDCHAR
STARTCHAR thorn
ENCODING 254
SWIDTH 516 0
DWIDTH 17 0
BBX 17 31 -2 -7
BITMAP
01c000
0f8000
018000
018000
018000
038000
038000
030000
033e00
03c700
030780
070380
070380
060380
060380
060380
0e0380
0e0700
0e0700
0c0600
0c0e00
0c0c00
1e3800
1fe000
1c0000
180000
180000
180000
380000
380000
ff0000
ENDCHAR
STARTCHAR ydieresis
ENCODING 255
SWIDTH 475 0
DWIDTH 16 0
BBX 20 30 -4 -7
BITMAP
0038e0
0038e0
0038e0
000000
000000
000000
000000
070060
1f80f0
0380e0
0181c0
01c180
01c300
00c300
00c200
00e600
00e400
006c00
006800
006800
007000
007000
002000
006000
00c000
008000
418000
e70000
fe0000
780000
ENDCHAR
ENDFONT
