STARTFONT 2.1
COMMENT $Xorg: charI14.bdf,v 1.3 2000/08/17 19:42:53 cpqbld Exp $
COMMENT  
COMMENT  Copyright 1988 Bitstream, Inc., Cambridge, Massachusetts, USA
COMMENT  Bitstream and Charter are registered trademarks of Bitstream, Inc.
COMMENT  
COMMENT  The names "Bitstream" and "Charter" are registered trademarks of
COMMENT  Bitstream, Inc.  Permission to use these trademarks is hereby
COMMENT  granted only in association with the images described in this file.
COMMENT  
COMMENT  Permission to use, copy, modify, and distribute this software and
COMMENT  its documentation for any purpose and without fee is hereby
COMMENT  granted, provided that the above copyright notice appear in all
COMMENT  copies and that both that copyright notice and this permission
COMMENT  notice appear in supporting documentation, and that the name of
COMMENT  Bitstream not be used in advertising or publicity pertaining to
COMMENT  distribution of the software without specific, written prior
COMMENT  permission.  Bitstream makes no representations about the
COMMENT  suitability of this software for any purpose.  It is provided "as
COMMENT  is" without express or implied warranty.
COMMENT  
COMMENT  BITSTREAM DISCLAIMS ALL WARRANTIES WITH REGARD TO THIS SOFTWARE,
COMMENT  INCLUDING ALL IMPLIED WARRANTIES OF MERCHANTABILITY AND FITNESS, IN
COMMENT  NO EVENT SHALL BITSTREAM BE LIABLE FOR ANY SPECIAL, INDIRECT OR
COMMENT  CONSEQUENTIAL DAMAGES OR ANY DAMAGES WHATSOEVER RESULTING FROM LOSS
COMMENT  OF USE, DATA OR PROFITS, WHETHER IN AN ACTION OF CONTRACT,
COMMENT  NEGLIGENCE OR OTHER TORTIOUS ACTION, ARISING OUT OF OR IN
COMMENT  CONNECTION WITH THE USE OR PERFORMANCE OF THIS SOFTWARE.
COMMENT  
COMMENT  
COMMENT Fontware CVTBDF v1.0
FONT -Bitstream-Charter-Medium-I-Normal--19-140-100-100-P-103-ISO8859-1
SIZE 14 100 100
FONTBOUNDINGBOX 21 24 -3 -5
STARTPROPERTIES 22
COMMENT Begin LogicalFontDescription
FONTNAME_REGISTRY ""
FAMILY_NAME "Charter"
FOUNDRY "Bitstream"
WEIGHT_NAME "Medium"
SETWIDTH_NAME "Normal"
SLANT "I"
ADD_STYLE_NAME ""
PIXEL_SIZE 19
POINT_SIZE 140
RESOLUTION_X 100
RESOLUTION_Y 100
SPACING "P"
AVERAGE_WIDTH 103
CHARSET_REGISTRY "ISO8859"
CHARSET_ENCODING "1"
COMMENT END LogicalFontDescription
FONT_DESCENT 5
FONT_ASCENT 19
CAP_HEIGHT 14
X_HEIGHT 9
CHARSET_COLLECTIONS "ASCII ISOLATIN1"
FACE_NAME "Bitstream Charter Italic"
COPYRIGHT "Copyright 1987 by Bitstream Inc. Charter Registered trademark of Bitstream Inc."
COMMENT ****** end of font properties
ENDPROPERTIES
CHARS 191
STARTCHAR space
ENCODING 32
SWIDTH 278 0
DWIDTH 5 0
BBX 1 1 0 0
BITMAP
00
ENDCHAR
STARTCHAR exclam
ENCODING 33
SWIDTH 338 0
DWIDTH 7 0
BBX 4 14 2 0
BITMAP
30
30
30
30
20
60
60
60
40
40
40
00
c0
c0
ENDCHAR
STARTCHAR quotedbl
ENCODING 34
SWIDTH 331 0
DWIDTH 7 0
BBX 5 6 1 7
BITMAP
d8
d8
d8
d8
48
48
ENDCHAR
STARTCHAR numbersign
ENCODING 35
SWIDTH 745 0
DWIDTH 14 0
BBX 12 14 1 -1
BITMAP
0220
0440
0440
0440
7ff0
0880
0880
1100
ffe0
1100
2200
2200
2200
4400
ENDCHAR
STARTCHAR dollar
ENCODING 36
SWIDTH 556 0
DWIDTH 11 0
BBX 10 16 0 -2
BITMAP
0fc0
1ac0
3240
2480
3400
3c00
1c00
0f00
0780
0980
4980
c980
cb00
7c00
1000
1000
ENDCHAR
STARTCHAR percent
ENCODING 37
SWIDTH 852 0
DWIDTH 16 0
BBX 15 13 1 0
BITMAP
3804
6408
4410
8420
8440
8c9c
8922
7222
0442
0842
1046
204c
6038
ENDCHAR
STARTCHAR ampersand
ENCODING 38
SWIDTH 704 0
DWIDTH 14 0
BBX 13 14 0 0
BITMAP
0780
18c0
10c0
30c0
3080
1980
1e00
3c78
6610
c320
c1c0
c180
e3e0
7c70
ENDCHAR
STARTCHAR quoteright
ENCODING 39
SWIDTH 201 0
DWIDTH 4 0
BBX 3 5 1 8
BITMAP
60
60
20
40
c0
ENDCHAR
STARTCHAR parenleft
ENCODING 40
SWIDTH 419 0
DWIDTH 8 0
BBX 8 16 1 -3
BITMAP
0300
0c00
1800
3000
3000
6000
6000
6000
c000
c000
c000
c000
c000
6000
2000
1800
ENDCHAR
STARTCHAR parenright
ENCODING 41
SWIDTH 419 0
DWIDTH 8 0
BBX 7 16 -1 -3
BITMAP
10
08
04
06
06
06
06
06
04
0c
0c
08
18
10
20
c0
ENDCHAR
STARTCHAR asterisk
ENCODING 42
SWIDTH 500 0
DWIDTH 10 0
BBX 8 7 2 6
BITMAP
0800
0800
4b00
ee00
1800
6800
4c00
ENDCHAR
STARTCHAR plus
ENCODING 43
SWIDTH 833 0
DWIDTH 16 0
BBX 11 11 3 0
BITMAP
0400
0400
0400
0400
0400
ffe0
0400
0400
0400
0400
0400
ENDCHAR
STARTCHAR comma
ENCODING 44
SWIDTH 278 0
DWIDTH 5 0
BBX 3 6 -1 -4
BITMAP
60
60
20
20
40
80
ENDCHAR
STARTCHAR hyphen
ENCODING 45
SWIDTH 319 0
DWIDTH 6 0
BBX 4 1 1 4
BITMAP
f0
ENDCHAR
STARTCHAR period
ENCODING 46
SWIDTH 278 0
DWIDTH 5 0
BBX 2 2 0 0
BITMAP
c0
c0
ENDCHAR
STARTCHAR slash
ENCODING 47
SWIDTH 481 0
DWIDTH 9 0
BBX 12 16 -2 -2
BITMAP
0010
0020
0040
0040
0080
0100
0300
0200
0400
0c00
0800
1000
3000
2000
4000
c000
ENDCHAR
STARTCHAR zero
ENCODING 48
SWIDTH 556 0
DWIDTH 11 0
BBX 10 14 1 0
BITMAP
0f00
1980
30c0
20c0
60c0
60c0
c0c0
c0c0
c180
c180
c100
c300
6600
3c00
ENDCHAR
STARTCHAR one
ENCODING 49
SWIDTH 556 0
DWIDTH 11 0
BBX 6 14 1 0
BITMAP
1c
7c
0c
08
08
08
18
18
18
10
10
10
30
fc
ENDCHAR
STARTCHAR two
ENCODING 50
SWIDTH 556 0
DWIDTH 11 0
BBX 10 14 0 0
BITMAP
0f80
11c0
30c0
30c0
00c0
0180
0180
0300
0600
0c00
1800
3080
4080
ff80
ENDCHAR
STARTCHAR three
ENCODING 51
SWIDTH 556 0
DWIDTH 11 0
BBX 10 14 0 0
BITMAP
0f80
11c0
30c0
30c0
0080
0300
0e00
0180
0180
0180
c180
c300
c600
7c00
ENDCHAR
STARTCHAR four
ENCODING 52
SWIDTH 556 0
DWIDTH 11 0
BBX 10 15 0 -1
BITMAP
00c0
0180
0380
0680
0d80
0980
1180
2100
4100
ffc0
0300
0300
0200
0200
0200
ENDCHAR
STARTCHAR five
ENCODING 53
SWIDTH 556 0
DWIDTH 11 0
BBX 10 14 0 0
BITMAP
1fc0
1000
1000
3000
2000
3e00
0300
0180
0180
0180
0100
c300
c600
7800
ENDCHAR
STARTCHAR six
ENCODING 54
SWIDTH 556 0
DWIDTH 11 0
BBX 9 13 1 0
BITMAP
0380
0c00
1800
3000
2000
7e00
6380
c180
c180
c180
c300
6200
3c00
ENDCHAR
STARTCHAR seven
ENCODING 55
SWIDTH 556 0
DWIDTH 11 0
BBX 11 15 1 -1
BITMAP
3fe0
40c0
40c0
0180
0100
0300
0600
0400
0c00
1800
1000
3000
6000
4000
c000
ENDCHAR
STARTCHAR eight
ENCODING 56
SWIDTH 556 0
DWIDTH 11 0
BBX 10 14 0 0
BITMAP
0f00
19c0
30c0
30c0
30c0
3980
1e00
3700
6180
c180
c180
c180
6300
3c00
ENDCHAR
STARTCHAR nine
ENCODING 57
SWIDTH 556 0
DWIDTH 11 0
BBX 10 16 1 -2
BITMAP
0f00
3180
60c0
60c0
c0c0
c0c0
c0c0
c0c0
6380
3d80
0300
0600
0c00
1800
6000
8000
ENDCHAR
STARTCHAR colon
ENCODING 58
SWIDTH 319 0
DWIDTH 6 0
BBX 4 9 1 0
BITMAP
70
30
00
00
00
00
00
e0
c0
ENDCHAR
STARTCHAR semicolon
ENCODING 59
SWIDTH 319 0
DWIDTH 6 0
BBX 5 13 -1 -4
BITMAP
18
18
00
00
00
00
00
30
70
10
20
20
c0
ENDCHAR
STARTCHAR less
ENCODING 60
SWIDTH 833 0
DWIDTH 16 0
BBX 11 10 2 0
BITMAP
0020
01c0
0700
3800
e000
e000
3800
0700
01c0
0020
ENDCHAR
STARTCHAR equal
ENCODING 61
SWIDTH 833 0
DWIDTH 16 0
BBX 11 5 3 3
BITMAP
ffe0
0000
0000
0000
ffe0
ENDCHAR
STARTCHAR greater
ENCODING 62
SWIDTH 833 0
DWIDTH 16 0
BBX 11 10 3 0
BITMAP
8000
7000
1c00
0380
00e0
00e0
0380
1c00
7000
8000
ENDCHAR
STARTCHAR question
ENCODING 63
SWIDTH 486 0
DWIDTH 9 0
BBX 7 14 1 0
BITMAP
78
ce
c6
06
06
0c
08
30
40
40
40
00
c0
c0
ENDCHAR
STARTCHAR at
ENCODING 64
SWIDTH 942 0
DWIDTH 18 0
BBX 15 16 2 -3
BITMAP
03e0
0c18
1004
6004
41d2
4332
8622
8c22
8c22
8c64
8ce8
c770
6000
3000
1c18
07e0
ENDCHAR
STARTCHAR A
ENCODING 65
SWIDTH 606 0
DWIDTH 11 0
BBX 13 14 -2 0
BITMAP
00c0
01c0
01c0
0340
0240
0460
0460
0860
0fe0
1060
3020
2030
6030
f078
ENDCHAR
STARTCHAR B
ENCODING 66
SWIDTH 588 0
DWIDTH 11 0
BBX 11 14 -1 0
BITMAP
3fc0
08e0
1860
1860
1840
1180
1f80
30c0
3060
3060
30c0
20c0
2180
ff00
ENDCHAR
STARTCHAR C
ENCODING 67
SWIDTH 604 0
DWIDTH 12 0
BBX 11 14 1 0
BITMAP
07c0
0c20
3020
2020
6000
6000
c000
c000
c000
c000
c080
6080
3080
1f00
ENDCHAR
STARTCHAR D
ENCODING 68
SWIDTH 671 0
DWIDTH 13 0
BBX 13 14 -1 0
BITMAP
3fc0
0860
0830
1818
1818
1818
1818
1018
3030
3030
3060
3060
2180
fe00
ENDCHAR
STARTCHAR E
ENCODING 69
SWIDTH 546 0
DWIDTH 10 0
BBX 11 14 0 0
BITMAP
3fe0
0820
1820
1800
1880
1080
1f00
3100
3100
3000
3040
2040
2080
ff80
ENDCHAR
STARTCHAR F
ENCODING 70
SWIDTH 509 0
DWIDTH 10 0
BBX 11 14 -1 0
BITMAP
3fe0
0860
1860
1800
1880
1080
1f00
1100
3100
3000
3000
2000
2000
f800
ENDCHAR
STARTCHAR G
ENCODING 71
SWIDTH 664 0
DWIDTH 13 0
BBX 12 14 1 0
BITMAP
03f0
0c30
1820
3020
6000
6000
c000
c1f0
c040
c0c0
c0c0
60c0
30c0
1f80
ENDCHAR
STARTCHAR H
ENCODING 72
SWIDTH 712 0
DWIDTH 14 0
BBX 15 14 -1 0
BITMAP
3e3e
0808
1808
1818
1818
1818
1ff0
1010
3030
3030
3030
2030
2020
f8f8
ENDCHAR
STARTCHAR I
ENCODING 73
SWIDTH 313 0
DWIDTH 6 0
BBX 7 14 0 0
BITMAP
3e
08
18
18
18
18
10
10
30
30
30
30
20
f8
ENDCHAR
STARTCHAR J
ENCODING 74
SWIDTH 447 0
DWIDTH 9 0
BBX 10 14 -1 0
BITMAP
07c0
0100
0100
0300
0300
0300
0300
0200
0200
0600
4600
c400
cc00
f800
ENDCHAR
STARTCHAR K
ENCODING 75
SWIDTH 625 0
DWIDTH 12 0
BBX 13 14 -1 0
BITMAP
3ef8
0820
1840
1880
1900
1200
1600
3e00
3300
3300
3100
2180
20c0
f8e0
ENDCHAR
STARTCHAR L
ENCODING 76
SWIDTH 498 0
DWIDTH 9 0
BBX 9 14 -1 0
BITMAP
3e00
1800
1800
1800
1800
1000
1000
3000
3000
3000
3080
2080
2180
ff00
ENDCHAR
STARTCHAR M
ENCODING 77
SWIDTH 839 0
DWIDTH 16 0
BBX 17 14 -1 0
BITMAP
3c0780
0c0600
140a00
140a00
161600
161600
162600
222400
224400
224400
238c00
238c00
230c00
f13e00
ENDCHAR
STARTCHAR N
ENCODING 78
SWIDTH 683 0
DWIDTH 14 0
BBX 15 14 -1 0
BITMAP
3c1e
0c08
0e08
1608
1208
1308
1310
1190
3190
20d0
20d0
2070
2060
f020
ENDCHAR
STARTCHAR O
ENCODING 79
SWIDTH 708 0
DWIDTH 14 0
BBX 12 14 1 0
BITMAP
0780
18c0
3060
2030
6030
6030
c030
c030
c060
c060
c060
60c0
3180
1e00
ENDCHAR
STARTCHAR P
ENCODING 80
SWIDTH 542 0
DWIDTH 10 0
BBX 11 14 -1 0
BITMAP
3f80
08c0
1860
1860
1860
1060
10c0
3180
3f00
3000
3000
2000
2000
f000
ENDCHAR
STARTCHAR Q
ENCODING 81
SWIDTH 708 0
DWIDTH 14 0
BBX 13 17 1 -3
BITMAP
0780
18c0
3060
2030
6030
6030
c030
c030
c060
c060
c060
60c0
3180
1f00
0300
0188
00f0
ENDCHAR
STARTCHAR R
ENCODING 82
SWIDTH 602 0
DWIDTH 11 0
BBX 12 14 -1 0
BITMAP
3f80
08c0
1860
1860
1860
18c0
1180
3e00
3100
3180
3080
20c0
20c0
f870
ENDCHAR
STARTCHAR S
ENCODING 83
SWIDTH 537 0
DWIDTH 10 0
BBX 10 14 0 0
BITMAP
0780
18c0
1080
3080
3000
3800
1c00
0700
0380
0180
4180
4100
c300
7c00
ENDCHAR
STARTCHAR T
ENCODING 84
SWIDTH 565 0
DWIDTH 11 0
BBX 11 14 1 0
BITMAP
7fe0
c460
8460
0c00
0c00
0c00
0800
0800
1800
1800
1800
1800
1000
7c00
ENDCHAR
STARTCHAR U
ENCODING 85
SWIDTH 664 0
DWIDTH 13 0
BBX 13 14 1 0
BITMAP
f878
3020
2020
6020
6020
6020
6040
4040
c040
c040
c040
c080
e180
3e00
ENDCHAR
STARTCHAR V
ENCODING 86
SWIDTH 590 0
DWIDTH 12 0
BBX 12 14 1 0
BITMAP
f0f0
6020
6040
2040
2080
2080
3100
3100
3200
3200
1400
1400
1800
1800
ENDCHAR
STARTCHAR W
ENCODING 87
SWIDTH 898 0
DWIDTH 17 0
BBX 17 14 1 0
BITMAP
f08780
60c100
61c200
61c200
62c400
22c400
264400
244800
244800
285000
285000
306000
306000
306000
ENDCHAR
STARTCHAR X
ENCODING 88
SWIDTH 569 0
DWIDTH 11 0
BBX 14 14 -2 0
BITMAP
1e3c
0c10
0420
0660
0640
0380
0300
0300
0780
0c80
18c0
10c0
2060
f1f0
ENDCHAR
STARTCHAR Y
ENCODING 89
SWIDTH 563 0
DWIDTH 11 0
BBX 11 14 1 0
BITMAP
f1e0
6080
2080
3100
3200
1200
1400
1800
1800
1800
1800
1000
1000
7c00
ENDCHAR
STARTCHAR Z
ENCODING 90
SWIDTH 556 0
DWIDTH 11 0
BBX 12 14 -1 0
BITMAP
1ff0
1060
10e0
20c0
0180
0300
0600
0600
0c00
1800
3040
7040
60c0
ffc0
ENDCHAR
STARTCHAR bracketleft
ENCODING 91
SWIDTH 421 0
DWIDTH 8 0
BBX 8 16 1 -3
BITMAP
1f00
1800
1000
1000
3000
3000
3000
2000
2000
6000
6000
4000
4000
4000
c000
f800
ENDCHAR
STARTCHAR backslash
ENCODING 92
SWIDTH 481 0
DWIDTH 9 0
BBX 8 16 1 -2
BITMAP
8000
4000
4000
2000
2000
2000
1000
1000
0800
0800
0400
0400
0400
0200
0200
0100
ENDCHAR
STARTCHAR bracketright
ENCODING 93
SWIDTH 421 0
DWIDTH 8 0
BBX 8 16 -1 -3
BITMAP
1f00
0300
0300
0200
0200
0600
0600
0400
0400
0400
0c00
0c00
0800
0800
1800
f800
ENDCHAR
STARTCHAR asciicircum
ENCODING 94
SWIDTH 1000 0
DWIDTH 19 0
BBX 11 5 4 8
BITMAP
0e00
1b00
3180
60c0
8020
ENDCHAR
STARTCHAR underscore
ENCODING 95
SWIDTH 500 0
DWIDTH 10 0
BBX 10 1 0 -5
BITMAP
ffc0
ENDCHAR
STARTCHAR quoteleft
ENCODING 96
SWIDTH 201 0
DWIDTH 4 0
BBX 4 5 1 8
BITMAP
30
40
c0
e0
e0
ENDCHAR
STARTCHAR a
ENCODING 97
SWIDTH 525 0
DWIDTH 10 0
BBX 9 9 0 0
BITMAP
0f80
3180
6100
6100
c100
c300
c300
e600
7b80
ENDCHAR
STARTCHAR b
ENCODING 98
SWIDTH 507 0
DWIDTH 10 0
BBX 9 14 0 0
BITMAP
7000
1000
3000
3000
3000
2f00
7380
6180
6180
6180
4100
c300
c600
7800
ENDCHAR
STARTCHAR c
ENCODING 99
SWIDTH 394 0
DWIDTH 8 0
BBX 7 9 0 0
BITMAP
0e
36
60
40
c0
c0
c2
66
38
ENDCHAR
STARTCHAR d
ENCODING 100
SWIDTH 523 0
DWIDTH 10 0
BBX 9 14 0 0
BITMAP
0380
0080
0080
0180
0100
0f00
1100
6100
4100
c100
c300
c200
e600
7b80
ENDCHAR
STARTCHAR e
ENCODING 101
SWIDTH 424 0
DWIDTH 8 0
BBX 7 9 0 0
BITMAP
1c
26
66
48
f0
c0
c0
c6
38
ENDCHAR
STARTCHAR f
ENCODING 102
SWIDTH 292 0
DWIDTH 6 0
BBX 11 19 -3 -5
BITMAP
00e0
0160
0200
0200
0600
0f80
0400
0400
0400
0c00
0c00
0c00
0800
0800
0800
1800
1000
e000
c000
ENDCHAR
STARTCHAR g
ENCODING 103
SWIDTH 481 0
DWIDTH 10 0
BBX 10 14 0 -5
BITMAP
0c00
33c0
6300
6300
2600
1800
1000
3800
4e00
8700
8300
8300
c600
7800
ENDCHAR
STARTCHAR h
ENCODING 104
SWIDTH 551 0
DWIDTH 11 0
BBX 10 14 0 0
BITMAP
7800
1800
1000
1000
3000
3780
3980
2180
2180
6100
6100
6300
4300
c3c0
ENDCHAR
STARTCHAR i
ENCODING 105
SWIDTH 287 0
DWIDTH 6 0
BBX 4 14 1 0
BITMAP
30
30
00
00
00
e0
60
60
40
40
c0
c0
c0
f0
ENDCHAR
STARTCHAR j
ENCODING 106
SWIDTH 269 0
DWIDTH 5 0
BBX 8 19 -3 -5
BITMAP
0300
0300
0000
0000
0000
1e00
0600
0600
0600
0600
0400
0400
0c00
0c00
0c00
0800
0800
9000
e000
ENDCHAR
STARTCHAR k
ENCODING 107
SWIDTH 514 0
DWIDTH 10 0
BBX 9 14 0 0
BITMAP
7800
1000
1000
1000
3000
3180
2680
2400
3800
6800
6c00
4400
4600
c380
ENDCHAR
STARTCHAR l
ENCODING 108
SWIDTH 275 0
DWIDTH 5 0
BBX 4 14 0 0
BITMAP
f0
30
30
20
20
60
60
40
40
40
c0
c0
c0
f0
ENDCHAR
STARTCHAR m
ENCODING 109
SWIDTH 815 0
DWIDTH 16 0
BBX 15 9 1 0
BITMAP
f73c
39cc
618c
610c
6108
4308
4318
c318
c21e
ENDCHAR
STARTCHAR n
ENCODING 110
SWIDTH 556 0
DWIDTH 11 0
BBX 10 9 1 0
BITMAP
f780
3980
6180
6180
6100
4100
4300
c300
c3c0
ENDCHAR
STARTCHAR o
ENCODING 111
SWIDTH 502 0
DWIDTH 10 0
BBX 9 9 0 0
BITMAP
0e00
3300
6180
4180
c180
c180
c300
6600
3800
ENDCHAR
STARTCHAR p
ENCODING 112
SWIDTH 516 0
DWIDTH 10 0
BBX 10 14 -1 -5
BITMAP
3780
19c0
10c0
30c0
30c0
2080
2180
2300
3c00
2000
6000
4000
4000
f000
ENDCHAR
STARTCHAR q
ENCODING 113
SWIDTH 512 0
DWIDTH 10 0
BBX 9 14 0 -5
BITMAP
0e80
1380
6180
6100
c100
c300
c300
e700
7a00
0200
0600
0600
0600
0f80
ENDCHAR
STARTCHAR r
ENCODING 114
SWIDTH 398 0
DWIDTH 8 0
BBX 7 9 1 0
BITMAP
ee
36
60
60
40
40
40
c0
c0
ENDCHAR
STARTCHAR s
ENCODING 115
SWIDTH 370 0
DWIDTH 7 0
BBX 6 9 0 0
BITMAP
1c
2c
60
20
38
0c
c8
88
70
ENDCHAR
STARTCHAR t
ENCODING 116
SWIDTH 333 0
DWIDTH 7 0
BBX 6 11 1 0
BITMAP
20
20
fc
60
60
40
40
c0
c0
c0
f8
ENDCHAR
STARTCHAR u
ENCODING 117
SWIDTH 553 0
DWIDTH 11 0
BBX 9 9 1 0
BITMAP
e180
6180
6100
4100
4300
c300
c200
ce00
7380
ENDCHAR
STARTCHAR v
ENCODING 118
SWIDTH 454 0
DWIDTH 9 0
BBX 9 9 0 0
BITMAP
e180
3180
3180
3100
3200
1200
1400
1800
3000
ENDCHAR
STARTCHAR w
ENCODING 119
SWIDTH 713 0
DWIDTH 14 0
BBX 14 9 0 0
BITMAP
e18c
218c
238c
2388
2590
2990
29a0
31c0
3080
ENDCHAR
STARTCHAR x
ENCODING 120
SWIDTH 477 0
DWIDTH 9 0
BBX 10 9 -1 0
BITMAP
78c0
1940
0a00
0c00
0c00
0c00
1400
a600
c380
ENDCHAR
STARTCHAR y
ENCODING 121
SWIDTH 475 0
DWIDTH 10 0
BBX 12 14 -2 -5
BITMAP
3830
0c60
0c40
0440
0480
0480
0700
0700
0200
0200
0400
0c00
d800
e000
ENDCHAR
STARTCHAR z
ENCODING 122
SWIDTH 440 0
DWIDTH 8 0
BBX 9 9 -1 0
BITMAP
3f80
4500
6200
2400
0800
1300
2100
7900
fe00
ENDCHAR
STARTCHAR braceleft
ENCODING 123
SWIDTH 486 0
DWIDTH 9 0
BBX 7 16 1 -3
BITMAP
0e
18
10
10
10
10
30
c0
30
10
10
10
10
10
18
0e
ENDCHAR
STARTCHAR bar
ENCODING 124
SWIDTH 500 0
DWIDTH 10 0
BBX 1 19 5 -5
BITMAP
80
80
80
80
80
80
80
80
80
80
80
80
80
80
80
80
80
80
80
ENDCHAR
STARTCHAR braceright
ENCODING 125
SWIDTH 486 0
DWIDTH 9 0
BBX 7 16 1 -3
BITMAP
e0
30
10
10
10
10
18
06
18
10
10
10
10
10
30
e0
ENDCHAR
STARTCHAR c0126
ENCODING 126
SWIDTH 1000 0
DWIDTH 19 0
BBX 11 2 4 10
BITMAP
3c60
c780
ENDCHAR
STARTCHAR space
ENCODING 160
SWIDTH 278 0
DWIDTH 5 0
BBX 1 1 0 0
BITMAP
00
ENDCHAR
STARTCHAR exclamdown
ENCODING 161
SWIDTH 338 0
DWIDTH 7 0
BBX 4 14 2 0
BITMAP
30
30
00
20
20
20
60
60
60
40
c0
c0
c0
c0
ENDCHAR
STARTCHAR cent
ENCODING 162
SWIDTH 556 0
DWIDTH 11 0
BBX 9 13 1 -2
BITMAP
0200
0400
0f80
3480
6480
6400
c800
c800
c900
6b00
3e00
1000
1000
ENDCHAR
STARTCHAR sterling
ENCODING 163
SWIDTH 556 0
DWIDTH 11 0
BBX 11 14 0 0
BITMAP
03c0
0660
0c40
0c00
1800
1800
1800
7f00
1000
3000
2000
6000
ff80
ff80
ENDCHAR
STARTCHAR currency
ENCODING 164
SWIDTH 606 0
DWIDTH 12 0
BBX 10 10 1 3
BITMAP
8040
5e80
2100
4080
4080
4080
4080
2100
5e80
8040
ENDCHAR
STARTCHAR yen
ENCODING 165
SWIDTH 556 0
DWIDTH 11 0
BBX 12 14 0 0
BITMAP
78f0
3020
1040
1880
1900
79e0
0a00
0c00
ffc0
0c00
0800
0800
0800
3e00
ENDCHAR
STARTCHAR brokenbar
ENCODING 166
SWIDTH 500 0
DWIDTH 10 0
BBX 1 17 5 -4
BITMAP
80
80
80
80
80
80
80
00
00
00
80
80
80
80
80
80
80
ENDCHAR
STARTCHAR section
ENCODING 167
SWIDTH 500 0
DWIDTH 10 0
BBX 10 16 0 -3
BITMAP
07c0
0880
1080
1800
1c00
0f00
3380
6180
6180
7300
3c00
0e00
0600
c200
c400
7800
ENDCHAR
STARTCHAR dieresis
ENCODING 168
SWIDTH 500 0
DWIDTH 10 0
BBX 6 2 3 11
BITMAP
cc
cc
ENDCHAR
STARTCHAR copyright
ENCODING 169
SWIDTH 900 0
DWIDTH 17 0
BBX 15 15 1 -2
BITMAP
07c0
1830
2008
43e4
4e24
8c22
9802
9802
9802
8c22
4e24
43e4
2008
1830
07c0
ENDCHAR
STARTCHAR ordfeminine
ENCODING 170
SWIDTH 394 0
DWIDTH 8 0
BBX 7 6 0 6
BITMAP
3e
46
84
8c
98
6e
ENDCHAR
STARTCHAR guillemotleft
ENCODING 171
SWIDTH 442 0
DWIDTH 9 0
BBX 8 7 0 1
BITMAP
1100
3300
4400
8800
cc00
6600
2200
ENDCHAR
STARTCHAR logicalnot
ENCODING 172
SWIDTH 833 0
DWIDTH 16 0
BBX 11 5 3 3
BITMAP
ffe0
0020
0020
0020
0020
ENDCHAR
STARTCHAR hyphen
ENCODING 173
SWIDTH 319 0
DWIDTH 6 0
BBX 4 1 1 4
BITMAP
f0
ENDCHAR
STARTCHAR registered
ENCODING 174
SWIDTH 900 0
DWIDTH 17 0
BBX 15 15 1 -2
BITMAP
07c0
1830
2008
4fc4
44e4
8462
84c2
8782
84c2
8462
4464
4e3c
2008
1830
07c0
ENDCHAR
STARTCHAR macron
ENCODING 175
SWIDTH 500 0
DWIDTH 10 0
BBX 6 1 3 11
BITMAP
fc
ENDCHAR
STARTCHAR degree
ENCODING 176
SWIDTH 329 0
DWIDTH 6 0
BBX 5 5 1 8
BITMAP
70
88
88
88
70
ENDCHAR
STARTCHAR plusminus
ENCODING 177
SWIDTH 833 0
DWIDTH 16 0
BBX 11 10 3 0
BITMAP
0400
0400
0400
ffe0
0400
0400
0400
0000
0000
ffe0
ENDCHAR
STARTCHAR twosuperior
ENCODING 178
SWIDTH 367 0
DWIDTH 7 0
BBX 6 8 0 5
BITMAP
38
44
44
04
18
20
44
f8
ENDCHAR
STARTCHAR threesuperior
ENCODING 179
SWIDTH 367 0
DWIDTH 7 0
BBX 6 8 0 5
BITMAP
38
44
0c
30
08
0c
88
70
ENDCHAR
STARTCHAR acute
ENCODING 180
SWIDTH 500 0
DWIDTH 10 0
BBX 5 4 5 9
BITMAP
18
30
60
c0
ENDCHAR
STARTCHAR mu
ENCODING 181
SWIDTH 548 0
DWIDTH 10 0
BBX 11 12 -1 -4
BITMAP
3080
3180
2180
2100
2100
6320
6340
5dc0
4000
c000
c000
8000
ENDCHAR
STARTCHAR paragraph
ENCODING 182
SWIDTH 484 0
DWIDTH 9 0
BBX 9 16 0 -2
BITMAP
1f80
7d00
fd00
fd00
fd00
fd00
7d00
3d00
0100
0100
0100
0100
0100
0100
0100
0100
ENDCHAR
STARTCHAR periodcentered
ENCODING 183
SWIDTH 278 0
DWIDTH 5 0
BBX 2 2 2 5
BITMAP
c0
c0
ENDCHAR
STARTCHAR cedilla
ENCODING 184
SWIDTH 500 0
DWIDTH 10 0
BBX 4 5 1 -5
BITMAP
20
30
10
10
e0
ENDCHAR
STARTCHAR onesuperior
ENCODING 185
SWIDTH 367 0
DWIDTH 7 0
BBX 4 8 1 5
BITMAP
30
70
10
20
20
20
20
f0
ENDCHAR
STARTCHAR ordmasculine
ENCODING 186
SWIDTH 377 0
DWIDTH 7 0
BBX 6 6 0 6
BITMAP
38
44
84
84
88
70
ENDCHAR
STARTCHAR guillemotright
ENCODING 187
SWIDTH 442 0
DWIDTH 9 0
BBX 8 7 0 1
BITMAP
4400
6600
3300
1100
3200
4c00
8800
ENDCHAR
STARTCHAR onequarter
ENCODING 188
SWIDTH 867 0
DWIDTH 17 0
BBX 16 14 1 0
BITMAP
301800
701000
102000
204000
20c000
208000
210200
f20600
040a00
0c1200
082400
107f00
200400
600400
ENDCHAR
STARTCHAR onehalf
ENCODING 189
SWIDTH 867 0
DWIDTH 17 0
BBX 15 14 1 0
BITMAP
3018
7010
1020
2040
20c0
2080
211c
f222
0422
0c02
080c
1010
2022
607c
ENDCHAR
STARTCHAR threequarters
ENCODING 190
SWIDTH 867 0
DWIDTH 17 0
BBX 17 14 0 0
BITMAP
380600
440400
0c0800
301000
083000
0c2000
884100
708300
010500
030900
021200
043f80
080200
180200
ENDCHAR
STARTCHAR questiondown
ENCODING 191
SWIDTH 486 0
DWIDTH 9 0
BBX 6 14 1 0
BITMAP
0c
0c
00
08
08
08
30
60
40
c0
c0
cc
cc
78
ENDCHAR
STARTCHAR Agrave
ENCODING 192
SWIDTH 606 0
DWIDTH 11 0
BBX 13 17 -2 0
BITMAP
00c0
0040
0060
00e0
01c0
01c0
0340
0240
0460
0460
0860
0fe0
1060
3020
2030
6030
f078
ENDCHAR
STARTCHAR Aacute
ENCODING 193
SWIDTH 606 0
DWIDTH 11 0
BBX 14 17 -2 0
BITMAP
000c
0018
0030
00e0
01c0
01c0
0340
0240
0460
0460
0860
0fe0
1060
3020
2030
6030
f078
ENDCHAR
STARTCHAR Acircumflex
ENCODING 194
SWIDTH 606 0
DWIDTH 11 0
BBX 13 17 -2 0
BITMAP
0030
0050
0090
01c8
01c0
01c0
0340
0240
0460
0460
0860
0fe0
1060
3020
2030
6030
f078
ENDCHAR
STARTCHAR Atilde
ENCODING 195
SWIDTH 606 0
DWIDTH 11 0
BBX 14 17 -2 0
BITMAP
0044
01f8
0110
00c0
01c0
01c0
0340
0240
0460
0460
0860
0fe0
1060
3020
2030
6030
f078
ENDCHAR
STARTCHAR Adieresis
ENCODING 196
SWIDTH 606 0
DWIDTH 11 0
BBX 13 17 -2 0
BITMAP
0198
0198
0000
00c0
01c0
01c0
0340
0240
0460
0460
0860
0fe0
1060
3020
2030
6030
f078
ENDCHAR
STARTCHAR Aring
ENCODING 197
SWIDTH 606 0
DWIDTH 11 0
BBX 13 19 -2 0
BITMAP
00e0
0130
0120
00e0
0000
00c0
01c0
01c0
0340
0240
0460
0460
0860
0fe0
1060
3020
2030
6030
f078
ENDCHAR
STARTCHAR AE
ENCODING 198
SWIDTH 873 0
DWIDTH 17 0
BBX 19 14 -2 0
BITMAP
007fe0
002820
005820
009800
011880
011080
021f00
07f100
083000
083000
103040
202040
602080
f0ff80
ENDCHAR
STARTCHAR Ccedilla
ENCODING 199
SWIDTH 604 0
DWIDTH 12 0
BBX 11 19 1 -5
BITMAP
07c0
0c20
3020
2020
6000
6000
c000
c000
c000
c000
c080
6080
3080
1f00
0400
0600
0200
0200
1c00
ENDCHAR
STARTCHAR Egrave
ENCODING 200
SWIDTH 546 0
DWIDTH 10 0
BBX 11 17 0 0
BITMAP
0600
0200
0300
3fe0
0820
1820
1800
1880
1080
1f00
3100
3100
3000
3040
2040
2080
ff80
ENDCHAR
STARTCHAR Eacute
ENCODING 201
SWIDTH 546 0
DWIDTH 10 0
BBX 11 17 0 0
BITMAP
0060
00c0
0180
3fe0
0820
1820
1800
1880
1080
1f00
3100
3100
3000
3040
2040
2080
ff80
ENDCHAR
STARTCHAR Ecircumflex
ENCODING 202
SWIDTH 546 0
DWIDTH 10 0
BBX 11 17 0 0
BITMAP
0180
0280
0480
3fe0
0820
1820
1800
1880
1080
1f00
3100
3100
3000
3040
2040
2080
ff80
ENDCHAR
STARTCHAR Edieresis
ENCODING 203
SWIDTH 546 0
DWIDTH 10 0
BBX 11 17 0 0
BITMAP
0cc0
0cc0
0000
3fe0
0820
1820
1800
1880
1080
1f00
3100
3100
3000
3040
2040
2080
ff80
ENDCHAR
STARTCHAR Igrave
ENCODING 204
SWIDTH 313 0
DWIDTH 6 0
BBX 7 17 0 0
BITMAP
18
08
0c
3e
08
18
18
18
18
10
10
30
30
30
30
20
f8
ENDCHAR
STARTCHAR Iacute
ENCODING 205
SWIDTH 313 0
DWIDTH 6 0
BBX 9 17 0 0
BITMAP
0180
0300
0600
3e00
0800
1800
1800
1800
1800
1000
1000
3000
3000
3000
3000
2000
f800
ENDCHAR
STARTCHAR Icircumflex
ENCODING 206
SWIDTH 313 0
DWIDTH 6 0
BBX 8 17 0 0
BITMAP
0600
0a00
1200
3f00
0800
1800
1800
1800
1800
1000
1000
3000
3000
3000
3000
2000
f800
ENDCHAR
STARTCHAR Idieresis
ENCODING 207
SWIDTH 313 0
DWIDTH 6 0
BBX 8 17 0 0
BITMAP
3300
3300
0000
3e00
0800
1800
1800
1800
1800
1000
1000
3000
3000
3000
3000
2000
f800
ENDCHAR
STARTCHAR Eth
ENCODING 208
SWIDTH 671 0
DWIDTH 13 0
BBX 13 14 -1 0
BITMAP
3fc0
0860
0830
1818
1818
1818
7f18
1018
3030
3030
3060
3040
2180
fe00
ENDCHAR
STARTCHAR Ntilde
ENCODING 209
SWIDTH 683 0
DWIDTH 14 0
BBX 15 17 -1 0
BITMAP
0088
03f0
0220
3c1e
0c08
0e08
1608
1208
1308
1310
1190
3190
20d0
20d0
2070
2060
f020
ENDCHAR
STARTCHAR Ograve
ENCODING 210
SWIDTH 708 0
DWIDTH 14 0
BBX 12 17 1 0
BITMAP
0300
0100
0180
0780
18c0
3060
2030
6030
6030
c030
c030
c060
c060
c060
60c0
3180
1e00
ENDCHAR
STARTCHAR Oacute
ENCODING 211
SWIDTH 708 0
DWIDTH 14 0
BBX 12 17 1 0
BITMAP
0030
0060
00c0
0780
18c0
3060
2030
6030
6030
c030
c030
c060
c060
c060
60c0
3180
1e00
ENDCHAR
STARTCHAR Ocircumflex
ENCODING 212
SWIDTH 708 0
DWIDTH 14 0
BBX 12 17 1 0
BITMAP
00c0
0140
0240
07a0
18c0
3060
2030
6030
6030
c030
c030
c060
c060
c060
60c0
3180
1e00
ENDCHAR
STARTCHAR Otilde
ENCODING 213
SWIDTH 708 0
DWIDTH 14 0
BBX 12 17 1 0
BITMAP
0110
07e0
0440
0780
18c0
3060
2030
6030
6030
c030
c030
c060
c060
c060
60c0
3180
1e00
ENDCHAR
STARTCHAR Odieresis
ENCODING 214
SWIDTH 708 0
DWIDTH 14 0
BBX 12 17 1 0
BITMAP
0660
0660
0000
0780
18c0
3060
2030
6030
6030
c030
c030
c060
c060
c060
60c0
3180
1e00
ENDCHAR
STARTCHAR multiply
ENCODING 215
SWIDTH 833 0
DWIDTH 16 0
BBX 10 10 3 0
BITMAP
8040
4080
2100
1200
0c00
0c00
1200
2100
4080
8040
ENDCHAR
STARTCHAR Oslash
ENCODING 216
SWIDTH 708 0
DWIDTH 14 0
BBX 12 15 1 -1
BITMAP
07e0
1840
30e0
2130
6130
6230
c230
c430
c820
c860
d040
70c0
3180
5e00
4000
ENDCHAR
STARTCHAR Ugrave
ENCODING 217
SWIDTH 664 0
DWIDTH 13 0
BBX 13 17 1 0
BITMAP
0600
0200
0300
f978
3020
2020
6020
6020
6020
6040
4040
c040
c040
c040
c080
e180
3e00
ENDCHAR
STARTCHAR Uacute
ENCODING 218
SWIDTH 664 0
DWIDTH 13 0
BBX 13 17 1 0
BITMAP
0060
00c0
0180
fb78
3020
2020
6020
6020
6020
6040
4040
c040
c040
c040
c080
e180
3e00
ENDCHAR
STARTCHAR Ucircumflex
ENCODING 219
SWIDTH 664 0
DWIDTH 13 0
BBX 13 17 1 0
BITMAP
0180
0280
0480
fc78
3020
2020
6020
6020
6020
6040
4040
c040
c040
c040
c080
e180
3e00
ENDCHAR
STARTCHAR Udieresis
ENCODING 220
SWIDTH 664 0
DWIDTH 13 0
BBX 13 17 1 0
BITMAP
0cc0
0cc0
0000
f878
3020
2020
6020
6020
6020
6040
4040
c040
c040
c040
c080
e180
3e00
ENDCHAR
STARTCHAR Yacute
ENCODING 221
SWIDTH 563 0
DWIDTH 11 0
BBX 11 17 1 0
BITMAP
00c0
0180
0300
f7e0
6080
2080
3100
3200
1200
1400
1800
1800
1800
1800
1000
1000
7c00
ENDCHAR
STARTCHAR Thorn
ENCODING 222
SWIDTH 532 0
DWIDTH 10 0
BBX 11 14 -1 0
BITMAP
3e00
0800
1f80
18c0
1860
1860
1060
1060
30c0
3180
3f00
2000
2000
f800
ENDCHAR
STARTCHAR germandbls
ENCODING 223
SWIDTH 574 0
DWIDTH 11 0
BBX 13 19 -3 -5
BITMAP
00e0
0318
0218
0618
0410
0470
0480
0c80
0cc0
0870
0838
0b10
0b30
19c0
1000
1000
1000
e000
c000
ENDCHAR
STARTCHAR agrave
ENCODING 224
SWIDTH 525 0
DWIDTH 10 0
BBX 9 13 0 0
BITMAP
0c00
0400
0600
0200
0f80
3180
6100
6100
c100
c300
c300
e600
7b80
ENDCHAR
STARTCHAR aacute
ENCODING 225
SWIDTH 525 0
DWIDTH 10 0
BBX 10 13 0 0
BITMAP
00c0
0180
0300
0600
0f80
3180
6100
6100
c100
c300
c300
e600
7b80
ENDCHAR
STARTCHAR acircumflex
ENCODING 226
SWIDTH 525 0
DWIDTH 10 0
BBX 9 13 0 0
BITMAP
0300
0500
0900
1880
0f80
3180
6100
6100
c100
c300
c300
e600
7b80
ENDCHAR
STARTCHAR atilde
ENCODING 227
SWIDTH 525 0
DWIDTH 10 0
BBX 10 13 0 0
BITMAP
0440
1f80
1100
0000
0f80
3180
6100
6100
c100
c300
c300
e600
7b80
ENDCHAR
STARTCHAR adieresis
ENCODING 228
SWIDTH 525 0
DWIDTH 10 0
BBX 9 13 0 0
BITMAP
1980
1980
0000
0000
0f80
3180
6100
6100
c100
c300
c300
e600
7b80
ENDCHAR
STARTCHAR aring
ENCODING 229
SWIDTH 525 0
DWIDTH 10 0
BBX 9 14 0 0
BITMAP
0600
0900
0900
0600
0000
0f80
3180
6100
6100
c100
c300
c300
e600
7b80
ENDCHAR
STARTCHAR ae
ENCODING 230
SWIDTH 671 0
DWIDTH 13 0
BBX 12 9 0 0
BITMAP
1ce0
2330
6230
0660
1f80
6600
c600
ce30
73c0
ENDCHAR
STARTCHAR ccedilla
ENCODING 231
SWIDTH 394 0
DWIDTH 8 0
BBX 7 14 0 -5
BITMAP
0e
36
60
40
c0
c0
c2
66
38
20
30
10
10
e0
ENDCHAR
STARTCHAR egrave
ENCODING 232
SWIDTH 424 0
DWIDTH 8 0
BBX 7 13 0 0
BITMAP
0c
04
06
02
1c
26
66
48
f0
c0
c0
c6
38
ENDCHAR
STARTCHAR eacute
ENCODING 233
SWIDTH 424 0
DWIDTH 8 0
BBX 10 13 0 0
BITMAP
00c0
0180
0300
0600
1c00
2600
6600
4800
f000
c000
c000
c600
3800
ENDCHAR
STARTCHAR ecircumflex
ENCODING 234
SWIDTH 424 0
DWIDTH 8 0
BBX 9 13 0 0
BITMAP
0300
0500
0900
1880
1c00
2600
6600
4800
f000
c000
c000
c600
3800
ENDCHAR
STARTCHAR edieresis
ENCODING 235
SWIDTH 424 0
DWIDTH 8 0
BBX 9 13 0 0
BITMAP
1980
1980
0000
0000
1c00
2600
6600
4800
f000
c000
c000
c600
3800
ENDCHAR
STARTCHAR igrave
ENCODING 236
SWIDTH 287 0
DWIDTH 6 0
BBX 4 13 1 0
BITMAP
60
20
30
10
e0
60
60
40
40
c0
c0
c0
f0
ENDCHAR
STARTCHAR iacute
ENCODING 237
SWIDTH 287 0
DWIDTH 6 0
BBX 7 13 1 0
BITMAP
06
0c
18
30
e0
60
60
40
40
c0
c0
c0
f0
ENDCHAR
STARTCHAR icircumflex
ENCODING 238
SWIDTH 287 0
DWIDTH 6 0
BBX 6 13 1 0
BITMAP
18
28
48
c4
e0
60
60
40
40
c0
c0
c0
f0
ENDCHAR
STARTCHAR idieresis
ENCODING 239
SWIDTH 287 0
DWIDTH 6 0
BBX 6 13 1 0
BITMAP
cc
cc
00
00
e0
60
60
40
40
c0
c0
c0
f0
ENDCHAR
STARTCHAR eth
ENCODING 240
SWIDTH 500 0
DWIDTH 10 0
BBX 9 14 0 0
BITMAP
1c00
0580
0600
3a00
0300
0f00
3180
6180
4180
c180
c180
c300
6600
3800
ENDCHAR
STARTCHAR ntilde
ENCODING 241
SWIDTH 556 0
DWIDTH 11 0
BBX 10 13 1 0
BITMAP
0880
3f00
2200
0000
f780
3980
6180
6180
6100
4100
4300
c300
c3c0
ENDCHAR
STARTCHAR ograve
ENCODING 242
SWIDTH 502 0
DWIDTH 10 0
BBX 9 13 0 0
BITMAP
0c00
0400
0600
0200
0e00
3300
6180
4180
c180
c180
c300
6600
3800
ENDCHAR
STARTCHAR oacute
ENCODING 243
SWIDTH 502 0
DWIDTH 10 0
BBX 10 13 0 0
BITMAP
00c0
0180
0300
0600
0e00
3300
6180
4180
c180
c180
c300
6600
3800
ENDCHAR
STARTCHAR ocircumflex
ENCODING 244
SWIDTH 502 0
DWIDTH 10 0
BBX 9 13 0 0
BITMAP
0300
0500
0900
1880
0e00
3300
6180
4180
c180
c180
c300
6600
3800
ENDCHAR
STARTCHAR otilde
ENCODING 245
SWIDTH 502 0
DWIDTH 10 0
BBX 10 13 0 0
BITMAP
0440
1f80
1100
0000
0e00
3300
6180
4180
c180
c180
c300
6600
3800
ENDCHAR
STARTCHAR odieresis
ENCODING 246
SWIDTH 502 0
DWIDTH 10 0
BBX 9 13 0 0
BITMAP
1980
1980
0000
0000
0e00
3300
6180
4180
c180
c180
c300
6600
3800
ENDCHAR
STARTCHAR divide
ENCODING 247
SWIDTH 833 0
DWIDTH 16 0
BBX 12 9 2 1
BITMAP
0600
0600
0000
0000
fff0
0000
0000
0600
0600
ENDCHAR
STARTCHAR oslash
ENCODING 248
SWIDTH 502 0
DWIDTH 10 0
BBX 9 12 0 -2
BITMAP
0080
0f00
3300
6580
4580
c980
d180
d300
6600
7800
4000
8000
ENDCHAR
STARTCHAR ugrave
ENCODING 249
SWIDTH 553 0
DWIDTH 11 0
BBX 9 13 1 0
BITMAP
1800
0800
0c00
0400
e180
6180
6100
4100
4300
c300
c200
ce00
7380
ENDCHAR
STARTCHAR uacute
ENCODING 250
SWIDTH 553 0
DWIDTH 11 0
BBX 9 13 1 0
BITMAP
0180
0300
0600
0c00
e180
6180
6100
4100
4300
c300
c200
ce00
7380
ENDCHAR
STARTCHAR ucircumflex
ENCODING 251
SWIDTH 553 0
DWIDTH 11 0
BBX 9 13 1 0
BITMAP
0600
0a00
1200
3100
e180
6180
6100
4100
4300
c300
c200
ce00
7380
ENDCHAR
STARTCHAR udieresis
ENCODING 252
SWIDTH 553 0
DWIDTH 11 0
BBX 9 13 1 0
BITMAP
3300
3300
0000
0000
e180
6180
6100
4100
4300
c300
c200
ce00
7380
ENDCHAR
STARTCHAR yacute
ENCODING 253
SWIDTH 475 0
DWIDTH 10 0
BBX 12 18 -2 -5
BITMAP
0030
0060
00c0
0180
3830
0c60
0c40
0440
0480
0480
0700
0700
0200
0200
0400
0c00
d800
e000
ENDCHAR
STARTCHAR thorn
ENCODING 254
SWIDTH 516 0
DWIDTH 10 0
BBX 10 19 -1 -5
BITMAP
3800
0800
1800
1800
1800
1780
19c0
10c0
30c0
30c0
2080
2180
2300
3c00
2000
6000
4000
4000
f000
ENDCHAR
STARTCHAR ydieresis
ENCODING 255
SWIDTH 475 0
DWIDTH 10 0
BBX 12 18 -2 -5
BITMAP
0660
0660
0000
0000
3830
0c60
0c40
0440
0480
0480
0700
0700
0200
0200
0400
0c00
d800
e000
ENDCHAR
ENDFONT
