STARTFONT 2.1
FONT -Bitstream-Terminal-Bold-R-Normal--18-140-100-100-C-110-DEC-DECtech
SIZE 14 100 100
FONTBOUNDINGBOX 11 20 0 -5
COMMENT $Xorg: techB14.bdf,v 1.3 2000/08/17 19:43:30 cpqbld Exp $
COMMENT 
COMMENT +
COMMENT  Copyright (c) 1987, 1994 Digital Equipment Corporation
COMMENT 
COMMENT  The name "Bitstream" is a registered trademark of Bitstream, Inc.
COMMENT  Permission to use this trademark is hereby granted only in association
COMMENT  with the images described in this file.
COMMENT 
COMMENT  The X Consortium, and any party obtaining a copy of these files from
COMMENT  the X Consortium, directly or indirectly, is granted, free of charge, a
COMMENT  full and unrestricted irrevocable, world-wide, paid up, royalty-free,
COMMENT  nonexclusive right and license to deal in this software and
COMMENT  documentation files (the "Software"), including without limitation the
COMMENT  rights to use, copy, modify, merge, publish, distribute, sublicense,
COMMENT  and/or sell copies of the Software, and to permit persons who receive
COMMENT  copies from any such party to do so.  This license includes without
COMMENT  limitation a license to do the foregoing actions under any patents of
COMMENT  the party supplying this software to the X Consortium.
COMMENT 
COMMENT  Digital Equipment Corporation make no representations about the
COMMENT  suitability of this software for any purpose.  It is provided "as
COMMENT  is" without express or implied warranty.
COMMENT -
STARTPROPERTIES 21
FOUNDRY "Bitstream"
FAMILY_NAME "Terminal"
WEIGHT_NAME "Bold"
SLANT "R"
SETWIDTH_NAME "Normal"
ADD_STYLE_NAME ""
PIXEL_SIZE 18
POINT_SIZE 140
RESOLUTION_X 100
RESOLUTION_Y 100
SPACING "C"
AVERAGE_WIDTH 110
CHARSET_REGISTRY "DEC"
CHARSET_ENCODING "DECtech"
CAP_HEIGHT 11
FONT_ASCENT 15
FONT_DESCENT 5
DEFAULT_CHAR 159
COPYRIGHT "Copyright (c) 1991 Digital Equipment Corporation. All Rights Reserved."
_DEC_PRODUCTINFO "DECterm Fonts V2.2, 11-Nov-1991"
FULL_NAME "Terminal Bold"
ENDPROPERTIES
CHARS 182
STARTCHAR space
ENCODING 32
SWIDTH 565 0
DWIDTH 11 0
BBX 1 1 0 0
BITMAP
00
ENDCHAR
STARTCHAR exclam
ENCODING 33
SWIDTH 565 0
DWIDTH 11 0
BBX 5 11 3 0
BITMAP
70
70
70
70
70
70
70
00
70
F8
70
ENDCHAR
STARTCHAR quotedbl
ENCODING 34
SWIDTH 565 0
DWIDTH 11 0
BBX 6 5 3 8
BITMAP
CC
CC
CC
CC
CC
ENDCHAR
STARTCHAR numbersign
ENCODING 35
SWIDTH 565 0
DWIDTH 11 0
BBX 11 14 0 -3
BITMAP
39C0
39C0
39C0
39C0
FFE0
FFE0
39C0
39C0
FFE0
FFE0
39C0
39C0
39C0
39C0
ENDCHAR
STARTCHAR dollar
ENCODING 36
SWIDTH 565 0
DWIDTH 11 0
BBX 9 16 1 -3
BITMAP
0C00
0C00
3D80
7F80
E380
E180
F800
7E00
0F80
C380
E380
FF80
DF00
1800
1800
1800
ENDCHAR
STARTCHAR percent
ENCODING 37
SWIDTH 565 0
DWIDTH 11 0
BBX 10 11 1 0
BITMAP
7800
FC00
CC00
FCC0
7B80
0C00
7780
CFC0
0CC0
0FC0
0780
ENDCHAR
STARTCHAR ampersand
ENCODING 38
SWIDTH 565 0
DWIDTH 11 0
BBX 9 11 1 0
BITMAP
3D00
7F00
7300
7000
3980
7D80
EF00
EF00
E700
FF80
7D80
ENDCHAR
STARTCHAR quoteright
ENCODING 39
SWIDTH 565 0
DWIDTH 11 0
BBX 5 5 3 8
BITMAP
78
70
60
E0
C0
ENDCHAR
STARTCHAR parenleft
ENCODING 40
SWIDTH 565 0
DWIDTH 11 0
BBX 6 16 3 -4
BITMAP
0C
18
38
70
70
E0
E0
E0
E0
E0
E0
70
70
38
18
0C
ENDCHAR
STARTCHAR parenright
ENCODING 41
SWIDTH 565 0
DWIDTH 11 0
BBX 6 16 3 -4
BITMAP
C0
60
70
38
38
1C
1C
1C
1C
1C
1C
38
38
70
60
C0
ENDCHAR
STARTCHAR asterisk
ENCODING 42
SWIDTH 565 0
DWIDTH 11 0
BBX 9 7 1 2
BITMAP
1C00
1C00
DD80
FF80
3E00
7700
6300
ENDCHAR
STARTCHAR plus
ENCODING 43
SWIDTH 565 0
DWIDTH 11 0
BBX 9 10 1 0
BITMAP
1C00
1C00
1C00
1C00
FF80
FF80
1C00
1C00
1C00
1C00
ENDCHAR
STARTCHAR comma
ENCODING 44
SWIDTH 565 0
DWIDTH 11 0
BBX 5 6 3 -3
BITMAP
78
70
70
E0
E0
C0
ENDCHAR
STARTCHAR minus
ENCODING 45
SWIDTH 565 0
DWIDTH 11 0
BBX 9 2 1 4
BITMAP
FF80
FF80
ENDCHAR
STARTCHAR period
ENCODING 46
SWIDTH 565 0
DWIDTH 11 0
BBX 4 4 4 0
BITMAP
60
F0
F0
60
ENDCHAR
STARTCHAR slash
ENCODING 47
SWIDTH 565 0
DWIDTH 11 0
BBX 8 14 2 -2
BITMAP
03
07
06
0E
0C
1C
18
18
38
30
70
60
E0
C0
ENDCHAR
STARTCHAR zero
ENCODING 48
SWIDTH 565 0
DWIDTH 11 0
BBX 9 11 1 0
BITMAP
1C00
3E00
7700
E380
E380
E380
E380
E380
7700
3E00
1C00
ENDCHAR
STARTCHAR one
ENCODING 49
SWIDTH 565 0
DWIDTH 11 0
BBX 7 11 2 0
BITMAP
38
78
F8
B8
38
38
38
38
38
FE
FE
ENDCHAR
STARTCHAR two
ENCODING 50
SWIDTH 565 0
DWIDTH 11 0
BBX 8 11 2 0
BITMAP
3C
FF
E7
C7
07
0E
1C
38
73
FF
FF
ENDCHAR
STARTCHAR three
ENCODING 51
SWIDTH 565 0
DWIDTH 11 0
BBX 8 11 1 0
BITMAP
3C
FF
C7
07
1E
1E
07
07
C7
FF
7C
ENDCHAR
STARTCHAR four
ENCODING 52
SWIDTH 565 0
DWIDTH 11 0
BBX 9 11 1 0
BITMAP
0F00
1F00
3F00
3700
6700
E700
FF80
FF80
0700
0700
0700
ENDCHAR
STARTCHAR five
ENCODING 53
SWIDTH 565 0
DWIDTH 11 0
BBX 8 11 2 0
BITMAP
FF
FF
E0
E0
FE
FF
C7
07
C7
FF
7E
ENDCHAR
STARTCHAR six
ENCODING 54
SWIDTH 565 0
DWIDTH 11 0
BBX 9 11 1 0
BITMAP
1F00
7F00
7000
E000
EE00
FF00
E380
E380
E380
7F00
3E00
ENDCHAR
STARTCHAR seven
ENCODING 55
SWIDTH 565 0
DWIDTH 11 0
BBX 9 11 1 0
BITMAP
FF80
FF80
C380
0700
0700
0E00
0E00
1C00
1C00
3800
3800
ENDCHAR
STARTCHAR eight
ENCODING 56
SWIDTH 565 0
DWIDTH 11 0
BBX 9 11 1 0
BITMAP
3E00
7F00
E380
E380
7F00
7F00
E380
E380
E380
7F00
3E00
ENDCHAR
STARTCHAR nine
ENCODING 57
SWIDTH 565 0
DWIDTH 11 0
BBX 9 11 1 0
BITMAP
3E00
7F00
E380
E380
E380
7F80
3B80
0380
0700
7F00
7C00
ENDCHAR
STARTCHAR colon
ENCODING 58
SWIDTH 565 0
DWIDTH 11 0
BBX 4 9 4 0
BITMAP
60
F0
F0
60
00
60
F0
F0
60
ENDCHAR
STARTCHAR semicolon
ENCODING 59
SWIDTH 565 0
DWIDTH 11 0
BBX 5 12 3 -3
BITMAP
30
78
78
30
00
00
78
70
70
E0
E0
C0
ENDCHAR
STARTCHAR less
ENCODING 60
SWIDTH 565 0
DWIDTH 11 0
BBX 9 9 1 1
BITMAP
0180
0780
1F00
7C00
F000
7C00
1F00
0780
0180
ENDCHAR
STARTCHAR equal
ENCODING 61
SWIDTH 565 0
DWIDTH 11 0
BBX 9 6 1 2
BITMAP
FF80
FF80
0000
0000
FF80
FF80
ENDCHAR
STARTCHAR greater
ENCODING 62
SWIDTH 565 0
DWIDTH 11 0
BBX 9 9 1 1
BITMAP
C000
F000
7C00
1F00
0780
1F00
7C00
F000
C000
ENDCHAR
STARTCHAR question
ENCODING 63
SWIDTH 565 0
DWIDTH 11 0
BBX 8 11 2 0
BITMAP
7E
FF
E7
07
1E
3C
38
00
38
7C
38
ENDCHAR
STARTCHAR at
ENCODING 64
SWIDTH 565 0
DWIDTH 11 0
BBX 10 14 1 -2
BITMAP
1E00
7F00
6380
E180
CF80
DF80
D980
D980
DFC0
CEC0
E000
7000
7F00
1F00
ENDCHAR
STARTCHAR A
ENCODING 65
SWIDTH 565 0
DWIDTH 11 0
BBX 10 11 1 0
BITMAP
1E00
1E00
1E00
3F00
3300
3300
7F80
7F80
6180
F3C0
F3C0
ENDCHAR
STARTCHAR B
ENCODING 66
SWIDTH 565 0
DWIDTH 11 0
BBX 10 11 1 0
BITMAP
FF00
FF80
7380
7380
7F00
7F80
71C0
71C0
71C0
FF80
FF00
ENDCHAR
STARTCHAR C
ENCODING 67
SWIDTH 565 0
DWIDTH 11 0
BBX 10 11 1 0
BITMAP
1EC0
7FC0
71C0
E0C0
E000
E000
E000
E000
71C0
7FC0
1F00
ENDCHAR
STARTCHAR D
ENCODING 68
SWIDTH 565 0
DWIDTH 11 0
BBX 10 11 1 0
BITMAP
FE00
FF80
7380
71C0
71C0
71C0
71C0
71C0
7380
FF80
FE00
ENDCHAR
STARTCHAR E
ENCODING 69
SWIDTH 565 0
DWIDTH 11 0
BBX 10 11 1 0
BITMAP
FFC0
FFC0
70C0
76C0
7E00
7E00
7600
70C0
70C0
FFC0
FFC0
ENDCHAR
STARTCHAR F
ENCODING 70
SWIDTH 565 0
DWIDTH 11 0
BBX 10 11 1 0
BITMAP
FFC0
FFC0
70C0
76C0
7E00
7E00
7600
7000
7000
F800
F800
ENDCHAR
STARTCHAR G
ENCODING 71
SWIDTH 565 0
DWIDTH 11 0
BBX 10 11 1 0
BITMAP
1EC0
7FC0
71C0
E0C0
E000
E7C0
E7C0
E1C0
71C0
7FC0
1F00
ENDCHAR
STARTCHAR H
ENCODING 72
SWIDTH 565 0
DWIDTH 11 0
BBX 10 11 1 0
BITMAP
F3C0
F3C0
7380
7380
7F80
7F80
7380
7380
7380
F3C0
F3C0
ENDCHAR
STARTCHAR I
ENCODING 73
SWIDTH 565 0
DWIDTH 11 0
BBX 9 11 1 0
BITMAP
FF80
FF80
1C00
1C00
1C00
1C00
1C00
1C00
1C00
FF80
FF80
ENDCHAR
STARTCHAR J
ENCODING 74
SWIDTH 565 0
DWIDTH 11 0
BBX 10 11 1 0
BITMAP
1FC0
1FC0
0700
0700
0700
0700
C700
C700
E700
FF00
7E00
ENDCHAR
STARTCHAR K
ENCODING 75
SWIDTH 565 0
DWIDTH 11 0
BBX 10 11 1 0
BITMAP
F3C0
F3C0
7700
7600
7C00
7E00
7E00
7700
7700
F3C0
F3C0
ENDCHAR
STARTCHAR L
ENCODING 76
SWIDTH 565 0
DWIDTH 11 0
BBX 9 11 1 0
BITMAP
F800
F800
7000
7000
7000
7000
7180
7180
7180
FF80
FF80
ENDCHAR
STARTCHAR M
ENCODING 77
SWIDTH 565 0
DWIDTH 11 0
BBX 10 11 1 0
BITMAP
E1C0
E1C0
7380
7380
7F80
7F80
6D80
6D80
6180
E1C0
E1C0
ENDCHAR
STARTCHAR N
ENCODING 78
SWIDTH 565 0
DWIDTH 11 0
BBX 10 11 1 0
BITMAP
F3C0
F3C0
7380
7B80
7B80
7F80
7780
7780
7380
F380
F380
ENDCHAR
STARTCHAR O
ENCODING 79
SWIDTH 565 0
DWIDTH 11 0
BBX 10 11 1 0
BITMAP
1E00
7F80
7380
E1C0
E1C0
E1C0
E1C0
E1C0
7380
7F80
1E00
ENDCHAR
STARTCHAR P
ENCODING 80
SWIDTH 565 0
DWIDTH 11 0
BBX 9 11 1 0
BITMAP
FF00
FF80
7380
7380
7380
7F80
7F00
7000
7000
F800
F800
ENDCHAR
STARTCHAR Q
ENCODING 81
SWIDTH 565 0
DWIDTH 11 0
BBX 10 14 1 -3
BITMAP
1E00
7F80
7380
E1C0
E1C0
E1C0
E1C0
E1C0
7380
7F80
1E00
1800
3FC0
3780
ENDCHAR
STARTCHAR R
ENCODING 82
SWIDTH 565 0
DWIDTH 11 0
BBX 10 11 1 0
BITMAP
FF00
FF80
7380
7380
7F00
7E00
7700
7700
7300
F3C0
F3C0
ENDCHAR
STARTCHAR S
ENCODING 83
SWIDTH 565 0
DWIDTH 11 0
BBX 8 11 2 0
BITMAP
3B
FF
E7
E3
F8
7E
0F
C7
E7
FF
DE
ENDCHAR
STARTCHAR T
ENCODING 84
SWIDTH 565 0
DWIDTH 11 0
BBX 11 11 0 0
BITMAP
FFE0
FFE0
CE60
CE60
CE60
0E00
0E00
0E00
0E00
3F80
3F80
ENDCHAR
STARTCHAR U
ENCODING 85
SWIDTH 565 0
DWIDTH 11 0
BBX 10 11 1 0
BITMAP
F3C0
F3C0
7380
7380
7380
7380
7380
7380
7380
7F80
3F00
ENDCHAR
STARTCHAR V
ENCODING 86
SWIDTH 565 0
DWIDTH 11 0
BBX 10 11 1 0
BITMAP
F3C0
F3C0
7380
7380
7380
3300
3300
3F00
1E00
1E00
0C00
ENDCHAR
STARTCHAR W
ENCODING 87
SWIDTH 565 0
DWIDTH 11 0
BBX 10 11 1 0
BITMAP
F3C0
F3C0
6180
6180
6D80
6D80
7F80
7F80
7380
3300
3300
ENDCHAR
STARTCHAR X
ENCODING 88
SWIDTH 565 0
DWIDTH 11 0
BBX 10 11 1 0
BITMAP
F3C0
F3C0
7380
3F00
1E00
1E00
1E00
3F00
7380
F3C0
F3C0
ENDCHAR
STARTCHAR Y
ENCODING 89
SWIDTH 565 0
DWIDTH 11 0
BBX 9 11 1 0
BITMAP
E380
E380
7700
7700
3E00
3E00
1C00
1C00
1C00
3E00
3E00
ENDCHAR
STARTCHAR Z
ENCODING 90
SWIDTH 565 0
DWIDTH 11 0
BBX 8 11 2 0
BITMAP
FF
FF
CE
CE
1C
1C
38
3B
73
7F
FF
ENDCHAR
STARTCHAR bracketleft
ENCODING 91
SWIDTH 565 0
DWIDTH 11 0
BBX 5 15 3 -3
BITMAP
F8
F8
E0
E0
E0
E0
E0
E0
E0
E0
E0
E0
E0
F8
F8
ENDCHAR
STARTCHAR backslash
ENCODING 92
SWIDTH 565 0
DWIDTH 11 0
BBX 8 14 2 -2
BITMAP
C0
E0
60
70
30
38
18
18
1C
0C
0E
06
07
03
ENDCHAR
STARTCHAR bracketright
ENCODING 93
SWIDTH 565 0
DWIDTH 11 0
BBX 5 15 3 -3
BITMAP
F8
F8
38
38
38
38
38
38
38
38
38
38
38
F8
F8
ENDCHAR
STARTCHAR asciicircum
ENCODING 94
SWIDTH 565 0
DWIDTH 11 0
BBX 8 4 2 5
BITMAP
18
3C
7E
C3
ENDCHAR
STARTCHAR ldblank
ENCODING 95
SWIDTH 565 0
DWIDTH 11 0
BBX 1 1 0 0
BITMAP
00
ENDCHAR
STARTCHAR diamond
ENCODING 96
SWIDTH 565 0
DWIDTH 11 0
BBX 9 11 1 0
BITMAP
0800
1C00
3E00
3E00
7F00
FF80
7F00
3E00
3E00
1C00
0800
ENDCHAR
STARTCHAR checkerboard
ENCODING 97
SWIDTH 565 0
DWIDTH 11 0
BBX 11 20 0 -5
BITMAP
C980
3660
C980
3660
C980
3660
C980
3660
C980
3660
C980
3660
C980
3660
C980
3660
C980
3660
C980
3660
ENDCHAR
STARTCHAR HT
ENCODING 98
SWIDTH 565 0
DWIDTH 11 0
BBX 10 13 1 -1
BITMAP
CC00
CC00
FC00
FC00
CC00
CC00
0000
03C0
03C0
0180
0180
0180
0180
ENDCHAR
STARTCHAR FF
ENCODING 99
SWIDTH 565 0
DWIDTH 11 0
BBX 10 13 1 -1
BITMAP
F800
F800
C000
F000
F000
C000
0000
07C0
07C0
0600
0780
0780
0600
ENDCHAR
STARTCHAR CR
ENCODING 100
SWIDTH 565 0
DWIDTH 11 0
BBX 10 13 1 -1
BITMAP
7000
F800
C000
C000
F800
7000
0000
0780
07C0
06C0
0780
06C0
06C0
ENDCHAR
STARTCHAR LF
ENCODING 101
SWIDTH 565 0
DWIDTH 11 0
BBX 10 13 1 -1
BITMAP
C000
C000
C000
C000
F800
F800
0000
07C0
07C0
0600
0780
0780
0600
ENDCHAR
STARTCHAR degree
ENCODING 102
SWIDTH 565 0
DWIDTH 11 0
BBX 6 6 3 6
BITMAP
78
FC
CC
CC
FC
78
ENDCHAR
STARTCHAR plusminus
ENCODING 103
SWIDTH 565 0
DWIDTH 11 0
BBX 9 11 1 0
BITMAP
1C00
1C00
1C00
FF80
FF80
1C00
1C00
1C00
0000
FF80
FF80
ENDCHAR
STARTCHAR NL
ENCODING 104
SWIDTH 565 0
DWIDTH 11 0
BBX 10 13 1 -1
BITMAP
CC00
CC00
EC00
FC00
DC00
CC00
0000
0300
0300
0300
0300
03C0
03C0
ENDCHAR
STARTCHAR VT
ENCODING 105
SWIDTH 565 0
DWIDTH 11 0
BBX 10 13 1 -1
BITMAP
CC00
CC00
CC00
7800
7800
3000
0000
03C0
03C0
0180
0180
0180
0180
ENDCHAR
STARTCHAR ldcornsqlr
ENCODING 106
SWIDTH 565 0
DWIDTH 11 0
BBX 7 11 0 4
BITMAP
0E
0E
0E
0E
0E
0E
0E
0E
0E
FE
FE
ENDCHAR
STARTCHAR ldcornsqur
ENCODING 107
SWIDTH 565 0
DWIDTH 11 0
BBX 7 11 0 -5
BITMAP
FE
FE
0E
0E
0E
0E
0E
0E
0E
0E
0E
ENDCHAR
STARTCHAR ldcornsqul
ENCODING 108
SWIDTH 565 0
DWIDTH 11 0
BBX 7 11 4 -5
BITMAP
FE
FE
E0
E0
E0
E0
E0
E0
E0
E0
E0
ENDCHAR
STARTCHAR ldcornsqll
ENCODING 109
SWIDTH 565 0
DWIDTH 11 0
BBX 7 11 4 4
BITMAP
E0
E0
E0
E0
E0
E0
E0
E0
E0
FE
FE
ENDCHAR
STARTCHAR ldcross
ENCODING 110
SWIDTH 565 0
DWIDTH 11 0
BBX 11 20 0 -5
BITMAP
0E00
0E00
0E00
0E00
0E00
0E00
0E00
0E00
0E00
FFE0
FFE0
0E00
0E00
0E00
0E00
0E00
0E00
0E00
0E00
0E00
ENDCHAR
STARTCHAR ldscan1
ENCODING 111
SWIDTH 565 0
DWIDTH 11 0
BBX 11 2 0 11
BITMAP
FFE0
FFE0
ENDCHAR
STARTCHAR ldscan3
ENCODING 112
SWIDTH 565 0
DWIDTH 11 0
BBX 11 2 0 7
BITMAP
FFE0
FFE0
ENDCHAR
STARTCHAR ldhorizontal
ENCODING 113
SWIDTH 565 0
DWIDTH 11 0
BBX 11 2 0 4
BITMAP
FFE0
FFE0
ENDCHAR
STARTCHAR ldscan7
ENCODING 114
SWIDTH 565 0
DWIDTH 11 0
BBX 11 2 0 -1
BITMAP
FFE0
FFE0
ENDCHAR
STARTCHAR ldscan9
ENCODING 115
SWIDTH 565 0
DWIDTH 11 0
BBX 11 2 0 -5
BITMAP
FFE0
FFE0
ENDCHAR
STARTCHAR ldteelft
ENCODING 116
SWIDTH 565 0
DWIDTH 11 0
BBX 7 20 4 -5
BITMAP
E0
E0
E0
E0
E0
E0
E0
E0
E0
FE
FE
E0
E0
E0
E0
E0
E0
E0
E0
E0
ENDCHAR
STARTCHAR ldteert
ENCODING 117
SWIDTH 565 0
DWIDTH 11 0
BBX 7 20 0 -5
BITMAP
0E
0E
0E
0E
0E
0E
0E
0E
0E
FE
FE
0E
0E
0E
0E
0E
0E
0E
0E
0E
ENDCHAR
STARTCHAR ldteebt
ENCODING 118
SWIDTH 565 0
DWIDTH 11 0
BBX 11 11 0 4
BITMAP
0E00
0E00
0E00
0E00
0E00
0E00
0E00
0E00
0E00
FFE0
FFE0
ENDCHAR
STARTCHAR ldteetp
ENCODING 119
SWIDTH 565 0
DWIDTH 11 0
BBX 11 11 0 -5
BITMAP
FFE0
FFE0
0E00
0E00
0E00
0E00
0E00
0E00
0E00
0E00
0E00
ENDCHAR
STARTCHAR ldvertical
ENCODING 120
SWIDTH 565 0
DWIDTH 11 0
BBX 3 20 4 -5
BITMAP
E0
E0
E0
E0
E0
E0
E0
E0
E0
E0
E0
E0
E0
E0
E0
E0
E0
E0
E0
E0
ENDCHAR
STARTCHAR lessequal
ENCODING 121
SWIDTH 565 0
DWIDTH 11 0
BBX 10 10 1 0
BITMAP
01C0
0FC0
7E00
F000
7E00
0FC0
01C0
0000
FFC0
FFC0
ENDCHAR
STARTCHAR greaterequal
ENCODING 122
SWIDTH 565 0
DWIDTH 11 0
BBX 10 10 1 0
BITMAP
E000
FC00
1F80
03C0
1F80
FC00
E000
0000
FFC0
FFC0
ENDCHAR
STARTCHAR pi
ENCODING 123
SWIDTH 565 0
DWIDTH 11 0
BBX 11 9 0 0
BITMAP
FFE0
FFE0
7380
7380
7300
6300
E700
E780
E780
ENDCHAR
STARTCHAR notequal
ENCODING 124
SWIDTH 565 0
DWIDTH 11 0
BBX 9 10 1 0
BITMAP
0300
0600
FF80
FF80
0C00
1800
FF80
FF80
3000
6000
ENDCHAR
STARTCHAR sterling
ENCODING 125
SWIDTH 565 0
DWIDTH 11 0
BBX 10 11 1 0
BITMAP
1F00
3F80
3980
3800
FF00
FF00
1800
1C00
1CC0
7FC0
7780
ENDCHAR
STARTCHAR periodcentered
ENCODING 126
SWIDTH 565 0
DWIDTH 11 0
BBX 4 4 4 3
BITMAP
60
F0
F0
60
ENDCHAR
STARTCHAR Error
ENCODING 159
SWIDTH 565 0
DWIDTH 11 0
BBX 11 18 0 -3
BITMAP
1F00
7FC0
FFE0
F1E0
F1E0
F1E0
F800
7C00
3E00
1F00
0F00
0F00
0000
0000
0F00
1F80
1F80
0F00
ENDCHAR
STARTCHAR space
ENCODING 160
SWIDTH 565 0
DWIDTH 11 0
BBX 1 1 0 0
BITMAP
00
ENDCHAR
STARTCHAR ldradicalbt
ENCODING 161
SWIDTH 565 0
DWIDTH 11 0
BBX 7 12 0 3
BITMAP
0E
0E
0E
0E
0E
0E
4E
EE
FE
BE
1E
0E
ENDCHAR
STARTCHAR ldradicaltp
ENCODING 162
SWIDTH 565 0
DWIDTH 11 0
BBX 7 11 4 -5
BITMAP
FE
FE
E0
E0
E0
E0
E0
E0
E0
E0
E0
ENDCHAR
STARTCHAR ldhorizontal
ENCODING 163
SWIDTH 565 0
DWIDTH 11 0
BBX 11 2 0 4
BITMAP
FFE0
FFE0
ENDCHAR
STARTCHAR ldintegraltp
ENCODING 164
SWIDTH 565 0
DWIDTH 11 0
BBX 7 18 4 -5
BITMAP
3E
7E
F0
E0
E0
E0
E0
E0
E0
E0
E0
E0
E0
E0
E0
E0
E0
E0
ENDCHAR
STARTCHAR ldintegralbt
ENCODING 165
SWIDTH 565 0
DWIDTH 11 0
BBX 7 18 0 -3
BITMAP
0E
0E
0E
0E
0E
0E
0E
0E
0E
0E
0E
0E
0E
0E
0E
1E
FC
F8
ENDCHAR
STARTCHAR ldvertical
ENCODING 166
SWIDTH 565 0
DWIDTH 11 0
BBX 3 20 4 -5
BITMAP
E0
E0
E0
E0
E0
E0
E0
E0
E0
E0
E0
E0
E0
E0
E0
E0
E0
E0
E0
E0
ENDCHAR
STARTCHAR ldbracketlfttp
ENCODING 167
SWIDTH 565 0
DWIDTH 11 0
BBX 5 18 4 -5
BITMAP
F8
F8
E0
E0
E0
E0
E0
E0
E0
E0
E0
E0
E0
E0
E0
E0
E0
E0
ENDCHAR
STARTCHAR ldbracketlftbt
ENCODING 168
SWIDTH 565 0
DWIDTH 11 0
BBX 5 18 4 -3
BITMAP
E0
E0
E0
E0
E0
E0
E0
E0
E0
E0
E0
E0
E0
E0
E0
E0
F8
F8
ENDCHAR
STARTCHAR ldbracketrttp
ENCODING 169
SWIDTH 565 0
DWIDTH 11 0
BBX 5 18 2 -5
BITMAP
F8
F8
38
38
38
38
38
38
38
38
38
38
38
38
38
38
38
38
ENDCHAR
STARTCHAR ldbracketrtbt
ENCODING 170
SWIDTH 565 0
DWIDTH 11 0
BBX 5 18 2 -3
BITMAP
38
38
38
38
38
38
38
38
38
38
38
38
38
38
38
38
F8
F8
ENDCHAR
STARTCHAR ldbracelfttp
ENCODING 171
SWIDTH 565 0
DWIDTH 11 0
BBX 6 18 4 -5
BITMAP
3C
7C
F0
E0
E0
E0
E0
E0
E0
E0
E0
E0
E0
E0
E0
E0
E0
E0
ENDCHAR
STARTCHAR ldbracelftbt
ENCODING 172
SWIDTH 565 0
DWIDTH 11 0
BBX 6 18 4 -3
BITMAP
E0
E0
E0
E0
E0
E0
E0
E0
E0
E0
E0
E0
E0
E0
E0
F0
7C
3C
ENDCHAR
STARTCHAR ldbracerttp
ENCODING 173
SWIDTH 565 0
DWIDTH 11 0
BBX 6 18 1 -5
BITMAP
F0
F8
3C
1C
1C
1C
1C
1C
1C
1C
1C
1C
1C
1C
1C
1C
1C
1C
ENDCHAR
STARTCHAR ldbracertbt
ENCODING 174
SWIDTH 565 0
DWIDTH 11 0
BBX 6 18 1 -3
BITMAP
1C
1C
1C
1C
1C
1C
1C
1C
1C
1C
1C
1C
1C
1C
1C
3C
F8
F0
ENDCHAR
STARTCHAR ldbracelftmid
ENCODING 175
SWIDTH 565 0
DWIDTH 11 0
BBX 5 20 2 -5
BITMAP
38
38
38
38
38
38
38
38
38
70
E0
70
38
38
38
38
38
38
38
38
ENDCHAR
STARTCHAR ldbracertmid
ENCODING 176
SWIDTH 565 0
DWIDTH 11 0
BBX 5 20 4 -5
BITMAP
E0
E0
E0
E0
E0
E0
E0
E0
E0
70
38
70
E0
E0
E0
E0
E0
E0
E0
E0
ENDCHAR
STARTCHAR ldsigmalfttp
ENCODING 177
SWIDTH 565 0
DWIDTH 11 0
BBX 7 11 4 -5
BITMAP
FE
FE
E0
60
70
38
18
1C
0C
0E
06
ENDCHAR
STARTCHAR ldsigmalftbt
ENCODING 178
SWIDTH 565 0
DWIDTH 11 0
BBX 7 11 4 4
BITMAP
02
06
0E
1C
18
38
70
60
E0
FE
FE
ENDCHAR
STARTCHAR ldbackslash
ENCODING 179
SWIDTH 565 0
DWIDTH 11 0
BBX 11 20 0 -5
BITMAP
8000
C000
C000
E000
6000
7000
3000
3800
1800
1C00
0C00
0E00
0600
0700
0300
0380
01C0
00C0
00E0
0060
ENDCHAR
STARTCHAR ldslash
ENCODING 180
SWIDTH 565 0
DWIDTH 11 0
BBX 11 20 0 -5
BITMAP
0020
0060
00E0
00C0
01C0
0180
0380
0700
0600
0E00
0C00
1C00
1800
3800
7000
6000
E000
C000
C000
8000
ENDCHAR
STARTCHAR ldsigmarttp
ENCODING 181
SWIDTH 565 0
DWIDTH 11 0
BBX 11 6 0 0
BITMAP
FFE0
FFE0
00E0
00E0
00E0
00E0
ENDCHAR
STARTCHAR ldsigmartbt
ENCODING 182
SWIDTH 565 0
DWIDTH 11 0
BBX 11 6 0 4
BITMAP
00E0
00E0
00E0
00E0
FFE0
FFE0
ENDCHAR
STARTCHAR ldsigmamid
ENCODING 183
SWIDTH 565 0
DWIDTH 11 0
BBX 7 20 0 -5
BITMAP
80
80
C0
C0
E0
60
70
38
18
1C
0E
0C
1C
38
30
70
E0
C0
C0
80
ENDCHAR
STARTCHAR lessequal
ENCODING 188
SWIDTH 565 0
DWIDTH 11 0
BBX 10 10 1 0
BITMAP
01C0
0FC0
7E00
F000
7E00
0FC0
01C0
0000
FFC0
FFC0
ENDCHAR
STARTCHAR notequal
ENCODING 189
SWIDTH 565 0
DWIDTH 11 0
BBX 9 10 1 0
BITMAP
0300
0600
FF80
FF80
0C00
1800
FF80
FF80
3000
6000
ENDCHAR
STARTCHAR greaterequal
ENCODING 190
SWIDTH 565 0
DWIDTH 11 0
BBX 10 10 1 0
BITMAP
E000
FC00
1F80
03C0
1F80
FC00
E000
0000
FFC0
FFC0
ENDCHAR
STARTCHAR integral
ENCODING 191
SWIDTH 565 0
DWIDTH 11 0
BBX 10 18 1 -4
BITMAP
0380
07C0
0EC0
0E00
0E00
0E00
0E00
0E00
0E00
0E00
0E00
0E00
0E00
0E00
0E00
CE00
FC00
7800
ENDCHAR
STARTCHAR therefore
ENCODING 192
SWIDTH 565 0
DWIDTH 11 0
BBX 10 10 1 0
BITMAP
0C00
1E00
1E00
0C00
0000
0000
6180
F3C0
F3C0
6180
ENDCHAR
STARTCHAR proportional
ENCODING 193
SWIDTH 565 0
DWIDTH 11 0
BBX 10 8 1 1
BITMAP
39C0
7FC0
EF00
C600
C600
EF00
7FC0
39C0
ENDCHAR
STARTCHAR infinity
ENCODING 194
SWIDTH 565 0
DWIDTH 11 0
BBX 11 8 0 1
BITMAP
3B80
7FC0
EEE0
CC60
C660
EEE0
7FC0
3B80
ENDCHAR
STARTCHAR divide
ENCODING 195
SWIDTH 565 0
DWIDTH 11 0
BBX 10 10 1 0
BITMAP
0C00
1E00
0C00
0000
FFC0
FFC0
0000
0C00
1E00
0C00
ENDCHAR
STARTCHAR Delta
ENCODING 196
SWIDTH 565 0
DWIDTH 11 0
BBX 10 11 1 0
BITMAP
0C00
0C00
1E00
1E00
3F00
3300
7380
7380
E1C0
FFC0
FFC0
ENDCHAR
STARTCHAR gradient
ENCODING 197
SWIDTH 565 0
DWIDTH 11 0
BBX 10 11 1 0
BITMAP
FFC0
FFC0
E1C0
7380
7380
3300
3F00
1E00
1E00
0C00
0C00
ENDCHAR
STARTCHAR Phi
ENCODING 198
SWIDTH 565 0
DWIDTH 11 0
BBX 9 11 1 0
BITMAP
3E00
1C00
7F00
FF80
DD80
DD80
DD80
FF80
7F00
1C00
3E00
ENDCHAR
STARTCHAR Gamma
ENCODING 199
SWIDTH 565 0
DWIDTH 11 0
BBX 9 11 1 0
BITMAP
FF80
FF80
7180
7180
7000
7000
7000
7000
7000
FC00
FC00
ENDCHAR
STARTCHAR similar
ENCODING 200
SWIDTH 565 0
DWIDTH 11 0
BBX 9 3 1 4
BITMAP
7980
FF80
C700
ENDCHAR
STARTCHAR approxequal
ENCODING 201
SWIDTH 565 0
DWIDTH 11 0
BBX 9 7 1 2
BITMAP
7980
FF80
C700
0000
0000
FF80
FF80
ENDCHAR
STARTCHAR Theta
ENCODING 202
SWIDTH 565 0
DWIDTH 11 0
BBX 10 11 1 0
BITMAP
1E00
7F80
7380
E1C0
EDC0
EDC0
E1C0
E1C0
7380
7F80
1E00
ENDCHAR
STARTCHAR multiply
ENCODING 203
SWIDTH 565 0
DWIDTH 11 0
BBX 8 8 2 1
BITMAP
42
E7
7E
3C
3C
7E
E7
42
ENDCHAR
STARTCHAR Lambda
ENCODING 204
SWIDTH 565 0
DWIDTH 11 0
BBX 10 11 1 0
BITMAP
0C00
1E00
1E00
3F00
3300
7380
7380
6180
E1C0
F3C0
F3C0
ENDCHAR
STARTCHAR arrowdblboth
ENCODING 205
SWIDTH 565 0
DWIDTH 11 0
BBX 11 9 0 1
BITMAP
1100
3180
7FC0
FFE0
E0E0
FFE0
7FC0
3180
1100
ENDCHAR
STARTCHAR arrowdblright
ENCODING 206
SWIDTH 565 0
DWIDTH 11 0
BBX 11 9 0 1
BITMAP
0700
0380
FFC0
FFE0
00E0
FFE0
FFC0
0380
0700
ENDCHAR
STARTCHAR equivalence
ENCODING 207
SWIDTH 565 0
DWIDTH 11 0
BBX 9 8 1 1
BITMAP
FF80
FF80
0000
FF80
FF80
0000
FF80
FF80
ENDCHAR
STARTCHAR Pi
ENCODING 208
SWIDTH 565 0
DWIDTH 11 0
BBX 10 11 1 0
BITMAP
FFC0
FFC0
7380
7380
7380
7380
7380
7380
7380
F3C0
F3C0
ENDCHAR
STARTCHAR Psi
ENCODING 209
SWIDTH 565 0
DWIDTH 11 0
BBX 9 11 1 0
BITMAP
3E00
1C00
DD80
DD80
DD80
DD80
FF80
7F00
1C00
1C00
3E00
ENDCHAR
STARTCHAR Sigma
ENCODING 211
SWIDTH 565 0
DWIDTH 11 0
BBX 10 11 1 0
BITMAP
FFC0
FFC0
70C0
38C0
1C00
0E00
1C00
38C0
70C0
FFC0
FFC0
ENDCHAR
STARTCHAR radical
ENCODING 214
SWIDTH 565 0
DWIDTH 11 0
BBX 11 16 0 -2
BITMAP
00E0
00E0
00C0
01C0
0180
E380
E380
6300
7700
3700
3600
3E00
1E00
1C00
1C00
0800
ENDCHAR
STARTCHAR Omega
ENCODING 215
SWIDTH 565 0
DWIDTH 11 0
BBX 9 11 1 0
BITMAP
3E00
7F00
F780
E380
E380
E380
E300
7700
3600
F780
F780
ENDCHAR
STARTCHAR Xi
ENCODING 216
SWIDTH 565 0
DWIDTH 11 0
BBX 9 11 1 0
BITMAP
FF80
FF80
C180
0000
6300
7F00
7F00
0000
C180
FF80
FF80
ENDCHAR
STARTCHAR Upsilon1
ENCODING 217
SWIDTH 565 0
DWIDTH 11 0
BBX 9 11 1 0
BITMAP
E380
E380
7700
7700
3600
3E00
1C00
1C00
1C00
7F00
7F00
ENDCHAR
STARTCHAR propersubset
ENCODING 218
SWIDTH 565 0
DWIDTH 11 0
BBX 9 11 1 0
BITMAP
3F80
7F80
F000
E000
E000
E000
E000
E000
F000
7F80
3F80
ENDCHAR
STARTCHAR propersuperset
ENCODING 219
SWIDTH 565 0
DWIDTH 11 0
BBX 9 11 1 0
BITMAP
FE00
FF00
0780
0380
0380
0380
0380
0380
0780
FF00
FE00
ENDCHAR
STARTCHAR intersection
ENCODING 220
SWIDTH 565 0
DWIDTH 11 0
BBX 10 11 1 0
BITMAP
3F00
7F80
F3C0
E1C0
E1C0
E1C0
E1C0
E1C0
E1C0
E1C0
E1C0
ENDCHAR
STARTCHAR union
ENCODING 221
SWIDTH 565 0
DWIDTH 11 0
BBX 10 11 1 0
BITMAP
E1C0
E1C0
E1C0
E1C0
E1C0
E1C0
E1C0
E1C0
F3C0
7F80
3F00
ENDCHAR
STARTCHAR logicaland
ENCODING 222
SWIDTH 565 0
DWIDTH 11 0
BBX 11 11 0 0
BITMAP
0E00
0E00
1F00
1F00
3B80
3B80
3180
71C0
71C0
60C0
E0E0
ENDCHAR
STARTCHAR logicalor
ENCODING 223
SWIDTH 565 0
DWIDTH 11 0
BBX 11 11 0 0
BITMAP
E0E0
60C0
71C0
71C0
3180
3B80
3B80
1F00
1F00
0E00
0E00
ENDCHAR
STARTCHAR logicalnot
ENCODING 224
SWIDTH 565 0
DWIDTH 11 0
BBX 9 6 1 2
BITMAP
FF80
FF80
0380
0380
0380
0380
ENDCHAR
STARTCHAR alpha
ENCODING 225
SWIDTH 565 0
DWIDTH 11 0
BBX 10 9 1 0
BITMAP
1CC0
7FC0
7780
E380
E300
E300
F700
FFC0
7CC0
ENDCHAR
STARTCHAR beta
ENCODING 226
SWIDTH 565 0
DWIDTH 11 0
BBX 10 16 1 -4
BITMAP
0F80
1FC0
39C0
31C0
31C0
7780
7780
61C0
61C0
E1C0
FF80
DF00
C000
C000
C000
C000
ENDCHAR
STARTCHAR chi
ENCODING 227
SWIDTH 565 0
DWIDTH 11 0
BBX 10 13 1 -4
BITMAP
7040
70C0
39C0
3B80
1F00
1E00
0C00
1E00
3E00
7700
E700
C380
8380
ENDCHAR
STARTCHAR delta
ENCODING 228
SWIDTH 565 0
DWIDTH 11 0
BBX 10 12 1 0
BITMAP
0FC0
1FC0
1C00
0E00
3F00
7F80
F1C0
E1C0
E1C0
F3C0
7F80
3F00
ENDCHAR
STARTCHAR epsilon
ENCODING 229
SWIDTH 565 0
DWIDTH 11 0
BBX 9 9 1 0
BITMAP
1F00
7F80
7000
FF00
FF00
E000
E000
7F00
3E00
ENDCHAR
STARTCHAR phi
ENCODING 230
SWIDTH 565 0
DWIDTH 11 0
BBX 9 16 1 -4
BITMAP
0600
0600
0E00
3F00
7F80
6D80
CD80
DD80
D980
DB00
FF00
7E00
3800
3000
3000
3000
ENDCHAR
STARTCHAR gamma
ENCODING 231
SWIDTH 565 0
DWIDTH 11 0
BBX 10 13 1 -4
BITMAP
E0C0
E1C0
7380
7380
3700
3E00
3E00
1C00
1C00
3800
3000
7000
6000
ENDCHAR
STARTCHAR eta
ENCODING 232
SWIDTH 565 0
DWIDTH 11 0
BBX 10 13 1 -4
BITMAP
F780
FFC0
79C0
71C0
71C0
7380
E380
E380
E380
0300
0700
0700
0700
ENDCHAR
STARTCHAR iota
ENCODING 233
SWIDTH 565 0
DWIDTH 11 0
BBX 7 9 2 0
BITMAP
F8
F8
38
38
70
70
76
7E
3C
ENDCHAR
STARTCHAR theta
ENCODING 234
SWIDTH 565 0
DWIDTH 11 0
BBX 10 12 1 0
BITMAP
0F00
3F80
39C0
71C0
61C0
FFC0
FFC0
E380
E380
E700
7F00
3C00
ENDCHAR
STARTCHAR kappa
ENCODING 235
SWIDTH 565 0
DWIDTH 11 0
BBX 9 9 1 0
BITMAP
F180
7380
7700
7E00
7C00
7E00
EE00
E700
E380
ENDCHAR
STARTCHAR lambda
ENCODING 236
SWIDTH 565 0
DWIDTH 11 0
BBX 11 12 0 0
BITMAP
3C00
3C00
0C00
0E00
0E00
1E00
1F00
3F00
3380
7180
63C0
E1E0
ENDCHAR
STARTCHAR nu
ENCODING 238
SWIDTH 565 0
DWIDTH 11 0
BBX 10 9 1 0
BITMAP
F9C0
F9C0
39C0
3980
3B80
3B00
1F00
1E00
1C00
ENDCHAR
STARTCHAR partialdiff
ENCODING 239
SWIDTH 565 0
DWIDTH 11 0
BBX 9 12 1 0
BITMAP
3E00
3F00
0300
0380
3F80
7F80
F380
E380
E380
F700
7F00
3E00
ENDCHAR
STARTCHAR pi
ENCODING 240
SWIDTH 565 0
DWIDTH 11 0
BBX 11 9 0 0
BITMAP
FFE0
FFE0
7380
7380
7300
6300
E700
E780
E780
ENDCHAR
STARTCHAR psi
ENCODING 241
SWIDTH 565 0
DWIDTH 11 0
BBX 9 16 1 -4
BITMAP
0C00
0C00
0C00
6D80
6D80
ED80
DD80
D980
DB80
DB00
FF00
7E00
3000
3000
3000
3000
ENDCHAR
STARTCHAR rho
ENCODING 242
SWIDTH 565 0
DWIDTH 11 0
BBX 11 13 0 -4
BITMAP
1F80
3FC0
79E0
70E0
70E0
70E0
79E0
FFC0
EF80
E000
E000
E000
E000
ENDCHAR
STARTCHAR sigma
ENCODING 243
SWIDTH 565 0
DWIDTH 11 0
BBX 10 9 1 0
BITMAP
3FC0
7FC0
F180
F1C0
E1C0
E3C0
E3C0
7F80
3F00
ENDCHAR
STARTCHAR tau
ENCODING 244
SWIDTH 565 0
DWIDTH 11 0
BBX 9 9 1 0
BITMAP
FF80
FF80
1C00
1C00
3800
3800
3980
3F80
1F00
ENDCHAR
STARTCHAR florin
ENCODING 246
SWIDTH 565 0
DWIDTH 11 0
BBX 10 14 1 -3
BITMAP
03C0
07C0
0E00
0E00
3F80
3F80
0E00
0C00
1C00
1C00
1C00
1800
F800
F000
ENDCHAR
STARTCHAR omega
ENCODING 247
SWIDTH 565 0
DWIDTH 11 0
BBX 10 9 1 0
BITMAP
71C0
71C0
71C0
EDC0
EDC0
EDC0
EDC0
FF80
7700
ENDCHAR
STARTCHAR xi
ENCODING 248
SWIDTH 565 0
DWIDTH 11 0
BBX 9 16 1 -4
BITMAP
7F80
7F80
1C00
3800
3800
1E00
7E00
F000
E000
E000
FE00
7F00
0700
0700
0E00
0C00
ENDCHAR
STARTCHAR upsilon
ENCODING 249
SWIDTH 565 0
DWIDTH 11 0
BBX 9 9 1 0
BITMAP
7380
7380
7380
E380
E380
E300
E700
7E00
3C00
ENDCHAR
STARTCHAR zeta
ENCODING 250
SWIDTH 565 0
DWIDTH 11 0
BBX 9 16 1 -4
BITMAP
7F80
7F80
0E00
1C00
3800
7000
7000
E000
E000
E000
FF00
7F80
0380
0380
0700
0600
ENDCHAR
STARTCHAR arrowleft
ENCODING 251
SWIDTH 565 0
DWIDTH 11 0
BBX 11 8 0 1
BITMAP
1800
3800
7000
FFE0
FFE0
7000
3800
1800
ENDCHAR
STARTCHAR arrowup
ENCODING 252
SWIDTH 565 0
DWIDTH 11 0
BBX 9 17 1 -4
BITMAP
0800
1C00
3E00
7F00
7F00
DD80
DD80
1C00
1C00
1C00
1C00
1C00
1C00
1C00
1C00
1C00
1C00
ENDCHAR
STARTCHAR arrowright
ENCODING 253
SWIDTH 565 0
DWIDTH 11 0
BBX 11 8 0 1
BITMAP
0300
0380
01C0
FFE0
FFE0
01C0
0380
0300
ENDCHAR
STARTCHAR arrowdown
ENCODING 254
SWIDTH 565 0
DWIDTH 11 0
BBX 9 17 1 -4
BITMAP
1C00
1C00
1C00
1C00
1C00
1C00
1C00
1C00
1C00
1C00
DD80
DD80
7F00
7F00
3E00
1C00
0800
ENDCHAR
ENDFONT
