STARTFONT 2.1
FONT -Bitstream-Terminal-Bold-R-Normal--18-140-100-100-C-110-ISO8859-1
SIZE 14 100 100
FONTBOUNDINGBOX 11 20 0 -5
COMMENT $Xorg: termB14.bdf,v 1.3 2000/08/17 19:43:30 cpqbld Exp $
COMMENT 
COMMENT +
COMMENT  Copyright (c) 1987, 1994 Digital Equipment Corporation
COMMENT 
COMMENT  The name "Bitstream" is a registered trademark of Bitstream, Inc.
COMMENT  Permission to use this trademark is hereby granted only in association
COMMENT  with the images described in this file.
COMMENT 
COMMENT  The X Consortium, and any party obtaining a copy of these files from
COMMENT  the X Consortium, directly or indirectly, is granted, free of charge, a
COMMENT  full and unrestricted irrevocable, world-wide, paid up, royalty-free,
COMMENT  nonexclusive right and license to deal in this software and
COMMENT  documentation files (the "Software"), including without limitation the
COMMENT  rights to use, copy, modify, merge, publish, distribute, sublicense,
COMMENT  and/or sell copies of the Software, and to permit persons who receive
COMMENT  copies from any such party to do so.  This license includes without
COMMENT  limitation a license to do the foregoing actions under any patents of
COMMENT  the party supplying this software to the X Consortium.
COMMENT 
COMMENT  Digital Equipment Corporation make no representations about the
COMMENT  suitability of this software for any purpose.  It is provided "as
COMMENT  is" without express or implied warranty.
COMMENT -
STARTPROPERTIES 22
FOUNDRY "Bitstream"
FAMILY_NAME "Terminal"
WEIGHT_NAME "Bold"
SLANT "R"
SETWIDTH_NAME "Normal"
ADD_STYLE_NAME ""
PIXEL_SIZE 18
POINT_SIZE 140
RESOLUTION_X 100
RESOLUTION_Y 100
SPACING "C"
AVERAGE_WIDTH 110
CHARSET_REGISTRY "ISO8859"
CHARSET_ENCODING "1"
CAP_HEIGHT 11
X_HEIGHT 9
FONT_ASCENT 15
FONT_DESCENT 5
DEFAULT_CHAR 159
COPYRIGHT "Copyright (c) 1991 Digital Equipment Corporation. All Rights Reserved."
_DEC_PRODUCTINFO "DECterm Fonts V2.2, 11-Nov-1991"
FULL_NAME "Terminal Bold"
ENDPROPERTIES
CHARS 195
STARTCHAR space
ENCODING 32
SWIDTH 565 0
DWIDTH 11 0
BBX 1 1 0 0
BITMAP
00
ENDCHAR
STARTCHAR exclam
ENCODING 33
SWIDTH 565 0
DWIDTH 11 0
BBX 5 11 3 0
BITMAP
70
70
70
70
70
70
70
00
70
F8
70
ENDCHAR
STARTCHAR quotedbl
ENCODING 34
SWIDTH 565 0
DWIDTH 11 0
BBX 6 5 3 8
BITMAP
CC
CC
CC
CC
CC
ENDCHAR
STARTCHAR numbersign
ENCODING 35
SWIDTH 565 0
DWIDTH 11 0
BBX 11 14 0 -3
BITMAP
39C0
39C0
39C0
39C0
FFE0
FFE0
39C0
39C0
FFE0
FFE0
39C0
39C0
39C0
39C0
ENDCHAR
STARTCHAR dollar
ENCODING 36
SWIDTH 565 0
DWIDTH 11 0
BBX 9 16 1 -3
BITMAP
0C00
0C00
3D80
7F80
E380
E180
F800
7E00
0F80
C380
E380
FF80
DF00
1800
1800
1800
ENDCHAR
STARTCHAR percent
ENCODING 37
SWIDTH 565 0
DWIDTH 11 0
BBX 10 11 1 0
BITMAP
7800
FC00
CC00
FCC0
7B80
0C00
7780
CFC0
0CC0
0FC0
0780
ENDCHAR
STARTCHAR ampersand
ENCODING 38
SWIDTH 565 0
DWIDTH 11 0
BBX 9 11 1 0
BITMAP
3D00
7F00
7300
7000
3980
7D80
EF00
EF00
E700
FF80
7D80
ENDCHAR
STARTCHAR quoteright
ENCODING 39
SWIDTH 565 0
DWIDTH 11 0
BBX 5 5 3 8
BITMAP
78
70
60
E0
C0
ENDCHAR
STARTCHAR parenleft
ENCODING 40
SWIDTH 565 0
DWIDTH 11 0
BBX 6 16 3 -4
BITMAP
0C
18
38
70
70
E0
E0
E0
E0
E0
E0
70
70
38
18
0C
ENDCHAR
STARTCHAR parenright
ENCODING 41
SWIDTH 565 0
DWIDTH 11 0
BBX 6 16 3 -4
BITMAP
C0
60
70
38
38
1C
1C
1C
1C
1C
1C
38
38
70
60
C0
ENDCHAR
STARTCHAR asterisk
ENCODING 42
SWIDTH 565 0
DWIDTH 11 0
BBX 9 7 1 2
BITMAP
0800
1C00
DD80
FF80
3E00
7700
6300
ENDCHAR
STARTCHAR plus
ENCODING 43
SWIDTH 565 0
DWIDTH 11 0
BBX 9 10 1 0
BITMAP
1C00
1C00
1C00
1C00
FF80
FF80
1C00
1C00
1C00
1C00
ENDCHAR
STARTCHAR comma
ENCODING 44
SWIDTH 565 0
DWIDTH 11 0
BBX 5 6 3 -3
BITMAP
78
70
70
E0
E0
C0
ENDCHAR
STARTCHAR minus
ENCODING 45
SWIDTH 565 0
DWIDTH 11 0
BBX 9 2 1 4
BITMAP
FF80
FF80
ENDCHAR
STARTCHAR period
ENCODING 46
SWIDTH 565 0
DWIDTH 11 0
BBX 4 4 4 0
BITMAP
60
F0
F0
60
ENDCHAR
STARTCHAR slash
ENCODING 47
SWIDTH 565 0
DWIDTH 11 0
BBX 8 14 2 -2
BITMAP
03
07
06
0E
0C
1C
18
18
38
30
70
60
E0
C0
ENDCHAR
STARTCHAR zero
ENCODING 48
SWIDTH 565 0
DWIDTH 11 0
BBX 9 11 1 0
BITMAP
1C00
3E00
7700
E380
E380
E380
E380
E380
7700
3E00
1C00
ENDCHAR
STARTCHAR one
ENCODING 49
SWIDTH 565 0
DWIDTH 11 0
BBX 7 11 2 0
BITMAP
38
78
F8
B8
38
38
38
38
38
FE
FE
ENDCHAR
STARTCHAR two
ENCODING 50
SWIDTH 565 0
DWIDTH 11 0
BBX 8 11 1 0
BITMAP
3C
FF
E7
C7
07
0E
1C
38
73
FF
FF
ENDCHAR
STARTCHAR three
ENCODING 51
SWIDTH 565 0
DWIDTH 11 0
BBX 8 11 1 0
BITMAP
3C
FF
C7
07
1E
1E
07
07
C7
FF
7C
ENDCHAR
STARTCHAR four
ENCODING 52
SWIDTH 565 0
DWIDTH 11 0
BBX 9 11 1 0
BITMAP
0F00
1F00
3F00
3700
6700
E700
FF80
FF80
0700
0700
0700
ENDCHAR
STARTCHAR five
ENCODING 53
SWIDTH 565 0
DWIDTH 11 0
BBX 8 11 2 0
BITMAP
FF
FF
E0
E0
FE
FF
C7
07
C7
FF
7E
ENDCHAR
STARTCHAR six
ENCODING 54
SWIDTH 565 0
DWIDTH 11 0
BBX 9 11 1 0
BITMAP
1F00
7F00
7000
E000
EE00
FF00
E380
E380
E380
7F00
3E00
ENDCHAR
STARTCHAR seven
ENCODING 55
SWIDTH 565 0
DWIDTH 11 0
BBX 9 11 1 0
BITMAP
FF80
FF80
C380
0700
0700
0E00
0E00
1C00
1C00
3800
3800
ENDCHAR
STARTCHAR eight
ENCODING 56
SWIDTH 565 0
DWIDTH 11 0
BBX 9 11 1 0
BITMAP
3E00
7F00
E380
E380
7F00
7F00
E380
E380
E380
7F00
3E00
ENDCHAR
STARTCHAR nine
ENCODING 57
SWIDTH 565 0
DWIDTH 11 0
BBX 9 11 1 0
BITMAP
3E00
7F00
E380
E380
E380
7F80
3B80
0380
0700
7F00
7C00
ENDCHAR
STARTCHAR colon
ENCODING 58
SWIDTH 565 0
DWIDTH 11 0
BBX 4 9 4 0
BITMAP
60
F0
F0
60
00
60
F0
F0
60
ENDCHAR
STARTCHAR semicolon
ENCODING 59
SWIDTH 565 0
DWIDTH 11 0
BBX 5 12 3 -3
BITMAP
30
78
78
30
00
00
78
70
70
E0
E0
C0
ENDCHAR
STARTCHAR less
ENCODING 60
SWIDTH 565 0
DWIDTH 11 0
BBX 9 9 1 1
BITMAP
0180
0780
1F00
7C00
F000
7C00
1F00
0780
0180
ENDCHAR
STARTCHAR equal
ENCODING 61
SWIDTH 565 0
DWIDTH 11 0
BBX 9 6 1 2
BITMAP
FF80
FF80
0000
0000
FF80
FF80
ENDCHAR
STARTCHAR greater
ENCODING 62
SWIDTH 565 0
DWIDTH 11 0
BBX 9 9 1 1
BITMAP
C000
F000
7C00
1F00
0780
1F00
7C00
F000
C000
ENDCHAR
STARTCHAR question
ENCODING 63
SWIDTH 565 0
DWIDTH 11 0
BBX 8 11 2 0
BITMAP
7E
FF
E7
07
1E
3C
38
00
38
7C
38
ENDCHAR
STARTCHAR at
ENCODING 64
SWIDTH 565 0
DWIDTH 11 0
BBX 10 14 1 -2
BITMAP
1E00
7F00
6380
E180
CF80
DF80
D980
D980
DFC0
CEC0
E000
7000
7F00
1F00
ENDCHAR
STARTCHAR A
ENCODING 65
SWIDTH 565 0
DWIDTH 11 0
BBX 10 11 1 0
BITMAP
1E00
1E00
1E00
3F00
3300
3300
7F80
7F80
6180
F3C0
F3C0
ENDCHAR
STARTCHAR B
ENCODING 66
SWIDTH 565 0
DWIDTH 11 0
BBX 10 11 1 0
BITMAP
FF00
FF80
7380
7380
7F00
7F80
71C0
71C0
71C0
FF80
FF00
ENDCHAR
STARTCHAR C
ENCODING 67
SWIDTH 565 0
DWIDTH 11 0
BBX 10 11 1 0
BITMAP
1EC0
7FC0
71C0
E0C0
E000
E000
E000
E000
71C0
7FC0
1F00
ENDCHAR
STARTCHAR D
ENCODING 68
SWIDTH 565 0
DWIDTH 11 0
BBX 10 11 1 0
BITMAP
FE00
FF80
7380
71C0
71C0
71C0
71C0
71C0
7380
FF80
FE00
ENDCHAR
STARTCHAR E
ENCODING 69
SWIDTH 565 0
DWIDTH 11 0
BBX 10 11 1 0
BITMAP
FFC0
FFC0
70C0
76C0
7E00
7E00
7600
70C0
70C0
FFC0
FFC0
ENDCHAR
STARTCHAR F
ENCODING 70
SWIDTH 565 0
DWIDTH 11 0
BBX 10 11 1 0
BITMAP
FFC0
FFC0
70C0
76C0
7E00
7E00
7600
7000
7000
F800
F800
ENDCHAR
STARTCHAR G
ENCODING 71
SWIDTH 565 0
DWIDTH 11 0
BBX 10 11 1 0
BITMAP
1EC0
7FC0
71C0
E0C0
E000
E7C0
E7C0
E1C0
71C0
7FC0
1F00
ENDCHAR
STARTCHAR H
ENCODING 72
SWIDTH 565 0
DWIDTH 11 0
BBX 10 11 1 0
BITMAP
F3C0
F3C0
7380
7380
7F80
7F80
7380
7380
7380
F3C0
F3C0
ENDCHAR
STARTCHAR I
ENCODING 73
SWIDTH 565 0
DWIDTH 11 0
BBX 9 11 1 0
BITMAP
FF80
FF80
1C00
1C00
1C00
1C00
1C00
1C00
1C00
FF80
FF80
ENDCHAR
STARTCHAR J
ENCODING 74
SWIDTH 565 0
DWIDTH 11 0
BBX 10 11 1 0
BITMAP
1FC0
1FC0
0700
0700
0700
0700
C700
C700
E700
FF00
7E00
ENDCHAR
STARTCHAR K
ENCODING 75
SWIDTH 565 0
DWIDTH 11 0
BBX 10 11 1 0
BITMAP
F3C0
F3C0
7700
7600
7C00
7E00
7E00
7700
7700
F3C0
F3C0
ENDCHAR
STARTCHAR L
ENCODING 76
SWIDTH 565 0
DWIDTH 11 0
BBX 9 11 1 0
BITMAP
F800
F800
7000
7000
7000
7000
7180
7180
7180
FF80
FF80
ENDCHAR
STARTCHAR M
ENCODING 77
SWIDTH 565 0
DWIDTH 11 0
BBX 10 11 1 0
BITMAP
E1C0
E1C0
7380
7380
7F80
7F80
6D80
6D80
6180
E1C0
E1C0
ENDCHAR
STARTCHAR N
ENCODING 78
SWIDTH 565 0
DWIDTH 11 0
BBX 10 11 1 0
BITMAP
F3C0
F3C0
7380
7B80
7B80
7F80
7780
7780
7380
F380
F380
ENDCHAR
STARTCHAR O
ENCODING 79
SWIDTH 565 0
DWIDTH 11 0
BBX 10 11 1 0
BITMAP
3F00
7F80
7380
E1C0
E1C0
E1C0
E1C0
E1C0
7380
7F80
3F00
ENDCHAR
STARTCHAR P
ENCODING 80
SWIDTH 565 0
DWIDTH 11 0
BBX 9 11 1 0
BITMAP
FF00
FF80
7380
7380
7380
7F80
7F00
7000
7000
F800
F800
ENDCHAR
STARTCHAR Q
ENCODING 81
SWIDTH 565 0
DWIDTH 11 0
BBX 10 14 1 -3
BITMAP
1E00
7F80
7380
E1C0
E1C0
E1C0
E1C0
E1C0
7380
7F80
1E00
1800
3FC0
3780
ENDCHAR
STARTCHAR R
ENCODING 82
SWIDTH 565 0
DWIDTH 11 0
BBX 10 11 1 0
BITMAP
FF00
FF80
7380
7380
7F00
7E00
7700
7700
7300
F3C0
F3C0
ENDCHAR
STARTCHAR S
ENCODING 83
SWIDTH 565 0
DWIDTH 11 0
BBX 8 11 2 0
BITMAP
3B
FF
E7
E3
F8
7E
0F
C7
E7
FF
DE
ENDCHAR
STARTCHAR T
ENCODING 84
SWIDTH 565 0
DWIDTH 11 0
BBX 11 11 0 0
BITMAP
FFE0
FFE0
CE60
CE60
CE60
0E00
0E00
0E00
0E00
3F80
3F80
ENDCHAR
STARTCHAR U
ENCODING 85
SWIDTH 565 0
DWIDTH 11 0
BBX 10 11 1 0
BITMAP
F3C0
F3C0
7380
7380
7380
7380
7380
7380
7380
7F80
3F00
ENDCHAR
STARTCHAR V
ENCODING 86
SWIDTH 565 0
DWIDTH 11 0
BBX 10 11 1 0
BITMAP
F3C0
F3C0
7380
7380
7380
3300
3300
3F00
1E00
1E00
0C00
ENDCHAR
STARTCHAR W
ENCODING 87
SWIDTH 565 0
DWIDTH 11 0
BBX 10 11 1 0
BITMAP
F3C0
F3C0
6180
6180
6D80
6D80
7F80
7F80
7380
3300
3300
ENDCHAR
STARTCHAR X
ENCODING 88
SWIDTH 565 0
DWIDTH 11 0
BBX 10 11 1 0
BITMAP
F3C0
F3C0
7380
3F00
1E00
1E00
1E00
3F00
7380
F3C0
F3C0
ENDCHAR
STARTCHAR Y
ENCODING 89
SWIDTH 565 0
DWIDTH 11 0
BBX 9 11 1 0
BITMAP
E380
E380
7700
7700
3E00
3E00
1C00
1C00
1C00
3E00
3E00
ENDCHAR
STARTCHAR Z
ENCODING 90
SWIDTH 565 0
DWIDTH 11 0
BBX 8 11 2 0
BITMAP
FF
FF
CE
CE
1C
1C
38
3B
73
7F
FF
ENDCHAR
STARTCHAR bracketleft
ENCODING 91
SWIDTH 565 0
DWIDTH 11 0
BBX 5 15 3 -3
BITMAP
F8
F8
E0
E0
E0
E0
E0
E0
E0
E0
E0
E0
E0
F8
F8
ENDCHAR
STARTCHAR backslash
ENCODING 92
SWIDTH 565 0
DWIDTH 11 0
BBX 8 14 2 -2
BITMAP
C0
E0
60
70
30
38
18
18
1C
0C
0E
06
07
03
ENDCHAR
STARTCHAR bracketright
ENCODING 93
SWIDTH 565 0
DWIDTH 11 0
BBX 5 15 3 -3
BITMAP
F8
F8
38
38
38
38
38
38
38
38
38
38
38
F8
F8
ENDCHAR
STARTCHAR asciicircum
ENCODING 94
SWIDTH 565 0
DWIDTH 11 0
BBX 8 4 2 5
BITMAP
18
3C
7E
C3
ENDCHAR
STARTCHAR underscore
ENCODING 95
SWIDTH 565 0
DWIDTH 11 0
BBX 10 2 1 0
BITMAP
FFC0
FFC0
ENDCHAR
STARTCHAR quoteleft
ENCODING 96
SWIDTH 565 0
DWIDTH 11 0
BBX 5 5 3 8
BITMAP
C0
E0
70
30
18
ENDCHAR
STARTCHAR a
ENCODING 97
SWIDTH 565 0
DWIDTH 11 0
BBX 10 9 1 0
BITMAP
3F00
7F80
0380
3F80
7F80
E380
E780
FFC0
7BC0
ENDCHAR
STARTCHAR b
ENCODING 98
SWIDTH 565 0
DWIDTH 11 0
BBX 10 12 1 0
BITMAP
F000
F000
7000
7700
7F80
7BC0
71C0
71C0
71C0
7BC0
FF80
F700
ENDCHAR
STARTCHAR c
ENCODING 99
SWIDTH 565 0
DWIDTH 11 0
BBX 10 9 1 0
BITMAP
3EC0
7FC0
F3C0
E1C0
E000
E000
F1C0
7FC0
3F00
ENDCHAR
STARTCHAR d
ENCODING 100
SWIDTH 565 0
DWIDTH 11 0
BBX 10 12 1 0
BITMAP
0F80
0F80
0380
3B80
7F80
F780
E380
E380
E380
F780
7FC0
3BC0
ENDCHAR
STARTCHAR e
ENCODING 101
SWIDTH 565 0
DWIDTH 11 0
BBX 10 9 1 0
BITMAP
3F00
7F80
E1C0
FFC0
FFC0
E000
F1C0
7FC0
3F00
ENDCHAR
STARTCHAR f
ENCODING 102
SWIDTH 565 0
DWIDTH 11 0
BBX 9 12 1 0
BITMAP
1F80
3F80
3800
FF00
FF00
3800
3800
3800
3800
3800
FF00
FF00
ENDCHAR
STARTCHAR g
ENCODING 103
SWIDTH 565 0
DWIDTH 11 0
BBX 10 13 1 -4
BITMAP
3BC0
7FC0
F780
E380
E380
E380
F780
7F80
3B80
0380
0380
7F00
7E00
ENDCHAR
STARTCHAR h
ENCODING 104
SWIDTH 565 0
DWIDTH 11 0
BBX 10 12 1 0
BITMAP
F000
F000
7000
7700
7F80
7B80
7380
7380
7380
7380
F3C0
F3C0
ENDCHAR
STARTCHAR i
ENCODING 105
SWIDTH 565 0
DWIDTH 11 0
BBX 9 13 1 0
BITMAP
1C00
1C00
1C00
0000
7C00
7C00
1C00
1C00
1C00
1C00
1C00
FF80
FF80
ENDCHAR
STARTCHAR j
ENCODING 106
SWIDTH 565 0
DWIDTH 11 0
BBX 7 17 2 -4
BITMAP
0E
0E
0E
00
7E
7E
0E
0E
0E
0E
0E
0E
0E
0E
0E
FC
F8
ENDCHAR
STARTCHAR k
ENCODING 107
SWIDTH 565 0
DWIDTH 11 0
BBX 10 12 1 0
BITMAP
F000
F000
7000
73C0
73C0
7700
7E00
7C00
7600
7700
F3C0
F3C0
ENDCHAR
STARTCHAR l
ENCODING 108
SWIDTH 565 0
DWIDTH 11 0
BBX 9 12 1 0
BITMAP
7C00
7C00
1C00
1C00
1C00
1C00
1C00
1C00
1C00
1C00
FF80
FF80
ENDCHAR
STARTCHAR m
ENCODING 109
SWIDTH 565 0
DWIDTH 11 0
BBX 10 9 1 0
BITMAP
DD80
FFC0
EDC0
EDC0
EDC0
EDC0
EDC0
EDC0
E1C0
ENDCHAR
STARTCHAR n
ENCODING 110
SWIDTH 565 0
DWIDTH 11 0
BBX 10 9 1 0
BITMAP
F700
FF80
7B80
7380
7380
7380
7380
F3C0
F3C0
ENDCHAR
STARTCHAR o
ENCODING 111
SWIDTH 565 0
DWIDTH 11 0
BBX 10 9 1 0
BITMAP
3F00
7F80
F3C0
E1C0
E1C0
E1C0
F3C0
7F80
3F00
ENDCHAR
STARTCHAR p
ENCODING 112
SWIDTH 565 0
DWIDTH 11 0
BBX 10 13 1 -4
BITMAP
F700
FF80
7BC0
71C0
71C0
71C0
7BC0
7F80
7700
7000
7000
FC00
FC00
ENDCHAR
STARTCHAR q
ENCODING 113
SWIDTH 565 0
DWIDTH 11 0
BBX 10 13 1 -4
BITMAP
3BC0
7FC0
F780
E380
E380
E380
F780
7F80
3B80
0380
0380
0FC0
0FC0
ENDCHAR
STARTCHAR r
ENCODING 114
SWIDTH 565 0
DWIDTH 11 0
BBX 10 9 1 0
BITMAP
F780
FFC0
3980
3800
3800
3800
3800
FF00
FF00
ENDCHAR
STARTCHAR s
ENCODING 115
SWIDTH 565 0
DWIDTH 11 0
BBX 8 9 2 0
BITMAP
7B
FF
E3
F0
7E
0F
C7
FF
DE
ENDCHAR
STARTCHAR t
ENCODING 116
SWIDTH 565 0
DWIDTH 11 0
BBX 10 12 1 0
BITMAP
3800
3800
3800
FF80
FF80
3800
3800
3800
3800
38C0
3FC0
1F00
ENDCHAR
STARTCHAR u
ENCODING 117
SWIDTH 565 0
DWIDTH 11 0
BBX 10 9 1 0
BITMAP
F780
F780
7380
7380
7380
7380
7780
7FC0
3BC0
ENDCHAR
STARTCHAR v
ENCODING 118
SWIDTH 565 0
DWIDTH 11 0
BBX 10 9 1 0
BITMAP
F3C0
F3C0
7380
7380
3300
3F00
1E00
1E00
0C00
ENDCHAR
STARTCHAR w
ENCODING 119
SWIDTH 565 0
DWIDTH 11 0
BBX 10 9 1 0
BITMAP
E1C0
E1C0
6D80
6D80
6D80
7F80
7F80
3300
3300
ENDCHAR
STARTCHAR x
ENCODING 120
SWIDTH 565 0
DWIDTH 11 0
BBX 10 9 1 0
BITMAP
F3C0
F3C0
3300
3F00
1E00
1E00
3300
F3C0
F3C0
ENDCHAR
STARTCHAR y
ENCODING 121
SWIDTH 565 0
DWIDTH 11 0
BBX 10 13 1 -4
BITMAP
F3C0
F3C0
7380
7380
3300
3F00
1E00
1E00
0C00
1C00
1800
3C00
3C00
ENDCHAR
STARTCHAR z
ENCODING 122
SWIDTH 565 0
DWIDTH 11 0
BBX 8 9 2 0
BITMAP
FF
FF
CE
DC
18
3B
73
FF
FF
ENDCHAR
STARTCHAR braceleft
ENCODING 123
SWIDTH 565 0
DWIDTH 11 0
BBX 7 16 2 -4
BITMAP
1E
3E
38
38
38
38
70
E0
70
38
38
38
38
38
3E
1E
ENDCHAR
STARTCHAR bar
ENCODING 124
SWIDTH 565 0
DWIDTH 11 0
BBX 3 17 4 -4
BITMAP
E0
E0
E0
E0
E0
E0
E0
E0
E0
E0
E0
E0
E0
E0
E0
E0
E0
ENDCHAR
STARTCHAR braceright
ENCODING 125
SWIDTH 565 0
DWIDTH 11 0
BBX 7 16 2 -4
BITMAP
F0
F8
38
38
38
38
1C
0E
1C
38
38
38
38
38
F8
F0
ENDCHAR
STARTCHAR asciitilde
ENCODING 126
SWIDTH 565 0
DWIDTH 11 0
BBX 9 3 1 6
BITMAP
7880
FF80
8F00
ENDCHAR
STARTCHAR OE
ENCODING 128
SWIDTH 565 0
DWIDTH 11 0
BBX 10 11 1 0
BITMAP
3FC0
7FC0
EE40
EE00
EF80
EF80
EE00
EE00
EE40
7FC0
3FC0
ENDCHAR
STARTCHAR oe
ENCODING 129
SWIDTH 565 0
DWIDTH 11 0
BBX 10 9 1 0
BITMAP
3B80
7FC0
EEC0
EFC0
EFC0
EE00
EEC0
7FC0
3B80
ENDCHAR
STARTCHAR Ydieresis
ENCODING 130
SWIDTH 565 0
DWIDTH 11 0
BBX 9 15 1 0
BITMAP
E380
E380
0000
0000
F780
F780
7700
7700
3E00
3E00
1C00
1C00
1C00
7F00
7F00
ENDCHAR
STARTCHAR Error
ENCODING 159
SWIDTH 565 0
DWIDTH 11 0
BBX 11 18 0 -3
BITMAP
3F80
7FC0
FFE0
F1E0
F1E0
F1E0
F800
7C00
3E00
1F00
0F00
0F00
0000
0000
0F00
1F80
1F80
0F00
ENDCHAR
STARTCHAR space
ENCODING 160
SWIDTH 565 0
DWIDTH 11 0
BBX 1 1 0 0
BITMAP
00
ENDCHAR
STARTCHAR exclamdown
ENCODING 161
SWIDTH 565 0
DWIDTH 11 0
BBX 5 12 3 -1
BITMAP
70
F8
70
00
70
70
70
70
70
70
70
70
ENDCHAR
STARTCHAR cent
ENCODING 162
SWIDTH 565 0
DWIDTH 11 0
BBX 9 12 1 -1
BITMAP
0C00
0C00
3F80
7F80
F180
E000
E000
F180
7F80
3F00
0C00
0C00
ENDCHAR
STARTCHAR sterling
ENCODING 163
SWIDTH 565 0
DWIDTH 11 0
BBX 10 11 1 0
BITMAP
1F00
3F80
3980
3800
FF00
FF00
1800
1C00
1CC0
7FC0
7780
ENDCHAR
STARTCHAR currency
ENCODING 164
SWIDTH 565 0
DWIDTH 11 0
BBX 10 9 1 1
BITMAP
C0C0
6D80
3F00
7380
7380
7380
3F00
6D80
C0C0
ENDCHAR
STARTCHAR yen
ENCODING 165
SWIDTH 565 0
DWIDTH 11 0
BBX 11 11 0 0
BITMAP
FBE0
FBE0
71C0
FBE0
FBE0
1B00
FFE0
FFE0
0E00
1F00
1F00
ENDCHAR
STARTCHAR brokenbar
ENCODING 166
SWIDTH 565 0
DWIDTH 11 0
BBX 3 17 4 -4
BITMAP
E0
E0
E0
E0
E0
E0
E0
00
00
00
E0
E0
E0
E0
E0
E0
E0
ENDCHAR
STARTCHAR section
ENCODING 167
SWIDTH 565 0
DWIDTH 11 0
BBX 10 13 1 -2
BITMAP
1F80
3F80
7180
F800
DC00
EF00
F380
3DC0
1EC0
07C0
6380
7F80
7E00
ENDCHAR
STARTCHAR dieresis
ENCODING 168
SWIDTH 565 0
DWIDTH 11 0
BBX 10 3 1 11
BITMAP
6180
F3C0
6180
ENDCHAR
STARTCHAR copyright
ENCODING 169
SWIDTH 565 0
DWIDTH 11 0
BBX 11 12 0 0
BITMAP
1F00
7FC0
60C0
CE60
DE60
D860
D860
DE60
CE60
60C0
7FC0
1F00
ENDCHAR
STARTCHAR ordfeminine
ENCODING 170
SWIDTH 565 0
DWIDTH 11 0
BBX 8 11 2 2
BITMAP
7C
FE
0E
7E
FE
EE
FF
7B
00
FF
FF
ENDCHAR
STARTCHAR guillemotleft
ENCODING 171
SWIDTH 565 0
DWIDTH 11 0
BBX 7 7 2 0
BITMAP
22
66
EE
CC
EE
66
22
ENDCHAR
STARTCHAR logicalnot
ENCODING 172
SWIDTH 565 0
DWIDTH 11 0
BBX 9 6 1 2
BITMAP
FF80
FF80
0380
0380
0380
0380
ENDCHAR
STARTCHAR hyphen
ENCODING 173
SWIDTH 565 0
DWIDTH 11 0
BBX 9 2 1 3
BITMAP
FF80
FF80
ENDCHAR
STARTCHAR registered
ENCODING 174
SWIDTH 565 0
DWIDTH 11 0
BBX 11 12 0 0
BITMAP
1F00
7FC0
60C0
DE60
DF60
DB60
DE60
DF60
DB60
60C0
7FC0
1F00
ENDCHAR
STARTCHAR macron
ENCODING 175
SWIDTH 565 0
DWIDTH 11 0
BBX 7 2 2 11
BITMAP
FE
FE
ENDCHAR
STARTCHAR degree
ENCODING 176
SWIDTH 565 0
DWIDTH 11 0
BBX 6 6 3 6
BITMAP
78
FC
CC
CC
FC
78
ENDCHAR
STARTCHAR plusminus
ENCODING 177
SWIDTH 565 0
DWIDTH 11 0
BBX 9 11 1 0
BITMAP
1C00
1C00
1C00
FF80
FF80
1C00
1C00
1C00
0000
FF80
FF80
ENDCHAR
STARTCHAR twosuperior
ENCODING 178
SWIDTH 565 0
DWIDTH 11 0
BBX 6 7 3 6
BITMAP
78
FC
1C
38
70
FC
FC
ENDCHAR
STARTCHAR threesuperior
ENCODING 179
SWIDTH 565 0
DWIDTH 11 0
BBX 6 7 3 6
BITMAP
78
FC
1C
38
1C
FC
78
ENDCHAR
STARTCHAR acute
ENCODING 180
SWIDTH 565 0
DWIDTH 11 0
BBX 5 3 3 11
BITMAP
38
70
C0
ENDCHAR
STARTCHAR mu
ENCODING 181
SWIDTH 565 0
DWIDTH 11 0
BBX 10 13 1 -4
BITMAP
71C0
71C0
71C0
71C0
7380
E380
E780
FFC0
F9C0
E000
E000
E000
E000
ENDCHAR
STARTCHAR paragraph
ENCODING 182
SWIDTH 565 0
DWIDTH 11 0
BBX 10 13 1 -2
BITMAP
3FC0
7FC0
FD80
FD80
FD80
7D80
3D80
0D80
0D80
0D80
0D80
1DC0
1DC0
ENDCHAR
STARTCHAR periodcentered
ENCODING 183
SWIDTH 565 0
DWIDTH 11 0
BBX 4 4 4 3
BITMAP
60
F0
F0
60
ENDCHAR
STARTCHAR cedilla
ENCODING 184
SWIDTH 565 0
DWIDTH 11 0
BBX 6 5 3 -5
BITMAP
30
38
0C
FC
78
ENDCHAR
STARTCHAR onesuperior
ENCODING 185
SWIDTH 565 0
DWIDTH 11 0
BBX 4 7 4 6
BITMAP
E0
E0
60
60
60
F0
F0
ENDCHAR
STARTCHAR ordmasculine
ENCODING 186
SWIDTH 565 0
DWIDTH 11 0
BBX 8 11 2 2
BITMAP
3C
7E
E7
E7
E7
E7
7E
3C
00
FF
FF
ENDCHAR
STARTCHAR guillemotright
ENCODING 187
SWIDTH 565 0
DWIDTH 11 0
BBX 7 7 2 0
BITMAP
88
CC
EE
66
EE
CC
88
ENDCHAR
STARTCHAR onequarter
ENCODING 188
SWIDTH 565 0
DWIDTH 11 0
BBX 10 16 1 -4
BITMAP
E000
E000
6000
6000
6000
F080
F380
0F00
3C00
F180
C380
0780
0DC0
0FC0
0180
0180
ENDCHAR
STARTCHAR onehalf
ENCODING 189
SWIDTH 565 0
DWIDTH 11 0
BBX 10 16 1 -4
BITMAP
E000
E000
6000
6000
6000
F080
F380
0F00
3C00
F380
C7C0
00C0
0180
0300
07C0
07C0
ENDCHAR
STARTCHAR threequarters
ENCODING 190
SWIDTH 565 0
DWIDTH 11 0
BBX 10 16 1 -4
BITMAP
7000
F800
1800
3000
1800
F880
7380
0F00
3C00
F180
C380
0780
0DC0
0FC0
0180
0180
ENDCHAR
STARTCHAR questiondown
ENCODING 191
SWIDTH 565 0
DWIDTH 11 0
BBX 8 12 2 -1
BITMAP
1C
3E
1C
00
1C
1C
38
70
E0
E7
FF
7E
ENDCHAR
STARTCHAR Agrave
ENCODING 192
SWIDTH 565 0
DWIDTH 11 0
BBX 10 15 1 0
BITMAP
3800
1C00
0600
0000
1E00
1E00
1E00
3F00
3300
3300
7F80
7F80
6180
F3C0
F3C0
ENDCHAR
STARTCHAR Aacute
ENCODING 193
SWIDTH 565 0
DWIDTH 11 0
BBX 10 15 1 0
BITMAP
0700
0E00
1800
0000
1E00
1E00
1E00
3F00
3300
3300
7F80
7F80
6180
F3C0
F3C0
ENDCHAR
STARTCHAR Acircumflex
ENCODING 194
SWIDTH 565 0
DWIDTH 11 0
BBX 10 15 1 0
BITMAP
0C00
3F00
7380
0000
1E00
1E00
1E00
3F00
3300
3300
7F80
7F80
6180
F3C0
F3C0
ENDCHAR
STARTCHAR Atilde
ENCODING 195
SWIDTH 565 0
DWIDTH 11 0
BBX 10 15 1 0
BITMAP
3880
7F80
4700
0000
1E00
1E00
1E00
3F00
3300
3300
7F80
7F80
6180
F3C0
F3C0
ENDCHAR
STARTCHAR Adieresis
ENCODING 196
SWIDTH 565 0
DWIDTH 11 0
BBX 10 15 1 0
BITMAP
7380
7380
0000
0000
1E00
1E00
1E00
3F00
3300
3300
7F80
7F80
6180
F3C0
F3C0
ENDCHAR
STARTCHAR Aring
ENCODING 197
SWIDTH 565 0
DWIDTH 11 0
BBX 10 15 1 0
BITMAP
1E00
3F00
3300
3300
1E00
1E00
1E00
3F00
3300
3300
7F80
7F80
6180
F3C0
F3C0
ENDCHAR
STARTCHAR AE
ENCODING 198
SWIDTH 565 0
DWIDTH 11 0
BBX 10 11 1 0
BITMAP
7FC0
7FC0
6E40
6E00
6F80
6F80
7E00
FE00
EE40
EFC0
EFC0
ENDCHAR
STARTCHAR Ccedilla
ENCODING 199
SWIDTH 565 0
DWIDTH 11 0
BBX 10 16 1 -5
BITMAP
1EC0
7FC0
71C0
E0C0
E000
E000
E000
E000
71C0
7FC0
1F00
0C00
0E00
0300
3F00
1E00
ENDCHAR
STARTCHAR Egrave
ENCODING 200
SWIDTH 565 0
DWIDTH 11 0
BBX 10 15 1 0
BITMAP
3800
1C00
0600
0000
FFC0
FFC0
70C0
76C0
7E00
7E00
7600
70C0
70C0
FFC0
FFC0
ENDCHAR
STARTCHAR Eacute
ENCODING 201
SWIDTH 565 0
DWIDTH 11 0
BBX 10 15 1 0
BITMAP
0380
0700
0C00
0000
FFC0
FFC0
70C0
76C0
7E00
7E00
7600
70C0
70C0
FFC0
FFC0
ENDCHAR
STARTCHAR Ecircumflex
ENCODING 202
SWIDTH 565 0
DWIDTH 11 0
BBX 10 15 1 0
BITMAP
0C00
3F00
7380
0000
FFC0
FFC0
70C0
76C0
7E00
7E00
7600
70C0
70C0
FFC0
FFC0
ENDCHAR
STARTCHAR Edieresis
ENCODING 203
SWIDTH 565 0
DWIDTH 11 0
BBX 10 15 1 0
BITMAP
7380
7380
0000
0000
FFC0
FFC0
70C0
76C0
7E00
7E00
7600
70C0
70C0
FFC0
FFC0
ENDCHAR
STARTCHAR Igrave
ENCODING 204
SWIDTH 565 0
DWIDTH 11 0
BBX 9 15 1 0
BITMAP
7000
3800
0C00
0000
FF80
FF80
1C00
1C00
1C00
1C00
1C00
1C00
1C00
FF80
FF80
ENDCHAR
STARTCHAR Iacute
ENCODING 205
SWIDTH 565 0
DWIDTH 11 0
BBX 9 15 1 0
BITMAP
0700
0E00
1800
0000
FF80
FF80
1C00
1C00
1C00
1C00
1C00
1C00
1C00
FF80
FF80
ENDCHAR
STARTCHAR Icircumflex
ENCODING 206
SWIDTH 565 0
DWIDTH 11 0
BBX 9 15 1 0
BITMAP
0800
3E00
7700
0000
FF80
FF80
1C00
1C00
1C00
1C00
1C00
1C00
1C00
FF80
FF80
ENDCHAR
STARTCHAR Idieresis
ENCODING 207
SWIDTH 565 0
DWIDTH 11 0
BBX 9 15 1 0
BITMAP
E380
E380
0000
0000
FF80
FF80
1C00
1C00
1C00
1C00
1C00
1C00
1C00
FF80
FF80
ENDCHAR
STARTCHAR Eth
ENCODING 208
SWIDTH 565 0
DWIDTH 11 0
BBX 10 11 1 0
BITMAP
FE00
FF80
7380
71C0
FDC0
FDC0
71C0
71C0
7380
FF80
FE00
ENDCHAR
STARTCHAR Ntilde
ENCODING 209
SWIDTH 565 0
DWIDTH 11 0
BBX 10 15 1 0
BITMAP
3880
7F80
4700
0000
F3C0
F3C0
7380
7B80
7B80
7F80
7780
7780
7380
F380
F380
ENDCHAR
STARTCHAR Ograve
ENCODING 210
SWIDTH 565 0
DWIDTH 11 0
BBX 10 15 1 0
BITMAP
3800
1C00
0600
0000
1E00
7F80
7380
E1C0
E1C0
E1C0
E1C0
E1C0
7380
7F80
1E00
ENDCHAR
STARTCHAR Oacute
ENCODING 211
SWIDTH 565 0
DWIDTH 11 0
BBX 10 15 1 0
BITMAP
0700
0E00
1800
0000
1E00
7F80
7380
E1C0
E1C0
E1C0
E1C0
E1C0
7380
7F80
1E00
ENDCHAR
STARTCHAR Ocircumflex
ENCODING 212
SWIDTH 565 0
DWIDTH 11 0
BBX 10 15 1 0
BITMAP
0C00
3F00
7380
0000
1E00
7F80
7380
E1C0
E1C0
E1C0
E1C0
E1C0
7380
7F80
1E00
ENDCHAR
STARTCHAR Otilde
ENCODING 213
SWIDTH 565 0
DWIDTH 11 0
BBX 10 15 1 0
BITMAP
3880
7F80
4700
0000
1E00
7F80
7380
E1C0
E1C0
E1C0
E1C0
E1C0
7380
7F80
1E00
ENDCHAR
STARTCHAR Odieresis
ENCODING 214
SWIDTH 565 0
DWIDTH 11 0
BBX 10 15 1 0
BITMAP
7380
7380
0000
0000
1E00
7F80
7380
E1C0
E1C0
E1C0
E1C0
E1C0
7380
7F80
1E00
ENDCHAR
STARTCHAR multiply
ENCODING 215
SWIDTH 565 0
DWIDTH 11 0
BBX 8 8 2 1
BITMAP
42
E7
7E
3C
3C
7E
E7
42
ENDCHAR
STARTCHAR Oslash
ENCODING 216
SWIDTH 565 0
DWIDTH 11 0
BBX 10 11 1 0
BITMAP
1EC0
7FC0
7380
E7C0
E7C0
EDC0
EDC0
F9C0
7380
FF80
DE00
ENDCHAR
STARTCHAR Ugrave
ENCODING 217
SWIDTH 565 0
DWIDTH 11 0
BBX 10 15 1 0
BITMAP
3800
1C00
0600
0000
F3C0
F3C0
7380
7380
7380
7380
7380
7380
7380
7F80
3F00
ENDCHAR
STARTCHAR Uacute
ENCODING 218
SWIDTH 565 0
DWIDTH 11 0
BBX 10 15 1 0
BITMAP
0700
0E00
1800
0000
F3C0
F3C0
7380
7380
7380
7380
7380
7380
7380
7F80
3F00
ENDCHAR
STARTCHAR Ucircumflex
ENCODING 219
SWIDTH 565 0
DWIDTH 11 0
BBX 10 15 1 0
BITMAP
0C00
3F00
7380
0000
F3C0
F3C0
7380
7380
7380
7380
7380
7380
7380
7F80
3F00
ENDCHAR
STARTCHAR Udieresis
ENCODING 220
SWIDTH 565 0
DWIDTH 11 0
BBX 10 15 1 0
BITMAP
7380
7380
0000
0000
F3C0
F3C0
7380
7380
7380
7380
7380
7380
7380
7F80
3F00
ENDCHAR
STARTCHAR Yacute
ENCODING 221
SWIDTH 565 0
DWIDTH 11 0
BBX 9 15 1 0
BITMAP
0700
0E00
1800
0000
F780
F780
7700
7700
3E00
3E00
1C00
1C00
1C00
3E00
3E00
ENDCHAR
STARTCHAR Thorn
ENCODING 222
SWIDTH 565 0
DWIDTH 11 0
BBX 9 11 1 0
BITMAP
F000
F000
7F00
7F80
7380
7380
7F80
7F00
7000
F800
F800
ENDCHAR
STARTCHAR germandbls
ENCODING 223
SWIDTH 565 0
DWIDTH 11 0
BBX 10 12 1 0
BITMAP
3F00
7F80
7380
7380
7700
7780
71C0
71C0
71C0
71C0
F7C0
F780
ENDCHAR
STARTCHAR agrave
ENCODING 224
SWIDTH 565 0
DWIDTH 11 0
BBX 10 14 1 0
BITMAP
3800
1C00
0600
0000
0000
3F00
7F80
0380
3F80
7F80
E380
E780
FFC0
7BC0
ENDCHAR
STARTCHAR aacute
ENCODING 225
SWIDTH 565 0
DWIDTH 11 0
BBX 10 14 1 0
BITMAP
0700
0E00
1800
0000
0000
3F00
7F80
0380
3F80
7F80
E380
E780
FFC0
7BC0
ENDCHAR
STARTCHAR acircumflex
ENCODING 226
SWIDTH 565 0
DWIDTH 11 0
BBX 10 14 1 0
BITMAP
1E00
3F00
7380
0000
0000
3F00
7F80
0380
3F80
7F80
E380
E780
FFC0
7BC0
ENDCHAR
STARTCHAR atilde
ENCODING 227
SWIDTH 565 0
DWIDTH 11 0
BBX 10 14 1 0
BITMAP
3880
7F80
4700
0000
0000
3F00
7F80
0380
3F80
7F80
E380
E780
FFC0
7BC0
ENDCHAR
STARTCHAR adieresis
ENCODING 228
SWIDTH 565 0
DWIDTH 11 0
BBX 10 14 1 0
BITMAP
6180
F3C0
6180
0000
0000
3F00
7F80
0380
3F80
7F80
E380
E780
FFC0
7BC0
ENDCHAR
STARTCHAR aring
ENCODING 229
SWIDTH 565 0
DWIDTH 11 0
BBX 10 14 1 0
BITMAP
3E00
7700
7700
3E00
0000
3F00
7F80
0380
3F80
7F80
E380
E780
FFC0
7BC0
ENDCHAR
STARTCHAR ae
ENCODING 230
SWIDTH 565 0
DWIDTH 11 0
BBX 10 9 1 0
BITMAP
7B80
7FC0
0EC0
7FC0
FFC0
CE00
CEC0
FFC0
7380
ENDCHAR
STARTCHAR ccedilla
ENCODING 231
SWIDTH 565 0
DWIDTH 11 0
BBX 10 14 1 -5
BITMAP
3EC0
7FC0
F3C0
E1C0
E000
E000
F1C0
7FC0
3F00
0C00
0E00
0300
3F00
1E00
ENDCHAR
STARTCHAR egrave
ENCODING 232
SWIDTH 565 0
DWIDTH 11 0
BBX 10 14 1 0
BITMAP
3800
1C00
0600
0000
0000
3F00
7F80
E1C0
FFC0
FFC0
E000
F1C0
7FC0
3F00
ENDCHAR
STARTCHAR eacute
ENCODING 233
SWIDTH 565 0
DWIDTH 11 0
BBX 10 14 1 0
BITMAP
0700
0E00
1800
0000
0000
3F00
7F80
E1C0
FFC0
FFC0
E000
F1C0
7FC0
3F00
ENDCHAR
STARTCHAR ecircumflex
ENCODING 234
SWIDTH 565 0
DWIDTH 11 0
BBX 10 14 1 0
BITMAP
1E00
3F00
7380
0000
0000
3F00
7F80
E1C0
FFC0
FFC0
E000
F1C0
7FC0
3F00
ENDCHAR
STARTCHAR edieresis
ENCODING 235
SWIDTH 565 0
DWIDTH 11 0
BBX 10 14 1 0
BITMAP
6180
F3C0
6180
0000
0000
3F00
7F80
E1C0
FFC0
FFC0
E000
F1C0
7FC0
3F00
ENDCHAR
STARTCHAR igrave
ENCODING 236
SWIDTH 565 0
DWIDTH 11 0
BBX 9 14 1 0
BITMAP
7000
3800
0C00
0000
0000
7C00
7C00
1C00
1C00
1C00
1C00
1C00
FF80
FF80
ENDCHAR
STARTCHAR iacute
ENCODING 237
SWIDTH 565 0
DWIDTH 11 0
BBX 9 14 1 0
BITMAP
0E00
1C00
3000
0000
0000
7C00
7C00
1C00
1C00
1C00
1C00
1C00
FF80
FF80
ENDCHAR
STARTCHAR icircumflex
ENCODING 238
SWIDTH 565 0
DWIDTH 11 0
BBX 9 14 1 0
BITMAP
3C00
7E00
E700
0000
0000
7C00
7C00
1C00
1C00
1C00
1C00
1C00
FF80
FF80
ENDCHAR
STARTCHAR idieresis
ENCODING 239
SWIDTH 565 0
DWIDTH 11 0
BBX 10 14 1 0
BITMAP
6180
F3C0
6180
0000
0000
3E00
3E00
0E00
0E00
0E00
0E00
0E00
7FC0
7FC0
ENDCHAR
STARTCHAR eth
ENCODING 240
SWIDTH 565 0
DWIDTH 11 0
BBX 10 12 1 0
BITMAP
3B00
1E00
3700
0380
3F80
7FC0
F3C0
E1C0
E1C0
F3C0
7F80
3F00
ENDCHAR
STARTCHAR ntilde
ENCODING 241
SWIDTH 565 0
DWIDTH 11 0
BBX 10 14 1 0
BITMAP
3880
7F80
4700
0000
0000
F700
FF80
7B80
7380
7380
7380
7380
F3C0
F3C0
ENDCHAR
STARTCHAR ograve
ENCODING 242
SWIDTH 565 0
DWIDTH 11 0
BBX 10 14 1 0
BITMAP
3800
1C00
0600
0000
0000
3F00
7F80
F3C0
E1C0
E1C0
E1C0
F3C0
7F80
3F00
ENDCHAR
STARTCHAR oacute
ENCODING 243
SWIDTH 565 0
DWIDTH 11 0
BBX 10 14 1 0
BITMAP
0700
0E00
1800
0000
0000
3F00
7F80
F3C0
E1C0
E1C0
E1C0
F3C0
7F80
3F00
ENDCHAR
STARTCHAR ocircumflex
ENCODING 244
SWIDTH 565 0
DWIDTH 11 0
BBX 10 14 1 0
BITMAP
1E00
3F00
7380
0000
0000
3F00
7F80
F3C0
E1C0
E1C0
E1C0
F3C0
7F80
3F00
ENDCHAR
STARTCHAR otilde
ENCODING 245
SWIDTH 565 0
DWIDTH 11 0
BBX 10 14 1 0
BITMAP
3880
7F80
4700
0000
0000
3F00
7F80
F3C0
E1C0
E1C0
E1C0
F3C0
7F80
3F00
ENDCHAR
STARTCHAR odieresis
ENCODING 246
SWIDTH 565 0
DWIDTH 11 0
BBX 10 14 1 0
BITMAP
6180
F3C0
6180
0000
0000
3F00
7F80
F3C0
E1C0
E1C0
E1C0
F3C0
7F80
3F00
ENDCHAR
STARTCHAR divide
ENCODING 247
SWIDTH 565 0
DWIDTH 11 0
BBX 10 10 1 0
BITMAP
0C00
1E00
0C00
0000
FFC0
FFC0
0000
0C00
1E00
0C00
ENDCHAR
STARTCHAR oslash
ENCODING 248
SWIDTH 565 0
DWIDTH 11 0
BBX 10 9 1 0
BITMAP
3EC0
7F80
F3C0
E7C0
EDC0
F9C0
F3C0
7F80
DF00
ENDCHAR
STARTCHAR ugrave
ENCODING 249
SWIDTH 565 0
DWIDTH 11 0
BBX 10 14 1 0
BITMAP
3800
1C00
0600
0000
0000
F780
F780
7380
7380
7380
7380
7780
7FC0
3BC0
ENDCHAR
STARTCHAR uacute
ENCODING 250
SWIDTH 565 0
DWIDTH 11 0
BBX 10 14 1 0
BITMAP
0700
0E00
1800
0000
0000
F780
F780
7380
7380
7380
7380
7780
7FC0
3BC0
ENDCHAR
STARTCHAR ucircumflex
ENCODING 251
SWIDTH 565 0
DWIDTH 11 0
BBX 10 14 1 0
BITMAP
1E00
3F00
7380
0000
0000
F780
F780
7380
7380
7380
7380
7780
7FC0
3BC0
ENDCHAR
STARTCHAR udieresis
ENCODING 252
SWIDTH 565 0
DWIDTH 11 0
BBX 10 14 1 0
BITMAP
6180
F3C0
6180
0000
0000
F780
F780
7380
7380
7380
7380
7780
7FC0
3BC0
ENDCHAR
STARTCHAR yacute
ENCODING 253
SWIDTH 565 0
DWIDTH 11 0
BBX 10 18 1 -4
BITMAP
0380
0700
0C00
0000
0000
F3C0
F3C0
7380
7380
3300
3F00
1E00
1E00
0C00
1C00
1800
7E00
7E00
ENDCHAR
STARTCHAR thorn
ENCODING 254
SWIDTH 565 0
DWIDTH 11 0
BBX 10 16 1 -4
BITMAP
F000
F000
7000
7700
7F80
7BC0
71C0
71C0
71C0
7BC0
7F80
7700
7000
7000
FC00
FC00
ENDCHAR
STARTCHAR ydieresis
ENCODING 255
SWIDTH 565 0
DWIDTH 11 0
BBX 10 18 1 -4
BITMAP
6180
F3C0
6180
0000
0000
F3C0
F3C0
7380
7380
3300
3F00
1E00
1E00
0C00
1C00
1800
7E00
7E00
ENDCHAR
ENDFONT
