STARTFONT 2.1
COMMENT  
COMMENT  Copyright 1988 Bitstream, Inc., Cambridge, Massachusetts, USA
COMMENT  Bitstream and Charter are registered trademarks of Bitstream, Inc.
COMMENT  
COMMENT  The names "Bitstream" and "Charter" are registered trademarks of
COMMENT  Bitstream, Inc.  Permission to use these trademarks is hereby
COMMENT  granted only in association with the images described in this file.
COMMENT  
COMMENT  Permission to use, copy, modify, and distribute this software and
COMMENT  its documentation for any purpose and without fee is hereby
COMMENT  granted, provided that the above copyright notice appear in all
COMMENT  copies and that both that copyright notice and this permission
COMMENT  notice appear in supporting documentation, and that the name of
COMMENT  Bitstream not be used in advertising or publicity pertaining to
COMMENT  distribution of the software without specific, written prior
COMMENT  permission.  Bitstream makes no representations about the
COMMENT  suitability of this software for any purpose.  It is provided "as
COMMENT  is" without express or implied warranty.
COMMENT  
COMMENT  BITSTREAM DISCLAIMS ALL WARRANTIES WITH REGARD TO THIS SOFTWARE,
COMMENT  INCLUDING ALL IMPLIED WARRANTIES OF MERCHANTABILITY AND FITNESS, IN
COMMENT  NO EVENT SHALL BITSTREAM BE LIABLE FOR ANY SPECIAL, INDIRECT OR
COMMENT  CONSEQUENTIAL DAMAGES OR ANY DAMAGES WHATSOEVER RESULTING FROM LOSS
COMMENT  OF USE, DATA OR PROFITS, WHETHER IN AN ACTION OF CONTRACT,
COMMENT  NEGLIGENCE OR OTHER TORTIOUS ACTION, ARISING OUT OF OR IN
COMMENT  CONNECTION WITH THE USE OR PERFORMANCE OF THIS SOFTWARE.
COMMENT  
COMMENT  
COMMENT Fontware CVTBDF v1.0
FONT -Bitstream-Charter-Bold-I-Normal--12-120-75-75-P-74-ISO8859-1
SIZE 12 75 75
FONTBOUNDINGBOX 15 15 -2 -3
STARTPROPERTIES 22
COMMENT Begin LogicalFontDescription
FONTNAME_REGISTRY ""
FAMILY_NAME "Charter"
FOUNDRY "Bitstream"
WEIGHT_NAME "Bold"
SETWIDTH_NAME "Normal"
SLANT "I"
ADD_STYLE_NAME ""
PIXEL_SIZE 12
POINT_SIZE 120
RESOLUTION_X 75
RESOLUTION_Y 75
SPACING "P"
AVERAGE_WIDTH 74
CHARSET_REGISTRY "ISO8859"
CHARSET_ENCODING "1"
COMMENT END LogicalFontDescription
FONT_DESCENT 3
FONT_ASCENT 12
CAP_HEIGHT 9
X_HEIGHT 6
CHARSET_COLLECTIONS "ASCII ISOLATIN1"
FULL_NAME "Bitstream Charter Black Italic"
COPYRIGHT "Copyright 1987 by Bitstream Inc. Charter Registered trademark of Bitstream Inc."
COMMENT ****** end of font properties
ENDPROPERTIES
CHARS 191
STARTCHAR space
ENCODING 32
SWIDTH 319 0
DWIDTH 4 0
BBX 1 1 0 0
BITMAP
00
ENDCHAR
STARTCHAR exclam
ENCODING 33
SWIDTH 343 0
DWIDTH 4 0
BBX 3 9 0 0
BITMAP
60
60
60
40
40
40
00
c0
c0
ENDCHAR
STARTCHAR quotedbl
ENCODING 34
SWIDTH 339 0
DWIDTH 5 0
BBX 3 4 1 4
BITMAP
a0
a0
a0
a0
ENDCHAR
STARTCHAR numbersign
ENCODING 35
SWIDTH 769 0
DWIDTH 10 0
BBX 8 9 1 -1
BITMAP
0a00
1200
1600
7f00
2400
fe00
2800
4800
5000
ENDCHAR
STARTCHAR dollar
ENCODING 36
SWIDTH 639 0
DWIDTH 8 0
BBX 7 10 0 -1
BITMAP
1e
6a
6a
70
3c
1e
d4
dc
f8
20
ENDCHAR
STARTCHAR percent
ENCODING 37
SWIDTH 981 0
DWIDTH 12 0
BBX 11 8 1 0
BITMAP
70c0
c980
8b00
9ec0
7f20
1a20
3260
61c0
ENDCHAR
STARTCHAR ampersand
ENCODING 38
SWIDTH 787 0
DWIDTH 10 0
BBX 9 9 0 0
BITMAP
3c00
6600
6600
7c00
3380
5900
ce00
ee00
7380
ENDCHAR
STARTCHAR quoteright
ENCODING 39
SWIDTH 331 0
DWIDTH 4 0
BBX 3 4 1 4
BITMAP
60
60
20
c0
ENDCHAR
STARTCHAR parenleft
ENCODING 40
SWIDTH 440 0
DWIDTH 6 0
BBX 5 10 1 -2
BITMAP
18
30
60
60
c0
c0
c0
c0
c0
60
ENDCHAR
STARTCHAR parenright
ENCODING 41
SWIDTH 440 0
DWIDTH 5 0
BBX 5 10 -1 -2
BITMAP
30
18
18
18
18
18
30
30
20
c0
ENDCHAR
STARTCHAR asterisk
ENCODING 42
SWIDTH 500 0
DWIDTH 6 0
BBX 5 4 1 4
BITMAP
20
f8
20
f0
ENDCHAR
STARTCHAR plus
ENCODING 43
SWIDTH 833 0
DWIDTH 10 0
BBX 7 7 2 0
BITMAP
10
10
10
fe
10
10
10
ENDCHAR
STARTCHAR comma
ENCODING 44
SWIDTH 322 0
DWIDTH 4 0
BBX 3 4 -1 -2
BITMAP
60
60
20
c0
ENDCHAR
STARTCHAR hyphen
ENCODING 45
SWIDTH 333 0
DWIDTH 4 0
BBX 4 1 0 2
BITMAP
f0
ENDCHAR
STARTCHAR period
ENCODING 46
SWIDTH 322 0
DWIDTH 4 0
BBX 2 2 0 0
BITMAP
c0
c0
ENDCHAR
STARTCHAR slash
ENCODING 47
SWIDTH 481 0
DWIDTH 6 0
BBX 8 10 -2 -1
BITMAP
0300
0200
0400
0c00
0800
1000
3000
2000
4000
c000
ENDCHAR
STARTCHAR zero
ENCODING 48
SWIDTH 639 0
DWIDTH 8 0
BBX 7 9 1 0
BITMAP
1c
66
66
c6
c6
c6
cc
cc
70
ENDCHAR
STARTCHAR one
ENCODING 49
SWIDTH 639 0
DWIDTH 8 0
BBX 5 9 1 0
BITMAP
38
78
18
30
30
30
30
30
f8
ENDCHAR
STARTCHAR two
ENCODING 50
SWIDTH 639 0
DWIDTH 8 0
BBX 7 9 0 0
BITMAP
3c
66
66
0e
0c
18
62
fe
fc
ENDCHAR
STARTCHAR three
ENCODING 51
SWIDTH 639 0
DWIDTH 8 0
BBX 7 9 0 0
BITMAP
1c
66
66
0c
3c
0e
c6
cc
78
ENDCHAR
STARTCHAR four
ENCODING 52
SWIDTH 639 0
DWIDTH 8 0
BBX 8 9 0 0
BITMAP
0600
0e00
1e00
3600
2c00
4c00
ff00
0c00
1c00
ENDCHAR
STARTCHAR five
ENCODING 53
SWIDTH 639 0
DWIDTH 8 0
BBX 8 9 0 0
BITMAP
3f00
3e00
6000
7c00
0e00
0600
c600
cc00
7800
ENDCHAR
STARTCHAR six
ENCODING 54
SWIDTH 639 0
DWIDTH 8 0
BBX 7 9 0 0
BITMAP
0e
38
60
7c
c6
c6
c6
cc
78
ENDCHAR
STARTCHAR seven
ENCODING 55
SWIDTH 639 0
DWIDTH 8 0
BBX 7 9 1 0
BITMAP
7e
fe
84
0c
18
10
30
60
c0
ENDCHAR
STARTCHAR eight
ENCODING 56
SWIDTH 639 0
DWIDTH 8 0
BBX 7 9 0 0
BITMAP
3c
66
66
74
3c
ce
ce
cc
78
ENDCHAR
STARTCHAR nine
ENCODING 57
SWIDTH 639 0
DWIDTH 8 0
BBX 7 9 1 0
BITMAP
3c
66
c6
c6
c6
7c
0c
30
c0
ENDCHAR
STARTCHAR colon
ENCODING 58
SWIDTH 387 0
DWIDTH 5 0
BBX 3 6 1 0
BITMAP
60
60
00
00
c0
c0
ENDCHAR
STARTCHAR semicolon
ENCODING 59
SWIDTH 387 0
DWIDTH 5 0
BBX 4 8 0 -2
BITMAP
30
30
00
00
60
60
20
c0
ENDCHAR
STARTCHAR less
ENCODING 60
SWIDTH 833 0
DWIDTH 10 0
BBX 7 7 1 0
BITMAP
02
0c
70
80
70
0c
02
ENDCHAR
STARTCHAR equal
ENCODING 61
SWIDTH 833 0
DWIDTH 10 0
BBX 7 3 2 2
BITMAP
fe
00
fe
ENDCHAR
STARTCHAR greater
ENCODING 62
SWIDTH 833 0
DWIDTH 10 0
BBX 7 7 2 0
BITMAP
80
70
1c
02
1c
70
80
ENDCHAR
STARTCHAR question
ENCODING 63
SWIDTH 519 0
DWIDTH 6 0
BBX 5 9 1 0
BITMAP
70
d8
98
38
60
40
00
c0
c0
ENDCHAR
STARTCHAR at
ENCODING 64
SWIDTH 942 0
DWIDTH 12 0
BBX 10 10 1 -2
BITMAP
1f00
6080
4f40
9a40
b240
b680
9b00
4000
2180
1e00
ENDCHAR
STARTCHAR A
ENCODING 65
SWIDTH 688 0
DWIDTH 8 0
BBX 9 9 -1 0
BITMAP
0600
0e00
0e00
1600
1300
3f00
2300
4300
e780
ENDCHAR
STARTCHAR B
ENCODING 66
SWIDTH 694 0
DWIDTH 9 0
BBX 8 9 0 0
BITMAP
7e00
3300
3300
3200
3e00
7300
6300
6600
fc00
ENDCHAR
STARTCHAR C
ENCODING 67
SWIDTH 671 0
DWIDTH 8 0
BBX 8 9 0 0
BITMAP
1f00
3300
6300
c000
c000
c000
c200
6600
3e00
ENDCHAR
STARTCHAR D
ENCODING 68
SWIDTH 762 0
DWIDTH 10 0
BBX 10 9 0 0
BITMAP
3f00
1980
38c0
38c0
30c0
30c0
7180
7380
fe00
ENDCHAR
STARTCHAR E
ENCODING 69
SWIDTH 639 0
DWIDTH 8 0
BBX 8 9 0 0
BITMAP
7f00
3100
3000
3400
3c00
6400
6200
6200
fe00
ENDCHAR
STARTCHAR F
ENCODING 70
SWIDTH 590 0
DWIDTH 7 0
BBX 8 9 0 0
BITMAP
7f00
3100
3000
3600
3c00
7400
6000
6000
f000
ENDCHAR
STARTCHAR G
ENCODING 71
SWIDTH 750 0
DWIDTH 9 0
BBX 9 9 0 0
BITMAP
1f80
7180
6100
c000
cf80
c300
c700
6600
3e00
ENDCHAR
STARTCHAR H
ENCODING 72
SWIDTH 813 0
DWIDTH 11 0
BBX 11 9 0 0
BITMAP
7de0
38c0
30c0
31c0
3f80
3180
7180
6180
f7c0
ENDCHAR
STARTCHAR I
ENCODING 73
SWIDTH 407 0
DWIDTH 5 0
BBX 5 9 0 0
BITMAP
78
30
30
30
20
60
60
60
f0
ENDCHAR
STARTCHAR J
ENCODING 74
SWIDTH 521 0
DWIDTH 6 0
BBX 7 9 -1 0
BITMAP
1e
0c
0c
0c
0c
08
d8
d8
f0
ENDCHAR
STARTCHAR K
ENCODING 75
SWIDTH 708 0
DWIDTH 9 0
BBX 10 9 0 0
BITMAP
7dc0
3180
3300
3600
3e00
3600
6700
6300
f3c0
ENDCHAR
STARTCHAR L
ENCODING 76
SWIDTH 583 0
DWIDTH 8 0
BBX 7 9 0 0
BITMAP
78
30
30
30
30
70
62
66
fe
ENDCHAR
STARTCHAR M
ENCODING 77
SWIDTH 986 0
DWIDTH 13 0
BBX 13 9 0 0
BITMAP
7c78
3c70
2cb0
2cb0
2d60
2d60
6e60
4660
e4f0
ENDCHAR
STARTCHAR N
ENCODING 78
SWIDTH 771 0
DWIDTH 9 0
BBX 10 9 0 0
BITMAP
79c0
3880
3880
2d80
2d00
6f00
4700
4700
e300
ENDCHAR
STARTCHAR O
ENCODING 79
SWIDTH 780 0
DWIDTH 10 0
BBX 8 9 1 0
BITMAP
1e00
6600
6300
c300
c300
c300
c600
6600
3800
ENDCHAR
STARTCHAR P
ENCODING 80
SWIDTH 644 0
DWIDTH 8 0
BBX 8 9 0 0
BITMAP
7e00
3300
3300
3300
3600
7c00
6000
6000
f000
ENDCHAR
STARTCHAR Q
ENCODING 81
SWIDTH 780 0
DWIDTH 10 0
BBX 8 11 1 -2
BITMAP
1e00
6600
6300
c300
c300
c300
c600
6600
3c00
0c00
0f00
ENDCHAR
STARTCHAR R
ENCODING 82
SWIDTH 715 0
DWIDTH 9 0
BBX 9 9 0 0
BITMAP
7e00
3300
3300
3600
3c00
6600
6600
6600
f380
ENDCHAR
STARTCHAR S
ENCODING 83
SWIDTH 593 0
DWIDTH 7 0
BBX 7 9 0 0
BITMAP
1e
64
64
70
38
1c
cc
c8
f0
ENDCHAR
STARTCHAR T
ENCODING 84
SWIDTH 627 0
DWIDTH 7 0
BBX 8 9 0 0
BITMAP
ff00
9900
9900
1800
3000
3000
3000
3000
7800
ENDCHAR
STARTCHAR U
ENCODING 85
SWIDTH 766 0
DWIDTH 10 0
BBX 9 9 1 0
BITMAP
f380
6100
6100
6300
c200
c200
c200
c600
7800
ENDCHAR
STARTCHAR V
ENCODING 86
SWIDTH 669 0
DWIDTH 8 0
BBX 9 9 0 0
BITMAP
f380
6100
6200
6200
7400
3400
3800
3800
3000
ENDCHAR
STARTCHAR W
ENCODING 87
SWIDTH 981 0
DWIDTH 12 0
BBX 12 9 1 0
BITMAP
f270
6720
6760
6b40
6b40
7b80
7380
7380
6300
ENDCHAR
STARTCHAR X
ENCODING 88
SWIDTH 671 0
DWIDTH 9 0
BBX 10 9 -1 0
BITMAP
7dc0
3980
1b00
1e00
0c00
1e00
3600
6700
e780
ENDCHAR
STARTCHAR Y
ENCODING 89
SWIDTH 634 0
DWIDTH 8 0
BBX 9 9 0 0
BITMAP
f380
6100
7200
3400
3800
1800
3800
3000
7800
ENDCHAR
STARTCHAR Z
ENCODING 90
SWIDTH 611 0
DWIDTH 8 0
BBX 8 9 0 0
BITMAP
7f00
6700
4e00
1c00
1800
3800
7200
e200
fe00
ENDCHAR
STARTCHAR bracketleft
ENCODING 91
SWIDTH 495 0
DWIDTH 6 0
BBX 5 10 1 -2
BITMAP
38
60
60
60
60
40
40
c0
c0
f0
ENDCHAR
STARTCHAR backslash
ENCODING 92
SWIDTH 481 0
DWIDTH 6 0
BBX 6 10 0 -1
BITMAP
c0
40
40
20
20
10
10
08
08
04
ENDCHAR
STARTCHAR bracketright
ENCODING 93
SWIDTH 495 0
DWIDTH 6 0
BBX 6 10 -1 -2
BITMAP
3c
0c
0c
18
18
18
18
18
30
f0
ENDCHAR
STARTCHAR asciicircum
ENCODING 94
SWIDTH 1000 0
DWIDTH 12 0
BBX 7 3 2 5
BITMAP
38
6c
82
ENDCHAR
STARTCHAR underscore
ENCODING 95
SWIDTH 500 0
DWIDTH 6 0
BBX 6 1 0 -3
BITMAP
fc
ENDCHAR
STARTCHAR quoteleft
ENCODING 96
SWIDTH 331 0
DWIDTH 4 0
BBX 3 4 1 4
BITMAP
60
80
c0
c0
ENDCHAR
STARTCHAR a
ENCODING 97
SWIDTH 650 0
DWIDTH 8 0
BBX 8 6 0 0
BITMAP
3e00
6600
c600
c400
cc00
7f00
ENDCHAR
STARTCHAR b
ENCODING 98
SWIDTH 627 0
DWIDTH 8 0
BBX 7 9 0 0
BITMAP
f0
60
60
7c
66
46
c6
cc
78
ENDCHAR
STARTCHAR c
ENCODING 99
SWIDTH 498 0
DWIDTH 6 0
BBX 5 6 0 0
BITMAP
38
78
c0
c0
c8
70
ENDCHAR
STARTCHAR d
ENCODING 100
SWIDTH 660 0
DWIDTH 8 0
BBX 7 9 0 0
BITMAP
0e
06
06
3e
64
c4
c4
cc
7e
ENDCHAR
STARTCHAR e
ENCODING 101
SWIDTH 523 0
DWIDTH 7 0
BBX 6 6 0 0
BITMAP
38
6c
dc
f0
c4
78
ENDCHAR
STARTCHAR f
ENCODING 102
SWIDTH 373 0
DWIDTH 5 0
BBX 9 12 -2 -3
BITMAP
0380
0580
0c00
1f00
0c00
1c00
1800
1800
1800
1000
d000
e000
ENDCHAR
STARTCHAR g
ENCODING 103
SWIDTH 574 0
DWIDTH 7 0
BBX 8 9 0 -3
BITMAP
1c00
6700
6600
3800
3800
5e00
c600
c600
7800
ENDCHAR
STARTCHAR h
ENCODING 104
SWIDTH 664 0
DWIDTH 8 0
BBX 8 9 0 0
BITMAP
7000
3000
2000
6e00
7600
6600
6600
6c00
c700
ENDCHAR
STARTCHAR i
ENCODING 105
SWIDTH 361 0
DWIDTH 4 0
BBX 3 9 1 0
BITMAP
60
60
00
e0
40
c0
c0
c0
e0
ENDCHAR
STARTCHAR j
ENCODING 106
SWIDTH 338 0
DWIDTH 4 0
BBX 6 12 -2 -3
BITMAP
0c
0c
00
3c
18
18
18
18
18
10
b0
c0
ENDCHAR
STARTCHAR k
ENCODING 107
SWIDTH 627 0
DWIDTH 8 0
BBX 8 9 0 0
BITMAP
7000
3000
3000
7700
6b00
7c00
6c00
6e00
e700
ENDCHAR
STARTCHAR l
ENCODING 108
SWIDTH 352 0
DWIDTH 4 0
BBX 3 9 1 0
BITMAP
e0
60
60
40
40
c0
c0
c0
e0
ENDCHAR
STARTCHAR m
ENCODING 109
SWIDTH 988 0
DWIDTH 12 0
BBX 12 6 0 0
BITMAP
ffe0
6660
6660
6660
ccc0
ccf0
ENDCHAR
STARTCHAR n
ENCODING 110
SWIDTH 669 0
DWIDTH 8 0
BBX 8 6 0 0
BITMAP
fe00
6600
6600
6600
cc00
cf00
ENDCHAR
STARTCHAR o
ENCODING 111
SWIDTH 620 0
DWIDTH 8 0
BBX 7 6 0 0
BITMAP
3c
66
c6
c6
cc
78
ENDCHAR
STARTCHAR p
ENCODING 112
SWIDTH 637 0
DWIDTH 8 0
BBX 8 9 -1 -3
BITMAP
7f00
3300
3300
2300
6600
7c00
6000
6000
f000
ENDCHAR
STARTCHAR q
ENCODING 113
SWIDTH 637 0
DWIDTH 8 0
BBX 7 9 0 -3
BITMAP
3e
66
c6
c4
cc
7c
0c
0c
1e
ENDCHAR
STARTCHAR r
ENCODING 114
SWIDTH 519 0
DWIDTH 7 0
BBX 7 6 0 0
BITMAP
fe
76
60
60
e0
e0
ENDCHAR
STARTCHAR s
ENCODING 115
SWIDTH 488 0
DWIDTH 6 0
BBX 6 6 0 0
BITMAP
38
6c
70
3c
c8
70
ENDCHAR
STARTCHAR t
ENCODING 116
SWIDTH 414 0
DWIDTH 5 0
BBX 4 8 1 0
BITMAP
20
60
f0
40
c0
c0
c0
e0
ENDCHAR
STARTCHAR u
ENCODING 117
SWIDTH 669 0
DWIDTH 8 0
BBX 8 6 0 0
BITMAP
e600
6600
ce00
cc00
cc00
ff00
ENDCHAR
STARTCHAR v
ENCODING 118
SWIDTH 551 0
DWIDTH 7 0
BBX 7 6 0 0
BITMAP
e6
66
64
68
28
30
ENDCHAR
STARTCHAR w
ENCODING 119
SWIDTH 856 0
DWIDTH 11 0
BBX 11 6 0 0
BITMAP
e660
6660
6a40
6b40
7380
6300
ENDCHAR
STARTCHAR x
ENCODING 120
SWIDTH 565 0
DWIDTH 7 0
BBX 8 6 -1 0
BITMAP
7700
3f00
1800
1800
ec00
cf00
ENDCHAR
STARTCHAR y
ENCODING 121
SWIDTH 535 0
DWIDTH 7 0
BBX 8 9 -1 -3
BITMAP
7300
3200
3400
3400
3800
1800
1000
9000
e000
ENDCHAR
STARTCHAR z
ENCODING 122
SWIDTH 509 0
DWIDTH 7 0
BBX 7 6 0 0
BITMAP
7e
5c
58
34
76
fc
ENDCHAR
STARTCHAR braceleft
ENCODING 123
SWIDTH 500 0
DWIDTH 6 0
BBX 5 10 0 -2
BITMAP
18
30
30
30
c0
30
30
30
30
18
ENDCHAR
STARTCHAR bar
ENCODING 124
SWIDTH 500 0
DWIDTH 6 0
BBX 1 12 3 -3
BITMAP
80
80
80
80
80
80
80
80
80
80
80
80
ENDCHAR
STARTCHAR braceright
ENCODING 125
SWIDTH 500 0
DWIDTH 6 0
BBX 5 10 1 -2
BITMAP
c0
60
60
60
18
60
60
60
60
c0
ENDCHAR
STARTCHAR c0126
ENCODING 126
SWIDTH 1000 0
DWIDTH 12 0
BBX 8 2 2 6
BITMAP
7100
8e00
ENDCHAR
STARTCHAR space
ENCODING 160
SWIDTH 319 0
DWIDTH 4 0
BBX 1 1 0 0
BITMAP
00
ENDCHAR
STARTCHAR exclamdown
ENCODING 161
SWIDTH 343 0
DWIDTH 4 0
BBX 3 9 0 0
BITMAP
60
60
00
40
40
40
c0
c0
c0
ENDCHAR
STARTCHAR cent
ENCODING 162
SWIDTH 639 0
DWIDTH 8 0
BBX 7 8 1 -1
BITMAP
08
3e
6a
c8
d0
d4
3c
10
ENDCHAR
STARTCHAR sterling
ENCODING 163
SWIDTH 639 0
DWIDTH 8 0
BBX 8 9 0 0
BITMAP
0e00
1b00
3300
3000
7e00
3000
2000
fe00
fe00
ENDCHAR
STARTCHAR currency
ENCODING 164
SWIDTH 606 0
DWIDTH 8 0
BBX 7 7 1 1
BITMAP
82
7c
44
44
44
7c
82
ENDCHAR
STARTCHAR yen
ENCODING 165
SWIDTH 671 0
DWIDTH 8 0
BBX 9 9 0 0
BITMAP
7b80
7100
3200
7700
1c00
ff00
1800
1800
7c00
ENDCHAR
STARTCHAR brokenbar
ENCODING 166
SWIDTH 500 0
DWIDTH 6 0
BBX 1 10 3 -2
BITMAP
80
80
80
80
00
00
80
80
80
80
ENDCHAR
STARTCHAR section
ENCODING 167
SWIDTH 500 0
DWIDTH 6 0
BBX 7 10 -1 -2
BITMAP
1e
32
38
3e
46
62
3c
0c
8c
f8
ENDCHAR
STARTCHAR dieresis
ENCODING 168
SWIDTH 500 0
DWIDTH 6 0
BBX 5 2 1 7
BITMAP
d8
d8
ENDCHAR
STARTCHAR copyright
ENCODING 169
SWIDTH 900 0
DWIDTH 11 0
BBX 10 9 1 0
BITMAP
1e00
2100
4e80
9240
b040
9240
4e80
2100
1e00
ENDCHAR
STARTCHAR ordfeminine
ENCODING 170
SWIDTH 488 0
DWIDTH 6 0
BBX 6 4 0 4
BITMAP
3c
4c
c8
7c
ENDCHAR
STARTCHAR guillemotleft
ENCODING 171
SWIDTH 458 0
DWIDTH 6 0
BBX 6 5 0 0
BITMAP
24
68
90
d8
48
ENDCHAR
STARTCHAR logicalnot
ENCODING 172
SWIDTH 833 0
DWIDTH 10 0
BBX 7 3 2 2
BITMAP
fe
02
02
ENDCHAR
STARTCHAR hyphen
ENCODING 173
SWIDTH 333 0
DWIDTH 4 0
BBX 4 1 0 2
BITMAP
f0
ENDCHAR
STARTCHAR registered
ENCODING 174
SWIDTH 900 0
DWIDTH 11 0
BBX 10 9 1 0
BITMAP
1e00
2100
7e80
9240
9c40
9240
7b80
2100
1e00
ENDCHAR
STARTCHAR macron
ENCODING 175
SWIDTH 500 0
DWIDTH 6 0
BBX 5 1 1 7
BITMAP
f8
ENDCHAR
STARTCHAR degree
ENCODING 176
SWIDTH 329 0
DWIDTH 4 0
BBX 4 4 0 4
BITMAP
60
90
90
60
ENDCHAR
STARTCHAR plusminus
ENCODING 177
SWIDTH 833 0
DWIDTH 10 0
BBX 7 7 2 0
BITMAP
10
10
fe
10
10
00
fe
ENDCHAR
STARTCHAR twosuperior
ENCODING 178
SWIDTH 422 0
DWIDTH 5 0
BBX 4 5 0 4
BITMAP
30
50
30
50
f0
ENDCHAR
STARTCHAR threesuperior
ENCODING 179
SWIDTH 422 0
DWIDTH 5 0
BBX 4 5 0 4
BITMAP
70
10
60
10
e0
ENDCHAR
STARTCHAR acute
ENCODING 180
SWIDTH 500 0
DWIDTH 7 0
BBX 4 2 3 7
BITMAP
70
c0
ENDCHAR
STARTCHAR mu
ENCODING 181
SWIDTH 578 0
DWIDTH 7 0
BBX 8 8 -1 -3
BITMAP
2400
6400
4400
4d00
7600
8000
8000
8000
ENDCHAR
STARTCHAR paragraph
ENCODING 182
SWIDTH 500 0
DWIDTH 6 0
BBX 6 10 0 -1
BITMAP
7c
e8
e8
e8
e8
68
08
08
08
08
ENDCHAR
STARTCHAR periodcentered
ENCODING 183
SWIDTH 322 0
DWIDTH 4 0
BBX 2 2 1 3
BITMAP
c0
c0
ENDCHAR
STARTCHAR cedilla
ENCODING 184
SWIDTH 500 0
DWIDTH 6 0
BBX 3 3 1 -3
BITMAP
60
20
e0
ENDCHAR
STARTCHAR onesuperior
ENCODING 185
SWIDTH 422 0
DWIDTH 5 0
BBX 3 5 1 4
BITMAP
60
60
40
40
e0
ENDCHAR
STARTCHAR ordmasculine
ENCODING 186
SWIDTH 465 0
DWIDTH 6 0
BBX 6 4 0 4
BITMAP
38
cc
cc
70
ENDCHAR
STARTCHAR guillemotright
ENCODING 187
SWIDTH 458 0
DWIDTH 6 0
BBX 5 5 0 0
BITMAP
90
58
28
d0
a0
ENDCHAR
STARTCHAR onequarter
ENCODING 188
SWIDTH 972 0
DWIDTH 12 0
BBX 11 9 1 0
BITMAP
6100
6200
4200
4400
e440
08c0
1140
13e0
20c0
ENDCHAR
STARTCHAR onehalf
ENCODING 189
SWIDTH 972 0
DWIDTH 12 0
BBX 10 9 1 0
BITMAP
6100
6200
4200
4400
e4c0
0940
10c0
1140
23c0
ENDCHAR
STARTCHAR threequarters
ENCODING 190
SWIDTH 972 0
DWIDTH 12 0
BBX 12 9 0 0
BITMAP
7080
1100
6100
1200
e220
0460
08a0
09f0
1060
ENDCHAR
STARTCHAR questiondown
ENCODING 191
SWIDTH 519 0
DWIDTH 7 0
BBX 6 9 0 0
BITMAP
1c
0c
00
08
38
60
c4
cc
78
ENDCHAR
STARTCHAR Agrave
ENCODING 192
SWIDTH 688 0
DWIDTH 8 0
BBX 9 11 -1 0
BITMAP
0c00
0600
0600
0e00
0e00
1600
1300
3f00
2300
4300
e780
ENDCHAR
STARTCHAR Aacute
ENCODING 193
SWIDTH 688 0
DWIDTH 8 0
BBX 9 11 -1 0
BITMAP
0380
0600
0600
0e00
0e00
1600
1300
3f00
2300
4300
e780
ENDCHAR
STARTCHAR Acircumflex
ENCODING 194
SWIDTH 688 0
DWIDTH 8 0
BBX 9 11 -1 0
BITMAP
0600
0d00
0600
0e00
0e00
1600
1300
3f00
2300
4300
e780
ENDCHAR
STARTCHAR Atilde
ENCODING 195
SWIDTH 688 0
DWIDTH 8 0
BBX 9 11 -1 0
BITMAP
0d00
1600
0600
0e00
0e00
1600
1300
3f00
2300
4300
e780
ENDCHAR
STARTCHAR Adieresis
ENCODING 196
SWIDTH 688 0
DWIDTH 8 0
BBX 9 11 -1 0
BITMAP
1b00
1b00
0600
0e00
0e00
1600
1300
3f00
2300
4300
e780
ENDCHAR
STARTCHAR Aring
ENCODING 197
SWIDTH 688 0
DWIDTH 8 0
BBX 9 12 -1 0
BITMAP
0600
0600
0000
0600
0e00
0e00
1600
1300
3f00
2300
4300
e780
ENDCHAR
STARTCHAR AE
ENCODING 198
SWIDTH 951 0
DWIDTH 12 0
BBX 13 9 -1 0
BITMAP
07f8
0398
0580
0da0
09e0
1fa0
2300
6310
e7f0
ENDCHAR
STARTCHAR Ccedilla
ENCODING 199
SWIDTH 671 0
DWIDTH 8 0
BBX 8 12 0 -3
BITMAP
1f00
3300
6300
c000
c000
c000
c200
6600
3e00
1800
0800
3800
ENDCHAR
STARTCHAR Egrave
ENCODING 200
SWIDTH 639 0
DWIDTH 8 0
BBX 8 11 0 0
BITMAP
1800
0c00
7f00
3100
3000
3400
3c00
6400
6200
6200
fe00
ENDCHAR
STARTCHAR Eacute
ENCODING 201
SWIDTH 639 0
DWIDTH 8 0
BBX 8 11 0 0
BITMAP
0700
0c00
7f00
3100
3000
3400
3c00
6400
6200
6200
fe00
ENDCHAR
STARTCHAR Ecircumflex
ENCODING 202
SWIDTH 639 0
DWIDTH 8 0
BBX 8 11 0 0
BITMAP
0c00
1a00
7f00
3100
3000
3400
3c00
6400
6200
6200
fe00
ENDCHAR
STARTCHAR Edieresis
ENCODING 203
SWIDTH 639 0
DWIDTH 8 0
BBX 8 11 0 0
BITMAP
3600
3600
7f00
3100
3000
3400
3c00
6400
6200
6200
fe00
ENDCHAR
STARTCHAR Igrave
ENCODING 204
SWIDTH 407 0
DWIDTH 5 0
BBX 5 11 0 0
BITMAP
30
18
78
30
30
30
20
60
60
60
f0
ENDCHAR
STARTCHAR Iacute
ENCODING 205
SWIDTH 407 0
DWIDTH 5 0
BBX 7 11 0 0
BITMAP
0e
18
78
30
30
30
20
60
60
60
f0
ENDCHAR
STARTCHAR Icircumflex
ENCODING 206
SWIDTH 407 0
DWIDTH 5 0
BBX 6 11 0 0
BITMAP
18
34
78
30
30
30
20
60
60
60
f0
ENDCHAR
STARTCHAR Idieresis
ENCODING 207
SWIDTH 407 0
DWIDTH 5 0
BBX 6 11 0 0
BITMAP
6c
6c
78
30
30
30
20
60
60
60
f0
ENDCHAR
STARTCHAR Eth
ENCODING 208
SWIDTH 762 0
DWIDTH 10 0
BBX 10 9 0 0
BITMAP
3f00
1980
38c0
38c0
7cc0
30c0
3180
7380
fe00
ENDCHAR
STARTCHAR Ntilde
ENCODING 209
SWIDTH 771 0
DWIDTH 9 0
BBX 10 11 0 0
BITMAP
0d00
1600
79c0
3880
3880
2d80
2d00
6f00
4700
4700
e300
ENDCHAR
STARTCHAR Ograve
ENCODING 210
SWIDTH 780 0
DWIDTH 10 0
BBX 8 11 1 0
BITMAP
1800
0c00
1e00
6600
6300
c300
c300
c300
c600
6600
3800
ENDCHAR
STARTCHAR Oacute
ENCODING 211
SWIDTH 780 0
DWIDTH 10 0
BBX 8 11 1 0
BITMAP
0700
0c00
1e00
6600
6300
c300
c300
c300
c600
6600
3800
ENDCHAR
STARTCHAR Ocircumflex
ENCODING 212
SWIDTH 780 0
DWIDTH 10 0
BBX 8 11 1 0
BITMAP
0c00
1a00
1e00
6600
6300
c300
c300
c300
c600
6600
3800
ENDCHAR
STARTCHAR Otilde
ENCODING 213
SWIDTH 780 0
DWIDTH 10 0
BBX 8 11 1 0
BITMAP
1a00
2c00
1e00
6600
6300
c300
c300
c300
c600
6600
3800
ENDCHAR
STARTCHAR Odieresis
ENCODING 214
SWIDTH 780 0
DWIDTH 10 0
BBX 8 11 1 0
BITMAP
3600
3600
1e00
6600
6300
c300
c300
c300
c600
6600
3800
ENDCHAR
STARTCHAR multiply
ENCODING 215
SWIDTH 833 0
DWIDTH 10 0
BBX 7 7 2 0
BITMAP
82
44
28
10
28
44
82
ENDCHAR
STARTCHAR Oslash
ENCODING 216
SWIDTH 780 0
DWIDTH 10 0
BBX 8 10 1 -1
BITMAP
1f00
6200
6700
cb00
d300
d300
e600
6600
7800
8000
ENDCHAR
STARTCHAR Ugrave
ENCODING 217
SWIDTH 766 0
DWIDTH 10 0
BBX 9 11 1 0
BITMAP
1800
0c00
f380
6100
6100
6300
c200
c200
c200
c600
7800
ENDCHAR
STARTCHAR Uacute
ENCODING 218
SWIDTH 766 0
DWIDTH 10 0
BBX 9 11 1 0
BITMAP
0700
0c00
f380
6100
6100
6300
c200
c200
c200
c600
7800
ENDCHAR
STARTCHAR Ucircumflex
ENCODING 219
SWIDTH 766 0
DWIDTH 10 0
BBX 9 11 1 0
BITMAP
0c00
1a00
f380
6100
6100
6300
c200
c200
c200
c600
7800
ENDCHAR
STARTCHAR Udieresis
ENCODING 220
SWIDTH 766 0
DWIDTH 10 0
BBX 9 11 1 0
BITMAP
3600
3600
f380
6100
6100
6300
c200
c200
c200
c600
7800
ENDCHAR
STARTCHAR Yacute
ENCODING 221
SWIDTH 634 0
DWIDTH 8 0
BBX 9 11 0 0
BITMAP
0700
0c00
f380
6100
7200
3400
3800
1800
3800
3000
7800
ENDCHAR
STARTCHAR Thorn
ENCODING 222
SWIDTH 644 0
DWIDTH 8 0
BBX 8 9 0 0
BITMAP
7c00
3e00
3300
3300
3300
3600
7c00
6000
f000
ENDCHAR
STARTCHAR germandbls
ENCODING 223
SWIDTH 697 0
DWIDTH 9 0
BBX 10 12 -2 -3
BITMAP
0380
0cc0
0cc0
0980
1b00
1980
18c0
1ec0
1380
1000
e000
c000
ENDCHAR
STARTCHAR agrave
ENCODING 224
SWIDTH 650 0
DWIDTH 8 0
BBX 8 9 0 0
BITMAP
1800
0c00
0000
3e00
6600
c600
c400
cc00
7f00
ENDCHAR
STARTCHAR aacute
ENCODING 225
SWIDTH 650 0
DWIDTH 8 0
BBX 8 9 0 0
BITMAP
0700
0c00
0000
3e00
6600
c600
c400
cc00
7f00
ENDCHAR
STARTCHAR acircumflex
ENCODING 226
SWIDTH 650 0
DWIDTH 8 0
BBX 8 9 0 0
BITMAP
0c00
1a00
0000
3e00
6600
c600
c400
cc00
7f00
ENDCHAR
STARTCHAR atilde
ENCODING 227
SWIDTH 650 0
DWIDTH 8 0
BBX 8 9 0 0
BITMAP
1a00
2c00
0000
3e00
6600
c600
c400
cc00
7f00
ENDCHAR
STARTCHAR adieresis
ENCODING 228
SWIDTH 650 0
DWIDTH 8 0
BBX 8 9 0 0
BITMAP
3600
3600
0000
3e00
6600
c600
c400
cc00
7f00
ENDCHAR
STARTCHAR aring
ENCODING 229
SWIDTH 650 0
DWIDTH 8 0
BBX 8 10 0 0
BITMAP
1800
1400
1400
1800
3e00
6600
c600
c400
cc00
7f00
ENDCHAR
STARTCHAR ae
ENCODING 230
SWIDTH 796 0
DWIDTH 10 0
BBX 9 6 0 0
BITMAP
3b00
6d80
3f00
c800
cc80
ff00
ENDCHAR
STARTCHAR ccedilla
ENCODING 231
SWIDTH 498 0
DWIDTH 6 0
BBX 5 9 0 -3
BITMAP
38
78
c0
c0
c8
70
30
10
70
ENDCHAR
STARTCHAR egrave
ENCODING 232
SWIDTH 523 0
DWIDTH 7 0
BBX 6 9 0 0
BITMAP
30
18
00
38
6c
dc
f0
c4
78
ENDCHAR
STARTCHAR eacute
ENCODING 233
SWIDTH 523 0
DWIDTH 7 0
BBX 7 9 0 0
BITMAP
0e
18
00
38
6c
dc
f0
c4
78
ENDCHAR
STARTCHAR ecircumflex
ENCODING 234
SWIDTH 523 0
DWIDTH 7 0
BBX 6 9 0 0
BITMAP
18
34
00
38
6c
dc
f0
c4
78
ENDCHAR
STARTCHAR edieresis
ENCODING 235
SWIDTH 523 0
DWIDTH 7 0
BBX 6 9 0 0
BITMAP
6c
6c
00
38
6c
dc
f0
c4
78
ENDCHAR
STARTCHAR igrave
ENCODING 236
SWIDTH 361 0
DWIDTH 4 0
BBX 4 9 0 0
BITMAP
60
30
00
e0
60
c0
c0
c0
f0
ENDCHAR
STARTCHAR iacute
ENCODING 237
SWIDTH 361 0
DWIDTH 4 0
BBX 6 9 0 0
BITMAP
1c
30
00
e0
60
c0
c0
c0
f0
ENDCHAR
STARTCHAR icircumflex
ENCODING 238
SWIDTH 361 0
DWIDTH 4 0
BBX 5 9 0 0
BITMAP
30
68
00
e0
60
c0
c0
c0
f0
ENDCHAR
STARTCHAR idieresis
ENCODING 239
SWIDTH 361 0
DWIDTH 4 0
BBX 5 9 0 0
BITMAP
d8
d8
00
e0
60
c0
c0
c0
f0
ENDCHAR
STARTCHAR eth
ENCODING 240
SWIDTH 645 0
DWIDTH 8 0
BBX 7 9 0 0
BITMAP
3a
1c
2c
3e
66
c6
c6
cc
78
ENDCHAR
STARTCHAR ntilde
ENCODING 241
SWIDTH 669 0
DWIDTH 8 0
BBX 8 9 0 0
BITMAP
1a00
2c00
0000
fe00
6600
6600
6600
cc00
cf00
ENDCHAR
STARTCHAR ograve
ENCODING 242
SWIDTH 620 0
DWIDTH 8 0
BBX 7 9 0 0
BITMAP
30
18
00
3c
66
c6
c6
cc
78
ENDCHAR
STARTCHAR oacute
ENCODING 243
SWIDTH 620 0
DWIDTH 8 0
BBX 7 9 0 0
BITMAP
0e
18
00
3c
66
c6
c6
cc
78
ENDCHAR
STARTCHAR ocircumflex
ENCODING 244
SWIDTH 620 0
DWIDTH 8 0
BBX 7 9 0 0
BITMAP
18
34
00
3c
66
c6
c6
cc
78
ENDCHAR
STARTCHAR otilde
ENCODING 245
SWIDTH 620 0
DWIDTH 8 0
BBX 7 9 0 0
BITMAP
34
58
00
3c
66
c6
c6
cc
78
ENDCHAR
STARTCHAR odieresis
ENCODING 246
SWIDTH 620 0
DWIDTH 8 0
BBX 7 9 0 0
BITMAP
6c
6c
00
3c
66
c6
c6
cc
78
ENDCHAR
STARTCHAR divide
ENCODING 247
SWIDTH 833 0
DWIDTH 10 0
BBX 8 7 1 0
BITMAP
1800
1800
0000
ff00
0000
1800
1800
ENDCHAR
STARTCHAR oslash
ENCODING 248
SWIDTH 620 0
DWIDTH 8 0
BBX 7 8 0 -1
BITMAP
04
3c
6e
d6
d6
ec
78
40
ENDCHAR
STARTCHAR ugrave
ENCODING 249
SWIDTH 669 0
DWIDTH 8 0
BBX 8 9 0 0
BITMAP
3000
1800
0000
e600
6600
ce00
cc00
cc00
ff00
ENDCHAR
STARTCHAR uacute
ENCODING 250
SWIDTH 669 0
DWIDTH 8 0
BBX 8 9 0 0
BITMAP
0e00
1800
0000
e600
6600
ce00
cc00
cc00
ff00
ENDCHAR
STARTCHAR ucircumflex
ENCODING 251
SWIDTH 669 0
DWIDTH 8 0
BBX 8 9 0 0
BITMAP
1800
3400
0000
e600
6600
ce00
cc00
cc00
ff00
ENDCHAR
STARTCHAR udieresis
ENCODING 252
SWIDTH 669 0
DWIDTH 8 0
BBX 8 9 0 0
BITMAP
6c00
6c00
0000
e600
6600
ce00
cc00
cc00
ff00
ENDCHAR
STARTCHAR yacute
ENCODING 253
SWIDTH 535 0
DWIDTH 7 0
BBX 8 12 -1 -3
BITMAP
0700
0c00
0000
7300
3200
3400
3400
3800
1800
1000
9000
e000
ENDCHAR
STARTCHAR thorn
ENCODING 254
SWIDTH 637 0
DWIDTH 8 0
BBX 8 12 -1 -3
BITMAP
7800
3000
3000
3f00
3300
3300
2300
6600
7c00
6000
6000
f000
ENDCHAR
STARTCHAR ydieresis
ENCODING 255
SWIDTH 535 0
DWIDTH 7 0
BBX 8 12 -1 -3
BITMAP
3600
3600
0000
7300
3200
3400
3400
3800
1800
1000
9000
e000
ENDCHAR
ENDFONT
