STARTFONT 2.1
COMMENT $Xorg: charI24.bdf,v 1.3 2000/08/17 19:43:39 cpqbld Exp $
COMMENT  
COMMENT  Copyright 1988 Bitstream, Inc., Cambridge, Massachusetts, USA
COMMENT  Bitstream and Charter are registered trademarks of Bitstream, Inc.
COMMENT  
COMMENT  The names "Bitstream" and "Charter" are registered trademarks of
COMMENT  Bitstream, Inc.  Permission to use these trademarks is hereby
COMMENT  granted only in association with the images described in this file.
COMMENT  
COMMENT  Permission to use, copy, modify, and distribute this software and
COMMENT  its documentation for any purpose and without fee is hereby
COMMENT  granted, provided that the above copyright notice appear in all
COMMENT  copies and that both that copyright notice and this permission
COMMENT  notice appear in supporting documentation, and that the name of
COMMENT  Bitstream not be used in advertising or publicity pertaining to
COMMENT  distribution of the software without specific, written prior
COMMENT  permission.  Bitstream makes no representations about the
COMMENT  suitability of this software for any purpose.  It is provided "as
COMMENT  is" without express or implied warranty.
COMMENT  
COMMENT  BITSTREAM DISCLAIMS ALL WARRANTIES WITH REGARD TO THIS SOFTWARE,
COMMENT  INCLUDING ALL IMPLIED WARRANTIES OF MERCHANTABILITY AND FITNESS, IN
COMMENT  NO EVENT SHALL BITSTREAM BE LIABLE FOR ANY SPECIAL, INDIRECT OR
COMMENT  CONSEQUENTIAL DAMAGES OR ANY DAMAGES WHATSOEVER RESULTING FROM LOSS
COMMENT  OF USE, DATA OR PROFITS, WHETHER IN AN ACTION OF CONTRACT,
COMMENT  NEGLIGENCE OR OTHER TORTIOUS ACTION, ARISING OUT OF OR IN
COMMENT  CONNECTION WITH THE USE OR PERFORMANCE OF THIS SOFTWARE.
COMMENT  
COMMENT  
COMMENT Fontware CVTBDF v1.0
FONT -Bitstream-Charter-Medium-I-Normal--25-240-75-75-P-136-ISO8859-1
SIZE 24 75 75
FONTBOUNDINGBOX 28 30 -4 -6
STARTPROPERTIES 22
COMMENT Begin LogicalFontDescription
FONTNAME_REGISTRY ""
FAMILY_NAME "Charter"
FOUNDRY "Bitstream"
WEIGHT_NAME "Medium"
SETWIDTH_NAME "Normal"
SLANT "I"
ADD_STYLE_NAME ""
PIXEL_SIZE 25
POINT_SIZE 240
RESOLUTION_X 75
RESOLUTION_Y 75
SPACING "P"
AVERAGE_WIDTH 136
CHARSET_REGISTRY "ISO8859"
CHARSET_ENCODING "1"
COMMENT END LogicalFontDescription
FONT_DESCENT 6
FONT_ASCENT 24
CAP_HEIGHT 17
X_HEIGHT 11
CHARSET_COLLECTIONS "ASCII ISOLATIN1"
FACE_NAME "Bitstream Charter Italic"
COPYRIGHT "Copyright 1987 by Bitstream Inc. Charter Registered trademark of Bitstream Inc."
COMMENT ****** end of font properties
ENDPROPERTIES
CHARS 191
STARTCHAR space
ENCODING 32
SWIDTH 278 0
DWIDTH 7 0
BBX 1 1 0 0
BITMAP
00
ENDCHAR
STARTCHAR exclam
ENCODING 33
SWIDTH 338 0
DWIDTH 8 0
BBX 5 17 2 0
BITMAP
18
38
38
38
30
30
30
20
20
60
60
40
00
00
c0
e0
c0
ENDCHAR
STARTCHAR quotedbl
ENCODING 34
SWIDTH 331 0
DWIDTH 8 0
BBX 6 7 1 11
BITMAP
cc
cc
cc
cc
cc
44
44
ENDCHAR
STARTCHAR numbersign
ENCODING 35
SWIDTH 745 0
DWIDTH 19 0
BBX 16 18 1 0
BITMAP
008400
018400
010c00
010800
030800
021800
7fff00
063000
043000
042000
0c2000
fffe00
084000
10c000
108000
308000
218000
210000
ENDCHAR
STARTCHAR dollar
ENCODING 36
SWIDTH 556 0
DWIDTH 14 0
BBX 12 22 1 -3
BITMAP
0080
0180
07f0
0d30
1930
3120
3100
3200
3a00
1e00
0f80
03c0
06e0
0460
4460
4460
c4c0
c580
7e00
0800
0800
0800
ENDCHAR
STARTCHAR percent
ENCODING 37
SWIDTH 852 0
DWIDTH 21 0
BBX 19 18 1 0
BITMAP
1c0080
320100
630200
630600
430c00
c30800
c21000
c62380
c66640
4cc460
388c60
010860
021860
061860
0c18c0
0818c0
100980
200700
ENDCHAR
STARTCHAR ampersand
ENCODING 38
SWIDTH 704 0
DWIDTH 18 0
BBX 16 17 1 0
BITMAP
03e000
0c7000
083000
183000
183000
186000
0cc000
0f0000
1e1f00
330400
638c00
c1c800
c0d000
c07000
e07000
71b800
3f1e00
ENDCHAR
STARTCHAR quoteright
ENCODING 39
SWIDTH 201 0
DWIDTH 5 0
BBX 5 7 1 11
BITMAP
30
78
78
18
10
20
c0
ENDCHAR
STARTCHAR parenleft
ENCODING 40
SWIDTH 419 0
DWIDTH 10 0
BBX 9 22 2 -4
BITMAP
0180
0700
0c00
1800
1800
3000
3000
6000
6000
6000
6000
c000
c000
c000
c000
c000
c000
c000
6000
6000
3000
1800
ENDCHAR
STARTCHAR parenright
ENCODING 41
SWIDTH 419 0
DWIDTH 10 0
BBX 9 22 -2 -4
BITMAP
0c00
0600
0300
0100
0180
0180
0180
0180
0180
0180
0180
0300
0300
0300
0300
0600
0600
0c00
0c00
1800
7000
c000
ENDCHAR
STARTCHAR asterisk
ENCODING 42
SWIDTH 500 0
DWIDTH 12 0
BBX 9 10 3 8
BITMAP
0400
0c00
0800
4900
eb80
1400
1800
2c00
6400
4400
ENDCHAR
STARTCHAR plus
ENCODING 43
SWIDTH 833 0
DWIDTH 21 0
BBX 15 15 3 0
BITMAP
0100
0100
0100
0100
0100
0100
0100
fffe
0100
0100
0100
0100
0100
0100
0100
ENDCHAR
STARTCHAR comma
ENCODING 44
SWIDTH 278 0
DWIDTH 7 0
BBX 4 7 -1 -4
BITMAP
30
70
70
10
20
60
80
ENDCHAR
STARTCHAR hyphen
ENCODING 45
SWIDTH 319 0
DWIDTH 8 0
BBX 6 1 1 5
BITMAP
fc
ENDCHAR
STARTCHAR period
ENCODING 46
SWIDTH 278 0
DWIDTH 7 0
BBX 3 3 1 0
BITMAP
e0
e0
e0
ENDCHAR
STARTCHAR slash
ENCODING 47
SWIDTH 481 0
DWIDTH 12 0
BBX 16 19 -3 -2
BITMAP
000300
000600
000400
000800
001800
003000
002000
004000
00c000
018000
030000
020000
060000
0c0000
180000
100000
200000
600000
c00000
ENDCHAR
STARTCHAR zero
ENCODING 48
SWIDTH 556 0
DWIDTH 14 0
BBX 13 17 1 0
BITMAP
03e0
0c30
1810
3018
7018
6018
6018
6018
c018
c038
c030
c030
c070
c060
40c0
6180
3e00
ENDCHAR
STARTCHAR one
ENCODING 49
SWIDTH 556 0
DWIDTH 14 0
BBX 8 17 2 0
BITMAP
0300
1f00
3f00
0600
0600
0600
0600
0600
0400
0c00
0c00
0c00
0c00
0c00
1800
1800
fe00
ENDCHAR
STARTCHAR two
ENCODING 50
SWIDTH 556 0
DWIDTH 14 0
BBX 13 17 0 0
BITMAP
03f0
0c38
1c18
1c18
1818
0018
0030
0030
0060
00c0
0180
0300
0c00
1810
7010
fff0
fff0
ENDCHAR
STARTCHAR three
ENCODING 51
SWIDTH 556 0
DWIDTH 14 0
BBX 13 17 0 0
BITMAP
03f0
0c38
1818
1818
0018
0030
0060
0780
07e0
0070
0030
0030
0030
c070
e060
e1c0
3f00
ENDCHAR
STARTCHAR four
ENCODING 52
SWIDTH 556 0
DWIDTH 14 0
BBX 13 18 0 -1
BITMAP
0030
0070
0070
00b0
0130
0260
0660
0c60
1860
3060
6040
fff8
00c0
00c0
00c0
0180
0180
0180
ENDCHAR
STARTCHAR five
ENCODING 53
SWIDTH 556 0
DWIDTH 14 0
BBX 13 17 0 0
BITMAP
0ff8
0ff8
0c00
0800
1800
1800
1800
1fc0
00f0
0030
0030
0030
0030
4060
e060
e1c0
7e00
ENDCHAR
STARTCHAR six
ENCODING 54
SWIDTH 556 0
DWIDTH 14 0
BBX 12 18 1 0
BITMAP
0030
01e0
0700
0c00
1800
3000
3000
6fc0
70e0
e070
c030
c030
c030
c030
c060
6060
71c0
3f00
ENDCHAR
STARTCHAR seven
ENCODING 55
SWIDTH 556 0
DWIDTH 14 0
BBX 14 18 1 -1
BITMAP
1ffc
1ffc
3018
2030
0020
0060
00c0
0080
0180
0300
0200
0600
0c00
1800
1800
3000
6000
e000
ENDCHAR
STARTCHAR eight
ENCODING 56
SWIDTH 556 0
DWIDTH 14 0
BBX 13 17 0 0
BITMAP
03e0
0c30
1818
3818
3018
3830
3c30
1fc0
0fc0
31e0
6070
c030
c030
c030
c060
70e0
3f80
ENDCHAR
STARTCHAR nine
ENCODING 57
SWIDTH 556 0
DWIDTH 14 0
BBX 12 18 1 -1
BITMAP
0fc0
38e0
7070
6030
c030
c030
c030
c030
e070
70e0
3fe0
00c0
0180
0300
0e00
3800
6000
8000
ENDCHAR
STARTCHAR colon
ENCODING 58
SWIDTH 319 0
DWIDTH 8 0
BBX 5 11 1 0
BITMAP
38
38
38
00
00
00
00
00
e0
e0
e0
ENDCHAR
STARTCHAR semicolon
ENCODING 59
SWIDTH 319 0
DWIDTH 8 0
BBX 7 15 -1 -4
BITMAP
0c
0e
0c
00
00
00
00
00
38
38
38
18
10
20
c0
ENDCHAR
STARTCHAR less
ENCODING 60
SWIDTH 833 0
DWIDTH 21 0
BBX 14 13 3 1
BITMAP
0004
003c
00f0
0380
1e00
7800
c000
7800
1e00
0380
00f0
003c
0004
ENDCHAR
STARTCHAR equal
ENCODING 61
SWIDTH 833 0
DWIDTH 21 0
BBX 15 5 3 5
BITMAP
fffe
0000
0000
0000
fffe
ENDCHAR
STARTCHAR greater
ENCODING 62
SWIDTH 833 0
DWIDTH 21 0
BBX 14 13 4 1
BITMAP
8000
f000
3c00
0700
01e0
0078
000c
0078
01e0
0700
3c00
f000
8000
ENDCHAR
STARTCHAR question
ENCODING 63
SWIDTH 486 0
DWIDTH 12 0
BBX 9 17 2 0
BITMAP
3e00
e380
e180
0180
0180
0300
0700
0e00
3800
2000
2000
6000
0000
0000
e000
e000
e000
ENDCHAR
STARTCHAR at
ENCODING 64
SWIDTH 942 0
DWIDTH 23 0
BBX 19 21 2 -4
BITMAP
00fc00
070300
0c0080
180040
300040
207e20
618e20
630c20
c30c20
c60c20
c60c20
c60c40
c61840
c73880
63cf00
618e00
300000
300000
180080
0e0700
03f800
ENDCHAR
STARTCHAR A
ENCODING 65
SWIDTH 606 0
DWIDTH 15 0
BBX 16 17 -2 0
BITMAP
003000
007000
007000
00f000
009800
019800
011800
031800
061800
061800
0ffc00
080c00
180c00
100c00
300c00
200c00
f81f00
ENDCHAR
STARTCHAR B
ENCODING 66
SWIDTH 588 0
DWIDTH 14 0
BBX 14 17 -1 0
BITMAP
1ff8
061c
060c
0e0c
0c0c
0c0c
0c18
0c30
1ff0
1c38
1818
180c
181c
3818
3838
3070
ffc0
ENDCHAR
STARTCHAR C
ENCODING 67
SWIDTH 604 0
DWIDTH 15 0
BBX 14 17 1 0
BITMAP
03f8
0e0c
180c
300c
7008
6000
6000
c000
c000
c000
c000
c000
c010
6030
6030
3860
1fc0
ENDCHAR
STARTCHAR D
ENCODING 68
SWIDTH 671 0
DWIDTH 16 0
BBX 16 17 -1 0
BITMAP
1ff000
061c00
060600
0e0600
0c0300
0c0300
0c0300
0c0300
1c0300
180300
180600
180600
180e00
381c00
383800
30f000
ff8000
ENDCHAR
STARTCHAR E
ENCODING 69
SWIDTH 546 0
DWIDTH 13 0
BBX 14 17 -1 0
BITMAP
1ffc
060c
0c0c
0c08
0c00
0c00
0c20
1c20
1fe0
1840
1840
1800
1800
3018
3010
3030
fff0
ENDCHAR
STARTCHAR F
ENCODING 70
SWIDTH 509 0
DWIDTH 13 0
BBX 14 17 -1 0
BITMAP
1ffc
060c
0e0c
0c08
0c00
0c00
0c20
1c20
1fe0
1840
1840
1800
1800
3800
3000
3000
fc00
ENDCHAR
STARTCHAR G
ENCODING 71
SWIDTH 664 0
DWIDTH 17 0
BBX 16 17 1 0
BITMAP
01fe00
070700
1c0200
380200
300600
700000
600000
e00000
c00000
c07f00
c01c00
c01c00
c01800
601800
701800
383800
0fe000
ENDCHAR
STARTCHAR H
ENCODING 72
SWIDTH 712 0
DWIDTH 18 0
BBX 19 17 -1 0
BITMAP
1f87e0
060180
0e0180
0c0380
0c0300
0c0300
0c0300
0c0300
1fff00
180600
180600
180600
180600
380600
300e00
300c00
fc3f00
ENDCHAR
STARTCHAR I
ENCODING 73
SWIDTH 313 0
DWIDTH 8 0
BBX 9 17 -1 0
BITMAP
1f80
0600
0600
0e00
0c00
0c00
0c00
0c00
1c00
1800
1800
1800
1800
3800
3000
3000
fc00
ENDCHAR
STARTCHAR J
ENCODING 74
SWIDTH 447 0
DWIDTH 11 0
BBX 13 17 -1 0
BITMAP
01f8
0060
00e0
00e0
00c0
00c0
00c0
01c0
01c0
0180
0180
0180
4380
4300
c300
c600
fc00
ENDCHAR
STARTCHAR K
ENCODING 75
SWIDTH 625 0
DWIDTH 15 0
BBX 17 17 -1 0
BITMAP
1f9f80
060600
0e0c00
0c1800
0c3000
0c6000
0cc000
1d8000
1f8000
198000
19c000
18c000
18e000
306000
307000
303800
fc1e00
ENDCHAR
STARTCHAR L
ENCODING 76
SWIDTH 498 0
DWIDTH 12 0
BBX 12 17 -1 0
BITMAP
1f80
0600
0e00
0c00
0c00
0c00
0c00
0c00
1c00
1800
1800
1800
1810
3830
3030
3020
ffe0
ENDCHAR
STARTCHAR M
ENCODING 77
SWIDTH 839 0
DWIDTH 21 0
BBX 22 17 -1 0
BITMAP
1f007c
070070
0f00f0
0b01b0
0b0130
098360
098260
198660
198460
118c60
1188c0
10d8c0
10d0c0
30f0c0
30e0c0
20c180
f8c7e0
ENDCHAR
STARTCHAR N
ENCODING 78
SWIDTH 683 0
DWIDTH 17 0
BBX 19 17 -1 0
BITMAP
1e03e0
070080
070180
0f8180
0d8100
098100
08c100
08c300
186300
186200
107200
103200
103e00
301e00
301e00
200c00
f80c00
ENDCHAR
STARTCHAR O
ENCODING 79
SWIDTH 708 0
DWIDTH 18 0
BBX 16 17 1 0
BITMAP
03f000
0e1c00
180600
380600
700300
600300
600300
e00300
c00300
c00300
c00600
c00600
c00e00
600c00
601800
387000
0fc000
ENDCHAR
STARTCHAR P
ENCODING 80
SWIDTH 542 0
DWIDTH 13 0
BBX 14 17 -1 0
BITMAP
1ff0
0638
061c
0e0c
0c0c
0c0c
0c0c
0c18
1c18
1870
1fc0
1800
1800
3800
3000
3000
fc00
ENDCHAR
STARTCHAR Q
ENCODING 81
SWIDTH 708 0
DWIDTH 18 0
BBX 17 21 1 -4
BITMAP
03f000
0e1c00
180600
380600
700300
600300
600300
e00300
c00300
c00300
c00600
c00600
c00e00
600c00
601800
387000
0fe000
00e000
007000
007880
001f00
ENDCHAR
STARTCHAR R
ENCODING 82
SWIDTH 602 0
DWIDTH 15 0
BBX 16 17 -1 0
BITMAP
1ff000
063800
060c00
0e0c00
0c0c00
0c0c00
0c1800
0c3000
1fc000
186000
183000
183000
183000
383000
301800
301800
fc0f00
ENDCHAR
STARTCHAR S
ENCODING 83
SWIDTH 537 0
DWIDTH 13 0
BBX 12 17 0 0
BITMAP
07f0
0c30
1830
3030
3000
3000
3800
1e00
0f80
03c0
00e0
0060
4060
4060
c0c0
c180
7e00
ENDCHAR
STARTCHAR T
ENCODING 84
SWIDTH 565 0
DWIDTH 14 0
BBX 14 17 1 0
BITMAP
7ffc
c30c
c30c
8308
0700
0600
0600
0600
0600
0600
0c00
0c00
0c00
0c00
0c00
1c00
7e00
ENDCHAR
STARTCHAR U
ENCODING 85
SWIDTH 664 0
DWIDTH 17 0
BBX 16 17 2 0
BITMAP
fc1f00
300400
300c00
300c00
600800
600800
600800
601800
601800
601000
c01000
c01000
c03000
c02000
c06000
e0c000
3f8000
ENDCHAR
STARTCHAR V
ENCODING 86
SWIDTH 590 0
DWIDTH 15 0
BBX 15 17 1 0
BITMAP
f83e
700c
3008
3018
3010
3020
3020
3040
1840
1880
1880
1900
1900
1a00
0e00
0c00
0c00
ENDCHAR
STARTCHAR W
ENCODING 87
SWIDTH 898 0
DWIDTH 23 0
BBX 23 17 1 0
BITMAP
f8183e
303808
303818
307810
305830
305820
309820
308c60
318c40
310cc0
3b0c80
3a0d80
1e0d00
1c0f00
1c0e00
180e00
180400
ENDCHAR
STARTCHAR X
ENCODING 88
SWIDTH 569 0
DWIDTH 14 0
BBX 18 17 -2 0
BITMAP
1fc7c0
070300
030600
030400
018800
019000
01f000
00e000
00e000
01e000
036000
023000
063000
0c1800
181800
301c00
fc7f00
ENDCHAR
STARTCHAR Y
ENCODING 89
SWIDTH 563 0
DWIDTH 14 0
BBX 15 17 1 0
BITMAP
fc3e
3018
3010
3830
1860
18c0
1c80
0d80
0f00
0e00
0600
0c00
0c00
0c00
0c00
0c00
3f00
ENDCHAR
STARTCHAR Z
ENCODING 90
SWIDTH 556 0
DWIDTH 14 0
BBX 15 17 -1 0
BITMAP
0ffe
080c
181c
1838
0070
0060
00c0
01c0
0380
0700
0600
0c00
1c08
3818
7010
6030
fff0
ENDCHAR
STARTCHAR bracketleft
ENCODING 91
SWIDTH 421 0
DWIDTH 10 0
BBX 10 21 1 -3
BITMAP
0fc0
0c00
0c00
1800
1800
1800
1800
1800
3000
3000
3000
3000
3000
6000
6000
6000
6000
6000
c000
c000
fc00
ENDCHAR
STARTCHAR backslash
ENCODING 92
SWIDTH 481 0
DWIDTH 12 0
BBX 11 19 1 -2
BITMAP
c000
4000
6000
2000
3000
1000
1800
0800
0c00
0400
0600
0200
0300
0100
0180
0080
00c0
0040
0060
ENDCHAR
STARTCHAR bracketright
ENCODING 93
SWIDTH 421 0
DWIDTH 11 0
BBX 10 21 -1 -3
BITMAP
0fc0
00c0
00c0
0180
0180
0180
0180
0180
0300
0300
0300
0300
0300
0600
0600
0600
0600
0600
0c00
0c00
fc00
ENDCHAR
STARTCHAR asciicircum
ENCODING 94
SWIDTH 1000 0
DWIDTH 25 0
BBX 15 7 5 11
BITMAP
0380
07c0
0c60
1830
3018
600c
c006
ENDCHAR
STARTCHAR underscore
ENCODING 95
SWIDTH 500 0
DWIDTH 12 0
BBX 12 1 0 -6
BITMAP
fff0
ENDCHAR
STARTCHAR quoteleft
ENCODING 96
SWIDTH 201 0
DWIDTH 5 0
BBX 4 7 2 11
BITMAP
30
60
40
c0
e0
e0
40
ENDCHAR
STARTCHAR a
ENCODING 97
SWIDTH 525 0
DWIDTH 13 0
BBX 12 11 0 0
BITMAP
07e0
18e0
3040
6040
6040
c0c0
c0c0
c0c0
c080
e380
7cf0
ENDCHAR
STARTCHAR b
ENCODING 98
SWIDTH 507 0
DWIDTH 13 0
BBX 11 18 1 0
BITMAP
7800
1800
1800
3800
3000
3000
3000
37c0
38e0
6060
6060
6060
6060
60c0
c0c0
c180
e300
7c00
ENDCHAR
STARTCHAR c
ENCODING 99
SWIDTH 394 0
DWIDTH 10 0
BBX 9 11 0 0
BITMAP
0f00
1380
2100
6000
c000
c000
c000
c000
c080
6300
3c00
ENDCHAR
STARTCHAR d
ENCODING 100
SWIDTH 523 0
DWIDTH 13 0
BBX 12 18 0 0
BITMAP
00f0
0030
0030
0020
0020
0020
0060
07e0
18e0
3060
6040
6040
c0c0
c0c0
c0c0
c1c0
e2c0
7cf0
ENDCHAR
STARTCHAR e
ENCODING 101
SWIDTH 424 0
DWIDTH 11 0
BBX 9 11 1 0
BITMAP
0f00
1180
2180
6380
c600
f800
c000
c000
c080
6300
3c00
ENDCHAR
STARTCHAR f
ENCODING 102
SWIDTH 292 0
DWIDTH 7 0
BBX 14 23 -4 -5
BITMAP
0038
005c
00c8
0080
0180
0180
0180
07f0
0300
0300
0300
0300
0300
0200
0600
0600
0600
0600
0400
0c00
0800
f000
e000
ENDCHAR
STARTCHAR g
ENCODING 103
SWIDTH 481 0
DWIDTH 12 0
BBX 13 16 -1 -5
BITMAP
0780
1cf8
1860
3060
3060
30c0
1980
0f00
0800
1e00
63c0
c0e0
c060
c060
60c0
3f00
ENDCHAR
STARTCHAR h
ENCODING 104
SWIDTH 551 0
DWIDTH 14 0
BBX 12 18 1 0
BITMAP
7c00
1800
1800
1800
1800
3000
3000
33e0
3c60
7060
6060
60c0
60c0
60c0
e0c0
c180
c1c0
c1f0
ENDCHAR
STARTCHAR i
ENCODING 105
SWIDTH 287 0
DWIDTH 7 0
BBX 5 18 1 0
BITMAP
18
38
18
00
00
00
00
f0
30
60
60
60
60
60
c0
c0
c0
f8
ENDCHAR
STARTCHAR j
ENCODING 106
SWIDTH 269 0
DWIDTH 7 0
BBX 9 23 -3 -5
BITMAP
0180
0380
0180
0000
0000
0000
0000
0f00
0300
0300
0300
0200
0600
0600
0600
0600
0600
0400
0c00
0c00
0800
9000
e000
ENDCHAR
STARTCHAR k
ENCODING 107
SWIDTH 514 0
DWIDTH 13 0
BBX 11 18 1 0
BITMAP
7800
1800
1800
1800
3000
3000
3000
30e0
31e0
6340
6600
6c00
7c00
6e00
c600
c300
c380
c1e0
ENDCHAR
STARTCHAR l
ENCODING 108
SWIDTH 275 0
DWIDTH 7 0
BBX 5 18 1 0
BITMAP
78
18
10
30
30
30
30
20
60
60
60
60
40
c0
c0
c0
c0
f8
ENDCHAR
STARTCHAR m
ENCODING 109
SWIDTH 815 0
DWIDTH 20 0
BBX 18 11 1 0
BITMAP
f3cf80
3cd180
30e180
30c180
60c180
60c300
60c300
60c300
618300
c18700
c183c0
ENDCHAR
STARTCHAR n
ENCODING 110
SWIDTH 556 0
DWIDTH 14 0
BBX 12 11 1 0
BITMAP
f3e0
3c60
3060
3060
6040
60c0
60c0
60c0
60c0
c1c0
c0f0
ENDCHAR
STARTCHAR o
ENCODING 111
SWIDTH 502 0
DWIDTH 13 0
BBX 11 11 1 0
BITMAP
0f80
18c0
6060
6060
c060
c060
c060
c0c0
c0c0
6380
3e00
ENDCHAR
STARTCHAR p
ENCODING 112
SWIDTH 516 0
DWIDTH 13 0
BBX 14 16 -2 -5
BITMAP
1ef8
071c
0c0c
0c0c
0c0c
0c0c
0c1c
1818
1830
1860
1f80
3800
3000
3000
3000
fc00
ENDCHAR
STARTCHAR q
ENCODING 113
SWIDTH 512 0
DWIDTH 13 0
BBX 11 16 1 -5
BITMAP
07a0
18e0
3060
6040
6040
c0c0
c0c0
c0c0
c0c0
e380
7d80
0180
0180
0180
0380
0fe0
ENDCHAR
STARTCHAR r
ENCODING 114
SWIDTH 398 0
DWIDTH 10 0
BBX 9 11 1 0
BITMAP
f380
3d80
2800
3000
6000
6000
6000
6000
6000
c000
c000
ENDCHAR
STARTCHAR s
ENCODING 115
SWIDTH 370 0
DWIDTH 10 0
BBX 9 11 0 0
BITMAP
0f00
1180
3000
3000
3c00
0e00
0700
0300
e300
c200
7c00
ENDCHAR
STARTCHAR t
ENCODING 116
SWIDTH 333 0
DWIDTH 8 0
BBX 7 14 1 0
BITMAP
10
30
30
fe
60
60
60
60
60
c0
c0
c0
c4
f8
ENDCHAR
STARTCHAR u
ENCODING 117
SWIDTH 553 0
DWIDTH 14 0
BBX 12 11 1 0
BITMAP
f060
3060
60c0
60c0
60c0
60c0
c080
c180
c180
c780
79f0
ENDCHAR
STARTCHAR v
ENCODING 118
SWIDTH 454 0
DWIDTH 12 0
BBX 11 11 0 0
BITMAP
f0e0
3060
1060
1840
1880
1880
1900
1a00
1c00
1c00
1800
ENDCHAR
STARTCHAR w
ENCODING 119
SWIDTH 713 0
DWIDTH 18 0
BBX 17 11 0 0
BITMAP
f04380
30c180
30c180
316100
316300
326200
326400
346800
386800
387000
306000
ENDCHAR
STARTCHAR x
ENCODING 120
SWIDTH 477 0
DWIDTH 11 0
BBX 13 11 -1 0
BITMAP
3c38
0c58
0680
0680
0700
0300
0700
0f00
0980
d180
e0f0
ENDCHAR
STARTCHAR y
ENCODING 121
SWIDTH 475 0
DWIDTH 12 0
BBX 15 16 -3 -5
BITMAP
3e0e
060c
0618
0210
0310
0320
0320
0340
01c0
0180
0180
0100
0200
0600
cc00
f000
ENDCHAR
STARTCHAR z
ENCODING 122
SWIDTH 440 0
DWIDTH 11 0
BBX 12 11 -1 0
BITMAP
1fb0
2360
20c0
3180
0300
0600
0c00
18e0
3060
7c40
c780
ENDCHAR
STARTCHAR braceleft
ENCODING 123
SWIDTH 486 0
DWIDTH 12 0
BBX 9 20 1 -3
BITMAP
0380
0600
0c00
0c00
0c00
0c00
0c00
0c00
1800
e000
1800
0c00
0c00
0c00
0c00
0c00
0c00
0c00
0600
0380
ENDCHAR
STARTCHAR bar
ENCODING 124
SWIDTH 500 0
DWIDTH 12 0
BBX 1 25 6 -6
BITMAP
80
80
80
80
80
80
80
80
80
80
80
80
80
80
80
80
80
80
80
80
80
80
80
80
80
ENDCHAR
STARTCHAR braceright
ENCODING 125
SWIDTH 486 0
DWIDTH 12 0
BBX 9 20 1 -3
BITMAP
e000
3000
1800
1800
1800
1800
1800
1800
0c00
0380
0c00
1800
1800
1800
1800
1800
1800
1800
3000
e000
ENDCHAR
STARTCHAR c0126
ENCODING 126
SWIDTH 1000 0
DWIDTH 25 0
BBX 15 2 5 14
BITMAP
3f06
c1f8
ENDCHAR
STARTCHAR space
ENCODING 160
SWIDTH 278 0
DWIDTH 7 0
BBX 1 1 0 0
BITMAP
00
ENDCHAR
STARTCHAR exclamdown
ENCODING 161
SWIDTH 338 0
DWIDTH 8 0
BBX 5 17 2 0
BITMAP
18
38
18
00
00
10
30
30
20
20
60
60
60
60
e0
e0
c0
ENDCHAR
STARTCHAR cent
ENCODING 162
SWIDTH 556 0
DWIDTH 14 0
BBX 11 17 1 -2
BITMAP
0100
0100
0100
07e0
1a60
3260
6200
6200
c400
c400
c400
c400
c480
6880
3f80
0800
0800
ENDCHAR
STARTCHAR sterling
ENCODING 163
SWIDTH 556 0
DWIDTH 14 0
BBX 14 17 0 0
BITMAP
00f8
019c
030c
0600
0600
0e00
0c00
0c00
3fe0
0c00
1800
1800
1800
3000
2000
ffe0
ffe0
ENDCHAR
STARTCHAR currency
ENCODING 164
SWIDTH 606 0
DWIDTH 15 0
BBX 12 12 2 5
BITMAP
8010
4f20
30c0
2040
4020
4020
4020
4020
2040
30c0
4f20
8010
ENDCHAR
STARTCHAR yen
ENCODING 165
SWIDTH 556 0
DWIDTH 14 0
BBX 15 17 0 0
BITMAP
7e1e
1808
1818
1c30
0c20
0c40
7cf8
0680
0700
0700
fff8
0600
0600
0600
0600
0c00
3f00
ENDCHAR
STARTCHAR brokenbar
ENCODING 166
SWIDTH 500 0
DWIDTH 12 0
BBX 1 21 6 -4
BITMAP
80
80
80
80
80
80
80
80
80
00
00
00
80
80
80
80
80
80
80
80
80
ENDCHAR
STARTCHAR section
ENCODING 167
SWIDTH 500 0
DWIDTH 12 0
BBX 11 22 0 -4
BITMAP
07e0
0c60
1860
1860
1800
1c00
0f00
0f80
31c0
20c0
60c0
60c0
6180
7100
3e00
0e00
0700
0300
c300
c300
c600
7c00
ENDCHAR
STARTCHAR dieresis
ENCODING 168
SWIDTH 500 0
DWIDTH 12 0
BBX 6 3 5 14
BITMAP
cc
cc
cc
ENDCHAR
STARTCHAR copyright
ENCODING 169
SWIDTH 900 0
DWIDTH 22 0
BBX 19 19 2 -1
BITMAP
01f800
060600
180100
300080
21fcc0
430440
460440
8c0020
8c0020
8c0020
8c0020
8c0020
460440
430440
21fcc0
300180
180100
060600
01f800
ENDCHAR
STARTCHAR ordfeminine
ENCODING 170
SWIDTH 394 0
DWIDTH 10 0
BBX 9 8 0 8
BITMAP
0f80
3180
6100
c100
c300
c300
c600
7b80
ENDCHAR
STARTCHAR guillemotleft
ENCODING 171
SWIDTH 442 0
DWIDTH 11 0
BBX 10 9 0 1
BITMAP
0840
18c0
3180
e700
8400
c600
6300
3180
1080
ENDCHAR
STARTCHAR logicalnot
ENCODING 172
SWIDTH 833 0
DWIDTH 21 0
BBX 15 6 3 4
BITMAP
fffe
0002
0002
0002
0002
0002
ENDCHAR
STARTCHAR hyphen
ENCODING 173
SWIDTH 319 0
DWIDTH 8 0
BBX 6 1 1 5
BITMAP
fc
ENDCHAR
STARTCHAR registered
ENCODING 174
SWIDTH 900 0
DWIDTH 22 0
BBX 19 19 2 -1
BITMAP
01f800
0e0600
180300
300080
67f8c0
431c40
430c40
830c20
831820
83e020
831820
831820
430c60
430c40
67c7c0
200080
180300
0e0600
01f800
ENDCHAR
STARTCHAR macron
ENCODING 175
SWIDTH 500 0
DWIDTH 12 0
BBX 7 1 4 16
BITMAP
fe
ENDCHAR
STARTCHAR degree
ENCODING 176
SWIDTH 329 0
DWIDTH 8 0
BBX 7 7 1 11
BITMAP
38
44
82
82
82
44
38
ENDCHAR
STARTCHAR plusminus
ENCODING 177
SWIDTH 833 0
DWIDTH 21 0
BBX 15 13 3 1
BITMAP
0100
0100
0100
0100
fffe
0100
0100
0100
0100
0000
0000
0000
fffe
ENDCHAR
STARTCHAR twosuperior
ENCODING 178
SWIDTH 367 0
DWIDTH 9 0
BBX 8 11 0 7
BITMAP
1e00
2100
6100
0100
0300
0600
0c00
1000
2100
4100
fe00
ENDCHAR
STARTCHAR threesuperior
ENCODING 179
SWIDTH 367 0
DWIDTH 9 0
BBX 8 11 0 7
BITMAP
0e00
3100
2100
0100
0600
1c00
0200
0300
c200
c600
7800
ENDCHAR
STARTCHAR acute
ENCODING 180
SWIDTH 500 0
DWIDTH 12 0
BBX 6 5 6 13
BITMAP
1c
38
30
60
c0
ENDCHAR
STARTCHAR mu
ENCODING 181
SWIDTH 548 0
DWIDTH 14 0
BBX 15 16 -1 -5
BITMAP
1830
1830
1830
1830
1020
3060
3060
3062
30e4
79e4
6f38
6000
4000
c000
c000
c000
ENDCHAR
STARTCHAR paragraph
ENCODING 182
SWIDTH 484 0
DWIDTH 12 0
BBX 10 19 1 -2
BITMAP
1fc0
7c80
7c80
fc80
fc80
fc80
fc80
7c80
7c80
1c80
0080
0080
0080
0080
0080
0080
0080
0080
0080
ENDCHAR
STARTCHAR periodcentered
ENCODING 183
SWIDTH 278 0
DWIDTH 7 0
BBX 3 3 2 7
BITMAP
e0
e0
e0
ENDCHAR
STARTCHAR cedilla
ENCODING 184
SWIDTH 500 0
DWIDTH 12 0
BBX 5 5 1 -5
BITMAP
20
38
18
18
e0
ENDCHAR
STARTCHAR onesuperior
ENCODING 185
SWIDTH 367 0
DWIDTH 9 0
BBX 6 11 1 7
BITMAP
1c
7c
08
08
08
18
18
10
10
30
fc
ENDCHAR
STARTCHAR ordmasculine
ENCODING 186
SWIDTH 377 0
DWIDTH 9 0
BBX 8 8 0 8
BITMAP
1c00
2200
6300
c300
c300
c600
4400
3800
ENDCHAR
STARTCHAR guillemotright
ENCODING 187
SWIDTH 442 0
DWIDTH 11 0
BBX 10 9 0 1
BITMAP
4200
6300
3180
18c0
0840
19c0
6300
c600
8400
ENDCHAR
STARTCHAR onequarter
ENCODING 188
SWIDTH 867 0
DWIDTH 22 0
BBX 20 17 1 0
BITMAP
0000c0
1c0180
7c0100
080200
080400
180c00
181800
101000
302030
fc4070
00c0a0
018320
010420
020ff0
040040
0c0040
180040
ENDCHAR
STARTCHAR onehalf
ENCODING 189
SWIDTH 867 0
DWIDTH 22 0
BBX 20 17 1 0
BITMAP
0000c0
1c0180
7c0100
080200
080400
180c00
181800
101000
3021e0
fc4210
00c610
018010
010020
0200c0
040300
0c0410
180fe0
ENDCHAR
STARTCHAR threequarters
ENCODING 190
SWIDTH 867 0
DWIDTH 22 0
BBX 21 17 0 0
BITMAP
000060
0e00c0
310080
210100
030200
1c0600
020c00
030800
c61018
782038
006050
00c190
008210
0107f8
020020
060020
0c0020
ENDCHAR
STARTCHAR questiondown
ENCODING 191
SWIDTH 486 0
DWIDTH 12 0
BBX 9 17 1 0
BITMAP
0180
0380
0380
0000
0000
0300
0200
0200
0e00
1800
3000
6000
e000
c000
c180
6380
3e00
ENDCHAR
STARTCHAR Agrave
ENCODING 192
SWIDTH 606 0
DWIDTH 15 0
BBX 16 23 -2 0
BITMAP
00e000
006000
006000
003000
003000
000000
003000
007000
007000
00f000
009800
019800
011800
031800
061800
061800
0ffc00
080c00
180c00
100c00
300c00
200c00
f81f00
ENDCHAR
STARTCHAR Aacute
ENCODING 193
SWIDTH 606 0
DWIDTH 15 0
BBX 16 23 -2 0
BITMAP
000700
000e00
000c00
001800
003000
000000
003000
007000
007000
00f000
009800
019800
011800
031800
061800
061800
0ffc00
080c00
180c00
100c00
300c00
200c00
f81f00
ENDCHAR
STARTCHAR Acircumflex
ENCODING 194
SWIDTH 606 0
DWIDTH 15 0
BBX 16 23 -2 0
BITMAP
003000
003800
004800
00c800
018c00
000000
003000
007000
007000
00f000
009800
019800
011800
031800
061800
061800
0ffc00
080c00
180c00
100c00
300c00
200c00
f81f00
ENDCHAR
STARTCHAR Atilde
ENCODING 195
SWIDTH 606 0
DWIDTH 15 0
BBX 16 23 -2 0
BITMAP
004200
00fc00
010800
000000
000000
000000
003000
007000
007000
00f000
009800
019800
011800
031800
061800
061800
0ffc00
080c00
180c00
100c00
300c00
200c00
f81f00
ENDCHAR
STARTCHAR Adieresis
ENCODING 196
SWIDTH 606 0
DWIDTH 15 0
BBX 16 22 -2 0
BITMAP
006600
006600
006600
000000
000000
003000
007000
007000
00f000
009800
019800
011800
031800
061800
061800
0ffc00
080c00
180c00
100c00
300c00
200c00
f81f00
ENDCHAR
STARTCHAR Aring
ENCODING 197
SWIDTH 606 0
DWIDTH 15 0
BBX 16 24 -2 0
BITMAP
003800
004400
004400
004400
003800
000000
000000
003000
007000
007000
00f000
009800
019800
011800
031800
061800
061800
0ffc00
080c00
180c00
100c00
300c00
200c00
f81f00
ENDCHAR
STARTCHAR AE
ENCODING 198
SWIDTH 873 0
DWIDTH 22 0
BBX 25 17 -3 0
BITMAP
001fff80
00078180
000d8180
00198100
00198000
00318000
00630400
00c30c00
01c3fc00
01830800
03ff0800
06060000
0c060000
18060200
10060200
20060600
f81ffe00
ENDCHAR
STARTCHAR Ccedilla
ENCODING 199
SWIDTH 604 0
DWIDTH 15 0
BBX 14 22 1 -5
BITMAP
03f8
0e0c
180c
300c
7008
6000
6000
c000
c000
c000
c000
c000
c010
6030
6030
3860
1fc0
0400
0700
0300
0300
1c00
ENDCHAR
STARTCHAR Egrave
ENCODING 200
SWIDTH 546 0
DWIDTH 13 0
BBX 14 23 -1 0
BITMAP
0380
0180
0180
00c0
00c0
0000
1ffc
060c
0c0c
0c08
0c00
0c00
0c20
1c20
1fe0
1840
1840
1800
1800
3018
3010
3030
fff0
ENDCHAR
STARTCHAR Eacute
ENCODING 201
SWIDTH 546 0
DWIDTH 13 0
BBX 14 23 -1 0
BITMAP
001c
0038
0030
0060
00c0
0000
1ffc
060c
0c0c
0c08
0c00
0c00
0c20
1c20
1fe0
1840
1840
1800
1800
3018
3010
3030
fff0
ENDCHAR
STARTCHAR Ecircumflex
ENCODING 202
SWIDTH 546 0
DWIDTH 13 0
BBX 14 23 -1 0
BITMAP
00c0
00e0
0120
0320
0630
0000
1ffc
060c
0c0c
0c08
0c00
0c00
0c20
1c20
1fe0
1840
1840
1800
1800
3018
3010
3030
fff0
ENDCHAR
STARTCHAR Edieresis
ENCODING 203
SWIDTH 546 0
DWIDTH 13 0
BBX 14 22 -1 0
BITMAP
0198
0198
0198
0000
0000
1ffc
060c
0c0c
0c08
0c00
0c00
0c20
1c20
1fe0
1840
1840
1800
1800
3018
3010
3030
fff0
ENDCHAR
STARTCHAR Igrave
ENCODING 204
SWIDTH 313 0
DWIDTH 8 0
BBX 9 23 -1 0
BITMAP
1c00
0c00
0c00
0600
0600
0000
1f80
0600
0600
0e00
0c00
0c00
0c00
0c00
1c00
1800
1800
1800
1800
3800
3000
3000
fc00
ENDCHAR
STARTCHAR Iacute
ENCODING 205
SWIDTH 313 0
DWIDTH 8 0
BBX 11 23 -1 0
BITMAP
00e0
01c0
0180
0300
0600
0000
1f80
0600
0600
0e00
0c00
0c00
0c00
0c00
1c00
1800
1800
1800
1800
3800
3000
3000
fc00
ENDCHAR
STARTCHAR Icircumflex
ENCODING 206
SWIDTH 313 0
DWIDTH 8 0
BBX 9 23 -1 0
BITMAP
0600
0700
0900
1900
3180
0000
1f80
0600
0600
0e00
0c00
0c00
0c00
0c00
1c00
1800
1800
1800
1800
3800
3000
3000
fc00
ENDCHAR
STARTCHAR Idieresis
ENCODING 207
SWIDTH 313 0
DWIDTH 8 0
BBX 10 22 -1 0
BITMAP
0cc0
0cc0
0cc0
0000
0000
1f80
0600
0600
0e00
0c00
0c00
0c00
0c00
1c00
1800
1800
1800
1800
3800
3000
3000
fc00
ENDCHAR
STARTCHAR Eth
ENCODING 208
SWIDTH 671 0
DWIDTH 16 0
BBX 16 17 -1 0
BITMAP
1ff000
061c00
060e00
0e0600
0c0300
0c0300
0c0300
0c0300
7fc300
180300
180600
180600
180e00
380c00
383800
30f000
ff8000
ENDCHAR
STARTCHAR Ntilde
ENCODING 209
SWIDTH 683 0
DWIDTH 17 0
BBX 19 23 -1 0
BITMAP
004200
00fc00
010800
000000
000000
000000
1e03e0
070080
070180
0f8180
0d8100
098100
08c100
08c300
186300
186200
107200
103200
103e00
301e00
301e00
200c00
f80c00
ENDCHAR
STARTCHAR Ograve
ENCODING 210
SWIDTH 708 0
DWIDTH 18 0
BBX 16 23 1 0
BITMAP
038000
018000
018000
00c000
00c000
000000
03f000
0e1c00
180600
380600
700300
600300
600300
e00300
c00300
c00300
c00600
c00600
c00e00
600c00
601800
387000
0fc000
ENDCHAR
STARTCHAR Oacute
ENCODING 211
SWIDTH 708 0
DWIDTH 18 0
BBX 16 23 1 0
BITMAP
001c00
003800
003000
006000
00c000
000000
03f000
0e1c00
180600
380600
700300
600300
600300
e00300
c00300
c00300
c00600
c00600
c00e00
600c00
601800
387000
0fc000
ENDCHAR
STARTCHAR Ocircumflex
ENCODING 212
SWIDTH 708 0
DWIDTH 18 0
BBX 16 23 1 0
BITMAP
00c000
00e000
012000
032000
063000
000000
03f000
0e1c00
180600
380600
700300
600300
600300
e00300
c00300
c00300
c00600
c00600
c00e00
600c00
601800
387000
0fc000
ENDCHAR
STARTCHAR Otilde
ENCODING 213
SWIDTH 708 0
DWIDTH 18 0
BBX 16 23 1 0
BITMAP
010800
03f000
042000
000000
000000
000000
03f000
0e1c00
180600
380600
700300
600300
600300
e00300
c00300
c00300
c00600
c00600
c00e00
600c00
601800
387000
0fc000
ENDCHAR
STARTCHAR Odieresis
ENCODING 214
SWIDTH 708 0
DWIDTH 18 0
BBX 16 22 1 0
BITMAP
019800
019800
019800
000000
000000
03f000
0e1c00
180600
380600
700300
600300
600300
e00300
c00300
c00300
c00600
c00600
c00e00
600c00
601800
387000
0fc000
ENDCHAR
STARTCHAR multiply
ENCODING 215
SWIDTH 833 0
DWIDTH 21 0
BBX 14 14 4 0
BITMAP
4008
e01c
7038
3870
1ce0
0fc0
0780
0780
0fc0
1ce0
3870
7038
e01c
4008
ENDCHAR
STARTCHAR Oslash
ENCODING 216
SWIDTH 708 0
DWIDTH 18 0
BBX 16 21 1 -2
BITMAP
000000
000600
03f400
0e1c00
181e00
303600
702300
604300
60c300
c08300
c10300
c30300
c20600
c40600
c80e00
780c00
701800
387000
6fc000
400000
400000
ENDCHAR
STARTCHAR Ugrave
ENCODING 217
SWIDTH 664 0
DWIDTH 17 0
BBX 16 23 2 0
BITMAP
070000
030000
030000
018000
018000
000000
fc1f00
300400
300c00
300c00
600800
600800
600800
601800
601800
601000
c01000
c01000
c03000
c02000
c06000
e0c000
3f8000
ENDCHAR
STARTCHAR Uacute
ENCODING 218
SWIDTH 664 0
DWIDTH 17 0
BBX 16 23 2 0
BITMAP
003800
007000
006000
00c000
018000
000000
fc1f00
300400
300c00
300c00
600800
600800
600800
601800
601800
601000
c01000
c01000
c03000
c02000
c06000
e0c000
3f8000
ENDCHAR
STARTCHAR Ucircumflex
ENCODING 219
SWIDTH 664 0
DWIDTH 17 0
BBX 16 23 2 0
BITMAP
018000
01c000
024000
064000
0c6000
000000
fc1f00
300400
300c00
300c00
600800
600800
600800
601800
601800
601000
c01000
c01000
c03000
c02000
c06000
e0c000
3f8000
ENDCHAR
STARTCHAR Udieresis
ENCODING 220
SWIDTH 664 0
DWIDTH 17 0
BBX 16 22 2 0
BITMAP
033000
033000
033000
000000
000000
fc1f00
300400
300c00
300c00
600800
600800
600800
601800
601800
601000
c01000
c01000
c03000
c02000
c06000
e0c000
3f8000
ENDCHAR
STARTCHAR Yacute
ENCODING 221
SWIDTH 563 0
DWIDTH 14 0
BBX 15 23 1 0
BITMAP
0038
0070
0060
00c0
0180
0000
fc3e
3018
3010
3830
1860
18c0
1c80
0d80
0f00
0e00
0600
0c00
0c00
0c00
0c00
0c00
3f00
ENDCHAR
STARTCHAR Thorn
ENCODING 222
SWIDTH 532 0
DWIDTH 13 0
BBX 14 17 -1 0
BITMAP
1f80
0600
0600
07f0
0e18
0c1c
0c0c
0c0c
0c0c
1c0c
1818
1838
1870
1fc0
3800
3000
fc00
ENDCHAR
STARTCHAR germandbls
ENCODING 223
SWIDTH 574 0
DWIDTH 14 0
BBX 17 23 -4 -5
BITMAP
003e00
006380
00c180
008180
018180
018180
030700
031800
031000
033000
031800
031e00
020f00
060380
060380
066300
066300
043c00
0c0000
0c0000
080000
f00000
e00000
ENDCHAR
STARTCHAR agrave
ENCODING 224
SWIDTH 525 0
DWIDTH 13 0
BBX 12 18 0 0
BITMAP
0e00
0600
0600
0300
0300
0000
0000
07e0
18e0
3040
6040
6040
c0c0
c0c0
c0c0
c080
e380
7cf0
ENDCHAR
STARTCHAR aacute
ENCODING 225
SWIDTH 525 0
DWIDTH 13 0
BBX 12 18 0 0
BITMAP
0070
00e0
00c0
0180
0300
0000
0000
07e0
18e0
3040
6040
6040
c0c0
c0c0
c0c0
c080
e380
7cf0
ENDCHAR
STARTCHAR acircumflex
ENCODING 226
SWIDTH 525 0
DWIDTH 13 0
BBX 12 18 0 0
BITMAP
0300
0380
0480
0c80
18c0
0000
0000
07e0
18e0
3040
6040
6040
c0c0
c0c0
c0c0
c080
e380
7cf0
ENDCHAR
STARTCHAR atilde
ENCODING 227
SWIDTH 525 0
DWIDTH 13 0
BBX 12 18 0 0
BITMAP
0420
0fc0
1080
0000
0000
0000
0000
07e0
18e0
3040
6040
6040
c0c0
c0c0
c0c0
c080
e380
7cf0
ENDCHAR
STARTCHAR adieresis
ENCODING 228
SWIDTH 525 0
DWIDTH 13 0
BBX 12 17 0 0
BITMAP
0660
0660
0660
0000
0000
0000
07e0
18e0
3040
6040
6040
c0c0
c0c0
c0c0
c080
e380
7cf0
ENDCHAR
STARTCHAR aring
ENCODING 229
SWIDTH 525 0
DWIDTH 13 0
BBX 12 19 0 0
BITMAP
0380
0640
0440
0440
0640
0380
0000
0000
07e0
18e0
3040
6040
6040
c0c0
c0c0
c0c0
c080
e380
7cf0
ENDCHAR
STARTCHAR ae
ENCODING 230
SWIDTH 671 0
DWIDTH 17 0
BBX 16 11 0 0
BITMAP
0f9e00
31e300
70c300
01c700
018e00
0ff000
718000
c18000
c18100
c7c200
78fc00
ENDCHAR
STARTCHAR ccedilla
ENCODING 231
SWIDTH 394 0
DWIDTH 10 0
BBX 9 16 0 -5
BITMAP
0f00
1380
2100
6000
c000
c000
c000
c000
c080
6300
3c00
2000
3800
1800
1800
e000
ENDCHAR
STARTCHAR egrave
ENCODING 232
SWIDTH 424 0
DWIDTH 11 0
BBX 9 18 1 0
BITMAP
3800
1800
1800
0c00
0c00
0000
0000
0f00
1180
2180
6380
c600
f800
c000
c000
c080
6300
3c00
ENDCHAR
STARTCHAR eacute
ENCODING 233
SWIDTH 424 0
DWIDTH 11 0
BBX 10 18 1 0
BITMAP
01c0
0380
0300
0600
0c00
0000
0000
0f00
1180
2180
6380
c600
f800
c000
c000
c080
6300
3c00
ENDCHAR
STARTCHAR ecircumflex
ENCODING 234
SWIDTH 424 0
DWIDTH 11 0
BBX 9 18 1 0
BITMAP
0c00
0e00
1200
3200
6300
0000
0000
0f00
1180
2180
6380
c600
f800
c000
c000
c080
6300
3c00
ENDCHAR
STARTCHAR edieresis
ENCODING 235
SWIDTH 424 0
DWIDTH 11 0
BBX 9 17 1 0
BITMAP
1980
1980
1980
0000
0000
0000
0f00
1180
2180
6380
c600
f800
c000
c000
c080
6300
3c00
ENDCHAR
STARTCHAR igrave
ENCODING 236
SWIDTH 287 0
DWIDTH 7 0
BBX 5 18 1 0
BITMAP
e0
60
60
30
30
00
00
f0
30
60
60
60
60
60
c0
c0
c0
f8
ENDCHAR
STARTCHAR iacute
ENCODING 237
SWIDTH 287 0
DWIDTH 7 0
BBX 8 18 1 0
BITMAP
0700
0e00
0c00
1800
3000
0000
0000
f000
3000
6000
6000
6000
6000
6000
c000
c000
c000
f800
ENDCHAR
STARTCHAR icircumflex
ENCODING 238
SWIDTH 287 0
DWIDTH 7 0
BBX 7 18 0 0
BITMAP
18
1c
24
64
c6
00
00
78
18
30
30
30
30
30
60
60
60
7c
ENDCHAR
STARTCHAR idieresis
ENCODING 239
SWIDTH 287 0
DWIDTH 7 0
BBX 7 17 1 0
BITMAP
66
66
66
00
00
00
f0
30
60
60
60
60
60
c0
c0
c0
f8
ENDCHAR
STARTCHAR eth
ENCODING 240
SWIDTH 500 0
DWIDTH 12 0
BBX 10 18 1 0
BITMAP
1c00
0e40
07c0
0700
1f00
1180
0180
0f80
30c0
60c0
60c0
c0c0
c0c0
c0c0
c180
c180
6300
3c00
ENDCHAR
STARTCHAR ntilde
ENCODING 241
SWIDTH 556 0
DWIDTH 14 0
BBX 12 18 1 0
BITMAP
0840
1f80
2100
0000
0000
0000
0000
f3e0
3c60
3060
3060
6040
60c0
60c0
60c0
60c0
c1c0
c0f0
ENDCHAR
STARTCHAR ograve
ENCODING 242
SWIDTH 502 0
DWIDTH 13 0
BBX 11 18 1 0
BITMAP
1c00
0c00
0c00
0600
0600
0000
0000
0f80
18c0
6060
6060
c060
c060
c060
c0c0
c0c0
6380
3e00
ENDCHAR
STARTCHAR oacute
ENCODING 243
SWIDTH 502 0
DWIDTH 13 0
BBX 11 18 1 0
BITMAP
00e0
01c0
0180
0300
0600
0000
0000
0f80
18c0
6060
6060
c060
c060
c060
c0c0
c0c0
6380
3e00
ENDCHAR
STARTCHAR ocircumflex
ENCODING 244
SWIDTH 502 0
DWIDTH 13 0
BBX 11 18 1 0
BITMAP
0600
0700
0900
1900
3180
0000
0000
0f80
18c0
6060
6060
c060
c060
c060
c0c0
c0c0
6380
3e00
ENDCHAR
STARTCHAR otilde
ENCODING 245
SWIDTH 502 0
DWIDTH 13 0
BBX 11 18 1 0
BITMAP
0840
1f80
2100
0000
0000
0000
0000
0f80
18c0
6060
6060
c060
c060
c060
c0c0
c0c0
6380
3e00
ENDCHAR
STARTCHAR odieresis
ENCODING 246
SWIDTH 502 0
DWIDTH 13 0
BBX 11 17 1 0
BITMAP
0cc0
0cc0
0cc0
0000
0000
0000
0f80
18c0
6060
6060
c060
c060
c060
c0c0
c0c0
6380
3e00
ENDCHAR
STARTCHAR divide
ENCODING 247
SWIDTH 833 0
DWIDTH 21 0
BBX 15 11 3 2
BITMAP
0380
0380
0380
0000
0000
fffe
0000
0000
0380
0380
0380
ENDCHAR
STARTCHAR oslash
ENCODING 248
SWIDTH 502 0
DWIDTH 13 0
BBX 11 15 1 -2
BITMAP
0020
0040
0fc0
18c0
3160
6160
c260
c460
c860
c8c0
d080
6300
3e00
4000
8000
ENDCHAR
STARTCHAR ugrave
ENCODING 249
SWIDTH 553 0
DWIDTH 14 0
BBX 12 18 1 0
BITMAP
1c00
0c00
0c00
0600
0600
0000
0000
f060
3060
60c0
60c0
60c0
60c0
c080
c180
c180
c780
79f0
ENDCHAR
STARTCHAR uacute
ENCODING 250
SWIDTH 553 0
DWIDTH 14 0
BBX 12 18 1 0
BITMAP
00e0
01c0
0180
0300
0600
0000
0000
f060
3060
60c0
60c0
60c0
60c0
c080
c180
c180
c780
79f0
ENDCHAR
STARTCHAR ucircumflex
ENCODING 251
SWIDTH 553 0
DWIDTH 14 0
BBX 12 18 1 0
BITMAP
0600
0700
0900
1900
3180
0000
0000
f060
3060
60c0
60c0
60c0
60c0
c080
c180
c180
c780
79f0
ENDCHAR
STARTCHAR udieresis
ENCODING 252
SWIDTH 553 0
DWIDTH 14 0
BBX 12 17 1 0
BITMAP
0cc0
0cc0
0cc0
0000
0000
0000
f060
3060
60c0
60c0
60c0
60c0
c080
c180
c180
c780
79f0
ENDCHAR
STARTCHAR yacute
ENCODING 253
SWIDTH 475 0
DWIDTH 12 0
BBX 15 23 -3 -5
BITMAP
000e
001c
0018
0030
0060
0000
0000
3e0e
060c
0618
0210
0310
0320
0320
0340
01c0
0180
0180
0100
0200
0600
cc00
f000
ENDCHAR
STARTCHAR thorn
ENCODING 254
SWIDTH 516 0
DWIDTH 13 0
BBX 14 23 -2 -5
BITMAP
1f00
0300
0300
0700
0600
0600
0600
06f8
0f1c
0c0c
0c0c
0c0c
0c0c
1c1c
1818
1830
1860
1f80
3800
3000
3000
3000
fc00
ENDCHAR
STARTCHAR ydieresis
ENCODING 255
SWIDTH 475 0
DWIDTH 12 0
BBX 15 22 -3 -5
BITMAP
00cc
00cc
00cc
0000
0000
0000
3e0e
060c
0618
0210
0310
0320
0320
0340
01c0
0180
0180
0100
0200
0600
cc00
f000
ENDCHAR
ENDFONT
