STARTFONT 2.1
COMMENT  
COMMENT  Copyright 1988 Bitstream, Inc., Cambridge, Massachusetts, USA
COMMENT  Bitstream and Charter are registered trademarks of Bitstream, Inc.
COMMENT  
COMMENT  The names "Bitstream" and "Charter" are registered trademarks of
COMMENT  Bitstream, Inc.  Permission to use these trademarks is hereby
COMMENT  granted only in association with the images described in this file.
COMMENT  
COMMENT  Permission to use, copy, modify, and distribute this software and
COMMENT  its documentation for any purpose and without fee is hereby
COMMENT  granted, provided that the above copyright notice appear in all
COMMENT  copies and that both that copyright notice and this permission
COMMENT  notice appear in supporting documentation, and that the name of
COMMENT  Bitstream not be used in advertising or publicity pertaining to
COMMENT  distribution of the software without specific, written prior
COMMENT  permission.  Bitstream makes no representations about the
COMMENT  suitability of this software for any purpose.  It is provided "as
COMMENT  is" without express or implied warranty.
COMMENT  
COMMENT  BITSTREAM DISCLAIMS ALL WARRANTIES WITH REGARD TO THIS SOFTWARE,
COMMENT  INCLUDING ALL IMPLIED WARRANTIES OF MERCHANTABILITY AND FITNESS, IN
COMMENT  NO EVENT SHALL BITSTREAM BE LIABLE FOR ANY SPECIAL, INDIRECT OR
COMMENT  CONSEQUENTIAL DAMAGES OR ANY DAMAGES WHATSOEVER RESULTING FROM LOSS
COMMENT  OF USE, DATA OR PROFITS, WHETHER IN AN ACTION OF CONTRACT,
COMMENT  NEGLIGENCE OR OTHER TORTIOUS ACTION, ARISING OUT OF OR IN
COMMENT  CONNECTION WITH THE USE OR PERFORMANCE OF THIS SOFTWARE.
COMMENT  
COMMENT  
COMMENT Fontware CVTBDF v1.0
FONT -Bitstream-Charter-Bold-R-Normal--15-140-75-75-P-94-ISO8859-1
SIZE 14 75 75
FONTBOUNDINGBOX 16 17 -1 -3
STARTPROPERTIES 22
COMMENT Begin LogicalFontDescription
FONTNAME_REGISTRY ""
FAMILY_NAME "Charter"
FOUNDRY "Bitstream"
WEIGHT_NAME "Bold"
SETWIDTH_NAME "Normal"
SLANT "R"
ADD_STYLE_NAME ""
PIXEL_SIZE 15
POINT_SIZE 140
RESOLUTION_X 75
RESOLUTION_Y 75
SPACING "P"
AVERAGE_WIDTH 94
CHARSET_REGISTRY "ISO8859"
CHARSET_ENCODING "1"
COMMENT END LogicalFontDescription
FONT_DESCENT 3
FONT_ASCENT 14
CAP_HEIGHT 10
X_HEIGHT 7
CHARSET_COLLECTIONS "ASCII ISOLATIN1"
FULL_NAME "Bitstream Charter Black"
COPYRIGHT "Copyright 1987 by Bitstream Inc. Charter Registered trademark of Bitstream Inc."
COMMENT ****** end of font properties
ENDPROPERTIES
CHARS 191
STARTCHAR space
ENCODING 32
SWIDTH 322 0
DWIDTH 5 0
BBX 1 1 0 0
BITMAP
00
ENDCHAR
STARTCHAR exclam
ENCODING 33
SWIDTH 343 0
DWIDTH 5 0
BBX 3 10 1 0
BITMAP
e0
e0
e0
e0
40
40
00
e0
e0
e0
ENDCHAR
STARTCHAR quotedbl
ENCODING 34
SWIDTH 339 0
DWIDTH 5 0
BBX 3 4 1 7
BITMAP
a0
a0
a0
a0
ENDCHAR
STARTCHAR numbersign
ENCODING 35
SWIDTH 769 0
DWIDTH 11 0
BBX 9 11 1 0
BITMAP
0900
0900
1a00
7f80
1600
3400
ff00
2400
6800
4800
4800
ENDCHAR
STARTCHAR dollar
ENCODING 36
SWIDTH 644 0
DWIDTH 9 0
BBX 8 13 1 -1
BITMAP
1000
1000
3e00
7600
f600
f000
7c00
3e00
1f00
d700
d600
fc00
1000
ENDCHAR
STARTCHAR percent
ENCODING 37
SWIDTH 972 0
DWIDTH 14 0
BBX 12 11 1 0
BITMAP
7080
5880
d900
d900
dae0
54a0
75b0
09b0
09b0
11b0
10e0
ENDCHAR
STARTCHAR ampersand
ENCODING 38
SWIDTH 822 0
DWIDTH 12 0
BBX 11 10 1 0
BITMAP
1e00
7300
7300
7b00
3ee0
7e40
e780
e380
fbc0
3ce0
ENDCHAR
STARTCHAR quoteright
ENCODING 39
SWIDTH 331 0
DWIDTH 5 0
BBX 3 5 1 6
BITMAP
c0
e0
60
40
80
ENDCHAR
STARTCHAR parenleft
ENCODING 40
SWIDTH 440 0
DWIDTH 6 0
BBX 4 13 1 -2
BITMAP
30
60
40
c0
c0
c0
c0
c0
c0
c0
40
60
30
ENDCHAR
STARTCHAR parenright
ENCODING 41
SWIDTH 440 0
DWIDTH 6 0
BBX 4 13 1 -2
BITMAP
c0
60
20
30
30
30
30
30
30
30
20
60
c0
ENDCHAR
STARTCHAR asterisk
ENCODING 42
SWIDTH 500 0
DWIDTH 7 0
BBX 6 6 0 5
BITMAP
30
30
dc
30
78
48
ENDCHAR
STARTCHAR plus
ENCODING 43
SWIDTH 833 0
DWIDTH 12 0
BBX 9 9 2 0
BITMAP
0800
0800
0800
0800
ff80
0800
0800
0800
0800
ENDCHAR
STARTCHAR comma
ENCODING 44
SWIDTH 322 0
DWIDTH 4 0
BBX 3 5 1 -2
BITMAP
c0
e0
e0
60
80
ENDCHAR
STARTCHAR hyphen
ENCODING 45
SWIDTH 333 0
DWIDTH 5 0
BBX 4 1 1 4
BITMAP
f0
ENDCHAR
STARTCHAR period
ENCODING 46
SWIDTH 322 0
DWIDTH 4 0
BBX 3 3 1 0
BITMAP
e0
e0
e0
ENDCHAR
STARTCHAR slash
ENCODING 47
SWIDTH 500 0
DWIDTH 8 0
BBX 8 11 0 -1
BITMAP
0300
0200
0600
0400
0800
1800
1000
3000
2000
4000
c000
ENDCHAR
STARTCHAR zero
ENCODING 48
SWIDTH 644 0
DWIDTH 9 0
BBX 8 10 1 0
BITMAP
3c00
6600
6600
e700
e700
e700
e700
6600
6600
3c00
ENDCHAR
STARTCHAR one
ENCODING 49
SWIDTH 644 0
DWIDTH 9 0
BBX 5 10 3 0
BITMAP
70
f0
30
30
30
30
30
30
30
f8
ENDCHAR
STARTCHAR two
ENCODING 50
SWIDTH 644 0
DWIDTH 9 0
BBX 8 10 1 0
BITMAP
3c00
ef00
e700
e700
0700
0e00
1800
3100
ff00
ff00
ENDCHAR
STARTCHAR three
ENCODING 51
SWIDTH 644 0
DWIDTH 9 0
BBX 8 10 1 0
BITMAP
3c00
6e00
e700
6600
0e00
3c00
0700
e700
e600
7c00
ENDCHAR
STARTCHAR four
ENCODING 52
SWIDTH 644 0
DWIDTH 9 0
BBX 8 10 1 0
BITMAP
0c00
1c00
3c00
2c00
4c00
cc00
ff00
0c00
0c00
0c00
ENDCHAR
STARTCHAR five
ENCODING 53
SWIDTH 644 0
DWIDTH 9 0
BBX 8 10 1 0
BITMAP
fe00
fe00
8000
8000
fe00
0f00
0700
8700
ce00
fc00
ENDCHAR
STARTCHAR six
ENCODING 54
SWIDTH 644 0
DWIDTH 9 0
BBX 8 10 1 0
BITMAP
0c00
3000
7000
6000
fe00
e700
e700
e700
6600
3c00
ENDCHAR
STARTCHAR seven
ENCODING 55
SWIDTH 644 0
DWIDTH 9 0
BBX 8 10 1 0
BITMAP
ff00
ff00
8200
0600
0c00
0c00
1800
3000
3000
6000
ENDCHAR
STARTCHAR eight
ENCODING 56
SWIDTH 644 0
DWIDTH 9 0
BBX 8 10 1 0
BITMAP
1c00
6600
6700
7600
7c00
7e00
e700
e700
6600
3c00
ENDCHAR
STARTCHAR nine
ENCODING 57
SWIDTH 644 0
DWIDTH 9 0
BBX 8 10 1 0
BITMAP
3c00
6600
e700
e700
e700
7e00
0e00
0c00
1800
6000
ENDCHAR
STARTCHAR colon
ENCODING 58
SWIDTH 387 0
DWIDTH 6 0
BBX 3 7 2 0
BITMAP
e0
e0
e0
00
e0
e0
e0
ENDCHAR
STARTCHAR semicolon
ENCODING 59
SWIDTH 387 0
DWIDTH 6 0
BBX 4 9 1 -2
BITMAP
70
70
60
00
00
60
70
30
40
ENDCHAR
STARTCHAR less
ENCODING 60
SWIDTH 833 0
DWIDTH 12 0
BBX 8 8 2 1
BITMAP
0100
0700
3800
e000
e000
3800
0700
0100
ENDCHAR
STARTCHAR equal
ENCODING 61
SWIDTH 833 0
DWIDTH 12 0
BBX 8 4 2 3
BITMAP
ff00
0000
0000
ff00
ENDCHAR
STARTCHAR greater
ENCODING 62
SWIDTH 833 0
DWIDTH 12 0
BBX 8 8 2 1
BITMAP
8000
e000
1c00
0700
0700
1c00
f000
8000
ENDCHAR
STARTCHAR question
ENCODING 63
SWIDTH 519 0
DWIDTH 8 0
BBX 8 10 0 0
BITMAP
7c00
e700
e700
0700
1e00
1000
0000
3800
3800
3800
ENDCHAR
STARTCHAR at
ENCODING 64
SWIDTH 942 0
DWIDTH 14 0
BBX 12 13 1 -2
BITMAP
0780
1860
6020
47d0
cd90
8990
9990
99a0
99a0
cfc0
6000
3060
0f80
ENDCHAR
STARTCHAR A
ENCODING 65
SWIDTH 701 0
DWIDTH 11 0
BBX 11 10 0 0
BITMAP
0600
0f00
0f00
1b00
1b80
1380
3f80
21c0
61c0
f1e0
ENDCHAR
STARTCHAR B
ENCODING 66
SWIDTH 690 0
DWIDTH 10 0
BBX 9 10 1 0
BITMAP
fe00
6700
6700
6700
7e00
6780
6380
6380
6700
fe00
ENDCHAR
STARTCHAR C
ENCODING 67
SWIDTH 683 0
DWIDTH 10 0
BBX 9 10 1 0
BITMAP
1f80
7880
7080
e000
e000
e000
e000
7080
3880
1f80
ENDCHAR
STARTCHAR D
ENCODING 68
SWIDTH 780 0
DWIDTH 11 0
BBX 10 10 1 0
BITMAP
fe00
6780
6380
61c0
61c0
61c0
61c0
6380
6780
fe00
ENDCHAR
STARTCHAR E
ENCODING 69
SWIDTH 653 0
DWIDTH 9 0
BBX 8 10 1 0
BITMAP
ff00
6300
6000
6400
7c00
6400
6000
6100
6300
ff00
ENDCHAR
STARTCHAR F
ENCODING 70
SWIDTH 602 0
DWIDTH 9 0
BBX 8 10 1 0
BITMAP
ff00
6100
6100
6000
6200
7e00
6200
6000
6000
f800
ENDCHAR
STARTCHAR G
ENCODING 71
SWIDTH 766 0
DWIDTH 11 0
BBX 10 10 1 0
BITMAP
1f80
7880
7080
e000
e000
e3c0
e180
7180
7980
1f80
ENDCHAR
STARTCHAR H
ENCODING 72
SWIDTH 824 0
DWIDTH 12 0
BBX 11 10 1 0
BITMAP
f1e0
60c0
60c0
60c0
7fc0
60c0
60c0
60c0
60c0
f1e0
ENDCHAR
STARTCHAR I
ENCODING 73
SWIDTH 410 0
DWIDTH 5 0
BBX 4 10 1 0
BITMAP
f0
60
60
60
60
60
60
60
60
f0
ENDCHAR
STARTCHAR J
ENCODING 74
SWIDTH 516 0
DWIDTH 7 0
BBX 7 10 0 0
BITMAP
3e
0c
0c
0c
0c
0c
0c
8c
9c
f8
ENDCHAR
STARTCHAR K
ENCODING 75
SWIDTH 727 0
DWIDTH 11 0
BBX 10 10 1 0
BITMAP
f3c0
6300
6200
6400
6c00
7e00
6e00
6700
6780
f3c0
ENDCHAR
STARTCHAR L
ENCODING 76
SWIDTH 600 0
DWIDTH 9 0
BBX 8 10 1 0
BITMAP
f000
6000
6000
6000
6000
6000
6000
6300
6300
ff00
ENDCHAR
STARTCHAR M
ENCODING 77
SWIDTH 961 0
DWIDTH 14 0
BBX 13 10 1 0
BITMAP
f078
7870
78f0
5cb0
5db0
4d30
4f30
4f30
4630
e678
ENDCHAR
STARTCHAR N
ENCODING 78
SWIDTH 782 0
DWIDTH 11 0
BBX 10 10 1 0
BITMAP
f1c0
7080
7880
5c80
5c80
4e80
4780
4780
4380
e180
ENDCHAR
STARTCHAR O
ENCODING 79
SWIDTH 815 0
DWIDTH 12 0
BBX 11 10 1 0
BITMAP
1f00
71c0
60c0
e0e0
e0e0
e0e0
e0e0
70c0
7180
1f00
ENDCHAR
STARTCHAR P
ENCODING 80
SWIDTH 653 0
DWIDTH 9 0
BBX 8 10 1 0
BITMAP
fc00
6e00
6700
6700
6e00
7c00
6000
6000
6000
f000
ENDCHAR
STARTCHAR Q
ENCODING 81
SWIDTH 815 0
DWIDTH 12 0
BBX 11 12 1 -2
BITMAP
1f00
71c0
70c0
e0e0
e0e0
e0e0
e0e0
71c0
71c0
1f00
0e00
07c0
ENDCHAR
STARTCHAR R
ENCODING 82
SWIDTH 736 0
DWIDTH 11 0
BBX 10 10 1 0
BITMAP
fe00
6f00
6700
6700
6600
7800
6e00
6700
6700
f3c0
ENDCHAR
STARTCHAR S
ENCODING 83
SWIDTH 616 0
DWIDTH 9 0
BBX 8 10 1 0
BITMAP
7f00
e300
c100
f000
fe00
7f00
0700
8300
8700
fe00
ENDCHAR
STARTCHAR T
ENCODING 84
SWIDTH 646 0
DWIDTH 9 0
BBX 8 10 1 0
BITMAP
ff00
9900
9900
1800
1800
1800
1800
1800
1800
3c00
ENDCHAR
STARTCHAR U
ENCODING 85
SWIDTH 757 0
DWIDTH 11 0
BBX 10 10 1 0
BITMAP
f3c0
6180
6180
6180
6180
6180
6180
6180
7100
3e00
ENDCHAR
STARTCHAR V
ENCODING 86
SWIDTH 690 0
DWIDTH 10 0
BBX 11 10 0 0
BITMAP
f8e0
7040
38c0
3880
1880
1d80
1d00
0f00
0f00
0600
ENDCHAR
STARTCHAR W
ENCODING 87
SWIDTH 1014 0
DWIDTH 15 0
BBX 15 10 0 0
BITMAP
f18e
63c4
63c4
72c8
36e8
36e8
3c68
3c78
1c70
1830
ENDCHAR
STARTCHAR X
ENCODING 88
SWIDTH 713 0
DWIDTH 10 0
BBX 10 10 0 0
BITMAP
fbc0
7180
3b00
1a00
1c00
0e00
1600
3700
6380
f7c0
ENDCHAR
STARTCHAR Y
ENCODING 89
SWIDTH 671 0
DWIDTH 10 0
BBX 10 10 0 0
BITMAP
fbc0
7180
3100
3a00
1e00
0c00
0c00
0c00
0c00
1e00
ENDCHAR
STARTCHAR Z
ENCODING 90
SWIDTH 634 0
DWIDTH 9 0
BBX 8 10 0 0
BITMAP
ff00
c700
ce00
1c00
1c00
3800
3000
7100
e300
ff00
ENDCHAR
STARTCHAR bracketleft
ENCODING 91
SWIDTH 495 0
DWIDTH 7 0
BBX 4 12 2 -1
BITMAP
f0
c0
c0
c0
c0
c0
c0
c0
c0
c0
c0
f0
ENDCHAR
STARTCHAR backslash
ENCODING 92
SWIDTH 500 0
DWIDTH 8 0
BBX 8 11 0 -1
BITMAP
c000
4000
6000
2000
1000
1800
0800
0c00
0400
0200
0300
ENDCHAR
STARTCHAR bracketright
ENCODING 93
SWIDTH 495 0
DWIDTH 7 0
BBX 4 12 1 -1
BITMAP
f0
30
30
30
30
30
30
30
30
30
30
f0
ENDCHAR
STARTCHAR asciicircum
ENCODING 94
SWIDTH 1000 0
DWIDTH 15 0
BBX 9 4 3 7
BITMAP
1c00
3600
6300
8080
ENDCHAR
STARTCHAR underscore
ENCODING 95
SWIDTH 500 0
DWIDTH 7 0
BBX 7 1 0 -3
BITMAP
fe
ENDCHAR
STARTCHAR quoteleft
ENCODING 96
SWIDTH 331 0
DWIDTH 5 0
BBX 3 5 1 6
BITMAP
20
40
c0
e0
60
ENDCHAR
STARTCHAR a
ENCODING 97
SWIDTH 616 0
DWIDTH 9 0
BBX 8 7 1 0
BITMAP
7c00
c600
3e00
e600
c600
fe00
f700
ENDCHAR
STARTCHAR b
ENCODING 98
SWIDTH 650 0
DWIDTH 10 0
BBX 9 12 1 0
BITMAP
6000
e000
6000
6000
6000
7f00
6380
6180
6180
6180
6300
7e00
ENDCHAR
STARTCHAR c
ENCODING 99
SWIDTH 537 0
DWIDTH 8 0
BBX 7 7 1 0
BITMAP
3c
6e
ce
c0
c0
e2
7e
ENDCHAR
STARTCHAR d
ENCODING 100
SWIDTH 664 0
DWIDTH 10 0
BBX 9 12 1 0
BITMAP
0300
0f00
0300
0300
0300
7f00
6300
c300
c300
c300
ff00
7b80
ENDCHAR
STARTCHAR e
ENCODING 101
SWIDTH 590 0
DWIDTH 9 0
BBX 8 7 1 0
BITMAP
3e00
6300
c300
ff00
c000
e100
7f00
ENDCHAR
STARTCHAR f
ENCODING 102
SWIDTH 387 0
DWIDTH 6 0
BBX 6 12 1 0
BITMAP
1c
2c
6c
60
60
f8
60
60
60
60
60
f0
ENDCHAR
STARTCHAR g
ENCODING 103
SWIDTH 613 0
DWIDTH 9 0
BBX 8 10 1 -3
BITMAP
7c00
c700
c600
c600
7c00
4000
7e00
c600
c600
7c00
ENDCHAR
STARTCHAR h
ENCODING 104
SWIDTH 667 0
DWIDTH 10 0
BBX 9 12 1 0
BITMAP
6000
e000
6000
6000
6000
7f00
6300
6300
6300
6300
6300
f780
ENDCHAR
STARTCHAR i
ENCODING 105
SWIDTH 354 0
DWIDTH 5 0
BBX 4 12 1 0
BITMAP
60
60
60
60
00
e0
60
60
60
60
60
f0
ENDCHAR
STARTCHAR j
ENCODING 106
SWIDTH 352 0
DWIDTH 5 0
BBX 5 15 -1 -3
BITMAP
18
18
18
18
00
38
18
18
18
18
18
18
18
d0
60
ENDCHAR
STARTCHAR k
ENCODING 107
SWIDTH 623 0
DWIDTH 9 0
BBX 8 12 1 0
BITMAP
6000
e000
6000
6000
6000
6700
6400
6c00
7c00
6e00
6600
f700
ENDCHAR
STARTCHAR l
ENCODING 108
SWIDTH 350 0
DWIDTH 5 0
BBX 4 12 1 0
BITMAP
e0
60
60
60
60
60
60
60
60
60
60
f0
ENDCHAR
STARTCHAR m
ENCODING 109
SWIDTH 991 0
DWIDTH 13 0
BBX 12 7 1 0
BITMAP
ffe0
6660
6660
6660
6660
6660
f770
ENDCHAR
STARTCHAR n
ENCODING 110
SWIDTH 678 0
DWIDTH 10 0
BBX 9 7 1 0
BITMAP
ff00
6300
6300
6300
6300
6300
f780
ENDCHAR
STARTCHAR o
ENCODING 111
SWIDTH 650 0
DWIDTH 9 0
BBX 8 7 1 0
BITMAP
7e00
6600
c300
c300
c300
6600
7e00
ENDCHAR
STARTCHAR p
ENCODING 112
SWIDTH 667 0
DWIDTH 10 0
BBX 9 10 1 -3
BITMAP
ff80
6380
6180
6180
6180
6300
7e00
6000
6000
f800
ENDCHAR
STARTCHAR q
ENCODING 113
SWIDTH 655 0
DWIDTH 10 0
BBX 9 10 1 -3
BITMAP
3f00
6300
c300
c300
c300
e300
7f00
0300
0300
0f80
ENDCHAR
STARTCHAR r
ENCODING 114
SWIDTH 488 0
DWIDTH 7 0
BBX 6 7 1 0
BITMAP
ec
7c
64
60
60
60
f0
ENDCHAR
STARTCHAR s
ENCODING 115
SWIDTH 523 0
DWIDTH 8 0
BBX 7 7 1 0
BITMAP
7e
c2
f8
7e
8e
86
fc
ENDCHAR
STARTCHAR t
ENCODING 116
SWIDTH 407 0
DWIDTH 6 0
BBX 5 10 1 0
BITMAP
20
60
60
f8
60
60
60
60
60
78
ENDCHAR
STARTCHAR u
ENCODING 117
SWIDTH 667 0
DWIDTH 10 0
BBX 9 7 1 0
BITMAP
e700
6300
6300
6300
6300
7f00
3b80
ENDCHAR
STARTCHAR v
ENCODING 118
SWIDTH 565 0
DWIDTH 9 0
BBX 9 7 0 0
BITMAP
f780
6300
7200
3600
3c00
3c00
1800
ENDCHAR
STARTCHAR w
ENCODING 119
SWIDTH 873 0
DWIDTH 13 0
BBX 13 7 0 0
BITMAP
f338
7390
75b0
35a0
3da0
38e0
18c0
ENDCHAR
STARTCHAR x
ENCODING 120
SWIDTH 593 0
DWIDTH 9 0
BBX 9 7 0 0
BITMAP
f380
7200
3c00
1c00
3e00
6700
e780
ENDCHAR
STARTCHAR y
ENCODING 121
SWIDTH 567 0
DWIDTH 9 0
BBX 9 10 0 -3
BITMAP
fb80
7100
3300
3a00
3e00
1c00
1c00
0800
d800
f000
ENDCHAR
STARTCHAR z
ENCODING 122
SWIDTH 556 0
DWIDTH 8 0
BBX 7 7 1 0
BITMAP
fe
8c
1c
38
72
e2
fe
ENDCHAR
STARTCHAR braceleft
ENCODING 123
SWIDTH 500 0
DWIDTH 7 0
BBX 6 12 0 -1
BITMAP
1c
30
30
30
30
c0
30
30
30
30
30
1c
ENDCHAR
STARTCHAR bar
ENCODING 124
SWIDTH 500 0
DWIDTH 7 0
BBX 1 15 3 -3
BITMAP
80
80
80
80
80
80
80
80
80
80
80
80
80
80
80
ENDCHAR
STARTCHAR braceright
ENCODING 125
SWIDTH 500 0
DWIDTH 7 0
BBX 6 12 1 -1
BITMAP
e0
30
30
30
30
0c
30
30
30
30
30
e0
ENDCHAR
STARTCHAR c0126
ENCODING 126
SWIDTH 1000 0
DWIDTH 15 0
BBX 9 2 3 8
BITMAP
7880
8f00
ENDCHAR
STARTCHAR space
ENCODING 160
SWIDTH 322 0
DWIDTH 5 0
BBX 1 1 0 0
BITMAP
00
ENDCHAR
STARTCHAR exclamdown
ENCODING 161
SWIDTH 343 0
DWIDTH 5 0
BBX 3 10 1 0
BITMAP
60
e0
e0
00
40
40
40
e0
e0
e0
ENDCHAR
STARTCHAR cent
ENCODING 162
SWIDTH 644 0
DWIDTH 9 0
BBX 8 10 1 -1
BITMAP
0800
0800
3f00
eb00
c800
c800
cb00
6b00
3f00
0800
ENDCHAR
STARTCHAR sterling
ENCODING 163
SWIDTH 644 0
DWIDTH 9 0
BBX 8 10 1 0
BITMAP
1e00
3b00
7300
7000
7000
fe00
7000
6000
ff00
ff00
ENDCHAR
STARTCHAR currency
ENCODING 164
SWIDTH 606 0
DWIDTH 9 0
BBX 8 8 1 3
BITMAP
8100
7e00
6600
4200
4200
6600
7a00
8100
ENDCHAR
STARTCHAR yen
ENCODING 165
SWIDTH 671 0
DWIDTH 10 0
BBX 10 10 0 0
BITMAP
fbc0
7180
3100
3b00
7b80
1c00
7f80
0c00
0c00
1e00
ENDCHAR
STARTCHAR brokenbar
ENCODING 166
SWIDTH 500 0
DWIDTH 7 0
BBX 1 13 3 -2
BITMAP
80
80
80
80
80
80
00
80
80
80
80
80
80
ENDCHAR
STARTCHAR section
ENCODING 167
SWIDTH 500 0
DWIDTH 7 0
BBX 6 13 1 -2
BITMAP
38
68
e8
60
38
dc
cc
e8
70
18
5c
58
70
ENDCHAR
STARTCHAR dieresis
ENCODING 168
SWIDTH 500 0
DWIDTH 7 0
BBX 5 2 1 9
BITMAP
d8
d8
ENDCHAR
STARTCHAR copyright
ENCODING 169
SWIDTH 900 0
DWIDTH 13 0
BBX 11 12 1 0
BITMAP
0e00
3180
4040
4f40
9920
b020
b020
b020
9920
4f40
2080
1f00
ENDCHAR
STARTCHAR ordfeminine
ENCODING 170
SWIDTH 462 0
DWIDTH 7 0
BBX 6 5 1 4
BITMAP
78
3c
cc
dc
ec
ENDCHAR
STARTCHAR guillemotleft
ENCODING 171
SWIDTH 458 0
DWIDTH 7 0
BBX 6 6 0 1
BITMAP
24
6c
d8
d8
6c
24
ENDCHAR
STARTCHAR logicalnot
ENCODING 172
SWIDTH 833 0
DWIDTH 12 0
BBX 8 4 2 3
BITMAP
ff00
0100
0100
0100
ENDCHAR
STARTCHAR hyphen
ENCODING 173
SWIDTH 333 0
DWIDTH 5 0
BBX 4 1 1 4
BITMAP
f0
ENDCHAR
STARTCHAR registered
ENCODING 174
SWIDTH 900 0
DWIDTH 13 0
BBX 11 12 1 0
BITMAP
1e00
2180
4040
7e40
9320
9320
9c20
9320
7bc0
4040
2180
1e00
ENDCHAR
STARTCHAR macron
ENCODING 175
SWIDTH 500 0
DWIDTH 7 0
BBX 5 1 1 10
BITMAP
f8
ENDCHAR
STARTCHAR degree
ENCODING 176
SWIDTH 329 0
DWIDTH 5 0
BBX 4 4 1 7
BITMAP
60
90
90
60
ENDCHAR
STARTCHAR plusminus
ENCODING 177
SWIDTH 833 0
DWIDTH 12 0
BBX 9 9 2 1
BITMAP
0800
0800
0800
ff80
0800
0800
0800
0000
ff80
ENDCHAR
STARTCHAR twosuperior
ENCODING 178
SWIDTH 425 0
DWIDTH 6 0
BBX 5 6 1 4
BITMAP
70
d8
18
30
68
f8
ENDCHAR
STARTCHAR threesuperior
ENCODING 179
SWIDTH 425 0
DWIDTH 6 0
BBX 5 6 1 4
BITMAP
70
d8
10
20
18
f0
ENDCHAR
STARTCHAR acute
ENCODING 180
SWIDTH 500 0
DWIDTH 7 0
BBX 3 3 3 9
BITMAP
60
40
80
ENDCHAR
STARTCHAR mu
ENCODING 181
SWIDTH 578 0
DWIDTH 8 0
BBX 9 9 -1 -3
BITMAP
2200
2200
6600
6680
6480
7b00
c000
c000
8000
ENDCHAR
STARTCHAR paragraph
ENCODING 182
SWIDTH 500 0
DWIDTH 7 0
BBX 7 11 0 -1
BITMAP
3e
74
f4
f4
f4
74
04
04
04
04
04
ENDCHAR
STARTCHAR periodcentered
ENCODING 183
SWIDTH 322 0
DWIDTH 4 0
BBX 3 3 1 4
BITMAP
e0
e0
e0
ENDCHAR
STARTCHAR cedilla
ENCODING 184
SWIDTH 500 0
DWIDTH 7 0
BBX 3 3 2 -3
BITMAP
60
20
e0
ENDCHAR
STARTCHAR onesuperior
ENCODING 185
SWIDTH 425 0
DWIDTH 6 0
BBX 3 6 3 4
BITMAP
60
e0
60
60
60
e0
ENDCHAR
STARTCHAR ordmasculine
ENCODING 186
SWIDTH 488 0
DWIDTH 7 0
BBX 6 5 1 4
BITMAP
78
cc
cc
cc
78
ENDCHAR
STARTCHAR guillemotright
ENCODING 187
SWIDTH 458 0
DWIDTH 7 0
BBX 6 6 0 1
BITMAP
90
d8
6c
6c
d8
90
ENDCHAR
STARTCHAR onequarter
ENCODING 188
SWIDTH 977 0
DWIDTH 15 0
BBX 12 10 3 0
BITMAP
6100
e200
6600
6400
6860
e8e0
1160
3260
23f0
4060
ENDCHAR
STARTCHAR onehalf
ENCODING 189
SWIDTH 977 0
DWIDTH 15 0
BBX 12 10 3 0
BITMAP
6100
e200
6600
6400
68e0
e9b0
1030
3060
20d0
41f0
ENDCHAR
STARTCHAR threequarters
ENCODING 190
SWIDTH 977 0
DWIDTH 14 0
BBX 13 10 1 0
BITMAP
7040
d880
1180
2100
1a30
f270
04b0
0d30
09f8
1030
ENDCHAR
STARTCHAR questiondown
ENCODING 191
SWIDTH 519 0
DWIDTH 8 0
BBX 7 10 0 0
BITMAP
38
38
38
00
10
70
c0
ce
ce
7c
ENDCHAR
STARTCHAR Agrave
ENCODING 192
SWIDTH 701 0
DWIDTH 11 0
BBX 11 14 0 0
BITMAP
1800
0800
0400
0000
0600
0f00
0f00
1b00
1b80
1380
3f80
21c0
61c0
f1e0
ENDCHAR
STARTCHAR Aacute
ENCODING 193
SWIDTH 701 0
DWIDTH 11 0
BBX 11 14 0 0
BITMAP
0300
0200
0400
0000
0600
0f00
0f00
1b00
1b80
1380
3f80
21c0
61c0
f1e0
ENDCHAR
STARTCHAR Acircumflex
ENCODING 194
SWIDTH 701 0
DWIDTH 11 0
BBX 11 14 0 0
BITMAP
0e00
0a00
1b00
0000
0600
0f00
0f00
1b00
1b80
1380
3f80
21c0
61c0
f1e0
ENDCHAR
STARTCHAR Atilde
ENCODING 195
SWIDTH 701 0
DWIDTH 11 0
BBX 11 14 0 0
BITMAP
0900
1f00
1200
0000
0600
0f00
0f00
1b00
1b80
1380
3f80
21c0
61c0
f1e0
ENDCHAR
STARTCHAR Adieresis
ENCODING 196
SWIDTH 701 0
DWIDTH 11 0
BBX 11 13 0 0
BITMAP
1b00
1b00
0000
0600
0f00
0f00
1b00
1b80
1380
3f80
21c0
61c0
f1e0
ENDCHAR
STARTCHAR Aring
ENCODING 197
SWIDTH 701 0
DWIDTH 11 0
BBX 11 14 0 0
BITMAP
0600
0900
0600
0000
0600
0f00
0f00
1b00
1b80
1380
3f80
21c0
61c0
f1e0
ENDCHAR
STARTCHAR AE
ENCODING 198
SWIDTH 963 0
DWIDTH 14 0
BBX 15 10 -1 0
BITMAP
07fe
03c6
06c0
04c8
08f8
1fc8
10c0
30c2
60c6
f1fe
ENDCHAR
STARTCHAR Ccedilla
ENCODING 199
SWIDTH 683 0
DWIDTH 10 0
BBX 9 13 1 -3
BITMAP
1f80
7880
7080
e000
e000
e000
e000
7080
3880
1f80
0600
0200
0e00
ENDCHAR
STARTCHAR Egrave
ENCODING 200
SWIDTH 653 0
DWIDTH 9 0
BBX 8 14 1 0
BITMAP
3000
1000
0800
0000
ff00
6300
6000
6400
7c00
6400
6000
6100
6300
ff00
ENDCHAR
STARTCHAR Eacute
ENCODING 201
SWIDTH 653 0
DWIDTH 9 0
BBX 8 14 1 0
BITMAP
0600
0400
0800
0000
ff00
6300
6000
6400
7c00
6400
6000
6100
6300
ff00
ENDCHAR
STARTCHAR Ecircumflex
ENCODING 202
SWIDTH 653 0
DWIDTH 9 0
BBX 8 14 1 0
BITMAP
1c00
1400
3600
0000
ff00
6300
6000
6400
7c00
6400
6000
6100
6300
ff00
ENDCHAR
STARTCHAR Edieresis
ENCODING 203
SWIDTH 653 0
DWIDTH 9 0
BBX 8 13 1 0
BITMAP
3600
3600
0000
ff00
6300
6000
6400
7c00
6400
6000
6100
6300
ff00
ENDCHAR
STARTCHAR Igrave
ENCODING 204
SWIDTH 410 0
DWIDTH 5 0
BBX 5 14 0 0
BITMAP
c0
40
20
00
78
30
30
30
30
30
30
30
30
78
ENDCHAR
STARTCHAR Iacute
ENCODING 205
SWIDTH 410 0
DWIDTH 5 0
BBX 4 14 1 0
BITMAP
30
20
40
00
f0
60
60
60
60
60
60
60
60
f0
ENDCHAR
STARTCHAR Icircumflex
ENCODING 206
SWIDTH 410 0
DWIDTH 5 0
BBX 5 14 0 0
BITMAP
70
50
d8
00
78
30
30
30
30
30
30
30
30
78
ENDCHAR
STARTCHAR Idieresis
ENCODING 207
SWIDTH 410 0
DWIDTH 5 0
BBX 5 13 0 0
BITMAP
d8
d8
00
78
30
30
30
30
30
30
30
30
78
ENDCHAR
STARTCHAR Eth
ENCODING 208
SWIDTH 780 0
DWIDTH 11 0
BBX 10 10 1 0
BITMAP
fe00
6780
6180
61c0
f9c0
61c0
61c0
6380
6780
fe00
ENDCHAR
STARTCHAR Ntilde
ENCODING 209
SWIDTH 782 0
DWIDTH 11 0
BBX 10 14 1 0
BITMAP
1200
3e00
2400
0000
f1c0
7080
7880
5c80
5c80
4e80
4780
4780
4380
e180
ENDCHAR
STARTCHAR Ograve
ENCODING 210
SWIDTH 815 0
DWIDTH 12 0
BBX 11 14 1 0
BITMAP
1800
0800
0400
0000
1f00
71c0
60c0
e0e0
e0e0
e0e0
e0e0
70c0
7180
1f00
ENDCHAR
STARTCHAR Oacute
ENCODING 211
SWIDTH 815 0
DWIDTH 12 0
BBX 11 14 1 0
BITMAP
0300
0200
0400
0000
1f00
71c0
60c0
e0e0
e0e0
e0e0
e0e0
70c0
7180
1f00
ENDCHAR
STARTCHAR Ocircumflex
ENCODING 212
SWIDTH 815 0
DWIDTH 12 0
BBX 11 14 1 0
BITMAP
0e00
0a00
1b00
0000
1f00
71c0
60c0
e0e0
e0e0
e0e0
e0e0
70c0
7180
1f00
ENDCHAR
STARTCHAR Otilde
ENCODING 213
SWIDTH 815 0
DWIDTH 12 0
BBX 11 14 1 0
BITMAP
0900
1f00
1200
0000
1f00
71c0
60c0
e0e0
e0e0
e0e0
e0e0
70c0
7180
1f00
ENDCHAR
STARTCHAR Odieresis
ENCODING 214
SWIDTH 815 0
DWIDTH 12 0
BBX 11 13 1 0
BITMAP
1b00
1b00
0000
1f00
71c0
60c0
e0e0
e0e0
e0e0
e0e0
70c0
7180
1f00
ENDCHAR
STARTCHAR multiply
ENCODING 215
SWIDTH 833 0
DWIDTH 12 0
BBX 8 8 2 1
BITMAP
8100
4200
2400
1800
1800
2400
4200
8100
ENDCHAR
STARTCHAR Oslash
ENCODING 216
SWIDTH 815 0
DWIDTH 12 0
BBX 11 13 1 -1
BITMAP
0080
0080
1f80
71c0
62c0
e2e0
e4e0
e4e0
e8e0
78c0
3180
3f00
2000
ENDCHAR
STARTCHAR Ugrave
ENCODING 217
SWIDTH 757 0
DWIDTH 11 0
BBX 10 14 1 0
BITMAP
3000
1000
0800
0000
f3c0
6180
6180
6180
6180
6180
6180
6180
7100
3e00
ENDCHAR
STARTCHAR Uacute
ENCODING 218
SWIDTH 757 0
DWIDTH 11 0
BBX 10 14 1 0
BITMAP
0600
0400
0800
0000
f3c0
6180
6180
6180
6180
6180
6180
6180
7100
3e00
ENDCHAR
STARTCHAR Ucircumflex
ENCODING 219
SWIDTH 757 0
DWIDTH 11 0
BBX 10 14 1 0
BITMAP
1c00
1400
3600
0000
f3c0
6180
6180
6180
6180
6180
6180
6180
7100
3e00
ENDCHAR
STARTCHAR Udieresis
ENCODING 220
SWIDTH 757 0
DWIDTH 11 0
BBX 10 13 1 0
BITMAP
3600
3600
0000
f3c0
6180
6180
6180
6180
6180
6180
6180
7100
3e00
ENDCHAR
STARTCHAR Yacute
ENCODING 221
SWIDTH 671 0
DWIDTH 10 0
BBX 10 14 0 0
BITMAP
0600
0400
0800
0000
fbc0
7180
3100
3a00
1e00
0c00
0c00
0c00
0c00
1e00
ENDCHAR
STARTCHAR Thorn
ENCODING 222
SWIDTH 653 0
DWIDTH 9 0
BBX 8 10 1 0
BITMAP
f000
6000
7c00
6700
6700
6700
6e00
7c00
6000
f000
ENDCHAR
STARTCHAR germandbls
ENCODING 223
SWIDTH 713 0
DWIDTH 10 0
BBX 9 12 1 0
BITMAP
1e00
3700
6300
6300
6600
6c00
6e00
6700
6380
6980
6980
ef00
ENDCHAR
STARTCHAR agrave
ENCODING 224
SWIDTH 616 0
DWIDTH 9 0
BBX 8 12 1 0
BITMAP
6000
2000
1000
0000
0000
7c00
c600
3e00
e600
c600
fe00
f700
ENDCHAR
STARTCHAR aacute
ENCODING 225
SWIDTH 616 0
DWIDTH 9 0
BBX 8 12 1 0
BITMAP
0c00
0800
1000
0000
0000
7c00
c600
3e00
e600
c600
fe00
f700
ENDCHAR
STARTCHAR acircumflex
ENCODING 226
SWIDTH 616 0
DWIDTH 9 0
BBX 8 12 1 0
BITMAP
3800
2800
6c00
0000
0000
7c00
c600
3e00
e600
c600
fe00
f700
ENDCHAR
STARTCHAR atilde
ENCODING 227
SWIDTH 616 0
DWIDTH 9 0
BBX 8 12 1 0
BITMAP
2400
7c00
4800
0000
0000
7c00
c600
3e00
e600
c600
fe00
f700
ENDCHAR
STARTCHAR adieresis
ENCODING 228
SWIDTH 616 0
DWIDTH 9 0
BBX 8 11 1 0
BITMAP
6c00
6c00
0000
0000
7c00
c600
3e00
e600
c600
fe00
f700
ENDCHAR
STARTCHAR aring
ENCODING 229
SWIDTH 616 0
DWIDTH 9 0
BBX 8 12 1 0
BITMAP
3800
2400
2400
3800
0000
7c00
c600
3e00
e600
c600
fe00
f700
ENDCHAR
STARTCHAR ae
ENCODING 230
SWIDTH 854 0
DWIDTH 12 0
BBX 11 7 1 0
BITMAP
7bc0
cc60
0c60
3fe0
cc00
ce20
f7e0
ENDCHAR
STARTCHAR ccedilla
ENCODING 231
SWIDTH 537 0
DWIDTH 8 0
BBX 7 10 1 -3
BITMAP
3c
6e
ce
c0
c0
e2
7e
18
08
38
ENDCHAR
STARTCHAR egrave
ENCODING 232
SWIDTH 590 0
DWIDTH 9 0
BBX 8 12 1 0
BITMAP
6000
2000
1000
0000
0000
3e00
6300
c300
ff00
c000
e100
7f00
ENDCHAR
STARTCHAR eacute
ENCODING 233
SWIDTH 590 0
DWIDTH 9 0
BBX 8 12 1 0
BITMAP
0c00
0800
1000
0000
0000
3e00
6300
c300
ff00
c000
e100
7f00
ENDCHAR
STARTCHAR ecircumflex
ENCODING 234
SWIDTH 590 0
DWIDTH 9 0
BBX 8 12 1 0
BITMAP
3800
2800
6c00
0000
0000
3e00
6300
c300
ff00
c000
e100
7f00
ENDCHAR
STARTCHAR edieresis
ENCODING 235
SWIDTH 590 0
DWIDTH 9 0
BBX 8 11 1 0
BITMAP
6c00
6c00
0000
0000
3e00
6300
c300
ff00
c000
e100
7f00
ENDCHAR
STARTCHAR igrave
ENCODING 236
SWIDTH 354 0
DWIDTH 5 0
BBX 5 12 0 0
BITMAP
c0
40
20
00
00
70
30
30
30
30
30
78
ENDCHAR
STARTCHAR iacute
ENCODING 237
SWIDTH 354 0
DWIDTH 5 0
BBX 4 12 1 0
BITMAP
30
20
40
00
00
e0
60
60
60
60
60
f0
ENDCHAR
STARTCHAR icircumflex
ENCODING 238
SWIDTH 354 0
DWIDTH 5 0
BBX 5 12 0 0
BITMAP
70
50
d8
00
00
70
30
30
30
30
30
78
ENDCHAR
STARTCHAR idieresis
ENCODING 239
SWIDTH 354 0
DWIDTH 5 0
BBX 5 11 0 0
BITMAP
d8
d8
00
00
70
30
30
30
30
30
78
ENDCHAR
STARTCHAR eth
ENCODING 240
SWIDTH 645 0
DWIDTH 9 0
BBX 8 12 1 0
BITMAP
1a00
7e00
1c00
2e00
4e00
7e00
6300
c300
c300
c300
6600
3c00
ENDCHAR
STARTCHAR ntilde
ENCODING 241
SWIDTH 678 0
DWIDTH 10 0
BBX 9 12 1 0
BITMAP
1200
3e00
2400
0000
0000
ff00
6300
6300
6300
6300
6300
f780
ENDCHAR
STARTCHAR ograve
ENCODING 242
SWIDTH 650 0
DWIDTH 9 0
BBX 8 12 1 0
BITMAP
6000
2000
1000
0000
0000
7e00
6600
c300
c300
c300
6600
7e00
ENDCHAR
STARTCHAR oacute
ENCODING 243
SWIDTH 650 0
DWIDTH 9 0
BBX 8 12 1 0
BITMAP
0c00
0800
1000
0000
0000
7e00
6600
c300
c300
c300
6600
7e00
ENDCHAR
STARTCHAR ocircumflex
ENCODING 244
SWIDTH 650 0
DWIDTH 9 0
BBX 8 12 1 0
BITMAP
3800
2800
6c00
0000
0000
7e00
6600
c300
c300
c300
6600
7e00
ENDCHAR
STARTCHAR otilde
ENCODING 245
SWIDTH 650 0
DWIDTH 9 0
BBX 8 12 1 0
BITMAP
2400
7c00
4800
0000
0000
7e00
6600
c300
c300
c300
6600
7e00
ENDCHAR
STARTCHAR odieresis
ENCODING 246
SWIDTH 650 0
DWIDTH 9 0
BBX 8 11 1 0
BITMAP
6c00
6c00
0000
0000
7e00
6600
c300
c300
c300
6600
7e00
ENDCHAR
STARTCHAR divide
ENCODING 247
SWIDTH 833 0
DWIDTH 12 0
BBX 8 7 2 2
BITMAP
1800
1800
0000
ff00
0000
1800
1800
ENDCHAR
STARTCHAR oslash
ENCODING 248
SWIDTH 650 0
DWIDTH 9 0
BBX 8 9 1 -1
BITMAP
0200
3e00
6600
cb00
d300
f300
6600
7e00
4000
ENDCHAR
STARTCHAR ugrave
ENCODING 249
SWIDTH 667 0
DWIDTH 10 0
BBX 9 12 1 0
BITMAP
3000
1000
0800
0000
0000
e700
6300
6300
6300
6300
7f00
3b80
ENDCHAR
STARTCHAR uacute
ENCODING 250
SWIDTH 667 0
DWIDTH 10 0
BBX 9 12 1 0
BITMAP
0600
0400
0800
0000
0000
e700
6300
6300
6300
6300
7f00
3b80
ENDCHAR
STARTCHAR ucircumflex
ENCODING 251
SWIDTH 667 0
DWIDTH 10 0
BBX 9 12 1 0
BITMAP
1c00
1400
3600
0000
0000
e700
6300
6300
6300
6300
7f00
3b80
ENDCHAR
STARTCHAR udieresis
ENCODING 252
SWIDTH 667 0
DWIDTH 10 0
BBX 9 11 1 0
BITMAP
3600
3600
0000
0000
e700
6300
6300
6300
6300
7f00
3b80
ENDCHAR
STARTCHAR yacute
ENCODING 253
SWIDTH 567 0
DWIDTH 9 0
BBX 9 15 0 -3
BITMAP
0600
0400
0800
0000
0000
fb80
7100
3300
3a00
3e00
1c00
1c00
0800
d800
f000
ENDCHAR
STARTCHAR thorn
ENCODING 254
SWIDTH 667 0
DWIDTH 10 0
BBX 9 15 1 -3
BITMAP
6000
e000
6000
6000
6000
7f00
6380
6180
6180
6180
6300
7e00
6000
6000
f800
ENDCHAR
STARTCHAR ydieresis
ENCODING 255
SWIDTH 567 0
DWIDTH 9 0
BBX 9 14 0 -3
BITMAP
3600
3600
0000
0000
fb80
7100
3300
3a00
3e00
1c00
1c00
0800
d800
f000
ENDCHAR
ENDFONT
