STARTFONT 2.1
COMMENT $Xorg: charI18.bdf,v 1.3 2000/08/17 19:43:39 cpqbld Exp $
COMMENT  
COMMENT  Copyright 1988 Bitstream, Inc., Cambridge, Massachusetts, USA
COMMENT  Bitstream and Charter are registered trademarks of Bitstream, Inc.
COMMENT  
COMMENT  The names "Bitstream" and "Charter" are registered trademarks of
COMMENT  Bitstream, Inc.  Permission to use these trademarks is hereby
COMMENT  granted only in association with the images described in this file.
COMMENT  
COMMENT  Permission to use, copy, modify, and distribute this software and
COMMENT  its documentation for any purpose and without fee is hereby
COMMENT  granted, provided that the above copyright notice appear in all
COMMENT  copies and that both that copyright notice and this permission
COMMENT  notice appear in supporting documentation, and that the name of
COMMENT  Bitstream not be used in advertising or publicity pertaining to
COMMENT  distribution of the software without specific, written prior
COMMENT  permission.  Bitstream makes no representations about the
COMMENT  suitability of this software for any purpose.  It is provided "as
COMMENT  is" without express or implied warranty.
COMMENT  
COMMENT  BITSTREAM DISCLAIMS ALL WARRANTIES WITH REGARD TO THIS SOFTWARE,
COMMENT  INCLUDING ALL IMPLIED WARRANTIES OF MERCHANTABILITY AND FITNESS, IN
COMMENT  NO EVENT SHALL BITSTREAM BE LIABLE FOR ANY SPECIAL, INDIRECT OR
COMMENT  CONSEQUENTIAL DAMAGES OR ANY DAMAGES WHATSOEVER RESULTING FROM LOSS
COMMENT  OF USE, DATA OR PROFITS, WHETHER IN AN ACTION OF CONTRACT,
COMMENT  NEGLIGENCE OR OTHER TORTIOUS ACTION, ARISING OUT OF OR IN
COMMENT  CONNECTION WITH THE USE OR PERFORMANCE OF THIS SOFTWARE.
COMMENT  
COMMENT  
COMMENT Fontware CVTBDF v1.0
FONT -Bitstream-Charter-Medium-I-Normal--19-180-75-75-P-103-ISO8859-1
SIZE 18 75 75
FONTBOUNDINGBOX 21 23 -3 -4
STARTPROPERTIES 22
COMMENT Begin LogicalFontDescription
FONTNAME_REGISTRY ""
FAMILY_NAME "Charter"
FOUNDRY "Bitstream"
WEIGHT_NAME "Medium"
SETWIDTH_NAME "Normal"
SLANT "I"
ADD_STYLE_NAME ""
PIXEL_SIZE 19
POINT_SIZE 180
RESOLUTION_X 75
RESOLUTION_Y 75
SPACING "P"
AVERAGE_WIDTH 103
CHARSET_REGISTRY "ISO8859"
CHARSET_ENCODING "1"
COMMENT END LogicalFontDescription
FONT_DESCENT 4
FONT_ASCENT 19
CAP_HEIGHT 13
X_HEIGHT 8
CHARSET_COLLECTIONS "ASCII ISOLATIN1"
FACE_NAME "Bitstream Charter Italic"
COPYRIGHT "Copyright 1987 by Bitstream Inc. Charter Registered trademark of Bitstream Inc."
COMMENT ****** end of font properties
ENDPROPERTIES
CHARS 191
STARTCHAR space
ENCODING 32
SWIDTH 278 0
DWIDTH 5 0
BBX 1 1 0 0
BITMAP
00
ENDCHAR
STARTCHAR exclam
ENCODING 33
SWIDTH 338 0
DWIDTH 6 0
BBX 4 13 1 0
BITMAP
30
30
30
20
20
60
60
40
40
40
00
c0
c0
ENDCHAR
STARTCHAR quotedbl
ENCODING 34
SWIDTH 331 0
DWIDTH 7 0
BBX 5 5 1 9
BITMAP
d8
d8
d8
48
48
ENDCHAR
STARTCHAR numbersign
ENCODING 35
SWIDTH 745 0
DWIDTH 14 0
BBX 12 14 1 0
BITMAP
0220
0440
0440
0440
7ff0
0880
0880
1100
ffe0
1100
2200
2200
2200
4400
ENDCHAR
STARTCHAR dollar
ENCODING 36
SWIDTH 556 0
DWIDTH 10 0
BBX 9 17 0 -2
BITMAP
0200
0200
0f80
1480
2480
2400
2400
3800
1e00
0f00
0b00
4900
8b00
d600
7c00
1000
1000
ENDCHAR
STARTCHAR percent
ENCODING 37
SWIDTH 852 0
DWIDTH 16 0
BBX 15 13 1 0
BITMAP
3804
6408
4410
8420
8440
8c9c
8922
7222
0442
0842
1046
204c
6038
ENDCHAR
STARTCHAR ampersand
ENCODING 38
SWIDTH 704 0
DWIDTH 13 0
BBX 12 13 0 0
BITMAP
0700
1980
3080
3180
3100
1e00
3cf0
6420
c640
c380
c180
e2c0
7ce0
ENDCHAR
STARTCHAR quoteright
ENCODING 39
SWIDTH 201 0
DWIDTH 4 0
BBX 3 5 1 9
BITMAP
60
60
20
40
c0
ENDCHAR
STARTCHAR parenleft
ENCODING 40
SWIDTH 419 0
DWIDTH 8 0
BBX 8 16 1 -2
BITMAP
0300
0c00
1800
3000
3000
6000
6000
6000
c000
c000
c000
c000
c000
6000
2000
1800
ENDCHAR
STARTCHAR parenright
ENCODING 41
SWIDTH 419 0
DWIDTH 8 0
BBX 7 16 -1 -2
BITMAP
10
08
04
06
06
06
06
06
04
0c
0c
08
18
10
20
c0
ENDCHAR
STARTCHAR asterisk
ENCODING 42
SWIDTH 500 0
DWIDTH 9 0
BBX 7 7 2 7
BITMAP
10
10
56
ec
30
48
48
ENDCHAR
STARTCHAR plus
ENCODING 43
SWIDTH 833 0
DWIDTH 16 0
BBX 11 11 3 0
BITMAP
0400
0400
0400
0400
0400
ffe0
0400
0400
0400
0400
0400
ENDCHAR
STARTCHAR comma
ENCODING 44
SWIDTH 278 0
DWIDTH 5 0
BBX 3 5 -1 -3
BITMAP
60
60
20
40
80
ENDCHAR
STARTCHAR hyphen
ENCODING 45
SWIDTH 319 0
DWIDTH 6 0
BBX 4 1 1 5
BITMAP
f0
ENDCHAR
STARTCHAR period
ENCODING 46
SWIDTH 278 0
DWIDTH 5 0
BBX 2 2 0 0
BITMAP
c0
c0
ENDCHAR
STARTCHAR slash
ENCODING 47
SWIDTH 481 0
DWIDTH 9 0
BBX 12 14 -2 -1
BITMAP
0030
0020
0040
0080
0180
0100
0200
0400
0800
0800
1000
2000
4000
c000
ENDCHAR
STARTCHAR zero
ENCODING 48
SWIDTH 556 0
DWIDTH 10 0
BBX 9 13 1 0
BITMAP
0e00
1300
2180
6180
6180
4180
c180
c100
c300
c300
c200
6400
3800
ENDCHAR
STARTCHAR one
ENCODING 49
SWIDTH 556 0
DWIDTH 10 0
BBX 6 13 1 0
BITMAP
1c
7c
0c
08
08
08
18
18
10
10
10
30
fc
ENDCHAR
STARTCHAR two
ENCODING 50
SWIDTH 556 0
DWIDTH 10 0
BBX 10 13 -1 0
BITMAP
0f80
11c0
30c0
30c0
00c0
0180
0180
0200
0400
0800
3080
6080
ff80
ENDCHAR
STARTCHAR three
ENCODING 51
SWIDTH 556 0
DWIDTH 10 0
BBX 9 13 0 0
BITMAP
0f00
3380
2180
2180
0100
0600
1c00
0300
0300
0300
c300
c600
7800
ENDCHAR
STARTCHAR four
ENCODING 52
SWIDTH 556 0
DWIDTH 10 0
BBX 9 14 0 -1
BITMAP
0180
0380
0700
0d00
0900
1300
2300
4300
ff80
0200
0200
0600
0600
0400
ENDCHAR
STARTCHAR five
ENCODING 53
SWIDTH 556 0
DWIDTH 10 0
BBX 9 13 0 0
BITMAP
1f80
2000
2000
2000
2000
3c00
0600
0300
0300
0300
8600
cc00
7000
ENDCHAR
STARTCHAR six
ENCODING 54
SWIDTH 556 0
DWIDTH 10 0
BBX 9 14 0 0
BITMAP
0380
0c00
1800
3000
2000
7e00
6380
c180
c180
c180
c180
c300
6600
3c00
ENDCHAR
STARTCHAR seven
ENCODING 55
SWIDTH 556 0
DWIDTH 10 0
BBX 10 14 1 -1
BITMAP
7fc0
4080
4180
0300
0200
0600
0400
0800
1800
1000
2000
6000
4000
8000
ENDCHAR
STARTCHAR eight
ENCODING 56
SWIDTH 556 0
DWIDTH 10 0
BBX 9 13 0 0
BITMAP
0f00
1980
3080
3080
3080
1900
1e00
2300
4180
c180
c100
6300
3c00
ENDCHAR
STARTCHAR nine
ENCODING 57
SWIDTH 556 0
DWIDTH 10 0
BBX 9 13 1 0
BITMAP
1e00
3300
6180
c180
c180
c180
6300
3f00
0600
0c00
1800
3000
c000
ENDCHAR
STARTCHAR colon
ENCODING 58
SWIDTH 319 0
DWIDTH 6 0
BBX 4 8 1 0
BITMAP
70
30
00
00
00
00
e0
c0
ENDCHAR
STARTCHAR semicolon
ENCODING 59
SWIDTH 319 0
DWIDTH 6 0
BBX 5 11 -1 -3
BITMAP
18
18
00
00
00
00
30
70
10
20
c0
ENDCHAR
STARTCHAR less
ENCODING 60
SWIDTH 833 0
DWIDTH 16 0
BBX 11 10 2 1
BITMAP
0020
01c0
0700
3800
e000
e000
3800
0700
01c0
0020
ENDCHAR
STARTCHAR equal
ENCODING 61
SWIDTH 833 0
DWIDTH 16 0
BBX 11 5 3 4
BITMAP
ffe0
0000
0000
0000
ffe0
ENDCHAR
STARTCHAR greater
ENCODING 62
SWIDTH 833 0
DWIDTH 16 0
BBX 11 10 3 1
BITMAP
8000
7000
1c00
0380
00e0
00e0
0380
1c00
7000
8000
ENDCHAR
STARTCHAR question
ENCODING 63
SWIDTH 486 0
DWIDTH 9 0
BBX 7 13 1 0
BITMAP
78
ce
c6
06
06
0c
18
60
40
40
00
c0
c0
ENDCHAR
STARTCHAR at
ENCODING 64
SWIDTH 942 0
DWIDTH 18 0
BBX 15 16 2 -2
BITMAP
03e0
0c18
1004
6004
41d2
4332
8622
8c22
8c22
8c64
8ce8
c770
6000
3000
1c18
07e0
ENDCHAR
STARTCHAR A
ENCODING 65
SWIDTH 606 0
DWIDTH 11 0
BBX 13 13 -2 0
BITMAP
00c0
01c0
01c0
0240
0240
0460
0860
0fe0
1060
1020
2020
6030
f078
ENDCHAR
STARTCHAR B
ENCODING 66
SWIDTH 588 0
DWIDTH 11 0
BBX 11 13 -1 0
BITMAP
3fc0
08e0
1860
1860
1840
1180
1f80
30c0
3060
3060
20c0
2180
ff00
ENDCHAR
STARTCHAR C
ENCODING 67
SWIDTH 604 0
DWIDTH 12 0
BBX 11 13 1 0
BITMAP
07c0
1c20
3020
2020
6000
c000
c000
c000
c000
c080
6080
3080
1f00
ENDCHAR
STARTCHAR D
ENCODING 68
SWIDTH 671 0
DWIDTH 12 0
BBX 12 13 -1 0
BITMAP
3f80
18c0
1860
1830
1030
1030
3030
3030
3060
2060
20c0
6300
fe00
ENDCHAR
STARTCHAR E
ENCODING 69
SWIDTH 546 0
DWIDTH 10 0
BBX 11 13 0 0
BITMAP
3fe0
0820
1820
1800
1880
1080
1f00
3100
3100
3000
2040
20c0
ff80
ENDCHAR
STARTCHAR F
ENCODING 70
SWIDTH 509 0
DWIDTH 10 0
BBX 11 13 -1 0
BITMAP
3fe0
0860
1860
1800
1880
1080
1f00
3100
3100
3000
2000
2000
f800
ENDCHAR
STARTCHAR G
ENCODING 71
SWIDTH 664 0
DWIDTH 12 0
BBX 11 13 1 0
BITMAP
07e0
0c60
1060
3040
6000
6000
c000
c1e0
c0c0
c080
6080
3180
1f00
ENDCHAR
STARTCHAR H
ENCODING 72
SWIDTH 712 0
DWIDTH 13 0
BBX 14 13 -1 0
BITMAP
3c3c
1818
1810
1810
1030
1030
3ff0
3020
3020
3060
2060
2060
f0f0
ENDCHAR
STARTCHAR I
ENCODING 73
SWIDTH 313 0
DWIDTH 6 0
BBX 7 13 0 0
BITMAP
3e
08
18
18
18
18
10
30
30
30
30
20
f8
ENDCHAR
STARTCHAR J
ENCODING 74
SWIDTH 447 0
DWIDTH 9 0
BBX 10 13 -1 0
BITMAP
07c0
0100
0100
0300
0300
0300
0200
0200
0600
4600
c400
cc00
f800
ENDCHAR
STARTCHAR K
ENCODING 75
SWIDTH 625 0
DWIDTH 12 0
BBX 13 13 -1 0
BITMAP
3ef8
0820
1840
1880
1900
1200
1e00
3600
3300
3300
2180
2080
f8e0
ENDCHAR
STARTCHAR L
ENCODING 76
SWIDTH 498 0
DWIDTH 9 0
BBX 9 13 -1 0
BITMAP
3e00
1800
1800
1800
1800
1000
1000
3000
3000
3080
2080
2180
ff00
ENDCHAR
STARTCHAR M
ENCODING 77
SWIDTH 839 0
DWIDTH 16 0
BBX 17 13 -1 0
BITMAP
3c0780
0c0600
140a00
160a00
161600
163600
162600
226400
224400
238c00
238c00
230c00
f13e00
ENDCHAR
STARTCHAR N
ENCODING 78
SWIDTH 683 0
DWIDTH 13 0
BBX 14 13 -1 0
BITMAP
383c
1c18
1c10
1610
1610
1310
1330
21a0
21a0
20a0
20e0
2060
f040
ENDCHAR
STARTCHAR O
ENCODING 79
SWIDTH 708 0
DWIDTH 13 0
BBX 11 13 1 0
BITMAP
0700
1880
30c0
6060
6060
c060
c060
c060
c0c0
c0c0
6180
2300
1e00
ENDCHAR
STARTCHAR P
ENCODING 80
SWIDTH 542 0
DWIDTH 10 0
BBX 11 13 -1 0
BITMAP
3f80
08c0
1860
1860
1860
10c0
1180
3f00
3000
3000
2000
2000
f000
ENDCHAR
STARTCHAR Q
ENCODING 81
SWIDTH 708 0
DWIDTH 13 0
BBX 12 16 1 -3
BITMAP
0700
1880
30c0
6060
6060
c060
c060
c060
c0c0
c0c0
6180
2300
1e00
0300
0310
01e0
ENDCHAR
STARTCHAR R
ENCODING 82
SWIDTH 602 0
DWIDTH 11 0
BBX 12 13 -1 0
BITMAP
3f80
08e0
1860
1860
1840
1180
1e00
3100
3180
3080
20c0
20c0
f870
ENDCHAR
STARTCHAR S
ENCODING 83
SWIDTH 537 0
DWIDTH 10 0
BBX 10 13 0 0
BITMAP
0780
18c0
1080
3000
3000
1800
0e00
0300
0180
4180
4180
c300
7c00
ENDCHAR
STARTCHAR T
ENCODING 84
SWIDTH 565 0
DWIDTH 10 0
BBX 10 13 1 0
BITMAP
ffc0
8c40
8c40
0800
0800
0800
1800
1800
1800
1000
1000
3000
7800
ENDCHAR
STARTCHAR U
ENCODING 85
SWIDTH 664 0
DWIDTH 12 0
BBX 12 13 1 0
BITMAP
f8f0
2020
2040
6040
6040
6040
6040
c080
c080
c080
c080
e300
3e00
ENDCHAR
STARTCHAR V
ENCODING 86
SWIDTH 590 0
DWIDTH 11 0
BBX 11 13 1 0
BITMAP
f0e0
6040
6080
6080
2100
2100
2200
2200
3400
3400
3800
1800
1000
ENDCHAR
STARTCHAR W
ENCODING 87
SWIDTH 898 0
DWIDTH 17 0
BBX 17 13 1 0
BITMAP
f08780
60c100
61c200
61c200
62c400
22c400
244800
244800
285000
285000
387000
306000
306000
ENDCHAR
STARTCHAR X
ENCODING 88
SWIDTH 569 0
DWIDTH 10 0
BBX 13 13 -2 0
BITMAP
1e78
0820
0c60
0440
0680
0300
0300
0500
0d80
1980
3080
20c0
f1e0
ENDCHAR
STARTCHAR Y
ENCODING 89
SWIDTH 563 0
DWIDTH 11 0
BBX 11 13 1 0
BITMAP
f1e0
6080
2080
3100
3200
1400
1c00
1800
1800
1800
1000
1000
7c00
ENDCHAR
STARTCHAR Z
ENCODING 90
SWIDTH 556 0
DWIDTH 10 0
BBX 11 13 0 0
BITMAP
1fe0
10c0
20c0
0180
0300
0600
0400
0c00
1800
3080
6080
6080
ff80
ENDCHAR
STARTCHAR bracketleft
ENCODING 91
SWIDTH 421 0
DWIDTH 8 0
BBX 7 16 1 -2
BITMAP
1e
10
30
30
20
20
20
20
60
60
40
40
40
c0
c0
f0
ENDCHAR
STARTCHAR backslash
ENCODING 92
SWIDTH 481 0
DWIDTH 9 0
BBX 8 14 1 -1
BITMAP
8000
4000
4000
2000
2000
1000
1000
0800
0800
0400
0400
0200
0200
0100
ENDCHAR
STARTCHAR bracketright
ENCODING 93
SWIDTH 421 0
DWIDTH 8 0
BBX 8 16 -1 -2
BITMAP
1f00
0300
0300
0200
0200
0600
0600
0400
0400
0400
0c00
0c00
0800
0800
1800
f800
ENDCHAR
STARTCHAR asciicircum
ENCODING 94
SWIDTH 1000 0
DWIDTH 19 0
BBX 11 5 4 9
BITMAP
0e00
1b00
3180
60c0
8020
ENDCHAR
STARTCHAR underscore
ENCODING 95
SWIDTH 500 0
DWIDTH 9 0
BBX 9 1 0 -4
BITMAP
ff80
ENDCHAR
STARTCHAR quoteleft
ENCODING 96
SWIDTH 201 0
DWIDTH 4 0
BBX 4 5 1 9
BITMAP
30
40
c0
e0
e0
ENDCHAR
STARTCHAR a
ENCODING 97
SWIDTH 525 0
DWIDTH 10 0
BBX 9 8 0 0
BITMAP
0f80
3180
6100
c100
c300
c300
e600
7b80
ENDCHAR
STARTCHAR b
ENCODING 98
SWIDTH 507 0
DWIDTH 9 0
BBX 8 14 0 0
BITMAP
e000
2000
6000
6000
6000
6000
5e00
6300
4300
c300
8200
8600
8c00
7000
ENDCHAR
STARTCHAR c
ENCODING 99
SWIDTH 394 0
DWIDTH 7 0
BBX 6 8 0 0
BITMAP
1c
2c
40
c0
c0
c0
cc
30
ENDCHAR
STARTCHAR d
ENCODING 100
SWIDTH 523 0
DWIDTH 10 0
BBX 9 14 0 0
BITMAP
0380
0080
0080
0080
0100
0100
0f00
3100
6100
c100
c300
c300
c600
7b80
ENDCHAR
STARTCHAR e
ENCODING 101
SWIDTH 424 0
DWIDTH 8 0
BBX 7 8 0 0
BITMAP
1c
26
66
48
f0
c0
c6
38
ENDCHAR
STARTCHAR f
ENCODING 102
SWIDTH 292 0
DWIDTH 5 0
BBX 10 18 -3 -4
BITMAP
01c0
02c0
0200
0600
0400
0400
1f80
0c00
0c00
0c00
0800
0800
0800
1800
1000
1000
a000
c000
ENDCHAR
STARTCHAR g
ENCODING 103
SWIDTH 481 0
DWIDTH 10 0
BBX 10 12 0 -4
BITMAP
0c00
33c0
6300
6600
1800
1000
3800
4e00
8300
8300
c600
7800
ENDCHAR
STARTCHAR h
ENCODING 104
SWIDTH 551 0
DWIDTH 10 0
BBX 9 14 0 0
BITMAP
7000
1000
1000
3000
3000
3000
2700
3b00
6300
6300
6200
4200
4600
c380
ENDCHAR
STARTCHAR i
ENCODING 105
SWIDTH 287 0
DWIDTH 5 0
BBX 4 14 1 0
BITMAP
30
30
30
00
00
00
e0
60
60
40
c0
c0
c0
f0
ENDCHAR
STARTCHAR j
ENCODING 106
SWIDTH 269 0
DWIDTH 5 0
BBX 7 18 -2 -4
BITMAP
06
06
06
00
00
00
1c
04
04
0c
0c
08
08
08
18
10
10
e0
ENDCHAR
STARTCHAR k
ENCODING 107
SWIDTH 514 0
DWIDTH 10 0
BBX 9 14 0 0
BITMAP
7800
1000
1000
1000
3000
3000
2180
2680
2800
7800
6c00
4400
4600
c380
ENDCHAR
STARTCHAR l
ENCODING 108
SWIDTH 275 0
DWIDTH 5 0
BBX 4 14 0 0
BITMAP
f0
30
30
20
20
60
60
40
40
40
c0
c0
c0
f0
ENDCHAR
STARTCHAR m
ENCODING 109
SWIDTH 815 0
DWIDTH 15 0
BBX 14 8 1 0
BITMAP
ef78
3398
6318
6318
4310
4210
c230
c63c
ENDCHAR
STARTCHAR n
ENCODING 110
SWIDTH 556 0
DWIDTH 10 0
BBX 9 8 1 0
BITMAP
ef00
7300
6300
4300
4200
4200
c600
c780
ENDCHAR
STARTCHAR o
ENCODING 111
SWIDTH 502 0
DWIDTH 9 0
BBX 8 8 0 0
BITMAP
1c00
2600
6300
c300
c300
c600
4400
3800
ENDCHAR
STARTCHAR p
ENCODING 112
SWIDTH 516 0
DWIDTH 10 0
BBX 10 12 -1 -4
BITMAP
3780
18c0
10c0
30c0
20c0
2180
2300
3c00
2000
6000
4000
f000
ENDCHAR
STARTCHAR q
ENCODING 113
SWIDTH 512 0
DWIDTH 10 0
BBX 9 12 0 -4
BITMAP
0e80
3180
6100
c100
c300
c300
c700
7a00
0200
0600
0600
0f80
ENDCHAR
STARTCHAR r
ENCODING 114
SWIDTH 398 0
DWIDTH 7 0
BBX 7 8 0 0
BITMAP
ee
36
60
60
40
40
c0
c0
ENDCHAR
STARTCHAR s
ENCODING 115
SWIDTH 370 0
DWIDTH 7 0
BBX 6 8 0 0
BITMAP
1c
24
60
30
18
cc
88
70
ENDCHAR
STARTCHAR t
ENCODING 116
SWIDTH 333 0
DWIDTH 6 0
BBX 5 11 1 0
BITMAP
20
20
60
f8
40
40
40
c0
80
c0
f0
ENDCHAR
STARTCHAR u
ENCODING 117
SWIDTH 553 0
DWIDTH 10 0
BBX 8 8 1 0
BITMAP
e300
6300
4200
4200
c600
c600
ce00
f700
ENDCHAR
STARTCHAR v
ENCODING 118
SWIDTH 454 0
DWIDTH 9 0
BBX 9 8 0 0
BITMAP
e180
3180
3100
3100
3200
1400
1800
3000
ENDCHAR
STARTCHAR w
ENCODING 119
SWIDTH 713 0
DWIDTH 13 0
BBX 13 8 0 0
BITMAP
e118
6318
6310
2510
2920
2940
3180
2180
ENDCHAR
STARTCHAR x
ENCODING 120
SWIDTH 477 0
DWIDTH 9 0
BBX 10 8 -1 0
BITMAP
78c0
1940
0a00
0c00
0c00
1400
a600
c380
ENDCHAR
STARTCHAR y
ENCODING 121
SWIDTH 475 0
DWIDTH 9 0
BBX 11 12 -2 -4
BITMAP
3860
0840
0880
0c80
0d00
0500
0600
0600
0400
0800
d000
e000
ENDCHAR
STARTCHAR z
ENCODING 122
SWIDTH 440 0
DWIDTH 8 0
BBX 9 8 -1 0
BITMAP
3f80
4100
6600
0c00
1800
3300
6900
fe00
ENDCHAR
STARTCHAR braceleft
ENCODING 123
SWIDTH 486 0
DWIDTH 9 0
BBX 7 16 1 -2
BITMAP
0e
18
10
10
10
10
30
c0
30
10
10
10
10
10
18
0e
ENDCHAR
STARTCHAR bar
ENCODING 124
SWIDTH 500 0
DWIDTH 9 0
BBX 1 19 4 -4
BITMAP
80
80
80
80
80
80
80
80
80
80
80
80
80
80
80
80
80
80
80
ENDCHAR
STARTCHAR braceright
ENCODING 125
SWIDTH 486 0
DWIDTH 9 0
BBX 7 16 1 -2
BITMAP
e0
30
10
10
10
10
18
06
18
10
10
10
10
10
30
e0
ENDCHAR
STARTCHAR c0126
ENCODING 126
SWIDTH 1000 0
DWIDTH 19 0
BBX 11 2 4 11
BITMAP
3c60
c780
ENDCHAR
STARTCHAR space
ENCODING 160
SWIDTH 278 0
DWIDTH 5 0
BBX 1 1 0 0
BITMAP
00
ENDCHAR
STARTCHAR exclamdown
ENCODING 161
SWIDTH 338 0
DWIDTH 6 0
BBX 4 13 1 0
BITMAP
30
30
00
20
20
20
60
60
40
40
c0
c0
c0
ENDCHAR
STARTCHAR cent
ENCODING 162
SWIDTH 556 0
DWIDTH 10 0
BBX 8 14 1 -2
BITMAP
0400
0400
0f00
3500
2900
6800
c800
c800
c800
ca00
7200
3e00
1000
1000
ENDCHAR
STARTCHAR sterling
ENCODING 163
SWIDTH 556 0
DWIDTH 10 0
BBX 11 13 -1 0
BITMAP
01c0
0260
0440
0c00
0c00
0c00
0800
3f80
1800
1800
1000
2000
ff80
ENDCHAR
STARTCHAR currency
ENCODING 164
SWIDTH 606 0
DWIDTH 11 0
BBX 10 10 1 4
BITMAP
8040
5e80
2100
4080
4080
4080
4080
2100
5e80
8040
ENDCHAR
STARTCHAR yen
ENCODING 165
SWIDTH 556 0
DWIDTH 10 0
BBX 11 13 0 0
BITMAP
78e0
3040
3080
1100
1100
7bc0
1c00
0c00
ff80
0800
1800
1800
3c00
ENDCHAR
STARTCHAR brokenbar
ENCODING 166
SWIDTH 500 0
DWIDTH 9 0
BBX 1 17 4 -3
BITMAP
80
80
80
80
80
80
80
00
00
00
80
80
80
80
80
80
80
ENDCHAR
STARTCHAR section
ENCODING 167
SWIDTH 500 0
DWIDTH 9 0
BBX 9 16 0 -2
BITMAP
0f80
1080
3100
3000
3c00
1e00
2300
4100
4100
6200
3c00
1e00
0600
8600
8400
7800
ENDCHAR
STARTCHAR dieresis
ENCODING 168
SWIDTH 500 0
DWIDTH 9 0
BBX 5 2 3 12
BITMAP
d8
d8
ENDCHAR
STARTCHAR copyright
ENCODING 169
SWIDTH 900 0
DWIDTH 17 0
BBX 15 15 1 -1
BITMAP
07c0
1830
2008
43e4
4e24
8c22
9802
9802
9802
8c22
4e24
43e4
2008
1830
07c0
ENDCHAR
STARTCHAR ordfeminine
ENCODING 170
SWIDTH 394 0
DWIDTH 7 0
BBX 6 6 0 6
BITMAP
3c
44
84
88
98
6c
ENDCHAR
STARTCHAR guillemotleft
ENCODING 171
SWIDTH 442 0
DWIDTH 8 0
BBX 7 7 0 2
BITMAP
12
26
48
90
d8
64
24
ENDCHAR
STARTCHAR logicalnot
ENCODING 172
SWIDTH 833 0
DWIDTH 16 0
BBX 11 5 3 4
BITMAP
ffe0
0020
0020
0020
0020
ENDCHAR
STARTCHAR hyphen
ENCODING 173
SWIDTH 319 0
DWIDTH 6 0
BBX 4 1 1 5
BITMAP
f0
ENDCHAR
STARTCHAR registered
ENCODING 174
SWIDTH 900 0
DWIDTH 17 0
BBX 15 15 1 -1
BITMAP
07c0
1830
2008
4fc4
44e4
8462
84c2
8782
84c2
8462
4464
4e3c
2008
1830
07c0
ENDCHAR
STARTCHAR macron
ENCODING 175
SWIDTH 500 0
DWIDTH 9 0
BBX 6 1 2 12
BITMAP
fc
ENDCHAR
STARTCHAR degree
ENCODING 176
SWIDTH 329 0
DWIDTH 6 0
BBX 5 5 1 9
BITMAP
70
88
88
88
70
ENDCHAR
STARTCHAR plusminus
ENCODING 177
SWIDTH 833 0
DWIDTH 16 0
BBX 11 10 3 1
BITMAP
0400
0400
0400
ffe0
0400
0400
0400
0000
0000
ffe0
ENDCHAR
STARTCHAR twosuperior
ENCODING 178
SWIDTH 367 0
DWIDTH 7 0
BBX 6 8 0 5
BITMAP
38
44
44
04
18
20
44
f8
ENDCHAR
STARTCHAR threesuperior
ENCODING 179
SWIDTH 367 0
DWIDTH 7 0
BBX 6 8 0 5
BITMAP
38
44
0c
30
08
0c
88
70
ENDCHAR
STARTCHAR acute
ENCODING 180
SWIDTH 500 0
DWIDTH 9 0
BBX 4 4 5 10
BITMAP
30
60
40
80
ENDCHAR
STARTCHAR mu
ENCODING 181
SWIDTH 548 0
DWIDTH 10 0
BBX 11 11 -1 -3
BITMAP
3080
3180
2180
2100
2100
6320
6340
5dc0
4000
c000
8000
ENDCHAR
STARTCHAR paragraph
ENCODING 182
SWIDTH 484 0
DWIDTH 9 0
BBX 9 14 0 -1
BITMAP
1f80
7d00
fd00
fd00
fd00
7d00
3d00
0100
0100
0100
0100
0100
0100
0100
ENDCHAR
STARTCHAR periodcentered
ENCODING 183
SWIDTH 278 0
DWIDTH 5 0
BBX 2 2 2 6
BITMAP
c0
c0
ENDCHAR
STARTCHAR cedilla
ENCODING 184
SWIDTH 500 0
DWIDTH 9 0
BBX 4 4 1 -4
BITMAP
20
30
10
e0
ENDCHAR
STARTCHAR onesuperior
ENCODING 185
SWIDTH 367 0
DWIDTH 7 0
BBX 4 8 1 5
BITMAP
30
70
10
20
20
20
20
f0
ENDCHAR
STARTCHAR ordmasculine
ENCODING 186
SWIDTH 377 0
DWIDTH 7 0
BBX 6 6 0 6
BITMAP
38
44
84
84
88
70
ENDCHAR
STARTCHAR guillemotright
ENCODING 187
SWIDTH 442 0
DWIDTH 8 0
BBX 7 7 0 2
BITMAP
48
4c
36
12
26
c8
90
ENDCHAR
STARTCHAR onequarter
ENCODING 188
SWIDTH 867 0
DWIDTH 17 0
BBX 16 13 1 0
BITMAP
301800
701000
102000
204000
208000
210200
230600
f20a00
041200
082400
107f00
200400
600400
ENDCHAR
STARTCHAR onehalf
ENCODING 189
SWIDTH 867 0
DWIDTH 17 0
BBX 15 13 1 0
BITMAP
3018
7010
1020
2040
2080
211c
2322
f222
0402
080c
1010
2022
607c
ENDCHAR
STARTCHAR threequarters
ENCODING 190
SWIDTH 867 0
DWIDTH 17 0
BBX 17 13 0 0
BITMAP
380600
440400
0c0800
301000
082000
0c4100
88c300
708500
010900
021200
043f80
080200
180200
ENDCHAR
STARTCHAR questiondown
ENCODING 191
SWIDTH 486 0
DWIDTH 9 0
BBX 6 13 1 0
BITMAP
0c
0c
00
08
08
18
20
40
c0
c0
cc
cc
78
ENDCHAR
STARTCHAR Agrave
ENCODING 192
SWIDTH 606 0
DWIDTH 11 0
BBX 13 17 -2 0
BITMAP
0180
0080
00c0
0040
00c0
01c0
01c0
0240
0240
0460
0860
0fe0
1060
1020
2020
6030
f078
ENDCHAR
STARTCHAR Aacute
ENCODING 193
SWIDTH 606 0
DWIDTH 11 0
BBX 13 17 -2 0
BITMAP
0018
0030
0020
0040
00c0
01c0
01c0
0240
0240
0460
0860
0fe0
1060
1020
2020
6030
f078
ENDCHAR
STARTCHAR Acircumflex
ENCODING 194
SWIDTH 606 0
DWIDTH 11 0
BBX 13 17 -2 0
BITMAP
0060
0060
0090
0110
00c0
01c0
01c0
0240
0240
0460
0860
0fe0
1060
1020
2020
6030
f078
ENDCHAR
STARTCHAR Atilde
ENCODING 195
SWIDTH 606 0
DWIDTH 11 0
BBX 13 17 -2 0
BITMAP
00c8
01f8
0130
0000
00c0
01c0
01c0
0240
0240
0460
0860
0fe0
1060
1020
2020
6030
f078
ENDCHAR
STARTCHAR Adieresis
ENCODING 196
SWIDTH 606 0
DWIDTH 11 0
BBX 13 17 -2 0
BITMAP
01b0
01b0
0000
0000
00c0
01c0
01c0
0240
0240
0460
0860
0fe0
1060
1020
2020
6030
f078
ENDCHAR
STARTCHAR Aring
ENCODING 197
SWIDTH 606 0
DWIDTH 11 0
BBX 13 19 -2 0
BITMAP
00e0
0120
0110
0120
00e0
0000
00c0
01c0
01c0
0240
0240
0460
0860
0fe0
1060
1020
2020
6030
f078
ENDCHAR
STARTCHAR AE
ENCODING 198
SWIDTH 873 0
DWIDTH 17 0
BBX 19 13 -2 0
BITMAP
007fe0
002820
005820
009800
011880
031080
021f00
07f100
083000
103000
302040
6020c0
f0ff80
ENDCHAR
STARTCHAR Ccedilla
ENCODING 199
SWIDTH 604 0
DWIDTH 12 0
BBX 11 17 1 -4
BITMAP
07c0
1c20
3020
2020
6000
c000
c000
c000
c000
c080
6080
3080
1f00
0400
0600
0200
1c00
ENDCHAR
STARTCHAR Egrave
ENCODING 200
SWIDTH 546 0
DWIDTH 10 0
BBX 11 17 0 0
BITMAP
0c00
0400
0600
0200
3fe0
0820
1820
1800
1880
1080
1f00
3100
3100
3000
2040
20c0
ff80
ENDCHAR
STARTCHAR Eacute
ENCODING 201
SWIDTH 546 0
DWIDTH 10 0
BBX 11 17 0 0
BITMAP
00c0
0180
0100
0200
3fe0
0820
1820
1800
1880
1080
1f00
3100
3100
3000
2040
20c0
ff80
ENDCHAR
STARTCHAR Ecircumflex
ENCODING 202
SWIDTH 546 0
DWIDTH 10 0
BBX 11 17 0 0
BITMAP
0300
0300
0480
0880
3fe0
0820
1820
1800
1880
1080
1f00
3100
3100
3000
2040
20c0
ff80
ENDCHAR
STARTCHAR Edieresis
ENCODING 203
SWIDTH 546 0
DWIDTH 10 0
BBX 11 17 0 0
BITMAP
0d80
0d80
0000
0000
3fe0
0820
1820
1800
1880
1080
1f00
3100
3100
3000
2040
20c0
ff80
ENDCHAR
STARTCHAR Igrave
ENCODING 204
SWIDTH 313 0
DWIDTH 6 0
BBX 7 17 0 0
BITMAP
30
10
18
08
3e
08
18
18
18
18
10
30
30
30
30
20
f8
ENDCHAR
STARTCHAR Iacute
ENCODING 205
SWIDTH 313 0
DWIDTH 6 0
BBX 8 17 0 0
BITMAP
0300
0600
0400
0800
3e00
0800
1800
1800
1800
1800
1000
3000
3000
3000
3000
2000
f800
ENDCHAR
STARTCHAR Icircumflex
ENCODING 206
SWIDTH 313 0
DWIDTH 6 0
BBX 7 17 0 0
BITMAP
0c
0c
12
22
3e
08
18
18
18
18
10
30
30
30
30
20
f8
ENDCHAR
STARTCHAR Idieresis
ENCODING 207
SWIDTH 313 0
DWIDTH 6 0
BBX 7 17 0 0
BITMAP
36
36
00
00
3e
08
18
18
18
18
10
30
30
30
30
20
f8
ENDCHAR
STARTCHAR Eth
ENCODING 208
SWIDTH 671 0
DWIDTH 13 0
BBX 12 13 0 0
BITMAP
3f80
18c0
1860
1830
1030
1030
7e30
3030
3060
3060
20c0
2300
fe00
ENDCHAR
STARTCHAR Ntilde
ENCODING 209
SWIDTH 683 0
DWIDTH 13 0
BBX 14 17 -1 0
BITMAP
0190
03f0
0260
0000
383c
1c18
1c10
1610
1610
1310
1330
21a0
21a0
20a0
20e0
2060
f040
ENDCHAR
STARTCHAR Ograve
ENCODING 210
SWIDTH 708 0
DWIDTH 13 0
BBX 11 17 1 0
BITMAP
0600
0200
0300
0100
0700
1880
30c0
6060
6060
c060
c060
c060
c0c0
c0c0
6180
2300
1e00
ENDCHAR
STARTCHAR Oacute
ENCODING 211
SWIDTH 708 0
DWIDTH 13 0
BBX 11 17 1 0
BITMAP
0060
00c0
0080
0100
0700
1880
30c0
6060
6060
c060
c060
c060
c0c0
c0c0
6180
2300
1e00
ENDCHAR
STARTCHAR Ocircumflex
ENCODING 212
SWIDTH 708 0
DWIDTH 13 0
BBX 11 17 1 0
BITMAP
0180
0180
0240
0440
0700
1880
30c0
6060
6060
c060
c060
c060
c0c0
c0c0
6180
2300
1e00
ENDCHAR
STARTCHAR Otilde
ENCODING 213
SWIDTH 708 0
DWIDTH 13 0
BBX 11 17 1 0
BITMAP
0320
07e0
04c0
0000
0700
1880
30c0
6060
6060
c060
c060
c060
c0c0
c0c0
6180
2300
1e00
ENDCHAR
STARTCHAR Odieresis
ENCODING 214
SWIDTH 708 0
DWIDTH 13 0
BBX 11 17 1 0
BITMAP
06c0
06c0
0000
0000
0700
1880
30c0
6060
6060
c060
c060
c060
c0c0
c0c0
6180
2300
1e00
ENDCHAR
STARTCHAR multiply
ENCODING 215
SWIDTH 833 0
DWIDTH 16 0
BBX 10 10 3 1
BITMAP
8040
4080
2100
1200
0c00
0c00
1200
2100
4080
8040
ENDCHAR
STARTCHAR Oslash
ENCODING 216
SWIDTH 708 0
DWIDTH 13 0
BBX 11 16 1 -1
BITMAP
0000
0040
0780
1880
3140
2260
6260
c460
c460
c860
c8c0
d0c0
7180
2300
5e00
4000
ENDCHAR
STARTCHAR Ugrave
ENCODING 217
SWIDTH 664 0
DWIDTH 12 0
BBX 12 17 1 0
BITMAP
0c00
0400
0600
0200
f8f0
2020
2040
6040
6040
6040
6040
c080
c080
c080
c080
e300
3e00
ENDCHAR
STARTCHAR Uacute
ENCODING 218
SWIDTH 664 0
DWIDTH 12 0
BBX 12 17 1 0
BITMAP
00c0
0180
0100
0200
f8f0
2020
2040
6040
6040
6040
6040
c080
c080
c080
c080
e300
3e00
ENDCHAR
STARTCHAR Ucircumflex
ENCODING 219
SWIDTH 664 0
DWIDTH 12 0
BBX 12 17 1 0
BITMAP
0300
0300
0480
0880
f8f0
2020
2040
6040
6040
6040
6040
c080
c080
c080
c080
e300
3e00
ENDCHAR
STARTCHAR Udieresis
ENCODING 220
SWIDTH 664 0
DWIDTH 12 0
BBX 12 17 1 0
BITMAP
0d80
0d80
0000
0000
f8f0
2020
2040
6040
6040
6040
6040
c080
c080
c080
c080
e300
3e00
ENDCHAR
STARTCHAR Yacute
ENCODING 221
SWIDTH 563 0
DWIDTH 11 0
BBX 11 17 1 0
BITMAP
0180
0300
0200
0400
f1e0
6080
2080
3100
3200
1400
1c00
1800
1800
1800
1000
1000
7c00
ENDCHAR
STARTCHAR Thorn
ENCODING 222
SWIDTH 532 0
DWIDTH 9 0
BBX 10 13 -1 0
BITMAP
3c00
1800
1f00
1180
10c0
10c0
30c0
30c0
3180
2300
3e00
6000
f000
ENDCHAR
STARTCHAR germandbls
ENCODING 223
SWIDTH 574 0
DWIDTH 11 0
BBX 13 18 -3 -4
BITMAP
00e0
0318
0218
0618
0410
0470
0480
0c80
0cc0
0870
0838
0b10
0b30
19c0
1000
1000
a000
c000
ENDCHAR
STARTCHAR agrave
ENCODING 224
SWIDTH 525 0
DWIDTH 10 0
BBX 9 14 0 0
BITMAP
1800
0800
0c00
0400
0000
0000
0f80
3180
6100
c100
c300
c300
e600
7b80
ENDCHAR
STARTCHAR aacute
ENCODING 225
SWIDTH 525 0
DWIDTH 10 0
BBX 9 14 0 0
BITMAP
0180
0300
0200
0400
0000
0000
0f80
3180
6100
c100
c300
c300
e600
7b80
ENDCHAR
STARTCHAR acircumflex
ENCODING 226
SWIDTH 525 0
DWIDTH 10 0
BBX 9 14 0 0
BITMAP
0600
0600
0900
1100
0000
0000
0f80
3180
6100
c100
c300
c300
e600
7b80
ENDCHAR
STARTCHAR atilde
ENCODING 227
SWIDTH 525 0
DWIDTH 10 0
BBX 9 14 0 0
BITMAP
0c80
1f80
1300
0000
0000
0000
0f80
3180
6100
c100
c300
c300
e600
7b80
ENDCHAR
STARTCHAR adieresis
ENCODING 228
SWIDTH 525 0
DWIDTH 10 0
BBX 9 14 0 0
BITMAP
1b00
1b00
0000
0000
0000
0000
0f80
3180
6100
c100
c300
c300
e600
7b80
ENDCHAR
STARTCHAR aring
ENCODING 229
SWIDTH 525 0
DWIDTH 10 0
BBX 9 15 0 0
BITMAP
0600
0900
0900
0900
0600
0000
0000
0f80
3180
6100
c100
c300
c300
e600
7b80
ENDCHAR
STARTCHAR ae
ENCODING 230
SWIDTH 671 0
DWIDTH 13 0
BBX 12 8 0 0
BITMAP
1ce0
2330
6230
0660
1f80
6400
c630
7bc0
ENDCHAR
STARTCHAR ccedilla
ENCODING 231
SWIDTH 394 0
DWIDTH 7 0
BBX 6 12 0 -4
BITMAP
1c
2c
40
c0
c0
c0
cc
30
20
30
10
e0
ENDCHAR
STARTCHAR egrave
ENCODING 232
SWIDTH 424 0
DWIDTH 8 0
BBX 7 14 0 0
BITMAP
18
08
0c
04
00
00
1c
26
66
48
f0
c0
c6
38
ENDCHAR
STARTCHAR eacute
ENCODING 233
SWIDTH 424 0
DWIDTH 8 0
BBX 9 14 0 0
BITMAP
0180
0300
0200
0400
0000
0000
1c00
2600
6600
4800
f000
c000
c600
3800
ENDCHAR
STARTCHAR ecircumflex
ENCODING 234
SWIDTH 424 0
DWIDTH 8 0
BBX 8 14 0 0
BITMAP
0600
0600
0900
1100
0000
0000
1c00
2600
6600
4800
f000
c000
c600
3800
ENDCHAR
STARTCHAR edieresis
ENCODING 235
SWIDTH 424 0
DWIDTH 8 0
BBX 8 14 0 0
BITMAP
1b00
1b00
0000
0000
0000
0000
1c00
2600
6600
4800
f000
c000
c600
3800
ENDCHAR
STARTCHAR igrave
ENCODING 236
SWIDTH 287 0
DWIDTH 5 0
BBX 4 14 1 0
BITMAP
c0
40
60
20
00
00
e0
60
40
40
c0
c0
c0
f0
ENDCHAR
STARTCHAR iacute
ENCODING 237
SWIDTH 287 0
DWIDTH 5 0
BBX 6 14 1 0
BITMAP
0c
18
10
20
00
00
e0
60
40
40
c0
c0
c0
f0
ENDCHAR
STARTCHAR icircumflex
ENCODING 238
SWIDTH 287 0
DWIDTH 5 0
BBX 5 14 1 0
BITMAP
30
30
48
88
00
00
e0
60
40
40
c0
c0
c0
f0
ENDCHAR
STARTCHAR idieresis
ENCODING 239
SWIDTH 287 0
DWIDTH 5 0
BBX 5 14 1 0
BITMAP
d8
d8
00
00
00
00
e0
60
40
40
c0
c0
c0
f0
ENDCHAR
STARTCHAR eth
ENCODING 240
SWIDTH 500 0
DWIDTH 9 0
BBX 8 14 0 0
BITMAP
1800
0900
0e00
1c00
2600
0600
1e00
2300
6300
c300
c300
c600
6400
3800
ENDCHAR
STARTCHAR ntilde
ENCODING 241
SWIDTH 556 0
DWIDTH 10 0
BBX 9 14 1 0
BITMAP
1900
3f00
2600
0000
0000
0000
ef00
7300
6300
4300
4200
4200
c600
c780
ENDCHAR
STARTCHAR ograve
ENCODING 242
SWIDTH 502 0
DWIDTH 9 0
BBX 8 14 0 0
BITMAP
1800
0800
0c00
0400
0000
0000
1c00
2600
6300
c300
c300
c600
4400
3800
ENDCHAR
STARTCHAR oacute
ENCODING 243
SWIDTH 502 0
DWIDTH 9 0
BBX 9 14 0 0
BITMAP
0180
0300
0200
0400
0000
0000
1c00
2600
6300
c300
c300
c600
4400
3800
ENDCHAR
STARTCHAR ocircumflex
ENCODING 244
SWIDTH 502 0
DWIDTH 9 0
BBX 8 14 0 0
BITMAP
0600
0600
0900
1100
0000
0000
1c00
2600
6300
c300
c300
c600
4400
3800
ENDCHAR
STARTCHAR otilde
ENCODING 245
SWIDTH 502 0
DWIDTH 9 0
BBX 9 14 0 0
BITMAP
0c80
1f80
1300
0000
0000
0000
1c00
2600
6300
c300
c300
c600
4400
3800
ENDCHAR
STARTCHAR odieresis
ENCODING 246
SWIDTH 502 0
DWIDTH 9 0
BBX 8 14 0 0
BITMAP
1b00
1b00
0000
0000
0000
0000
1c00
2600
6300
c300
c300
c600
4400
3800
ENDCHAR
STARTCHAR divide
ENCODING 247
SWIDTH 833 0
DWIDTH 16 0
BBX 12 9 2 2
BITMAP
0600
0600
0000
0000
fff0
0000
0000
0600
0600
ENDCHAR
STARTCHAR oslash
ENCODING 248
SWIDTH 502 0
DWIDTH 9 0
BBX 8 11 0 -1
BITMAP
0100
0200
1e00
2600
6700
cb00
d300
d600
6400
7800
c000
ENDCHAR
STARTCHAR ugrave
ENCODING 249
SWIDTH 553 0
DWIDTH 10 0
BBX 8 14 1 0
BITMAP
3000
1000
1800
0800
0000
0000
e300
6300
4200
4200
c600
c600
ce00
f700
ENDCHAR
STARTCHAR uacute
ENCODING 250
SWIDTH 553 0
DWIDTH 10 0
BBX 8 14 1 0
BITMAP
0300
0600
0400
0800
0000
0000
e300
6300
4200
4200
c600
c600
ce00
f700
ENDCHAR
STARTCHAR ucircumflex
ENCODING 251
SWIDTH 553 0
DWIDTH 10 0
BBX 8 14 1 0
BITMAP
0c00
0c00
1200
2200
0000
0000
e300
6300
4200
4200
c600
c600
ce00
f700
ENDCHAR
STARTCHAR udieresis
ENCODING 252
SWIDTH 553 0
DWIDTH 10 0
BBX 8 14 1 0
BITMAP
3600
3600
0000
0000
0000
0000
e300
6300
4200
4200
c600
c600
ce00
f700
ENDCHAR
STARTCHAR yacute
ENCODING 253
SWIDTH 475 0
DWIDTH 9 0
BBX 11 18 -2 -4
BITMAP
0060
00c0
0080
0100
0000
0000
3860
0840
0880
0c80
0d00
0500
0600
0600
0400
0800
d000
e000
ENDCHAR
STARTCHAR thorn
ENCODING 254
SWIDTH 516 0
DWIDTH 10 0
BBX 10 18 -1 -4
BITMAP
3800
0800
1800
1800
1800
1000
1780
19c0
30c0
30c0
20c0
2180
2300
3c00
6000
6000
4000
f000
ENDCHAR
STARTCHAR ydieresis
ENCODING 255
SWIDTH 475 0
DWIDTH 9 0
BBX 11 18 -2 -4
BITMAP
06c0
06c0
0000
0000
0000
0000
3860
0840
0880
0c80
0d00
0500
0600
0600
0400
0800
d000
e000
ENDCHAR
ENDFONT
