STARTFONT 2.1
COMMENT $Xorg: charI12.bdf,v 1.3 2000/08/17 19:43:38 cpqbld Exp $
COMMENT  
COMMENT  Copyright 1988 Bitstream, Inc., Cambridge, Massachusetts, USA
COMMENT  Bitstream and Charter are registered trademarks of Bitstream, Inc.
COMMENT  
COMMENT  The names "Bitstream" and "Charter" are registered trademarks of
COMMENT  Bitstream, Inc.  Permission to use these trademarks is hereby
COMMENT  granted only in association with the images described in this file.
COMMENT  
COMMENT  Permission to use, copy, modify, and distribute this software and
COMMENT  its documentation for any purpose and without fee is hereby
COMMENT  granted, provided that the above copyright notice appear in all
COMMENT  copies and that both that copyright notice and this permission
COMMENT  notice appear in supporting documentation, and that the name of
COMMENT  Bitstream not be used in advertising or publicity pertaining to
COMMENT  distribution of the software without specific, written prior
COMMENT  permission.  Bitstream makes no representations about the
COMMENT  suitability of this software for any purpose.  It is provided "as
COMMENT  is" without express or implied warranty.
COMMENT  
COMMENT  BITSTREAM DISCLAIMS ALL WARRANTIES WITH REGARD TO THIS SOFTWARE,
COMMENT  INCLUDING ALL IMPLIED WARRANTIES OF MERCHANTABILITY AND FITNESS, IN
COMMENT  NO EVENT SHALL BITSTREAM BE LIABLE FOR ANY SPECIAL, INDIRECT OR
COMMENT  CONSEQUENTIAL DAMAGES OR ANY DAMAGES WHATSOEVER RESULTING FROM LOSS
COMMENT  OF USE, DATA OR PROFITS, WHETHER IN AN ACTION OF CONTRACT,
COMMENT  NEGLIGENCE OR OTHER TORTIOUS ACTION, ARISING OUT OF OR IN
COMMENT  CONNECTION WITH THE USE OR PERFORMANCE OF THIS SOFTWARE.
COMMENT  
COMMENT  
COMMENT Fontware CVTBDF v1.0
FONT -Bitstream-Charter-Medium-I-Normal--12-120-75-75-P-65-ISO8859-1
SIZE 12 75 75
FONTBOUNDINGBOX 14 15 -2 -3
STARTPROPERTIES 22
COMMENT Begin LogicalFontDescription
FONTNAME_REGISTRY ""
FAMILY_NAME "Charter"
FOUNDRY "Bitstream"
WEIGHT_NAME "Medium"
SETWIDTH_NAME "Normal"
SLANT "I"
ADD_STYLE_NAME ""
PIXEL_SIZE 12
POINT_SIZE 120
RESOLUTION_X 75
RESOLUTION_Y 75
SPACING "P"
AVERAGE_WIDTH 65
CHARSET_REGISTRY "ISO8859"
CHARSET_ENCODING "1"
COMMENT END LogicalFontDescription
FONT_DESCENT 3
FONT_ASCENT 12
CAP_HEIGHT 9
X_HEIGHT 6
CHARSET_COLLECTIONS "ASCII ISOLATIN1"
FACE_NAME "Bitstream Charter Italic"
COPYRIGHT "Copyright 1987 by Bitstream Inc. Charter Registered trademark of Bitstream Inc."
COMMENT ****** end of font properties
ENDPROPERTIES
CHARS 191
STARTCHAR space
ENCODING 32
SWIDTH 278 0
DWIDTH 3 0
BBX 1 1 0 0
BITMAP
00
ENDCHAR
STARTCHAR exclam
ENCODING 33
SWIDTH 338 0
DWIDTH 4 0
BBX 3 9 1 0
BITMAP
20
60
60
40
40
40
40
00
c0
ENDCHAR
STARTCHAR quotedbl
ENCODING 34
SWIDTH 331 0
DWIDTH 5 0
BBX 3 4 1 4
BITMAP
a0
a0
a0
a0
ENDCHAR
STARTCHAR numbersign
ENCODING 35
SWIDTH 745 0
DWIDTH 9 0
BBX 7 9 1 -1
BITMAP
14
14
14
7e
28
fe
48
50
50
ENDCHAR
STARTCHAR dollar
ENCODING 36
SWIDTH 556 0
DWIDTH 7 0
BBX 6 10 0 -1
BITMAP
1c
34
54
70
30
28
a8
a8
70
20
ENDCHAR
STARTCHAR percent
ENCODING 37
SWIDTH 852 0
DWIDTH 11 0
BBX 9 9 1 0
BITMAP
2100
5200
9200
9500
aa80
5480
2480
2500
4200
ENDCHAR
STARTCHAR ampersand
ENCODING 38
SWIDTH 704 0
DWIDTH 9 0
BBX 8 9 0 0
BITMAP
3800
4400
4400
7800
7300
9200
8c00
8c00
7300
ENDCHAR
STARTCHAR quoteright
ENCODING 39
SWIDTH 201 0
DWIDTH 3 0
BBX 2 3 1 5
BITMAP
c0
40
80
ENDCHAR
STARTCHAR parenleft
ENCODING 40
SWIDTH 419 0
DWIDTH 5 0
BBX 5 10 1 -2
BITMAP
18
20
40
40
80
80
80
80
80
60
ENDCHAR
STARTCHAR parenright
ENCODING 41
SWIDTH 419 0
DWIDTH 5 0
BBX 5 10 -1 -2
BITMAP
30
08
08
08
08
08
10
10
20
c0
ENDCHAR
STARTCHAR asterisk
ENCODING 42
SWIDTH 500 0
DWIDTH 6 0
BBX 5 4 1 4
BITMAP
20
f8
20
d0
ENDCHAR
STARTCHAR plus
ENCODING 43
SWIDTH 833 0
DWIDTH 10 0
BBX 7 7 2 0
BITMAP
10
10
10
fe
10
10
10
ENDCHAR
STARTCHAR comma
ENCODING 44
SWIDTH 278 0
DWIDTH 3 0
BBX 2 3 -1 -2
BITMAP
40
40
c0
ENDCHAR
STARTCHAR hyphen
ENCODING 45
SWIDTH 319 0
DWIDTH 4 0
BBX 3 1 0 2
BITMAP
e0
ENDCHAR
STARTCHAR period
ENCODING 46
SWIDTH 278 0
DWIDTH 3 0
BBX 1 1 0 0
BITMAP
80
ENDCHAR
STARTCHAR slash
ENCODING 47
SWIDTH 481 0
DWIDTH 6 0
BBX 8 10 -1 -1
BITMAP
0100
0200
0400
0400
0800
1000
2000
2000
4000
8000
ENDCHAR
STARTCHAR zero
ENCODING 48
SWIDTH 556 0
DWIDTH 7 0
BBX 6 9 1 0
BITMAP
18
64
44
84
84
84
88
98
60
ENDCHAR
STARTCHAR one
ENCODING 49
SWIDTH 556 0
DWIDTH 7 0
BBX 4 9 1 0
BITMAP
30
70
10
20
20
20
20
20
f0
ENDCHAR
STARTCHAR two
ENCODING 50
SWIDTH 556 0
DWIDTH 7 0
BBX 6 9 0 0
BITMAP
38
44
44
04
08
10
20
44
f8
ENDCHAR
STARTCHAR three
ENCODING 51
SWIDTH 556 0
DWIDTH 7 0
BBX 6 9 0 0
BITMAP
18
24
44
0c
30
08
0c
88
70
ENDCHAR
STARTCHAR four
ENCODING 52
SWIDTH 556 0
DWIDTH 7 0
BBX 7 9 0 0
BITMAP
04
0c
14
24
48
fe
08
08
08
ENDCHAR
STARTCHAR five
ENCODING 53
SWIDTH 556 0
DWIDTH 7 0
BBX 7 9 0 0
BITMAP
3e
20
20
78
04
04
04
88
70
ENDCHAR
STARTCHAR six
ENCODING 54
SWIDTH 556 0
DWIDTH 7 0
BBX 6 8 0 0
BITMAP
0c
30
40
f8
c4
84
88
70
ENDCHAR
STARTCHAR seven
ENCODING 55
SWIDTH 556 0
DWIDTH 7 0
BBX 7 9 0 0
BITMAP
7e
42
04
08
08
10
20
40
c0
ENDCHAR
STARTCHAR eight
ENCODING 56
SWIDTH 556 0
DWIDTH 7 0
BBX 6 9 0 0
BITMAP
18
24
44
68
70
8c
84
88
70
ENDCHAR
STARTCHAR nine
ENCODING 57
SWIDTH 556 0
DWIDTH 7 0
BBX 6 9 1 0
BITMAP
38
44
84
84
8c
78
18
20
c0
ENDCHAR
STARTCHAR colon
ENCODING 58
SWIDTH 319 0
DWIDTH 4 0
BBX 2 6 1 0
BITMAP
40
00
00
00
00
80
ENDCHAR
STARTCHAR semicolon
ENCODING 59
SWIDTH 319 0
DWIDTH 4 0
BBX 3 8 0 -2
BITMAP
60
00
00
00
00
40
40
80
ENDCHAR
STARTCHAR less
ENCODING 60
SWIDTH 833 0
DWIDTH 10 0
BBX 7 6 1 0
BITMAP
06
18
e0
60
18
06
ENDCHAR
STARTCHAR equal
ENCODING 61
SWIDTH 833 0
DWIDTH 10 0
BBX 7 3 2 2
BITMAP
fe
00
fe
ENDCHAR
STARTCHAR greater
ENCODING 62
SWIDTH 833 0
DWIDTH 10 0
BBX 7 6 2 0
BITMAP
c0
30
0e
0c
30
c0
ENDCHAR
STARTCHAR question
ENCODING 63
SWIDTH 486 0
DWIDTH 6 0
BBX 4 9 1 0
BITMAP
60
90
10
10
20
40
80
00
80
ENDCHAR
STARTCHAR at
ENCODING 64
SWIDTH 942 0
DWIDTH 12 0
BBX 10 10 1 -2
BITMAP
0f00
3080
4740
8a40
9240
9280
cf00
4000
3180
0e00
ENDCHAR
STARTCHAR A
ENCODING 65
SWIDTH 606 0
DWIDTH 8 0
BBX 9 9 -1 0
BITMAP
0600
0600
0a00
1200
1200
3f00
2100
4100
e380
ENDCHAR
STARTCHAR B
ENCODING 66
SWIDTH 588 0
DWIDTH 8 0
BBX 7 9 0 0
BITMAP
7c
22
22
24
3c
22
42
44
f8
ENDCHAR
STARTCHAR C
ENCODING 67
SWIDTH 604 0
DWIDTH 8 0
BBX 7 9 1 0
BITMAP
1e
22
42
80
80
80
84
44
38
ENDCHAR
STARTCHAR D
ENCODING 68
SWIDTH 671 0
DWIDTH 9 0
BBX 8 9 0 0
BITMAP
7c00
2200
2100
2100
2100
6100
4200
4400
f800
ENDCHAR
STARTCHAR E
ENCODING 69
SWIDTH 546 0
DWIDTH 7 0
BBX 7 9 0 0
BITMAP
7e
22
20
24
38
68
40
44
fc
ENDCHAR
STARTCHAR F
ENCODING 70
SWIDTH 509 0
DWIDTH 6 0
BBX 7 9 0 0
BITMAP
7e
22
20
24
38
68
40
40
e0
ENDCHAR
STARTCHAR G
ENCODING 71
SWIDTH 664 0
DWIDTH 8 0
BBX 8 9 0 0
BITMAP
1f00
6100
4000
8000
8700
8200
8600
4400
3c00
ENDCHAR
STARTCHAR H
ENCODING 72
SWIDTH 712 0
DWIDTH 9 0
BBX 10 9 0 0
BITMAP
79c0
3080
2080
2100
3f00
2100
4100
4300
e780
ENDCHAR
STARTCHAR I
ENCODING 73
SWIDTH 313 0
DWIDTH 4 0
BBX 4 9 0 0
BITMAP
70
20
20
20
20
40
40
40
e0
ENDCHAR
STARTCHAR J
ENCODING 74
SWIDTH 447 0
DWIDTH 5 0
BBX 6 9 -1 0
BITMAP
1c
08
08
08
10
10
90
b0
e0
ENDCHAR
STARTCHAR K
ENCODING 75
SWIDTH 625 0
DWIDTH 8 0
BBX 9 9 0 0
BITMAP
7b80
3300
2400
2800
3800
2800
4400
4400
e300
ENDCHAR
STARTCHAR L
ENCODING 76
SWIDTH 498 0
DWIDTH 7 0
BBX 6 9 0 0
BITMAP
70
20
20
20
20
60
44
44
fc
ENDCHAR
STARTCHAR M
ENCODING 77
SWIDTH 839 0
DWIDTH 10 0
BBX 11 9 0 0
BITMAP
70e0
30c0
3140
3140
5a80
4a80
4c80
4c80
e9c0
ENDCHAR
STARTCHAR N
ENCODING 78
SWIDTH 683 0
DWIDTH 8 0
BBX 9 9 0 0
BITMAP
6380
3100
3100
2900
4900
4e00
4600
4600
e200
ENDCHAR
STARTCHAR O
ENCODING 79
SWIDTH 708 0
DWIDTH 9 0
BBX 8 9 1 0
BITMAP
1c00
2200
4100
8100
8100
8100
8200
4400
3800
ENDCHAR
STARTCHAR P
ENCODING 80
SWIDTH 542 0
DWIDTH 7 0
BBX 7 9 0 0
BITMAP
7c
22
22
22
24
78
40
40
e0
ENDCHAR
STARTCHAR Q
ENCODING 81
SWIDTH 708 0
DWIDTH 9 0
BBX 8 11 1 -2
BITMAP
1800
2400
4200
8200
8200
8200
8400
4c00
3800
0800
0700
ENDCHAR
STARTCHAR R
ENCODING 82
SWIDTH 602 0
DWIDTH 8 0
BBX 8 9 0 0
BITMAP
7c00
2200
2200
2400
3800
2400
4400
4400
e300
ENDCHAR
STARTCHAR S
ENCODING 83
SWIDTH 537 0
DWIDTH 7 0
BBX 7 9 0 0
BITMAP
1e
22
44
60
38
04
84
88
70
ENDCHAR
STARTCHAR T
ENCODING 84
SWIDTH 565 0
DWIDTH 7 0
BBX 7 9 1 0
BITMAP
fe
92
10
10
20
20
20
20
70
ENDCHAR
STARTCHAR U
ENCODING 85
SWIDTH 664 0
DWIDTH 8 0
BBX 8 9 1 0
BITMAP
e700
4200
4200
4200
8400
8400
8400
8800
7000
ENDCHAR
STARTCHAR V
ENCODING 86
SWIDTH 590 0
DWIDTH 7 0
BBX 8 9 0 0
BITMAP
e300
4200
4200
4400
4400
2800
3000
3000
2000
ENDCHAR
STARTCHAR W
ENCODING 87
SWIDTH 898 0
DWIDTH 11 0
BBX 11 9 1 0
BITMAP
e460
4440
4c40
4c80
5280
5300
6300
6200
4200
ENDCHAR
STARTCHAR X
ENCODING 88
SWIDTH 569 0
DWIDTH 7 0
BBX 9 9 -1 0
BITMAP
3b80
1100
1200
0c00
0800
1400
2400
4200
e700
ENDCHAR
STARTCHAR Y
ENCODING 89
SWIDTH 563 0
DWIDTH 7 0
BBX 8 9 0 0
BITMAP
e700
4200
6400
2800
3000
3000
2000
2000
7000
ENDCHAR
STARTCHAR Z
ENCODING 90
SWIDTH 556 0
DWIDTH 7 0
BBX 7 9 0 0
BITMAP
3e
44
4c
08
10
20
64
44
fc
ENDCHAR
STARTCHAR bracketleft
ENCODING 91
SWIDTH 421 0
DWIDTH 6 0
BBX 5 10 1 -2
BITMAP
38
20
20
40
40
40
40
80
80
e0
ENDCHAR
STARTCHAR backslash
ENCODING 92
SWIDTH 481 0
DWIDTH 6 0
BBX 6 10 0 -1
BITMAP
80
40
40
20
20
10
10
08
08
04
ENDCHAR
STARTCHAR bracketright
ENCODING 93
SWIDTH 421 0
DWIDTH 5 0
BBX 5 10 -1 -2
BITMAP
38
08
08
10
10
10
10
20
20
e0
ENDCHAR
STARTCHAR asciicircum
ENCODING 94
SWIDTH 1000 0
DWIDTH 12 0
BBX 7 3 2 5
BITMAP
38
44
82
ENDCHAR
STARTCHAR underscore
ENCODING 95
SWIDTH 500 0
DWIDTH 6 0
BBX 6 1 0 -3
BITMAP
fc
ENDCHAR
STARTCHAR quoteleft
ENCODING 96
SWIDTH 201 0
DWIDTH 3 0
BBX 2 3 1 5
BITMAP
40
80
c0
ENDCHAR
STARTCHAR a
ENCODING 97
SWIDTH 525 0
DWIDTH 7 0
BBX 6 6 0 0
BITMAP
3c
4c
88
88
90
7c
ENDCHAR
STARTCHAR b
ENCODING 98
SWIDTH 507 0
DWIDTH 6 0
BBX 5 9 0 0
BITMAP
c0
40
40
70
48
88
88
90
60
ENDCHAR
STARTCHAR c
ENCODING 99
SWIDTH 394 0
DWIDTH 5 0
BBX 4 6 0 0
BITMAP
30
50
80
80
90
60
ENDCHAR
STARTCHAR d
ENCODING 100
SWIDTH 523 0
DWIDTH 7 0
BBX 6 9 0 0
BITMAP
0c
04
08
38
48
88
88
90
6c
ENDCHAR
STARTCHAR e
ENCODING 101
SWIDTH 424 0
DWIDTH 5 0
BBX 4 6 0 0
BITMAP
20
50
a0
c0
90
60
ENDCHAR
STARTCHAR f
ENCODING 102
SWIDTH 292 0
DWIDTH 4 0
BBX 7 12 -2 -3
BITMAP
06
0a
10
3c
10
10
10
10
20
20
20
c0
ENDCHAR
STARTCHAR g
ENCODING 103
SWIDTH 481 0
DWIDTH 6 0
BBX 6 9 0 -3
BITMAP
34
48
48
30
20
20
d8
88
70
ENDCHAR
STARTCHAR h
ENCODING 104
SWIDTH 551 0
DWIDTH 7 0
BBX 7 9 0 0
BITMAP
60
20
20
3c
64
44
48
48
ce
ENDCHAR
STARTCHAR i
ENCODING 105
SWIDTH 287 0
DWIDTH 4 0
BBX 3 9 1 0
BITMAP
60
00
00
c0
40
40
80
80
e0
ENDCHAR
STARTCHAR j
ENCODING 106
SWIDTH 269 0
DWIDTH 3 0
BBX 5 12 -2 -3
BITMAP
08
00
00
38
10
10
10
10
10
20
20
c0
ENDCHAR
STARTCHAR k
ENCODING 107
SWIDTH 514 0
DWIDTH 6 0
BBX 6 9 0 0
BITMAP
60
20
20
4c
50
60
50
58
8c
ENDCHAR
STARTCHAR l
ENCODING 108
SWIDTH 275 0
DWIDTH 3 0
BBX 2 9 0 0
BITMAP
c0
40
40
40
80
80
80
80
c0
ENDCHAR
STARTCHAR m
ENCODING 109
SWIDTH 815 0
DWIDTH 10 0
BBX 9 6 1 0
BITMAP
db00
6d00
4900
8900
9200
9380
ENDCHAR
STARTCHAR n
ENCODING 110
SWIDTH 556 0
DWIDTH 7 0
BBX 6 6 1 0
BITMAP
d8
68
48
88
90
9c
ENDCHAR
STARTCHAR o
ENCODING 111
SWIDTH 502 0
DWIDTH 6 0
BBX 5 6 0 0
BITMAP
30
48
88
88
90
60
ENDCHAR
STARTCHAR p
ENCODING 112
SWIDTH 516 0
DWIDTH 6 0
BBX 6 9 -1 -3
BITMAP
7c
24
24
44
48
70
40
40
e0
ENDCHAR
STARTCHAR q
ENCODING 113
SWIDTH 512 0
DWIDTH 6 0
BBX 5 9 0 -3
BITMAP
38
48
88
88
90
70
10
10
38
ENDCHAR
STARTCHAR r
ENCODING 114
SWIDTH 398 0
DWIDTH 5 0
BBX 5 6 0 0
BITMAP
d8
68
40
40
80
80
ENDCHAR
STARTCHAR s
ENCODING 115
SWIDTH 370 0
DWIDTH 5 0
BBX 4 6 0 0
BITMAP
30
50
40
30
90
60
ENDCHAR
STARTCHAR t
ENCODING 116
SWIDTH 333 0
DWIDTH 4 0
BBX 3 7 1 0
BITMAP
40
e0
80
80
80
80
c0
ENDCHAR
STARTCHAR u
ENCODING 117
SWIDTH 553 0
DWIDTH 7 0
BBX 6 6 0 0
BITMAP
c4
44
48
88
98
ec
ENDCHAR
STARTCHAR v
ENCODING 118
SWIDTH 454 0
DWIDTH 6 0
BBX 6 6 0 0
BITMAP
c4
44
28
28
30
20
ENDCHAR
STARTCHAR w
ENCODING 119
SWIDTH 713 0
DWIDTH 9 0
BBX 9 6 0 0
BITMAP
c880
4c80
5480
5500
6600
4400
ENDCHAR
STARTCHAR x
ENCODING 120
SWIDTH 477 0
DWIDTH 6 0
BBX 7 6 -1 0
BITMAP
66
2a
10
30
a8
cc
ENDCHAR
STARTCHAR y
ENCODING 121
SWIDTH 475 0
DWIDTH 6 0
BBX 7 9 -1 -3
BITMAP
62
24
14
18
18
10
10
a0
c0
ENDCHAR
STARTCHAR z
ENCODING 122
SWIDTH 440 0
DWIDTH 6 0
BBX 6 6 0 0
BITMAP
7c
48
10
28
44
f8
ENDCHAR
STARTCHAR braceleft
ENCODING 123
SWIDTH 486 0
DWIDTH 6 0
BBX 5 10 0 -2
BITMAP
18
20
20
20
c0
20
20
20
20
18
ENDCHAR
STARTCHAR bar
ENCODING 124
SWIDTH 500 0
DWIDTH 6 0
BBX 1 12 3 -3
BITMAP
80
80
80
80
80
80
80
80
80
80
80
80
ENDCHAR
STARTCHAR braceright
ENCODING 125
SWIDTH 486 0
DWIDTH 6 0
BBX 5 10 0 -2
BITMAP
c0
20
20
20
18
20
20
20
20
c0
ENDCHAR
STARTCHAR c0126
ENCODING 126
SWIDTH 1000 0
DWIDTH 12 0
BBX 8 2 2 5
BITMAP
7100
8e00
ENDCHAR
STARTCHAR space
ENCODING 160
SWIDTH 278 0
DWIDTH 3 0
BBX 1 1 0 0
BITMAP
00
ENDCHAR
STARTCHAR exclamdown
ENCODING 161
SWIDTH 338 0
DWIDTH 4 0
BBX 3 9 1 0
BITMAP
60
00
40
40
40
40
c0
c0
80
ENDCHAR
STARTCHAR cent
ENCODING 162
SWIDTH 556 0
DWIDTH 7 0
BBX 6 8 0 -1
BITMAP
10
3c
54
90
a0
a8
78
20
ENDCHAR
STARTCHAR sterling
ENCODING 163
SWIDTH 556 0
DWIDTH 7 0
BBX 7 9 0 0
BITMAP
0e
12
20
20
78
20
40
40
fc
ENDCHAR
STARTCHAR currency
ENCODING 164
SWIDTH 606 0
DWIDTH 8 0
BBX 7 7 1 1
BITMAP
82
54
28
44
2c
54
82
ENDCHAR
STARTCHAR yen
ENCODING 165
SWIDTH 556 0
DWIDTH 7 0
BBX 8 9 0 0
BITMAP
7300
2200
2400
ee00
1000
fe00
1000
2000
7000
ENDCHAR
STARTCHAR brokenbar
ENCODING 166
SWIDTH 500 0
DWIDTH 6 0
BBX 1 10 3 -2
BITMAP
80
80
80
80
00
00
80
80
80
80
ENDCHAR
STARTCHAR section
ENCODING 167
SWIDTH 500 0
DWIDTH 6 0
BBX 6 10 0 -2
BITMAP
3c
44
40
70
88
88
70
10
90
e0
ENDCHAR
STARTCHAR dieresis
ENCODING 168
SWIDTH 500 0
DWIDTH 6 0
BBX 3 1 2 7
BITMAP
a0
ENDCHAR
STARTCHAR copyright
ENCODING 169
SWIDTH 900 0
DWIDTH 11 0
BBX 9 9 1 0
BITMAP
1c00
2200
5d00
a480
a080
a480
5d00
2200
1c00
ENDCHAR
STARTCHAR ordfeminine
ENCODING 170
SWIDTH 394 0
DWIDTH 5 0
BBX 4 4 0 4
BITMAP
30
d0
a0
50
ENDCHAR
STARTCHAR guillemotleft
ENCODING 171
SWIDTH 442 0
DWIDTH 6 0
BBX 5 4 0 1
BITMAP
28
d0
b0
50
ENDCHAR
STARTCHAR logicalnot
ENCODING 172
SWIDTH 833 0
DWIDTH 10 0
BBX 7 3 2 2
BITMAP
fe
02
02
ENDCHAR
STARTCHAR hyphen
ENCODING 173
SWIDTH 319 0
DWIDTH 4 0
BBX 3 1 0 2
BITMAP
e0
ENDCHAR
STARTCHAR registered
ENCODING 174
SWIDTH 900 0
DWIDTH 11 0
BBX 9 9 1 0
BITMAP
1c00
2200
7900
9480
9880
9480
7700
2200
1c00
ENDCHAR
STARTCHAR macron
ENCODING 175
SWIDTH 500 0
DWIDTH 6 0
BBX 4 1 2 7
BITMAP
f0
ENDCHAR
STARTCHAR degree
ENCODING 176
SWIDTH 329 0
DWIDTH 4 0
BBX 3 3 1 5
BITMAP
40
a0
40
ENDCHAR
STARTCHAR plusminus
ENCODING 177
SWIDTH 833 0
DWIDTH 10 0
BBX 7 7 2 0
BITMAP
10
10
fe
10
10
00
fe
ENDCHAR
STARTCHAR twosuperior
ENCODING 178
SWIDTH 367 0
DWIDTH 5 0
BBX 5 5 0 4
BITMAP
30
48
10
68
f0
ENDCHAR
STARTCHAR threesuperior
ENCODING 179
SWIDTH 367 0
DWIDTH 5 0
BBX 5 5 0 4
BITMAP
70
18
30
18
e0
ENDCHAR
STARTCHAR acute
ENCODING 180
SWIDTH 500 0
DWIDTH 6 0
BBX 3 2 3 7
BITMAP
60
80
ENDCHAR
STARTCHAR mu
ENCODING 181
SWIDTH 548 0
DWIDTH 7 0
BBX 7 8 0 -3
BITMAP
44
48
48
4a
b4
80
80
80
ENDCHAR
STARTCHAR paragraph
ENCODING 182
SWIDTH 484 0
DWIDTH 6 0
BBX 6 10 0 -1
BITMAP
7c
e8
e8
e8
68
08
08
08
08
08
ENDCHAR
STARTCHAR periodcentered
ENCODING 183
SWIDTH 278 0
DWIDTH 3 0
BBX 1 1 1 3
BITMAP
80
ENDCHAR
STARTCHAR cedilla
ENCODING 184
SWIDTH 500 0
DWIDTH 6 0
BBX 3 3 1 -3
BITMAP
60
20
c0
ENDCHAR
STARTCHAR onesuperior
ENCODING 185
SWIDTH 367 0
DWIDTH 4 0
BBX 2 5 1 4
BITMAP
40
c0
40
40
c0
ENDCHAR
STARTCHAR ordmasculine
ENCODING 186
SWIDTH 377 0
DWIDTH 5 0
BBX 4 4 0 4
BITMAP
60
90
90
60
ENDCHAR
STARTCHAR guillemotright
ENCODING 187
SWIDTH 442 0
DWIDTH 6 0
BBX 5 4 0 1
BITMAP
50
68
58
a0
ENDCHAR
STARTCHAR onequarter
ENCODING 188
SWIDTH 867 0
DWIDTH 10 0
BBX 9 9 1 0
BITMAP
4100
c200
4400
4800
c980
1300
2500
4780
8100
ENDCHAR
STARTCHAR onehalf
ENCODING 189
SWIDTH 867 0
DWIDTH 10 0
BBX 9 9 1 0
BITMAP
4100
c200
4400
4800
c900
1280
2180
4280
8f00
ENDCHAR
STARTCHAR threequarters
ENCODING 190
SWIDTH 867 0
DWIDTH 10 0
BBX 10 9 0 0
BITMAP
6080
3100
6200
1400
e4c0
0980
1280
23c0
4080
ENDCHAR
STARTCHAR questiondown
ENCODING 191
SWIDTH 486 0
DWIDTH 6 0
BBX 4 9 0 0
BITMAP
10
00
10
20
40
80
80
90
60
ENDCHAR
STARTCHAR Agrave
ENCODING 192
SWIDTH 606 0
DWIDTH 8 0
BBX 9 11 -1 0
BITMAP
0800
0400
0600
0600
0a00
1200
1200
3f00
2100
4100
e380
ENDCHAR
STARTCHAR Aacute
ENCODING 193
SWIDTH 606 0
DWIDTH 8 0
BBX 9 11 -1 0
BITMAP
0300
0400
0600
0600
0a00
1200
1200
3f00
2100
4100
e380
ENDCHAR
STARTCHAR Acircumflex
ENCODING 194
SWIDTH 606 0
DWIDTH 8 0
BBX 9 11 -1 0
BITMAP
0400
0a00
0600
0600
0a00
1200
1200
3f00
2100
4100
e380
ENDCHAR
STARTCHAR Atilde
ENCODING 195
SWIDTH 606 0
DWIDTH 8 0
BBX 9 10 -1 0
BITMAP
0500
0e00
0600
0a00
1200
1200
3f00
2100
4100
e380
ENDCHAR
STARTCHAR Adieresis
ENCODING 196
SWIDTH 606 0
DWIDTH 8 0
BBX 9 10 -1 0
BITMAP
0a00
0600
0600
0a00
1200
1200
3f00
2100
4100
e380
ENDCHAR
STARTCHAR Aring
ENCODING 197
SWIDTH 606 0
DWIDTH 8 0
BBX 9 12 -1 0
BITMAP
0700
0700
0000
0600
0600
0a00
1200
1200
3f00
2100
4100
e380
ENDCHAR
STARTCHAR AE
ENCODING 198
SWIDTH 873 0
DWIDTH 11 0
BBX 12 9 -1 0
BITMAP
07f0
0310
0500
0920
11c0
1f40
2200
4220
c7e0
ENDCHAR
STARTCHAR Ccedilla
ENCODING 199
SWIDTH 604 0
DWIDTH 8 0
BBX 7 12 1 -3
BITMAP
1e
22
42
80
80
80
84
44
38
18
08
30
ENDCHAR
STARTCHAR Egrave
ENCODING 200
SWIDTH 546 0
DWIDTH 7 0
BBX 7 11 0 0
BITMAP
10
08
7e
22
20
24
38
68
40
44
fc
ENDCHAR
STARTCHAR Eacute
ENCODING 201
SWIDTH 546 0
DWIDTH 7 0
BBX 7 11 0 0
BITMAP
06
08
7e
22
20
24
38
68
40
44
fc
ENDCHAR
STARTCHAR Ecircumflex
ENCODING 202
SWIDTH 546 0
DWIDTH 7 0
BBX 7 11 0 0
BITMAP
08
14
7e
22
20
24
38
68
40
44
fc
ENDCHAR
STARTCHAR Edieresis
ENCODING 203
SWIDTH 546 0
DWIDTH 7 0
BBX 7 10 0 0
BITMAP
14
7e
22
20
24
38
68
40
44
fc
ENDCHAR
STARTCHAR Igrave
ENCODING 204
SWIDTH 313 0
DWIDTH 4 0
BBX 4 11 0 0
BITMAP
40
20
70
20
20
20
20
40
40
40
e0
ENDCHAR
STARTCHAR Iacute
ENCODING 205
SWIDTH 313 0
DWIDTH 4 0
BBX 5 11 0 0
BITMAP
18
20
70
20
20
20
20
40
40
40
e0
ENDCHAR
STARTCHAR Icircumflex
ENCODING 206
SWIDTH 313 0
DWIDTH 4 0
BBX 4 11 0 0
BITMAP
20
50
70
20
20
20
20
40
40
40
e0
ENDCHAR
STARTCHAR Idieresis
ENCODING 207
SWIDTH 313 0
DWIDTH 4 0
BBX 4 10 0 0
BITMAP
50
70
20
20
20
20
40
40
40
e0
ENDCHAR
STARTCHAR Eth
ENCODING 208
SWIDTH 671 0
DWIDTH 9 0
BBX 8 9 0 0
BITMAP
7c00
2200
2100
2100
7900
2100
4200
4400
f800
ENDCHAR
STARTCHAR Ntilde
ENCODING 209
SWIDTH 683 0
DWIDTH 8 0
BBX 9 10 0 0
BITMAP
0a00
7780
3100
3100
2900
4900
4e00
4600
4600
e200
ENDCHAR
STARTCHAR Ograve
ENCODING 210
SWIDTH 708 0
DWIDTH 9 0
BBX 8 11 1 0
BITMAP
1000
0800
1c00
2200
4100
8100
8100
8100
8200
4400
3800
ENDCHAR
STARTCHAR Oacute
ENCODING 211
SWIDTH 708 0
DWIDTH 9 0
BBX 8 11 1 0
BITMAP
0600
0800
1c00
2200
4100
8100
8100
8100
8200
4400
3800
ENDCHAR
STARTCHAR Ocircumflex
ENCODING 212
SWIDTH 708 0
DWIDTH 9 0
BBX 8 11 1 0
BITMAP
0800
1400
1c00
2200
4100
8100
8100
8100
8200
4400
3800
ENDCHAR
STARTCHAR Otilde
ENCODING 213
SWIDTH 708 0
DWIDTH 9 0
BBX 8 10 1 0
BITMAP
0a00
1c00
2200
4100
8100
8100
8100
8200
4400
3800
ENDCHAR
STARTCHAR Odieresis
ENCODING 214
SWIDTH 708 0
DWIDTH 9 0
BBX 8 10 1 0
BITMAP
1400
1c00
2200
4100
8100
8100
8100
8200
4400
3800
ENDCHAR
STARTCHAR multiply
ENCODING 215
SWIDTH 833 0
DWIDTH 10 0
BBX 7 7 2 0
BITMAP
82
44
28
10
28
44
82
ENDCHAR
STARTCHAR Oslash
ENCODING 216
SWIDTH 708 0
DWIDTH 9 0
BBX 8 10 1 -1
BITMAP
1e00
2200
4500
8900
9100
9100
a200
4400
7800
8000
ENDCHAR
STARTCHAR Ugrave
ENCODING 217
SWIDTH 664 0
DWIDTH 8 0
BBX 8 11 1 0
BITMAP
2000
1000
e700
4200
4200
4200
8400
8400
8400
8800
7000
ENDCHAR
STARTCHAR Uacute
ENCODING 218
SWIDTH 664 0
DWIDTH 8 0
BBX 8 11 1 0
BITMAP
0c00
1000
e700
4200
4200
4200
8400
8400
8400
8800
7000
ENDCHAR
STARTCHAR Ucircumflex
ENCODING 219
SWIDTH 664 0
DWIDTH 8 0
BBX 8 11 1 0
BITMAP
1000
2800
e700
4200
4200
4200
8400
8400
8400
8800
7000
ENDCHAR
STARTCHAR Udieresis
ENCODING 220
SWIDTH 664 0
DWIDTH 8 0
BBX 8 10 1 0
BITMAP
2800
e700
4200
4200
4200
8400
8400
8400
8800
7000
ENDCHAR
STARTCHAR Yacute
ENCODING 221
SWIDTH 563 0
DWIDTH 7 0
BBX 8 11 0 0
BITMAP
0c00
1000
e700
4200
6400
2800
3000
3000
2000
2000
7000
ENDCHAR
STARTCHAR Thorn
ENCODING 222
SWIDTH 532 0
DWIDTH 7 0
BBX 7 9 0 0
BITMAP
78
3c
22
22
22
24
78
40
e0
ENDCHAR
STARTCHAR germandbls
ENCODING 223
SWIDTH 574 0
DWIDTH 7 0
BBX 8 12 -2 -3
BITMAP
0600
0900
1100
1300
1400
1600
2300
2900
2600
2000
2000
c000
ENDCHAR
STARTCHAR agrave
ENCODING 224
SWIDTH 525 0
DWIDTH 7 0
BBX 6 9 0 0
BITMAP
20
10
00
3c
4c
88
88
90
7c
ENDCHAR
STARTCHAR aacute
ENCODING 225
SWIDTH 525 0
DWIDTH 7 0
BBX 6 9 0 0
BITMAP
0c
10
00
3c
4c
88
88
90
7c
ENDCHAR
STARTCHAR acircumflex
ENCODING 226
SWIDTH 525 0
DWIDTH 7 0
BBX 6 9 0 0
BITMAP
10
28
00
3c
4c
88
88
90
7c
ENDCHAR
STARTCHAR atilde
ENCODING 227
SWIDTH 525 0
DWIDTH 7 0
BBX 6 8 0 0
BITMAP
14
28
3c
4c
88
88
90
7c
ENDCHAR
STARTCHAR adieresis
ENCODING 228
SWIDTH 525 0
DWIDTH 7 0
BBX 6 8 0 0
BITMAP
28
00
3c
4c
88
88
90
7c
ENDCHAR
STARTCHAR aring
ENCODING 229
SWIDTH 525 0
DWIDTH 7 0
BBX 6 9 0 0
BITMAP
38
38
00
3c
4c
88
88
90
7c
ENDCHAR
STARTCHAR ae
ENCODING 230
SWIDTH 671 0
DWIDTH 8 0
BBX 7 6 0 0
BITMAP
34
5a
16
78
92
ec
ENDCHAR
STARTCHAR ccedilla
ENCODING 231
SWIDTH 394 0
DWIDTH 5 0
BBX 4 9 0 -3
BITMAP
30
50
80
80
90
60
60
20
c0
ENDCHAR
STARTCHAR egrave
ENCODING 232
SWIDTH 424 0
DWIDTH 5 0
BBX 4 9 0 0
BITMAP
20
10
00
20
50
a0
c0
90
60
ENDCHAR
STARTCHAR eacute
ENCODING 233
SWIDTH 424 0
DWIDTH 5 0
BBX 6 9 0 0
BITMAP
0c
10
00
20
50
a0
c0
90
60
ENDCHAR
STARTCHAR ecircumflex
ENCODING 234
SWIDTH 424 0
DWIDTH 5 0
BBX 5 9 0 0
BITMAP
10
28
00
20
50
a0
c0
90
60
ENDCHAR
STARTCHAR edieresis
ENCODING 235
SWIDTH 424 0
DWIDTH 5 0
BBX 5 8 0 0
BITMAP
28
00
20
50
a0
c0
90
60
ENDCHAR
STARTCHAR igrave
ENCODING 236
SWIDTH 287 0
DWIDTH 4 0
BBX 3 9 1 0
BITMAP
80
40
00
c0
40
40
80
80
e0
ENDCHAR
STARTCHAR iacute
ENCODING 237
SWIDTH 287 0
DWIDTH 4 0
BBX 4 9 1 0
BITMAP
30
40
00
c0
40
40
80
80
e0
ENDCHAR
STARTCHAR icircumflex
ENCODING 238
SWIDTH 287 0
DWIDTH 4 0
BBX 3 9 1 0
BITMAP
40
a0
00
c0
40
40
80
80
e0
ENDCHAR
STARTCHAR idieresis
ENCODING 239
SWIDTH 287 0
DWIDTH 4 0
BBX 3 8 1 0
BITMAP
a0
00
c0
40
40
80
80
e0
ENDCHAR
STARTCHAR eth
ENCODING 240
SWIDTH 500 0
DWIDTH 6 0
BBX 5 9 0 0
BITMAP
28
30
50
38
48
88
88
90
60
ENDCHAR
STARTCHAR ntilde
ENCODING 241
SWIDTH 556 0
DWIDTH 7 0
BBX 6 8 1 0
BITMAP
28
50
d8
68
48
88
90
9c
ENDCHAR
STARTCHAR ograve
ENCODING 242
SWIDTH 502 0
DWIDTH 6 0
BBX 5 9 0 0
BITMAP
20
10
00
30
48
88
88
90
60
ENDCHAR
STARTCHAR oacute
ENCODING 243
SWIDTH 502 0
DWIDTH 6 0
BBX 6 9 0 0
BITMAP
0c
10
00
30
48
88
88
90
60
ENDCHAR
STARTCHAR ocircumflex
ENCODING 244
SWIDTH 502 0
DWIDTH 6 0
BBX 5 9 0 0
BITMAP
10
28
00
30
48
88
88
90
60
ENDCHAR
STARTCHAR otilde
ENCODING 245
SWIDTH 502 0
DWIDTH 6 0
BBX 6 8 0 0
BITMAP
14
28
30
48
88
88
90
60
ENDCHAR
STARTCHAR odieresis
ENCODING 246
SWIDTH 502 0
DWIDTH 6 0
BBX 5 8 0 0
BITMAP
28
00
30
48
88
88
90
60
ENDCHAR
STARTCHAR divide
ENCODING 247
SWIDTH 833 0
DWIDTH 10 0
BBX 7 5 2 1
BITMAP
10
00
fe
00
10
ENDCHAR
STARTCHAR oslash
ENCODING 248
SWIDTH 502 0
DWIDTH 6 0
BBX 5 8 0 -1
BITMAP
08
30
58
a8
a8
d0
60
80
ENDCHAR
STARTCHAR ugrave
ENCODING 249
SWIDTH 553 0
DWIDTH 7 0
BBX 6 9 0 0
BITMAP
20
10
00
c4
44
48
88
98
ec
ENDCHAR
STARTCHAR uacute
ENCODING 250
SWIDTH 553 0
DWIDTH 7 0
BBX 6 9 0 0
BITMAP
0c
10
00
c4
44
48
88
98
ec
ENDCHAR
STARTCHAR ucircumflex
ENCODING 251
SWIDTH 553 0
DWIDTH 7 0
BBX 6 9 0 0
BITMAP
10
28
00
c4
44
48
88
98
ec
ENDCHAR
STARTCHAR udieresis
ENCODING 252
SWIDTH 553 0
DWIDTH 7 0
BBX 6 8 0 0
BITMAP
28
00
c4
44
48
88
98
ec
ENDCHAR
STARTCHAR yacute
ENCODING 253
SWIDTH 475 0
DWIDTH 6 0
BBX 7 12 -1 -3
BITMAP
06
08
00
62
24
14
18
18
10
10
a0
c0
ENDCHAR
STARTCHAR thorn
ENCODING 254
SWIDTH 516 0
DWIDTH 6 0
BBX 6 12 -1 -3
BITMAP
60
20
20
38
24
24
44
48
70
40
40
e0
ENDCHAR
STARTCHAR ydieresis
ENCODING 255
SWIDTH 475 0
DWIDTH 6 0
BBX 7 11 -1 -3
BITMAP
14
00
62
24
14
18
18
10
10
a0
c0
ENDCHAR
ENDFONT
