STARTFONT 2.1
COMMENT $Xorg: charI10.bdf,v 1.3 2000/08/17 19:43:38 cpqbld Exp $
COMMENT  
COMMENT  Copyright 1988 Bitstream, Inc., Cambridge, Massachusetts, USA
COMMENT  Bitstream and Charter are registered trademarks of Bitstream, Inc.
COMMENT  
COMMENT  The names "Bitstream" and "Charter" are registered trademarks of
COMMENT  Bitstream, Inc.  Permission to use these trademarks is hereby
COMMENT  granted only in association with the images described in this file.
COMMENT  
COMMENT  Permission to use, copy, modify, and distribute this software and
COMMENT  its documentation for any purpose and without fee is hereby
COMMENT  granted, provided that the above copyright notice appear in all
COMMENT  copies and that both that copyright notice and this permission
COMMENT  notice appear in supporting documentation, and that the name of
COMMENT  Bitstream not be used in advertising or publicity pertaining to
COMMENT  distribution of the software without specific, written prior
COMMENT  permission.  Bitstream makes no representations about the
COMMENT  suitability of this software for any purpose.  It is provided "as
COMMENT  is" without express or implied warranty.
COMMENT  
COMMENT  BITSTREAM DISCLAIMS ALL WARRANTIES WITH REGARD TO THIS SOFTWARE,
COMMENT  INCLUDING ALL IMPLIED WARRANTIES OF MERCHANTABILITY AND FITNESS, IN
COMMENT  NO EVENT SHALL BITSTREAM BE LIABLE FOR ANY SPECIAL, INDIRECT OR
COMMENT  CONSEQUENTIAL DAMAGES OR ANY DAMAGES WHATSOEVER RESULTING FROM LOSS
COMMENT  OF USE, DATA OR PROFITS, WHETHER IN AN ACTION OF CONTRACT,
COMMENT  NEGLIGENCE OR OTHER TORTIOUS ACTION, ARISING OUT OF OR IN
COMMENT  CONNECTION WITH THE USE OR PERFORMANCE OF THIS SOFTWARE.
COMMENT  
COMMENT  
COMMENT Fontware CVTBDF v1.0
FONT -Bitstream-Charter-Medium-I-Normal--10-100-75-75-P-55-ISO8859-1
SIZE 10 75 75
FONTBOUNDINGBOX 12 13 -2 -2
STARTPROPERTIES 22
COMMENT Begin LogicalFontDescription
FONTNAME_REGISTRY ""
FAMILY_NAME "Charter"
FOUNDRY "Bitstream"
WEIGHT_NAME "Medium"
SETWIDTH_NAME "Normal"
SLANT "I"
ADD_STYLE_NAME ""
PIXEL_SIZE 10
POINT_SIZE 100
RESOLUTION_X 75
RESOLUTION_Y 75
SPACING "P"
AVERAGE_WIDTH 55
CHARSET_REGISTRY "ISO8859"
CHARSET_ENCODING "1"
COMMENT END LogicalFontDescription
FONT_DESCENT 2
FONT_ASCENT 11
CAP_HEIGHT 7
X_HEIGHT 5
CHARSET_COLLECTIONS "ASCII ISOLATIN1"
FACE_NAME "Bitstream Charter Italic"
COPYRIGHT "Copyright 1987 by Bitstream Inc. Charter Registered trademark of Bitstream Inc."
COMMENT ****** end of font properties
ENDPROPERTIES
CHARS 191
STARTCHAR space
ENCODING 32
SWIDTH 278 0
DWIDTH 3 0
BBX 1 1 0 0
BITMAP
00
ENDCHAR
STARTCHAR exclam
ENCODING 33
SWIDTH 338 0
DWIDTH 4 0
BBX 3 7 1 0
BITMAP
20
60
40
40
40
00
c0
ENDCHAR
STARTCHAR quotedbl
ENCODING 34
SWIDTH 331 0
DWIDTH 3 0
BBX 3 3 0 5
BITMAP
a0
a0
a0
ENDCHAR
STARTCHAR numbersign
ENCODING 35
SWIDTH 745 0
DWIDTH 8 0
BBX 7 7 0 0
BITMAP
14
14
7e
28
fe
50
50
ENDCHAR
STARTCHAR dollar
ENCODING 36
SWIDTH 556 0
DWIDTH 6 0
BBX 5 9 0 -1
BITMAP
10
38
58
60
30
28
b0
60
40
ENDCHAR
STARTCHAR percent
ENCODING 37
SWIDTH 852 0
DWIDTH 9 0
BBX 9 8 0 0
BITMAP
2100
5200
9400
ab00
6a80
1480
2500
4200
ENDCHAR
STARTCHAR ampersand
ENCODING 38
SWIDTH 704 0
DWIDTH 7 0
BBX 6 7 0 0
BITMAP
30
48
50
64
94
98
64
ENDCHAR
STARTCHAR quoteright
ENCODING 39
SWIDTH 201 0
DWIDTH 2 0
BBX 1 3 1 5
BITMAP
80
80
80
ENDCHAR
STARTCHAR parenleft
ENCODING 40
SWIDTH 419 0
DWIDTH 5 0
BBX 4 9 1 -1
BITMAP
30
40
40
40
80
80
80
80
40
ENDCHAR
STARTCHAR parenright
ENCODING 41
SWIDTH 419 0
DWIDTH 4 0
BBX 4 9 -1 -1
BITMAP
20
10
10
10
10
10
20
20
c0
ENDCHAR
STARTCHAR asterisk
ENCODING 42
SWIDTH 500 0
DWIDTH 5 0
BBX 4 4 1 4
BITMAP
20
b0
60
a0
ENDCHAR
STARTCHAR plus
ENCODING 43
SWIDTH 833 0
DWIDTH 9 0
BBX 7 7 1 0
BITMAP
10
10
10
fe
10
10
10
ENDCHAR
STARTCHAR comma
ENCODING 44
SWIDTH 278 0
DWIDTH 3 0
BBX 2 2 -1 -1
BITMAP
40
c0
ENDCHAR
STARTCHAR hyphen
ENCODING 45
SWIDTH 319 0
DWIDTH 3 0
BBX 2 1 0 2
BITMAP
c0
ENDCHAR
STARTCHAR period
ENCODING 46
SWIDTH 278 0
DWIDTH 3 0
BBX 1 1 0 0
BITMAP
80
ENDCHAR
STARTCHAR slash
ENCODING 47
SWIDTH 481 0
DWIDTH 5 0
BBX 7 8 -1 -1
BITMAP
02
04
08
10
10
20
40
80
ENDCHAR
STARTCHAR zero
ENCODING 48
SWIDTH 556 0
DWIDTH 6 0
BBX 5 7 1 0
BITMAP
30
48
88
88
88
90
60
ENDCHAR
STARTCHAR one
ENCODING 49
SWIDTH 556 0
DWIDTH 6 0
BBX 3 7 1 0
BITMAP
20
60
20
20
40
40
e0
ENDCHAR
STARTCHAR two
ENCODING 50
SWIDTH 556 0
DWIDTH 6 0
BBX 5 7 0 0
BITMAP
30
48
08
10
20
48
f0
ENDCHAR
STARTCHAR three
ENCODING 51
SWIDTH 556 0
DWIDTH 6 0
BBX 6 7 0 0
BITMAP
38
44
0c
30
0c
88
70
ENDCHAR
STARTCHAR four
ENCODING 52
SWIDTH 556 0
DWIDTH 6 0
BBX 6 7 0 0
BITMAP
08
18
28
48
fc
10
10
ENDCHAR
STARTCHAR five
ENCODING 53
SWIDTH 556 0
DWIDTH 6 0
BBX 6 7 0 0
BITMAP
3c
40
70
08
08
90
e0
ENDCHAR
STARTCHAR six
ENCODING 54
SWIDTH 556 0
DWIDTH 6 0
BBX 5 8 0 0
BITMAP
18
20
40
b0
c8
88
90
60
ENDCHAR
STARTCHAR seven
ENCODING 55
SWIDTH 556 0
DWIDTH 6 0
BBX 6 7 0 0
BITMAP
7c
44
08
10
20
20
c0
ENDCHAR
STARTCHAR eight
ENCODING 56
SWIDTH 556 0
DWIDTH 6 0
BBX 5 7 0 0
BITMAP
30
48
48
70
88
90
60
ENDCHAR
STARTCHAR nine
ENCODING 57
SWIDTH 556 0
DWIDTH 6 0
BBX 5 7 1 0
BITMAP
30
48
88
98
70
30
c0
ENDCHAR
STARTCHAR colon
ENCODING 58
SWIDTH 319 0
DWIDTH 3 0
BBX 2 5 0 0
BITMAP
40
00
00
00
80
ENDCHAR
STARTCHAR semicolon
ENCODING 59
SWIDTH 319 0
DWIDTH 4 0
BBX 3 6 0 -1
BITMAP
60
00
00
00
40
c0
ENDCHAR
STARTCHAR less
ENCODING 60
SWIDTH 833 0
DWIDTH 9 0
BBX 6 5 1 1
BITMAP
0c
70
80
70
0c
ENDCHAR
STARTCHAR equal
ENCODING 61
SWIDTH 833 0
DWIDTH 9 0
BBX 6 3 2 2
BITMAP
fc
00
fc
ENDCHAR
STARTCHAR greater
ENCODING 62
SWIDTH 833 0
DWIDTH 9 0
BBX 6 5 2 1
BITMAP
c0
38
04
38
c0
ENDCHAR
STARTCHAR question
ENCODING 63
SWIDTH 486 0
DWIDTH 5 0
BBX 4 7 1 0
BITMAP
60
90
10
60
40
00
80
ENDCHAR
STARTCHAR at
ENCODING 64
SWIDTH 942 0
DWIDTH 10 0
BBX 9 9 1 -1
BITMAP
1e00
6100
4e80
9480
a480
a500
9e00
4300
3c00
ENDCHAR
STARTCHAR A
ENCODING 65
SWIDTH 606 0
DWIDTH 6 0
BBX 7 7 -1 0
BITMAP
08
14
14
24
3c
44
c6
ENDCHAR
STARTCHAR B
ENCODING 66
SWIDTH 588 0
DWIDTH 6 0
BBX 6 7 0 0
BITMAP
78
24
2c
78
44
48
f0
ENDCHAR
STARTCHAR C
ENCODING 67
SWIDTH 604 0
DWIDTH 6 0
BBX 6 7 0 0
BITMAP
1c
64
80
80
80
48
30
ENDCHAR
STARTCHAR D
ENCODING 68
SWIDTH 671 0
DWIDTH 7 0
BBX 7 7 0 0
BITMAP
78
24
22
42
44
4c
f0
ENDCHAR
STARTCHAR E
ENCODING 69
SWIDTH 546 0
DWIDTH 6 0
BBX 6 7 0 0
BITMAP
7c
24
28
78
48
44
f8
ENDCHAR
STARTCHAR F
ENCODING 70
SWIDTH 509 0
DWIDTH 5 0
BBX 6 7 0 0
BITMAP
7c
24
28
78
48
40
e0
ENDCHAR
STARTCHAR G
ENCODING 71
SWIDTH 664 0
DWIDTH 7 0
BBX 7 7 0 0
BITMAP
1e
62
80
8e
84
44
38
ENDCHAR
STARTCHAR H
ENCODING 72
SWIDTH 712 0
DWIDTH 7 0
BBX 8 7 0 0
BITMAP
7700
2200
2200
7e00
4400
4400
ee00
ENDCHAR
STARTCHAR I
ENCODING 73
SWIDTH 313 0
DWIDTH 4 0
BBX 4 7 0 0
BITMAP
70
20
20
20
40
40
e0
ENDCHAR
STARTCHAR J
ENCODING 74
SWIDTH 447 0
DWIDTH 4 0
BBX 5 7 -1 0
BITMAP
18
10
10
10
10
a0
c0
ENDCHAR
STARTCHAR K
ENCODING 75
SWIDTH 625 0
DWIDTH 6 0
BBX 7 7 0 0
BITMAP
76
24
38
70
50
48
cc
ENDCHAR
STARTCHAR L
ENCODING 76
SWIDTH 498 0
DWIDTH 5 0
BBX 5 7 0 0
BITMAP
70
20
20
40
40
48
f8
ENDCHAR
STARTCHAR M
ENCODING 77
SWIDTH 839 0
DWIDTH 8 0
BBX 9 7 0 0
BITMAP
6180
2300
5300
5500
5900
5a00
d300
ENDCHAR
STARTCHAR N
ENCODING 78
SWIDTH 683 0
DWIDTH 7 0
BBX 8 7 0 0
BITMAP
6300
3200
5200
5a00
4a00
4c00
c400
ENDCHAR
STARTCHAR O
ENCODING 79
SWIDTH 708 0
DWIDTH 7 0
BBX 7 7 0 0
BITMAP
18
64
c2
82
82
4c
30
ENDCHAR
STARTCHAR P
ENCODING 80
SWIDTH 542 0
DWIDTH 6 0
BBX 6 7 0 0
BITMAP
78
24
24
48
70
40
c0
ENDCHAR
STARTCHAR Q
ENCODING 81
SWIDTH 708 0
DWIDTH 7 0
BBX 7 8 0 -1
BITMAP
18
64
c2
82
82
44
38
0e
ENDCHAR
STARTCHAR R
ENCODING 82
SWIDTH 602 0
DWIDTH 7 0
BBX 7 7 0 0
BITMAP
78
24
2c
70
48
48
e6
ENDCHAR
STARTCHAR S
ENCODING 83
SWIDTH 537 0
DWIDTH 6 0
BBX 6 7 0 0
BITMAP
3c
44
40
30
08
88
70
ENDCHAR
STARTCHAR T
ENCODING 84
SWIDTH 565 0
DWIDTH 6 0
BBX 6 7 0 0
BITMAP
fc
a4
20
20
20
20
60
ENDCHAR
STARTCHAR U
ENCODING 85
SWIDTH 664 0
DWIDTH 7 0
BBX 6 7 1 0
BITMAP
cc
48
48
88
88
90
60
ENDCHAR
STARTCHAR V
ENCODING 86
SWIDTH 590 0
DWIDTH 6 0
BBX 7 7 0 0
BITMAP
c6
44
44
48
50
50
20
ENDCHAR
STARTCHAR W
ENCODING 87
SWIDTH 898 0
DWIDTH 9 0
BBX 9 7 1 0
BITMAP
c980
4900
5900
5a00
6600
6400
4400
ENDCHAR
STARTCHAR X
ENCODING 88
SWIDTH 569 0
DWIDTH 6 0
BBX 7 7 -1 0
BITMAP
76
24
18
10
28
48
cc
ENDCHAR
STARTCHAR Y
ENCODING 89
SWIDTH 563 0
DWIDTH 6 0
BBX 7 7 0 0
BITMAP
ee
44
48
30
20
20
70
ENDCHAR
STARTCHAR Z
ENCODING 90
SWIDTH 556 0
DWIDTH 6 0
BBX 6 7 0 0
BITMAP
7c
48
10
10
20
48
f8
ENDCHAR
STARTCHAR bracketleft
ENCODING 91
SWIDTH 421 0
DWIDTH 5 0
BBX 4 8 1 -1
BITMAP
30
40
40
40
40
80
80
c0
ENDCHAR
STARTCHAR backslash
ENCODING 92
SWIDTH 481 0
DWIDTH 5 0
BBX 5 8 0 -1
BITMAP
80
40
40
20
20
10
10
08
ENDCHAR
STARTCHAR bracketright
ENCODING 93
SWIDTH 421 0
DWIDTH 5 0
BBX 4 8 0 -1
BITMAP
30
10
10
20
20
20
20
c0
ENDCHAR
STARTCHAR asciicircum
ENCODING 94
SWIDTH 1000 0
DWIDTH 10 0
BBX 6 3 2 5
BITMAP
30
48
84
ENDCHAR
STARTCHAR underscore
ENCODING 95
SWIDTH 500 0
DWIDTH 5 0
BBX 5 1 0 -2
BITMAP
f8
ENDCHAR
STARTCHAR quoteleft
ENCODING 96
SWIDTH 201 0
DWIDTH 3 0
BBX 2 3 1 5
BITMAP
40
80
c0
ENDCHAR
STARTCHAR a
ENCODING 97
SWIDTH 525 0
DWIDTH 5 0
BBX 5 5 0 0
BITMAP
38
48
88
90
78
ENDCHAR
STARTCHAR b
ENCODING 98
SWIDTH 507 0
DWIDTH 5 0
BBX 5 8 0 0
BITMAP
c0
40
40
70
48
88
90
60
ENDCHAR
STARTCHAR c
ENCODING 99
SWIDTH 394 0
DWIDTH 4 0
BBX 4 5 0 0
BITMAP
30
50
80
90
60
ENDCHAR
STARTCHAR d
ENCODING 100
SWIDTH 523 0
DWIDTH 5 0
BBX 5 8 0 0
BITMAP
08
08
08
38
48
88
90
68
ENDCHAR
STARTCHAR e
ENCODING 101
SWIDTH 424 0
DWIDTH 4 0
BBX 4 5 0 0
BITMAP
20
70
c0
90
60
ENDCHAR
STARTCHAR f
ENCODING 102
SWIDTH 292 0
DWIDTH 3 0
BBX 6 10 -2 -2
BITMAP
0c
14
10
38
10
20
20
20
20
c0
ENDCHAR
STARTCHAR g
ENCODING 103
SWIDTH 481 0
DWIDTH 6 0
BBX 6 7 0 -2
BITMAP
34
48
30
20
d8
88
70
ENDCHAR
STARTCHAR h
ENCODING 104
SWIDTH 551 0
DWIDTH 6 0
BBX 6 8 0 0
BITMAP
60
20
40
58
68
48
50
8c
ENDCHAR
STARTCHAR i
ENCODING 105
SWIDTH 287 0
DWIDTH 3 0
BBX 2 8 1 0
BITMAP
40
00
00
c0
80
80
80
c0
ENDCHAR
STARTCHAR j
ENCODING 106
SWIDTH 269 0
DWIDTH 3 0
BBX 4 10 -1 -2
BITMAP
10
00
00
30
10
20
20
20
20
c0
ENDCHAR
STARTCHAR k
ENCODING 107
SWIDTH 514 0
DWIDTH 5 0
BBX 5 8 0 0
BITMAP
60
40
40
48
70
60
90
98
ENDCHAR
STARTCHAR l
ENCODING 108
SWIDTH 275 0
DWIDTH 3 0
BBX 2 8 0 0
BITMAP
c0
40
40
40
80
80
80
c0
ENDCHAR
STARTCHAR m
ENCODING 109
SWIDTH 815 0
DWIDTH 8 0
BBX 8 5 0 0
BITMAP
f600
5a00
9200
9200
9300
ENDCHAR
STARTCHAR n
ENCODING 110
SWIDTH 556 0
DWIDTH 6 0
BBX 6 5 0 0
BITMAP
d8
68
48
90
9c
ENDCHAR
STARTCHAR o
ENCODING 111
SWIDTH 502 0
DWIDTH 5 0
BBX 4 5 0 0
BITMAP
20
50
90
a0
40
ENDCHAR
STARTCHAR p
ENCODING 112
SWIDTH 516 0
DWIDTH 5 0
BBX 6 7 -1 -2
BITMAP
7c
24
44
48
70
40
e0
ENDCHAR
STARTCHAR q
ENCODING 113
SWIDTH 512 0
DWIDTH 5 0
BBX 5 7 0 -2
BITMAP
38
48
88
90
70
10
38
ENDCHAR
STARTCHAR r
ENCODING 114
SWIDTH 398 0
DWIDTH 4 0
BBX 4 5 0 0
BITMAP
f0
50
40
80
80
ENDCHAR
STARTCHAR s
ENCODING 115
SWIDTH 370 0
DWIDTH 4 0
BBX 4 5 0 0
BITMAP
30
40
20
90
60
ENDCHAR
STARTCHAR t
ENCODING 116
SWIDTH 333 0
DWIDTH 3 0
BBX 3 6 0 0
BITMAP
40
e0
80
80
80
c0
ENDCHAR
STARTCHAR u
ENCODING 117
SWIDTH 553 0
DWIDTH 6 0
BBX 5 5 0 0
BITMAP
c8
48
90
90
f8
ENDCHAR
STARTCHAR v
ENCODING 118
SWIDTH 454 0
DWIDTH 5 0
BBX 5 5 0 0
BITMAP
c8
48
50
50
60
ENDCHAR
STARTCHAR w
ENCODING 119
SWIDTH 713 0
DWIDTH 7 0
BBX 7 5 0 0
BITMAP
d2
52
72
6c
48
ENDCHAR
STARTCHAR x
ENCODING 120
SWIDTH 477 0
DWIDTH 5 0
BBX 6 5 -1 0
BITMAP
6c
30
30
50
d8
ENDCHAR
STARTCHAR y
ENCODING 121
SWIDTH 475 0
DWIDTH 5 0
BBX 6 7 -1 -2
BITMAP
64
28
28
30
30
20
c0
ENDCHAR
STARTCHAR z
ENCODING 122
SWIDTH 440 0
DWIDTH 5 0
BBX 5 5 0 0
BITMAP
78
50
20
58
f0
ENDCHAR
STARTCHAR braceleft
ENCODING 123
SWIDTH 486 0
DWIDTH 5 0
BBX 4 8 0 -1
BITMAP
10
20
20
c0
20
20
20
10
ENDCHAR
STARTCHAR bar
ENCODING 124
SWIDTH 500 0
DWIDTH 5 0
BBX 1 10 2 -2
BITMAP
80
80
80
80
80
80
80
80
80
80
ENDCHAR
STARTCHAR braceright
ENCODING 125
SWIDTH 486 0
DWIDTH 5 0
BBX 4 8 0 -1
BITMAP
80
40
40
30
40
40
40
80
ENDCHAR
STARTCHAR c0126
ENCODING 126
SWIDTH 1000 0
DWIDTH 10 0
BBX 6 2 2 5
BITMAP
64
98
ENDCHAR
STARTCHAR space
ENCODING 160
SWIDTH 278 0
DWIDTH 3 0
BBX 1 1 0 0
BITMAP
00
ENDCHAR
STARTCHAR exclamdown
ENCODING 161
SWIDTH 338 0
DWIDTH 4 0
BBX 3 7 1 0
BITMAP
60
00
40
40
40
c0
80
ENDCHAR
STARTCHAR cent
ENCODING 162
SWIDTH 556 0
DWIDTH 6 0
BBX 5 7 0 -1
BITMAP
10
38
68
a0
b0
70
20
ENDCHAR
STARTCHAR sterling
ENCODING 163
SWIDTH 556 0
DWIDTH 6 0
BBX 6 7 0 0
BITMAP
1c
24
20
78
40
40
f8
ENDCHAR
STARTCHAR currency
ENCODING 164
SWIDTH 606 0
DWIDTH 6 0
BBX 6 6 0 1
BITMAP
84
78
48
48
78
84
ENDCHAR
STARTCHAR yen
ENCODING 165
SWIDTH 556 0
DWIDTH 5 0
BBX 6 7 0 0
BITMAP
6c
48
d8
20
f8
20
60
ENDCHAR
STARTCHAR brokenbar
ENCODING 166
SWIDTH 500 0
DWIDTH 5 0
BBX 1 9 2 -1
BITMAP
80
80
80
80
00
80
80
80
80
ENDCHAR
STARTCHAR section
ENCODING 167
SWIDTH 500 0
DWIDTH 5 0
BBX 5 9 0 -1
BITMAP
38
48
40
70
90
e0
20
a0
c0
ENDCHAR
STARTCHAR dieresis
ENCODING 168
SWIDTH 500 0
DWIDTH 5 0
BBX 3 1 2 6
BITMAP
a0
ENDCHAR
STARTCHAR copyright
ENCODING 169
SWIDTH 900 0
DWIDTH 9 0
BBX 8 8 1 0
BITMAP
1c00
2200
5e00
a500
a500
5e00
2200
1c00
ENDCHAR
STARTCHAR ordfeminine
ENCODING 170
SWIDTH 394 0
DWIDTH 4 0
BBX 4 3 0 4
BITMAP
70
b0
50
ENDCHAR
STARTCHAR guillemotleft
ENCODING 171
SWIDTH 442 0
DWIDTH 5 0
BBX 5 3 0 1
BITMAP
68
b0
50
ENDCHAR
STARTCHAR logicalnot
ENCODING 172
SWIDTH 833 0
DWIDTH 9 0
BBX 6 3 2 2
BITMAP
fc
04
04
ENDCHAR
STARTCHAR hyphen
ENCODING 173
SWIDTH 319 0
DWIDTH 3 0
BBX 2 1 0 2
BITMAP
c0
ENDCHAR
STARTCHAR registered
ENCODING 174
SWIDTH 900 0
DWIDTH 9 0
BBX 8 8 1 0
BITMAP
1c00
2200
7a00
9500
9900
7600
2200
1c00
ENDCHAR
STARTCHAR macron
ENCODING 175
SWIDTH 500 0
DWIDTH 5 0
BBX 3 1 2 6
BITMAP
e0
ENDCHAR
STARTCHAR degree
ENCODING 176
SWIDTH 329 0
DWIDTH 3 0
BBX 3 3 0 4
BITMAP
40
a0
40
ENDCHAR
STARTCHAR plusminus
ENCODING 177
SWIDTH 833 0
DWIDTH 9 0
BBX 7 7 1 0
BITMAP
10
10
fe
10
10
00
fe
ENDCHAR
STARTCHAR twosuperior
ENCODING 178
SWIDTH 367 0
DWIDTH 4 0
BBX 4 5 0 2
BITMAP
20
50
30
50
e0
ENDCHAR
STARTCHAR threesuperior
ENCODING 179
SWIDTH 367 0
DWIDTH 4 0
BBX 4 5 0 2
BITMAP
60
30
60
10
e0
ENDCHAR
STARTCHAR acute
ENCODING 180
SWIDTH 500 0
DWIDTH 5 0
BBX 2 2 3 6
BITMAP
40
80
ENDCHAR
STARTCHAR mu
ENCODING 181
SWIDTH 548 0
DWIDTH 6 0
BBX 6 6 0 -2
BITMAP
48
48
54
a8
80
80
ENDCHAR
STARTCHAR paragraph
ENCODING 182
SWIDTH 484 0
DWIDTH 5 0
BBX 5 7 0 0
BITMAP
78
d0
d0
d0
10
10
10
ENDCHAR
STARTCHAR periodcentered
ENCODING 183
SWIDTH 278 0
DWIDTH 3 0
BBX 1 1 1 3
BITMAP
80
ENDCHAR
STARTCHAR cedilla
ENCODING 184
SWIDTH 500 0
DWIDTH 5 0
BBX 2 2 1 -2
BITMAP
40
80
ENDCHAR
STARTCHAR onesuperior
ENCODING 185
SWIDTH 367 0
DWIDTH 4 0
BBX 2 5 0 2
BITMAP
40
c0
40
40
c0
ENDCHAR
STARTCHAR ordmasculine
ENCODING 186
SWIDTH 377 0
DWIDTH 4 0
BBX 4 3 0 4
BITMAP
60
90
60
ENDCHAR
STARTCHAR guillemotright
ENCODING 187
SWIDTH 442 0
DWIDTH 5 0
BBX 4 3 0 1
BITMAP
a0
50
a0
ENDCHAR
STARTCHAR onequarter
ENCODING 188
SWIDTH 867 0
DWIDTH 10 0
BBX 10 7 0 0
BITMAP
4100
c200
4400
c4c0
0980
13c0
2080
ENDCHAR
STARTCHAR onehalf
ENCODING 189
SWIDTH 867 0
DWIDTH 10 0
BBX 10 7 0 0
BITMAP
4100
c200
4400
c480
0940
11c0
2380
ENDCHAR
STARTCHAR threequarters
ENCODING 190
SWIDTH 867 0
DWIDTH 10 0
BBX 10 8 0 0
BITMAP
6000
3100
6200
1400
e4c0
0980
13c0
2080
ENDCHAR
STARTCHAR questiondown
ENCODING 191
SWIDTH 486 0
DWIDTH 5 0
BBX 4 7 0 0
BITMAP
10
00
10
60
80
90
60
ENDCHAR
STARTCHAR Agrave
ENCODING 192
SWIDTH 606 0
DWIDTH 6 0
BBX 7 10 -1 0
BITMAP
08
04
00
08
14
14
24
3c
44
c6
ENDCHAR
STARTCHAR Aacute
ENCODING 193
SWIDTH 606 0
DWIDTH 6 0
BBX 7 10 -1 0
BITMAP
02
04
00
08
14
14
24
3c
44
c6
ENDCHAR
STARTCHAR Acircumflex
ENCODING 194
SWIDTH 606 0
DWIDTH 6 0
BBX 7 10 -1 0
BITMAP
08
14
00
08
14
14
24
3c
44
c6
ENDCHAR
STARTCHAR Atilde
ENCODING 195
SWIDTH 606 0
DWIDTH 6 0
BBX 7 9 -1 0
BITMAP
0e
00
08
14
14
24
3c
44
c6
ENDCHAR
STARTCHAR Adieresis
ENCODING 196
SWIDTH 606 0
DWIDTH 6 0
BBX 7 9 -1 0
BITMAP
0a
00
08
14
14
24
3c
44
c6
ENDCHAR
STARTCHAR Aring
ENCODING 197
SWIDTH 606 0
DWIDTH 6 0
BBX 7 11 -1 0
BITMAP
0c
12
0c
00
08
14
14
24
3c
44
c6
ENDCHAR
STARTCHAR AE
ENCODING 198
SWIDTH 873 0
DWIDTH 9 0
BBX 10 7 -1 0
BITMAP
07c0
0640
0a80
1380
3c80
4440
cf80
ENDCHAR
STARTCHAR Ccedilla
ENCODING 199
SWIDTH 604 0
DWIDTH 6 0
BBX 6 9 0 -2
BITMAP
1c
64
80
80
80
48
30
10
20
ENDCHAR
STARTCHAR Egrave
ENCODING 200
SWIDTH 546 0
DWIDTH 6 0
BBX 6 10 0 0
BITMAP
10
08
00
7c
24
28
78
48
44
f8
ENDCHAR
STARTCHAR Eacute
ENCODING 201
SWIDTH 546 0
DWIDTH 6 0
BBX 6 10 0 0
BITMAP
04
08
00
7c
24
28
78
48
44
f8
ENDCHAR
STARTCHAR Ecircumflex
ENCODING 202
SWIDTH 546 0
DWIDTH 6 0
BBX 6 10 0 0
BITMAP
10
28
00
7c
24
28
78
48
44
f8
ENDCHAR
STARTCHAR Edieresis
ENCODING 203
SWIDTH 546 0
DWIDTH 6 0
BBX 6 9 0 0
BITMAP
14
00
7c
24
28
78
48
44
f8
ENDCHAR
STARTCHAR Igrave
ENCODING 204
SWIDTH 313 0
DWIDTH 4 0
BBX 4 10 0 0
BITMAP
40
20
00
70
20
20
20
40
40
e0
ENDCHAR
STARTCHAR Iacute
ENCODING 205
SWIDTH 313 0
DWIDTH 4 0
BBX 4 10 0 0
BITMAP
10
20
00
70
20
20
20
40
40
e0
ENDCHAR
STARTCHAR Icircumflex
ENCODING 206
SWIDTH 313 0
DWIDTH 4 0
BBX 4 10 0 0
BITMAP
40
a0
00
70
20
20
20
40
40
e0
ENDCHAR
STARTCHAR Idieresis
ENCODING 207
SWIDTH 313 0
DWIDTH 4 0
BBX 4 9 0 0
BITMAP
50
00
70
20
20
20
40
40
e0
ENDCHAR
STARTCHAR Eth
ENCODING 208
SWIDTH 671 0
DWIDTH 7 0
BBX 7 7 0 0
BITMAP
78
24
22
72
42
4c
f0
ENDCHAR
STARTCHAR Ntilde
ENCODING 209
SWIDTH 683 0
DWIDTH 7 0
BBX 8 9 0 0
BITMAP
1c00
0000
6300
3200
5200
5a00
4a00
4c00
c400
ENDCHAR
STARTCHAR Ograve
ENCODING 210
SWIDTH 708 0
DWIDTH 7 0
BBX 7 10 0 0
BITMAP
10
08
00
18
64
c2
82
82
4c
30
ENDCHAR
STARTCHAR Oacute
ENCODING 211
SWIDTH 708 0
DWIDTH 7 0
BBX 7 10 0 0
BITMAP
04
08
00
18
64
c2
82
82
4c
30
ENDCHAR
STARTCHAR Ocircumflex
ENCODING 212
SWIDTH 708 0
DWIDTH 7 0
BBX 7 10 0 0
BITMAP
10
28
00
18
64
c2
82
82
4c
30
ENDCHAR
STARTCHAR Otilde
ENCODING 213
SWIDTH 708 0
DWIDTH 7 0
BBX 7 9 0 0
BITMAP
1c
00
18
64
c2
82
82
4c
30
ENDCHAR
STARTCHAR Odieresis
ENCODING 214
SWIDTH 708 0
DWIDTH 7 0
BBX 7 9 0 0
BITMAP
14
00
18
64
c2
82
82
4c
30
ENDCHAR
STARTCHAR multiply
ENCODING 215
SWIDTH 833 0
DWIDTH 9 0
BBX 6 5 2 1
BITMAP
84
48
30
48
84
ENDCHAR
STARTCHAR Oslash
ENCODING 216
SWIDTH 708 0
DWIDTH 7 0
BBX 7 9 0 -1
BITMAP
02
1c
64
8a
92
a2
4c
b0
80
ENDCHAR
STARTCHAR Ugrave
ENCODING 217
SWIDTH 664 0
DWIDTH 7 0
BBX 6 10 1 0
BITMAP
20
10
00
cc
48
48
88
88
90
60
ENDCHAR
STARTCHAR Uacute
ENCODING 218
SWIDTH 664 0
DWIDTH 7 0
BBX 6 10 1 0
BITMAP
08
10
00
cc
48
48
88
88
90
60
ENDCHAR
STARTCHAR Ucircumflex
ENCODING 219
SWIDTH 664 0
DWIDTH 7 0
BBX 6 10 1 0
BITMAP
20
50
00
cc
48
48
88
88
90
60
ENDCHAR
STARTCHAR Udieresis
ENCODING 220
SWIDTH 664 0
DWIDTH 7 0
BBX 6 9 1 0
BITMAP
28
00
cc
48
48
88
88
90
60
ENDCHAR
STARTCHAR Yacute
ENCODING 221
SWIDTH 563 0
DWIDTH 6 0
BBX 7 10 0 0
BITMAP
08
10
00
ee
44
48
30
20
20
70
ENDCHAR
STARTCHAR Thorn
ENCODING 222
SWIDTH 532 0
DWIDTH 6 0
BBX 6 7 0 0
BITMAP
70
38
24
44
48
70
e0
ENDCHAR
STARTCHAR germandbls
ENCODING 223
SWIDTH 574 0
DWIDTH 7 0
BBX 7 10 -1 -2
BITMAP
0c
12
12
2c
28
26
32
2c
20
c0
ENDCHAR
STARTCHAR agrave
ENCODING 224
SWIDTH 525 0
DWIDTH 5 0
BBX 5 8 0 0
BITMAP
20
10
00
38
48
88
90
78
ENDCHAR
STARTCHAR aacute
ENCODING 225
SWIDTH 525 0
DWIDTH 5 0
BBX 5 8 0 0
BITMAP
08
10
00
38
48
88
90
78
ENDCHAR
STARTCHAR acircumflex
ENCODING 226
SWIDTH 525 0
DWIDTH 5 0
BBX 5 8 0 0
BITMAP
20
50
00
38
48
88
90
78
ENDCHAR
STARTCHAR atilde
ENCODING 227
SWIDTH 525 0
DWIDTH 5 0
BBX 5 7 0 0
BITMAP
38
00
38
48
88
90
78
ENDCHAR
STARTCHAR adieresis
ENCODING 228
SWIDTH 525 0
DWIDTH 5 0
BBX 5 7 0 0
BITMAP
28
00
38
48
88
90
78
ENDCHAR
STARTCHAR aring
ENCODING 229
SWIDTH 525 0
DWIDTH 5 0
BBX 5 8 0 0
BITMAP
38
38
00
38
48
88
90
78
ENDCHAR
STARTCHAR ae
ENCODING 230
SWIDTH 671 0
DWIDTH 7 0
BBX 7 5 0 0
BITMAP
34
5a
7c
92
ec
ENDCHAR
STARTCHAR ccedilla
ENCODING 231
SWIDTH 394 0
DWIDTH 4 0
BBX 4 7 0 -2
BITMAP
30
50
80
90
60
40
80
ENDCHAR
STARTCHAR egrave
ENCODING 232
SWIDTH 424 0
DWIDTH 4 0
BBX 4 8 0 0
BITMAP
20
10
00
20
70
c0
90
60
ENDCHAR
STARTCHAR eacute
ENCODING 233
SWIDTH 424 0
DWIDTH 4 0
BBX 5 8 0 0
BITMAP
08
10
00
20
70
c0
90
60
ENDCHAR
STARTCHAR ecircumflex
ENCODING 234
SWIDTH 424 0
DWIDTH 4 0
BBX 4 8 0 0
BITMAP
20
50
00
20
70
c0
90
60
ENDCHAR
STARTCHAR edieresis
ENCODING 235
SWIDTH 424 0
DWIDTH 4 0
BBX 5 7 0 0
BITMAP
28
00
20
70
c0
90
60
ENDCHAR
STARTCHAR igrave
ENCODING 236
SWIDTH 287 0
DWIDTH 3 0
BBX 3 8 0 0
BITMAP
40
20
00
c0
40
80
80
e0
ENDCHAR
STARTCHAR iacute
ENCODING 237
SWIDTH 287 0
DWIDTH 3 0
BBX 4 8 0 0
BITMAP
10
20
00
c0
40
80
80
e0
ENDCHAR
STARTCHAR icircumflex
ENCODING 238
SWIDTH 287 0
DWIDTH 3 0
BBX 3 8 0 0
BITMAP
40
a0
00
c0
40
80
80
e0
ENDCHAR
STARTCHAR idieresis
ENCODING 239
SWIDTH 287 0
DWIDTH 3 0
BBX 4 7 0 0
BITMAP
50
00
c0
40
80
80
e0
ENDCHAR
STARTCHAR eth
ENCODING 240
SWIDTH 500 0
DWIDTH 5 0
BBX 4 8 0 0
BITMAP
60
30
60
30
50
90
a0
40
ENDCHAR
STARTCHAR ntilde
ENCODING 241
SWIDTH 556 0
DWIDTH 6 0
BBX 6 7 0 0
BITMAP
38
00
d8
68
48
90
9c
ENDCHAR
STARTCHAR ograve
ENCODING 242
SWIDTH 502 0
DWIDTH 5 0
BBX 4 8 0 0
BITMAP
20
10
00
20
50
90
a0
40
ENDCHAR
STARTCHAR oacute
ENCODING 243
SWIDTH 502 0
DWIDTH 5 0
BBX 5 8 0 0
BITMAP
08
10
00
20
50
90
a0
40
ENDCHAR
STARTCHAR ocircumflex
ENCODING 244
SWIDTH 502 0
DWIDTH 5 0
BBX 4 8 0 0
BITMAP
20
50
00
20
50
90
a0
40
ENDCHAR
STARTCHAR otilde
ENCODING 245
SWIDTH 502 0
DWIDTH 5 0
BBX 5 7 0 0
BITMAP
38
00
20
50
90
a0
40
ENDCHAR
STARTCHAR odieresis
ENCODING 246
SWIDTH 502 0
DWIDTH 5 0
BBX 5 7 0 0
BITMAP
28
00
20
50
90
a0
40
ENDCHAR
STARTCHAR divide
ENCODING 247
SWIDTH 833 0
DWIDTH 9 0
BBX 7 5 1 1
BITMAP
10
00
fe
00
10
ENDCHAR
STARTCHAR oslash
ENCODING 248
SWIDTH 502 0
DWIDTH 5 0
BBX 4 7 0 -1
BITMAP
10
20
70
b0
e0
40
80
ENDCHAR
STARTCHAR ugrave
ENCODING 249
SWIDTH 553 0
DWIDTH 6 0
BBX 5 8 0 0
BITMAP
20
10
00
c8
48
90
90
f8
ENDCHAR
STARTCHAR uacute
ENCODING 250
SWIDTH 553 0
DWIDTH 6 0
BBX 5 8 0 0
BITMAP
08
10
00
c8
48
90
90
f8
ENDCHAR
STARTCHAR ucircumflex
ENCODING 251
SWIDTH 553 0
DWIDTH 6 0
BBX 5 8 0 0
BITMAP
20
50
00
c8
48
90
90
f8
ENDCHAR
STARTCHAR udieresis
ENCODING 252
SWIDTH 553 0
DWIDTH 6 0
BBX 5 7 0 0
BITMAP
28
00
c8
48
90
90
f8
ENDCHAR
STARTCHAR yacute
ENCODING 253
SWIDTH 475 0
DWIDTH 5 0
BBX 6 10 -1 -2
BITMAP
04
08
00
64
28
28
30
30
20
c0
ENDCHAR
STARTCHAR thorn
ENCODING 254
SWIDTH 516 0
DWIDTH 5 0
BBX 6 10 -1 -2
BITMAP
60
20
20
38
24
44
48
70
40
e0
ENDCHAR
STARTCHAR ydieresis
ENCODING 255
SWIDTH 475 0
DWIDTH 5 0
BBX 6 9 -1 -2
BITMAP
14
00
64
28
28
30
30
20
c0
ENDCHAR
ENDFONT
