STARTFONT 2.1
COMMENT $Xorg: charR12.bdf,v 1.3 2000/08/17 19:43:39 cpqbld Exp $
COMMENT  
COMMENT  Copyright 1988 Bitstream, Inc., Cambridge, Massachusetts, USA
COMMENT  Bitstream and Charter are registered trademarks of Bitstream, Inc.
COMMENT  
COMMENT  The names "Bitstream" and "Charter" are registered trademarks of
COMMENT  Bitstream, Inc.  Permission to use these trademarks is hereby
COMMENT  granted only in association with the images described in this file.
COMMENT  
COMMENT  Permission to use, copy, modify, and distribute this software and
COMMENT  its documentation for any purpose and without fee is hereby
COMMENT  granted, provided that the above copyright notice appear in all
COMMENT  copies and that both that copyright notice and this permission
COMMENT  notice appear in supporting documentation, and that the name of
COMMENT  Bitstream not be used in advertising or publicity pertaining to
COMMENT  distribution of the software without specific, written prior
COMMENT  permission.  Bitstream makes no representations about the
COMMENT  suitability of this software for any purpose.  It is provided "as
COMMENT  is" without express or implied warranty.
COMMENT  
COMMENT  BITSTREAM DISCLAIMS ALL WARRANTIES WITH REGARD TO THIS SOFTWARE,
COMMENT  INCLUDING ALL IMPLIED WARRANTIES OF MERCHANTABILITY AND FITNESS, IN
COMMENT  NO EVENT SHALL BITSTREAM BE LIABLE FOR ANY SPECIAL, INDIRECT OR
COMMENT  CONSEQUENTIAL DAMAGES OR ANY DAMAGES WHATSOEVER RESULTING FROM LOSS
COMMENT  OF USE, DATA OR PROFITS, WHETHER IN AN ACTION OF CONTRACT,
COMMENT  NEGLIGENCE OR OTHER TORTIOUS ACTION, ARISING OUT OF OR IN
COMMENT  CONNECTION WITH THE USE OR PERFORMANCE OF THIS SOFTWARE.
COMMENT  
COMMENT  
COMMENT Fontware CVTBDF v1.0
FONT -Bitstream-Charter-Medium-R-Normal--12-120-75-75-P-67-ISO8859-1
SIZE 12 75 75
FONTBOUNDINGBOX 13 15 -1 -3
STARTPROPERTIES 22
COMMENT Begin LogicalFontDescription
FONTNAME_REGISTRY ""
FAMILY_NAME "Charter"
FOUNDRY "Bitstream"
WEIGHT_NAME "Medium"
SETWIDTH_NAME "Normal"
SLANT "R"
ADD_STYLE_NAME ""
PIXEL_SIZE 12
POINT_SIZE 120
RESOLUTION_X 75
RESOLUTION_Y 75
SPACING "P"
AVERAGE_WIDTH 67
CHARSET_REGISTRY "ISO8859"
CHARSET_ENCODING "1"
COMMENT END LogicalFontDescription
FONT_DESCENT 3
FONT_ASCENT 12
CAP_HEIGHT 9
X_HEIGHT 6
CHARSET_COLLECTIONS "ASCII ISOLATIN1"
FACE_NAME "Bitstream Charter Roman"
COPYRIGHT "Copyright 1987 by Bitstream Inc. Charter Registered trademark of Bitstream Inc."
COMMENT ****** end of font properties
ENDPROPERTIES
CHARS 191
STARTCHAR space
ENCODING 32
SWIDTH 278 0
DWIDTH 3 0
BBX 1 1 0 0
BITMAP
00
ENDCHAR
STARTCHAR exclam
ENCODING 33
SWIDTH 338 0
DWIDTH 4 0
BBX 2 9 1 0
BITMAP
c0
c0
c0
c0
c0
40
00
c0
c0
ENDCHAR
STARTCHAR quotedbl
ENCODING 34
SWIDTH 331 0
DWIDTH 5 0
BBX 3 4 1 4
BITMAP
a0
a0
a0
a0
ENDCHAR
STARTCHAR numbersign
ENCODING 35
SWIDTH 745 0
DWIDTH 9 0
BBX 7 9 1 -1
BITMAP
14
14
14
7e
28
fe
48
50
50
ENDCHAR
STARTCHAR dollar
ENCODING 36
SWIDTH 556 0
DWIDTH 7 0
BBX 6 10 1 -1
BITMAP
7c
a4
a4
a0
78
2c
a4
ac
f0
20
ENDCHAR
STARTCHAR percent
ENCODING 37
SWIDTH 852 0
DWIDTH 11 0
BBX 10 9 1 0
BITMAP
6100
9200
9200
9580
9640
6a40
1240
1240
2180
ENDCHAR
STARTCHAR ampersand
ENCODING 38
SWIDTH 704 0
DWIDTH 9 0
BBX 8 9 1 0
BITMAP
3000
4800
4800
7000
7700
9a00
8c00
cc00
7300
ENDCHAR
STARTCHAR quoteright
ENCODING 39
SWIDTH 201 0
DWIDTH 3 0
BBX 2 3 1 5
BITMAP
c0
40
80
ENDCHAR
STARTCHAR parenleft
ENCODING 40
SWIDTH 417 0
DWIDTH 5 0
BBX 3 10 2 -2
BITMAP
20
40
80
80
80
80
80
80
40
20
ENDCHAR
STARTCHAR parenright
ENCODING 41
SWIDTH 417 0
DWIDTH 5 0
BBX 3 10 0 -2
BITMAP
80
40
20
20
20
20
20
20
40
80
ENDCHAR
STARTCHAR asterisk
ENCODING 42
SWIDTH 500 0
DWIDTH 6 0
BBX 5 4 1 4
BITMAP
20
f8
20
50
ENDCHAR
STARTCHAR plus
ENCODING 43
SWIDTH 833 0
DWIDTH 10 0
BBX 7 7 2 0
BITMAP
10
10
10
fe
10
10
10
ENDCHAR
STARTCHAR comma
ENCODING 44
SWIDTH 278 0
DWIDTH 3 0
BBX 2 3 1 -2
BITMAP
c0
40
80
ENDCHAR
STARTCHAR hyphen
ENCODING 45
SWIDTH 319 0
DWIDTH 4 0
BBX 3 1 1 2
BITMAP
e0
ENDCHAR
STARTCHAR period
ENCODING 46
SWIDTH 278 0
DWIDTH 3 0
BBX 2 2 1 0
BITMAP
c0
c0
ENDCHAR
STARTCHAR slash
ENCODING 47
SWIDTH 481 0
DWIDTH 6 0
BBX 6 10 0 -1
BITMAP
04
08
08
10
10
20
20
40
40
80
ENDCHAR
STARTCHAR zero
ENCODING 48
SWIDTH 556 0
DWIDTH 7 0
BBX 6 9 1 0
BITMAP
30
48
84
84
84
84
84
48
30
ENDCHAR
STARTCHAR one
ENCODING 49
SWIDTH 556 0
DWIDTH 7 0
BBX 3 9 2 0
BITMAP
40
c0
40
40
40
40
40
40
e0
ENDCHAR
STARTCHAR two
ENCODING 50
SWIDTH 556 0
DWIDTH 7 0
BBX 6 9 1 0
BITMAP
78
8c
84
04
0c
18
20
44
fc
ENDCHAR
STARTCHAR three
ENCODING 51
SWIDTH 556 0
DWIDTH 7 0
BBX 6 9 1 0
BITMAP
70
88
84
08
30
0c
04
8c
70
ENDCHAR
STARTCHAR four
ENCODING 52
SWIDTH 556 0
DWIDTH 7 0
BBX 6 9 1 0
BITMAP
08
18
28
48
88
fc
08
08
08
ENDCHAR
STARTCHAR five
ENCODING 53
SWIDTH 556 0
DWIDTH 7 0
BBX 7 9 0 0
BITMAP
7e
40
40
7c
06
02
02
c4
78
ENDCHAR
STARTCHAR six
ENCODING 54
SWIDTH 556 0
DWIDTH 7 0
BBX 6 9 1 0
BITMAP
18
60
40
f8
8c
84
84
48
30
ENDCHAR
STARTCHAR seven
ENCODING 55
SWIDTH 556 0
DWIDTH 7 0
BBX 6 9 1 0
BITMAP
fc
84
08
08
10
20
20
40
40
ENDCHAR
STARTCHAR eight
ENCODING 56
SWIDTH 556 0
DWIDTH 7 0
BBX 6 9 1 0
BITMAP
30
48
c4
48
78
8c
84
c4
78
ENDCHAR
STARTCHAR nine
ENCODING 57
SWIDTH 556 0
DWIDTH 7 0
BBX 6 9 1 0
BITMAP
38
48
84
84
c4
7c
08
30
40
ENDCHAR
STARTCHAR colon
ENCODING 58
SWIDTH 319 0
DWIDTH 4 0
BBX 2 6 1 0
BITMAP
c0
c0
00
00
c0
c0
ENDCHAR
STARTCHAR semicolon
ENCODING 59
SWIDTH 319 0
DWIDTH 4 0
BBX 2 8 1 -2
BITMAP
c0
c0
00
00
c0
c0
40
80
ENDCHAR
STARTCHAR less
ENCODING 60
SWIDTH 833 0
DWIDTH 10 0
BBX 7 6 1 0
BITMAP
06
18
e0
60
18
06
ENDCHAR
STARTCHAR equal
ENCODING 61
SWIDTH 833 0
DWIDTH 10 0
BBX 7 3 2 2
BITMAP
fe
00
fe
ENDCHAR
STARTCHAR greater
ENCODING 62
SWIDTH 833 0
DWIDTH 10 0
BBX 7 6 2 0
BITMAP
c0
30
0e
0c
30
c0
ENDCHAR
STARTCHAR question
ENCODING 63
SWIDTH 486 0
DWIDTH 6 0
BBX 5 9 0 0
BITMAP
70
88
08
18
20
40
00
60
60
ENDCHAR
STARTCHAR at
ENCODING 64
SWIDTH 942 0
DWIDTH 12 0
BBX 10 10 1 -2
BITMAP
0f00
3080
4740
8a40
9240
9280
cf00
4000
3180
0e00
ENDCHAR
STARTCHAR A
ENCODING 65
SWIDTH 639 0
DWIDTH 8 0
BBX 8 9 0 0
BITMAP
1000
3800
2800
2800
4400
7c00
4600
4200
c700
ENDCHAR
STARTCHAR B
ENCODING 66
SWIDTH 604 0
DWIDTH 8 0
BBX 7 9 1 0
BITMAP
f8
44
46
44
7c
42
42
46
f8
ENDCHAR
STARTCHAR C
ENCODING 67
SWIDTH 632 0
DWIDTH 8 0
BBX 7 9 1 0
BITMAP
3c
42
82
80
80
80
c2
42
3c
ENDCHAR
STARTCHAR D
ENCODING 68
SWIDTH 694 0
DWIDTH 9 0
BBX 8 9 1 0
BITMAP
f800
4600
4300
4100
4100
4100
4300
4600
f800
ENDCHAR
STARTCHAR E
ENCODING 69
SWIDTH 576 0
DWIDTH 7 0
BBX 6 9 1 0
BITMAP
fc
44
40
48
78
48
40
44
fc
ENDCHAR
STARTCHAR F
ENCODING 70
SWIDTH 537 0
DWIDTH 7 0
BBX 6 9 1 0
BITMAP
fc
44
40
48
78
48
40
40
e0
ENDCHAR
STARTCHAR G
ENCODING 71
SWIDTH 694 0
DWIDTH 9 0
BBX 8 9 1 0
BITMAP
3e00
4200
8000
8000
8700
8200
c200
6200
3e00
ENDCHAR
STARTCHAR H
ENCODING 72
SWIDTH 738 0
DWIDTH 9 0
BBX 8 9 1 0
BITMAP
e700
4200
4200
4200
7e00
4200
4200
4200
e700
ENDCHAR
STARTCHAR I
ENCODING 73
SWIDTH 324 0
DWIDTH 4 0
BBX 3 9 1 0
BITMAP
e0
40
40
40
40
40
40
40
e0
ENDCHAR
STARTCHAR J
ENCODING 74
SWIDTH 444 0
DWIDTH 6 0
BBX 6 9 0 0
BITMAP
1c
08
08
08
08
08
88
98
f0
ENDCHAR
STARTCHAR K
ENCODING 75
SWIDTH 611 0
DWIDTH 8 0
BBX 7 9 1 0
BITMAP
ee
44
48
50
70
58
48
44
e6
ENDCHAR
STARTCHAR L
ENCODING 76
SWIDTH 520 0
DWIDTH 6 0
BBX 5 9 1 0
BITMAP
e0
40
40
40
40
40
48
48
f8
ENDCHAR
STARTCHAR M
ENCODING 77
SWIDTH 866 0
DWIDTH 11 0
BBX 10 9 1 0
BITMAP
e1c0
6180
7180
5280
5280
5a80
4c80
4c80
e9c0
ENDCHAR
STARTCHAR N
ENCODING 78
SWIDTH 713 0
DWIDTH 9 0
BBX 8 9 1 0
BITMAP
e700
6200
7200
5200
5a00
4a00
4600
4600
e200
ENDCHAR
STARTCHAR O
ENCODING 79
SWIDTH 731 0
DWIDTH 9 0
BBX 8 9 1 0
BITMAP
3c00
4200
8100
8100
8100
8100
8100
4200
3c00
ENDCHAR
STARTCHAR P
ENCODING 80
SWIDTH 558 0
DWIDTH 7 0
BBX 6 9 1 0
BITMAP
f8
4c
44
44
4c
78
40
40
e0
ENDCHAR
STARTCHAR Q
ENCODING 81
SWIDTH 731 0
DWIDTH 9 0
BBX 8 11 1 -2
BITMAP
3c00
4200
8100
8100
8100
8100
8100
4200
3c00
1800
0f00
ENDCHAR
STARTCHAR R
ENCODING 82
SWIDTH 646 0
DWIDTH 8 0
BBX 7 9 1 0
BITMAP
f8
44
44
4c
70
48
44
44
e2
ENDCHAR
STARTCHAR S
ENCODING 83
SWIDTH 556 0
DWIDTH 7 0
BBX 6 9 1 0
BITMAP
7c
c4
84
c0
78
0c
84
8c
f0
ENDCHAR
STARTCHAR T
ENCODING 84
SWIDTH 597 0
DWIDTH 7 0
BBX 7 9 0 0
BITMAP
fe
92
10
10
10
10
10
10
38
ENDCHAR
STARTCHAR U
ENCODING 85
SWIDTH 694 0
DWIDTH 9 0
BBX 8 9 1 0
BITMAP
e700
4200
4200
4200
4200
4200
4200
6400
3800
ENDCHAR
STARTCHAR V
ENCODING 86
SWIDTH 618 0
DWIDTH 8 0
BBX 9 9 0 0
BITMAP
e380
4100
6100
2200
3200
1200
1400
1c00
0800
ENDCHAR
STARTCHAR W
ENCODING 87
SWIDTH 928 0
DWIDTH 12 0
BBX 12 9 0 0
BITMAP
e270
4620
4620
6720
2940
2940
3940
1080
1080
ENDCHAR
STARTCHAR X
ENCODING 88
SWIDTH 600 0
DWIDTH 8 0
BBX 8 9 0 0
BITMAP
e700
6200
2400
1800
1800
1800
2400
4200
e700
ENDCHAR
STARTCHAR Y
ENCODING 89
SWIDTH 586 0
DWIDTH 8 0
BBX 8 9 0 0
BITMAP
f300
6200
2200
1400
1800
0800
0800
0800
1c00
ENDCHAR
STARTCHAR Z
ENCODING 90
SWIDTH 586 0
DWIDTH 7 0
BBX 6 9 0 0
BITMAP
fc
8c
08
10
30
20
44
c4
fc
ENDCHAR
STARTCHAR bracketleft
ENCODING 91
SWIDTH 421 0
DWIDTH 5 0
BBX 3 10 2 -2
BITMAP
e0
80
80
80
80
80
80
80
80
e0
ENDCHAR
STARTCHAR backslash
ENCODING 92
SWIDTH 481 0
DWIDTH 6 0
BBX 6 10 0 -1
BITMAP
80
40
40
20
20
10
10
08
08
04
ENDCHAR
STARTCHAR bracketright
ENCODING 93
SWIDTH 421 0
DWIDTH 5 0
BBX 3 10 0 -2
BITMAP
e0
20
20
20
20
20
20
20
20
e0
ENDCHAR
STARTCHAR asciicircum
ENCODING 94
SWIDTH 1000 0
DWIDTH 12 0
BBX 7 3 2 5
BITMAP
38
44
82
ENDCHAR
STARTCHAR underscore
ENCODING 95
SWIDTH 500 0
DWIDTH 6 0
BBX 6 1 0 -3
BITMAP
fc
ENDCHAR
STARTCHAR quoteleft
ENCODING 96
SWIDTH 201 0
DWIDTH 3 0
BBX 2 3 1 5
BITMAP
40
80
c0
ENDCHAR
STARTCHAR a
ENCODING 97
SWIDTH 507 0
DWIDTH 6 0
BBX 5 6 1 0
BITMAP
60
90
30
d0
90
78
ENDCHAR
STARTCHAR b
ENCODING 98
SWIDTH 539 0
DWIDTH 7 0
BBX 7 9 0 0
BITMAP
c0
40
40
7c
46
42
42
44
78
ENDCHAR
STARTCHAR c
ENCODING 99
SWIDTH 446 0
DWIDTH 6 0
BBX 5 6 1 0
BITMAP
30
48
80
80
c0
38
ENDCHAR
STARTCHAR d
ENCODING 100
SWIDTH 565 0
DWIDTH 8 0
BBX 7 9 1 0
BITMAP
0c
04
04
3c
44
84
84
cc
76
ENDCHAR
STARTCHAR e
ENCODING 101
SWIDTH 491 0
DWIDTH 6 0
BBX 5 6 1 0
BITMAP
70
88
f8
80
c8
78
ENDCHAR
STARTCHAR f
ENCODING 102
SWIDTH 321 0
DWIDTH 4 0
BBX 4 9 1 0
BITMAP
30
50
40
e0
40
40
40
40
e0
ENDCHAR
STARTCHAR g
ENCODING 103
SWIDTH 523 0
DWIDTH 7 0
BBX 6 9 1 -3
BITMAP
70
8c
88
70
40
78
8c
88
70
ENDCHAR
STARTCHAR h
ENCODING 104
SWIDTH 564 0
DWIDTH 6 0
BBX 6 9 0 0
BITMAP
c0
40
40
70
48
48
48
48
ec
ENDCHAR
STARTCHAR i
ENCODING 105
SWIDTH 280 0
DWIDTH 3 0
BBX 3 9 0 0
BITMAP
40
40
00
c0
40
40
40
40
e0
ENDCHAR
STARTCHAR j
ENCODING 106
SWIDTH 266 0
DWIDTH 3 0
BBX 3 12 -1 -3
BITMAP
20
20
00
60
20
20
20
20
20
20
a0
c0
ENDCHAR
STARTCHAR k
ENCODING 107
SWIDTH 518 0
DWIDTH 7 0
BBX 6 9 1 0
BITMAP
c0
40
40
4c
48
70
50
48
e4
ENDCHAR
STARTCHAR l
ENCODING 108
SWIDTH 282 0
DWIDTH 4 0
BBX 3 9 1 0
BITMAP
c0
40
40
40
40
40
40
40
e0
ENDCHAR
STARTCHAR m
ENCODING 109
SWIDTH 843 0
DWIDTH 9 0
BBX 9 6 0 0
BITMAP
ff00
4900
4900
4900
4900
ed80
ENDCHAR
STARTCHAR n
ENCODING 110
SWIDTH 569 0
DWIDTH 7 0
BBX 6 6 1 0
BITMAP
f8
48
48
48
48
ec
ENDCHAR
STARTCHAR o
ENCODING 111
SWIDTH 539 0
DWIDTH 7 0
BBX 6 6 1 0
BITMAP
30
4c
84
84
4c
30
ENDCHAR
STARTCHAR p
ENCODING 112
SWIDTH 551 0
DWIDTH 7 0
BBX 7 9 0 -3
BITMAP
fc
46
42
42
44
78
40
40
e0
ENDCHAR
STARTCHAR q
ENCODING 113
SWIDTH 531 0
DWIDTH 8 0
BBX 7 9 1 -3
BITMAP
3c
44
84
84
c4
7c
04
04
0e
ENDCHAR
STARTCHAR r
ENCODING 114
SWIDTH 382 0
DWIDTH 5 0
BBX 4 6 1 0
BITMAP
f0
40
40
40
40
e0
ENDCHAR
STARTCHAR s
ENCODING 115
SWIDTH 400 0
DWIDTH 5 0
BBX 4 6 1 0
BITMAP
70
90
c0
30
90
e0
ENDCHAR
STARTCHAR t
ENCODING 116
SWIDTH 335 0
DWIDTH 4 0
BBX 4 7 0 0
BITMAP
40
f0
40
40
40
40
70
ENDCHAR
STARTCHAR u
ENCODING 117
SWIDTH 569 0
DWIDTH 6 0
BBX 6 6 0 0
BITMAP
d8
48
48
48
48
3c
ENDCHAR
STARTCHAR v
ENCODING 118
SWIDTH 494 0
DWIDTH 6 0
BBX 6 6 0 0
BITMAP
cc
48
48
50
30
20
ENDCHAR
STARTCHAR w
ENCODING 119
SWIDTH 771 0
DWIDTH 10 0
BBX 10 6 0 0
BITMAP
c4c0
4c40
4e80
5280
3380
2100
ENDCHAR
STARTCHAR x
ENCODING 120
SWIDTH 504 0
DWIDTH 6 0
BBX 6 6 0 0
BITMAP
ec
48
30
30
48
dc
ENDCHAR
STARTCHAR y
ENCODING 121
SWIDTH 495 0
DWIDTH 6 0
BBX 6 9 0 -3
BITMAP
ec
48
48
28
30
30
20
20
c0
ENDCHAR
STARTCHAR z
ENCODING 122
SWIDTH 468 0
DWIDTH 6 0
BBX 5 6 1 0
BITMAP
f8
90
20
60
c8
f8
ENDCHAR
STARTCHAR braceleft
ENCODING 123
SWIDTH 486 0
DWIDTH 6 0
BBX 5 10 0 -2
BITMAP
18
20
20
20
c0
20
20
20
20
18
ENDCHAR
STARTCHAR bar
ENCODING 124
SWIDTH 500 0
DWIDTH 6 0
BBX 1 12 3 -3
BITMAP
80
80
80
80
80
80
80
80
80
80
80
80
ENDCHAR
STARTCHAR braceright
ENCODING 125
SWIDTH 486 0
DWIDTH 6 0
BBX 5 10 0 -2
BITMAP
c0
20
20
20
18
20
20
20
20
c0
ENDCHAR
STARTCHAR c0126
ENCODING 126
SWIDTH 1000 0
DWIDTH 12 0
BBX 8 2 2 5
BITMAP
7100
8e00
ENDCHAR
STARTCHAR space
ENCODING 160
SWIDTH 278 0
DWIDTH 3 0
BBX 1 1 0 0
BITMAP
00
ENDCHAR
STARTCHAR exclamdown
ENCODING 161
SWIDTH 338 0
DWIDTH 4 0
BBX 2 9 1 0
BITMAP
c0
c0
00
40
c0
c0
c0
c0
c0
ENDCHAR
STARTCHAR cent
ENCODING 162
SWIDTH 556 0
DWIDTH 7 0
BBX 5 8 1 -1
BITMAP
20
38
68
a0
a0
e8
38
20
ENDCHAR
STARTCHAR sterling
ENCODING 163
SWIDTH 556 0
DWIDTH 7 0
BBX 6 9 1 0
BITMAP
38
64
40
40
f8
40
40
40
fc
ENDCHAR
STARTCHAR currency
ENCODING 164
SWIDTH 606 0
DWIDTH 8 0
BBX 7 7 1 1
BITMAP
82
54
28
44
2c
54
82
ENDCHAR
STARTCHAR yen
ENCODING 165
SWIDTH 556 0
DWIDTH 7 0
BBX 7 9 0 0
BITMAP
e6
44
24
ee
10
fe
10
10
38
ENDCHAR
STARTCHAR brokenbar
ENCODING 166
SWIDTH 500 0
DWIDTH 6 0
BBX 1 10 3 -2
BITMAP
80
80
80
80
00
00
80
80
80
80
ENDCHAR
STARTCHAR section
ENCODING 167
SWIDTH 500 0
DWIDTH 6 0
BBX 5 10 1 -2
BITMAP
70
88
c0
70
88
88
70
18
88
70
ENDCHAR
STARTCHAR dieresis
ENCODING 168
SWIDTH 500 0
DWIDTH 6 0
BBX 3 1 1 7
BITMAP
a0
ENDCHAR
STARTCHAR copyright
ENCODING 169
SWIDTH 900 0
DWIDTH 11 0
BBX 9 9 1 0
BITMAP
1c00
2200
5d00
a480
a080
a480
5d00
2200
1c00
ENDCHAR
STARTCHAR ordfeminine
ENCODING 170
SWIDTH 380 0
DWIDTH 5 0
BBX 4 4 1 4
BITMAP
60
30
d0
70
ENDCHAR
STARTCHAR guillemotleft
ENCODING 171
SWIDTH 442 0
DWIDTH 6 0
BBX 5 4 0 1
BITMAP
48
90
90
48
ENDCHAR
STARTCHAR logicalnot
ENCODING 172
SWIDTH 833 0
DWIDTH 10 0
BBX 7 3 2 2
BITMAP
fe
02
02
ENDCHAR
STARTCHAR hyphen
ENCODING 173
SWIDTH 319 0
DWIDTH 4 0
BBX 3 1 1 2
BITMAP
e0
ENDCHAR
STARTCHAR registered
ENCODING 174
SWIDTH 900 0
DWIDTH 11 0
BBX 9 9 1 0
BITMAP
1c00
2200
7900
9480
9880
9480
7700
2200
1c00
ENDCHAR
STARTCHAR macron
ENCODING 175
SWIDTH 500 0
DWIDTH 6 0
BBX 4 1 1 7
BITMAP
f0
ENDCHAR
STARTCHAR degree
ENCODING 176
SWIDTH 329 0
DWIDTH 4 0
BBX 3 3 1 5
BITMAP
40
a0
40
ENDCHAR
STARTCHAR plusminus
ENCODING 177
SWIDTH 833 0
DWIDTH 10 0
BBX 7 7 2 0
BITMAP
10
10
fe
10
10
00
fe
ENDCHAR
STARTCHAR twosuperior
ENCODING 178
SWIDTH 367 0
DWIDTH 5 0
BBX 4 5 1 4
BITMAP
60
90
30
40
f0
ENDCHAR
STARTCHAR threesuperior
ENCODING 179
SWIDTH 367 0
DWIDTH 5 0
BBX 4 5 1 4
BITMAP
e0
30
60
10
e0
ENDCHAR
STARTCHAR acute
ENCODING 180
SWIDTH 500 0
DWIDTH 6 0
BBX 2 2 3 7
BITMAP
40
80
ENDCHAR
STARTCHAR mu
ENCODING 181
SWIDTH 548 0
DWIDTH 7 0
BBX 7 8 0 -3
BITMAP
44
48
48
4a
b4
80
80
80
ENDCHAR
STARTCHAR paragraph
ENCODING 182
SWIDTH 484 0
DWIDTH 6 0
BBX 6 10 0 -1
BITMAP
7c
e8
e8
e8
68
08
08
08
08
08
ENDCHAR
STARTCHAR periodcentered
ENCODING 183
SWIDTH 278 0
DWIDTH 3 0
BBX 2 2 1 3
BITMAP
c0
c0
ENDCHAR
STARTCHAR cedilla
ENCODING 184
SWIDTH 500 0
DWIDTH 6 0
BBX 3 3 2 -3
BITMAP
60
20
c0
ENDCHAR
STARTCHAR onesuperior
ENCODING 185
SWIDTH 367 0
DWIDTH 4 0
BBX 1 5 2 4
BITMAP
80
80
80
80
80
ENDCHAR
STARTCHAR ordmasculine
ENCODING 186
SWIDTH 405 0
DWIDTH 5 0
BBX 4 4 1 4
BITMAP
60
90
90
60
ENDCHAR
STARTCHAR guillemotright
ENCODING 187
SWIDTH 442 0
DWIDTH 6 0
BBX 5 4 1 1
BITMAP
90
48
48
90
ENDCHAR
STARTCHAR onequarter
ENCODING 188
SWIDTH 867 0
DWIDTH 10 0
BBX 8 9 2 0
BITMAP
8400
8800
8800
9000
9200
2600
4a00
4f00
8200
ENDCHAR
STARTCHAR onehalf
ENCODING 189
SWIDTH 867 0
DWIDTH 10 0
BBX 8 9 2 0
BITMAP
8400
8800
8800
9000
9600
2900
4300
4400
8f00
ENDCHAR
STARTCHAR threequarters
ENCODING 190
SWIDTH 867 0
DWIDTH 10 0
BBX 10 9 0 0
BITMAP
e100
3200
6200
1400
e480
0980
1280
13c0
2080
ENDCHAR
STARTCHAR questiondown
ENCODING 191
SWIDTH 486 0
DWIDTH 6 0
BBX 5 9 0 0
BITMAP
30
30
00
10
20
c0
80
c8
70
ENDCHAR
STARTCHAR Agrave
ENCODING 192
SWIDTH 639 0
DWIDTH 8 0
BBX 8 12 0 0
BITMAP
2000
1000
0000
1000
3800
2800
2800
4400
7c00
4600
4200
c700
ENDCHAR
STARTCHAR Aacute
ENCODING 193
SWIDTH 639 0
DWIDTH 8 0
BBX 8 12 0 0
BITMAP
0400
0800
0000
1000
3800
2800
2800
4400
7c00
4600
4200
c700
ENDCHAR
STARTCHAR Acircumflex
ENCODING 194
SWIDTH 639 0
DWIDTH 8 0
BBX 8 12 0 0
BITMAP
0800
1400
0000
1000
3800
2800
2800
4400
7c00
4600
4200
c700
ENDCHAR
STARTCHAR Atilde
ENCODING 195
SWIDTH 639 0
DWIDTH 8 0
BBX 8 11 0 0
BITMAP
1400
2c00
1000
3800
2800
2800
4400
7c00
4600
4200
c700
ENDCHAR
STARTCHAR Adieresis
ENCODING 196
SWIDTH 639 0
DWIDTH 8 0
BBX 8 11 0 0
BITMAP
2800
0000
1000
3800
2800
2800
4400
7c00
4600
4200
c700
ENDCHAR
STARTCHAR Aring
ENCODING 197
SWIDTH 639 0
DWIDTH 8 0
BBX 8 12 0 0
BITMAP
3800
3800
0000
1000
3800
2800
2800
4400
7c00
4600
4200
c700
ENDCHAR
STARTCHAR AE
ENCODING 198
SWIDTH 866 0
DWIDTH 10 0
BBX 11 9 -1 0
BITMAP
0fe0
0620
0a00
1240
13c0
3e40
2200
4220
c7e0
ENDCHAR
STARTCHAR Ccedilla
ENCODING 199
SWIDTH 632 0
DWIDTH 8 0
BBX 7 12 1 -3
BITMAP
3c
42
82
80
80
80
c2
42
3c
0c
04
18
ENDCHAR
STARTCHAR Egrave
ENCODING 200
SWIDTH 576 0
DWIDTH 7 0
BBX 6 12 1 0
BITMAP
40
20
00
fc
44
40
48
78
48
40
44
fc
ENDCHAR
STARTCHAR Eacute
ENCODING 201
SWIDTH 576 0
DWIDTH 7 0
BBX 6 12 1 0
BITMAP
08
10
00
fc
44
40
48
78
48
40
44
fc
ENDCHAR
STARTCHAR Ecircumflex
ENCODING 202
SWIDTH 576 0
DWIDTH 7 0
BBX 6 12 1 0
BITMAP
10
28
00
fc
44
40
48
78
48
40
44
fc
ENDCHAR
STARTCHAR Edieresis
ENCODING 203
SWIDTH 576 0
DWIDTH 7 0
BBX 6 11 1 0
BITMAP
50
00
fc
44
40
48
78
48
40
44
fc
ENDCHAR
STARTCHAR Igrave
ENCODING 204
SWIDTH 324 0
DWIDTH 4 0
BBX 4 12 0 0
BITMAP
80
40
00
70
20
20
20
20
20
20
20
70
ENDCHAR
STARTCHAR Iacute
ENCODING 205
SWIDTH 324 0
DWIDTH 4 0
BBX 3 12 1 0
BITMAP
20
40
00
e0
40
40
40
40
40
40
40
e0
ENDCHAR
STARTCHAR Icircumflex
ENCODING 206
SWIDTH 324 0
DWIDTH 4 0
BBX 3 12 1 0
BITMAP
40
a0
00
e0
40
40
40
40
40
40
40
e0
ENDCHAR
STARTCHAR Idieresis
ENCODING 207
SWIDTH 324 0
DWIDTH 4 0
BBX 4 11 0 0
BITMAP
a0
00
70
20
20
20
20
20
20
20
70
ENDCHAR
STARTCHAR Eth
ENCODING 208
SWIDTH 694 0
DWIDTH 9 0
BBX 9 9 0 0
BITMAP
7c00
2300
2180
2080
f880
2080
2080
2300
7c00
ENDCHAR
STARTCHAR Ntilde
ENCODING 209
SWIDTH 713 0
DWIDTH 9 0
BBX 8 11 1 0
BITMAP
1400
2c00
e700
6200
7200
5200
5a00
4a00
4600
4600
e200
ENDCHAR
STARTCHAR Ograve
ENCODING 210
SWIDTH 731 0
DWIDTH 9 0
BBX 8 12 1 0
BITMAP
2000
1000
0000
3c00
4200
8100
8100
8100
8100
8100
4200
3c00
ENDCHAR
STARTCHAR Oacute
ENCODING 211
SWIDTH 731 0
DWIDTH 9 0
BBX 8 12 1 0
BITMAP
0400
0800
0000
3c00
4200
8100
8100
8100
8100
8100
4200
3c00
ENDCHAR
STARTCHAR Ocircumflex
ENCODING 212
SWIDTH 731 0
DWIDTH 9 0
BBX 8 12 1 0
BITMAP
0800
1400
0000
3c00
4200
8100
8100
8100
8100
8100
4200
3c00
ENDCHAR
STARTCHAR Otilde
ENCODING 213
SWIDTH 731 0
DWIDTH 9 0
BBX 8 11 1 0
BITMAP
1400
2c00
3c00
4200
8100
8100
8100
8100
8100
4200
3c00
ENDCHAR
STARTCHAR Odieresis
ENCODING 214
SWIDTH 731 0
DWIDTH 9 0
BBX 8 11 1 0
BITMAP
2800
0000
3c00
4200
8100
8100
8100
8100
8100
4200
3c00
ENDCHAR
STARTCHAR multiply
ENCODING 215
SWIDTH 833 0
DWIDTH 10 0
BBX 7 7 2 0
BITMAP
82
44
28
10
28
44
82
ENDCHAR
STARTCHAR Oslash
ENCODING 216
SWIDTH 731 0
DWIDTH 9 0
BBX 8 10 1 -1
BITMAP
3e00
4200
8500
8900
9100
9100
a100
4200
7c00
8000
ENDCHAR
STARTCHAR Ugrave
ENCODING 217
SWIDTH 694 0
DWIDTH 9 0
BBX 8 12 1 0
BITMAP
2000
1000
0000
e700
4200
4200
4200
4200
4200
4200
6400
3800
ENDCHAR
STARTCHAR Uacute
ENCODING 218
SWIDTH 694 0
DWIDTH 9 0
BBX 8 12 1 0
BITMAP
0400
0800
0000
e700
4200
4200
4200
4200
4200
4200
6400
3800
ENDCHAR
STARTCHAR Ucircumflex
ENCODING 219
SWIDTH 694 0
DWIDTH 9 0
BBX 8 12 1 0
BITMAP
0800
1400
0000
e700
4200
4200
4200
4200
4200
4200
6400
3800
ENDCHAR
STARTCHAR Udieresis
ENCODING 220
SWIDTH 694 0
DWIDTH 9 0
BBX 8 11 1 0
BITMAP
2800
0000
e700
4200
4200
4200
4200
4200
4200
6400
3800
ENDCHAR
STARTCHAR Yacute
ENCODING 221
SWIDTH 586 0
DWIDTH 8 0
BBX 8 12 0 0
BITMAP
0400
0800
0000
f300
6200
2200
1400
1800
0800
0800
0800
1c00
ENDCHAR
STARTCHAR Thorn
ENCODING 222
SWIDTH 558 0
DWIDTH 7 0
BBX 6 9 1 0
BITMAP
e0
78
4c
44
44
4c
78
40
e0
ENDCHAR
STARTCHAR germandbls
ENCODING 223
SWIDTH 609 0
DWIDTH 8 0
BBX 8 9 0 0
BITMAP
1c00
2600
4200
4c00
4800
4e00
4100
4900
ee00
ENDCHAR
STARTCHAR agrave
ENCODING 224
SWIDTH 507 0
DWIDTH 6 0
BBX 5 9 1 0
BITMAP
80
40
00
60
90
30
d0
90
78
ENDCHAR
STARTCHAR aacute
ENCODING 225
SWIDTH 507 0
DWIDTH 6 0
BBX 5 9 1 0
BITMAP
10
20
00
60
90
30
d0
90
78
ENDCHAR
STARTCHAR acircumflex
ENCODING 226
SWIDTH 507 0
DWIDTH 6 0
BBX 5 9 1 0
BITMAP
20
50
00
60
90
30
d0
90
78
ENDCHAR
STARTCHAR atilde
ENCODING 227
SWIDTH 507 0
DWIDTH 6 0
BBX 5 8 1 0
BITMAP
50
b0
60
90
30
d0
90
78
ENDCHAR
STARTCHAR adieresis
ENCODING 228
SWIDTH 507 0
DWIDTH 6 0
BBX 5 8 1 0
BITMAP
a0
00
60
90
30
d0
90
78
ENDCHAR
STARTCHAR aring
ENCODING 229
SWIDTH 507 0
DWIDTH 6 0
BBX 5 10 1 0
BITMAP
20
50
20
00
60
90
30
d0
90
78
ENDCHAR
STARTCHAR ae
ENCODING 230
SWIDTH 725 0
DWIDTH 9 0
BBX 8 6 1 0
BITMAP
7600
c900
3f00
c800
8900
7700
ENDCHAR
STARTCHAR ccedilla
ENCODING 231
SWIDTH 446 0
DWIDTH 6 0
BBX 5 9 1 -3
BITMAP
30
48
80
80
c0
38
30
10
60
ENDCHAR
STARTCHAR egrave
ENCODING 232
SWIDTH 491 0
DWIDTH 6 0
BBX 5 9 1 0
BITMAP
80
40
00
70
88
f8
80
c8
78
ENDCHAR
STARTCHAR eacute
ENCODING 233
SWIDTH 491 0
DWIDTH 6 0
BBX 5 9 1 0
BITMAP
10
20
00
70
88
f8
80
c8
78
ENDCHAR
STARTCHAR ecircumflex
ENCODING 234
SWIDTH 491 0
DWIDTH 6 0
BBX 5 9 1 0
BITMAP
20
50
00
70
88
f8
80
c8
78
ENDCHAR
STARTCHAR edieresis
ENCODING 235
SWIDTH 491 0
DWIDTH 6 0
BBX 5 8 1 0
BITMAP
a0
00
70
88
f8
80
c8
78
ENDCHAR
STARTCHAR igrave
ENCODING 236
SWIDTH 280 0
DWIDTH 3 0
BBX 3 9 0 0
BITMAP
80
40
00
c0
40
40
40
40
e0
ENDCHAR
STARTCHAR iacute
ENCODING 237
SWIDTH 280 0
DWIDTH 3 0
BBX 4 9 0 0
BITMAP
10
20
00
c0
40
40
40
40
e0
ENDCHAR
STARTCHAR icircumflex
ENCODING 238
SWIDTH 280 0
DWIDTH 3 0
BBX 4 9 0 0
BITMAP
20
50
00
c0
40
40
40
40
e0
ENDCHAR
STARTCHAR idieresis
ENCODING 239
SWIDTH 280 0
DWIDTH 3 0
BBX 3 8 0 0
BITMAP
a0
00
c0
40
40
40
40
e0
ENDCHAR
STARTCHAR eth
ENCODING 240
SWIDTH 528 0
DWIDTH 7 0
BBX 6 9 1 0
BITMAP
68
30
48
38
44
84
84
48
30
ENDCHAR
STARTCHAR ntilde
ENCODING 241
SWIDTH 569 0
DWIDTH 7 0
BBX 6 8 1 0
BITMAP
28
58
f8
48
48
48
48
ec
ENDCHAR
STARTCHAR ograve
ENCODING 242
SWIDTH 539 0
DWIDTH 7 0
BBX 6 9 1 0
BITMAP
40
20
00
30
4c
84
84
4c
30
ENDCHAR
STARTCHAR oacute
ENCODING 243
SWIDTH 539 0
DWIDTH 7 0
BBX 6 9 1 0
BITMAP
08
10
00
30
4c
84
84
4c
30
ENDCHAR
STARTCHAR ocircumflex
ENCODING 244
SWIDTH 539 0
DWIDTH 7 0
BBX 6 9 1 0
BITMAP
10
28
00
30
4c
84
84
4c
30
ENDCHAR
STARTCHAR otilde
ENCODING 245
SWIDTH 539 0
DWIDTH 7 0
BBX 6 8 1 0
BITMAP
28
58
30
4c
84
84
4c
30
ENDCHAR
STARTCHAR odieresis
ENCODING 246
SWIDTH 539 0
DWIDTH 7 0
BBX 6 8 1 0
BITMAP
50
00
30
4c
84
84
4c
30
ENDCHAR
STARTCHAR divide
ENCODING 247
SWIDTH 833 0
DWIDTH 10 0
BBX 7 5 2 1
BITMAP
10
00
fe
00
10
ENDCHAR
STARTCHAR oslash
ENCODING 248
SWIDTH 539 0
DWIDTH 7 0
BBX 6 8 1 -1
BITMAP
04
38
48
94
a4
48
70
80
ENDCHAR
STARTCHAR ugrave
ENCODING 249
SWIDTH 569 0
DWIDTH 6 0
BBX 6 9 0 0
BITMAP
40
20
00
d8
48
48
48
48
3c
ENDCHAR
STARTCHAR uacute
ENCODING 250
SWIDTH 569 0
DWIDTH 6 0
BBX 6 9 0 0
BITMAP
08
10
00
d8
48
48
48
48
3c
ENDCHAR
STARTCHAR ucircumflex
ENCODING 251
SWIDTH 569 0
DWIDTH 6 0
BBX 6 9 0 0
BITMAP
10
28
00
d8
48
48
48
48
3c
ENDCHAR
STARTCHAR udieresis
ENCODING 252
SWIDTH 569 0
DWIDTH 6 0
BBX 6 8 0 0
BITMAP
50
00
d8
48
48
48
48
3c
ENDCHAR
STARTCHAR yacute
ENCODING 253
SWIDTH 495 0
DWIDTH 6 0
BBX 6 12 0 -3
BITMAP
08
10
00
ec
48
48
28
30
30
20
20
c0
ENDCHAR
STARTCHAR thorn
ENCODING 254
SWIDTH 551 0
DWIDTH 8 0
BBX 7 12 1 -3
BITMAP
c0
40
40
7c
46
42
42
44
78
40
40
e0
ENDCHAR
STARTCHAR ydieresis
ENCODING 255
SWIDTH 495 0
DWIDTH 6 0
BBX 6 11 0 -3
BITMAP
50
00
ec
48
48
28
30
30
20
20
c0
ENDCHAR
ENDFONT
