STARTFONT 2.1
COMMENT  
COMMENT  Copyright 1988 Bitstream, Inc., Cambridge, Massachusetts, USA
COMMENT  Bitstream and Charter are registered trademarks of Bitstream, Inc.
COMMENT  
COMMENT  The names "Bitstream" and "Charter" are registered trademarks of
COMMENT  Bitstream, Inc.  Permission to use these trademarks is hereby
COMMENT  granted only in association with the images described in this file.
COMMENT  
COMMENT  Permission to use, copy, modify, and distribute this software and
COMMENT  its documentation for any purpose and without fee is hereby
COMMENT  granted, provided that the above copyright notice appear in all
COMMENT  copies and that both that copyright notice and this permission
COMMENT  notice appear in supporting documentation, and that the name of
COMMENT  Bitstream not be used in advertising or publicity pertaining to
COMMENT  distribution of the software without specific, written prior
COMMENT  permission.  Bitstream makes no representations about the
COMMENT  suitability of this software for any purpose.  It is provided "as
COMMENT  is" without express or implied warranty.
COMMENT  
COMMENT  BITSTREAM DISCLAIMS ALL WARRANTIES WITH REGARD TO THIS SOFTWARE,
COMMENT  INCLUDING ALL IMPLIED WARRANTIES OF MERCHANTABILITY AND FITNESS, IN
COMMENT  NO EVENT SHALL BITSTREAM BE LIABLE FOR ANY SPECIAL, INDIRECT OR
COMMENT  CONSEQUENTIAL DAMAGES OR ANY DAMAGES WHATSOEVER RESULTING FROM LOSS
COMMENT  OF USE, DATA OR PROFITS, WHETHER IN AN ACTION OF CONTRACT,
COMMENT  NEGLIGENCE OR OTHER TORTIOUS ACTION, ARISING OUT OF OR IN
COMMENT  CONNECTION WITH THE USE OR PERFORMANCE OF THIS SOFTWARE.
COMMENT  
COMMENT  
COMMENT Fontware CVTBDF v1.0
FONT -Bitstream-Charter-Bold-R-Normal--12-120-75-75-P-75-ISO8859-1
SIZE 12 75 75
FONTBOUNDINGBOX 14 15 -1 -3
STARTPROPERTIES 22
COMMENT Begin LogicalFontDescription
FONTNAME_REGISTRY ""
FAMILY_NAME "Charter"
FOUNDRY "Bitstream"
WEIGHT_NAME "Bold"
SETWIDTH_NAME "Normal"
SLANT "R"
ADD_STYLE_NAME ""
PIXEL_SIZE 12
POINT_SIZE 120
RESOLUTION_X 75
RESOLUTION_Y 75
SPACING "P"
AVERAGE_WIDTH 75
CHARSET_REGISTRY "ISO8859"
CHARSET_ENCODING "1"
COMMENT END LogicalFontDescription
FONT_DESCENT 3
FONT_ASCENT 12
CAP_HEIGHT 9
X_HEIGHT 6
CHARSET_COLLECTIONS "ASCII ISOLATIN1"
FULL_NAME "Bitstream Charter Black"
COPYRIGHT "Copyright 1987 by Bitstream Inc. Charter Registered trademark of Bitstream Inc."
COMMENT ****** end of font properties
ENDPROPERTIES
CHARS 191
STARTCHAR space
ENCODING 32
SWIDTH 322 0
DWIDTH 4 0
BBX 1 1 0 0
BITMAP
00
ENDCHAR
STARTCHAR exclam
ENCODING 33
SWIDTH 343 0
DWIDTH 4 0
BBX 2 9 1 0
BITMAP
c0
c0
c0
c0
c0
40
00
c0
c0
ENDCHAR
STARTCHAR quotedbl
ENCODING 34
SWIDTH 339 0
DWIDTH 5 0
BBX 3 4 1 4
BITMAP
a0
a0
a0
a0
ENDCHAR
STARTCHAR numbersign
ENCODING 35
SWIDTH 769 0
DWIDTH 10 0
BBX 8 9 1 -1
BITMAP
0a00
1200
1600
7f00
2400
fe00
2800
4800
5000
ENDCHAR
STARTCHAR dollar
ENCODING 36
SWIDTH 644 0
DWIDTH 8 0
BBX 7 10 1 -1
BITMAP
7c
d4
d4
f0
7c
1e
96
96
f8
10
ENDCHAR
STARTCHAR percent
ENCODING 37
SWIDTH 972 0
DWIDTH 12 0
BBX 10 8 1 0
BITMAP
6100
9200
9400
9580
6a40
0a40
1240
2180
ENDCHAR
STARTCHAR ampersand
ENCODING 38
SWIDTH 822 0
DWIDTH 10 0
BBX 9 9 1 0
BITMAP
3c00
6600
7600
7d80
7d00
cf00
c600
f700
7980
ENDCHAR
STARTCHAR quoteright
ENCODING 39
SWIDTH 331 0
DWIDTH 4 0
BBX 2 4 1 4
BITMAP
c0
c0
40
80
ENDCHAR
STARTCHAR parenleft
ENCODING 40
SWIDTH 440 0
DWIDTH 5 0
BBX 4 10 1 -2
BITMAP
30
60
c0
c0
c0
c0
c0
c0
60
30
ENDCHAR
STARTCHAR parenright
ENCODING 41
SWIDTH 440 0
DWIDTH 5 0
BBX 4 10 0 -2
BITMAP
c0
60
30
30
30
30
30
30
60
c0
ENDCHAR
STARTCHAR asterisk
ENCODING 42
SWIDTH 500 0
DWIDTH 6 0
BBX 5 4 0 4
BITMAP
20
f8
20
50
ENDCHAR
STARTCHAR plus
ENCODING 43
SWIDTH 833 0
DWIDTH 10 0
BBX 7 7 2 0
BITMAP
10
10
10
fe
10
10
10
ENDCHAR
STARTCHAR comma
ENCODING 44
SWIDTH 322 0
DWIDTH 4 0
BBX 2 4 1 -2
BITMAP
c0
c0
40
80
ENDCHAR
STARTCHAR hyphen
ENCODING 45
SWIDTH 333 0
DWIDTH 4 0
BBX 3 1 1 2
BITMAP
e0
ENDCHAR
STARTCHAR period
ENCODING 46
SWIDTH 322 0
DWIDTH 4 0
BBX 2 2 1 0
BITMAP
c0
c0
ENDCHAR
STARTCHAR slash
ENCODING 47
SWIDTH 500 0
DWIDTH 7 0
BBX 7 10 0 -1
BITMAP
02
04
0c
08
10
10
20
60
40
c0
ENDCHAR
STARTCHAR zero
ENCODING 48
SWIDTH 644 0
DWIDTH 8 0
BBX 7 9 1 0
BITMAP
38
6c
c6
c6
c6
c6
c6
6c
38
ENDCHAR
STARTCHAR one
ENCODING 49
SWIDTH 644 0
DWIDTH 8 0
BBX 4 9 3 0
BITMAP
60
e0
60
60
60
60
60
60
f0
ENDCHAR
STARTCHAR two
ENCODING 50
SWIDTH 644 0
DWIDTH 8 0
BBX 6 9 1 0
BITMAP
78
cc
cc
0c
18
30
64
fc
fc
ENDCHAR
STARTCHAR three
ENCODING 51
SWIDTH 644 0
DWIDTH 8 0
BBX 7 9 1 0
BITMAP
7c
ce
c6
0c
38
06
c6
ce
7c
ENDCHAR
STARTCHAR four
ENCODING 52
SWIDTH 644 0
DWIDTH 8 0
BBX 7 9 1 0
BITMAP
0c
1c
3c
2c
4c
cc
fe
0c
0c
ENDCHAR
STARTCHAR five
ENCODING 53
SWIDTH 644 0
DWIDTH 8 0
BBX 7 9 1 0
BITMAP
fc
fc
c0
fc
0e
06
c6
cc
f8
ENDCHAR
STARTCHAR six
ENCODING 54
SWIDTH 644 0
DWIDTH 8 0
BBX 7 9 1 0
BITMAP
1c
70
60
fc
ce
c6
c6
66
3c
ENDCHAR
STARTCHAR seven
ENCODING 55
SWIDTH 644 0
DWIDTH 8 0
BBX 7 9 1 0
BITMAP
fe
fe
84
0c
08
18
30
20
60
ENDCHAR
STARTCHAR eight
ENCODING 56
SWIDTH 644 0
DWIDTH 8 0
BBX 7 9 1 0
BITMAP
3c
6c
e6
74
3c
ce
c6
e6
7c
ENDCHAR
STARTCHAR nine
ENCODING 57
SWIDTH 644 0
DWIDTH 8 0
BBX 7 9 1 0
BITMAP
38
6c
c6
c6
e6
7e
0c
18
60
ENDCHAR
STARTCHAR colon
ENCODING 58
SWIDTH 387 0
DWIDTH 5 0
BBX 2 6 2 0
BITMAP
c0
c0
00
00
c0
c0
ENDCHAR
STARTCHAR semicolon
ENCODING 59
SWIDTH 387 0
DWIDTH 5 0
BBX 3 8 1 -2
BITMAP
60
60
00
00
60
60
20
40
ENDCHAR
STARTCHAR less
ENCODING 60
SWIDTH 833 0
DWIDTH 10 0
BBX 7 7 1 0
BITMAP
02
0c
70
80
70
0c
02
ENDCHAR
STARTCHAR equal
ENCODING 61
SWIDTH 833 0
DWIDTH 10 0
BBX 7 3 2 2
BITMAP
fe
00
fe
ENDCHAR
STARTCHAR greater
ENCODING 62
SWIDTH 833 0
DWIDTH 10 0
BBX 7 7 2 0
BITMAP
80
70
1c
02
1c
70
80
ENDCHAR
STARTCHAR question
ENCODING 63
SWIDTH 519 0
DWIDTH 6 0
BBX 6 9 0 0
BITMAP
78
ec
cc
0c
18
20
00
30
30
ENDCHAR
STARTCHAR at
ENCODING 64
SWIDTH 942 0
DWIDTH 12 0
BBX 10 10 1 -2
BITMAP
1f00
6080
4f40
9a40
b240
b680
9b00
4000
2180
1e00
ENDCHAR
STARTCHAR A
ENCODING 65
SWIDTH 701 0
DWIDTH 9 0
BBX 9 9 0 0
BITMAP
0c00
1c00
1600
1600
2600
3f00
6300
4300
e380
ENDCHAR
STARTCHAR B
ENCODING 66
SWIDTH 690 0
DWIDTH 9 0
BBX 8 9 1 0
BITMAP
fe00
6600
6700
6600
7e00
6700
6300
6700
fe00
ENDCHAR
STARTCHAR C
ENCODING 67
SWIDTH 683 0
DWIDTH 9 0
BBX 8 9 1 0
BITMAP
3f00
7100
e100
c000
c000
c000
e100
7100
3f00
ENDCHAR
STARTCHAR D
ENCODING 68
SWIDTH 780 0
DWIDTH 10 0
BBX 9 9 1 0
BITMAP
fe00
6300
6180
6180
6180
6180
6180
6700
fe00
ENDCHAR
STARTCHAR E
ENCODING 69
SWIDTH 653 0
DWIDTH 8 0
BBX 7 9 1 0
BITMAP
fe
62
60
64
7c
64
62
62
fe
ENDCHAR
STARTCHAR F
ENCODING 70
SWIDTH 602 0
DWIDTH 8 0
BBX 7 9 1 0
BITMAP
fe
62
60
64
7c
64
60
60
f0
ENDCHAR
STARTCHAR G
ENCODING 71
SWIDTH 766 0
DWIDTH 10 0
BBX 9 9 1 0
BITMAP
3f00
7100
e100
c000
c780
c300
e300
7300
3f00
ENDCHAR
STARTCHAR H
ENCODING 72
SWIDTH 824 0
DWIDTH 10 0
BBX 9 9 1 0
BITMAP
f780
6300
6300
6300
7f00
6300
6300
6300
f780
ENDCHAR
STARTCHAR I
ENCODING 73
SWIDTH 410 0
DWIDTH 5 0
BBX 4 9 1 0
BITMAP
f0
60
60
60
60
60
60
60
f0
ENDCHAR
STARTCHAR J
ENCODING 74
SWIDTH 516 0
DWIDTH 6 0
BBX 6 9 0 0
BITMAP
3c
18
18
18
18
18
98
98
f0
ENDCHAR
STARTCHAR K
ENCODING 75
SWIDTH 727 0
DWIDTH 9 0
BBX 8 9 1 0
BITMAP
f700
6200
6400
6800
7800
6c00
6e00
6600
f700
ENDCHAR
STARTCHAR L
ENCODING 76
SWIDTH 600 0
DWIDTH 7 0
BBX 6 9 1 0
BITMAP
f0
60
60
60
60
60
64
64
fc
ENDCHAR
STARTCHAR M
ENCODING 77
SWIDTH 961 0
DWIDTH 12 0
BBX 11 9 1 0
BITMAP
f1e0
71c0
71c0
5ac0
5ac0
5ac0
4cc0
4cc0
ede0
ENDCHAR
STARTCHAR N
ENCODING 78
SWIDTH 782 0
DWIDTH 10 0
BBX 9 9 1 0
BITMAP
e380
7100
7900
5900
5d00
4f00
4700
4700
e300
ENDCHAR
STARTCHAR O
ENCODING 79
SWIDTH 815 0
DWIDTH 10 0
BBX 9 9 1 0
BITMAP
3e00
6300
c180
c180
c180
c180
c180
6300
3e00
ENDCHAR
STARTCHAR P
ENCODING 80
SWIDTH 653 0
DWIDTH 8 0
BBX 7 9 1 0
BITMAP
fc
6e
66
66
6e
7c
60
60
f0
ENDCHAR
STARTCHAR Q
ENCODING 81
SWIDTH 815 0
DWIDTH 10 0
BBX 9 11 1 -2
BITMAP
3e00
6300
c180
c180
c180
c180
c180
6300
3e00
1c00
0f80
ENDCHAR
STARTCHAR R
ENCODING 82
SWIDTH 736 0
DWIDTH 9 0
BBX 8 9 1 0
BITMAP
fc00
6600
6600
6600
7800
6c00
6600
6600
f300
ENDCHAR
STARTCHAR S
ENCODING 83
SWIDTH 616 0
DWIDTH 8 0
BBX 7 9 1 0
BITMAP
7e
c6
c2
f0
7c
1e
86
86
fc
ENDCHAR
STARTCHAR T
ENCODING 84
SWIDTH 646 0
DWIDTH 8 0
BBX 8 9 0 0
BITMAP
ff00
9900
9900
1800
1800
1800
1800
1800
3c00
ENDCHAR
STARTCHAR U
ENCODING 85
SWIDTH 757 0
DWIDTH 10 0
BBX 9 9 1 0
BITMAP
f780
6300
6300
6300
6300
6300
6300
7200
3c00
ENDCHAR
STARTCHAR V
ENCODING 86
SWIDTH 690 0
DWIDTH 9 0
BBX 9 9 0 0
BITMAP
f380
6100
7100
3100
3a00
1a00
1e00
1c00
0c00
ENDCHAR
STARTCHAR W
ENCODING 87
SWIDTH 1014 0
DWIDTH 13 0
BBX 13 9 0 0
BITMAP
f338
6310
7310
35a0
35a0
35a0
3de0
18c0
18c0
ENDCHAR
STARTCHAR X
ENCODING 88
SWIDTH 713 0
DWIDTH 9 0
BBX 9 9 0 0
BITMAP
f380
7300
3200
1c00
1c00
1c00
2600
6700
e780
ENDCHAR
STARTCHAR Y
ENCODING 89
SWIDTH 671 0
DWIDTH 8 0
BBX 8 9 0 0
BITMAP
f700
6200
7400
3400
3800
1800
1800
1800
3c00
ENDCHAR
STARTCHAR Z
ENCODING 90
SWIDTH 634 0
DWIDTH 8 0
BBX 7 9 0 0
BITMAP
fe
ce
9c
18
38
30
62
e2
fe
ENDCHAR
STARTCHAR bracketleft
ENCODING 91
SWIDTH 495 0
DWIDTH 6 0
BBX 4 10 2 -2
BITMAP
f0
c0
c0
c0
c0
c0
c0
c0
c0
f0
ENDCHAR
STARTCHAR backslash
ENCODING 92
SWIDTH 500 0
DWIDTH 7 0
BBX 7 10 0 -1
BITMAP
80
40
60
20
10
10
08
08
04
06
ENDCHAR
STARTCHAR bracketright
ENCODING 93
SWIDTH 495 0
DWIDTH 6 0
BBX 4 10 0 -2
BITMAP
f0
30
30
30
30
30
30
30
30
f0
ENDCHAR
STARTCHAR asciicircum
ENCODING 94
SWIDTH 1000 0
DWIDTH 12 0
BBX 7 3 2 5
BITMAP
38
6c
82
ENDCHAR
STARTCHAR underscore
ENCODING 95
SWIDTH 500 0
DWIDTH 6 0
BBX 6 1 0 -3
BITMAP
fc
ENDCHAR
STARTCHAR quoteleft
ENCODING 96
SWIDTH 331 0
DWIDTH 4 0
BBX 2 4 1 4
BITMAP
40
80
c0
c0
ENDCHAR
STARTCHAR a
ENCODING 97
SWIDTH 616 0
DWIDTH 8 0
BBX 7 6 1 0
BITMAP
78
cc
3c
cc
dc
ee
ENDCHAR
STARTCHAR b
ENCODING 98
SWIDTH 650 0
DWIDTH 8 0
BBX 8 9 0 0
BITMAP
e000
6000
6000
7e00
6700
6300
6300
6600
7c00
ENDCHAR
STARTCHAR c
ENCODING 99
SWIDTH 537 0
DWIDTH 7 0
BBX 6 6 1 0
BITMAP
38
6c
cc
c0
e0
7c
ENDCHAR
STARTCHAR d
ENCODING 100
SWIDTH 664 0
DWIDTH 9 0
BBX 8 9 1 0
BITMAP
0e00
0600
0600
7e00
e600
c600
c600
fe00
7700
ENDCHAR
STARTCHAR e
ENCODING 101
SWIDTH 590 0
DWIDTH 7 0
BBX 6 6 1 0
BITMAP
38
cc
fc
c0
e4
7c
ENDCHAR
STARTCHAR f
ENCODING 102
SWIDTH 387 0
DWIDTH 5 0
BBX 5 9 1 0
BITMAP
18
28
60
f0
60
60
60
60
f0
ENDCHAR
STARTCHAR g
ENCODING 103
SWIDTH 613 0
DWIDTH 8 0
BBX 7 9 1 -3
BITMAP
7a
cc
cc
78
40
7c
cc
cc
78
ENDCHAR
STARTCHAR h
ENCODING 104
SWIDTH 667 0
DWIDTH 7 0
BBX 7 9 0 0
BITMAP
e0
60
60
7c
6c
6c
6c
6c
ee
ENDCHAR
STARTCHAR i
ENCODING 105
SWIDTH 354 0
DWIDTH 4 0
BBX 4 9 0 0
BITMAP
60
60
00
e0
60
60
60
60
f0
ENDCHAR
STARTCHAR j
ENCODING 106
SWIDTH 352 0
DWIDTH 5 0
BBX 5 12 -1 -3
BITMAP
18
18
00
38
18
18
18
18
18
18
d0
60
ENDCHAR
STARTCHAR k
ENCODING 107
SWIDTH 623 0
DWIDTH 8 0
BBX 8 9 0 0
BITMAP
e000
6000
6000
6e00
6c00
7800
7c00
6e00
ef00
ENDCHAR
STARTCHAR l
ENCODING 108
SWIDTH 350 0
DWIDTH 4 0
BBX 4 9 0 0
BITMAP
e0
60
60
60
60
60
60
60
f0
ENDCHAR
STARTCHAR m
ENCODING 109
SWIDTH 991 0
DWIDTH 12 0
BBX 12 6 0 0
BITMAP
ffe0
6660
6660
6660
6660
eef0
ENDCHAR
STARTCHAR n
ENCODING 110
SWIDTH 678 0
DWIDTH 8 0
BBX 7 6 1 0
BITMAP
fc
6c
6c
6c
6c
ee
ENDCHAR
STARTCHAR o
ENCODING 111
SWIDTH 650 0
DWIDTH 8 0
BBX 7 6 1 0
BITMAP
7c
c6
c6
c6
c6
7c
ENDCHAR
STARTCHAR p
ENCODING 112
SWIDTH 667 0
DWIDTH 8 0
BBX 8 9 0 -3
BITMAP
ff00
6700
6300
6300
6600
7c00
6000
6000
f000
ENDCHAR
STARTCHAR q
ENCODING 113
SWIDTH 655 0
DWIDTH 9 0
BBX 8 9 1 -3
BITMAP
3e00
6600
c600
c600
e600
7e00
0600
0600
0f00
ENDCHAR
STARTCHAR r
ENCODING 114
SWIDTH 488 0
DWIDTH 6 0
BBX 6 6 0 0
BITMAP
ec
7c
60
60
60
f0
ENDCHAR
STARTCHAR s
ENCODING 115
SWIDTH 523 0
DWIDTH 7 0
BBX 6 6 1 0
BITMAP
7c
c4
f0
7c
8c
f8
ENDCHAR
STARTCHAR t
ENCODING 116
SWIDTH 407 0
DWIDTH 5 0
BBX 5 8 0 0
BITMAP
20
60
f8
60
60
60
60
78
ENDCHAR
STARTCHAR u
ENCODING 117
SWIDTH 667 0
DWIDTH 7 0
BBX 7 6 0 0
BITMAP
ec
6c
6c
6c
7c
3e
ENDCHAR
STARTCHAR v
ENCODING 118
SWIDTH 565 0
DWIDTH 7 0
BBX 7 6 0 0
BITMAP
ee
44
6c
68
38
30
ENDCHAR
STARTCHAR w
ENCODING 119
SWIDTH 873 0
DWIDTH 11 0
BBX 11 6 0 0
BITMAP
e660
6740
6b40
6b40
3b80
3180
ENDCHAR
STARTCHAR x
ENCODING 120
SWIDTH 593 0
DWIDTH 7 0
BBX 7 6 0 0
BITMAP
ee
64
38
38
4c
ee
ENDCHAR
STARTCHAR y
ENCODING 121
SWIDTH 567 0
DWIDTH 7 0
BBX 7 9 0 -3
BITMAP
fe
64
64
38
38
18
10
d0
e0
ENDCHAR
STARTCHAR z
ENCODING 122
SWIDTH 556 0
DWIDTH 7 0
BBX 6 6 1 0
BITMAP
fc
98
38
70
e4
fc
ENDCHAR
STARTCHAR braceleft
ENCODING 123
SWIDTH 500 0
DWIDTH 6 0
BBX 5 10 0 -2
BITMAP
18
30
30
30
c0
30
30
30
30
18
ENDCHAR
STARTCHAR bar
ENCODING 124
SWIDTH 500 0
DWIDTH 6 0
BBX 1 12 3 -3
BITMAP
80
80
80
80
80
80
80
80
80
80
80
80
ENDCHAR
STARTCHAR braceright
ENCODING 125
SWIDTH 500 0
DWIDTH 6 0
BBX 5 10 1 -2
BITMAP
c0
60
60
60
18
60
60
60
60
c0
ENDCHAR
STARTCHAR c0126
ENCODING 126
SWIDTH 1000 0
DWIDTH 12 0
BBX 8 2 2 6
BITMAP
7100
8e00
ENDCHAR
STARTCHAR space
ENCODING 160
SWIDTH 322 0
DWIDTH 4 0
BBX 1 1 0 0
BITMAP
00
ENDCHAR
STARTCHAR exclamdown
ENCODING 161
SWIDTH 343 0
DWIDTH 4 0
BBX 2 9 1 0
BITMAP
c0
c0
00
80
c0
c0
c0
c0
c0
ENDCHAR
STARTCHAR cent
ENCODING 162
SWIDTH 644 0
DWIDTH 8 0
BBX 7 8 1 -1
BITMAP
08
3e
ea
c8
c8
6a
3e
08
ENDCHAR
STARTCHAR sterling
ENCODING 163
SWIDTH 644 0
DWIDTH 8 0
BBX 7 9 1 0
BITMAP
3c
66
66
60
fc
60
40
fe
fe
ENDCHAR
STARTCHAR currency
ENCODING 164
SWIDTH 606 0
DWIDTH 8 0
BBX 7 7 1 1
BITMAP
82
7c
44
44
44
7c
82
ENDCHAR
STARTCHAR yen
ENCODING 165
SWIDTH 671 0
DWIDTH 8 0
BBX 8 9 0 0
BITMAP
f700
6200
3400
f700
1800
ff00
1800
1800
3c00
ENDCHAR
STARTCHAR brokenbar
ENCODING 166
SWIDTH 500 0
DWIDTH 6 0
BBX 1 10 3 -2
BITMAP
80
80
80
80
00
00
80
80
80
80
ENDCHAR
STARTCHAR section
ENCODING 167
SWIDTH 500 0
DWIDTH 6 0
BBX 5 10 1 -2
BITMAP
30
d0
40
30
d8
d8
60
18
50
60
ENDCHAR
STARTCHAR dieresis
ENCODING 168
SWIDTH 500 0
DWIDTH 6 0
BBX 5 2 1 7
BITMAP
d8
d8
ENDCHAR
STARTCHAR copyright
ENCODING 169
SWIDTH 900 0
DWIDTH 11 0
BBX 10 9 1 0
BITMAP
1e00
2100
4e80
9240
b040
9240
4e80
2100
1e00
ENDCHAR
STARTCHAR ordfeminine
ENCODING 170
SWIDTH 462 0
DWIDTH 6 0
BBX 5 4 1 4
BITMAP
70
38
d8
f8
ENDCHAR
STARTCHAR guillemotleft
ENCODING 171
SWIDTH 458 0
DWIDTH 6 0
BBX 5 5 0 0
BITMAP
28
58
90
58
28
ENDCHAR
STARTCHAR logicalnot
ENCODING 172
SWIDTH 833 0
DWIDTH 10 0
BBX 7 3 2 2
BITMAP
fe
02
02
ENDCHAR
STARTCHAR hyphen
ENCODING 173
SWIDTH 333 0
DWIDTH 4 0
BBX 3 1 1 2
BITMAP
e0
ENDCHAR
STARTCHAR registered
ENCODING 174
SWIDTH 900 0
DWIDTH 11 0
BBX 10 9 1 0
BITMAP
1e00
2100
7e80
9240
9c40
9240
7b80
2100
1e00
ENDCHAR
STARTCHAR macron
ENCODING 175
SWIDTH 500 0
DWIDTH 6 0
BBX 4 1 1 7
BITMAP
f0
ENDCHAR
STARTCHAR degree
ENCODING 176
SWIDTH 329 0
DWIDTH 4 0
BBX 4 4 0 4
BITMAP
60
90
90
60
ENDCHAR
STARTCHAR plusminus
ENCODING 177
SWIDTH 833 0
DWIDTH 10 0
BBX 7 7 2 0
BITMAP
10
10
fe
10
10
00
fe
ENDCHAR
STARTCHAR twosuperior
ENCODING 178
SWIDTH 425 0
DWIDTH 5 0
BBX 4 5 1 4
BITMAP
60
90
30
70
f0
ENDCHAR
STARTCHAR threesuperior
ENCODING 179
SWIDTH 425 0
DWIDTH 5 0
BBX 4 5 1 4
BITMAP
e0
30
60
10
e0
ENDCHAR
STARTCHAR acute
ENCODING 180
SWIDTH 500 0
DWIDTH 6 0
BBX 3 2 2 7
BITMAP
60
c0
ENDCHAR
STARTCHAR mu
ENCODING 181
SWIDTH 578 0
DWIDTH 7 0
BBX 8 8 -1 -3
BITMAP
2400
6400
4400
4d00
7600
8000
8000
8000
ENDCHAR
STARTCHAR paragraph
ENCODING 182
SWIDTH 500 0
DWIDTH 6 0
BBX 6 10 0 -1
BITMAP
7c
e8
e8
e8
e8
68
08
08
08
08
ENDCHAR
STARTCHAR periodcentered
ENCODING 183
SWIDTH 322 0
DWIDTH 4 0
BBX 2 2 1 3
BITMAP
c0
c0
ENDCHAR
STARTCHAR cedilla
ENCODING 184
SWIDTH 500 0
DWIDTH 6 0
BBX 3 3 2 -3
BITMAP
60
20
e0
ENDCHAR
STARTCHAR onesuperior
ENCODING 185
SWIDTH 425 0
DWIDTH 5 0
BBX 2 5 3 4
BITMAP
40
c0
40
40
c0
ENDCHAR
STARTCHAR ordmasculine
ENCODING 186
SWIDTH 488 0
DWIDTH 6 0
BBX 5 4 1 4
BITMAP
70
d8
d8
70
ENDCHAR
STARTCHAR guillemotright
ENCODING 187
SWIDTH 458 0
DWIDTH 6 0
BBX 5 5 0 0
BITMAP
a0
d0
48
d0
a0
ENDCHAR
STARTCHAR onequarter
ENCODING 188
SWIDTH 977 0
DWIDTH 12 0
BBX 9 9 3 0
BITMAP
4400
c800
4800
5000
d100
2300
4500
4f80
8100
ENDCHAR
STARTCHAR onehalf
ENCODING 189
SWIDTH 977 0
DWIDTH 12 0
BBX 9 9 3 0
BITMAP
4400
c800
4800
5000
d300
2480
4180
4380
8780
ENDCHAR
STARTCHAR threequarters
ENCODING 190
SWIDTH 977 0
DWIDTH 12 0
BBX 11 9 1 0
BITMAP
e100
3200
6200
1400
e440
08c0
1140
13e0
2040
ENDCHAR
STARTCHAR questiondown
ENCODING 191
SWIDTH 519 0
DWIDTH 6 0
BBX 6 9 0 0
BITMAP
30
30
00
10
60
c0
cc
dc
78
ENDCHAR
STARTCHAR Agrave
ENCODING 192
SWIDTH 701 0
DWIDTH 9 0
BBX 9 11 0 0
BITMAP
3000
1800
0c00
1c00
1600
1600
2600
3f00
6300
4300
e380
ENDCHAR
STARTCHAR Aacute
ENCODING 193
SWIDTH 701 0
DWIDTH 9 0
BBX 9 11 0 0
BITMAP
0c00
1800
0c00
1c00
1600
1600
2600
3f00
6300
4300
e380
ENDCHAR
STARTCHAR Acircumflex
ENCODING 194
SWIDTH 701 0
DWIDTH 9 0
BBX 9 11 0 0
BITMAP
1800
3c00
0c00
1c00
1600
1600
2600
3f00
6300
4300
e380
ENDCHAR
STARTCHAR Atilde
ENCODING 195
SWIDTH 701 0
DWIDTH 9 0
BBX 9 11 0 0
BITMAP
3400
2c00
0c00
1c00
1600
1600
2600
3f00
6300
4300
e380
ENDCHAR
STARTCHAR Adieresis
ENCODING 196
SWIDTH 701 0
DWIDTH 9 0
BBX 9 11 0 0
BITMAP
3600
3600
0c00
1c00
1600
1600
2600
3f00
6300
4300
e380
ENDCHAR
STARTCHAR Aring
ENCODING 197
SWIDTH 701 0
DWIDTH 9 0
BBX 9 12 0 0
BITMAP
0c00
1c00
0000
0c00
1c00
1600
1600
2600
3f00
6300
4300
e380
ENDCHAR
STARTCHAR AE
ENCODING 198
SWIDTH 963 0
DWIDTH 12 0
BBX 13 9 -1 0
BITMAP
07f8
0788
0580
0990
19f0
1f90
2180
6188
e3f8
ENDCHAR
STARTCHAR Ccedilla
ENCODING 199
SWIDTH 683 0
DWIDTH 9 0
BBX 8 12 1 -3
BITMAP
3f00
7100
e100
c000
c000
c000
e100
7100
3f00
0c00
0400
1c00
ENDCHAR
STARTCHAR Egrave
ENCODING 200
SWIDTH 653 0
DWIDTH 8 0
BBX 7 11 1 0
BITMAP
30
18
fe
62
60
64
7c
64
62
62
fe
ENDCHAR
STARTCHAR Eacute
ENCODING 201
SWIDTH 653 0
DWIDTH 8 0
BBX 7 11 1 0
BITMAP
0c
18
fe
62
60
64
7c
64
62
62
fe
ENDCHAR
STARTCHAR Ecircumflex
ENCODING 202
SWIDTH 653 0
DWIDTH 8 0
BBX 7 11 1 0
BITMAP
18
3c
fe
62
60
64
7c
64
62
62
fe
ENDCHAR
STARTCHAR Edieresis
ENCODING 203
SWIDTH 653 0
DWIDTH 8 0
BBX 7 11 1 0
BITMAP
36
36
fe
62
60
64
7c
64
62
62
fe
ENDCHAR
STARTCHAR Igrave
ENCODING 204
SWIDTH 410 0
DWIDTH 5 0
BBX 5 11 0 0
BITMAP
c0
60
78
30
30
30
30
30
30
30
78
ENDCHAR
STARTCHAR Iacute
ENCODING 205
SWIDTH 410 0
DWIDTH 5 0
BBX 4 11 1 0
BITMAP
60
c0
f0
60
60
60
60
60
60
60
f0
ENDCHAR
STARTCHAR Icircumflex
ENCODING 206
SWIDTH 410 0
DWIDTH 5 0
BBX 5 11 0 0
BITMAP
60
f0
78
30
30
30
30
30
30
30
78
ENDCHAR
STARTCHAR Idieresis
ENCODING 207
SWIDTH 410 0
DWIDTH 5 0
BBX 5 11 0 0
BITMAP
d8
d8
78
30
30
30
30
30
30
30
78
ENDCHAR
STARTCHAR Eth
ENCODING 208
SWIDTH 780 0
DWIDTH 10 0
BBX 9 9 1 0
BITMAP
fe00
6700
6180
6180
f980
6180
6180
6300
fe00
ENDCHAR
STARTCHAR Ntilde
ENCODING 209
SWIDTH 782 0
DWIDTH 10 0
BBX 9 11 1 0
BITMAP
3400
2c00
e380
7100
7900
5900
5d00
4f00
4700
4700
e300
ENDCHAR
STARTCHAR Ograve
ENCODING 210
SWIDTH 815 0
DWIDTH 10 0
BBX 9 11 1 0
BITMAP
3000
1800
3e00
6300
c180
c180
c180
c180
c180
6300
3e00
ENDCHAR
STARTCHAR Oacute
ENCODING 211
SWIDTH 815 0
DWIDTH 10 0
BBX 9 11 1 0
BITMAP
0c00
1800
3e00
6300
c180
c180
c180
c180
c180
6300
3e00
ENDCHAR
STARTCHAR Ocircumflex
ENCODING 212
SWIDTH 815 0
DWIDTH 10 0
BBX 9 11 1 0
BITMAP
1800
3c00
3e00
6300
c180
c180
c180
c180
c180
6300
3e00
ENDCHAR
STARTCHAR Otilde
ENCODING 213
SWIDTH 815 0
DWIDTH 10 0
BBX 9 11 1 0
BITMAP
3400
2c00
3e00
6300
c180
c180
c180
c180
c180
6300
3e00
ENDCHAR
STARTCHAR Odieresis
ENCODING 214
SWIDTH 815 0
DWIDTH 10 0
BBX 9 11 1 0
BITMAP
3600
3600
3e00
6300
c180
c180
c180
c180
c180
6300
3e00
ENDCHAR
STARTCHAR multiply
ENCODING 215
SWIDTH 833 0
DWIDTH 10 0
BBX 7 7 2 0
BITMAP
82
44
28
10
28
44
82
ENDCHAR
STARTCHAR Oslash
ENCODING 216
SWIDTH 815 0
DWIDTH 10 0
BBX 9 10 1 -1
BITMAP
3f00
6300
c580
c580
c980
d180
d180
6300
7e00
4000
ENDCHAR
STARTCHAR Ugrave
ENCODING 217
SWIDTH 757 0
DWIDTH 10 0
BBX 9 11 1 0
BITMAP
3000
1800
f780
6300
6300
6300
6300
6300
6300
7200
3c00
ENDCHAR
STARTCHAR Uacute
ENCODING 218
SWIDTH 757 0
DWIDTH 10 0
BBX 9 11 1 0
BITMAP
0c00
1800
f780
6300
6300
6300
6300
6300
6300
7200
3c00
ENDCHAR
STARTCHAR Ucircumflex
ENCODING 219
SWIDTH 757 0
DWIDTH 10 0
BBX 9 11 1 0
BITMAP
1800
3c00
f780
6300
6300
6300
6300
6300
6300
7200
3c00
ENDCHAR
STARTCHAR Udieresis
ENCODING 220
SWIDTH 757 0
DWIDTH 10 0
BBX 9 11 1 0
BITMAP
3600
3600
f780
6300
6300
6300
6300
6300
6300
7200
3c00
ENDCHAR
STARTCHAR Yacute
ENCODING 221
SWIDTH 671 0
DWIDTH 8 0
BBX 8 11 0 0
BITMAP
0c00
1800
f700
6200
7400
3400
3800
1800
1800
1800
3c00
ENDCHAR
STARTCHAR Thorn
ENCODING 222
SWIDTH 653 0
DWIDTH 8 0
BBX 7 9 1 0
BITMAP
f0
7c
66
66
66
6e
7c
60
f0
ENDCHAR
STARTCHAR germandbls
ENCODING 223
SWIDTH 713 0
DWIDTH 9 0
BBX 9 9 0 0
BITMAP
1e00
2300
6300
6600
6e00
6f00
6180
6980
ef00
ENDCHAR
STARTCHAR agrave
ENCODING 224
SWIDTH 616 0
DWIDTH 8 0
BBX 7 9 1 0
BITMAP
60
30
00
78
cc
3c
cc
dc
ee
ENDCHAR
STARTCHAR aacute
ENCODING 225
SWIDTH 616 0
DWIDTH 8 0
BBX 7 9 1 0
BITMAP
18
30
00
78
cc
3c
cc
dc
ee
ENDCHAR
STARTCHAR acircumflex
ENCODING 226
SWIDTH 616 0
DWIDTH 8 0
BBX 7 9 1 0
BITMAP
30
78
00
78
cc
3c
cc
dc
ee
ENDCHAR
STARTCHAR atilde
ENCODING 227
SWIDTH 616 0
DWIDTH 8 0
BBX 7 9 1 0
BITMAP
68
58
00
78
cc
3c
cc
dc
ee
ENDCHAR
STARTCHAR adieresis
ENCODING 228
SWIDTH 616 0
DWIDTH 8 0
BBX 7 9 1 0
BITMAP
6c
6c
00
78
cc
3c
cc
dc
ee
ENDCHAR
STARTCHAR aring
ENCODING 229
SWIDTH 616 0
DWIDTH 8 0
BBX 7 10 1 0
BITMAP
30
28
28
30
78
cc
3c
cc
dc
ee
ENDCHAR
STARTCHAR ae
ENCODING 230
SWIDTH 854 0
DWIDTH 11 0
BBX 10 6 1 0
BITMAP
7b80
ccc0
3fc0
cc00
cc40
f7c0
ENDCHAR
STARTCHAR ccedilla
ENCODING 231
SWIDTH 537 0
DWIDTH 7 0
BBX 6 9 1 -3
BITMAP
38
6c
cc
c0
e0
7c
18
08
38
ENDCHAR
STARTCHAR egrave
ENCODING 232
SWIDTH 590 0
DWIDTH 7 0
BBX 6 9 1 0
BITMAP
60
30
00
38
cc
fc
c0
e4
7c
ENDCHAR
STARTCHAR eacute
ENCODING 233
SWIDTH 590 0
DWIDTH 7 0
BBX 6 9 1 0
BITMAP
18
30
00
38
cc
fc
c0
e4
7c
ENDCHAR
STARTCHAR ecircumflex
ENCODING 234
SWIDTH 590 0
DWIDTH 7 0
BBX 6 9 1 0
BITMAP
30
78
00
38
cc
fc
c0
e4
7c
ENDCHAR
STARTCHAR edieresis
ENCODING 235
SWIDTH 590 0
DWIDTH 7 0
BBX 6 9 1 0
BITMAP
6c
6c
00
38
cc
fc
c0
e4
7c
ENDCHAR
STARTCHAR igrave
ENCODING 236
SWIDTH 354 0
DWIDTH 4 0
BBX 4 9 0 0
BITMAP
c0
60
00
e0
60
60
60
60
f0
ENDCHAR
STARTCHAR iacute
ENCODING 237
SWIDTH 354 0
DWIDTH 4 0
BBX 4 9 0 0
BITMAP
30
60
00
e0
60
60
60
60
f0
ENDCHAR
STARTCHAR icircumflex
ENCODING 238
SWIDTH 354 0
DWIDTH 4 0
BBX 4 9 0 0
BITMAP
60
f0
00
e0
60
60
60
60
f0
ENDCHAR
STARTCHAR idieresis
ENCODING 239
SWIDTH 354 0
DWIDTH 4 0
BBX 5 9 0 0
BITMAP
d8
d8
00
e0
60
60
60
60
f0
ENDCHAR
STARTCHAR eth
ENCODING 240
SWIDTH 645 0
DWIDTH 8 0
BBX 7 9 1 0
BITMAP
74
18
6c
7c
e6
c6
c6
c6
38
ENDCHAR
STARTCHAR ntilde
ENCODING 241
SWIDTH 678 0
DWIDTH 8 0
BBX 7 9 1 0
BITMAP
34
2c
00
fc
6c
6c
6c
6c
ee
ENDCHAR
STARTCHAR ograve
ENCODING 242
SWIDTH 650 0
DWIDTH 8 0
BBX 7 9 1 0
BITMAP
60
30
00
7c
c6
c6
c6
c6
7c
ENDCHAR
STARTCHAR oacute
ENCODING 243
SWIDTH 650 0
DWIDTH 8 0
BBX 7 9 1 0
BITMAP
18
30
00
7c
c6
c6
c6
c6
7c
ENDCHAR
STARTCHAR ocircumflex
ENCODING 244
SWIDTH 650 0
DWIDTH 8 0
BBX 7 9 1 0
BITMAP
30
78
00
7c
c6
c6
c6
c6
7c
ENDCHAR
STARTCHAR otilde
ENCODING 245
SWIDTH 650 0
DWIDTH 8 0
BBX 7 9 1 0
BITMAP
68
58
00
7c
c6
c6
c6
c6
7c
ENDCHAR
STARTCHAR odieresis
ENCODING 246
SWIDTH 650 0
DWIDTH 8 0
BBX 7 9 1 0
BITMAP
6c
6c
00
7c
c6
c6
c6
c6
7c
ENDCHAR
STARTCHAR divide
ENCODING 247
SWIDTH 833 0
DWIDTH 10 0
BBX 8 7 1 0
BITMAP
1800
1800
0000
ff00
0000
1800
1800
ENDCHAR
STARTCHAR oslash
ENCODING 248
SWIDTH 650 0
DWIDTH 8 0
BBX 7 8 1 -1
BITMAP
04
3c
ce
d6
e6
e6
7c
40
ENDCHAR
STARTCHAR ugrave
ENCODING 249
SWIDTH 667 0
DWIDTH 7 0
BBX 7 9 0 0
BITMAP
30
18
00
ec
6c
6c
6c
7c
3e
ENDCHAR
STARTCHAR uacute
ENCODING 250
SWIDTH 667 0
DWIDTH 7 0
BBX 7 9 0 0
BITMAP
0c
18
00
ec
6c
6c
6c
7c
3e
ENDCHAR
STARTCHAR ucircumflex
ENCODING 251
SWIDTH 667 0
DWIDTH 7 0
BBX 7 9 0 0
BITMAP
18
3c
00
ec
6c
6c
6c
7c
3e
ENDCHAR
STARTCHAR udieresis
ENCODING 252
SWIDTH 667 0
DWIDTH 7 0
BBX 7 9 0 0
BITMAP
36
36
00
ec
6c
6c
6c
7c
3e
ENDCHAR
STARTCHAR yacute
ENCODING 253
SWIDTH 567 0
DWIDTH 7 0
BBX 7 12 0 -3
BITMAP
18
30
00
fe
64
64
38
38
18
10
d0
e0
ENDCHAR
STARTCHAR thorn
ENCODING 254
SWIDTH 667 0
DWIDTH 8 0
BBX 8 12 0 -3
BITMAP
e000
6000
6000
7e00
6700
6300
6300
6600
7c00
6000
6000
f000
ENDCHAR
STARTCHAR ydieresis
ENCODING 255
SWIDTH 567 0
DWIDTH 7 0
BBX 7 12 0 -3
BITMAP
6c
6c
00
fe
64
64
38
38
18
10
d0
e0
ENDCHAR
ENDFONT
