STARTFONT 2.1
COMMENT  
COMMENT  Copyright 1988 Bitstream, Inc., Cambridge, Massachusetts, USA
COMMENT  Bitstream and Charter are registered trademarks of Bitstream, Inc.
COMMENT  
COMMENT  The names "Bitstream" and "Charter" are registered trademarks of
COMMENT  Bitstream, Inc.  Permission to use these trademarks is hereby
COMMENT  granted only in association with the images described in this file.
COMMENT  
COMMENT  Permission to use, copy, modify, and distribute this software and
COMMENT  its documentation for any purpose and without fee is hereby
COMMENT  granted, provided that the above copyright notice appear in all
COMMENT  copies and that both that copyright notice and this permission
COMMENT  notice appear in supporting documentation, and that the name of
COMMENT  Bitstream not be used in advertising or publicity pertaining to
COMMENT  distribution of the software without specific, written prior
COMMENT  permission.  Bitstream makes no representations about the
COMMENT  suitability of this software for any purpose.  It is provided "as
COMMENT  is" without express or implied warranty.
COMMENT  
COMMENT  BITSTREAM DISCLAIMS ALL WARRANTIES WITH REGARD TO THIS SOFTWARE,
COMMENT  INCLUDING ALL IMPLIED WARRANTIES OF MERCHANTABILITY AND FITNESS, IN
COMMENT  NO EVENT SHALL BITSTREAM BE LIABLE FOR ANY SPECIAL, INDIRECT OR
COMMENT  CONSEQUENTIAL DAMAGES OR ANY DAMAGES WHATSOEVER RESULTING FROM LOSS
COMMENT  OF USE, DATA OR PROFITS, WHETHER IN AN ACTION OF CONTRACT,
COMMENT  NEGLIGENCE OR OTHER TORTIOUS ACTION, ARISING OUT OF OR IN
COMMENT  CONNECTION WITH THE USE OR PERFORMANCE OF THIS SOFTWARE.
COMMENT  
COMMENT  
COMMENT Fontware CVTBDF v1.0
FONT -Bitstream-Charter-Bold-I-Normal--19-180-75-75-P-117-ISO8859-1
SIZE 18 75 75
FONTBOUNDINGBOX 22 22 -3 -4
STARTPROPERTIES 22
COMMENT Begin LogicalFontDescription
FONTNAME_REGISTRY ""
FAMILY_NAME "Charter"
FOUNDRY "Bitstream"
WEIGHT_NAME "Bold"
SETWIDTH_NAME "Normal"
SLANT "I"
ADD_STYLE_NAME ""
PIXEL_SIZE 19
POINT_SIZE 180
RESOLUTION_X 75
RESOLUTION_Y 75
SPACING "P"
AVERAGE_WIDTH 117
CHARSET_REGISTRY "ISO8859"
CHARSET_ENCODING "1"
COMMENT END LogicalFontDescription
FONT_DESCENT 4
FONT_ASCENT 18
CAP_HEIGHT 13
X_HEIGHT 9
CHARSET_COLLECTIONS "ASCII ISOLATIN1"
FULL_NAME "Bitstream Charter Black Italic"
COPYRIGHT "Copyright 1987 by Bitstream Inc. Charter Registered trademark of Bitstream Inc."
COMMENT ****** end of font properties
ENDPROPERTIES
CHARS 191
STARTCHAR space
ENCODING 32
SWIDTH 319 0
DWIDTH 6 0
BBX 1 1 0 0
BITMAP
00
ENDCHAR
STARTCHAR exclam
ENCODING 33
SWIDTH 343 0
DWIDTH 6 0
BBX 5 13 0 0
BITMAP
38
38
78
70
70
60
60
60
00
60
e0
e0
60
ENDCHAR
STARTCHAR quotedbl
ENCODING 34
SWIDTH 339 0
DWIDTH 7 0
BBX 5 6 1 8
BITMAP
d8
d8
d8
d8
48
48
ENDCHAR
STARTCHAR numbersign
ENCODING 35
SWIDTH 769 0
DWIDTH 14 0
BBX 12 14 1 0
BITMAP
0660
0640
0440
0cc0
7ff0
0980
1980
1900
ffe0
3300
3200
2600
6600
6600
ENDCHAR
STARTCHAR dollar
ENCODING 36
SWIDTH 639 0
DWIDTH 12 0
BBX 11 17 0 -2
BITMAP
0100
0100
0fe0
3a60
3260
7240
3a00
3f00
1f80
0fc0
05c0
45c0
cdc0
c980
ff00
0800
1800
ENDCHAR
STARTCHAR percent
ENCODING 37
SWIDTH 981 0
DWIDTH 18 0
BBX 16 13 1 0
BITMAP
3c0c00
661800
e63000
c62000
c66000
ccde00
cdb300
7b3300
066300
046300
0c6700
186600
303c00
ENDCHAR
STARTCHAR ampersand
ENCODING 38
SWIDTH 787 0
DWIDTH 15 0
BBX 14 13 0 0
BITMAP
0fc0
1ce0
38e0
38e0
3de0
3dc0
1e3c
7f18
67b0
e3e0
f1e0
fff0
3c7c
ENDCHAR
STARTCHAR quoteright
ENCODING 39
SWIDTH 331 0
DWIDTH 6 0
BBX 5 6 1 7
BITMAP
18
38
38
18
30
e0
ENDCHAR
STARTCHAR parenleft
ENCODING 40
SWIDTH 440 0
DWIDTH 8 0
BBX 8 16 1 -2
BITMAP
0700
0e00
1800
3800
3000
7000
7000
f000
e000
e000
e000
e000
e000
6000
7000
3800
ENDCHAR
STARTCHAR parenright
ENCODING 41
SWIDTH 440 0
DWIDTH 8 0
BBX 8 16 -1 -2
BITMAP
1800
0e00
0600
0700
0700
0700
0700
0700
0f00
0e00
0e00
0c00
1c00
1800
7000
e000
ENDCHAR
STARTCHAR asterisk
ENCODING 42
SWIDTH 500 0
DWIDTH 9 0
BBX 7 7 2 7
BITMAP
10
18
d6
ec
30
78
58
ENDCHAR
STARTCHAR plus
ENCODING 43
SWIDTH 833 0
DWIDTH 16 0
BBX 12 12 2 0
BITMAP
0600
0600
0600
0600
0600
fff0
fff0
0600
0600
0600
0600
0600
ENDCHAR
STARTCHAR comma
ENCODING 44
SWIDTH 322 0
DWIDTH 6 0
BBX 4 6 -1 -3
BITMAP
30
70
70
30
60
c0
ENDCHAR
STARTCHAR hyphen
ENCODING 45
SWIDTH 333 0
DWIDTH 6 0
BBX 5 2 0 4
BITMAP
f8
f8
ENDCHAR
STARTCHAR period
ENCODING 46
SWIDTH 322 0
DWIDTH 6 0
BBX 4 4 0 0
BITMAP
60
f0
f0
60
ENDCHAR
STARTCHAR slash
ENCODING 47
SWIDTH 481 0
DWIDTH 9 0
BBX 13 14 -3 -1
BITMAP
0018
0030
0060
00c0
0180
0180
0300
0600
0c00
0c00
1800
3000
6000
c000
ENDCHAR
STARTCHAR zero
ENCODING 48
SWIDTH 639 0
DWIDTH 12 0
BBX 11 13 1 0
BITMAP
0f80
38c0
38e0
70e0
70e0
f0e0
e0e0
e1e0
e1c0
e1c0
e380
6380
3e00
ENDCHAR
STARTCHAR one
ENCODING 49
SWIDTH 639 0
DWIDTH 12 0
BBX 8 13 1 0
BITMAP
0f00
7f00
0f00
0e00
0e00
0e00
0e00
1e00
1c00
1c00
1c00
1c00
ff00
ENDCHAR
STARTCHAR two
ENCODING 50
SWIDTH 639 0
DWIDTH 12 0
BBX 11 13 0 0
BITMAP
0fc0
1ce0
3ce0
38e0
00e0
01c0
0380
0700
0e60
1860
7fc0
ffc0
ffc0
ENDCHAR
STARTCHAR three
ENCODING 51
SWIDTH 639 0
DWIDTH 12 0
BBX 11 13 0 0
BITMAP
0fc0
39e0
38e0
38e0
01c0
0f00
1fc0
01c0
01c0
61c0
e1c0
e3c0
7f00
ENDCHAR
STARTCHAR four
ENCODING 52
SWIDTH 639 0
DWIDTH 12 0
BBX 11 14 0 -1
BITMAP
00e0
01c0
03c0
07c0
0dc0
19c0
39c0
3380
6380
ffe0
0380
0380
0700
0700
ENDCHAR
STARTCHAR five
ENCODING 53
SWIDTH 639 0
DWIDTH 12 0
BBX 11 13 0 0
BITMAP
1fe0
1fe0
3fe0
3000
3000
3f00
3f80
03c0
01c0
61c0
e180
e380
7e00
ENDCHAR
STARTCHAR six
ENCODING 54
SWIDTH 639 0
DWIDTH 12 0
BBX 10 14 1 0
BITMAP
0180
07c0
1e00
3800
7000
7f00
7f80
e3c0
e1c0
e1c0
e1c0
e180
7380
3e00
ENDCHAR
STARTCHAR seven
ENCODING 55
SWIDTH 639 0
DWIDTH 12 0
BBX 10 14 2 -1
BITMAP
7fc0
7fc0
ffc0
c180
c300
0300
0600
0c00
0c00
1800
3000
3000
6000
e000
ENDCHAR
STARTCHAR eight
ENCODING 56
SWIDTH 639 0
DWIDTH 12 0
BBX 11 13 0 0
BITMAP
0fc0
39e0
38e0
78e0
38c0
3f80
1f80
77c0
e3c0
e1c0
e1c0
f1c0
3f00
ENDCHAR
STARTCHAR nine
ENCODING 57
SWIDTH 639 0
DWIDTH 12 0
BBX 10 13 1 0
BITMAP
1f00
7380
61c0
e1c0
e1c0
e1c0
f1c0
7f80
0700
0600
1c00
f800
4000
ENDCHAR
STARTCHAR colon
ENCODING 58
SWIDTH 387 0
DWIDTH 7 0
BBX 4 9 1 0
BITMAP
60
70
70
20
00
60
e0
e0
60
ENDCHAR
STARTCHAR semicolon
ENCODING 59
SWIDTH 387 0
DWIDTH 8 0
BBX 6 12 0 -3
BITMAP
08
1c
1c
08
00
00
38
38
38
18
30
c0
ENDCHAR
STARTCHAR less
ENCODING 60
SWIDTH 833 0
DWIDTH 16 0
BBX 11 10 2 1
BITMAP
0020
01e0
0780
3c00
f000
f000
3c00
0780
01e0
0020
ENDCHAR
STARTCHAR equal
ENCODING 61
SWIDTH 833 0
DWIDTH 16 0
BBX 11 6 3 3
BITMAP
ffe0
ffe0
0000
0000
ffe0
ffe0
ENDCHAR
STARTCHAR greater
ENCODING 62
SWIDTH 833 0
DWIDTH 16 0
BBX 11 10 3 1
BITMAP
8000
f000
3c00
0780
01e0
01e0
0780
3c00
f000
8000
ENDCHAR
STARTCHAR question
ENCODING 63
SWIDTH 519 0
DWIDTH 10 0
BBX 9 13 1 0
BITMAP
3f00
e380
e380
0380
0700
1e00
3800
2000
0000
6000
f000
f000
6000
ENDCHAR
STARTCHAR at
ENCODING 64
SWIDTH 942 0
DWIDTH 18 0
BBX 15 16 2 -2
BITMAP
03e0
0c18
180c
3004
61f2
6672
c462
cc62
cc64
cce4
ef78
6670
6000
3000
1c18
07e0
ENDCHAR
STARTCHAR A
ENCODING 65
SWIDTH 688 0
DWIDTH 13 0
BBX 14 13 -1 0
BITMAP
00e0
01e0
03e0
03e0
06e0
06f0
0cf0
0c70
1ff0
3070
3070
6078
f8fc
ENDCHAR
STARTCHAR B
ENCODING 66
SWIDTH 694 0
DWIDTH 13 0
BBX 12 13 0 0
BITMAP
3fe0
1ef0
1c70
1c70
1c70
1ce0
3fc0
38e0
3870
3870
38e0
39e0
ffc0
ENDCHAR
STARTCHAR C
ENCODING 67
SWIDTH 671 0
DWIDTH 13 0
BBX 12 13 1 0
BITMAP
0ff0
3c30
3830
7020
7000
e000
e000
e000
e000
e060
70c0
78c0
3fc0
ENDCHAR
STARTCHAR D
ENCODING 68
SWIDTH 762 0
DWIDTH 15 0
BBX 14 13 0 0
BITMAP
3ff0
0e78
1e3c
1e1c
1c1c
1c1c
1c1c
3c1c
3c38
3838
3870
38e0
ffc0
ENDCHAR
STARTCHAR E
ENCODING 69
SWIDTH 639 0
DWIDTH 12 0
BBX 12 13 0 0
BITMAP
3ff0
1c30
1c20
1c00
1c80
1c80
3f80
3980
3980
3860
3860
3840
ffc0
ENDCHAR
STARTCHAR F
ENCODING 70
SWIDTH 590 0
DWIDTH 11 0
BBX 12 13 0 0
BITMAP
3ff0
1c30
1c30
1c00
1cc0
1cc0
3f80
3880
3880
3800
3800
3800
fc00
ENDCHAR
STARTCHAR G
ENCODING 71
SWIDTH 750 0
DWIDTH 14 0
BBX 12 13 1 0
BITMAP
0ff0
3c70
3860
7060
7000
e000
e000
e3f0
e0e0
e1c0
f1c0
79c0
3f80
ENDCHAR
STARTCHAR H
ENCODING 72
SWIDTH 813 0
DWIDTH 15 0
BBX 16 13 0 0
BITMAP
3f3f00
1e1c00
1c1c00
1c1c00
1c1c00
1c1c00
1ffc00
3c3800
383800
383800
383800
387800
fcfc00
ENDCHAR
STARTCHAR I
ENCODING 73
SWIDTH 407 0
DWIDTH 7 0
BBX 8 13 0 0
BITMAP
3f00
1c00
1c00
1c00
1c00
1c00
1c00
3800
3800
3800
3800
3800
fc00
ENDCHAR
STARTCHAR J
ENCODING 74
SWIDTH 521 0
DWIDTH 10 0
BBX 11 13 -1 0
BITMAP
07e0
0380
0380
0380
0380
0780
0780
0700
0700
4700
ce00
ce00
f800
ENDCHAR
STARTCHAR K
ENCODING 75
SWIDTH 708 0
DWIDTH 14 0
BBX 15 13 0 0
BITMAP
3f3e
1e18
1e30
1c60
1cc0
1d80
1fc0
3dc0
39e0
38e0
38f0
3870
fc7c
ENDCHAR
STARTCHAR L
ENCODING 76
SWIDTH 583 0
DWIDTH 11 0
BBX 10 13 0 0
BITMAP
3f00
1c00
1c00
1c00
1c00
1800
3800
3800
3800
38c0
38c0
70c0
ff80
ENDCHAR
STARTCHAR M
ENCODING 77
SWIDTH 986 0
DWIDTH 18 0
BBX 19 13 0 0
BITMAP
3f07e0
0f0780
1f0f80
1b0b80
1b9b80
139380
13b380
33a300
33e700
33e700
21c700
21c700
f99f80
ENDCHAR
STARTCHAR N
ENCODING 78
SWIDTH 771 0
DWIDTH 14 0
BBX 15 13 0 0
BITMAP
3e3e
1e08
1f08
1f18
1718
1398
3398
31d0
31d0
31f0
20f0
20f0
f8e0
ENDCHAR
STARTCHAR O
ENCODING 79
SWIDTH 780 0
DWIDTH 15 0
BBX 13 13 1 0
BITMAP
0fe0
3c70
7838
7038
7038
e038
e038
e038
e070
e070
60e0
71e0
3f80
ENDCHAR
STARTCHAR P
ENCODING 80
SWIDTH 644 0
DWIDTH 12 0
BBX 12 13 0 0
BITMAP
3fe0
1cf0
1c70
1c70
1c70
1cf0
3ce0
3fc0
3800
3800
3800
3800
fc00
ENDCHAR
STARTCHAR Q
ENCODING 81
SWIDTH 780 0
DWIDTH 15 0
BBX 13 16 1 -3
BITMAP
0fe0
3c70
7838
7038
7038
e038
e038
e038
e070
e070
70e0
71c0
3f80
03c0
01f8
00f0
ENDCHAR
STARTCHAR R
ENCODING 82
SWIDTH 715 0
DWIDTH 14 0
BBX 14 13 0 0
BITMAP
3ff0
0e78
0e38
1e38
1e38
1c70
1fc0
3ce0
3ce0
3cf0
3870
3870
fe3c
ENDCHAR
STARTCHAR S
ENCODING 83
SWIDTH 593 0
DWIDTH 11 0
BBX 11 13 0 0
BITMAP
0fe0
1cc0
38c0
3840
3c00
3e00
1f80
07c0
03c0
61c0
61c0
e380
7e00
ENDCHAR
STARTCHAR T
ENCODING 84
SWIDTH 627 0
DWIDTH 12 0
BBX 12 13 1 0
BITMAP
7ff0
cf30
ce30
ce20
0e00
0e00
0e00
1e00
1c00
1c00
1c00
1c00
7e00
ENDCHAR
STARTCHAR U
ENCODING 85
SWIDTH 766 0
DWIDTH 14 0
BBX 14 13 1 0
BITMAP
fc7c
7010
7030
7030
7030
7030
e060
e060
e060
e040
f0c0
7f80
3e00
ENDCHAR
STARTCHAR V
ENCODING 86
SWIDTH 669 0
DWIDTH 13 0
BBX 14 13 0 0
BITMAP
fc7c
7838
3830
3860
3860
38c0
3cc0
3d80
1d80
1f00
1f00
1e00
1c00
ENDCHAR
STARTCHAR W
ENCODING 87
SWIDTH 981 0
DWIDTH 18 0
BBX 18 13 1 0
BITMAP
fce3c0
70e180
70e300
71e300
716200
3b7600
3a7600
3e7c00
3c7c00
3c7800
3c7800
387800
383000
ENDCHAR
STARTCHAR X
ENCODING 88
SWIDTH 671 0
DWIDTH 12 0
BBX 14 13 -1 0
BITMAP
3f7c
1e38
0e30
0e60
07c0
0780
0780
0780
0fc0
19c0
31c0
70e0
fbf0
ENDCHAR
STARTCHAR Y
ENCODING 89
SWIDTH 634 0
DWIDTH 12 0
BBX 13 13 0 0
BITMAP
fcf8
7830
3860
38c0
3c80
1d80
1f00
1e00
0e00
1e00
1c00
1c00
7f00
ENDCHAR
STARTCHAR Z
ENCODING 90
SWIDTH 611 0
DWIDTH 12 0
BBX 12 13 0 0
BITMAP
3ff0
30f0
31e0
23c0
0380
0780
0f00
1e00
1c00
3c60
7860
f0c0
ffc0
ENDCHAR
STARTCHAR bracketleft
ENCODING 91
SWIDTH 495 0
DWIDTH 10 0
BBX 9 16 1 -2
BITMAP
1f80
1c00
3800
3800
3800
3800
3800
3800
7000
7000
7000
7000
7000
f000
e000
fc00
ENDCHAR
STARTCHAR backslash
ENCODING 92
SWIDTH 481 0
DWIDTH 9 0
BBX 10 14 0 -1
BITMAP
c000
6000
3000
3000
1800
1800
0c00
0c00
0600
0600
0300
0180
0180
00c0
ENDCHAR
STARTCHAR bracketright
ENCODING 93
SWIDTH 495 0
DWIDTH 9 0
BBX 9 16 -1 -2
BITMAP
1f80
0380
0380
0700
0700
0700
0700
0700
0e00
0e00
0e00
0e00
0e00
0e00
1c00
fc00
ENDCHAR
STARTCHAR asciicircum
ENCODING 94
SWIDTH 1000 0
DWIDTH 19 0
BBX 11 5 4 9
BITMAP
0e00
1b00
3180
60c0
c060
ENDCHAR
STARTCHAR underscore
ENCODING 95
SWIDTH 500 0
DWIDTH 9 0
BBX 9 2 0 -4
BITMAP
ff80
ff80
ENDCHAR
STARTCHAR quoteleft
ENCODING 96
SWIDTH 331 0
DWIDTH 6 0
BBX 4 6 2 7
BITMAP
30
60
c0
e0
e0
c0
ENDCHAR
STARTCHAR a
ENCODING 97
SWIDTH 650 0
DWIDTH 12 0
BBX 12 9 0 0
BITMAP
1fe0
39e0
71c0
e1c0
e1c0
e3c0
e380
fff0
73e0
ENDCHAR
STARTCHAR b
ENCODING 98
SWIDTH 627 0
DWIDTH 12 0
BBX 11 14 0 0
BITMAP
1c00
fc00
3c00
3c00
3800
39c0
3fc0
78e0
78e0
78e0
70e0
f1c0
f380
7e00
ENDCHAR
STARTCHAR c
ENCODING 99
SWIDTH 498 0
DWIDTH 9 0
BBX 8 9 0 0
BITMAP
1f00
3700
7300
e000
e000
e000
f100
7e00
3c00
ENDCHAR
STARTCHAR d
ENCODING 100
SWIDTH 660 0
DWIDTH 12 0
BBX 11 14 0 0
BITMAP
00e0
03e0
00e0
00c0
01c0
1fc0
39c0
71c0
e1c0
e180
e380
e380
7fe0
71c0
ENDCHAR
STARTCHAR e
ENCODING 101
SWIDTH 523 0
DWIDTH 10 0
BBX 9 9 0 0
BITMAP
1f00
3380
7380
e700
fc00
e000
f100
7f00
3c00
ENDCHAR
STARTCHAR f
ENCODING 102
SWIDTH 373 0
DWIDTH 7 0
BBX 13 18 -3 -4
BITMAP
0070
01f8
0398
0380
0380
0fe0
0700
0700
0700
0700
0700
0600
0e00
0e00
0c00
4c00
e800
f000
ENDCHAR
STARTCHAR g
ENCODING 103
SWIDTH 574 0
DWIDTH 11 0
BBX 12 13 0 -4
BITMAP
1f80
39f0
71c0
71c0
7380
3f00
1c00
3f00
6fc0
c3c0
c1c0
e380
7e00
ENDCHAR
STARTCHAR h
ENCODING 104
SWIDTH 664 0
DWIDTH 12 0
BBX 11 14 0 0
BITMAP
1c00
7800
1800
3800
3800
3980
3fc0
39c0
71c0
7180
7180
7380
63e0
e1c0
ENDCHAR
STARTCHAR i
ENCODING 105
SWIDTH 361 0
DWIDTH 7 0
BBX 5 14 1 0
BITMAP
38
38
38
30
00
70
f0
70
70
60
e0
e0
f8
70
ENDCHAR
STARTCHAR j
ENCODING 106
SWIDTH 338 0
DWIDTH 7 0
BBX 10 18 -3 -4
BITMAP
01c0
03c0
03c0
0180
0000
0380
0f80
0380
0380
0700
0700
0700
0700
0700
0e00
0e00
ec00
f000
ENDCHAR
STARTCHAR k
ENCODING 107
SWIDTH 627 0
DWIDTH 12 0
BBX 12 14 0 0
BITMAP
1c00
7c00
1c00
3800
3800
38e0
39e0
3a40
7f00
7700
7780
7380
73f0
e1e0
ENDCHAR
STARTCHAR l
ENCODING 108
SWIDTH 352 0
DWIDTH 7 0
BBX 6 14 1 0
BITMAP
1c
fc
38
38
38
78
78
70
70
f0
f0
f0
fc
70
ENDCHAR
STARTCHAR m
ENCODING 109
SWIDTH 988 0
DWIDTH 18 0
BBX 17 9 1 0
BITMAP
3b8e00
f7df00
79e700
71c700
71c600
71ce00
738e00
e38f80
e38f00
ENDCHAR
STARTCHAR n
ENCODING 110
SWIDTH 669 0
DWIDTH 12 0
BBX 11 9 0 0
BITMAP
3b80
f7c0
79c0
71c0
7180
7380
7380
e3e0
e1c0
ENDCHAR
STARTCHAR o
ENCODING 111
SWIDTH 620 0
DWIDTH 12 0
BBX 11 9 0 0
BITMAP
1f80
79c0
70e0
e0e0
e0e0
e0e0
e1c0
73c0
3f00
ENDCHAR
STARTCHAR p
ENCODING 112
SWIDTH 637 0
DWIDTH 12 0
BBX 12 13 -1 -4
BITMAP
0ce0
3fe0
1c70
1c70
1c70
1870
38e0
39c0
3f80
3800
3800
7000
fc00
ENDCHAR
STARTCHAR q
ENCODING 113
SWIDTH 637 0
DWIDTH 12 0
BBX 11 13 0 -4
BITMAP
1fe0
39e0
71c0
e1c0
e1c0
e3c0
e3c0
7f80
7380
0380
0780
0700
0fc0
ENDCHAR
STARTCHAR r
ENCODING 114
SWIDTH 519 0
DWIDTH 10 0
BBX 10 9 0 0
BITMAP
3980
fbc0
3dc0
7980
7000
7000
7000
7000
f000
ENDCHAR
STARTCHAR s
ENCODING 115
SWIDTH 488 0
DWIDTH 9 0
BBX 8 9 0 0
BITMAP
1e00
7300
7300
7800
3e00
1f00
e700
c600
7c00
ENDCHAR
STARTCHAR t
ENCODING 116
SWIDTH 414 0
DWIDTH 8 0
BBX 7 12 1 0
BITMAP
18
38
30
fe
70
70
70
e0
e0
e0
fc
70
ENDCHAR
STARTCHAR u
ENCODING 117
SWIDTH 669 0
DWIDTH 12 0
BBX 12 9 0 0
BITMAP
38e0
f8e0
38e0
31c0
71c0
71c0
71c0
7fd0
39e0
ENDCHAR
STARTCHAR v
ENCODING 118
SWIDTH 551 0
DWIDTH 10 0
BBX 10 9 0 0
BITMAP
31c0
f1c0
39c0
3980
3980
3b00
3e00
3c00
3800
ENDCHAR
STARTCHAR w
ENCODING 119
SWIDTH 856 0
DWIDTH 16 0
BBX 16 9 0 0
BITMAP
386700
f8e700
39e700
39e600
3ae600
3eec00
3ce800
38f000
38e000
ENDCHAR
STARTCHAR x
ENCODING 120
SWIDTH 565 0
DWIDTH 10 0
BBX 11 9 -1 0
BITMAP
1ce0
7de0
1d60
0e00
0e00
5f00
f700
e7c0
43c0
ENDCHAR
STARTCHAR y
ENCODING 121
SWIDTH 535 0
DWIDTH 10 0
BBX 12 13 -1 -4
BITMAP
3870
7c70
1cc0
1cc0
1c80
1d80
1d00
0f00
0e00
0400
c800
f800
6000
ENDCHAR
STARTCHAR z
ENCODING 122
SWIDTH 509 0
DWIDTH 9 0
BBX 10 9 -1 0
BITMAP
1cc0
3f80
4f00
6600
6e00
1d80
3980
7c80
ff00
ENDCHAR
STARTCHAR braceleft
ENCODING 123
SWIDTH 500 0
DWIDTH 9 0
BBX 7 16 1 -2
BITMAP
1e
3c
38
38
38
38
30
c0
30
38
38
38
38
38
3c
1e
ENDCHAR
STARTCHAR bar
ENCODING 124
SWIDTH 500 0
DWIDTH 9 0
BBX 2 19 4 -4
BITMAP
c0
c0
c0
c0
c0
c0
c0
c0
c0
c0
c0
c0
c0
c0
c0
c0
c0
c0
c0
ENDCHAR
STARTCHAR braceright
ENCODING 125
SWIDTH 500 0
DWIDTH 9 0
BBX 7 16 1 -2
BITMAP
f0
38
38
38
38
38
18
06
18
38
38
38
38
38
78
f0
ENDCHAR
STARTCHAR c0126
ENCODING 126
SWIDTH 1000 0
DWIDTH 19 0
BBX 11 2 4 11
BITMAP
3c60
c780
ENDCHAR
STARTCHAR space
ENCODING 160
SWIDTH 319 0
DWIDTH 6 0
BBX 1 1 0 0
BITMAP
00
ENDCHAR
STARTCHAR exclamdown
ENCODING 161
SWIDTH 343 0
DWIDTH 6 0
BBX 5 13 0 0
BITMAP
30
38
38
30
00
30
30
30
70
70
f0
e0
e0
ENDCHAR
STARTCHAR cent
ENCODING 162
SWIDTH 639 0
DWIDTH 12 0
BBX 10 14 1 -2
BITMAP
0100
0200
1fc0
3ac0
72c0
e200
e600
e400
e400
e580
7580
3f00
0800
0800
ENDCHAR
STARTCHAR sterling
ENCODING 163
SWIDTH 639 0
DWIDTH 12 0
BBX 11 13 0 0
BITMAP
07c0
0ee0
1ce0
1c60
1c00
1c00
7f80
1800
3800
3800
3000
ffc0
ffc0
ENDCHAR
STARTCHAR currency
ENCODING 164
SWIDTH 606 0
DWIDTH 11 0
BBX 10 10 1 4
BITMAP
8040
5e80
2100
6080
4080
4080
4080
2100
5e80
8040
ENDCHAR
STARTCHAR yen
ENCODING 165
SWIDTH 671 0
DWIDTH 12 0
BBX 13 13 0 0
BITMAP
7e78
3830
3c60
1c40
1cc0
7ff0
0f00
0f00
ffe0
0e00
0e00
0e00
3f00
ENDCHAR
STARTCHAR brokenbar
ENCODING 166
SWIDTH 500 0
DWIDTH 9 0
BBX 2 17 4 -3
BITMAP
c0
c0
c0
c0
c0
c0
c0
00
00
00
c0
c0
c0
c0
c0
c0
c0
ENDCHAR
STARTCHAR section
ENCODING 167
SWIDTH 500 0
DWIDTH 9 0
BBX 10 16 -1 -2
BITMAP
0fc0
18c0
3880
3800
1e00
1f00
3380
6180
6180
7300
3e00
1e00
0700
c700
c600
fc00
ENDCHAR
STARTCHAR dieresis
ENCODING 168
SWIDTH 500 0
DWIDTH 9 0
BBX 7 3 2 11
BITMAP
ee
ee
ee
ENDCHAR
STARTCHAR copyright
ENCODING 169
SWIDTH 900 0
DWIDTH 17 0
BBX 15 15 1 -1
BITMAP
07c0
1830
2008
43e4
4e24
8c22
9c02
9c02
9c02
8c22
4e24
43e4
3008
1830
07c0
ENDCHAR
STARTCHAR ordfeminine
ENCODING 170
SWIDTH 488 0
DWIDTH 9 0
BBX 9 6 0 6
BITMAP
3f00
6700
c600
c600
ce00
7f80
ENDCHAR
STARTCHAR guillemotleft
ENCODING 171
SWIDTH 458 0
DWIDTH 9 0
BBX 9 8 0 1
BITMAP
0880
1980
7700
e600
ce00
6700
3300
1100
ENDCHAR
STARTCHAR logicalnot
ENCODING 172
SWIDTH 833 0
DWIDTH 16 0
BBX 11 5 3 4
BITMAP
ffe0
ffe0
0060
0060
0060
ENDCHAR
STARTCHAR hyphen
ENCODING 173
SWIDTH 333 0
DWIDTH 6 0
BBX 5 2 0 4
BITMAP
f8
f8
ENDCHAR
STARTCHAR registered
ENCODING 174
SWIDTH 900 0
DWIDTH 17 0
BBX 15 15 1 -1
BITMAP
07c0
1830
2008
6fc4
4664
8662
8662
8782
86c2
8662
4664
4f34
2008
1830
07c0
ENDCHAR
STARTCHAR macron
ENCODING 175
SWIDTH 500 0
DWIDTH 9 0
BBX 7 2 2 12
BITMAP
fe
fe
ENDCHAR
STARTCHAR degree
ENCODING 176
SWIDTH 329 0
DWIDTH 6 0
BBX 5 5 1 9
BITMAP
70
88
88
88
70
ENDCHAR
STARTCHAR plusminus
ENCODING 177
SWIDTH 833 0
DWIDTH 16 0
BBX 12 12 2 0
BITMAP
0600
0600
0600
fff0
fff0
0600
0600
0600
0000
0000
fff0
fff0
ENDCHAR
STARTCHAR twosuperior
ENCODING 178
SWIDTH 422 0
DWIDTH 8 0
BBX 7 8 0 5
BITMAP
3c
66
66
0e
18
22
fe
fc
ENDCHAR
STARTCHAR threesuperior
ENCODING 179
SWIDTH 422 0
DWIDTH 8 0
BBX 7 8 0 5
BITMAP
3c
66
66
0c
3c
0e
cc
78
ENDCHAR
STARTCHAR acute
ENCODING 180
SWIDTH 500 0
DWIDTH 10 0
BBX 5 4 5 11
BITMAP
38
70
60
c0
ENDCHAR
STARTCHAR mu
ENCODING 181
SWIDTH 578 0
DWIDTH 11 0
BBX 11 11 -1 -3
BITMAP
18c0
3180
3180
3180
3180
6180
73a0
5dc0
c000
c000
c000
ENDCHAR
STARTCHAR paragraph
ENCODING 182
SWIDTH 500 0
DWIDTH 9 0
BBX 9 14 0 -1
BITMAP
3f80
7d00
fd00
fd00
fd00
fd00
7d00
3d00
0100
0100
0100
0100
0100
0100
ENDCHAR
STARTCHAR periodcentered
ENCODING 183
SWIDTH 322 0
DWIDTH 6 0
BBX 4 4 1 5
BITMAP
60
f0
f0
60
ENDCHAR
STARTCHAR cedilla
ENCODING 184
SWIDTH 500 0
DWIDTH 9 0
BBX 4 4 1 -4
BITMAP
40
70
30
e0
ENDCHAR
STARTCHAR onesuperior
ENCODING 185
SWIDTH 422 0
DWIDTH 8 0
BBX 5 8 1 5
BITMAP
38
78
10
30
30
30
30
f8
ENDCHAR
STARTCHAR ordmasculine
ENCODING 186
SWIDTH 465 0
DWIDTH 9 0
BBX 8 6 0 6
BITMAP
3e00
6300
c300
c300
c600
7c00
ENDCHAR
STARTCHAR guillemotright
ENCODING 187
SWIDTH 458 0
DWIDTH 9 0
BBX 8 8 0 1
BITMAP
4400
6400
7600
3300
3300
6600
cc00
8800
ENDCHAR
STARTCHAR onequarter
ENCODING 188
SWIDTH 972 0
DWIDTH 19 0
BBX 18 13 1 0
BITMAP
381800
781000
103000
302000
304000
30c180
308380
f98580
010b00
021300
063fc0
040300
0c0700
ENDCHAR
STARTCHAR onehalf
ENCODING 189
SWIDTH 972 0
DWIDTH 19 0
BBX 17 13 1 0
BITMAP
381800
781000
103000
302000
304000
30cf00
309980
f99980
010380
020300
060600
041880
0c3f80
ENDCHAR
STARTCHAR threequarters
ENCODING 190
SWIDTH 972 0
DWIDTH 19 0
BBX 19 13 0 0
BITMAP
3c0c00
660800
661800
0c1000
3c2000
0e60c0
cc41c0
78c2c0
008580
010980
031fe0
020180
060380
ENDCHAR
STARTCHAR questiondown
ENCODING 191
SWIDTH 519 0
DWIDTH 10 0
BBX 9 13 0 0
BITMAP
0300
0780
0780
0300
0000
0200
0e00
3c00
7000
f000
e180
f380
7e00
ENDCHAR
STARTCHAR Agrave
ENCODING 192
SWIDTH 688 0
DWIDTH 13 0
BBX 14 18 -1 0
BITMAP
0380
0180
01c0
00c0
0000
00e0
01e0
03e0
03e0
06e0
06f0
0cf0
0c70
1ff0
3070
3070
6078
f8fc
ENDCHAR
STARTCHAR Aacute
ENCODING 193
SWIDTH 688 0
DWIDTH 13 0
BBX 14 18 -1 0
BITMAP
0038
0070
0060
00c0
0000
00e0
01e0
03e0
03e0
06e0
06f0
0cf0
0c70
1ff0
3070
3070
6078
f8fc
ENDCHAR
STARTCHAR Acircumflex
ENCODING 194
SWIDTH 688 0
DWIDTH 13 0
BBX 14 18 -1 0
BITMAP
01c0
01c0
0360
0660
0000
00e0
01e0
03e0
03e0
06e0
06f0
0cf0
0c70
1ff0
3070
3070
6078
f8fc
ENDCHAR
STARTCHAR Atilde
ENCODING 195
SWIDTH 688 0
DWIDTH 13 0
BBX 14 17 -1 0
BITMAP
0310
07f0
0460
0000
00e0
01e0
03e0
03e0
06e0
06f0
0cf0
0c70
1ff0
3070
3070
6078
f8fc
ENDCHAR
STARTCHAR Adieresis
ENCODING 196
SWIDTH 688 0
DWIDTH 13 0
BBX 14 17 -1 0
BITMAP
0770
0770
0770
0000
00e0
01e0
03e0
03e0
06e0
06f0
0cf0
0c70
1ff0
3070
3070
6078
f8fc
ENDCHAR
STARTCHAR Aring
ENCODING 197
SWIDTH 688 0
DWIDTH 13 0
BBX 14 18 -1 0
BITMAP
00e0
01b0
01b0
00e0
0000
00e0
01e0
03e0
03e0
06e0
06f0
0cf0
0c70
1ff0
3070
3070
6078
f8fc
ENDCHAR
STARTCHAR AE
ENCODING 198
SWIDTH 951 0
DWIDTH 18 0
BBX 20 13 -2 0
BITMAP
00fff0
007c30
00dc20
009c00
019c80
033c80
063f80
07f980
0c3900
183860
107860
3070c0
f8ffc0
ENDCHAR
STARTCHAR Ccedilla
ENCODING 199
SWIDTH 671 0
DWIDTH 13 0
BBX 12 17 1 -4
BITMAP
0ff0
3c30
3830
7020
7000
e000
e000
e000
e000
e060
70c0
78c0
3fc0
0800
0e00
0600
1c00
ENDCHAR
STARTCHAR Egrave
ENCODING 200
SWIDTH 639 0
DWIDTH 12 0
BBX 12 18 0 0
BITMAP
0700
0300
0380
0180
0000
3ff0
1c30
1c20
1c00
1c80
1c80
3f80
3980
3980
3860
3860
3840
ffc0
ENDCHAR
STARTCHAR Eacute
ENCODING 201
SWIDTH 639 0
DWIDTH 12 0
BBX 12 18 0 0
BITMAP
0070
00e0
00c0
0180
0000
3ff0
1c30
1c20
1c00
1c80
1c80
3f80
3980
3980
3860
3860
3840
ffc0
ENDCHAR
STARTCHAR Ecircumflex
ENCODING 202
SWIDTH 639 0
DWIDTH 12 0
BBX 12 18 0 0
BITMAP
0380
0380
06c0
0cc0
0000
3ff0
1c30
1c20
1c00
1c80
1c80
3f80
3980
3980
3860
3860
3840
ffc0
ENDCHAR
STARTCHAR Edieresis
ENCODING 203
SWIDTH 639 0
DWIDTH 12 0
BBX 12 17 0 0
BITMAP
0ee0
0ee0
0ee0
0000
3ff0
1c30
1c20
1c00
1c80
1c80
3f80
3980
3980
3860
3860
3840
ffc0
ENDCHAR
STARTCHAR Igrave
ENCODING 204
SWIDTH 407 0
DWIDTH 7 0
BBX 8 18 0 0
BITMAP
1c00
0c00
0e00
0600
0000
3f00
1c00
1c00
1c00
1c00
1c00
1c00
3800
3800
3800
3800
3800
fc00
ENDCHAR
STARTCHAR Iacute
ENCODING 205
SWIDTH 407 0
DWIDTH 7 0
BBX 10 18 0 0
BITMAP
01c0
0380
0300
0600
0000
3f00
1c00
1c00
1c00
1c00
1c00
1c00
3800
3800
3800
3800
3800
fc00
ENDCHAR
STARTCHAR Icircumflex
ENCODING 206
SWIDTH 407 0
DWIDTH 7 0
BBX 8 18 0 0
BITMAP
0e00
0e00
1b00
3300
0000
3f00
1c00
1c00
1c00
1c00
1c00
1c00
3800
3800
3800
3800
3800
fc00
ENDCHAR
STARTCHAR Idieresis
ENCODING 207
SWIDTH 407 0
DWIDTH 7 0
BBX 9 17 0 0
BITMAP
3b80
3b80
3b80
0000
3f00
1c00
1c00
1c00
1c00
1c00
1c00
3800
3800
3800
3800
3800
fc00
ENDCHAR
STARTCHAR Eth
ENCODING 208
SWIDTH 762 0
DWIDTH 15 0
BBX 14 13 0 0
BITMAP
3ff0
0e78
1e38
1e1c
1c1c
1c1c
7f1c
3c1c
3c38
3838
3870
38e0
ffc0
ENDCHAR
STARTCHAR Ntilde
ENCODING 209
SWIDTH 771 0
DWIDTH 14 0
BBX 15 17 0 0
BITMAP
0310
07f0
0460
0000
3e3e
1e08
1f08
1f18
1718
1398
3398
31d0
31d0
31f0
20f0
20f0
f8e0
ENDCHAR
STARTCHAR Ograve
ENCODING 210
SWIDTH 780 0
DWIDTH 15 0
BBX 13 18 1 0
BITMAP
0700
0300
0380
0180
0000
0fe0
3c70
7838
7038
7038
e038
e038
e038
e070
e070
60e0
71e0
3f80
ENDCHAR
STARTCHAR Oacute
ENCODING 211
SWIDTH 780 0
DWIDTH 15 0
BBX 13 18 1 0
BITMAP
0070
00e0
00c0
0180
0000
0fe0
3c70
7838
7038
7038
e038
e038
e038
e070
e070
60e0
71e0
3f80
ENDCHAR
STARTCHAR Ocircumflex
ENCODING 212
SWIDTH 780 0
DWIDTH 15 0
BBX 13 18 1 0
BITMAP
0380
0380
06c0
0cc0
0000
0fe0
3c70
7838
7038
7038
e038
e038
e038
e070
e070
60e0
71e0
3f80
ENDCHAR
STARTCHAR Otilde
ENCODING 213
SWIDTH 780 0
DWIDTH 15 0
BBX 13 17 1 0
BITMAP
0620
0fe0
08c0
0000
0fe0
3c70
7838
7038
7038
e038
e038
e038
e070
e070
60e0
71e0
3f80
ENDCHAR
STARTCHAR Odieresis
ENCODING 214
SWIDTH 780 0
DWIDTH 15 0
BBX 13 17 1 0
BITMAP
0ee0
0ee0
0ee0
0000
0fe0
3c70
7838
7038
7038
e038
e038
e038
e070
e070
60e0
71e0
3f80
ENDCHAR
STARTCHAR multiply
ENCODING 215
SWIDTH 833 0
DWIDTH 16 0
BBX 11 11 3 1
BITMAP
4040
e0e0
71c0
3b80
1f00
0e00
1f00
3b80
71c0
e0e0
4040
ENDCHAR
STARTCHAR Oslash
ENCODING 216
SWIDTH 780 0
DWIDTH 15 0
BBX 13 16 1 -1
BITMAP
0010
0010
0fe0
3c70
3870
70b8
71b8
e338
e238
e438
ec70
e870
70e0
71c0
7f80
4000
ENDCHAR
STARTCHAR Ugrave
ENCODING 217
SWIDTH 766 0
DWIDTH 14 0
BBX 14 18 1 0
BITMAP
0e00
0600
0700
0300
0000
fc7c
7010
7030
7030
7030
7030
e060
e060
e060
e040
f0c0
7f80
3e00
ENDCHAR
STARTCHAR Uacute
ENCODING 218
SWIDTH 766 0
DWIDTH 14 0
BBX 14 18 1 0
BITMAP
00e0
01c0
0180
0300
0000
fc7c
7010
7030
7030
7030
7030
e060
e060
e060
e040
f0c0
7f80
3e00
ENDCHAR
STARTCHAR Ucircumflex
ENCODING 219
SWIDTH 766 0
DWIDTH 14 0
BBX 14 18 1 0
BITMAP
0700
0700
0d80
1980
0000
fc7c
7010
7030
7030
7030
7030
e060
e060
e060
e040
f0c0
7f80
3e00
ENDCHAR
STARTCHAR Udieresis
ENCODING 220
SWIDTH 766 0
DWIDTH 14 0
BBX 14 17 1 0
BITMAP
1dc0
1dc0
1dc0
0000
fc7c
7010
7030
7030
7030
7030
e060
e060
e060
e040
f0c0
7f80
3e00
ENDCHAR
STARTCHAR Yacute
ENCODING 221
SWIDTH 634 0
DWIDTH 12 0
BBX 13 18 0 0
BITMAP
00e0
01c0
0180
0300
0000
fcf8
7830
3860
38c0
3c80
1d80
1f00
1e00
0e00
1e00
1c00
1c00
7f00
ENDCHAR
STARTCHAR Thorn
ENCODING 222
SWIDTH 644 0
DWIDTH 12 0
BBX 12 13 0 0
BITMAP
3f00
1e00
1e00
1fe0
1cf0
1c70
1c70
3c70
3ce0
38e0
3fc0
3800
fe00
ENDCHAR
STARTCHAR germandbls
ENCODING 223
SWIDTH 697 0
DWIDTH 13 0
BBX 15 18 -3 -4
BITMAP
007c
01ce
038e
038e
070e
0738
0730
0778
073c
071e
060e
0eee
0ece
0e78
0c00
cc00
f800
6000
ENDCHAR
STARTCHAR agrave
ENCODING 224
SWIDTH 650 0
DWIDTH 12 0
BBX 12 15 0 0
BITMAP
0e00
0600
0700
0300
0000
0000
1fe0
39e0
71c0
e1c0
e1c0
e3c0
e380
fff0
73e0
ENDCHAR
STARTCHAR aacute
ENCODING 225
SWIDTH 650 0
DWIDTH 12 0
BBX 12 15 0 0
BITMAP
00e0
01c0
0180
0300
0000
0000
1fe0
39e0
71c0
e1c0
e1c0
e3c0
e380
fff0
73e0
ENDCHAR
STARTCHAR acircumflex
ENCODING 226
SWIDTH 650 0
DWIDTH 12 0
BBX 12 15 0 0
BITMAP
0700
0700
0d80
1980
0000
0000
1fe0
39e0
71c0
e1c0
e1c0
e3c0
e380
fff0
73e0
ENDCHAR
STARTCHAR atilde
ENCODING 227
SWIDTH 650 0
DWIDTH 12 0
BBX 12 14 0 0
BITMAP
0c40
1fc0
1180
0000
0000
1fe0
39e0
71c0
e1c0
e1c0
e3c0
e380
fff0
73e0
ENDCHAR
STARTCHAR adieresis
ENCODING 228
SWIDTH 650 0
DWIDTH 12 0
BBX 12 14 0 0
BITMAP
1dc0
1dc0
1dc0
0000
0000
1fe0
39e0
71c0
e1c0
e1c0
e3c0
e380
fff0
73e0
ENDCHAR
STARTCHAR aring
ENCODING 229
SWIDTH 650 0
DWIDTH 12 0
BBX 12 15 0 0
BITMAP
0700
0900
0900
0900
0700
0000
1fe0
39e0
71c0
e1c0
e1c0
e3c0
e380
fff0
73e0
ENDCHAR
STARTCHAR ae
ENCODING 230
SWIDTH 796 0
DWIDTH 15 0
BBX 14 9 0 0
BITMAP
1e78
739c
739c
033c
1ff0
7700
e700
e788
7bf0
ENDCHAR
STARTCHAR ccedilla
ENCODING 231
SWIDTH 498 0
DWIDTH 9 0
BBX 8 13 0 -4
BITMAP
1f00
3700
7300
e000
e000
e000
f100
7e00
3c00
2000
3800
1800
7000
ENDCHAR
STARTCHAR egrave
ENCODING 232
SWIDTH 523 0
DWIDTH 10 0
BBX 9 15 0 0
BITMAP
1c00
0c00
0e00
0600
0000
0000
1f00
3380
7380
e700
fc00
e000
f100
7f00
3c00
ENDCHAR
STARTCHAR eacute
ENCODING 233
SWIDTH 523 0
DWIDTH 10 0
BBX 10 15 0 0
BITMAP
01c0
0380
0300
0600
0000
0000
1f00
3380
7380
e700
fc00
e000
f100
7f00
3c00
ENDCHAR
STARTCHAR ecircumflex
ENCODING 234
SWIDTH 523 0
DWIDTH 10 0
BBX 9 15 0 0
BITMAP
0e00
0e00
1b00
3300
0000
0000
1f00
3380
7380
e700
fc00
e000
f100
7f00
3c00
ENDCHAR
STARTCHAR edieresis
ENCODING 235
SWIDTH 523 0
DWIDTH 10 0
BBX 9 14 0 0
BITMAP
3b80
3b80
3b80
0000
0000
1f00
3380
7380
e700
fc00
e000
f100
7f00
3c00
ENDCHAR
STARTCHAR igrave
ENCODING 236
SWIDTH 361 0
DWIDTH 7 0
BBX 6 15 1 0
BITMAP
e0
60
70
30
00
00
38
f8
70
70
70
f0
f0
fc
70
ENDCHAR
STARTCHAR iacute
ENCODING 237
SWIDTH 361 0
DWIDTH 7 0
BBX 7 15 1 0
BITMAP
0e
1c
18
30
00
00
38
f8
70
70
70
f0
f0
fc
70
ENDCHAR
STARTCHAR icircumflex
ENCODING 238
SWIDTH 361 0
DWIDTH 7 0
BBX 7 15 0 0
BITMAP
38
38
6c
cc
00
00
1c
7c
38
38
38
78
78
7e
38
ENDCHAR
STARTCHAR idieresis
ENCODING 239
SWIDTH 361 0
DWIDTH 7 0
BBX 7 14 0 0
BITMAP
ee
ee
ee
00
00
1c
7c
38
38
38
78
78
7e
38
ENDCHAR
STARTCHAR eth
ENCODING 240
SWIDTH 645 0
DWIDTH 12 0
BBX 10 14 1 0
BITMAP
0e00
1fc0
0700
1b80
0380
1fc0
79c0
71c0
e1c0
e1c0
e1c0
e380
6300
3e00
ENDCHAR
STARTCHAR ntilde
ENCODING 241
SWIDTH 669 0
DWIDTH 12 0
BBX 11 14 0 0
BITMAP
0c40
1fc0
1180
0000
0000
3b80
f7c0
79c0
71c0
7180
7380
7380
e3e0
e1c0
ENDCHAR
STARTCHAR ograve
ENCODING 242
SWIDTH 620 0
DWIDTH 12 0
BBX 11 15 0 0
BITMAP
0e00
0600
0700
0300
0000
0000
1f80
79c0
70e0
e0e0
e0e0
e0e0
e1c0
73c0
3f00
ENDCHAR
STARTCHAR oacute
ENCODING 243
SWIDTH 620 0
DWIDTH 12 0
BBX 11 15 0 0
BITMAP
00e0
01c0
0180
0300
0000
0000
1f80
79c0
70e0
e0e0
e0e0
e0e0
e1c0
73c0
3f00
ENDCHAR
STARTCHAR ocircumflex
ENCODING 244
SWIDTH 620 0
DWIDTH 12 0
BBX 11 15 0 0
BITMAP
0700
0700
0d80
1980
0000
0000
1f80
79c0
70e0
e0e0
e0e0
e0e0
e1c0
73c0
3f00
ENDCHAR
STARTCHAR otilde
ENCODING 245
SWIDTH 620 0
DWIDTH 12 0
BBX 11 14 0 0
BITMAP
0c40
1fc0
1180
0000
0000
1f80
79c0
70e0
e0e0
e0e0
e0e0
e1c0
73c0
3f00
ENDCHAR
STARTCHAR odieresis
ENCODING 246
SWIDTH 620 0
DWIDTH 12 0
BBX 11 14 0 0
BITMAP
1dc0
1dc0
1dc0
0000
0000
1f80
79c0
70e0
e0e0
e0e0
e0e0
e1c0
73c0
3f00
ENDCHAR
STARTCHAR divide
ENCODING 247
SWIDTH 833 0
DWIDTH 16 0
BBX 11 10 3 1
BITMAP
0e00
0e00
0e00
0000
ffe0
ffe0
0000
0e00
0e00
0e00
ENDCHAR
STARTCHAR oslash
ENCODING 248
SWIDTH 620 0
DWIDTH 12 0
BBX 11 12 0 -1
BITMAP
0040
0040
1f80
39c0
73e0
e2e0
e4e0
e8e0
f9c0
7380
3f00
4000
ENDCHAR
STARTCHAR ugrave
ENCODING 249
SWIDTH 669 0
DWIDTH 12 0
BBX 12 15 0 0
BITMAP
0e00
0600
0700
0300
0000
0000
38e0
f8e0
38e0
31c0
71c0
71c0
71c0
7fd0
39e0
ENDCHAR
STARTCHAR uacute
ENCODING 250
SWIDTH 669 0
DWIDTH 12 0
BBX 12 15 0 0
BITMAP
00e0
01c0
0180
0300
0000
0000
38e0
f8e0
38e0
31c0
71c0
71c0
71c0
7fd0
39e0
ENDCHAR
STARTCHAR ucircumflex
ENCODING 251
SWIDTH 669 0
DWIDTH 12 0
BBX 12 15 0 0
BITMAP
0700
0700
0d80
1980
0000
0000
38e0
f8e0
38e0
31c0
71c0
71c0
71c0
7fd0
39e0
ENDCHAR
STARTCHAR udieresis
ENCODING 252
SWIDTH 669 0
DWIDTH 12 0
BBX 12 14 0 0
BITMAP
1dc0
1dc0
1dc0
0000
0000
38e0
f8e0
38e0
31c0
71c0
71c0
71c0
7fd0
39e0
ENDCHAR
STARTCHAR yacute
ENCODING 253
SWIDTH 535 0
DWIDTH 10 0
BBX 12 19 -1 -4
BITMAP
00e0
01c0
0180
0300
0000
0000
3870
7c70
1cc0
1cc0
1c80
1d80
1d00
0f00
0e00
0400
c800
f800
6000
ENDCHAR
STARTCHAR thorn
ENCODING 254
SWIDTH 637 0
DWIDTH 12 0
BBX 12 18 -1 -4
BITMAP
0e00
3e00
0e00
0e00
0c00
1de0
1e70
1c70
1c70
1c70
3860
38e0
39c0
3f80
3800
3800
7000
fc00
ENDCHAR
STARTCHAR ydieresis
ENCODING 255
SWIDTH 535 0
DWIDTH 10 0
BBX 12 18 -1 -4
BITMAP
1dc0
1dc0
1dc0
0000
0000
3870
7c70
1cc0
1cc0
1c80
1d80
1d00
0f00
0e00
0400
c800
f800
6000
ENDCHAR
ENDFONT
