#define left_width 19
#define left_height 19
static unsigned char left_bits[] = {
   0x00, 0x00, 0x00, 0x00, 0x00, 0x00, 0x00, 0x04, 0x00, 0x00, 0x06, 0x00,
   0x00, 0x07, 0x00, 0x80, 0x07, 0x00, 0xc0, 0x07, 0x00, 0xe0, 0xff, 0x01,
   0xf0, 0xff, 0x01, 0xf8, 0xff, 0x01, 0xf0, 0xff, 0x01, 0xe0, 0xff, 0x01,
   0xc0, 0x07, 0x00, 0x80, 0x07, 0x00, 0x00, 0x07, 0x00, 0x00, 0x06, 0x00,
   0x00, 0x04, 0x00, 0x00, 0x00, 0x00, 0x00, 0x00, 0x00};
