#define narrower_width 19
#define narrower_height 19
static unsigned char narrower_bits[] = {
   0x00, 0x00, 0x00, 0x00, 0x00, 0x00, 0x08, 0x80, 0x00, 0x18, 0xc0, 0x00,
   0x38, 0xe0, 0x00, 0x78, 0xf0, 0x00, 0xf8, 0xf8, 0x00, 0xff, 0xfd, 0x07,
   0xff, 0xff, 0x07, 0xff, 0xff, 0x07, 0xff, 0xff, 0x07, 0xff, 0xfd, 0x07,
   0xf8, 0xf8, 0x00, 0x78, 0xf0, 0x00, 0x38, 0xe0, 0x00, 0x18, 0xc0, 0x00,
   0x08, 0x80, 0x00, 0x00, 0x00, 0x00, 0x00, 0x00, 0x00};
