#define right_width 19
#define right_height 19
static unsigned char right_bits[] = {
   0x00, 0x00, 0x00, 0x00, 0x00, 0x00, 0x00, 0x02, 0x00, 0x00, 0x06, 0x00,
   0x00, 0x0e, 0x00, 0x00, 0x1e, 0x00, 0x00, 0x3e, 0x00, 0xf8, 0x7f, 0x00,
   0xf8, 0xff, 0x00, 0xf8, 0xff, 0x01, 0xf8, 0xff, 0x00, 0xf8, 0x7f, 0x00,
   0x00, 0x3e, 0x00, 0x00, 0x1e, 0x00, 0x00, 0x0e, 0x00, 0x00, 0x06, 0x00,
   0x00, 0x02, 0x00, 0x00, 0x00, 0x00, 0x00, 0x00, 0x00};
