#define wider_width 19
#define wider_height 19
static unsigned char wider_bits[] = {
   0x00, 0x00, 0x00, 0x00, 0x00, 0x00, 0x80, 0x08, 0x00, 0xc0, 0x18, 0x00,
   0xe0, 0x38, 0x00, 0xf0, 0x78, 0x00, 0xf8, 0xf8, 0x00, 0xfc, 0xff, 0x01,
   0xfe, 0xff, 0x03, 0xff, 0xff, 0x07, 0xfe, 0xff, 0x03, 0xfc, 0xff, 0x01,
   0xf8, 0xf8, 0x00, 0xf0, 0x78, 0x00, 0xe0, 0x38, 0x00, 0xc0, 0x18, 0x00,
   0x80, 0x08, 0x00, 0x00, 0x00, 0x00, 0x00, 0x00, 0x00};
